<?xml version="1.0" encoding="UTF-8"?>
<!DOCTYPE svg PUBLIC "-//W3C//DTD SVG 1.1//EN" "http://www.w3.org/Graphics/SVG/1.1/DTD/svg11.dtd">
<!-- Creator: CorelDRAW X8 -->
<svg xmlns="http://www.w3.org/2000/svg" xml:space="preserve" width="85px" height="85px" version="1.1" style="shape-rendering:geometricPrecision; text-rendering:geometricPrecision; image-rendering:optimizeQuality; fill-rule:evenodd; clip-rule:evenodd"
viewBox="0 0 32692 32692"
 xmlns:xlink="http://www.w3.org/1999/xlink">
 <defs>
  <style type="text/css">
   <![CDATA[
    .str1 {stroke:#B10000;stroke-width:494.013}
    .str2 {stroke:#B10000;stroke-width:257.365}
    .str3 {stroke:red;stroke-width:257.365}
    .str0 {stroke:red;stroke-width:111.175}
    .fil4 {fill:#900000}
    .fil5 {fill:red}
    .fil3 {fill:#900000;fill-rule:nonzero}
    .fil2 {fill:#FF8A8A;fill-rule:nonzero}
    .fil0 {fill:url(#id0)}
    .fil1 {fill:url(#id1)}
   ]]>
  </style>
  <linearGradient id="id0" gradientUnits="userSpaceOnUse" x1="16346.2" y1="32636.8" x2="16346.2" y2="55.5874">
   <stop offset="0" style="stop-opacity:1; stop-color:#B10000"/>
   <stop offset="1" style="stop-opacity:1; stop-color:red"/>
  </linearGradient>
  <linearGradient id="id1" gradientUnits="userSpaceOnUse" x1="16365" y1="30569" x2="16365" y2="2060.38">
   <stop offset="0" style="stop-opacity:1; stop-color:red"/>
   <stop offset="1" style="stop-opacity:1; stop-color:#B10000"/>
  </linearGradient>
 </defs>
 <g id="Chits">
  <metadata id="CorelCorpID_0Corel-Layer"/>
  <g id="_2216176166976">
   <circle class="fil0 str0" cx="16346" cy="16346" r="16291"/>
   <circle class="fil1 str1" cx="16365" cy="16315" r="14254"/>
   <g>
    <path class="fil2" d="M8493 18477l841 5652 -1501 0 -80 -1014 -530 0 -80 1014 -1521 0 745 -5652 2126 0zm-780 3637c-70,-641 -144,-1434 -222,-2381 -146,1087 -237,1880 -277,2381l499 0z"/>
    <path id="1" class="fil2" d="M14096 19499l-558 4630 -1533 0c-79,-565 -177,-1312 -292,-2240 -44,409 -100,820 -169,1233l-150 1007 -1526 0 -596 -4630 1207 0c14,121 118,1006 312,2656 20,-172 124,-1058 313,-2656l1169 0 290 2656c47,-777 154,-1663 322,-2656l1211 0z"/>
    <path id="2" class="fil2" d="M19062 20942l-1473 0 0 -981c0,-286 -15,-464 -46,-535 -31,-70 -100,-106 -206,-106 -119,0 -195,43 -228,129 -32,87 -48,272 -48,558l0 2623c0,275 16,454 48,538 33,84 105,125 217,125 109,0 180,-41 213,-126 34,-83 50,-281 50,-592l0 -711 1473 0 0 220c0,586 -42,1002 -124,1246 -82,246 -266,460 -548,645 -284,184 -632,276 -1046,276 -430,0 -785,-77 -1065,-233 -278,-157 -464,-372 -555,-648 -90,-277 -135,-691 -135,-1245l0 -1651c0,-407 14,-712 41,-916 29,-203 111,-400 250,-588 138,-188 330,-337 575,-446 246,-108 528,-162 847,-162 433,0 790,84 1072,252 281,167 466,375 555,625 88,250 133,638 133,1166l0 537z"/>
    <path id="3" class="fil2" d="M20953 18477l0 1273c121,-112 252,-197 393,-253 141,-56 292,-84 453,-84 246,0 456,63 630,188 172,126 278,270 318,435 38,164 57,464 57,899l0 3194 -1408 0 0 -3259c0,-270 -13,-443 -41,-520 -27,-77 -86,-115 -181,-115 -87,0 -145,39 -176,119 -30,78 -45,236 -45,470l0 3305 -1408 0 0 -5652 1408 0z"/>
    <path id="4" class="fil2" d="M24740 18477l0 736 -1450 0 0 -736 1450 0zm0 1022l0 4630 -1450 0 0 -4630 1450 0z"/>
    <path id="5" class="fil2" d="M26727 18884l0 729 393 0 0 736 -393 0 0 2476c0,304 17,474 49,509 32,34 165,52 401,52l0 743 -570 0c-322,0 -552,-13 -690,-40 -137,-26 -258,-88 -363,-185 -105,-96 -170,-206 -197,-331 -25,-124 -38,-415 -38,-875l0 -2349 -300 0 0 -736 300 0 0 -729 1408 0z"/>
    <path class="fil3" d="M8386 18262l841 5653 -1502 0 -79 -1015 -531 0 -79 1015 -1521 0 745 -5653 2126 0zm-780 3638c-70,-641 -144,-1434 -223,-2381 -145,1086 -237,1879 -276,2381l499 0z"/>
    <path id="1" class="fil3" d="M13989 19284l-559 4631 -1533 0c-78,-566 -176,-1313 -291,-2240 -44,408 -100,819 -169,1232l-151 1008 -1525 0 -596 -4631 1207 0c14,122 118,1007 312,2656 20,-171 124,-1057 313,-2656l1168 0 291 2656c46,-776 154,-1662 322,-2656l1211 0z"/>
    <path id="2" class="fil3" d="M18954 20728l-1472 0 0 -982c0,-285 -15,-463 -46,-534 -31,-71 -100,-106 -206,-106 -119,0 -196,42 -228,128 -32,87 -49,273 -49,559l0 2622c0,276 17,454 49,539 32,83 105,125 217,125 108,0 180,-42 213,-126 34,-84 50,-282 50,-592l0 -711 1472 0 0 220c0,586 -41,1002 -124,1246 -82,245 -265,459 -547,644 -284,185 -632,277 -1046,277 -430,0 -785,-78 -1065,-234 -279,-156 -465,-372 -555,-648 -90,-276 -136,-691 -136,-1245l0 -1650c0,-408 14,-713 42,-916 28,-204 111,-400 250,-589 138,-188 330,-337 575,-445 246,-108 528,-162 847,-162 432,0 790,83 1072,251 281,167 466,375 555,626 88,250 132,638 132,1166l0 537z"/>
    <path id="3" class="fil3" d="M20846 18262l0 1274c121,-113 252,-197 393,-253 140,-56 292,-84 452,-84 247,0 456,63 630,188 173,126 279,270 318,434 38,165 58,465 58,900l0 3194 -1408 0 0 -3260c0,-269 -13,-443 -41,-519 -27,-78 -87,-116 -181,-116 -87,0 -145,40 -176,119 -30,79 -45,236 -45,471l0 3305 -1408 0 0 -5653 1408 0z"/>
    <path id="4" class="fil3" d="M24633 18262l0 736 -1451 0 0 -736 1451 0zm0 1022l0 4631 -1451 0 0 -4631 1451 0z"/>
    <path id="5" class="fil3" d="M26620 18670l0 729 393 0 0 736 -393 0 0 2476c0,304 16,474 49,508 32,35 165,53 401,53l0 743 -571 0c-321,0 -551,-13 -689,-41 -137,-26 -258,-88 -363,-184 -105,-97 -171,-206 -197,-331 -25,-124 -38,-416 -38,-876l0 -2348 -300 0 0 -736 300 0 0 -729 1408 0z"/>
   </g>
   <path class="fil4 str2" d="M6557 9396c0,0 -244,577 68,1370 312,792 1020,2416 2284,3216 1264,801 2789,1274 3933,1091 1144,-183 1398,-184 1927,-701 530,-517 508,-502 525,-879 17,-376 -556,-489 -556,-489l-255 -1c0,0 -2631,-816 -3400,-1298 -771,-481 -4526,-2309 -4526,-2309z"/>
   <g>
    <path class="fil4 str2" d="M26936 9579c1,0 -2029,558 -3134,1036 -1104,478 -2654,1071 -3090,1175 -436,103 -1765,468 -2819,583 -1054,116 -1605,239 -1605,239l-657 1459c0,0 510,280 1261,438 751,159 1542,458 2868,299 1326,-158 2848,-458 3705,-1088 857,-630 1042,-567 1753,-1444 711,-878 639,-806 983,-1489 344,-684 735,-1208 735,-1208z"/>
    <path class="fil5 str3" d="M19023 12623l2875 -866c0,0 -189,1514 -1518,1604 -1328,89 -1357,-738 -1357,-738z"/>
   </g>
   <path class="fil5 str3" d="M10614 11731l2337 1085c0,0 -87,525 -602,612 -515,87 -906,128 -1374,-450 -292,-423 -361,-1247 -361,-1247z"/>
  </g>
 </g>
</svg>
