<?xml version="1.0" encoding="UTF-8"?>
<!DOCTYPE svg PUBLIC "-//W3C//DTD SVG 1.1//EN" "http://www.w3.org/Graphics/SVG/1.1/DTD/svg11.dtd">
<!-- Creator: CorelDRAW X8 -->
<svg xmlns="http://www.w3.org/2000/svg" xml:space="preserve" width="483px" height="112px" version="1.1" style="shape-rendering:geometricPrecision; text-rendering:geometricPrecision; image-rendering:optimizeQuality; fill-rule:evenodd; clip-rule:evenodd"
viewBox="0 0 124353 28910"
 xmlns:xlink="http://www.w3.org/1999/xlink">
 <defs>
  <style type="text/css">
   <![CDATA[
    .str0 {stroke:#FADAC1;stroke-width:514.709}
    .fil1 {fill:none}
    .fil2 {fill:#FADAC1}
    .fil0 {fill:white;fill-rule:nonzero}
   ]]>
  </style>
     <clipPath id="id0">
      <path d="M8040 4337l11370 0 0 19471 -11370 0 0 -19471z"/>
     </clipPath>
     <clipPath id="id1">
      <path d="M15936 6012l10604 0 0 18180 -10604 0 0 -18180z"/>
     </clipPath>
 </defs>
 <g id="card_x0020_content">
  <metadata id="CorelCorpID_0Corel-Layer"/>
  <g id="_1573468235104">
   <path class="fil0" d="M52060 21448c-1208,561 -2717,842 -4522,842 -2331,0 -4194,-657 -5594,-1974 -1403,-1317 -2105,-3044 -2105,-5182 0,-2295 792,-4152 2367,-5568 1574,-1419 3574,-2127 5995,-2127 1551,0 2838,198 3859,591l0 1796c-1173,-575 -2468,-862 -3883,-862 -1879,0 -3402,551 -4572,1652 -1170,1101 -1754,2576 -1754,4419 0,1751 545,3147 1637,4183 1095,1040 2526,1560 4303,1560 1641,0 3068,-322 4269,-961l0 1631zm12793 602l-1875 0 0 -5914c0,-2137 -904,-3204 -2717,-3204 -912,0 -1684,308 -2307,927 -624,619 -936,1412 -936,2380l0 5811 -1875 0 0 -15189 1875 0 0 6631 47 0c896,-1296 2175,-1942 3835,-1942 2635,0 3953,1392 3953,4176l0 6324zm4487 -12867c-332,0 -620,-99 -854,-301 -238,-199 -354,-451 -354,-759 0,-308 116,-565 354,-767 234,-205 522,-307 854,-307 343,0 635,102 877,307 238,202 358,459 358,767 0,294 -120,543 -358,749 -242,208 -534,311 -877,311zm916 12867l-1875 0 0 -10261 1875 0 0 10261zm13725 -12847l-4729 0 0 12847 -1917 0 0 -12847 -4717 0 0 -1522 11363 0 0 1522zm21221 11865c-1641,815 -3469,1222 -5481,1222 -2335,0 -4226,-661 -5668,-1984 -1446,-1320 -2167,-3072 -2167,-5251 0,-2223 803,-4049 2405,-5475 1602,-1426 3633,-2141 6093,-2141 1781,0 3278,256 4486,762l0 1864c-1321,-735 -2892,-1101 -4705,-1101 -1831,0 -3336,554 -4509,1662 -1174,1108 -1759,2545 -1759,4310 0,1816 546,3246 1634,4282 1087,1040 2565,1560 4432,1560 1278,0 2385,-226 3321,-671l0 -4029 -3586 0 0 -1522 5504 0 0 6512zm4510 -11885c-331,0 -620,-99 -854,-301 -237,-199 -354,-451 -354,-759 0,-308 117,-565 354,-767 234,-205 523,-307 854,-307 343,0 635,102 877,307 238,202 359,459 359,767 0,294 -121,543 -359,749 -242,208 -534,311 -877,311zm916 12867l-1875 0 0 -10261 1875 0 0 10261zm13725 -12847l-4728 0 0 12847 -1918 0 0 -12847 -4717 0 0 -1522 11363 0 0 1522z"/>
   <path class="fil1 str0" d="M14455 258c7841,0 14198,6356 14198,14197 0,7841 -6357,14198 -14198,14198 -7841,0 -14197,-6357 -14197,-14198 0,-7841 6356,-14197 14197,-14197z"/>
   <path class="fil1" d="M13514 1685c6861,0 12423,5561 12423,12422 0,6861 -5562,12423 -12423,12423 -6861,0 -12423,-5562 -12423,-12423 0,-6861 5562,-12422 12423,-12422z"/>
   <g>
    <g style="clip-path:url(#id0)">
     <image x="8040" y="4337" width="11370" height="19472" xlink:href="6208-ChitGit_Web_Orange_1.45-8564e876-cdf0-484b-89f5-0c471d4a55d0_Images\6208-ChitGit_Web_Orange_1.45-8564e876-cdf0-484b-89f5-0c471d4a55d0_ImgID1.png"/>
    </g>
   </g>
   <path class="fil2" d="M13099 5648c614,1508 1057,3111 1670,4618 342,43 470,-551 443,-1560 800,764 1214,2129 1602,3535 2166,4012 1503,7208 -1329,9777 -1159,634 -2317,598 -3476,127 -2583,-1827 -3777,-5198 -1295,-9936 212,-900 457,-1797 988,-2675 164,712 358,1349 750,1465 159,-1752 488,-3599 647,-5351z"/>
   <path class="fil2" d="M8346 6934c576,1185 925,2067 1717,2482 -1037,1934 -1938,3869 -2975,5803 794,1616 1451,3233 2245,4849 -695,867 -1389,1732 -2083,2599 -1858,-2223 -3486,-5111 -5344,-7334 2120,-3022 4321,-5378 6440,-8399z"/>
   <g>
    <g style="clip-path:url(#id1)">
     <image x="15936" y="6012" width="10604" height="18180" xlink:href="6208-ChitGit_Web_Orange_1.45-8564e876-cdf0-484b-89f5-0c471d4a55d0_Images\6208-ChitGit_Web_Orange_1.45-8564e876-cdf0-484b-89f5-0c471d4a55d0_ImgID2.png"/>
    </g>
   </g>
   <path class="fil2" d="M18876 7236c-575,1185 -925,2067 -1717,2482 1037,1935 2042,3869 3079,5803 -793,1616 -1555,3233 -2348,4850 694,866 1388,1732 2083,2598 1857,-2223 3486,-5111 5344,-7334 -2120,-3021 -4321,-5378 -6441,-8399z"/>
   <path class="fil2" d="M10174 9887c388,-394 672,-789 1060,-1183 0,-1415 0,-2829 0,-4244 -2837,-749 -4406,3218 -1060,5427z"/>
   <path class="fil2" d="M17140 9911c-387,-394 -671,-789 -1059,-1183 0,-1415 0,-2829 0,-4244 2837,-748 4406,3218 1059,5427z"/>
  </g>
 </g>
</svg>
