<?xml version="1.0" encoding="UTF-8"?>
<!DOCTYPE svg PUBLIC "-//W3C//DTD SVG 1.1//EN" "http://www.w3.org/Graphics/SVG/1.1/DTD/svg11.dtd">
<!-- Creator: CorelDRAW X8 -->
<svg xmlns="http://www.w3.org/2000/svg" xml:space="preserve" width="260px" height="260px" version="1.1" style="shape-rendering:geometricPrecision; text-rendering:geometricPrecision; image-rendering:optimizeQuality; fill-rule:evenodd; clip-rule:evenodd"
viewBox="0 0 246437 246437"
 xmlns:xlink="http://www.w3.org/1999/xlink">
 <defs>
  <style type="text/css">
   <![CDATA[
    .str1 {stroke:#854E13;stroke-width:3789.13}
    .str0 {stroke:#A99018;stroke-width:852.723}
    .fil5 {fill:#DE9D64}
    .fil4 {fill:#CFA761;fill-rule:nonzero}
    .fil3 {fill:#632510;fill-rule:nonzero}
    .fil2 {fill:#E6B96C;fill-rule:nonzero}
    .fil0 {fill:url(#id4)}
    .fil1 {fill:url(#id5)}
    .fil7 {fill:url(#id6)}
    .fil6 {fill:url(#id7)}
    .fil9 {fill:url(#id8)}
    .fil10 {fill:url(#id9)}
    .fil8 {fill:url(#id10)}
   ]]>
  </style>
     <clipPath id="id0">
      <path d="M104361 87751l41176 0 0 70515 -41176 0 0 -70515z"/>
     </clipPath>
     <clipPath id="id1">
      <path d="M132958 93821l38401 0 0 65837 -38401 0 0 -65837z"/>
     </clipPath>
     <clipPath id="id2">
      <path d="M103562 87100l41176 0 0 70516 -41176 0 0 -70516z"/>
     </clipPath>
     <clipPath id="id3">
      <path d="M132159 93170l38400 0 0 65836 -38400 0 0 -65836z"/>
     </clipPath>
  <linearGradient id="id4" gradientUnits="userSpaceOnUse" x1="123219" y1="246011" x2="123219" y2="426.362">
   <stop offset="0" style="stop-opacity:1; stop-color:#8E441C"/>
   <stop offset="1" style="stop-opacity:1; stop-color:#CF9661"/>
  </linearGradient>
  <linearGradient id="id5" gradientUnits="userSpaceOnUse" x1="123361" y1="230424" x2="123361" y2="15538.1">
   <stop offset="0" style="stop-opacity:1; stop-color:#8E4C1C"/>
   <stop offset="1" style="stop-opacity:1; stop-color:#CF9661"/>
  </linearGradient>
  <linearGradient id="id6" gradientUnits="userSpaceOnUse" x1="85279" y1="148883" x2="106964" y2="101104">
   <stop offset="0" style="stop-opacity:1; stop-color:#632510"/>
   <stop offset="1" style="stop-opacity:1; stop-color:#9C4A31"/>
  </linearGradient>
  <linearGradient id="id7" gradientUnits="userSpaceOnUse" xlink:href="#id6" x1="109846" y1="146558" x2="138453" y2="98157.2">
  </linearGradient>
  <linearGradient id="id8" gradientUnits="userSpaceOnUse" xlink:href="#id6" x1="106057" y1="105681" x2="113522" y2="88730.2">
  </linearGradient>
  <linearGradient id="id9" gradientUnits="userSpaceOnUse" xlink:href="#id6" x1="134292" y1="105770" x2="141756" y2="88818.6">
  </linearGradient>
  <linearGradient id="id10" gradientUnits="userSpaceOnUse" xlink:href="#id6" x1="140517" y1="149977" x2="162201" y2="102198">
  </linearGradient>
 </defs>
 <g id="Layer_x0020_1">
  <metadata id="CorelCorpID_0Corel-Layer"/>
  <circle class="fil0 str0" cx="123219" cy="123219" r="122792"/>
  <circle class="fil1 str1" cx="123361" cy="122981" r="107443"/>
  <polygon class="fil2" points="78616,47860 74661,59880 78987,74481 71851,74481 69041,63072 69041,74481 62107,74481 62107,47860 69041,47860 69041,58203 72154,47860 "/>
  <path id="1" class="fil2" d="M86800 47860l0 3466 -6832 0 0 -3466 6832 0zm0 4812l0 21809 -6832 0 0 -21809 6832 0z"/>
  <path id="2" class="fil2" d="M95922 52672l-101 2025c482,-808 1072,-1413 1767,-1823 696,-404 1498,-606 2412,-606 1138,0 2069,270 2793,808 724,533 1190,1212 1397,2031 208,814 314,2177 314,4083l0 15291 -6630 0 0 -15106c0,-1497 -50,-2417 -151,-2743 -96,-331 -370,-493 -825,-493 -476,0 -774,191 -897,566 -118,382 -180,1391 -180,3035l0 14741 -6631 0 0 -21809 6732 0z"/>
  <path id="3" class="fil2" d="M121905 47860l0 26621 -6631 0 0 -1588c-640,668 -1307,1162 -2008,1493 -708,331 -1442,499 -2211,499 -1031,0 -1929,-269 -2686,-813 -758,-544 -1246,-1173 -1459,-1885 -213,-713 -320,-1873 -320,-3489l0 -10215c0,-1676 107,-2866 320,-3567 213,-701 707,-1319 1475,-1851 769,-533 1689,-797 2754,-797 825,0 1577,152 2266,449 685,297 1308,740 1869,1340l0 -6197 6631 0zm-6631 10299c0,-797 -68,-1335 -208,-1611 -140,-275 -415,-409 -825,-409 -404,0 -672,123 -813,370 -140,246 -207,797 -207,1650l0 10684c0,887 67,1471 201,1751 136,281 387,420 769,420 432,0 724,-156 864,-471 145,-307 219,-1071 219,-2288l0 -10096z"/>
  <path id="4" class="fil2" d="M131009 52672l-101 2025c482,-808 1072,-1413 1767,-1823 696,-404 1498,-606 2412,-606 1138,0 2069,270 2793,808 724,533 1190,1212 1397,2031 208,814 314,2177 314,4083l0 15291 -6630 0 0 -15106c0,-1497 -50,-2417 -151,-2743 -96,-331 -370,-493 -825,-493 -477,0 -774,191 -897,566 -118,382 -180,1391 -180,3035l0 14741 -6630 0 0 -21809 6731 0z"/>
  <path id="5" class="fil2" d="M156925 63948l-8616 0 0 4728c0,987 73,1627 213,1912 146,287 420,426 830,426 510,0 853,-190 1022,-566 173,-381 257,-1116 257,-2204l0 -2883 6294 0 0 1615c0,1352 -84,2390 -252,3113 -175,724 -573,1498 -1195,2322 -623,825 -1419,1442 -2378,1858 -961,408 -2160,616 -3607,616 -1403,0 -2642,-202 -3720,-611 -1071,-404 -1907,-960 -2507,-1666 -600,-707 -1010,-1486 -1239,-2339 -231,-847 -348,-2081 -348,-3708l0 -6367c0,-1907 258,-3410 774,-4515 516,-1099 1357,-1946 2530,-2530 1177,-589 2524,-881 4050,-881 1862,0 3399,354 4610,1061 1212,706 2064,1644 2553,2810 488,1161 729,2804 729,4919l0 2890zm-6631 -3534l0 -1594c0,-1132 -61,-1857 -185,-2188 -123,-331 -376,-493 -757,-493 -471,0 -762,140 -875,420 -112,281 -168,1032 -168,2261l0 1594 1985 0z"/>
  <path id="6" class="fil2" d="M172648 59639l-5856 0 0 -1184c0,-1009 -56,-1643 -174,-1912 -112,-270 -403,-404 -865,-404 -369,0 -650,123 -835,370 -186,246 -281,617 -281,1110 0,668 45,1162 140,1471 91,313 370,655 836,1026 460,376 1414,920 2857,1633 1924,942 3180,1828 3780,2664 600,829 903,2041 903,3629 0,1778 -230,3119 -690,4022 -460,903 -1228,1604 -2306,2092 -1082,487 -2378,729 -3903,729 -1684,0 -3131,-264 -4326,-785 -1201,-527 -2026,-1240 -2474,-2138 -449,-897 -673,-2255 -673,-4072l0 -1049 5890 0 0 1375c0,1167 72,1923 219,2277 151,348 443,521 875,521 472,0 797,-117 983,-353 184,-235 279,-734 279,-1486 0,-1043 -117,-1695 -358,-1958 -253,-264 -1538,-1044 -3855,-2338 -1946,-1095 -3135,-2087 -3562,-2985 -426,-892 -639,-1952 -639,-3180 0,-1745 230,-3030 690,-3854 460,-831 1239,-1470 2338,-1918 1100,-449 2380,-674 3832,-674 1448,0 2677,186 3686,550 1015,371 1790,853 2333,1459 539,599 870,1161 982,1677 119,516 174,1324 174,2417l0 1268z"/>
  <path id="7" class="fil2" d="M188489 59639l-5856 0 0 -1184c0,-1009 -56,-1643 -175,-1912 -112,-270 -403,-404 -864,-404 -369,0 -650,123 -835,370 -185,246 -280,617 -280,1110 0,668 44,1162 139,1471 91,313 371,655 836,1026 460,376 1414,920 2856,1633 1924,942 3181,1828 3780,2664 600,829 903,2041 903,3629 0,1778 -230,3119 -690,4022 -460,903 -1228,1604 -2305,2092 -1082,487 -2378,729 -3904,729 -1683,0 -3130,-264 -4325,-785 -1200,-527 -2025,-1240 -2474,-2138 -449,-897 -673,-2255 -673,-4072l0 -1049 5890 0 0 1375c0,1167 73,1923 219,2277 152,348 444,521 876,521 471,0 795,-117 981,-353 185,-235 280,-734 280,-1486 0,-1043 -118,-1695 -358,-1958 -253,-264 -1538,-1044 -3854,-2338 -1946,-1095 -3136,-2087 -3562,-2985 -427,-892 -639,-1952 -639,-3180 0,-1745 229,-3030 689,-3854 460,-831 1240,-1470 2339,-1918 1100,-449 2379,-674 3831,-674 1447,0 2676,186 3686,550 1015,371 1789,853 2333,1459 538,599 869,1161 981,1677 119,516 175,1324 175,2417l0 1268z"/>
  <polygon class="fil3" points="77597,46970 73642,58990 77967,73592 70832,73592 68022,62183 68022,73592 61088,73592 61088,46970 68022,46970 68022,57314 71134,46970 "/>
  <path id="1" class="fil3" d="M85781 46970l0 3466 -6832 0 0 -3466 6832 0zm0 4812l0 21810 -6832 0 0 -21810 6832 0z"/>
  <path id="2" class="fil3" d="M94903 51782l-102 2026c482,-808 1072,-1414 1767,-1823 696,-404 1499,-607 2413,-607 1138,0 2069,270 2793,808 724,533 1190,1212 1397,2031 208,814 314,2177 314,4084l0 15291 -6630 0 0 -15107c0,-1497 -51,-2417 -151,-2742 -97,-332 -371,-494 -825,-494 -477,0 -775,191 -898,566 -117,382 -180,1391 -180,3035l0 14742 -6629 0 0 -21810 6731 0z"/>
  <path id="3" class="fil3" d="M120885 46970l0 26622 -6629 0 0 -1588c-640,668 -1307,1161 -2009,1492 -707,332 -1441,500 -2210,500 -1032,0 -1929,-270 -2687,-814 -757,-544 -1245,-1173 -1458,-1884 -214,-713 -320,-1874 -320,-3490l0 -10214c0,-1677 106,-2866 320,-3568 213,-701 706,-1318 1475,-1851 769,-533 1689,-797 2754,-797 825,0 1577,152 2266,449 685,298 1307,741 1869,1341l0 -6198 6629 0zm-6629 10299c0,-797 -68,-1335 -208,-1610 -140,-276 -415,-410 -825,-410 -404,0 -672,123 -813,370 -140,247 -208,797 -208,1650l0 10685c0,886 68,1470 202,1750 135,281 387,421 769,421 432,0 724,-157 864,-471 145,-308 219,-1071 219,-2289l0 -10096z"/>
  <path id="4" class="fil3" d="M129991 51782l-102 2026c483,-808 1072,-1414 1767,-1823 696,-404 1499,-607 2413,-607 1138,0 2069,270 2793,808 724,533 1190,1212 1397,2031 208,814 314,2177 314,4084l0 15291 -6630 0 0 -15107c0,-1497 -51,-2417 -151,-2742 -97,-332 -371,-494 -825,-494 -477,0 -775,191 -898,566 -117,382 -180,1391 -180,3035l0 14742 -6630 0 0 -21810 6732 0z"/>
  <path id="5" class="fil3" d="M155906 63058l-8617 0 0 4728c0,987 73,1627 213,1912 147,287 421,427 830,427 511,0 853,-191 1022,-567 174,-381 258,-1115 258,-2204l0 -2883 6294 0 0 1615c0,1352 -84,2390 -252,3113 -174,724 -573,1499 -1195,2322 -622,825 -1420,1443 -2379,1858 -960,408 -2160,617 -3607,617 -1403,0 -2642,-203 -3719,-611 -1071,-404 -1907,-961 -2507,-1667 -601,-707 -1011,-1486 -1240,-2339 -230,-847 -348,-2081 -348,-3708l0 -6366c0,-1907 259,-3410 774,-4516 516,-1099 1358,-1946 2531,-2530 1177,-589 2523,-881 4049,-881 1863,0 3399,354 4611,1061 1213,706 2065,1644 2554,2810 488,1162 728,2804 728,4919l0 2890zm-6631 -3534l0 -1594c0,-1132 -62,-1856 -185,-2187 -123,-332 -376,-494 -758,-494 -471,0 -762,140 -875,421 -112,281 -168,1032 -168,2260l0 1594 1986 0z"/>
  <path id="6" class="fil3" d="M171629 58749l-5856 0 0 -1183c0,-1010 -56,-1643 -175,-1913 -112,-270 -402,-404 -864,-404 -369,0 -650,123 -834,370 -186,247 -281,617 -281,1111 0,668 45,1161 140,1470 90,313 370,656 836,1026 460,376 1413,920 2855,1633 1924,942 3181,1828 3781,2664 599,830 903,2042 903,3630 0,1778 -231,3118 -691,4021 -460,903 -1227,1604 -2305,2092 -1082,488 -2378,730 -3903,730 -1683,0 -3130,-265 -4325,-786 -1201,-527 -2026,-1240 -2475,-2137 -448,-898 -672,-2255 -672,-4073l0 -1048 5889 0 0 1374c0,1167 73,1924 220,2277 151,348 443,522 875,522 471,0 795,-118 981,-354 185,-235 280,-734 280,-1486 0,-1043 -118,-1694 -358,-1957 -253,-264 -1538,-1044 -3854,-2339 -1946,-1095 -3136,-2087 -3562,-2985 -426,-891 -639,-1951 -639,-3180 0,-1745 229,-3029 689,-3854 460,-830 1240,-1469 2339,-1918 1100,-449 2379,-674 3832,-674 1447,0 2675,186 3685,551 1015,370 1789,853 2333,1458 538,600 870,1162 981,1677 119,516 175,1324 175,2418l0 1267z"/>
  <path id="7" class="fil3" d="M187470 58749l-5856 0 0 -1183c0,-1010 -56,-1643 -174,-1913 -112,-270 -403,-404 -864,-404 -369,0 -650,123 -835,370 -186,247 -281,617 -281,1111 0,668 45,1161 140,1470 91,313 370,656 836,1026 460,376 1413,920 2856,1633 1924,942 3180,1828 3780,2664 600,830 903,2042 903,3630 0,1778 -230,3118 -690,4021 -460,903 -1228,1604 -2306,2092 -1082,488 -2378,730 -3903,730 -1683,0 -3130,-265 -4326,-786 -1201,-527 -2026,-1240 -2474,-2137 -449,-898 -673,-2255 -673,-4073l0 -1048 5891 0 0 1374c0,1167 72,1924 219,2277 151,348 443,522 875,522 471,0 796,-118 982,-354 184,-235 279,-734 279,-1486 0,-1043 -117,-1694 -358,-1957 -253,-264 -1537,-1044 -3855,-2339 -1946,-1095 -3135,-2087 -3562,-2985 -426,-891 -639,-1951 -639,-3180 0,-1745 230,-3029 690,-3854 459,-830 1239,-1469 2338,-1918 1100,-449 2381,-674 3833,-674 1447,0 2676,186 3685,551 1015,370 1790,853 2333,1458 539,600 870,1162 982,1677 118,516 174,1324 174,2418l0 1267z"/>
  <path class="fil4" d="M110650 189865l-7728 0 0 -5151c0,-1500 -80,-2432 -244,-2806 -162,-370 -525,-558 -1081,-558 -625,0 -1025,225 -1194,676 -169,457 -256,1431 -256,2932l0 13766c0,1443 87,2381 256,2825 169,438 550,656 1138,656 569,0 944,-218 1119,-662 175,-438 262,-1475 262,-3107l0 -3732 7728 0 0 1156c0,3076 -219,5257 -650,6540 -432,1287 -1395,2412 -2877,3382 -1487,969 -3313,1450 -5489,1450 -2256,0 -4119,-406 -5588,-1225 -1463,-820 -2438,-1951 -2913,-3401 -476,-1451 -713,-3626 -713,-6533l0 -8664c0,-2139 75,-3739 219,-4808 150,-1069 581,-2100 1313,-3088 725,-988 1731,-1769 3019,-2338 1288,-570 2770,-850 4445,-850 2269,0 4145,437 5626,1319 1475,875 2446,1968 2915,3282 462,1313 693,3351 693,6120l0 2819z"/>
  <path id="1" class="fil4" d="M120578 176924l0 6683c637,-587 1324,-1031 2063,-1325 738,-294 1531,-444 2375,-444 1294,0 2394,331 3308,988 906,663 1462,1419 1668,2282 200,863 300,2437 300,4719l0 16767 -7389 0 0 -17110c0,-1413 -68,-2326 -213,-2725 -143,-408 -455,-607 -950,-607 -456,0 -762,206 -925,625 -156,413 -237,1237 -237,2469l0 17348 -7390 0 0 -29670 7390 0z"/>
  <path id="2" class="fil4" d="M140456 176924l0 3865 -7614 0 0 -3865 7614 0zm0 5364l0 24306 -7614 0 0 -24306 7614 0z"/>
  <path id="3" class="fil4" d="M150884 179063l0 3826 2063 0 0 3863 -2063 0 0 12997c0,1593 88,2487 256,2669 169,181 870,275 2107,275l0 3901 -2994 0c-1688,0 -2894,-68 -3619,-213 -720,-137 -1358,-462 -1907,-969 -551,-506 -894,-1081 -1032,-1738 -131,-650 -200,-2181 -200,-4594l0 -12328 -1575 0 0 -3863 1575 0 0 -3826 7389 0z"/>
  <path class="fil3" d="M109826 188777l-7729 0 0 -5151c0,-1500 -80,-2431 -244,-2806 -162,-369 -524,-557 -1081,-557 -625,0 -1025,224 -1194,675 -169,457 -256,1432 -256,2932l0 13766c0,1444 87,2381 256,2826 169,437 550,655 1138,655 569,0 944,-218 1120,-662 174,-438 261,-1475 261,-3107l0 -3732 7729 0 0 1156c0,3077 -220,5258 -651,6540 -432,1287 -1394,2413 -2877,3382 -1487,969 -3313,1450 -5489,1450 -2256,0 -4119,-406 -5588,-1225 -1463,-819 -2438,-1951 -2913,-3401 -476,-1450 -713,-3626 -713,-6533l0 -8664c0,-2138 75,-3739 219,-4807 150,-1070 581,-2101 1313,-3089 725,-988 1731,-1769 3019,-2338 1288,-569 2770,-850 4445,-850 2270,0 4145,437 5627,1319 1476,875 2445,1969 2914,3282 462,1313 694,3351 694,6121l0 2818z"/>
  <path id="1" class="fil3" d="M119753 175837l0 6683c638,-588 1325,-1032 2063,-1325 738,-295 1531,-445 2375,-445 1295,0 2395,332 3308,989 906,662 1463,1419 1668,2281 201,863 300,2438 300,4719l0 16767 -7389 0 0 -17110c0,-1412 -68,-2326 -212,-2725 -144,-407 -456,-607 -951,-607 -456,0 -762,206 -925,625 -156,413 -237,1238 -237,2470l0 17347 -7389 0 0 -29669 7389 0z"/>
  <path id="2" class="fil3" d="M139632 175837l0 3864 -7614 0 0 -3864 7614 0zm0 5363l0 24306 -7614 0 0 -24306 7614 0z"/>
  <path id="3" class="fil3" d="M150059 177975l0 3826 2064 0 0 3863 -2064 0 0 12997c0,1594 89,2488 256,2669 169,181 870,275 2108,275l0 3901 -2995 0c-1688,0 -2894,-68 -3619,-212 -720,-138 -1357,-463 -1907,-969 -551,-506 -894,-1081 -1032,-1738 -131,-651 -200,-2181 -200,-4595l0 -12328 -1575 0 0 -3863 1575 0 0 -3826 7389 0z"/>
 </g>
 <g id="Layer_x0020_2">
  <metadata id="CorelCorpID_1Corel-Layer"/>
  <g id="_2822904950928">
   <g>
    <g style="clip-path:url(#id0)">
     <image x="104361" y="87751" width="41176" height="70515" xlink:href="chit_kindness_Images\chit_kindness_ImgID1.png"/>
    </g>
   </g>
   <path class="fil5" d="M122685 92501c2222,5459 3827,11265 6048,16724 1237,154 1702,-1997 1604,-5652 2896,2769 4397,7711 5801,12802 7845,14531 5441,26104 -4813,35407 -4198,2296 -8392,2166 -12589,462 -9354,-6617 -13676,-18824 -4689,-35984 767,-3259 1654,-6507 3578,-9688 595,2581 1294,4887 2715,5306 577,-6344 1770,-13033 2345,-19377z"/>
   <path class="fil5" d="M105471 97156c2085,4293 3351,7486 6219,8991 -3754,7004 -7018,14009 -10773,21013 2874,5854 5255,11709 8129,17563 -2515,3136 -5031,6273 -7545,9410 -6727,-8051 -12623,-18510 -19350,-26560 7674,-10942 15647,-19474 23320,-30417z"/>
   <g>
    <g style="clip-path:url(#id1)">
     <image x="132958" y="93821" width="38402" height="65838" xlink:href="chit_kindness_Images\chit_kindness_ImgID2.png"/>
    </g>
   </g>
   <path class="fil5" d="M143607 98250c-2085,4294 -3351,7487 -6219,8991 3756,7005 7395,14009 11150,21013 -2873,5854 -5631,11709 -8506,17564 2515,3136 5031,6272 7545,9408 6727,-8050 12624,-18508 19351,-26559 -7674,-10942 -15647,-19475 -23321,-30417z"/>
   <path class="fil5" d="M112093 107852c1403,-1428 2432,-2857 3836,-4286 0,-5123 0,-10245 0,-15368 -10273,-2712 -15957,11653 -3836,19654z"/>
   <path class="fil5" d="M137319 107940c-1404,-1429 -2432,-2858 -3836,-4286 0,-5123 0,-10245 0,-15368 10272,-2712 15955,11654 3836,19654z"/>
  </g>
  <g id="_2822904952528">
   <g>
    <g style="clip-path:url(#id2)">
     <image x="103562" y="87100" width="41176" height="70516" xlink:href="chit_kindness_Images\chit_kindness_ImgID3.png"/>
    </g>
   </g>
   <path class="fil6" d="M121886 91851c2221,5459 3826,11265 6048,16723 1237,155 1702,-1997 1604,-5651 2896,2768 4397,7709 5801,12801 7845,14532 5441,26103 -4813,35407 -4198,2297 -8392,2166 -12589,462 -9355,-6618 -13676,-18823 -4690,-35983 768,-3259 1655,-6508 3579,-9689 595,2582 1294,4887 2715,5306 575,-6343 1768,-13033 2345,-19376z"/>
   <path class="fil7" d="M104672 96505c2085,4294 3351,7486 6219,8991 -3756,7004 -7019,14008 -10774,21014 2875,5853 5255,11708 8130,17562 -2515,3137 -5031,6272 -7545,9409 -6727,-8049 -12623,-18509 -19351,-26558 7675,-10943 15647,-19475 23321,-30418z"/>
   <g>
    <g style="clip-path:url(#id3)">
     <image x="132159" y="93170" width="38401" height="65836" xlink:href="chit_kindness_Images\chit_kindness_ImgID4.png"/>
    </g>
   </g>
   <path class="fil8" d="M142808 97600c-2085,4293 -3351,7485 -6219,8990 3756,7005 7395,14009 11150,21013 -2873,5855 -5632,11710 -8506,17564 2515,3136 5031,6272 7545,9409 6727,-8051 12624,-18510 19351,-26559 -7674,-10943 -15648,-19475 -23321,-30417z"/>
   <path class="fil9" d="M111293 107201c1404,-1429 2433,-2858 3837,-4286 0,-5123 0,-10246 0,-15368 -10273,-2711 -15957,11654 -3837,19654z"/>
   <path class="fil10" d="M136520 107290c-1405,-1429 -2432,-2858 -3836,-4287 0,-5122 0,-10245 0,-15368 10272,-2711 15955,11654 3836,19655z"/>
  </g>
 </g>
</svg>
