<?xml version="1.0" encoding="UTF-8"?>
<!DOCTYPE svg PUBLIC "-//W3C//DTD SVG 1.1//EN" "http://www.w3.org/Graphics/SVG/1.1/DTD/svg11.dtd">
<!-- Creator: CorelDRAW X8 -->
<svg xmlns="http://www.w3.org/2000/svg" xml:space="preserve" width="260px" height="260px" version="1.1" style="shape-rendering:geometricPrecision; text-rendering:geometricPrecision; image-rendering:optimizeQuality; fill-rule:evenodd; clip-rule:evenodd"
viewBox="0 0 653696 653696"
 xmlns:xlink="http://www.w3.org/1999/xlink">
 <defs>
  <style type="text/css">
   <![CDATA[
    .str1 {stroke:#A99018;stroke-width:10058.7}
    .str0 {stroke:#A99018;stroke-width:2263.66}
    .fil5 {fill:#9A7D1A}
    .fil11 {fill:#AA9117}
    .fil12 {fill:#AF9816}
    .fil13 {fill:#B39D16}
    .fil14 {fill:#B6A115}
    .fil15 {fill:#B8A415}
    .fil16 {fill:#BBA714}
    .fil17 {fill:#BCA914}
    .fil18 {fill:#BEAB14}
    .fil19 {fill:#BFAD14}
    .fil20 {fill:#C0AF13}
    .fil21 {fill:#C1B013}
    .fil22 {fill:#C2B113}
    .fil23 {fill:#C3B213}
    .fil24 {fill:#C4B313}
    .fil25 {fill:#C5B413}
    .fil26 {fill:#C5B513}
    .fil27 {fill:#C6B613}
    .fil28 {fill:#C7B712}
    .fil29 {fill:#C8B812}
    .fil30 {fill:#C8B912}
    .fil31 {fill:#C9B912}
    .fil32 {fill:#C9BA12}
    .fil33 {fill:#CABA12}
    .fil34 {fill:#CABB12}
    .fil35 {fill:#CABC12}
    .fil36 {fill:#CBBC12}
    .fil37 {fill:#CBBD12}
    .fil38 {fill:#CCBD12}
    .fil39 {fill:#CCBE12}
    .fil40 {fill:#CDBE12}
    .fil42 {fill:#CDBF11}
    .fil41 {fill:#CDBF12}
    .fil43 {fill:#CDC011}
    .fil44 {fill:#CEC011}
    .fil45 {fill:#CEC111}
    .fil46 {fill:#CFC111}
    .fil47 {fill:#CFC211}
    .fil48 {fill:#D0C211}
    .fil49 {fill:#D0C311}
    .fil50 {fill:#D0C411}
    .fil51 {fill:#D1C411}
    .fil52 {fill:#D1C511}
    .fil53 {fill:#D2C511}
    .fil54 {fill:#D2C611}
    .fil55 {fill:#D3C611}
    .fil57 {fill:#D3C710}
    .fil56 {fill:#D3C711}
    .fil58 {fill:#D3C810}
    .fil59 {fill:#D4C810}
    .fil60 {fill:#D4C910}
    .fil61 {fill:#D5C910}
    .fil62 {fill:#D5CA10}
    .fil63 {fill:#D6CA10}
    .fil64 {fill:#D6CB10}
    .fil65 {fill:#D6CC10}
    .fil66 {fill:#D7CC10}
    .fil67 {fill:#D7CD10}
    .fil68 {fill:#D8CD10}
    .fil69 {fill:#D8CE10}
    .fil70 {fill:#D9CF10}
    .fil71 {fill:#DAD00F}
    .fil72 {fill:#DBD10F}
    .fil73 {fill:#DBD20F}
    .fil74 {fill:#DCD30F}
    .fil75 {fill:#DDD40F}
    .fil76 {fill:#DED50F}
    .fil77 {fill:#DFD60F}
    .fil78 {fill:#E0D70F}
    .fil79 {fill:#E1D90E}
    .fil80 {fill:#E2DB0E}
    .fil81 {fill:#E4DD0E}
    .fil82 {fill:#E5DF0E}
    .fil83 {fill:#E8E20D}
    .fil84 {fill:#EAE50D}
    .fil85 {fill:#EDE90C}
    .fil86 {fill:#F1EE0C}
    .fil87 {fill:#F6F50B}
    .fil2 {fill:#DED60F;fill-rule:nonzero}
    .fil4 {fill:#F7F60A;fill-rule:nonzero}
    .fil3 {fill:#634E10;fill-rule:nonzero}
    .fil1 {fill:url(#id2)}
    .fil0 {fill:url(#id3)}
    .fil6 {fill:url(#id4)}
    .fil7 {fill:url(#id5)}
    .fil9 {fill:url(#id6)}
    .fil8 {fill:url(#id7)}
    .fil10 {fill:url(#id8)}
   ]]>
  </style>
     <clipPath id="id0">
      <path d="M272985 185041l116825 0 0 180279 -116825 0 0 -180279z"/>
     </clipPath>
     <clipPath id="id1">
      <path d="M235902 443140l0 -27390 102646 0 0 27390 -102646 0z"/>
     </clipPath>
  <linearGradient id="id2" gradientUnits="userSpaceOnUse" x1="327224" y1="611221" x2="327224" y2="41218.2">
   <stop offset="0" style="stop-opacity:1; stop-color:#8E6D1C"/>
   <stop offset="1" style="stop-opacity:1; stop-color:#FAFA0A"/>
  </linearGradient>
  <linearGradient id="id3" gradientUnits="userSpaceOnUse" xlink:href="#id2" x1="326846" y1="652564" x2="326846" y2="1131.83">
  </linearGradient>
  <linearGradient id="id4" gradientUnits="userSpaceOnUse" x1="290815" y1="335990" x2="371980" y2="214370">
   <stop offset="0" style="stop-opacity:1; stop-color:#957417"/>
   <stop offset="1" style="stop-opacity:1; stop-color:#FFFF51"/>
  </linearGradient>
  <linearGradient id="id5" gradientUnits="userSpaceOnUse" xlink:href="#id4" x1="254496" y1="281428" x2="225320" y2="270610">
  </linearGradient>
  <linearGradient id="id6" gradientUnits="userSpaceOnUse" xlink:href="#id4" x1="302373" y1="387628" x2="291873" y2="416920">
  </linearGradient>
  <linearGradient id="id7" gradientUnits="userSpaceOnUse" xlink:href="#id4" x1="263578" y1="395952" x2="228456" y2="295574">
  </linearGradient>
  <linearGradient id="id8" gradientUnits="userSpaceOnUse" xlink:href="#id4" x1="416794" y1="377301" x2="316802" y2="413514">
  </linearGradient>
 </defs>
 <g id="Layer_x0020_1">
  <metadata id="CorelCorpID_0Corel-Layer"/>
  <path class="fil0 str0" d="M326846 1132c179890,0 325718,145828 325718,325717 0,179887 -145828,325715 -325718,325715 -179886,0 -325714,-145828 -325714,-325715 0,-179889 145828,-325717 325714,-325717z"/>
  <path class="fil1 str1" d="M327224 41218c157401,0 285001,127600 285001,285001 0,157402 -127600,285002 -285001,285002 -157402,0 -285002,-127600 -285002,-285002 0,-157401 127600,-285001 285002,-285001z"/>
  <g id="_2822836924528">
   <path class="fil2" d="M301575 519245l-21407 0 0 -14268c0,-4159 -223,-6737 -674,-7777 -452,-1022 -1456,-1542 -2998,-1542 -1732,0 -2840,624 -3306,1872 -467,1262 -710,3966 -710,8122l0 38134c0,4002 243,6598 710,7828 466,1212 1524,1818 3152,1818 1577,0 2614,-606 3101,-1836 484,-1212 725,-4085 725,-8606l0 -10338 21407 0 0 3203c0,8519 -606,14565 -1801,18115 -1197,3568 -3861,6684 -7967,9369 -4120,2686 -9179,4020 -15207,4020 -6250,0 -11410,-1126 -15480,-3396 -4055,-2269 -6755,-5404 -8071,-9420 -1316,-4019 -1976,-10047 -1976,-18100l0 -24003c0,-5924 208,-10356 606,-13318 416,-2962 1610,-5820 3639,-8556 2008,-2736 4795,-4901 8363,-6476 3567,-1577 7673,-2355 12313,-2355 6289,0 11485,1212 15587,3654 4088,2424 6773,5454 8072,9093 1280,3636 1922,9280 1922,16954l0 7809zm27502 -35847l0 18514c1768,-1628 3672,-2858 5716,-3672 2044,-814 4242,-1230 6580,-1230 3586,0 6633,918 9161,2736 2514,1836 4053,3930 4626,6322 552,2388 832,6752 832,13073l0 46450 -20471 0 0 -47400c0,-3916 -190,-6444 -589,-7552 -398,-1126 -1265,-1681 -2635,-1681 -1262,0 -2112,573 -2560,1732 -434,1144 -660,3431 -660,6841l0 48060 -20471 0 0 -82193 20471 0zm55074 0l0 10701 -21095 0 0 -10701 21095 0zm0 14860l0 67333 -21095 0 0 -67333 21095 0zm28887 -8939l0 10599 5715 0 0 10704 -5715 0 0 36004c0,4418 243,6895 710,7397 466,502 2406,761 5837,761l0 10807 -8297 0c-4676,0 -8018,-190 -10026,-588 -1993,-380 -3758,-1283 -5282,-2686 -1524,-1402 -2478,-2994 -2858,-4815 -365,-1800 -555,-6042 -555,-12727l0 -34153 -4364 0 0 -10704 4364 0 0 -10599 20471 0z"/>
   <path class="fil3" d="M299442 515241l-21407 0 0 -14268c0,-4159 -223,-6738 -674,-7777 -452,-1022 -1456,-1542 -2998,-1542 -1732,0 -2840,624 -3306,1871 -467,1263 -710,3966 -710,8122l0 38135c0,4001 243,6598 710,7828 466,1212 1524,1818 3152,1818 1577,0 2614,-606 3101,-1836 484,-1212 725,-4085 725,-8606l0 -10338 21407 0 0 3202c0,8520 -606,14565 -1800,18115 -1198,3568 -3862,6684 -7968,9370 -4120,2685 -9179,4019 -15207,4019 -6250,0 -11410,-1126 -15480,-3395 -4055,-2270 -6755,-5404 -8071,-9420 -1316,-4020 -1976,-10047 -1976,-18101l0 -24003c0,-5923 208,-10356 606,-13317 416,-2962 1610,-5820 3639,-8556 2008,-2736 4795,-4902 8363,-6476 3568,-1578 7673,-2356 12313,-2356 6289,0 11485,1212 15587,3654 4088,2424 6774,5454 8072,9093 1280,3636 1922,9281 1922,16954l0 7810zm27502 -35847l0 18513c1768,-1628 3672,-2858 5716,-3672 2044,-814 4242,-1230 6580,-1230 3586,0 6633,918 9162,2736 2513,1836 4052,3931 4625,6322 552,2388 832,6752 832,13074l0 46450 -20471 0 0 -47401c0,-3915 -190,-6443 -588,-7551 -399,-1126 -1266,-1682 -2635,-1682 -1263,0 -2113,574 -2561,1732 -434,1144 -660,3432 -660,6842l0 48060 -20471 0 0 -82193 20471 0zm55074 0l0 10700 -21095 0 0 -10700 21095 0zm0 14859l0 67334 -21095 0 0 -67334 21095 0zm28887 -8939l0 10600 5715 0 0 10703 -5715 0 0 36005c0,4417 243,6895 710,7397 466,502 2406,760 5837,760l0 10808 -8297 0c-4676,0 -8018,-191 -10026,-589 -1993,-380 -3758,-1283 -5282,-2685 -1524,-1402 -2478,-2995 -2858,-4816 -365,-1800 -555,-6042 -555,-12726l0 -34154 -4364 0 0 -10703 4364 0 0 -10600 20471 0z"/>
  </g>
  <g id="_2822836923632">
   <path class="fil2" d="M194808 109268l18279 0c4940,0 8734,383 11396,1161 2646,781 4646,1898 5982,3354 1340,1471 2237,3250 2722,5324 472,2088 707,5308 707,9675l0 6072c0,4441 -458,7691 -1382,9720 -912,2044 -2605,3618 -5044,4706 -2457,1090 -5662,1634 -9619,1634l-4866 0 0 28144 -18175 0 0 -69790zm18175 11912l0 17777c514,29 957,44 1322,44 1664,0 2810,-410 3458,-1236 633,-808 953,-2513 953,-5100l0 -5752c0,-2382 -365,-3939 -1117,-4661 -733,-718 -2278,-1072 -4616,-1072zm42882 704l-618 7531c2543,-5413 6221,-8265 11027,-8588l0 20117c-3190,0 -5543,425 -7043,1292 -1501,868 -2413,2059 -2763,3604 -339,1530 -517,5074 -517,10632l0 22586 -17381 0 0 -57174 17295 0zm53630 20073l0 14013c0,5148 -265,8912 -782,11324 -514,2397 -1616,4631 -3306,6720 -1693,2088 -3868,3618 -6530,4616 -2661,986 -5706,1485 -9146,1485 -3853,0 -7118,-424 -9780,-1262 -2676,-853 -4750,-2133 -6221,-3838 -1485,-1720 -2542,-3794 -3175,-6221 -633,-2427 -942,-6072 -942,-10926l0 -14660c0,-5324 573,-9471 1720,-12471 1150,-2986 3223,-5380 6206,-7189 2985,-1809 6809,-2721 11455,-2721 3897,0 7251,588 10059,1749 2795,1162 4955,2677 6485,4545 1515,1866 2557,3794 3119,5778 558,1985 838,5000 838,9058zm-17382 -4307c0,-2927 -163,-4780 -472,-5529 -321,-766 -998,-1150 -2044,-1150 -1043,0 -1735,384 -2088,1150 -336,749 -514,2602 -514,5529l0 25806c0,2706 178,4471 514,5279 353,823 1030,1236 2046,1236 1043,0 1720,-369 2059,-1117 336,-752 499,-2353 499,-4825l0 -26379zm40336 -15766l-264 5442c1351,-2162 2955,-3793 4824,-4869 1851,-1087 3984,-1630 6366,-1630 4646,0 8294,2162 10971,6499 1456,-2162 3101,-3793 4943,-4869 1839,-1087 3868,-1630 6117,-1630 2941,0 5397,721 7322,2162 1940,1426 3176,3191 3720,5279 546,2074 826,5454 826,10145l0 40645 -16853 0 0 -37276c0,-4884 -163,-7896 -499,-9058 -324,-1164 -1090,-1753 -2311,-1753 -1236,0 -2032,577 -2383,1723 -368,1147 -546,4174 -546,9088l0 37276 -16850 0 0 -36323c0,-5599 -134,-8968 -413,-10085 -264,-1117 -1028,-1679 -2264,-1679 -781,0 -1426,295 -1984,883 -547,588 -841,1310 -897,2162 -60,838 -89,2647 -89,5398l0 39644 -16853 0 0 -57174 17117 0zm68736 -12616l0 9087 -17911 0 0 -9087 17911 0zm0 12616l0 57174 -17911 0 0 -57174 17911 0zm41821 18264l-15353 0 0 -3102c0,-2646 -148,-4310 -457,-5014 -294,-707 -1058,-1061 -2264,-1061 -971,0 -1705,324 -2189,972 -487,647 -737,1619 -737,2911 0,1750 119,3045 368,3853 235,823 969,1720 2190,2692 1206,986 3707,2412 7486,4277 5044,2472 8339,4795 9910,6987 1575,2175 2368,5353 2368,9512 0,4664 -603,8179 -1809,10546 -1206,2365 -3221,4204 -6043,5484 -2840,1281 -6235,1910 -10234,1910 -4411,0 -8205,-689 -11339,-2058 -3146,-1382 -5308,-3250 -6485,-5603 -1176,-2353 -1764,-5909 -1764,-10674l0 -2750 15441 0 0 3603c0,3057 190,5044 574,5971 395,909 1161,1367 2293,1367 1236,0 2088,-309 2573,-927 487,-618 736,-1925 736,-3898 0,-2733 -309,-4441 -941,-5130 -663,-692 -4029,-2736 -10104,-6132 -5100,-2869 -8220,-5472 -9337,-7824 -1117,-2338 -1675,-5116 -1675,-8336 0,-4575 603,-7941 1809,-10104 1203,-2177 3250,-3852 6132,-5029 2881,-1176 6235,-1764 10043,-1764 3794,0 7014,484 9661,1440 2662,972 4691,2234 6117,3824 1411,1574 2278,3045 2572,4396 309,1355 458,3470 458,6340l0 3321zm45410 11294l-22586 0 0 12397c0,2587 193,4263 558,5015 383,748 1105,1117 2178,1117 1336,0 2234,-500 2676,-1486 455,-1001 678,-2926 678,-5778l0 -7560 16496 0 0 4236c0,3544 -220,6265 -660,8160 -457,1899 -1500,3928 -3134,6087 -1631,2163 -3719,3782 -6232,4869 -2517,1073 -5662,1616 -9456,1616 -3678,0 -6928,-528 -9753,-1601 -2810,-1060 -4999,-2516 -6574,-4367 -1571,-1853 -2647,-3897 -3250,-6131 -603,-2222 -912,-5457 -912,-9720l0 -16693c0,-4999 678,-8938 2029,-11835 1355,-2884 3559,-5103 6634,-6633 3086,-1545 6618,-2308 10620,-2308 4881,0 8909,926 12088,2780 3175,1851 5409,4308 6690,7364 1280,3045 1910,7353 1910,12899l0 7572zm-17379 -9265l0 -4174c0,-2971 -163,-4869 -487,-5736 -324,-868 -983,-1296 -1984,-1296 -1236,0 -2000,369 -2294,1106 -294,733 -442,2706 -442,5926l0 4174 5207 0z"/>
   <path class="fil4" d="M191918 107164l18279 0c4940,0 8733,384 11395,1162 2647,781 4646,1898 5983,3354 1340,1470 2237,3250 2721,5323 472,2089 707,5309 707,9676l0 6072c0,4441 -457,7691 -1381,9720 -912,2044 -2605,3618 -5044,4705 -2457,1091 -5663,1634 -9619,1634l-4866 0 0 28145 -18175 0 0 -69791zm18175 11913l0 17776c513,30 956,45 1322,45 1663,0 2810,-410 3457,-1236 633,-808 954,-2513 954,-5101l0 -5751c0,-2382 -365,-3939 -1117,-4661 -734,-719 -2279,-1072 -4616,-1072zm42881 704l-618 7531c2543,-5413 6221,-8265 11028,-8589l0 20118c-3191,0 -5544,425 -7044,1292 -1500,867 -2412,2059 -2763,3603 -338,1530 -517,5074 -517,10633l0 22586 -17381 0 0 -57174 17295 0zm53630 20073l0 14012c0,5149 -264,8913 -781,11325 -514,2397 -1616,4631 -3307,6719 -1693,2089 -3867,3619 -6529,4617 -2662,986 -5707,1485 -9147,1485 -3853,0 -7118,-425 -9779,-1262 -2677,-853 -4750,-2133 -6221,-3839 -1485,-1720 -2543,-3793 -3176,-6220 -632,-2427 -941,-6072 -941,-10926l0 -14661c0,-5323 573,-9470 1720,-12471 1149,-2985 3223,-5379 6205,-7189 2986,-1809 6809,-2721 11455,-2721 3898,0 7252,588 10059,1750 2796,1162 4955,2677 6485,4545 1515,1866 2558,3794 3119,5778 559,1985 838,5000 838,9058zm-17381 -4308c0,-2926 -164,-4780 -473,-5528 -321,-767 -998,-1150 -2044,-1150 -1042,0 -1734,383 -2088,1150 -336,748 -514,2602 -514,5528l0 25807c0,2706 178,4470 514,5278 354,823 1031,1236 2047,1236 1043,0 1720,-368 2059,-1117 335,-751 499,-2352 499,-4824l0 -26380zm40336 -15765l-265 5442c1352,-2163 2956,-3793 4825,-4869 1850,-1087 3983,-1631 6366,-1631 4649,0 8297,2163 10973,6500 1456,-2163 3102,-3793 4941,-4869 1838,-1087 3867,-1631 6116,-1631 2941,0 5398,722 7323,2163 1940,1426 3176,3190 3719,5279 547,2073 826,5454 826,10145l0 40645 -16853 0 0 -37277c0,-4883 -163,-7896 -499,-9057 -323,-1165 -1090,-1753 -2311,-1753 -1233,0 -2029,576 -2379,1723 -369,1147 -547,4174 -547,9087l0 37277 -16853 0 0 -36323c0,-5600 -133,-8968 -413,-10085 -264,-1117 -1027,-1679 -2263,-1679 -781,0 -1426,294 -1985,882 -546,589 -840,1311 -897,2163 -59,838 -89,2647 -89,5398l0 39644 -16853 0 0 -57174 17118 0zm68735 -12617l0 9088 -17910 0 0 -9088 17910 0zm0 12617l0 57174 -17910 0 0 -57174 17910 0zm41821 18264l-15352 0 0 -3102c0,-2647 -149,-4310 -458,-5014 -294,-707 -1057,-1061 -2263,-1061 -972,0 -1705,324 -2190,972 -487,647 -736,1619 -736,2911 0,1750 118,3045 368,3853 235,823 968,1720 2189,2691 1207,987 3708,2412 7487,4278 5044,2472 8338,4795 9910,6987 1574,2175 2367,5353 2367,9512 0,4664 -603,8178 -1809,10546 -1206,2365 -3220,4204 -6042,5484 -2840,1280 -6236,1910 -10234,1910 -4412,0 -8205,-689 -11339,-2059 -3146,-1381 -5309,-3249 -6485,-5602 -1177,-2353 -1765,-5909 -1765,-10674l0 -2751 15442 0 0 3604c0,3057 190,5044 573,5971 395,909 1162,1366 2293,1366 1236,0 2089,-309 2573,-927 487,-617 737,-1925 737,-3897 0,-2733 -309,-4441 -942,-5130 -662,-693 -4028,-2736 -10103,-6132 -5101,-2870 -8220,-5472 -9337,-7825 -1117,-2338 -1675,-5115 -1675,-8335 0,-4575 603,-7941 1809,-10104 1203,-2177 3250,-3853 6131,-5029 2882,-1177 6236,-1765 10044,-1765 3794,0 7014,485 9661,1441 2661,971 4690,2234 6116,3823 1411,1575 2279,3045 2573,4397 309,1355 457,3470 457,6339l0 3322zm45410 11294l-22586 0 0 12397c0,2587 193,4263 559,5014 383,749 1105,1117 2177,1117 1337,0 2234,-499 2677,-1485 454,-1001 677,-2926 677,-5778l0 -7560 16496 0 0 4236c0,3544 -220,6265 -659,8160 -458,1898 -1500,3927 -3134,6087 -1631,2163 -3720,3782 -6233,4869 -2516,1073 -5662,1616 -9455,1616 -3678,0 -6928,-529 -9750,-1601 -2811,-1061 -5000,-2516 -6574,-4367 -1572,-1854 -2647,-3897 -3250,-6131 -603,-2222 -912,-5458 -912,-9720l0 -16693c0,-4999 677,-8939 2029,-11835 1354,-2884 3559,-5104 6633,-6633 3087,-1545 6616,-2309 10617,-2309 4881,0 8909,927 12088,2781 3176,1851 5410,4307 6690,7364 1280,3045 1910,7353 1910,12899l0 7572zm-17378 -9265l0 -4174c0,-2971 -164,-4869 -487,-5737 -324,-867 -984,-1295 -1985,-1295 -1236,0 -1999,369 -2293,1105 -294,734 -443,2707 -443,5927l0 4174 5208 0z"/>
  </g>
 </g>
 <g id="promise_x0020_logo">
  <metadata id="CorelCorpID_1Corel-Layer"/>
  <g id="_2822836926992">
   <path class="fil5" d="M253325 298007c-1260,-2192 3847,-11194 2908,-17405 -769,-5110 -4073,-8728 -5109,-10528 -11455,-3583 -5588,-18627 -19969,-3610 -11274,15994 -4061,36020 22170,31543z"/>
   <path class="fil5" d="M228918 291688c10480,3731 15323,8063 23124,5814 2100,21178 2501,38381 1859,54946 13820,2599 22236,1553 39326,1553 -143,9441 -282,20029 -428,29466 -24077,0 -38734,-29 -65610,-885 0,-29689 -2196,-48772 1729,-90894z"/>
   <g>
    <g style="clip-path:url(#id0)">
     <image x="272985" y="185041" width="116825" height="180279" xlink:href="chit_promise_Images\chit_promise_ImgID1.png"/>
    </g>
   </g>
   <path class="fil6" d="M324975 198522c6301,13718 10855,28304 17158,42023 3509,386 4828,-5020 4551,-14203 8214,6958 12471,19375 16458,32170 22256,36515 15436,65592 -13656,88972 -11907,5766 -23810,5439 -35717,1158 -26537,-16630 -38800,-47299 -13305,-90418 2180,-8188 4693,-16354 10153,-24345 1688,6485 3672,12278 7703,13329 1634,-15937 5018,-32746 6655,-48686z"/>
   <path class="fil7" d="M251721 294796c-1260,-2190 3844,-11194 2908,-17403 -769,-5109 -4076,-8730 -5110,-10531 -11457,-3579 -5587,-18623 -19968,-3609 -11274,15997 -4061,36022 22170,31543z"/>
   <path class="fil8" d="M227314 288480c10480,3728 15319,8059 23123,5811 2098,21178 2499,38381 1857,54948 13820,2600 22236,1554 39329,1554 -143,9441 -282,20025 -428,29466 -24077,0 -38738,-30 -65610,-888 0,-29689 -2196,-48773 1729,-90891z"/>
   <path class="fil5" d="M318962 388619c-2174,1283 -11235,-3723 -17432,-2719 -5101,823 -8686,4168 -10474,5223 -3455,11493 -18564,5790 -3393,20007 16119,11099 36064,3669 31299,-22511z"/>
   <path class="fil5" d="M312911 413091c3618,-10519 7896,-15406 5564,-23183 21151,-2329 38351,-2917 54922,-2457 2451,-13846 1313,-22250 1126,-39341 9444,42 20031,66 29469,107 261,24078 392,38735 -172,65617 -29689,321 -48749,2724 -90909,-743z"/>
   <path class="fil9" d="M315772 390258c-2178,1284 -11236,-3722 -17435,-2718 -5101,823 -8684,4168 -10475,5223 -3455,11496 -18564,5790 -3392,20007 16118,11099 36064,3669 31302,-22512z"/>
   <path class="fil10" d="M309717 414731c3619,-10519 7896,-15406 5564,-23183 21152,-2329 38352,-2917 54922,-2457 2451,-13846 1313,-22250 1129,-39341 9441,42 20029,66 29469,107 262,24078 390,38735 -175,65617 -29689,320 -48746,2724 -90909,-743z"/>
   <g>
    <g style="clip-path:url(#id1)">
     <polygon class="fil11" points="235902,443140 235902,443086 338548,443086 338548,443140 "/>
     <polygon id="1" class="fil12" points="235902,443140 235902,442979 338548,442979 338548,443140 "/>
     <polygon id="2" class="fil13" points="235902,443033 235902,442872 338548,442872 338548,443033 "/>
     <polygon id="3" class="fil14" points="235902,442926 235902,442765 338548,442765 338548,442926 "/>
     <polygon id="4" class="fil15" points="235902,442819 235902,442658 338548,442658 338548,442819 "/>
     <polygon id="5" class="fil16" points="235902,442712 235902,442551 338548,442551 338548,442712 "/>
     <polygon id="6" class="fil17" points="235902,442605 235902,442444 338548,442444 338548,442605 "/>
     <polygon id="7" class="fil18" points="235902,442498 235902,442337 338548,442337 338548,442498 "/>
     <polygon id="8" class="fil19" points="235902,442391 235902,442231 338548,442231 338548,442391 "/>
     <polygon id="9" class="fil20" points="235902,442284 235902,442124 338548,442124 338548,442284 "/>
     <polygon id="10" class="fil21" points="235902,442177 235902,442017 338548,442017 338548,442177 "/>
     <polygon id="11" class="fil22" points="235902,442070 235902,441910 338548,441910 338548,442070 "/>
     <polygon id="12" class="fil23" points="235902,441963 235902,441803 338548,441803 338548,441963 "/>
     <polygon id="13" class="fil24" points="235902,441856 235902,441696 338548,441696 338548,441856 "/>
     <polygon id="14" class="fil25" points="235902,441749 235902,441589 338548,441589 338548,441749 "/>
     <polygon id="15" class="fil26" points="235902,441642 235902,441482 338548,441482 338548,441642 "/>
     <polygon id="16" class="fil27" points="235902,441535 235902,441375 338548,441375 338548,441535 "/>
     <polygon id="17" class="fil27" points="235902,441428 235902,441268 338548,441268 338548,441428 "/>
     <polygon id="18" class="fil28" points="235902,441321 235902,441161 338548,441161 338548,441321 "/>
     <polygon id="19" class="fil28" points="235902,441215 235902,441054 338548,441054 338548,441215 "/>
     <polygon id="20" class="fil29" points="235902,441108 235902,440947 338548,440947 338548,441108 "/>
     <polygon id="21" class="fil29" points="235902,441001 235902,440840 338548,440840 338548,441001 "/>
     <polygon id="22" class="fil30" points="235902,440894 235902,440733 338548,440733 338548,440894 "/>
     <polygon id="23" class="fil31" points="235902,440787 235902,440626 338548,440626 338548,440787 "/>
     <polygon id="24" class="fil32" points="235902,440680 235902,440519 338548,440519 338548,440680 "/>
     <polygon id="25" class="fil32" points="235902,440573 235902,440412 338548,440412 338548,440573 "/>
     <polygon id="26" class="fil33" points="235902,440466 235902,440306 338548,440306 338548,440466 "/>
     <polygon id="27" class="fil34" points="235902,440359 235902,440199 338548,440199 338548,440359 "/>
     <polygon id="28" class="fil34" points="235902,440252 235902,440092 338548,440092 338548,440252 "/>
     <polygon id="29" class="fil34" points="235902,440145 235902,439985 338548,439985 338548,440145 "/>
     <polygon id="30" class="fil35" points="235902,440038 235902,439878 338548,439878 338548,440038 "/>
     <polygon id="31" class="fil36" points="235902,439931 235902,439771 338548,439771 338548,439931 "/>
     <polygon id="32" class="fil36" points="235902,439824 235902,439664 338548,439664 338548,439824 "/>
     <polygon id="33" class="fil36" points="235902,439717 235902,439557 338548,439557 338548,439717 "/>
     <polygon id="34" class="fil37" points="235902,439610 235902,439450 338548,439450 338548,439610 "/>
     <polygon id="35" class="fil37" points="235902,439503 235902,439343 338548,439343 338548,439503 "/>
     <polygon id="36" class="fil38" points="235902,439396 235902,439236 338548,439236 338548,439396 "/>
     <polygon id="37" class="fil38" points="235902,439290 235902,439129 338548,439129 338548,439290 "/>
     <polygon id="38" class="fil38" points="235902,439183 235902,439022 338548,439022 338548,439183 "/>
     <polygon id="39" class="fil39" points="235902,439076 235902,438915 338548,438915 338548,439076 "/>
     <polygon id="40" class="fil39" points="235902,438969 235902,438808 338548,438808 338548,438969 "/>
     <polygon id="41" class="fil39" points="235902,438862 235902,438701 338548,438701 338548,438862 "/>
     <polygon id="42" class="fil39" points="235902,438755 235902,438594 338548,438594 338548,438755 "/>
     <polygon id="43" class="fil39" points="235902,438648 235902,438487 338548,438487 338548,438648 "/>
     <polygon id="44" class="fil40" points="235902,438541 235902,438381 338548,438381 338548,438541 "/>
     <polygon id="45" class="fil41" points="235902,438434 235902,438274 338548,438274 338548,438434 "/>
     <polygon id="46" class="fil41" points="235902,438327 235902,438167 338548,438167 338548,438327 "/>
     <polygon id="47" class="fil42" points="235902,438220 235902,438060 338548,438060 338548,438220 "/>
     <polygon id="48" class="fil42" points="235902,438113 235902,437953 338548,437953 338548,438113 "/>
     <polygon id="49" class="fil42" points="235902,438006 235902,437846 338548,437846 338548,438006 "/>
     <polygon id="50" class="fil42" points="235902,437899 235902,437739 338548,437739 338548,437899 "/>
     <polygon id="51" class="fil42" points="235902,437792 235902,437632 338548,437632 338548,437792 "/>
     <polygon id="52" class="fil42" points="235902,437685 235902,437525 338548,437525 338548,437685 "/>
     <polygon id="53" class="fil43" points="235902,437578 235902,437418 338548,437418 338548,437578 "/>
     <polygon id="54" class="fil43" points="235902,437471 235902,437308 338548,437308 338548,437471 "/>
     <polygon id="55" class="fil44" points="235902,437365 235902,437201 338548,437201 338548,437365 "/>
     <polygon id="56" class="fil44" points="235902,437255 235902,437094 338548,437094 338548,437255 "/>
     <polygon id="57" class="fil44" points="235902,437148 235902,436987 338548,436987 338548,437148 "/>
     <polygon id="58" class="fil44" points="235902,437041 235902,436880 338548,436880 338548,437041 "/>
     <polygon id="59" class="fil44" points="235902,436934 235902,436773 338548,436773 338548,436934 "/>
     <polygon id="60" class="fil44" points="235902,436827 235902,436666 338548,436666 338548,436827 "/>
     <polygon id="61" class="fil44" points="235902,436720 235902,436559 338548,436559 338548,436720 "/>
     <polygon id="62" class="fil44" points="235902,436613 235902,436453 338548,436453 338548,436613 "/>
     <polygon id="63" class="fil44" points="235902,436506 235902,436346 338548,436346 338548,436506 "/>
     <polygon id="64" class="fil45" points="235902,436399 235902,436239 338548,436239 338548,436399 "/>
     <polygon id="65" class="fil45" points="235902,436292 235902,436132 338548,436132 338548,436292 "/>
     <polygon id="66" class="fil45" points="235902,436185 235902,436025 338548,436025 338548,436185 "/>
     <polygon id="67" class="fil45" points="235902,436078 235902,435918 338548,435918 338548,436078 "/>
     <polygon id="68" class="fil45" points="235902,435971 235902,435811 338548,435811 338548,435971 "/>
     <polygon id="69" class="fil45" points="235902,435864 235902,435704 338548,435704 338548,435864 "/>
     <polygon id="70" class="fil45" points="235902,435757 235902,435597 338548,435597 338548,435757 "/>
     <polygon id="71" class="fil45" points="235902,435650 235902,435490 338548,435490 338548,435650 "/>
     <polygon id="72" class="fil46" points="235902,435544 235902,435383 338548,435383 338548,435544 "/>
     <polygon id="73" class="fil46" points="235902,435437 235902,435276 338548,435276 338548,435437 "/>
     <polygon id="74" class="fil46" points="235902,435330 235902,435169 338548,435169 338548,435330 "/>
     <polygon id="75" class="fil46" points="235902,435223 235902,435062 338548,435062 338548,435223 "/>
     <polygon id="76" class="fil46" points="235902,435116 235902,434955 338548,434955 338548,435116 "/>
     <polygon id="77" class="fil46" points="235902,435009 235902,434848 338548,434848 338548,435009 "/>
     <polygon id="78" class="fil46" points="235902,434902 235902,434741 338548,434741 338548,434902 "/>
     <polygon id="79" class="fil46" points="235902,434795 235902,434634 338548,434634 338548,434795 "/>
     <polygon id="80" class="fil46" points="235902,434688 235902,434528 338548,434528 338548,434688 "/>
     <polygon id="81" class="fil47" points="235902,434581 235902,434421 338548,434421 338548,434581 "/>
     <polygon id="82" class="fil47" points="235902,434474 235902,434314 338548,434314 338548,434474 "/>
     <polygon id="83" class="fil47" points="235902,434367 235902,434207 338548,434207 338548,434367 "/>
     <polygon id="84" class="fil47" points="235902,434260 235902,434100 338548,434100 338548,434260 "/>
     <polygon id="85" class="fil47" points="235902,434153 235902,433993 338548,433993 338548,434153 "/>
     <polygon id="86" class="fil47" points="235902,434046 235902,433886 338548,433886 338548,434046 "/>
     <polygon id="87" class="fil47" points="235902,433939 235902,433779 338548,433779 338548,433939 "/>
     <polygon id="88" class="fil47" points="235902,433832 235902,433672 338548,433672 338548,433832 "/>
     <polygon id="89" class="fil47" points="235902,433725 235902,433565 338548,433565 338548,433725 "/>
     <polygon id="90" class="fil47" points="235902,433619 235902,433458 338548,433458 338548,433619 "/>
     <polygon id="91" class="fil47" points="235902,433512 235902,433351 338548,433351 338548,433512 "/>
     <polygon id="92" class="fil47" points="235902,433405 235902,433244 338548,433244 338548,433405 "/>
     <polygon id="93" class="fil47" points="235902,433298 235902,433137 338548,433137 338548,433298 "/>
     <polygon id="94" class="fil47" points="235902,433191 235902,433030 338548,433030 338548,433191 "/>
     <polygon id="95" class="fil47" points="235902,433084 235902,432923 338548,432923 338548,433084 "/>
     <polygon id="96" class="fil47" points="235902,432977 235902,432816 338548,432816 338548,432977 "/>
     <polygon id="97" class="fil47" points="235902,432870 235902,432709 338548,432709 338548,432870 "/>
     <polygon id="98" class="fil47" points="235902,432763 235902,432603 338548,432603 338548,432763 "/>
     <polygon id="99" class="fil47" points="235902,432656 235902,432496 338548,432496 338548,432656 "/>
     <polygon id="100" class="fil47" points="235902,432549 235902,432389 338548,432389 338548,432549 "/>
     <polygon id="101" class="fil47" points="235902,432442 235902,432282 338548,432282 338548,432442 "/>
     <polygon id="102" class="fil48" points="235902,432335 235902,432175 338548,432175 338548,432335 "/>
     <polygon id="103" class="fil48" points="235902,432228 235902,432068 338548,432068 338548,432228 "/>
     <polygon id="104" class="fil48" points="235902,432121 235902,431961 338548,431961 338548,432121 "/>
     <polygon id="105" class="fil48" points="235902,432014 235902,431854 338548,431854 338548,432014 "/>
     <polygon id="106" class="fil48" points="235902,431907 235902,431747 338548,431747 338548,431907 "/>
     <polygon id="107" class="fil49" points="235902,431800 235902,431640 338548,431640 338548,431800 "/>
     <polygon id="108" class="fil49" points="235902,431694 235902,431533 338548,431533 338548,431694 "/>
     <polygon id="109" class="fil49" points="235902,431587 235902,431426 338548,431426 338548,431587 "/>
     <polygon id="110" class="fil49" points="235902,431480 235902,431316 338548,431316 338548,431480 "/>
     <polygon id="111" class="fil49" points="235902,431370 235902,431209 338548,431209 338548,431370 "/>
     <polygon id="112" class="fil49" points="235902,431263 235902,431102 338548,431102 338548,431263 "/>
     <polygon id="113" class="fil49" points="235902,431156 235902,430995 338548,430995 338548,431156 "/>
     <polygon id="114" class="fil49" points="235902,431049 235902,430888 338548,430888 338548,431049 "/>
     <polygon id="115" class="fil49" points="235902,430942 235902,430782 338548,430782 338548,430942 "/>
     <polygon id="116" class="fil49" points="235902,430835 235902,430675 338548,430675 338548,430835 "/>
     <polygon id="117" class="fil49" points="235902,430728 235902,430568 338548,430568 338548,430728 "/>
     <polygon id="118" class="fil49" points="235902,430621 235902,430461 338548,430461 338548,430621 "/>
     <polygon id="119" class="fil49" points="235902,430514 235902,430354 338548,430354 338548,430514 "/>
     <polygon id="120" class="fil49" points="235902,430407 235902,430247 338548,430247 338548,430407 "/>
     <polygon id="121" class="fil49" points="235902,430300 235902,430140 338548,430140 338548,430300 "/>
     <polygon id="122" class="fil49" points="235902,430193 235902,430033 338548,430033 338548,430193 "/>
     <polygon id="123" class="fil49" points="235902,430086 235902,429926 338548,429926 338548,430086 "/>
     <polygon id="124" class="fil49" points="235902,429979 235902,429819 338548,429819 338548,429979 "/>
     <polygon id="125" class="fil49" points="235902,429872 235902,429712 338548,429712 338548,429872 "/>
     <polygon id="126" class="fil49" points="235902,429766 235902,429605 338548,429605 338548,429766 "/>
     <polygon id="127" class="fil49" points="235902,429659 235902,429498 338548,429498 338548,429659 "/>
     <polygon id="128" class="fil49" points="235902,429552 235902,429391 338548,429391 338548,429552 "/>
     <polygon id="129" class="fil49" points="235902,429445 235902,429284 338548,429284 338548,429445 "/>
     <polygon id="130" class="fil49" points="235902,429338 235902,429177 338548,429177 338548,429338 "/>
     <polygon id="131" class="fil49" points="235902,429231 235902,429070 338548,429070 338548,429231 "/>
     <polygon id="132" class="fil49" points="235902,429124 235902,428963 338548,428963 338548,429124 "/>
     <polygon id="133" class="fil49" points="235902,429017 235902,428857 338548,428857 338548,429017 "/>
     <polygon id="134" class="fil49" points="235902,428910 235902,428750 338548,428750 338548,428910 "/>
     <polygon id="135" class="fil49" points="235902,428803 235902,428643 338548,428643 338548,428803 "/>
     <polygon id="136" class="fil49" points="235902,428696 235902,428536 338548,428536 338548,428696 "/>
     <polygon id="137" class="fil49" points="235902,428589 235902,428429 338548,428429 338548,428589 "/>
     <polygon id="138" class="fil49" points="235902,428482 235902,428322 338548,428322 338548,428482 "/>
     <polygon id="139" class="fil49" points="235902,428375 235902,428215 338548,428215 338548,428375 "/>
     <polygon id="140" class="fil49" points="235902,428268 235902,428108 338548,428108 338548,428268 "/>
     <polygon id="141" class="fil49" points="235902,428161 235902,428001 338548,428001 338548,428161 "/>
     <polygon id="142" class="fil49" points="235902,428054 235902,427894 338548,427894 338548,428054 "/>
     <polygon id="143" class="fil49" points="235902,427947 235902,427787 338548,427787 338548,427947 "/>
     <polygon id="144" class="fil49" points="235902,427841 235902,427680 338548,427680 338548,427841 "/>
     <polygon id="145" class="fil49" points="235902,427734 235902,427573 338548,427573 338548,427734 "/>
     <polygon id="146" class="fil49" points="235902,427627 235902,427466 338548,427466 338548,427627 "/>
     <polygon id="147" class="fil49" points="235902,427520 235902,427359 338548,427359 338548,427520 "/>
     <polygon id="148" class="fil49" points="235902,427413 235902,427252 338548,427252 338548,427413 "/>
     <polygon id="149" class="fil50" points="235902,427306 235902,427145 338548,427145 338548,427306 "/>
     <polygon id="150" class="fil50" points="235902,427199 235902,427038 338548,427038 338548,427199 "/>
     <polygon id="151" class="fil50" points="235902,427092 235902,426932 338548,426932 338548,427092 "/>
     <polygon id="152" class="fil50" points="235902,426985 235902,426825 338548,426825 338548,426985 "/>
     <polygon id="153" class="fil50" points="235902,426878 235902,426718 338548,426718 338548,426878 "/>
     <polygon id="154" class="fil51" points="235902,426771 235902,426611 338548,426611 338548,426771 "/>
     <polygon id="155" class="fil51" points="235902,426664 235902,426504 338548,426504 338548,426664 "/>
     <polygon id="156" class="fil51" points="235902,426557 235902,426397 338548,426397 338548,426557 "/>
     <polygon id="157" class="fil51" points="235902,426450 235902,426290 338548,426290 338548,426450 "/>
     <polygon id="158" class="fil51" points="235902,426343 235902,426183 338548,426183 338548,426343 "/>
     <polygon id="159" class="fil51" points="235902,426236 235902,426076 338548,426076 338548,426236 "/>
     <polygon id="160" class="fil51" points="235902,426129 235902,425969 338548,425969 338548,426129 "/>
     <polygon id="161" class="fil51" points="235902,426022 235902,425862 338548,425862 338548,426022 "/>
     <polygon id="162" class="fil51" points="235902,425916 235902,425755 338548,425755 338548,425916 "/>
     <polygon id="163" class="fil51" points="235902,425809 235902,425648 338548,425648 338548,425809 "/>
     <polygon id="164" class="fil51" points="235902,425702 235902,425541 338548,425541 338548,425702 "/>
     <polygon id="165" class="fil51" points="235902,425595 235902,425431 338548,425431 338548,425595 "/>
     <polygon id="166" class="fil51" points="235902,425485 235902,425324 338548,425324 338548,425485 "/>
     <polygon id="167" class="fil51" points="235902,425378 235902,425217 338548,425217 338548,425378 "/>
     <polygon id="168" class="fil51" points="235902,425271 235902,425110 338548,425110 338548,425271 "/>
     <polygon id="169" class="fil51" points="235902,425164 235902,425004 338548,425004 338548,425164 "/>
     <polygon id="170" class="fil51" points="235902,425057 235902,424897 338548,424897 338548,425057 "/>
     <polygon id="171" class="fil51" points="235902,424950 235902,424790 338548,424790 338548,424950 "/>
     <polygon id="172" class="fil51" points="235902,424843 235902,424683 338548,424683 338548,424843 "/>
     <polygon id="173" class="fil51" points="235902,424736 235902,424576 338548,424576 338548,424736 "/>
     <polygon id="174" class="fil51" points="235902,424629 235902,424469 338548,424469 338548,424629 "/>
     <polygon id="175" class="fil52" points="235902,424522 235902,424362 338548,424362 338548,424522 "/>
     <polygon id="176" class="fil52" points="235902,424415 235902,424255 338548,424255 338548,424415 "/>
     <polygon id="177" class="fil52" points="235902,424308 235902,424148 338548,424148 338548,424308 "/>
     <polygon id="178" class="fil52" points="235902,424201 235902,424041 338548,424041 338548,424201 "/>
     <polygon id="179" class="fil52" points="235902,424095 235902,423934 338548,423934 338548,424095 "/>
     <polygon id="180" class="fil52" points="235902,423988 235902,423827 338548,423827 338548,423988 "/>
     <polygon id="181" class="fil52" points="235902,423881 235902,423720 338548,423720 338548,423881 "/>
     <polygon id="182" class="fil52" points="235902,423774 235902,423613 338548,423613 338548,423774 "/>
     <polygon id="183" class="fil52" points="235902,423667 235902,423506 338548,423506 338548,423667 "/>
     <polygon id="184" class="fil53" points="235902,423560 235902,423399 338548,423399 338548,423560 "/>
     <polygon id="185" class="fil53" points="235902,423453 235902,423292 338548,423292 338548,423453 "/>
     <polygon id="186" class="fil53" points="235902,423346 235902,423185 338548,423185 338548,423346 "/>
     <polygon id="187" class="fil53" points="235902,423239 235902,423079 338548,423079 338548,423239 "/>
     <polygon id="188" class="fil53" points="235902,423132 235902,422972 338548,422972 338548,423132 "/>
     <polygon id="189" class="fil53" points="235902,423025 235902,422865 338548,422865 338548,423025 "/>
     <polygon id="190" class="fil53" points="235902,422918 235902,422758 338548,422758 338548,422918 "/>
     <polygon id="191" class="fil53" points="235902,422811 235902,422651 338548,422651 338548,422811 "/>
     <polygon id="192" class="fil54" points="235902,422704 235902,422544 338548,422544 338548,422704 "/>
     <polygon id="193" class="fil54" points="235902,422597 235902,422437 338548,422437 338548,422597 "/>
     <polygon id="194" class="fil54" points="235902,422490 235902,422330 338548,422330 338548,422490 "/>
     <polygon id="195" class="fil54" points="235902,422383 235902,422223 338548,422223 338548,422383 "/>
     <polygon id="196" class="fil54" points="235902,422276 235902,422116 338548,422116 338548,422276 "/>
     <polygon id="197" class="fil54" points="235902,422170 235902,422009 338548,422009 338548,422170 "/>
     <polygon id="198" class="fil54" points="235902,422063 235902,421902 338548,421902 338548,422063 "/>
     <polygon id="199" class="fil54" points="235902,421956 235902,421795 338548,421795 338548,421956 "/>
     <polygon id="200" class="fil54" points="235902,421849 235902,421688 338548,421688 338548,421849 "/>
     <polygon id="201" class="fil55" points="235902,421742 235902,421581 338548,421581 338548,421742 "/>
     <polygon id="202" class="fil55" points="235902,421635 235902,421474 338548,421474 338548,421635 "/>
     <polygon id="203" class="fil56" points="235902,421528 235902,421367 338548,421367 338548,421528 "/>
     <polygon id="204" class="fil56" points="235902,421421 235902,421260 338548,421260 338548,421421 "/>
     <polygon id="205" class="fil56" points="235902,421314 235902,421154 338548,421154 338548,421314 "/>
     <polygon id="206" class="fil56" points="235902,421207 235902,421047 338548,421047 338548,421207 "/>
     <polygon id="207" class="fil56" points="235902,421100 235902,420940 338548,420940 338548,421100 "/>
     <polygon id="208" class="fil56" points="235902,420993 235902,420833 338548,420833 338548,420993 "/>
     <polygon id="209" class="fil57" points="235902,420886 235902,420726 338548,420726 338548,420886 "/>
     <polygon id="210" class="fil57" points="235902,420779 235902,420619 338548,420619 338548,420779 "/>
     <polygon id="211" class="fil58" points="235902,420672 235902,420512 338548,420512 338548,420672 "/>
     <polygon id="212" class="fil59" points="235902,420565 235902,420405 338548,420405 338548,420565 "/>
     <polygon id="213" class="fil59" points="235902,420458 235902,420298 338548,420298 338548,420458 "/>
     <polygon id="214" class="fil59" points="235902,420351 235902,420191 338548,420191 338548,420351 "/>
     <polygon id="215" class="fil59" points="235902,420245 235902,420084 338548,420084 338548,420245 "/>
     <polygon id="216" class="fil59" points="235902,420138 235902,419977 338548,419977 338548,420138 "/>
     <polygon id="217" class="fil60" points="235902,420031 235902,419870 338548,419870 338548,420031 "/>
     <polygon id="218" class="fil60" points="235902,419924 235902,419763 338548,419763 338548,419924 "/>
     <polygon id="219" class="fil60" points="235902,419817 235902,419656 338548,419656 338548,419817 "/>
     <polygon id="220" class="fil61" points="235902,419710 235902,419546 338548,419546 338548,419710 "/>
     <polygon id="221" class="fil61" points="235902,419603 235902,419439 338548,419439 338548,419603 "/>
     <polygon id="222" class="fil62" points="235902,419493 235902,419333 338548,419333 338548,419493 "/>
     <polygon id="223" class="fil62" points="235902,419386 235902,419226 338548,419226 338548,419386 "/>
     <polygon id="224" class="fil62" points="235902,419279 235902,419119 338548,419119 338548,419279 "/>
     <polygon id="225" class="fil63" points="235902,419172 235902,419012 338548,419012 338548,419172 "/>
     <polygon id="226" class="fil64" points="235902,419065 235902,418905 338548,418905 338548,419065 "/>
     <polygon id="227" class="fil64" points="235902,418958 235902,418798 338548,418798 338548,418958 "/>
     <polygon id="228" class="fil64" points="235902,418851 235902,418691 338548,418691 338548,418851 "/>
     <polygon id="229" class="fil65" points="235902,418744 235902,418584 338548,418584 338548,418744 "/>
     <polygon id="230" class="fil66" points="235902,418637 235902,418477 338548,418477 338548,418637 "/>
     <polygon id="231" class="fil66" points="235902,418530 235902,418370 338548,418370 338548,418530 "/>
     <polygon id="232" class="fil67" points="235902,418423 235902,418263 338548,418263 338548,418423 "/>
     <polygon id="233" class="fil68" points="235902,418317 235902,418156 338548,418156 338548,418317 "/>
     <polygon id="234" class="fil69" points="235902,418210 235902,418049 338548,418049 338548,418210 "/>
     <polygon id="235" class="fil69" points="235902,418103 235902,417942 338548,417942 338548,418103 "/>
     <polygon id="236" class="fil70" points="235902,417996 235902,417835 338548,417835 338548,417996 "/>
     <polygon id="237" class="fil70" points="235902,417889 235902,417728 338548,417728 338548,417889 "/>
     <polygon id="238" class="fil71" points="235902,417782 235902,417621 338548,417621 338548,417782 "/>
     <polygon id="239" class="fil71" points="235902,417675 235902,417514 338548,417514 338548,417675 "/>
     <polygon id="240" class="fil72" points="235902,417568 235902,417408 338548,417408 338548,417568 "/>
     <polygon id="241" class="fil73" points="235902,417461 235902,417301 338548,417301 338548,417461 "/>
     <polygon id="242" class="fil74" points="235902,417354 235902,417194 338548,417194 338548,417354 "/>
     <polygon id="243" class="fil75" points="235902,417247 235902,417087 338548,417087 338548,417247 "/>
     <polygon id="244" class="fil76" points="235902,417140 235902,416980 338548,416980 338548,417140 "/>
     <polygon id="245" class="fil77" points="235902,417033 235902,416873 338548,416873 338548,417033 "/>
     <polygon id="246" class="fil78" points="235902,416926 235902,416766 338548,416766 338548,416926 "/>
     <polygon id="247" class="fil79" points="235902,416819 235902,416659 338548,416659 338548,416819 "/>
     <polygon id="248" class="fil80" points="235902,416712 235902,416552 338548,416552 338548,416712 "/>
     <polygon id="249" class="fil81" points="235902,416605 235902,416445 338548,416445 338548,416605 "/>
     <polygon id="250" class="fil82" points="235902,416498 235902,416338 338548,416338 338548,416498 "/>
     <polygon id="251" class="fil83" points="235902,416392 235902,416231 338548,416231 338548,416392 "/>
     <polygon id="252" class="fil84" points="235902,416285 235902,416124 338548,416124 338548,416285 "/>
     <polygon id="253" class="fil85" points="235902,416178 235902,416017 338548,416017 338548,416178 "/>
     <polygon id="254" class="fil86" points="235902,416071 235902,415910 338548,415910 338548,416071 "/>
     <polygon id="255" class="fil87" points="235902,415964 235902,415750 338548,415750 338548,415964 "/>
    </g>
   </g>
  </g>
  <g>
   <path class="fil2" d="M192292 106751l18279 0c4940,0 8734,384 11395,1162 2647,781 4647,1898 5983,3354 1340,1470 2237,3250 2721,5323 473,2089 707,5309 707,9676l0 6072c0,4441 -457,7691 -1381,9720 -912,2044 -2605,3618 -5044,4706 -2457,1090 -5662,1633 -9619,1633l-4866 0 0 28145 -18175 0 0 -69791zm18175 11913l0 17776c514,30 956,45 1322,45 1663,0 2810,-410 3458,-1236 632,-808 953,-2513 953,-5100l0 -5752c0,-2382 -365,-3939 -1117,-4661 -733,-719 -2278,-1072 -4616,-1072zm42882 704l-618 7531c2543,-5413 6220,-8265 11027,-8589l0 20118c-3191,0 -5543,425 -7044,1292 -1500,868 -2412,2059 -2762,3604 -339,1529 -517,5073 -517,10632l0 22586 -17382 0 0 -57174 17296 0zm53629 20073l0 14013c0,5148 -264,8912 -781,11324 -514,2397 -1616,4631 -3306,6719 -1694,2089 -3868,3619 -6530,4617 -2662,986 -5707,1485 -9147,1485 -3853,0 -7117,-425 -9779,-1262 -2677,-853 -4750,-2133 -6221,-3838 -1485,-1720 -2543,-3794 -3175,-6221 -633,-2427 -942,-6072 -942,-10926l0 -14661c0,-5323 573,-9470 1720,-12470 1150,-2986 3223,-5380 6206,-7189 2985,-1810 6809,-2722 11455,-2722 3897,0 7251,589 10058,1750 2796,1162 4956,2677 6485,4545 1515,1866 2558,3794 3120,5778 558,1985 837,5000 837,9058zm-17381 -4308c0,-2926 -163,-4779 -472,-5528 -321,-767 -999,-1150 -2044,-1150 -1043,0 -1735,383 -2089,1150 -335,749 -514,2602 -514,5528l0 25807c0,2706 179,4471 514,5279 354,822 1031,1235 2047,1235 1043,0 1720,-368 2059,-1117 336,-751 499,-2352 499,-4824l0 -26380zm40336 -15765l-265 5442c1352,-2162 2956,-3793 4825,-4869 1851,-1087 3983,-1631 6366,-1631 4646,0 8294,2163 10971,6500 1455,-2162 3101,-3793 4943,-4869 1839,-1087 3868,-1631 6117,-1631 2941,0 5397,722 7322,2163 1940,1426 3176,3191 3720,5279 546,2073 825,5454 825,10145l0 40645 -16852 0 0 -37276c0,-4884 -164,-7897 -499,-9058 -324,-1165 -1091,-1753 -2312,-1753 -1235,0 -2031,577 -2382,1723 -368,1147 -547,4174 -547,9088l0 37276 -16849 0 0 -36323c0,-5600 -134,-8968 -413,-10085 -265,-1117 -1028,-1679 -2264,-1679 -781,0 -1426,294 -1984,883 -547,588 -841,1310 -897,2162 -60,838 -90,2647 -90,5398l0 39644 -16852 0 0 -57174 17117 0zm68735 -12617l0 9088 -17910 0 0 -9088 17910 0zm0 12617l0 57174 -17910 0 0 -57174 17910 0zm41822 18264l-15353 0 0 -3102c0,-2647 -148,-4310 -457,-5014 -294,-707 -1058,-1061 -2264,-1061 -971,0 -1705,324 -2189,972 -488,647 -737,1619 -737,2911 0,1750 119,3045 368,3853 235,823 969,1720 2190,2691 1206,987 3707,2413 7486,4278 5044,2472 8339,4795 9910,6987 1574,2175 2368,5353 2368,9512 0,4664 -603,8179 -1809,10546 -1207,2365 -3221,4204 -6043,5484 -2840,1280 -6235,1910 -10234,1910 -4411,0 -8205,-689 -11339,-2058 -3146,-1382 -5309,-3250 -6485,-5603 -1176,-2353 -1765,-5909 -1765,-10674l0 -2751 15442 0 0 3604c0,3057 190,5044 573,5971 396,909 1162,1366 2294,1366 1236,0 2088,-309 2572,-926 488,-618 737,-1926 737,-3898 0,-2733 -309,-4441 -942,-5130 -662,-693 -4028,-2736 -10103,-6132 -5101,-2870 -8220,-5472 -9337,-7825 -1117,-2338 -1675,-5115 -1675,-8335 0,-4575 603,-7941 1809,-10104 1203,-2177 3250,-3853 6131,-5029 2882,-1176 6236,-1765 10044,-1765 3794,0 7014,485 9661,1441 2662,972 4691,2234 6117,3823 1411,1575 2278,3045 2572,4397 309,1355 458,3470 458,6339l0 3322zm45410 11294l-22587 0 0 12397c0,2587 194,4263 559,5014 383,749 1105,1117 2177,1117 1337,0 2234,-499 2677,-1485 455,-1001 677,-2926 677,-5778l0 -7560 16497 0 0 4236c0,3544 -220,6265 -660,8160 -457,1899 -1500,3928 -3134,6087 -1631,2163 -3719,3782 -6233,4869 -2516,1073 -5662,1616 -9455,1616 -3678,0 -6928,-529 -9753,-1601 -2810,-1060 -5000,-2516 -6574,-4367 -1572,-1854 -2647,-3897 -3250,-6131 -603,-2222 -912,-5457 -912,-9720l0 -16693c0,-4999 677,-8938 2029,-11835 1355,-2884 3559,-5104 6634,-6633 3086,-1545 6618,-2309 10620,-2309 4881,0 8909,927 12087,2781 3176,1851 5410,4307 6690,7364 1281,3045 1911,7353 1911,12899l0 7572zm-17379 -9265l0 -4174c0,-2971 -163,-4869 -487,-5737 -324,-867 -983,-1295 -1985,-1295 -1235,0 -1999,369 -2293,1105 -294,734 -443,2707 -443,5927l0 4174 5208 0z"/>
   <path class="fil3" d="M189402 104648l18278 0c4941,0 8734,383 11396,1162 2647,781 4646,1898 5983,3354 1340,1470 2237,3250 2721,5323 472,2088 707,5309 707,9676l0 6072c0,4441 -457,7691 -1381,9720 -912,2044 -2606,3618 -5045,4705 -2456,1091 -5662,1634 -9619,1634l-4866 0 0 28144 -18174 0 0 -69790zm18174 11913l0 17776c514,30 957,45 1322,45 1664,0 2811,-410 3458,-1236 633,-808 954,-2513 954,-5101l0 -5751c0,-2382 -366,-3939 -1117,-4661 -734,-719 -2279,-1072 -4617,-1072zm42882 704l-618 7530c2543,-5412 6221,-8264 11027,-8588l0 20118c-3190,0 -5543,424 -7043,1292 -1500,867 -2412,2059 -2763,3603 -338,1530 -517,5074 -517,10632l0 22586 -17381 0 0 -57173 17295 0zm53630 20073l0 14012c0,5148 -265,8912 -781,11325 -514,2397 -1616,4631 -3307,6719 -1693,2089 -3868,3618 -6529,4617 -2662,986 -5707,1485 -9147,1485 -3853,0 -7118,-425 -9780,-1263 -2676,-852 -4750,-2132 -6220,-3838 -1485,-1720 -2543,-3793 -3176,-6220 -633,-2427 -942,-6072 -942,-10926l0 -14661c0,-5323 574,-9470 1721,-12471 1149,-2985 3223,-5380 6205,-7189 2986,-1809 6809,-2721 11455,-2721 3898,0 7252,588 10059,1750 2795,1161 4955,2676 6485,4545 1515,1866 2558,3794 3119,5778 559,1984 838,5000 838,9058zm-17382 -4308c0,-2926 -163,-4780 -472,-5528 -321,-767 -998,-1150 -2044,-1150 -1042,0 -1735,383 -2088,1150 -336,748 -514,2602 -514,5528l0 25806c0,2707 178,4471 514,5279 353,823 1031,1236 2047,1236 1042,0 1720,-368 2058,-1117 336,-751 499,-2353 499,-4824l0 -26380zm40336 -15765l-264 5442c1352,-2163 2956,-3794 4824,-4869 1851,-1087 3984,-1631 6367,-1631 4649,0 8297,2163 10973,6500 1456,-2163 3102,-3794 4940,-4869 1839,-1087 3868,-1631 6117,-1631 2941,0 5398,722 7323,2163 1940,1426 3175,3190 3719,5279 547,2073 826,5454 826,10145l0 40644 -16853 0 0 -37276c0,-4883 -163,-7896 -499,-9057 -324,-1165 -1090,-1753 -2311,-1753 -1233,0 -2029,576 -2379,1723 -369,1147 -547,4174 -547,9087l0 37276 -16853 0 0 -36322c0,-5600 -133,-8969 -413,-10086 -264,-1117 -1028,-1678 -2263,-1678 -782,0 -1426,294 -1985,882 -546,588 -840,1310 -897,2163 -59,838 -89,2647 -89,5398l0 39643 -16853 0 0 -57173 17117 0zm68736 -12617l0 9088 -17910 0 0 -9088 17910 0zm0 12617l0 57173 -17910 0 0 -57173 17910 0zm41821 18263l-15352 0 0 -3101c0,-2647 -149,-4310 -458,-5014 -294,-707 -1057,-1061 -2263,-1061 -972,0 -1706,324 -2190,971 -487,648 -737,1619 -737,2912 0,1749 119,3045 369,3853 235,823 968,1720 2189,2691 1206,986 3708,2412 7486,4278 5045,2471 8339,4795 9911,6987 1574,2174 2367,5353 2367,9512 0,4664 -603,8178 -1809,10546 -1206,2365 -3220,4203 -6042,5484 -2840,1280 -6236,1910 -10234,1910 -4412,0 -8205,-689 -11339,-2059 -3146,-1381 -5309,-3250 -6485,-5602 -1177,-2353 -1765,-5909 -1765,-10674l0 -2751 15442 0 0 3604c0,3056 190,5044 573,5971 395,909 1161,1366 2293,1366 1236,0 2089,-309 2573,-927 487,-618 737,-1925 737,-3897 0,-2733 -309,-4441 -942,-5131 -663,-692 -4028,-2736 -10103,-6131 -5101,-2870 -8220,-5472 -9337,-7825 -1117,-2338 -1676,-5115 -1676,-8336 0,-4574 603,-7940 1809,-10103 1204,-2177 3250,-3853 6132,-5029 2882,-1177 6235,-1765 10044,-1765 3793,0 7014,484 9661,1441 2661,971 4690,2234 6116,3823 1411,1575 2279,3045 2573,4397 309,1354 457,3470 457,6339l0 3321zm45410 11295l-22586 0 0 12397c0,2587 193,4263 558,5014 384,749 1106,1117 2178,1117 1337,0 2234,-499 2677,-1485 454,-1001 677,-2926 677,-5778l0 -7561 16496 0 0 4237c0,3544 -220,6265 -659,8160 -458,1898 -1501,3927 -3134,6087 -1631,2163 -3720,3782 -6233,4869 -2516,1072 -5662,1616 -9456,1616 -3677,0 -6927,-529 -9749,-1601 -2811,-1061 -5000,-2516 -6575,-4367 -1571,-1854 -2646,-3898 -3249,-6132 -604,-2222 -912,-5457 -912,-9720l0 -16692c0,-5000 677,-8939 2028,-11835 1355,-2885 3559,-5104 6634,-6634 3087,-1544 6616,-2308 10617,-2308 4881,0 8909,927 12088,2781 3176,1850 5410,4307 6690,7364 1280,3045 1910,7352 1910,12899l0 7572zm-17378 -9266l0 -4173c0,-2971 -164,-4869 -488,-5737 -323,-867 -983,-1295 -1984,-1295 -1236,0 -1999,368 -2293,1105 -294,734 -443,2706 -443,5927l0 4173 5208 0z"/>
  </g>
 </g>
</svg>
