<?xml version="1.0" encoding="UTF-8"?>
<!DOCTYPE svg PUBLIC "-//W3C//DTD SVG 1.1//EN" "http://www.w3.org/Graphics/SVG/1.1/DTD/svg11.dtd">
<!-- Creator: CorelDRAW X8 -->
<svg xmlns="http://www.w3.org/2000/svg" xml:space="preserve" width="483px" height="112px" version="1.1" style="shape-rendering:geometricPrecision; text-rendering:geometricPrecision; image-rendering:optimizeQuality; fill-rule:evenodd; clip-rule:evenodd"
viewBox="0 0 124353 28910"
 xmlns:xlink="http://www.w3.org/1999/xlink">
 <defs>
  <style type="text/css">
   <![CDATA[
    .str0 {stroke:#FADAC1;stroke-width:514.709}
    .fil1 {fill:none}
    .fil2 {fill:#FADAC1}
    .fil0 {fill:white;fill-rule:nonzero}
   ]]>
  </style>
    <clipPath id="id0">
     <path d="M8040 4337l11370 0 0 19471 -11370 0 0 -19471z"/>
    </clipPath>
    <clipPath id="id1">
     <path d="M15936 6012l10604 0 0 18180 -10604 0 0 -18180z"/>
    </clipPath>
 </defs>
 <g id="card_x0020_content">
  <metadata id="CorelCorpID_0Corel-Layer"/>
  <path class="fil0" d="M52060 21191c-1208,561 -2717,841 -4522,841 -2331,0 -4194,-657 -5594,-1974 -1403,-1316 -2105,-3043 -2105,-5181 0,-2295 792,-4153 2367,-5568 1574,-1420 3574,-2128 5995,-2128 1551,0 2838,199 3859,592l0 1795c-1173,-574 -2468,-861 -3883,-861 -1879,0 -3402,550 -4572,1652 -1170,1101 -1754,2575 -1754,4419 0,1751 545,3146 1637,4183 1095,1039 2526,1559 4303,1559 1641,0 3068,-321 4269,-961l0 1632z"/>
  <path id="1" class="fil0" d="M64853 21793l-1875 0 0 -5914c0,-2138 -904,-3205 -2717,-3205 -912,0 -1684,308 -2307,927 -624,619 -936,1413 -936,2381l0 5811 -1875 0 0 -15190 1875 0 0 6632 47 0c896,-1296 2175,-1943 3835,-1943 2635,0 3953,1392 3953,4176l0 6325z"/>
  <path id="2" class="fil0" d="M69340 8925c-332,0 -620,-99 -854,-301 -238,-198 -354,-451 -354,-759 0,-308 116,-564 354,-766 234,-205 522,-308 854,-308 343,0 635,103 877,308 238,202 358,458 358,766 0,294 -120,544 -358,749 -242,209 -534,311 -877,311zm916 12868l-1875 0 0 -10261 1875 0 0 10261z"/>
  <polygon id="3" class="fil0" points="83981,8946 79252,8946 79252,21793 77335,21793 77335,8946 72618,8946 72618,7424 83981,7424 "/>
  <path id="4" class="fil0" d="M105202 20811c-1641,814 -3469,1221 -5481,1221 -2335,0 -4226,-660 -5668,-1984 -1446,-1320 -2167,-3071 -2167,-5250 0,-2223 803,-4050 2405,-5476 1602,-1426 3633,-2141 6093,-2141 1781,0 3278,257 4486,763l0 1864c-1321,-735 -2892,-1101 -4705,-1101 -1831,0 -3336,554 -4509,1662 -1174,1108 -1759,2545 -1759,4309 0,1816 546,3246 1634,4283 1087,1039 2565,1559 4432,1559 1278,0 2385,-226 3321,-670l0 -4029 -3586 0 0 -1522 5504 0 0 6512z"/>
  <path id="5" class="fil0" d="M109712 8925c-331,0 -620,-99 -854,-301 -237,-198 -354,-451 -354,-759 0,-308 117,-564 354,-766 234,-205 523,-308 854,-308 343,0 635,103 877,308 238,202 359,458 359,766 0,294 -121,544 -359,749 -242,209 -534,311 -877,311zm916 12868l-1875 0 0 -10261 1875 0 0 10261z"/>
  <polygon id="6" class="fil0" points="124353,8946 119625,8946 119625,21793 117707,21793 117707,8946 112990,8946 112990,7424 124353,7424 "/>
  <ellipse class="fil1 str0" cx="14455" cy="14455" rx="14197" ry="14198"/>
  <circle class="fil1" cx="13514" cy="14107" r="12423"/>
  <g id="_2053182599312">
   <g style="clip-path:url(#id0)">
    <image x="8040" y="4337" width="11370" height="19472" xlink:href="Chit_logo_Images\Chit_logo_ImgID1.png"/>
   </g>
  </g>
  <path class="fil2" d="M13099 5648c614,1508 1057,3111 1670,4618 342,43 470,-551 443,-1560 800,764 1214,2129 1602,3535 2166,4012 1503,7208 -1329,9777 -1159,634 -2317,598 -3476,127 -2583,-1827 -3777,-5198 -1295,-9936 212,-900 457,-1797 988,-2675 164,712 358,1349 750,1465 159,-1752 488,-3599 647,-5351z"/>
  <path class="fil2" d="M8346 6934c576,1185 925,2067 1717,2482 -1037,1934 -1938,3869 -2975,5803 794,1616 1451,3233 2245,4849 -695,867 -1389,1732 -2083,2599 -1858,-2223 -3486,-5111 -5344,-7334 2120,-3022 4321,-5378 6440,-8399z"/>
  <g id="_2053182614480">
   <g style="clip-path:url(#id1)">
    <image x="15936" y="6012" width="10604" height="18180" xlink:href="Chit_logo_Images\Chit_logo_ImgID2.png"/>
   </g>
  </g>
  <path class="fil2" d="M18876 7236c-575,1185 -925,2067 -1717,2482 1037,1935 2042,3869 3079,5803 -793,1616 -1555,3233 -2348,4850 694,866 1388,1732 2083,2598 1857,-2223 3486,-5111 5344,-7334 -2120,-3021 -4321,-5378 -6441,-8399z"/>
  <path class="fil2" d="M10174 9887c388,-394 672,-789 1060,-1183 0,-1415 0,-2829 0,-4244 -2837,-749 -4406,3218 -1060,5427z"/>
  <path class="fil2" d="M17140 9911c-387,-394 -671,-789 -1059,-1183 0,-1415 0,-2829 0,-4244 2837,-748 4406,3218 1059,5427z"/>
 </g>
</svg>
