<?xml version="1.0" encoding="UTF-8"?>
<!DOCTYPE svg PUBLIC "-//W3C//DTD SVG 1.1//EN" "http://www.w3.org/Graphics/SVG/1.1/DTD/svg11.dtd">
<!-- Creator: CorelDRAW X8 -->
<svg xmlns="http://www.w3.org/2000/svg" xml:space="preserve" width="85px" height="85px" version="1.1" style="shape-rendering:geometricPrecision; text-rendering:geometricPrecision; image-rendering:optimizeQuality; fill-rule:evenodd; clip-rule:evenodd"
viewBox="0 0 81474 81474"
 xmlns:xlink="http://www.w3.org/1999/xlink">
 <defs>
  <style type="text/css">
   <![CDATA[
    .str1 {stroke:#A99018;stroke-width:1231.15}
    .str0 {stroke:#A99018;stroke-width:277.062}
    .fil7 {fill:#DED60F;fill-rule:nonzero}
    .fil8 {fill:#634E10;fill-rule:nonzero}
    .fil4 {fill:url(#id2)}
    .fil0 {fill:url(#id3)}
    .fil3 {fill:url(#id4)}
    .fil6 {fill:url(#id5)}
    .fil5 {fill:url(#id6)}
    .fil2 {fill:url(#id7)}
    .fil1 {fill:url(#id8)}
   ]]>
  </style>
      <clipPath id="id0">
       <path d="M31287 10504l18321 0 0 31376 -18321 0 0 -31376z"/>
      </clipPath>
      <clipPath id="id1">
       <path d="M44010 13204l17087 0 0 29295 -17087 0 0 -29295z"/>
      </clipPath>
  <linearGradient id="id2" gradientUnits="userSpaceOnUse" x1="47729.6" y1="38480.8" x2="57378.1" y2="17221.9">
   <stop offset="0" style="stop-opacity:1; stop-color:#957417"/>
   <stop offset="1" style="stop-opacity:1; stop-color:#FFFF51"/>
  </linearGradient>
  <linearGradient id="id3" gradientUnits="userSpaceOnUse" x1="40737.3" y1="81335.6" x2="40737.3" y2="138.531">
   <stop offset="0" style="stop-opacity:1; stop-color:#8E6D1C"/>
   <stop offset="1" style="stop-opacity:1; stop-color:#FAFA0A"/>
  </linearGradient>
  <linearGradient id="id4" gradientUnits="userSpaceOnUse" xlink:href="#id2" x1="23151.4" y1="37993.9" x2="32800.3" y2="16735.4">
  </linearGradient>
  <linearGradient id="id5" gradientUnits="userSpaceOnUse" xlink:href="#id2" x1="44959.4" y1="18810.8" x2="48281.2" y2="11268.7">
  </linearGradient>
  <linearGradient id="id6" gradientUnits="userSpaceOnUse" xlink:href="#id2" x1="32396.3" y1="18771.9" x2="35718.5" y2="11229.8">
  </linearGradient>
  <linearGradient id="id7" gradientUnits="userSpaceOnUse" xlink:href="#id2" x1="34082.3" y1="36959.5" x2="46811.2" y2="15423.9">
  </linearGradient>
  <linearGradient id="id8" gradientUnits="userSpaceOnUse" xlink:href="#id3" x1="40784.2" y1="76182.4" x2="40784.2" y2="5135.11">
  </linearGradient>
 </defs>
 <g id="Chits">
  <metadata id="CorelCorpID_0Corel-Layer"/>
  <g id="_2216176166496">
   <circle class="fil0 str0" cx="40737" cy="40737" r="40599"/>
   <circle class="fil1 str1" cx="40784" cy="40659" r="35524"/>
   <g>
    <g>
     <g style="clip-path:url(#id0)">
      <image x="31287" y="10504" width="18321" height="31376" xlink:href="chit_gold_Images\chit_gold_ImgID1.png"/>
     </g>
    </g>
    <path class="fil2" d="M39440 12618c988,2429 1702,5012 2691,7441 550,68 757,-889 714,-2515 1288,1232 1956,3431 2581,5697 3490,6465 2421,11614 -2142,15754 -1868,1021 -3734,963 -5601,205 -4162,-2944 -6086,-8376 -2087,-16011 342,-1449 736,-2895 1593,-4311 264,1149 575,2175 1207,2361 257,-2822 787,-5799 1044,-8621z"/>
    <path class="fil3" d="M31780 14689c928,1910 1491,3331 2768,4000 -1671,3117 -3123,6233 -4794,9350 1278,2605 2338,5210 3617,7815 -1119,1395 -2238,2790 -3357,4186 -2993,-3582 -5617,-8236 -8610,-11817 3415,-4869 6962,-8665 10376,-13534z"/>
    <g>
     <g style="clip-path:url(#id1)">
      <image x="44010" y="13204" width="17087" height="29294" xlink:href="chit_gold_Images\chit_gold_ImgID2.png"/>
     </g>
    </g>
    <path class="fil4" d="M48749 15176c-928,1910 -1491,3330 -2767,4000 1671,3117 3290,6233 4961,9350 -1279,2605 -2506,5210 -3784,7815 1119,1395 2237,2790 3356,4186 2994,-3582 5617,-8235 8611,-11818 -3415,-4868 -6963,-8665 -10377,-13533z"/>
    <path class="fil5" d="M34727 19448c624,-636 1082,-1272 1706,-1907 0,-2280 0,-4559 0,-6838 -4570,-1207 -7099,5185 -1706,8745z"/>
    <path class="fil6" d="M45951 19487c-625,-635 -1082,-1271 -1707,-1907 0,-2279 0,-4559 0,-6838 4571,-1206 7100,5185 1707,8745z"/>
   </g>
   <path class="fil7" d="M22989 46818l0 16518 -4113 0 0 -8868c0,-1281 -32,-2054 -91,-2311 -63,-258 -230,-456 -505,-588 -275,-132 -887,-199 -1837,-199l-408 0 0 -1918c1991,-424 3502,-1305 4532,-2634l2422 0z"/>
   <path id="1" class="fil7" d="M38426 54022l-4302 0 0 -2868c0,-835 -45,-1353 -136,-1562 -90,-206 -292,-310 -602,-310 -348,0 -571,125 -665,376 -94,254 -143,797 -143,1632l0 7664c0,804 49,1326 143,1574 94,243 307,365 634,365 316,0 525,-122 623,-369 97,-244 146,-821 146,-1730l0 -2078 4302 0 0 644c0,1713 -122,2927 -362,3641 -240,717 -777,1344 -1601,1883 -829,539 -1845,807 -3056,807 -1257,0 -2294,-226 -3112,-682 -814,-456 -1357,-1086 -1622,-1893 -264,-808 -397,-2019 -397,-3638l0 -4823c0,-1191 42,-2082 122,-2677 84,-595 324,-1170 731,-1719 404,-550 964,-985 1681,-1302 717,-317 1542,-473 2475,-473 1263,0 2308,243 3132,734 822,487 1361,1096 1622,1827 258,731 387,1866 387,3408l0 1569z"/>
   <path id="2" class="fil7" d="M43953 46818l0 3720c355,-327 738,-574 1149,-737 410,-164 852,-248 1322,-248 721,0 1333,185 1841,550 505,369 815,790 930,1271 111,480 167,1357 167,2628l0 9334 -4114 0 0 -9526c0,-786 -38,-1295 -119,-1518 -80,-226 -254,-337 -529,-337 -254,0 -424,115 -515,348 -87,230 -132,689 -132,1375l0 9658 -4114 0 0 -16518 4114 0z"/>
   <path id="3" class="fil7" d="M55021 46818l0 2151 -4239 0 0 -2151 4239 0zm0 2986l0 13532 -4239 0 0 -13532 4239 0z"/>
   <path id="4" class="fil7" d="M60826 48008l0 2130 1149 0 0 2151 -1149 0 0 7236c0,888 49,1385 143,1487 94,100 484,153 1173,153l0 2171 -1667 0c-940,0 -1612,-38 -2015,-118 -401,-76 -755,-258 -1062,-539 -306,-282 -498,-602 -574,-968 -73,-362 -111,-1215 -111,-2558l0 -6864 -878 0 0 -2151 878 0 0 -2130 4113 0z"/>
   <path class="fil8" d="M22676 46504l0 16519 -4114 0 0 -8869c0,-1280 -31,-2053 -90,-2311 -63,-257 -230,-456 -505,-588 -275,-132 -888,-198 -1838,-198l-407 0 0 -1918c1991,-425 3501,-1305 4532,-2635l2422 0z"/>
   <path id="1" class="fil8" d="M38112 53709l-4302 0 0 -2868c0,-835 -45,-1354 -135,-1563 -91,-205 -293,-310 -602,-310 -349,0 -571,126 -665,376 -94,255 -143,797 -143,1633l0 7664c0,804 49,1326 143,1573 94,244 306,366 633,366 317,0 526,-122 623,-369 98,-244 146,-822 146,-1730l0 -2078 4302 0 0 644c0,1712 -121,2927 -362,3641 -240,717 -776,1343 -1601,1883 -828,539 -1845,807 -3056,807 -1256,0 -2293,-226 -3111,-682 -815,-456 -1358,-1086 -1622,-1894 -265,-807 -397,-2018 -397,-3637l0 -4824c0,-1190 42,-2081 122,-2676 83,-595 324,-1170 731,-1720 404,-550 964,-985 1681,-1301 717,-317 1542,-474 2475,-474 1263,0 2307,244 3132,735 821,487 1361,1096 1622,1827 257,731 386,1865 386,3407l0 1570z"/>
   <path id="2" class="fil8" d="M43640 46504l0 3721c354,-327 737,-574 1148,-738 411,-163 853,-247 1323,-247 720,0 1333,184 1841,550 504,369 814,790 929,1270 111,481 167,1358 167,2628l0 9335 -4114 0 0 -9526c0,-787 -38,-1295 -118,-1518 -80,-226 -254,-337 -529,-337 -254,0 -425,115 -515,348 -87,229 -132,689 -132,1374l0 9659 -4115 0 0 -16519 4115 0z"/>
   <path id="3" class="fil8" d="M54708 46504l0 2151 -4240 0 0 -2151 4240 0zm0 2987l0 13532 -4240 0 0 -13532 4240 0z"/>
   <path id="4" class="fil8" d="M60513 47695l0 2130 1149 0 0 2151 -1149 0 0 7236c0,887 49,1385 143,1486 94,101 484,153 1173,153l0 2172 -1668 0c-939,0 -1611,-38 -2015,-118 -400,-77 -755,-258 -1061,-540 -306,-282 -498,-602 -574,-967 -74,-362 -112,-1215 -112,-2559l0 -6863 -877 0 0 -2151 877 0 0 -2130 4114 0z"/>
  </g>
 </g>
</svg>
