<?xml version="1.0" encoding="UTF-8"?>
<!DOCTYPE svg PUBLIC "-//W3C//DTD SVG 1.1//EN" "http://www.w3.org/Graphics/SVG/1.1/DTD/svg11.dtd">
<!-- Creator: CorelDRAW X8 -->
<svg xmlns="http://www.w3.org/2000/svg" xml:space="preserve" width="260px" height="260px" version="1.1" style="shape-rendering:geometricPrecision; text-rendering:geometricPrecision; image-rendering:optimizeQuality; fill-rule:evenodd; clip-rule:evenodd"
viewBox="0 0 1995841 1995841"
 xmlns:xlink="http://www.w3.org/1999/xlink">
 <defs>
  <style type="text/css">
   <![CDATA[
    .str1 {stroke:#854E13;stroke-width:30687.4}
    .str0 {stroke:#A99018;stroke-width:6906.02}
    .fil4 {fill:#DE9D64}
    .fil2 {fill:#CFA761;fill-rule:nonzero}
    .fil3 {fill:#632510;fill-rule:nonzero}
    .fil1 {fill:url(#id4)}
    .fil0 {fill:url(#id5)}
    .fil8 {fill:url(#id6)}
    .fil5 {fill:url(#id7)}
    .fil6 {fill:url(#id8)}
    .fil7 {fill:url(#id9)}
    .fil9 {fill:url(#id10)}
   ]]>
  </style>
      <clipPath id="id0">
       <path d="M781260 283908l445819 0 0 763478 -445819 0 0 -763478z"/>
      </clipPath>
      <clipPath id="id1">
       <path d="M1090880 349615l415766 0 0 712816 -415766 0 0 -712816z"/>
      </clipPath>
      <clipPath id="id2">
       <path d="M772614 276866l445810 0 0 763478 -445810 0 0 -763478z"/>
      </clipPath>
      <clipPath id="id3">
       <path d="M1082225 342573l415775 0 0 712816 -415775 0 0 -712816z"/>
      </clipPath>
  <linearGradient id="id4" gradientUnits="userSpaceOnUse" x1="999071" y1="1.86616e+06" x2="999071" y2="125840">
   <stop offset="0" style="stop-opacity:1; stop-color:#8E4C1C"/>
   <stop offset="1" style="stop-opacity:1; stop-color:#E2BC9C"/>
  </linearGradient>
  <linearGradient id="id5" gradientUnits="userSpaceOnUse" x1="997920" y1="1.99239e+06" x2="997920" y2="3453.01">
   <stop offset="0" style="stop-opacity:1; stop-color:#8E441C"/>
   <stop offset="1" style="stop-opacity:1; stop-color:#CF9661"/>
  </linearGradient>
  <linearGradient id="id6" gradientUnits="userSpaceOnUse" x1="799621" y1="478047" x2="880445" y2="294512">
   <stop offset="0" style="stop-opacity:1; stop-color:#632510"/>
   <stop offset="1" style="stop-opacity:1; stop-color:#9C4A31"/>
  </linearGradient>
  <linearGradient id="id7" gradientUnits="userSpaceOnUse" xlink:href="#id6" x1="840641" y1="920613" x2="1.15039e+06" y2="396580">
  </linearGradient>
  <linearGradient id="id8" gradientUnits="userSpaceOnUse" xlink:href="#id6" x1="574650" y1="945790" x2="809437" y2="428482">
  </linearGradient>
  <linearGradient id="id9" gradientUnits="userSpaceOnUse" xlink:href="#id6" x1="1.17273e+06" y1="957635" x2="1.40751e+06" y2="440327">
  </linearGradient>
  <linearGradient id="id10" gradientUnits="userSpaceOnUse" xlink:href="#id6" x1="1.10532e+06" y1="478999" x2="1.18615e+06" y2="295473">
  </linearGradient>
 </defs>
 <g id="Layer_x0020_2">
  <metadata id="CorelCorpID_0Corel-Layer"/>
  <circle class="fil0 str0" cx="997920" cy="997920" r="994467"/>
  <circle class="fil1 str1" cx="999071" cy="995999" r="870159"/>
  <path class="fil2" d="M839444 1407379l-104823 0 0 -69885c0,-20356 -1105,-32990 -3308,-38074 -2202,-5012 -7123,-7550 -14673,-7550 -8483,0 -13902,3055 -16195,9154 -2293,6190 -3480,19422 -3480,39778l0 186752c0,19586 1187,32310 3480,38328 2293,5936 7459,8909 15434,8909 7713,0 12806,-2973 15181,-8991 2374,-5936 3561,-20011 3561,-42152l0 -50626 104823 0 0 15688c0,41726 -2963,71326 -8818,88709 -5855,17474 -18914,32736 -39016,45886 -20184,13142 -44944,19667 -74462,19667 -30615,0 -55883,-5510 -75821,-16622 -19848,-11102 -33080,-26455 -39524,-46130 -6444,-19676 -9670,-49194 -9670,-88628l0 -117547c0,-29002 1015,-50717 2972,-65218 2030,-14500 7885,-28494 17809,-41889 9833,-13404 23491,-24008 40956,-31720 17482,-7722 37584,-11538 60314,-11538 30787,0 56227,5937 76329,17900 20011,11872 33162,26708 39515,44517 6281,17818 9416,45460 9416,83036l0 38246z"/>
  <path id="1" class="fil2" d="M974121 1231828l0 90657c8646,-7975 17981,-13993 27987,-17981 10005,-3987 20781,-6018 32228,-6018 17564,0 32491,4496 44871,13396 12298,8990 19848,19249 22648,30959 2710,11700 4069,33071 4069,64030l0 227455 -100255 0 0 -232122c0,-19169 -933,-31549 -2882,-36977 -1948,-5511 -6190,-8230 -12896,-8230 -6190,0 -10341,2801 -12553,8483 -2111,5601 -3217,16794 -3217,33497l0 235349 -100246 0 0 -402498 100246 0z"/>
  <path id="2" class="fil2" d="M1243827 1231828l0 52411 -103300 0 0 -52411 103300 0zm0 72758l0 329740 -103300 0 0 -329740 103300 0z"/>
  <path id="3" class="fil2" d="M1385283 1260830l0 51904 27987 0 0 52411 -27987 0 0 176312c0,21633 1187,33760 3480,36216 2293,2456 11791,3734 28585,3734l0 52919 -40630 0c-22893,0 -39261,-934 -49103,-2882 -9752,-1867 -18398,-6281 -25866,-13151 -7459,-6869 -12126,-14664 -13993,-23573 -1776,-8818 -2710,-29599 -2710,-62335l0 -167240 -21380 0 0 -52411 21380 0 0 -51904 100237 0z"/>
  <path class="fil3" d="M828252 1392624l-104823 0 0 -69885c0,-20355 -1106,-32989 -3308,-38074 -2203,-5011 -7124,-7549 -14673,-7549 -8483,0 -13903,3054 -16196,9154 -2293,6190 -3480,19422 -3480,39777l0 186753c0,19585 1187,32309 3480,38327 2293,5937 7459,8909 15434,8909 7713,0 12806,-2972 15181,-8990 2374,-5937 3562,-20011 3562,-42152l0 -50626 104823 0 0 15688c0,41726 -2964,71326 -8819,88709 -5855,17473 -18914,32735 -39016,45886 -20183,13141 -44944,19666 -74462,19666 -30615,0 -55882,-5510 -75812,-16621 -19848,-11102 -33080,-26455 -39524,-46131 -6444,-19676 -9670,-49194 -9670,-88627l0 -117548c0,-29001 1015,-50716 2973,-65217 2030,-14501 7884,-28494 17808,-41890 9834,-13404 23492,-24007 40956,-31720 17474,-7722 37575,-11537 60305,-11537 30788,0 56227,5936 76329,17899 20011,11873 33162,26709 39515,44518 6281,17818 9417,45460 9417,83035l0 38246z"/>
  <path id="1" class="fil3" d="M962937 1217073l0 90658c8646,-7976 17981,-13994 27987,-17981 10005,-3988 20781,-6018 32228,-6018 17555,0 32482,4495 44862,13395 12298,8991 19848,19250 22648,30959 2710,11701 4070,33071 4070,64031l0 227454 -100247 0 0 -232122c0,-19168 -933,-31548 -2882,-36977 -1948,-5510 -6190,-8229 -12896,-8229 -6190,0 -10341,2800 -12553,8483 -2111,5601 -3217,16794 -3217,33497l0 235348 -100246 0 0 -402498 100246 0z"/>
  <path id="2" class="fil3" d="M1232644 1217073l0 52412 -103310 0 0 -52412 103310 0zm0 72758l0 329740 -103310 0 0 -329740 103310 0z"/>
  <path id="3" class="fil3" d="M1374099 1246075l0 51904 27987 0 0 52411 -27987 0 0 176312c0,21634 1188,33760 3480,36216 2293,2456 11791,3734 28585,3734l0 52919 -40629 0c-22893,0 -39261,-933 -49104,-2882 -9752,-1867 -18398,-6280 -25866,-13150 -7458,-6870 -12126,-14664 -13993,-23573 -1776,-8818 -2710,-29600 -2710,-62336l0 -167240 -21379 0 0 -52411 21379 0 0 -51904 100237 0z"/>
  <g id="_1973905512432">
   <g>
    <g>
     <g style="clip-path:url(#id0)">
      <image x="781260" y="283908" width="445819" height="763478" xlink:href="chit_copper_Images\chit_copper_ImgID1.png"/>
     </g>
    </g>
    <path class="fil4" d="M979658 335341c24054,59100 41427,121961 65481,181061 13386,1677 18434,-21615 17374,-61184 31349,29971 47599,83470 62797,138609 84939,157334 58919,282622 -52112,383357 -45442,24851 -90857,23437 -136299,4994 -101279,-71652 -148072,-203809 -50771,-389601 8320,-35274 17909,-70456 38744,-104887 6435,27942 14012,52901 29392,57433 6244,-68680 19159,-141103 25394,-209782z"/>
    <path class="fil4" d="M793286 385731c22567,46494 36280,81051 67330,97346 -40657,75840 -75994,151670 -116651,227509 31114,63387 56898,126774 88011,190161 -27225,33959 -54450,67918 -81676,101877 -72839,-87159 -136679,-200401 -209518,-287561 83089,-118471 169415,-210851 252504,-329332z"/>
    <g>
     <g style="clip-path:url(#id1)">
      <image x="1090880" y="349615" width="415766" height="712816" xlink:href="chit_copper_Images\chit_copper_ImgID2.png"/>
     </g>
    </g>
    <path class="fil4" d="M1206180 397586c-22576,46484 -36280,81050 -67339,97337 40666,75839 80072,151678 120729,227518 -31114,63377 -60967,126773 -92090,190160 27226,33959 54460,67909 81686,101868 72830,-87159 136679,-200401 209518,-287560 -83089,-118472 -169415,-210851 -252504,-329323z"/>
    <path class="fil4" d="M864966 501539c15208,-15471 26337,-30942 41536,-46412 0,-55457 0,-110922 0,-166388 -111222,-29355 -172760,126184 -41536,212800z"/>
    <path class="fil4" d="M1138098 502490c-15199,-15461 -26337,-30932 -41536,-46402 0,-55466 0,-110932 0,-166388 111231,-29356 172760,126175 41536,212790z"/>
   </g>
   <g>
    <g>
     <g style="clip-path:url(#id2)">
      <image x="772614" y="276866" width="445810" height="763478" xlink:href="chit_copper_Images\chit_copper_ImgID3.png"/>
     </g>
    </g>
    <path class="fil5" d="M971003 328299c24053,59100 41427,121961 65481,181061 13386,1668 18434,-21624 17373,-61184 31349,29971 47599,83470 62807,138600 84930,157334 58910,282622 -52121,383357 -45442,24860 -90857,23446 -136299,4994 -101279,-71643 -148072,-203800 -50771,-389592 8320,-35283 17908,-70456 38744,-104896 6444,27942 14012,52910 29401,57442 6235,-68680 19150,-141102 25385,-209782z"/>
    <path class="fil6" d="M784631 378689c22567,46485 36279,81051 67329,97346 -40656,75840 -75993,151670 -116650,227509 31114,63387 56898,126774 88011,190161 -27225,33959 -54450,67909 -81676,101868 -72839,-87159 -136679,-200401 -209510,-287561 83081,-118471 169406,-210851 252496,-329323z"/>
    <g>
     <g style="clip-path:url(#id3)">
      <image x="1082225" y="342573" width="415775" height="712816" xlink:href="chit_copper_Images\chit_copper_ImgID4.png"/>
     </g>
    </g>
    <path class="fil7" d="M1197524 390535c-22576,46484 -36279,81050 -67329,97346 40657,75839 80063,151669 120729,227509 -31123,63386 -60976,126773 -92090,190160 27217,33959 54451,67918 81676,101877 72840,-87159 136689,-200401 209519,-287560 -83090,-118472 -169415,-210851 -252505,-329332z"/>
    <path class="fil8" d="M856311 494497c15207,-15471 26337,-30942 41535,-46412 0,-55466 0,-110922 0,-166388 -111221,-29355 -172750,126175 -41535,212800z"/>
    <path class="fil9" d="M1129443 495448c-15199,-15470 -26328,-30941 -41536,-46411 0,-55457 0,-110923 0,-166389 111231,-29355 172759,126185 41536,212800z"/>
   </g>
  </g>
 </g>
</svg>
