<?xml version="1.0" encoding="UTF-8"?>
<!DOCTYPE svg PUBLIC "-//W3C//DTD SVG 1.1//EN" "http://www.w3.org/Graphics/SVG/1.1/DTD/svg11.dtd">
<!-- Creator: CorelDRAW X8 -->
<svg xmlns="http://www.w3.org/2000/svg" xml:space="preserve" width="521px" height="104px" version="1.1" style="shape-rendering:geometricPrecision; text-rendering:geometricPrecision; image-rendering:optimizeQuality; fill-rule:evenodd; clip-rule:evenodd"
viewBox="0 0 231497 46332"
 xmlns:xlink="http://www.w3.org/1999/xlink">
 <defs>
  <style type="text/css">
   <![CDATA[
    .str2 {stroke:#854E13;stroke-width:1775.9}
    .str5 {stroke:#999999;stroke-width:1775.9}
    .str1 {stroke:#A99018;stroke-width:1775.9}
    .str9 {stroke:#B10000;stroke-width:1775.9}
    .str10 {stroke:#B10000;stroke-width:925.187}
    .str11 {stroke:red;stroke-width:925.187}
    .str4 {stroke:#999999;stroke-width:399.656}
    .str0 {stroke:#A99018;stroke-width:399.656}
    .str7 {stroke:#DADADA;stroke-width:399.656}
    .str6 {stroke:#EBEBEB;stroke-width:399.656}
    .str8 {stroke:red;stroke-width:399.656}
    .str3 {stroke:#856916;stroke-width:399.656}
    .fil97 {fill:#4D4D4D}
    .fil25 {fill:#652611}
    .fil26 {fill:#682813}
    .fil27 {fill:#6B2A15}
    .fil28 {fill:#6D2B16}
    .fil29 {fill:#6F2D17}
    .fil30 {fill:#702E18}
    .fil31 {fill:#712E18}
    .fil32 {fill:#732F19}
    .fil33 {fill:#74301A}
    .fil34 {fill:#75311A}
    .fil35 {fill:#76311B}
    .fil36 {fill:#76321B}
    .fil37 {fill:#77321B}
    .fil38 {fill:#77321C}
    .fil39 {fill:#78321C}
    .fil40 {fill:#78331C}
    .fil41 {fill:#79331C}
    .fil42 {fill:#79331D}
    .fil43 {fill:#79341D}
    .fil44 {fill:#7A341D}
    .fil45 {fill:#7A341E}
    .fil46 {fill:#7B341E}
    .fil47 {fill:#7B351E}
    .fil48 {fill:#7C351E}
    .fil49 {fill:#7C351F}
    .fil50 {fill:#7C361F}
    .fil51 {fill:#7D361F}
    .fil52 {fill:#7E361F}
    .fil53 {fill:#7E3620}
    .fil54 {fill:#7E3720}
    .fil55 {fill:#7F3720}
    .fil56 {fill:#803821}
    .fil57 {fill:#813821}
    .fil58 {fill:#813921}
    .fil59 {fill:#813922}
    .fil60 {fill:#823922}
    .fil61 {fill:#833922}
    .fil62 {fill:#833A22}
    .fil63 {fill:#833A23}
    .fil64 {fill:#843A23}
    .fil65 {fill:#843B23}
    .fil24 {fill:#845713}
    .fil66 {fill:#853B23}
    .fil67 {fill:#853B24}
    .fil68 {fill:#863B24}
    .fil69 {fill:#863C24}
    .fil70 {fill:#863C25}
    .fil71 {fill:#873C25}
    .fil72 {fill:#873D25}
    .fil23 {fill:#875C14}
    .fil73 {fill:#883D25}
    .fil74 {fill:#883D26}
    .fil75 {fill:#893D26}
    .fil76 {fill:#893E26}
    .fil77 {fill:#8A3E27}
    .fil78 {fill:#8B3F27}
    .fil79 {fill:#8C4028}
    .fil80 {fill:#8E4129}
    .fil81 {fill:#8F4129}
    .fil107 {fill:#900000}
    .fil82 {fill:#90422A}
    .fil83 {fill:#92442B}
    .fil84 {fill:#94452C}
    .fil85 {fill:#97472E}
    .fil86 {fill:#9A4930}
    .fil16 {fill:#9A7D1A}
    .fil87 {fill:#A44E34}
    .fil88 {fill:#A54F34}
    .fil22 {fill:#AA9117}
    .fil9 {fill:#DE9D64}
    .fil108 {fill:red}
    .fil89 {fill:#AD5337}
    .fil92 {fill:#333333;fill-rule:nonzero}
    .fil15 {fill:#7A341D;fill-rule:nonzero}
    .fil106 {fill:#900000;fill-rule:nonzero}
    .fil93 {fill:#CCCCCC;fill-rule:nonzero}
    .fil12 {fill:#CFA761;fill-rule:nonzero}
    .fil14 {fill:#D3955F;fill-rule:nonzero}
    .fil7 {fill:#DED60F;fill-rule:nonzero}
    .fil94 {fill:#E6E6E6;fill-rule:nonzero}
    .fil105 {fill:#FF8A8A;fill-rule:nonzero}
    .fil13 {fill:#632510;fill-rule:nonzero}
    .fil8 {fill:#634E10;fill-rule:nonzero}
    .fil95 {fill:#454545;fill-rule:nonzero}
    .fil96 {fill:#E6E6E6;fill-rule:nonzero}
    .fil6 {fill:url(#id5)}
    .fil1 {fill:url(#id6)}
    .fil99 {fill:url(#id7)}
    .fil90 {fill:url(#id8)}
    .fil104 {fill:url(#id9)}
    .fil0 {fill:url(#id10)}
    .fil91 {fill:url(#id11)}
    .fil100 {fill:url(#id12)}
    .fil103 {fill:url(#id13)}
    .fil102 {fill:url(#id14)}
    .fil98 {fill:url(#id15)}
    .fil11 {fill:url(#id16)}
    .fil17 {fill:url(#id17)}
    .fil2 {fill:url(#id18)}
    .fil4 {fill:url(#id19)}
    .fil5 {fill:url(#id20)}
    .fil10 {fill:url(#id21)}
    .fil3 {fill:url(#id22)}
    .fil101 {fill:url(#id23)}
    .fil20 {fill:url(#id24)}
    .fil18 {fill:url(#id25)}
    .fil19 {fill:url(#id26)}
    .fil21 {fill:url(#id27)}
   ]]>
  </style>
       <clipPath id="id0">
        <path d="M17218 5863l10009 0 0 17142 -10009 0 0 -17142z"/>
       </clipPath>
       <clipPath id="id1">
        <path d="M24169 7339l9335 0 0 16004 -9335 0 0 -16004z"/>
       </clipPath>
       <clipPath id="id2">
        <path d="M141314 13417l7672 0 0 11733 -7672 0 0 -11733z"/>
       </clipPath>
      <clipPath id="id3">
       <path d="M141142 13074l7674 0 0 11734 -7674 0 0 -11734z"/>
      </clipPath>
      <clipPath id="id4">
       <path d="M138707 29856l0 -1780 6741 0 0 1780 -6741 0z"/>
      </clipPath>
  <linearGradient id="id5" gradientUnits="userSpaceOnUse" x1="24687.4" y1="10401.5" x2="26502.6" y2="6281.2">
   <stop offset="0" style="stop-opacity:1; stop-color:#957417"/>
   <stop offset="1" style="stop-opacity:1; stop-color:#FFFF51"/>
  </linearGradient>
  <linearGradient id="id6" gradientUnits="userSpaceOnUse" x1="22406.4" y1="41746.2" x2="22406.4" y2="2929.76">
   <stop offset="0" style="stop-opacity:1; stop-color:#8E6D1C"/>
   <stop offset="1" style="stop-opacity:1; stop-color:#FAFA0A"/>
  </linearGradient>
  <linearGradient id="id7" gradientUnits="userSpaceOnUse" x1="74858.3" y1="29272.9" x2="79673.6" y2="18469.7">
   <stop offset="0" style="stop-opacity:1; stop-color:#B3B3B3"/>
   <stop offset="1" style="stop-opacity:1; stop-color:white"/>
  </linearGradient>
  <linearGradient id="id8" gradientUnits="userSpaceOnUse" xlink:href="#id7" x1="83990.6" y1="46132.4" x2="83990.6" y2="1770.13">
  </linearGradient>
  <linearGradient id="id9" gradientUnits="userSpaceOnUse" x1="209142" y1="41917.2" x2="209142" y2="3100.22">
   <stop offset="0" style="stop-opacity:1; stop-color:red"/>
   <stop offset="1" style="stop-opacity:1; stop-color:#B10000"/>
  </linearGradient>
  <linearGradient id="id10" gradientUnits="userSpaceOnUse" xlink:href="#id6" x1="22381.2" y1="44561.6" x2="22381.2" y2="200.352">
  </linearGradient>
  <linearGradient id="id11" gradientUnits="userSpaceOnUse" x1="84016.3" y1="41717.9" x2="84016.3" y2="2901.44">
   <stop offset="0" style="stop-opacity:1; stop-color:#CCCCCC"/>
   <stop offset="1" style="stop-opacity:1; stop-color:white"/>
  </linearGradient>
  <linearGradient id="id12" gradientUnits="userSpaceOnUse" xlink:href="#id7" x1="87124.4" y1="29520.5" x2="91940.2" y2="18716.7">
  </linearGradient>
  <linearGradient id="id13" gradientUnits="userSpaceOnUse" x1="209116" y1="44732.6" x2="209116" y2="370.809">
   <stop offset="0" style="stop-opacity:1; stop-color:#B10000"/>
   <stop offset="1" style="stop-opacity:1; stop-color:red"/>
  </linearGradient>
  <linearGradient id="id14" gradientUnits="userSpaceOnUse" xlink:href="#id7" x1="85741.9" y1="19524.4" x2="87399.8" y2="15691.5">
  </linearGradient>
  <linearGradient id="id15" gradientUnits="userSpaceOnUse" xlink:href="#id7" x1="80313.5" y1="28746.9" x2="86666.5" y2="17803.6">
  </linearGradient>
  <linearGradient id="id16" gradientUnits="userSpaceOnUse" x1="144473" y1="41845.3" x2="144473" y2="3028.89">
   <stop offset="0" style="stop-opacity:1; stop-color:#8E4C1C"/>
   <stop offset="1" style="stop-opacity:1; stop-color:#CF9661"/>
  </linearGradient>
  <linearGradient id="id17" gradientUnits="userSpaceOnUse" x1="142314" y1="22892.6" x2="147644" y2="14989.2">
   <stop offset="0" style="stop-opacity:1; stop-color:#632510"/>
   <stop offset="1" style="stop-opacity:1; stop-color:#9C4A31"/>
  </linearGradient>
  <linearGradient id="id18" gradientUnits="userSpaceOnUse" xlink:href="#id5" x1="18745" y1="20316.9" x2="25699.1" y2="8551.16">
  </linearGradient>
  <linearGradient id="id19" gradientUnits="userSpaceOnUse" xlink:href="#id5" x1="26201.1" y1="21148.2" x2="31472.1" y2="9533.52">
  </linearGradient>
  <linearGradient id="id20" gradientUnits="userSpaceOnUse" xlink:href="#id5" x1="17824" y1="10380.6" x2="19638.7" y2="6259.7">
  </linearGradient>
  <linearGradient id="id21" gradientUnits="userSpaceOnUse" x1="144473" y1="44660.7" x2="144473" y2="298.431">
   <stop offset="0" style="stop-opacity:1; stop-color:#8E441C"/>
   <stop offset="1" style="stop-opacity:1; stop-color:#CF9661"/>
  </linearGradient>
  <linearGradient id="id22" gradientUnits="userSpaceOnUse" xlink:href="#id5" x1="12772.7" y1="20882.3" x2="18044.3" y2="9267.61">
  </linearGradient>
  <linearGradient id="id23" gradientUnits="userSpaceOnUse" xlink:href="#id7" x1="79472.2" y1="19504.5" x2="81130.1" y2="15671.5">
  </linearGradient>
  <linearGradient id="id24" gradientUnits="userSpaceOnUse" xlink:href="#id17" x1="143066" y1="26246.2" x2="142390" y2="28154.3">
  </linearGradient>
  <linearGradient id="id25" gradientUnits="userSpaceOnUse" xlink:href="#id17" x1="139926" y1="19353.7" x2="138015" y2="18637.4">
  </linearGradient>
  <linearGradient id="id26" gradientUnits="userSpaceOnUse" xlink:href="#id17" x1="140503" y1="26796.9" x2="138240" y2="20258.9">
  </linearGradient>
  <linearGradient id="id27" gradientUnits="userSpaceOnUse" xlink:href="#id17" x1="150579" y1="25555.2" x2="144029" y2="27952.9">
  </linearGradient>
 </defs>
 <g id="card_x0020_content">
  <metadata id="CorelCorpID_0Corel-Layer"/>
  <g id="_1447478613744">
   <g>
    <circle class="fil0 str0" cx="22381" cy="22381" r="22181"/>
    <circle class="fil1 str1" cx="22407" cy="22338" r="19408"/>
    <g>
     <g>
      <g style="clip-path:url(#id0)">
       <image x="17218" y="5863" width="10010" height="17142" xlink:href="chits_Images\chits_ImgID1.png"/>
      </g>
     </g>
     <path class="fil2" d="M21672 7018c540,1327 930,2738 1470,4065 301,38 414,-485 390,-1373 704,673 1069,1874 1410,3112 1907,3532 1323,6345 -1170,8607 -1020,558 -2040,526 -3060,112 -2274,-1609 -3324,-4576 -1140,-8747 187,-792 402,-1582 870,-2356 144,628 314,1188 660,1290 140,-1542 430,-3168 570,-4710z"/>
     <path class="fil3" d="M17487 8149c507,1044 815,1820 1512,2186 -913,1703 -1706,3405 -2619,5108 699,1423 1278,2847 1976,4270 -611,762 -1222,1524 -1834,2287 -1635,-1957 -3068,-4500 -4704,-6456 1866,-2661 3804,-4734 5669,-7395z"/>
     <g>
      <g style="clip-path:url(#id1)">
       <image x="24169" y="7339" width="9335" height="16004" xlink:href="chits_Images\chits_ImgID2.png"/>
      </g>
     </g>
     <path class="fil4" d="M26758 8415c-507,1044 -814,1820 -1512,2186 913,1703 1798,3405 2711,5108 -699,1423 -1369,2847 -2068,4270 612,762 1223,1525 1834,2287 1635,-1957 3069,-4500 4704,-6457 -1865,-2659 -3803,-4734 -5669,-7394z"/>
     <path class="fil5" d="M19097 10749c341,-347 591,-694 932,-1041 0,-1245 0,-2491 0,-3736 -2497,-660 -3878,2832 -932,4777z"/>
     <path class="fil6" d="M25229 10771c-341,-347 -591,-695 -932,-1042 0,-1245 0,-2491 0,-3736 2497,-659 3879,2833 932,4778z"/>
    </g>
    <path class="fil7" d="M12684 25703l0 9025 -2247 0 0 -4845c0,-700 -18,-1122 -50,-1263 -34,-141 -125,-249 -276,-321 -150,-72 -485,-109 -1003,-109l-223 0 0 -1047c1088,-232 1913,-713 2476,-1440l1323 0z"/>
    <path id="1" class="fil7" d="M21117 29640l-2350 0 0 -1568c0,-456 -25,-739 -74,-853 -50,-112 -160,-169 -329,-169 -190,0 -312,68 -363,205 -52,139 -78,436 -78,892l0 4187c0,439 26,724 78,859 51,133 167,200 346,200 173,0 287,-67 340,-202 53,-133 80,-449 80,-945l0 -1135 2350 0 0 352c0,935 -66,1599 -197,1988 -132,392 -425,735 -875,1030 -453,294 -1008,441 -1670,441 -686,0 -1253,-124 -1700,-373 -444,-249 -741,-593 -885,-1035 -145,-441 -218,-1103 -218,-1986l0 -2636c0,-650 23,-1137 67,-1462 46,-325 177,-639 400,-939 220,-301 526,-539 918,-712 391,-173 842,-258 1352,-258 690,0 1260,133 1711,401 449,266 743,599 886,998 141,400 211,1020 211,1862l0 858z"/>
    <path id="2" class="fil7" d="M24136 25703l0 2033c194,-179 403,-314 628,-403 224,-89 466,-135 722,-135 394,0 729,101 1006,300 276,202 445,432 508,695 61,262 91,741 91,1435l0 5100 -2247 0 0 -5205c0,-429 -21,-707 -65,-829 -44,-123 -139,-184 -289,-184 -139,0 -232,63 -281,190 -48,126 -73,377 -73,751l0 5277 -2247 0 0 -9025 2247 0z"/>
    <path id="3" class="fil7" d="M30183 25703l0 1176 -2316 0 0 -1176 2316 0zm0 1632l0 7393 -2316 0 0 -7393 2316 0z"/>
    <path id="4" class="fil7" d="M33354 26354l0 1164 628 0 0 1174 -628 0 0 3953c0,486 27,757 79,812 51,55 264,84 640,84l0 1187 -910 0c-514,0 -881,-21 -1101,-65 -219,-42 -413,-141 -580,-295 -168,-154 -272,-329 -314,-528 -40,-198 -61,-664 -61,-1398l0 -3750 -479 0 0 -1174 479 0 0 -1164 2247 0z"/>
    <path class="fil8" d="M12513 25532l0 9025 -2247 0 0 -4845c0,-700 -18,-1122 -50,-1263 -34,-141 -125,-249 -275,-321 -151,-72 -486,-109 -1004,-109l-223 0 0 -1047c1088,-232 1913,-713 2476,-1440l1323 0z"/>
    <path id="1" class="fil8" d="M20946 29469l-2350 0 0 -1568c0,-456 -25,-739 -74,-853 -50,-112 -160,-169 -329,-169 -190,0 -312,68 -363,205 -52,139 -78,436 -78,892l0 4187c0,439 26,724 78,859 51,133 167,200 346,200 173,0 287,-67 340,-202 53,-133 80,-449 80,-945l0 -1135 2350 0 0 352c0,935 -66,1599 -197,1989 -132,391 -425,734 -875,1029 -453,294 -1008,441 -1670,441 -686,0 -1253,-124 -1700,-373 -444,-249 -741,-593 -885,-1035 -145,-441 -218,-1103 -218,-1986l0 -2636c0,-650 24,-1137 67,-1462 46,-325 177,-639 400,-939 220,-301 526,-539 918,-712 391,-173 842,-258 1352,-258 690,0 1261,133 1711,401 449,266 743,599 886,998 141,400 211,1020 211,1862l0 858z"/>
    <path id="2" class="fil8" d="M23965 25532l0 2033c194,-179 404,-314 628,-403 224,-89 466,-135 722,-135 394,0 729,101 1006,300 276,202 445,432 508,695 61,262 91,741 91,1435l0 5100 -2247 0 0 -5205c0,-429 -21,-707 -65,-829 -44,-123 -139,-184 -289,-184 -139,0 -232,63 -281,190 -48,126 -73,377 -73,751l0 5277 -2247 0 0 -9025 2247 0z"/>
    <path id="3" class="fil8" d="M30012 25532l0 1176 -2316 0 0 -1176 2316 0zm0 1632l0 7393 -2316 0 0 -7393 2316 0z"/>
    <path id="4" class="fil8" d="M33183 26183l0 1164 628 0 0 1174 -628 0 0 3953c0,486 27,757 79,812 51,55 264,84 640,84l0 1187 -910 0c-514,0 -881,-21 -1101,-65 -219,-42 -413,-141 -580,-295 -168,-154 -272,-329 -314,-528 -40,-198 -61,-664 -61,-1398l0 -3750 -479 0 0 -1174 479 0 0 -1164 2247 0z"/>
   </g>
   <g>
    <g>
     <path class="fil9" d="M140023 20767c-83,-143 252,-728 191,-1131 -51,-332 -268,-567 -336,-684 -752,-233 -367,-1211 -1311,-235 -741,1040 -267,2341 1456,2050z"/>
     <path class="fil9" d="M138420 20356c688,243 1006,524 1518,378 138,1376 164,2494 122,3571 908,169 1461,101 2584,101 -10,613 -19,1301 -29,1915 -1581,0 -2544,-2 -4309,-58 0,-1930 -144,-3170 114,-5907z"/>
     <g>
      <g style="clip-path:url(#id2)">
       <image x="141314" y="13417" width="7672" height="11733" xlink:href="chits_Images\chits_ImgID3.png"/>
      </g>
     </g>
     <path class="fil9" d="M144728 14302c414,891 713,1839 1127,2731 231,25 317,-327 299,-923 540,452 819,1259 1081,2090 1462,2373 1014,4263 -897,5782 -782,375 -1564,353 -2346,75 -1742,-1080 -2548,-3074 -873,-5875 143,-533 308,-1063 666,-1583 112,422 242,799 506,867 108,-1036 330,-2129 437,-3164z"/>
     <path class="fil9" d="M139917 20558c-83,-142 253,-727 191,-1131 -50,-332 -267,-567 -335,-684 -753,-233 -367,-1211 -1312,-235 -740,1040 -267,2341 1456,2050z"/>
     <path class="fil9" d="M138314 20147c689,243 1006,524 1519,379 138,1376 164,2494 122,3570 907,169 1460,101 2583,101 -9,614 -19,1302 -28,1915 -1582,0 -2544,-2 -4309,-58 0,-1929 -145,-3169 113,-5907z"/>
     <path class="fil9" d="M144333 26655c-142,84 -738,-242 -1145,-176 -335,53 -570,271 -687,339 -227,747 -1220,376 -223,1300 1058,722 2369,239 2055,-1463z"/>
     <path class="fil9" d="M143936 28245c237,-683 519,-1001 365,-1506 1390,-151 2519,-190 3608,-159 160,-900 86,-1446 74,-2557 620,2 1315,4 1935,7 17,1565 26,2517 -11,4264 -1950,21 -3202,177 -5971,-49z"/>
     <path class="fil9" d="M144124 26762c-143,83 -738,-242 -1145,-177 -335,54 -570,271 -688,340 -227,747 -1219,376 -223,1300 1059,721 2369,238 2056,-1463z"/>
     <path class="fil9" d="M143727 28352c237,-683 518,-1001 365,-1506 1389,-152 2519,-190 3607,-160 161,-900 86,-1446 74,-2557 620,3 1315,5 1935,8 18,1564 26,2517 -11,4264 -1950,20 -3202,176 -5970,-49z"/>
     <polygon class="fil9" points="138878,30198 138878,28419 145620,28419 145620,30198 "/>
    </g>
    <path class="fil10 str0" d="M144473 299c12250,0 22181,9931 22181,22180 0,12251 -9931,22181 -22181,22181 -12250,0 -22180,-9930 -22180,-22181 0,-12249 9930,-22180 22180,-22180z"/>
    <path class="fil11 str2" d="M144473 3028c10719,0 19408,8690 19408,19409 0,10719 -8689,19408 -19408,19408 -10718,0 -19408,-8689 -19408,-19408 0,-10719 8690,-19409 19408,-19409z"/>
    <path class="fil12" d="M142639 34693l-1479 0 0 -992c0,-289 -15,-468 -47,-541 -31,-70 -100,-107 -207,-107 -119,0 -196,43 -228,130 -32,88 -49,276 -49,565l0 2651c0,278 17,458 49,544 32,84 105,126 218,126 109,0 180,-42 214,-127 34,-85 50,-284 50,-599l0 -718 1479 0 0 222c0,593 -42,1013 -124,1260 -83,248 -268,464 -551,651 -285,187 -634,280 -1050,280 -432,0 -789,-79 -1070,-236 -280,-158 -466,-376 -557,-656 -91,-279 -137,-698 -137,-1258l0 -1668c0,-412 15,-720 42,-926 29,-206 112,-404 252,-595 139,-190 331,-341 578,-450 246,-109 529,-164 850,-164 434,0 793,85 1077,255 282,168 467,379 557,632 88,252 133,645 133,1178l0 543zm1899 -2492l0 1287c122,-113 253,-199 395,-255 141,-57 293,-86 454,-86 248,0 458,64 633,191 173,127 280,273 319,439 39,166 58,469 58,909l0 3228 -1414 0 0 -3294c0,-273 -13,-448 -41,-525 -27,-79 -87,-117 -182,-117 -87,0 -145,39 -176,120 -30,80 -46,238 -46,476l0 3340 -1414 0 0 -5713 1414 0zm3804 0l0 744 -1458 0 0 -744 1458 0zm0 1033l0 4680 -1458 0 0 -4680 1458 0zm1995 -621l0 737 394 0 0 743 -394 0 0 2503c0,307 16,479 48,514 33,35 167,53 404,53l0 751 -574 0c-322,0 -553,-13 -692,-41 -137,-26 -259,-88 -364,-186 -106,-97 -172,-208 -198,-335 -25,-125 -38,-420 -38,-885l0 -2374 -301 0 0 -743 301 0 0 -737 1414 0z"/>
    <path class="fil13" d="M142639 34484l-1479 0 0 -993c0,-289 -15,-467 -47,-540 -31,-71 -100,-107 -207,-107 -119,0 -196,43 -228,130 -32,88 -49,276 -49,565l0 2650c0,278 17,459 49,545 32,84 105,126 218,126 109,0 180,-42 214,-128 34,-84 50,-284 50,-598l0 -719 1479 0 0 223c0,592 -42,1012 -124,1259 -83,248 -267,465 -551,652 -285,186 -634,279 -1050,279 -432,0 -789,-78 -1070,-236 -280,-158 -466,-376 -557,-655 -91,-279 -137,-698 -137,-1258l0 -1668c0,-412 15,-721 42,-926 29,-206 112,-405 252,-595 139,-190 331,-341 578,-450 246,-110 529,-164 850,-164 434,0 793,84 1077,254 282,169 467,379 557,632 88,253 133,645 133,1179l0 543zm1899 -2493l0 1287c122,-113 253,-198 395,-254 141,-57 293,-86 454,-86 248,0 458,63 633,190 173,128 280,273 319,439 39,167 58,470 58,909l0 3229 -1414 0 0 -3295c0,-272 -13,-448 -41,-525 -27,-78 -87,-117 -182,-117 -87,0 -145,40 -176,121 -30,79 -46,238 -46,475l0 3341 -1414 0 0 -5714 1414 0zm3804 0l0 745 -1458 0 0 -745 1458 0zm0 1034l0 4680 -1458 0 0 -4680 1458 0zm1995 -622l0 737 394 0 0 744 -394 0 0 2503c0,307 16,479 48,514 33,35 167,53 404,53l0 751 -574 0c-322,0 -553,-13 -692,-41 -137,-27 -259,-89 -364,-187 -106,-97 -172,-208 -198,-334 -25,-126 -38,-420 -38,-885l0 -2374 -301 0 0 -744 301 0 0 -737 1414 0z"/>
    <path class="fil14 str3" d="M135038 7517l1244 0c337,0 595,26 776,76 180,51 317,124 407,219 92,96 153,212 186,347 32,137 48,347 48,632l0 396c0,290 -31,503 -94,635 -62,134 -177,237 -344,307 -167,72 -385,107 -654,107l-332 0 0 1837 -1237 0 0 -4556zm1237 778l0 1160c35,2 65,4 90,4 114,0 191,-27 235,-81 44,-53 65,-164 65,-333l0 -376c0,-155 -24,-257 -76,-304 -49,-47 -155,-70 -314,-70zm2920 46l-42 491c173,-353 423,-539 750,-560l0 1313c-217,0 -377,28 -479,84 -103,57 -164,135 -188,236 -23,100 -36,331 -36,694l0 1474 -1183 0 0 -3732 1178 0zm3651 1311l0 914c0,336 -18,582 -54,739 -34,157 -109,303 -225,439 -115,136 -263,236 -444,301 -181,65 -388,97 -623,97 -262,0 -484,-28 -665,-82 -183,-56 -324,-140 -424,-251 -101,-112 -173,-247 -216,-406 -43,-158 -64,-396 -64,-713l0 -957c0,-347 39,-619 117,-814 78,-195 219,-352 422,-470 203,-118 464,-177 780,-177 266,0 494,38 685,114 190,76 338,175 441,297 104,121 175,247 213,377 38,129 57,326 57,592zm-1183 -282c0,-191 -12,-312 -33,-361 -21,-50 -67,-75 -139,-75 -71,0 -118,25 -142,75 -23,49 -35,170 -35,361l0 1685c0,176 12,292 35,344 24,54 70,81 140,81 70,0 117,-24 140,-73 22,-49 34,-154 34,-315l0 -1722zm2745 -1029l-17 355c92,-141 201,-248 328,-318 126,-71 271,-106 434,-106 316,0 564,141 747,424 99,-141 210,-248 336,-318 125,-71 263,-106 416,-106 200,0 368,47 499,141 132,93 216,208 253,345 37,135 56,356 56,662l0 2653 -1147 0 0 -2433c0,-319 -11,-516 -34,-592 -22,-76 -74,-114 -157,-114 -85,0 -139,38 -163,113 -25,74 -37,272 -37,593l0 2433 -1147 0 0 -2371c0,-366 -9,-585 -28,-658 -18,-73 -70,-110 -154,-110 -53,0 -97,19 -135,58 -38,38 -57,85 -61,141 -4,54 -6,173 -6,352l0 2588 -1148 0 0 -3732 1165 0zm4680 -824l0 594 -1219 0 0 -594 1219 0zm0 824l0 3732 -1219 0 0 -3732 1219 0zm2847 1192l-1045 0 0 -202c0,-173 -10,-282 -31,-328 -20,-46 -72,-69 -154,-69 -66,0 -116,22 -149,63 -33,43 -50,106 -50,190 0,115 8,199 25,252 16,54 66,112 149,176 82,64 252,157 509,279 344,161 568,313 675,456 107,142 161,349 161,621 0,305 -40,534 -123,689 -82,154 -219,274 -411,357 -194,84 -425,125 -697,125 -300,0 -559,-45 -772,-134 -214,-90 -361,-212 -441,-366 -80,-153 -120,-386 -120,-697l0 -179 1051 0 0 235c0,199 13,329 39,390 27,59 79,89 156,89 84,0 142,-20 175,-60 33,-41 50,-126 50,-255 0,-178 -21,-290 -64,-335 -45,-45 -274,-178 -688,-400 -347,-187 -559,-357 -635,-511 -76,-153 -114,-334 -114,-544 0,-299 41,-519 123,-660 82,-142 221,-251 417,-328 196,-77 425,-115 684,-115 258,0 478,32 658,94 181,63 319,146 416,250 96,102 155,198 175,287 21,88 31,226 31,413l0 217zm3092 737l-1538 0 0 810c0,169 13,278 39,327 25,49 75,73 147,73 92,0 153,-33 183,-97 31,-65 46,-191 46,-377l0 -494 1123 0 0 277c0,231 -15,409 -45,532 -31,124 -102,257 -213,398 -111,141 -253,247 -425,318 -171,70 -385,105 -643,105 -251,0 -472,-34 -664,-104 -192,-69 -341,-164 -448,-285 -107,-122 -180,-255 -221,-401 -41,-145 -62,-356 -62,-634l0 -1090c0,-326 46,-583 138,-773 92,-188 242,-333 452,-432 210,-101 450,-151 722,-151 333,0 607,60 824,182 216,120 368,281 455,480 87,199 130,480 130,842l0 494zm-1183 -604l0 -273c0,-194 -11,-318 -33,-375 -22,-56 -67,-84 -136,-84 -83,0 -135,24 -155,72 -21,48 -31,177 -31,387l0 273 355 0z"/>
    <path class="fil15 str3" d="M134615 6940l1244 0c337,0 595,25 776,76 180,51 316,124 408,219 91,96 152,212 185,347 32,137 48,347 48,632l0 396c0,290 -32,502 -94,635 -62,133 -178,236 -343,307 -168,71 -386,107 -656,107l-331 0 0 1837 -1237 0 0 -4556zm1237 778l0 1160c35,2 66,3 90,3 113,0 192,-27 236,-81 43,-53 65,-164 65,-333l0 -375c0,-156 -25,-257 -76,-304 -51,-47 -156,-70 -315,-70zm2920 45l-42 492c173,-353 423,-539 750,-560l0 1313c-217,0 -377,27 -479,84 -102,57 -164,135 -188,235 -23,100 -35,332 -35,694l0 1475 -1184 0 0 -3733 1178 0zm3651 1311l0 915c0,336 -18,581 -53,739 -35,157 -110,302 -225,439 -116,136 -264,236 -445,301 -181,64 -389,97 -623,97 -262,0 -484,-28 -666,-83 -182,-55 -323,-138 -423,-250 -101,-112 -173,-248 -216,-406 -43,-159 -65,-397 -65,-713l0 -958c0,-347 40,-617 118,-814 78,-194 219,-351 422,-469 204,-118 464,-177 780,-177 265,0 494,38 685,113 190,77 337,176 442,297 102,122 174,248 212,377 38,130 57,327 57,592zm-1184 -281c0,-191 -11,-312 -32,-361 -22,-50 -68,-75 -139,-75 -71,0 -118,25 -142,75 -23,49 -35,170 -35,361l0 1685c0,176 12,291 35,344 24,54 70,80 139,80 71,0 117,-23 140,-72 23,-49 34,-154 34,-315l0 -1722zm2747 -1030l-18 356c92,-141 201,-248 328,-318 126,-71 271,-106 433,-106 317,0 565,141 748,424 99,-141 211,-248 336,-318 125,-71 263,-106 416,-106 201,0 368,47 499,141 132,93 216,208 253,344 37,136 56,356 56,663l0 2653 -1147 0 0 -2433c0,-319 -11,-516 -34,-592 -22,-76 -74,-114 -157,-114 -84,0 -138,37 -162,112 -26,75 -38,273 -38,594l0 2433 -1147 0 0 -2371c0,-366 -9,-586 -28,-659 -18,-73 -70,-109 -154,-109 -53,0 -97,19 -135,57 -37,39 -58,86 -61,141 -5,55 -6,173 -6,353l0 2588 -1148 0 0 -3733 1166 0zm4679 -823l0 593 -1219 0 0 -593 1219 0zm0 823l0 3733 -1219 0 0 -3733 1219 0zm2848 1193l-1046 0 0 -202c0,-173 -10,-282 -31,-328 -20,-46 -72,-69 -154,-69 -66,0 -116,21 -149,63 -33,43 -50,106 -50,190 0,114 8,199 25,252 16,54 66,112 149,175 82,65 252,158 510,280 343,161 567,312 674,456 108,142 162,350 162,621 0,304 -42,534 -124,688 -82,155 -219,275 -411,358 -193,84 -425,125 -697,125 -300,0 -558,-45 -772,-134 -214,-91 -361,-213 -441,-366 -80,-154 -121,-386 -121,-697l0 -179 1052 0 0 235c0,199 13,329 39,389 27,60 79,89 156,89 84,0 142,-20 175,-60 33,-40 50,-126 50,-254 0,-179 -21,-290 -64,-335 -45,-46 -274,-179 -687,-401 -348,-187 -560,-357 -636,-510 -76,-153 -114,-334 -114,-544 0,-299 41,-519 123,-660 82,-142 221,-251 417,-328 196,-77 425,-115 684,-115 258,0 478,31 658,94 181,63 319,145 416,249 96,103 155,199 176,287 21,89 31,227 31,414l0 217zm3091 737l-1537 0 0 809c0,169 13,279 37,328 27,49 76,72 149,72 90,0 152,-32 182,-96 31,-66 46,-192 46,-378l0 -493 1123 0 0 277c0,231 -15,408 -45,532 -31,124 -102,256 -213,398 -111,141 -254,247 -425,317 -171,70 -385,106 -643,106 -251,0 -472,-35 -664,-105 -191,-69 -340,-164 -447,-285 -107,-120 -181,-254 -222,-400 -41,-145 -62,-356 -62,-635l0 -1089c0,-327 46,-584 138,-773 93,-188 243,-333 452,-433 210,-100 450,-150 723,-150 332,0 606,60 823,181 216,121 368,281 455,481 87,198 130,480 130,842l0 494zm-1183 -605l0 -272c0,-194 -11,-318 -33,-374 -22,-57 -67,-85 -135,-85 -85,0 -137,24 -157,72 -19,48 -29,177 -29,387l0 272 354 0z"/>
    <path class="fil16" d="M139852 20424c-83,-142 252,-727 191,-1130 -51,-332 -268,-568 -336,-685 -753,-233 -367,-1210 -1312,-234 -740,1039 -266,2340 1457,2049z"/>
    <path class="fil16" d="M138248 20014c689,242 1007,524 1519,378 138,1376 164,2494 122,3571 908,168 1461,100 2583,100 -9,614 -18,1302 -28,1915 -1581,0 -2544,-2 -4309,-58 0,-1929 -144,-3169 113,-5906z"/>
    <g>
     <g style="clip-path:url(#id3)">
      <image x="141142" y="13074" width="7673" height="11734" xlink:href="chits_Images\chits_ImgID4.png"/>
     </g>
    </g>
    <path class="fil17" d="M144557 13960c414,891 713,1839 1127,2730 230,25 317,-326 299,-922 540,452 819,1258 1081,2090 1462,2373 1014,4263 -897,5781 -782,375 -1563,354 -2346,76 -1743,-1080 -2548,-3074 -874,-5876 143,-532 309,-1062 667,-1582 111,422 242,798 506,866 107,-1036 330,-2128 437,-3163z"/>
    <path class="fil18" d="M139746 20216c-83,-142 253,-728 191,-1131 -51,-332 -267,-568 -335,-685 -753,-232 -368,-1210 -1312,-234 -740,1040 -267,2341 1456,2050z"/>
    <path class="fil19" d="M138143 19805c689,243 1006,524 1519,378 138,1376 164,2494 122,3571 907,169 1460,101 2583,101 -10,613 -19,1301 -28,1914 -1582,0 -2544,-1 -4309,-57 0,-1929 -145,-3170 113,-5907z"/>
    <path class="fil16" d="M144162 26313c-143,83 -738,-242 -1145,-177 -335,54 -570,271 -688,339 -227,748 -1219,377 -223,1301 1059,721 2369,238 2056,-1463z"/>
    <path class="fil16" d="M143765 27904c237,-684 519,-1002 365,-1507 1389,-152 2519,-190 3607,-160 161,-900 86,-1446 74,-2557 621,3 1316,5 1936,7 17,1565 25,2518 -11,4264 -1950,21 -3202,178 -5971,-47z"/>
    <path class="fil20" d="M143953 26419c-144,84 -738,-242 -1145,-176 -335,54 -570,271 -688,339 -227,747 -1219,376 -223,1301 1059,721 2369,238 2056,-1464z"/>
    <path class="fil21" d="M143555 28010c238,-684 519,-1001 366,-1507 1389,-151 2518,-189 3607,-159 161,-900 86,-1446 73,-2557 621,2 1316,4 1936,7 17,1565 26,2517 -11,4264 -1950,21 -3202,177 -5971,-48z"/>
    <g>
     <g style="clip-path:url(#id4)">
      <polygon class="fil22" points="138707,29856 138707,29852 145448,29852 145448,29856 "/>
      <polygon id="1" class="fil23" points="138707,29856 138707,29846 145448,29846 145448,29856 "/>
      <polygon id="2" class="fil24" points="138707,29849 138707,29839 145448,29839 145448,29849 "/>
      <polygon id="3" class="fil25" points="138707,29842 138707,29832 145448,29832 145448,29842 "/>
      <polygon id="4" class="fil26" points="138707,29835 138707,29825 145448,29825 145448,29835 "/>
      <polygon id="5" class="fil27" points="138707,29828 138707,29818 145448,29818 145448,29828 "/>
      <polygon id="6" class="fil28" points="138707,29821 138707,29811 145448,29811 145448,29821 "/>
      <polygon id="7" class="fil29" points="138707,29814 138707,29804 145448,29804 145448,29814 "/>
      <polygon id="8" class="fil30" points="138707,29807 138707,29797 145448,29797 145448,29807 "/>
      <polygon id="9" class="fil31" points="138707,29801 138707,29790 145448,29790 145448,29801 "/>
      <polygon id="10" class="fil32" points="138707,29793 138707,29783 145448,29783 145448,29793 "/>
      <polygon id="11" class="fil33" points="138707,29786 138707,29776 145448,29776 145448,29786 "/>
      <polygon id="12" class="fil33" points="138707,29780 138707,29769 145448,29769 145448,29780 "/>
      <polygon id="13" class="fil34" points="138707,29773 138707,29762 145448,29762 145448,29773 "/>
      <polygon id="14" class="fil35" points="138707,29765 138707,29755 145448,29755 145448,29765 "/>
      <polygon id="15" class="fil36" points="138707,29759 138707,29748 145448,29748 145448,29759 "/>
      <polygon id="16" class="fil37" points="138707,29752 138707,29741 145448,29741 145448,29752 "/>
      <polygon id="17" class="fil38" points="138707,29745 138707,29734 145448,29734 145448,29745 "/>
      <polygon id="18" class="fil39" points="138707,29738 138707,29728 145448,29728 145448,29738 "/>
      <polygon id="19" class="fil40" points="138707,29731 138707,29720 145448,29720 145448,29731 "/>
      <polygon id="20" class="fil41" points="138707,29724 138707,29714 145448,29714 145448,29724 "/>
      <polygon id="21" class="fil42" points="138707,29717 138707,29707 145448,29707 145448,29717 "/>
      <polygon id="22" class="fil42" points="138707,29710 138707,29699 145448,29699 145448,29710 "/>
      <polygon id="23" class="fil43" points="138707,29703 138707,29693 145448,29693 145448,29703 "/>
      <polygon id="24" class="fil44" points="138707,29696 138707,29686 145448,29686 145448,29696 "/>
      <polygon id="25" class="fil44" points="138707,29689 138707,29679 145448,29679 145448,29689 "/>
      <polygon id="26" class="fil44" points="138707,29682 138707,29672 145448,29672 145448,29682 "/>
      <polygon id="27" class="fil45" points="138707,29675 138707,29665 145448,29665 145448,29675 "/>
      <polygon id="28" class="fil46" points="138707,29668 138707,29658 145448,29658 145448,29668 "/>
      <polygon id="29" class="fil46" points="138707,29662 138707,29651 145448,29651 145448,29662 "/>
      <polygon id="30" class="fil47" points="138707,29654 138707,29644 145448,29644 145448,29654 "/>
      <polygon id="31" class="fil47" points="138707,29647 138707,29637 145448,29637 145448,29647 "/>
      <polygon id="32" class="fil47" points="138707,29641 138707,29630 145448,29630 145448,29641 "/>
      <polygon id="33" class="fil47" points="138707,29634 138707,29623 145448,29623 145448,29634 "/>
      <polygon id="34" class="fil48" points="138707,29626 138707,29616 145448,29616 145448,29626 "/>
      <polygon id="35" class="fil48" points="138707,29620 138707,29609 145448,29609 145448,29620 "/>
      <polygon id="36" class="fil48" points="138707,29613 138707,29602 145448,29602 145448,29613 "/>
      <polygon id="37" class="fil48" points="138707,29605 138707,29596 145448,29596 145448,29605 "/>
      <polygon id="38" class="fil49" points="138707,29599 138707,29588 145448,29588 145448,29599 "/>
      <polygon id="39" class="fil49" points="138707,29592 138707,29581 145448,29581 145448,29592 "/>
      <polygon id="40" class="fil49" points="138707,29585 138707,29575 145448,29575 145448,29585 "/>
      <polygon id="41" class="fil50" points="138707,29578 138707,29568 145448,29568 145448,29578 "/>
      <polygon id="42" class="fil51" points="138707,29571 138707,29560 145448,29560 145448,29571 "/>
      <polygon id="43" class="fil51" points="138707,29564 138707,29554 145448,29554 145448,29564 "/>
      <polygon id="44" class="fil51" points="138707,29557 138707,29547 145448,29547 145448,29557 "/>
      <polygon id="45" class="fil51" points="138707,29550 138707,29540 145448,29540 145448,29550 "/>
      <polygon id="46" class="fil51" points="138707,29543 138707,29533 145448,29533 145448,29543 "/>
      <polygon id="47" class="fil51" points="138707,29536 138707,29526 145448,29526 145448,29536 "/>
      <polygon id="48" class="fil51" points="138707,29529 138707,29519 145448,29519 145448,29529 "/>
      <polygon id="49" class="fil51" points="138707,29522 138707,29512 145448,29512 145448,29522 "/>
      <polygon id="50" class="fil51" points="138707,29515 138707,29505 145448,29505 145448,29515 "/>
      <polygon id="51" class="fil51" points="138707,29508 138707,29498 145448,29498 145448,29508 "/>
      <polygon id="52" class="fil51" points="138707,29502 138707,29491 145448,29491 145448,29502 "/>
      <polygon id="53" class="fil51" points="138707,29494 138707,29484 145448,29484 145448,29494 "/>
      <polygon id="54" class="fil52" points="138707,29487 138707,29477 145448,29477 145448,29487 "/>
      <polygon id="55" class="fil52" points="138707,29481 138707,29470 145448,29470 145448,29481 "/>
      <polygon id="56" class="fil52" points="138707,29474 138707,29463 145448,29463 145448,29474 "/>
      <polygon id="57" class="fil52" points="138707,29466 138707,29456 145448,29456 145448,29466 "/>
      <polygon id="58" class="fil52" points="138707,29460 138707,29449 145448,29449 145448,29460 "/>
      <polygon id="59" class="fil53" points="138707,29453 138707,29442 145448,29442 145448,29453 "/>
      <polygon id="60" class="fil53" points="138707,29446 138707,29436 145448,29436 145448,29446 "/>
      <polygon id="61" class="fil53" points="138707,29439 138707,29428 145448,29428 145448,29439 "/>
      <polygon id="62" class="fil53" points="138707,29432 138707,29421 145448,29421 145448,29432 "/>
      <polygon id="63" class="fil54" points="138707,29425 138707,29415 145448,29415 145448,29425 "/>
      <polygon id="64" class="fil54" points="138707,29418 138707,29408 145448,29408 145448,29418 "/>
      <polygon id="65" class="fil54" points="138707,29411 138707,29400 145448,29400 145448,29411 "/>
      <polygon id="66" class="fil54" points="138707,29404 138707,29394 145448,29394 145448,29404 "/>
      <polygon id="67" class="fil54" points="138707,29397 138707,29387 145448,29387 145448,29397 "/>
      <polygon id="68" class="fil54" points="138707,29390 138707,29380 145448,29380 145448,29390 "/>
      <polygon id="69" class="fil54" points="138707,29383 138707,29373 145448,29373 145448,29383 "/>
      <polygon id="70" class="fil54" points="138707,29376 138707,29366 145448,29366 145448,29376 "/>
      <polygon id="71" class="fil54" points="138707,29369 138707,29359 145448,29359 145448,29369 "/>
      <polygon id="72" class="fil54" points="138707,29362 138707,29352 145448,29352 145448,29362 "/>
      <polygon id="73" class="fil54" points="138707,29355 138707,29345 145448,29345 145448,29355 "/>
      <polygon id="74" class="fil54" points="138707,29348 138707,29338 145448,29338 145448,29348 "/>
      <polygon id="75" class="fil54" points="138707,29342 138707,29331 145448,29331 145448,29342 "/>
      <polygon id="76" class="fil54" points="138707,29334 138707,29324 145448,29324 145448,29334 "/>
      <polygon id="77" class="fil55" points="138707,29327 138707,29317 145448,29317 145448,29327 "/>
      <polygon id="78" class="fil55" points="138707,29321 138707,29310 145448,29310 145448,29321 "/>
      <polygon id="79" class="fil55" points="138707,29314 138707,29303 145448,29303 145448,29314 "/>
      <polygon id="80" class="fil55" points="138707,29307 138707,29297 145448,29297 145448,29307 "/>
      <polygon id="81" class="fil55" points="138707,29300 138707,29289 145448,29289 145448,29300 "/>
      <polygon id="82" class="fil55" points="138707,29293 138707,29282 145448,29282 145448,29293 "/>
      <polygon id="83" class="fil55" points="138707,29286 138707,29276 145448,29276 145448,29286 "/>
      <polygon id="84" class="fil55" points="138707,29279 138707,29269 145448,29269 145448,29279 "/>
      <polygon id="85" class="fil55" points="138707,29272 138707,29261 145448,29261 145448,29272 "/>
      <polygon id="86" class="fil55" points="138707,29265 138707,29255 145448,29255 145448,29265 "/>
      <polygon id="87" class="fil55" points="138707,29258 138707,29248 145448,29248 145448,29258 "/>
      <polygon id="88" class="fil55" points="138707,29251 138707,29240 145448,29240 145448,29251 "/>
      <polygon id="89" class="fil55" points="138707,29244 138707,29234 145448,29234 145448,29244 "/>
      <polygon id="90" class="fil55" points="138707,29237 138707,29227 145448,29227 145448,29237 "/>
      <polygon id="91" class="fil55" points="138707,29230 138707,29220 145448,29220 145448,29230 "/>
      <polygon id="92" class="fil55" points="138707,29223 138707,29213 145448,29213 145448,29223 "/>
      <polygon id="93" class="fil55" points="138707,29216 138707,29206 145448,29206 145448,29216 "/>
      <polygon id="94" class="fil55" points="138707,29209 138707,29199 145448,29199 145448,29209 "/>
      <polygon id="95" class="fil55" points="138707,29203 138707,29192 145448,29192 145448,29203 "/>
      <polygon id="96" class="fil55" points="138707,29195 138707,29185 145448,29185 145448,29195 "/>
      <polygon id="97" class="fil55" points="138707,29189 138707,29178 145448,29178 145448,29189 "/>
      <polygon id="98" class="fil55" points="138707,29182 138707,29171 145448,29171 145448,29182 "/>
      <polygon id="99" class="fil55" points="138707,29175 138707,29164 145448,29164 145448,29175 "/>
      <polygon id="100" class="fil55" points="138707,29168 138707,29157 145448,29157 145448,29168 "/>
      <polygon id="101" class="fil55" points="138707,29161 138707,29150 145448,29150 145448,29161 "/>
      <polygon id="102" class="fil55" points="138707,29154 138707,29143 145448,29143 145448,29154 "/>
      <polygon id="103" class="fil55" points="138707,29147 138707,29137 145448,29137 145448,29147 "/>
      <polygon id="104" class="fil55" points="138707,29140 138707,29129 145448,29129 145448,29140 "/>
      <polygon id="105" class="fil55" points="138707,29133 138707,29122 145448,29122 145448,29133 "/>
      <polygon id="106" class="fil55" points="138707,29126 138707,29116 145448,29116 145448,29126 "/>
      <polygon id="107" class="fil55" points="138707,29119 138707,29109 145448,29109 145448,29119 "/>
      <polygon id="108" class="fil55" points="138707,29112 138707,29101 145448,29101 145448,29112 "/>
      <polygon id="109" class="fil55" points="138707,29105 138707,29095 145448,29095 145448,29105 "/>
      <polygon id="110" class="fil55" points="138707,29098 138707,29088 145448,29088 145448,29098 "/>
      <polygon id="111" class="fil55" points="138707,29091 138707,29081 145448,29081 145448,29091 "/>
      <polygon id="112" class="fil55" points="138707,29084 138707,29074 145448,29074 145448,29084 "/>
      <polygon id="113" class="fil55" points="138707,29077 138707,29067 145448,29067 145448,29077 "/>
      <polygon id="114" class="fil55" points="138707,29070 138707,29060 145448,29060 145448,29070 "/>
      <polygon id="115" class="fil55" points="138707,29063 138707,29053 145448,29053 145448,29063 "/>
      <polygon id="116" class="fil55" points="138707,29056 138707,29046 145448,29046 145448,29056 "/>
      <polygon id="117" class="fil55" points="138707,29050 138707,29039 145448,29039 145448,29050 "/>
      <polygon id="118" class="fil55" points="138707,29043 138707,29032 145448,29032 145448,29043 "/>
      <polygon id="119" class="fil55" points="138707,29035 138707,29025 145448,29025 145448,29035 "/>
      <polygon id="120" class="fil55" points="138707,29029 138707,29018 145448,29018 145448,29029 "/>
      <polygon id="121" class="fil55" points="138707,29022 138707,29011 145448,29011 145448,29022 "/>
      <polygon id="122" class="fil55" points="138707,29015 138707,29004 145448,29004 145448,29015 "/>
      <polygon id="123" class="fil55" points="138707,29008 138707,28997 145448,28997 145448,29008 "/>
      <polygon id="124" class="fil55" points="138707,29001 138707,28990 145448,28990 145448,29001 "/>
      <polygon id="125" class="fil55" points="138707,28994 138707,28983 145448,28983 145448,28994 "/>
      <polygon id="126" class="fil55" points="138707,28987 138707,28977 145448,28977 145448,28987 "/>
      <polygon id="127" class="fil55" points="138707,28980 138707,28969 145448,28969 145448,28980 "/>
      <polygon id="128" class="fil56" points="138707,28973 138707,28962 145448,28962 145448,28973 "/>
      <polygon id="129" class="fil56" points="138707,28966 138707,28956 145448,28956 145448,28966 "/>
      <polygon id="130" class="fil56" points="138707,28959 138707,28949 145448,28949 145448,28959 "/>
      <polygon id="131" class="fil56" points="138707,28952 138707,28941 145448,28941 145448,28952 "/>
      <polygon id="132" class="fil56" points="138707,28945 138707,28935 145448,28935 145448,28945 "/>
      <polygon id="133" class="fil56" points="138707,28938 138707,28928 145448,28928 145448,28938 "/>
      <polygon id="134" class="fil56" points="138707,28932 138707,28921 145448,28921 145448,28932 "/>
      <polygon id="135" class="fil56" points="138707,28924 138707,28914 145448,28914 145448,28924 "/>
      <polygon id="136" class="fil56" points="138707,28917 138707,28907 145448,28907 145448,28917 "/>
      <polygon id="137" class="fil56" points="138707,28911 138707,28900 145448,28900 145448,28911 "/>
      <polygon id="138" class="fil56" points="138707,28903 138707,28893 145448,28893 145448,28903 "/>
      <polygon id="139" class="fil56" points="138707,28896 138707,28886 145448,28886 145448,28896 "/>
      <polygon id="140" class="fil56" points="138707,28890 138707,28879 145448,28879 145448,28890 "/>
      <polygon id="141" class="fil56" points="138707,28883 138707,28872 145448,28872 145448,28883 "/>
      <polygon id="142" class="fil56" points="138707,28875 138707,28865 145448,28865 145448,28875 "/>
      <polygon id="143" class="fil56" points="138707,28869 138707,28858 145448,28858 145448,28869 "/>
      <polygon id="144" class="fil56" points="138707,28862 138707,28851 145448,28851 145448,28862 "/>
      <polygon id="145" class="fil56" points="138707,28855 138707,28844 145448,28844 145448,28855 "/>
      <polygon id="146" class="fil56" points="138707,28848 138707,28838 145448,28838 145448,28848 "/>
      <polygon id="147" class="fil56" points="138707,28841 138707,28830 145448,28830 145448,28841 "/>
      <polygon id="148" class="fil56" points="138707,28834 138707,28823 145448,28823 145448,28834 "/>
      <polygon id="149" class="fil56" points="138707,28827 138707,28817 145448,28817 145448,28827 "/>
      <polygon id="150" class="fil56" points="138707,28820 138707,28810 145448,28810 145448,28820 "/>
      <polygon id="151" class="fil56" points="138707,28813 138707,28802 145448,28802 145448,28813 "/>
      <polygon id="152" class="fil56" points="138707,28806 138707,28796 145448,28796 145448,28806 "/>
      <polygon id="153" class="fil56" points="138707,28799 138707,28789 145448,28789 145448,28799 "/>
      <polygon id="154" class="fil56" points="138707,28792 138707,28782 145448,28782 145448,28792 "/>
      <polygon id="155" class="fil56" points="138707,28785 138707,28775 145448,28775 145448,28785 "/>
      <polygon id="156" class="fil56" points="138707,28778 138707,28768 145448,28768 145448,28778 "/>
      <polygon id="157" class="fil56" points="138707,28772 138707,28761 145448,28761 145448,28772 "/>
      <polygon id="158" class="fil56" points="138707,28764 138707,28754 145448,28754 145448,28764 "/>
      <polygon id="159" class="fil56" points="138707,28757 138707,28747 145448,28747 145448,28757 "/>
      <polygon id="160" class="fil56" points="138707,28751 138707,28740 145448,28740 145448,28751 "/>
      <polygon id="161" class="fil56" points="138707,28744 138707,28733 145448,28733 145448,28744 "/>
      <polygon id="162" class="fil56" points="138707,28736 138707,28726 145448,28726 145448,28736 "/>
      <polygon id="163" class="fil56" points="138707,28730 138707,28719 145448,28719 145448,28730 "/>
      <polygon id="164" class="fil56" points="138707,28723 138707,28712 145448,28712 145448,28723 "/>
      <polygon id="165" class="fil56" points="138707,28716 138707,28705 145448,28705 145448,28716 "/>
      <polygon id="166" class="fil56" points="138707,28709 138707,28698 145448,28698 145448,28709 "/>
      <polygon id="167" class="fil56" points="138707,28702 138707,28691 145448,28691 145448,28702 "/>
      <polygon id="168" class="fil56" points="138707,28695 138707,28684 145448,28684 145448,28695 "/>
      <polygon id="169" class="fil56" points="138707,28688 138707,28678 145448,28678 145448,28688 "/>
      <polygon id="170" class="fil56" points="138707,28681 138707,28670 145448,28670 145448,28681 "/>
      <polygon id="171" class="fil56" points="138707,28674 138707,28663 145448,28663 145448,28674 "/>
      <polygon id="172" class="fil56" points="138707,28667 138707,28657 145448,28657 145448,28667 "/>
      <polygon id="173" class="fil56" points="138707,28660 138707,28650 145448,28650 145448,28660 "/>
      <polygon id="174" class="fil56" points="138707,28653 138707,28643 145448,28643 145448,28653 "/>
      <polygon id="175" class="fil56" points="138707,28646 138707,28636 145448,28636 145448,28646 "/>
      <polygon id="176" class="fil56" points="138707,28639 138707,28629 145448,28629 145448,28639 "/>
      <polygon id="177" class="fil56" points="138707,28632 138707,28622 145448,28622 145448,28632 "/>
      <polygon id="178" class="fil56" points="138707,28625 138707,28615 145448,28615 145448,28625 "/>
      <polygon id="179" class="fil57" points="138707,28618 138707,28608 145448,28608 145448,28618 "/>
      <polygon id="180" class="fil57" points="138707,28612 138707,28601 145448,28601 145448,28612 "/>
      <polygon id="181" class="fil57" points="138707,28604 138707,28594 145448,28594 145448,28604 "/>
      <polygon id="182" class="fil57" points="138707,28597 138707,28587 145448,28587 145448,28597 "/>
      <polygon id="183" class="fil57" points="138707,28591 138707,28580 145448,28580 145448,28591 "/>
      <polygon id="184" class="fil57" points="138707,28584 138707,28573 145448,28573 145448,28584 "/>
      <polygon id="185" class="fil57" points="138707,28576 138707,28566 145448,28566 145448,28576 "/>
      <polygon id="186" class="fil57" points="138707,28570 138707,28559 145448,28559 145448,28570 "/>
      <polygon id="187" class="fil57" points="138707,28563 138707,28552 145448,28552 145448,28563 "/>
      <polygon id="188" class="fil57" points="138707,28556 138707,28545 145448,28545 145448,28556 "/>
      <polygon id="189" class="fil57" points="138707,28549 138707,28538 145448,28538 145448,28549 "/>
      <polygon id="190" class="fil57" points="138707,28542 138707,28531 145448,28531 145448,28542 "/>
      <polygon id="191" class="fil57" points="138707,28535 138707,28525 145448,28525 145448,28535 "/>
      <polygon id="192" class="fil57" points="138707,28528 138707,28518 145448,28518 145448,28528 "/>
      <polygon id="193" class="fil58" points="138707,28521 138707,28510 145448,28510 145448,28521 "/>
      <polygon id="194" class="fil58" points="138707,28514 138707,28504 145448,28504 145448,28514 "/>
      <polygon id="195" class="fil58" points="138707,28507 138707,28497 145448,28497 145448,28507 "/>
      <polygon id="196" class="fil58" points="138707,28500 138707,28490 145448,28490 145448,28500 "/>
      <polygon id="197" class="fil59" points="138707,28493 138707,28483 145448,28483 145448,28493 "/>
      <polygon id="198" class="fil59" points="138707,28486 138707,28476 145448,28476 145448,28486 "/>
      <polygon id="199" class="fil59" points="138707,28479 138707,28469 145448,28469 145448,28479 "/>
      <polygon id="200" class="fil59" points="138707,28473 138707,28462 145448,28462 145448,28473 "/>
      <polygon id="201" class="fil59" points="138707,28465 138707,28455 145448,28455 145448,28465 "/>
      <polygon id="202" class="fil60" points="138707,28458 138707,28448 145448,28448 145448,28458 "/>
      <polygon id="203" class="fil60" points="138707,28452 138707,28441 145448,28441 145448,28452 "/>
      <polygon id="204" class="fil60" points="138707,28444 138707,28434 145448,28434 145448,28444 "/>
      <polygon id="205" class="fil60" points="138707,28437 138707,28427 145448,28427 145448,28437 "/>
      <polygon id="206" class="fil60" points="138707,28431 138707,28420 145448,28420 145448,28431 "/>
      <polygon id="207" class="fil60" points="138707,28424 138707,28413 145448,28413 145448,28424 "/>
      <polygon id="208" class="fil60" points="138707,28416 138707,28407 145448,28407 145448,28416 "/>
      <polygon id="209" class="fil60" points="138707,28410 138707,28399 145448,28399 145448,28410 "/>
      <polygon id="210" class="fil60" points="138707,28403 138707,28392 145448,28392 145448,28403 "/>
      <polygon id="211" class="fil60" points="138707,28396 138707,28386 145448,28386 145448,28396 "/>
      <polygon id="212" class="fil60" points="138707,28389 138707,28379 145448,28379 145448,28389 "/>
      <polygon id="213" class="fil60" points="138707,28382 138707,28371 145448,28371 145448,28382 "/>
      <polygon id="214" class="fil61" points="138707,28375 138707,28365 145448,28365 145448,28375 "/>
      <polygon id="215" class="fil62" points="138707,28368 138707,28358 145448,28358 145448,28368 "/>
      <polygon id="216" class="fil62" points="138707,28361 138707,28351 145448,28351 145448,28361 "/>
      <polygon id="217" class="fil62" points="138707,28354 138707,28344 145448,28344 145448,28354 "/>
      <polygon id="218" class="fil63" points="138707,28347 138707,28337 145448,28337 145448,28347 "/>
      <polygon id="219" class="fil63" points="138707,28340 138707,28330 145448,28330 145448,28340 "/>
      <polygon id="220" class="fil63" points="138707,28333 138707,28323 145448,28323 145448,28333 "/>
      <polygon id="221" class="fil63" points="138707,28326 138707,28316 145448,28316 145448,28326 "/>
      <polygon id="222" class="fil64" points="138707,28319 138707,28309 145448,28309 145448,28319 "/>
      <polygon id="223" class="fil64" points="138707,28313 138707,28302 145448,28302 145448,28313 "/>
      <polygon id="224" class="fil64" points="138707,28305 138707,28295 145448,28295 145448,28305 "/>
      <polygon id="225" class="fil64" points="138707,28298 138707,28288 145448,28288 145448,28298 "/>
      <polygon id="226" class="fil65" points="138707,28292 138707,28281 145448,28281 145448,28292 "/>
      <polygon id="227" class="fil65" points="138707,28285 138707,28274 145448,28274 145448,28285 "/>
      <polygon id="228" class="fil66" points="138707,28277 138707,28267 145448,28267 145448,28277 "/>
      <polygon id="229" class="fil67" points="138707,28271 138707,28260 145448,28260 145448,28271 "/>
      <polygon id="230" class="fil67" points="138707,28264 138707,28253 145448,28253 145448,28264 "/>
      <polygon id="231" class="fil67" points="138707,28257 138707,28247 145448,28247 145448,28257 "/>
      <polygon id="232" class="fil68" points="138707,28250 138707,28239 145448,28239 145448,28250 "/>
      <polygon id="233" class="fil69" points="138707,28243 138707,28232 145448,28232 145448,28243 "/>
      <polygon id="234" class="fil69" points="138707,28236 138707,28226 145448,28226 145448,28236 "/>
      <polygon id="235" class="fil70" points="138707,28229 138707,28219 145448,28219 145448,28229 "/>
      <polygon id="236" class="fil71" points="138707,28222 138707,28211 145448,28211 145448,28222 "/>
      <polygon id="237" class="fil72" points="138707,28215 138707,28205 145448,28205 145448,28215 "/>
      <polygon id="238" class="fil73" points="138707,28208 138707,28198 145448,28198 145448,28208 "/>
      <polygon id="239" class="fil74" points="138707,28201 138707,28191 145448,28191 145448,28201 "/>
      <polygon id="240" class="fil75" points="138707,28194 138707,28184 145448,28184 145448,28194 "/>
      <polygon id="241" class="fil76" points="138707,28187 138707,28177 145448,28177 145448,28187 "/>
      <polygon id="242" class="fil77" points="138707,28180 138707,28170 145448,28170 145448,28180 "/>
      <polygon id="243" class="fil78" points="138707,28173 138707,28163 145448,28163 145448,28173 "/>
      <polygon id="244" class="fil78" points="138707,28166 138707,28156 145448,28156 145448,28166 "/>
      <polygon id="245" class="fil79" points="138707,28159 138707,28149 145448,28149 145448,28159 "/>
      <polygon id="246" class="fil80" points="138707,28153 138707,28142 145448,28142 145448,28153 "/>
      <polygon id="247" class="fil81" points="138707,28145 138707,28135 145448,28135 145448,28145 "/>
      <polygon id="248" class="fil82" points="138707,28138 138707,28128 145448,28128 145448,28138 "/>
      <polygon id="249" class="fil83" points="138707,28132 138707,28121 145448,28121 145448,28132 "/>
      <polygon id="250" class="fil84" points="138707,28125 138707,28114 145448,28114 145448,28125 "/>
      <polygon id="251" class="fil85" points="138707,28118 138707,28108 145448,28108 145448,28118 "/>
      <polygon id="252" class="fil86" points="138707,28111 138707,28100 145448,28100 145448,28111 "/>
      <polygon id="253" class="fil87" points="138707,28104 138707,28093 145448,28093 145448,28104 "/>
      <polygon id="254" class="fil88" points="138707,28097 138707,28087 145448,28087 145448,28097 "/>
      <polygon id="255" class="fil89" points="138707,28090 138707,28076 145448,28076 145448,28090 "/>
     </g>
    </g>
   </g>
   <path class="fil90 str4" d="M83991 1771c12250,0 22181,9930 22181,22181 0,12249 -9931,22180 -22181,22180 -12251,0 -22181,-9931 -22181,-22180 0,-12251 9930,-22181 22181,-22181z"/>
   <path class="fil91 str5" d="M84016 2901c10719,0 19408,8690 19408,19408 0,10719 -8689,19408 -19408,19408 -10719,0 -19408,-8689 -19408,-19408 0,-10718 8689,-19408 19408,-19408z"/>
   <path class="fil92" d="M81403 35874l-1451 0 0 -968c0,-282 -16,-456 -46,-527 -31,-69 -99,-105 -204,-105 -117,0 -192,43 -224,127 -31,86 -48,269 -48,551l0 2586c0,271 17,448 48,531 32,82 103,123 214,123 107,0 177,-41 210,-125 33,-81 50,-276 50,-583l0 -701 1451 0 0 217c0,578 -41,988 -122,1228 -81,243 -262,454 -541,636 -279,182 -622,272 -1030,272 -424,0 -774,-76 -1050,-230 -275,-154 -458,-366 -548,-639 -89,-272 -134,-681 -134,-1227l0 -1627c0,-402 15,-703 42,-904 28,-200 109,-394 246,-580 136,-185 326,-332 567,-439 243,-107 521,-160 835,-160 427,0 779,83 1057,248 278,165 460,370 548,617 87,246 130,629 130,1149l0 530zm1865 -2431l0 1256c119,-111 249,-194 387,-249 139,-55 288,-84 447,-84 243,0 450,63 621,186 170,124 275,266 313,428 38,162 57,458 57,887l0 3150 -1388 0 0 -3215c0,-265 -13,-437 -40,-512 -27,-76 -86,-113 -178,-113 -86,0 -144,38 -175,117 -29,77 -44,232 -44,464l0 3259 -1388 0 0 -5574 1388 0zm3734 0l0 726 -1430 0 0 -726 1430 0zm0 1008l0 4566 -1430 0 0 -4566 1430 0zm1959 -606l0 718 388 0 0 726 -388 0 0 2442c0,299 17,467 48,501 32,34 164,52 396,52l0 733 -562 0c-317,0 -544,-13 -680,-41 -135,-25 -255,-86 -358,-182 -104,-95 -168,-203 -194,-326 -25,-122 -38,-409 -38,-863l0 -2316 -296 0 0 -726 296 0 0 -718 1388 0z"/>
   <path class="fil93 str4" d="M81020 35121l-1451 0 0 -968c0,-281 -15,-457 -46,-527 -30,-69 -99,-104 -203,-104 -117,0 -193,42 -224,126 -32,86 -49,269 -49,551l0 2586c0,271 17,447 49,531 31,82 103,123 213,123 107,0 177,-41 210,-124 33,-83 50,-278 50,-584l0 -701 1451 0 0 218c0,577 -41,987 -122,1228 -81,242 -261,453 -540,635 -279,182 -622,273 -1031,273 -424,0 -774,-77 -1050,-231 -275,-154 -458,-366 -547,-639 -89,-272 -134,-681 -134,-1227l0 -1628c0,-401 14,-702 41,-903 28,-200 109,-394 247,-580 136,-185 325,-332 567,-439 242,-107 520,-160 835,-160 426,0 778,83 1057,248 277,164 459,370 547,617 87,247 130,629 130,1149l0 530zm1866 -2431l0 1256c119,-111 248,-194 387,-250 139,-55 288,-83 446,-83 243,0 450,62 621,186 170,124 275,266 314,428 37,162 56,458 56,887l0 3150 -1388 0 0 -3214c0,-266 -13,-437 -40,-513 -27,-76 -85,-114 -178,-114 -86,0 -143,39 -174,118 -29,77 -44,233 -44,464l0 3259 -1389 0 0 -5574 1389 0zm3734 0l0 726 -1430 0 0 -726 1430 0zm0 1007l0 4567 -1430 0 0 -4567 1430 0zm1959 -605l0 718 387 0 0 726 -387 0 0 2442c0,299 16,467 48,501 32,34 163,52 396,52l0 733 -563 0c-317,0 -544,-13 -680,-40 -135,-26 -255,-87 -358,-182 -104,-96 -168,-203 -194,-327 -24,-122 -37,-410 -37,-863l0 -2316 -296 0 0 -726 296 0 0 -718 1388 0z"/>
   <path class="fil94 str6" d="M81312 8856l-767 2332 839 2832 -1384 0 -545 -2213 0 2213 -1345 0 0 -5164 1345 0 0 2007 604 -2007 1253 0zm3206 934l0 4230 -1308 0 22 -352c-89,144 -199,251 -329,323 -131,72 -281,108 -451,108 -192,0 -353,-34 -481,-103 -127,-67 -220,-158 -281,-270 -60,-114 -98,-230 -114,-353 -14,-122 -22,-364 -22,-729l0 -2854 1286 0 0 2879c0,330 10,524 31,586 20,63 75,93 165,93 94,0 152,-31 169,-96 19,-63 27,-268 27,-615l0 -2847 1286 0zm3398 -934l0 5164 -1286 0 0 -307c-124,129 -253,225 -389,289 -137,64 -280,97 -429,97 -200,0 -374,-52 -521,-158 -147,-106 -241,-227 -283,-365 -41,-139 -62,-364 -62,-677l0 -1981c0,-326 21,-556 62,-693 42,-136 137,-255 286,-358 149,-104 328,-155 534,-155 160,0 306,29 440,87 133,58 253,144 362,260l0 -1203 1286 0zm-1286 1998c0,-154 -13,-259 -40,-312 -27,-53 -80,-79 -160,-79 -78,0 -131,24 -157,71 -28,48 -41,155 -41,320l0 2073c0,172 13,285 39,339 26,55 76,82 150,82 83,0 140,-30 167,-91 28,-60 42,-208 42,-444l0 -1959zm4658 421l0 1037c0,381 -20,660 -57,838 -39,177 -121,343 -245,497 -126,155 -286,268 -483,342 -198,73 -423,110 -677,110 -285,0 -527,-32 -724,-94 -197,-63 -351,-158 -460,-284 -110,-127 -188,-281 -235,-460 -47,-179 -69,-449 -69,-808l0 -1085c0,-394 42,-701 126,-923 85,-221 239,-398 460,-532 221,-133 503,-201 847,-201 289,0 537,43 745,129 206,86 366,199 480,337 111,138 189,280 230,427 41,147 62,370 62,670zm-1286 -319c0,-216 -12,-353 -35,-409 -23,-56 -74,-84 -151,-84 -77,0 -128,28 -155,84 -24,56 -37,193 -37,409l0 1910c0,200 13,331 37,391 27,61 77,91 152,91 77,0 127,-27 152,-83 25,-55 37,-174 37,-356l0 -1953z"/>
   <path class="fil95 str6" d="M81141 8514l-767 2332 838 2832 -1383 0 -545 -2213 0 2213 -1345 0 0 -5164 1345 0 0 2007 604 -2007 1253 0zm3206 934l0 4230 -1309 0 23 -352c-89,143 -199,251 -330,323 -130,71 -280,108 -450,108 -193,0 -354,-34 -481,-103 -127,-67 -221,-157 -282,-271 -60,-113 -98,-230 -113,-352 -14,-122 -22,-365 -22,-729l0 -2854 1286 0 0 2879c0,329 10,524 31,586 19,62 75,93 164,93 95,0 153,-32 170,-96 18,-63 27,-269 27,-615l0 -2847 1286 0zm3398 -934l0 5164 -1286 0 0 -308c-124,130 -253,225 -389,290 -138,64 -280,97 -429,97 -200,0 -374,-53 -521,-158 -147,-106 -242,-228 -283,-366 -41,-138 -62,-363 -62,-677l0 -1981c0,-326 21,-556 62,-692 41,-136 137,-256 286,-359 149,-103 327,-155 534,-155 160,0 306,30 440,87 133,58 253,144 362,261l0 -1203 1286 0zm-1286 1998c0,-155 -13,-259 -40,-312 -27,-54 -81,-80 -160,-80 -78,0 -131,24 -158,72 -27,48 -40,154 -40,320l0 2072c0,172 13,286 39,340 26,54 75,82 149,82 84,0 141,-31 167,-92 29,-59 43,-207 43,-443l0 -1959zm4658 421l0 1037c0,381 -20,659 -58,837 -38,178 -119,343 -245,498 -125,154 -286,268 -483,342 -197,72 -422,110 -676,110 -286,0 -527,-32 -724,-94 -198,-64 -351,-158 -460,-284 -110,-127 -189,-281 -235,-460 -47,-180 -70,-450 -70,-809l0 -1084c0,-395 43,-701 127,-923 85,-221 239,-398 460,-532 220,-134 503,-202 847,-202 288,0 537,44 744,130 207,86 367,198 480,336 112,139 189,281 231,428 41,146 62,370 62,670zm-1286 -319c0,-217 -12,-354 -35,-409 -24,-56 -74,-85 -151,-85 -78,0 -128,29 -155,85 -25,55 -38,192 -38,409l0 1910c0,200 13,331 38,390 27,61 76,92 151,92 78,0 128,-28 153,-83 25,-56 37,-174 37,-357l0 -1952z"/>
   <path class="fil96 str7" d="M80627 8000l-767 2332 839 2833 -1384 0 -545 -2214 0 2214 -1345 0 0 -5165 1345 0 0 2007 604 -2007 1253 0zm3206 934l0 4231 -1308 0 22 -353c-89,144 -199,251 -329,323 -131,72 -281,108 -451,108 -192,0 -353,-34 -481,-103 -127,-67 -220,-157 -281,-271 -60,-113 -98,-229 -114,-352 -14,-122 -22,-365 -22,-729l0 -2854 1287 0 0 2879c0,330 9,524 30,586 20,63 75,93 165,93 94,0 152,-31 169,-96 19,-63 27,-268 27,-615l0 -2847 1286 0zm3398 -934l0 5165 -1286 0 0 -308c-123,129 -253,225 -389,289 -137,64 -280,97 -429,97 -200,0 -374,-53 -521,-158 -147,-106 -241,-227 -283,-366 -41,-138 -62,-363 -62,-676l0 -1981c0,-326 21,-557 62,-693 42,-135 137,-255 287,-359 148,-103 327,-154 533,-154 160,0 306,29 440,87 133,58 254,144 362,260l0 -1203 1286 0zm-1286 1998c0,-155 -13,-259 -40,-312 -27,-53 -80,-80 -160,-80 -78,0 -131,25 -157,72 -28,49 -41,155 -41,320l0 2073c0,172 13,285 39,339 26,55 76,82 150,82 83,0 140,-30 167,-91 28,-60 42,-208 42,-444l0 -1959zm4658 421l0 1037c0,381 -19,660 -57,838 -39,177 -120,343 -245,497 -125,155 -286,268 -483,342 -197,73 -423,110 -677,110 -285,0 -527,-32 -724,-94 -197,-63 -351,-158 -460,-284 -110,-127 -188,-281 -235,-460 -46,-180 -69,-449 -69,-809l0 -1084c0,-394 42,-701 127,-923 84,-221 238,-398 459,-532 221,-133 504,-201 848,-201 288,0 536,43 744,129 206,86 366,198 480,337 111,138 189,280 230,427 41,147 62,370 62,670zm-1286 -319c0,-216 -12,-353 -35,-409 -23,-56 -74,-85 -151,-85 -77,0 -128,29 -154,85 -25,56 -38,193 -38,409l0 1910c0,200 13,331 38,391 26,61 76,91 151,91 77,0 127,-27 152,-83 25,-55 37,-174 37,-356l0 -1953z"/>
   <path class="fil97" d="M83501 16891c493,1234 850,2547 1343,3781 275,35 378,-452 356,-1278 643,626 977,1744 1288,2895 1743,3286 1209,5902 -1068,8006 -932,519 -1864,490 -2796,105 -2077,-1497 -3037,-4257 -1041,-8137 170,-737 367,-1471 794,-2191 132,584 288,1106 603,1200 128,-1434 393,-2947 521,-4381z"/>
   <path class="fil97" d="M79678 17943c463,971 745,1693 1381,2033 -834,1584 -1558,3168 -2392,4752 638,1323 1167,2647 1805,3971 -558,709 -1117,1418 -1675,2127 -1494,-1820 -2803,-4185 -4297,-6005 1704,-2474 3474,-4403 5178,-6878z"/>
   <path class="fil97" d="M88147 18191c-463,970 -744,1692 -1381,2033 834,1583 1642,3167 2476,4751 -638,1324 -1251,2647 -1888,3971 558,709 1116,1418 1675,2127 1494,-1819 2803,-4184 4297,-6005 -1704,-2474 -3475,-4403 -5179,-6877z"/>
   <path class="fil97" d="M81149 20361c312,-322 540,-645 852,-968 0,-1159 0,-2317 0,-3475 -2282,-614 -3544,2635 -852,4443z"/>
   <path class="fil97" d="M86750 20382c-311,-323 -539,-646 -851,-969 0,-1159 0,-2317 0,-3476 2281,-613 3543,2635 851,4445z"/>
   <path class="fil98" d="M82987 16377c494,1235 850,2547 1344,3781 274,36 378,-451 356,-1277 643,626 976,1743 1288,2894 1742,3286 1208,5902 -1069,8006 -932,519 -1864,490 -2796,105 -2077,-1497 -3036,-4257 -1041,-8137 171,-737 367,-1471 795,-2190 132,583 287,1105 602,1199 128,-1434 393,-2947 521,-4381z"/>
   <path class="fil99" d="M79165 17430c463,970 744,1692 1381,2032 -834,1584 -1559,3168 -2393,4752 638,1324 1167,2647 1805,3971 -558,709 -1116,1418 -1675,2127 -1494,-1819 -2803,-4184 -4297,-6005 1704,-2474 3475,-4403 5179,-6877z"/>
   <path class="fil100" d="M87633 17677c-462,971 -744,1693 -1381,2033 834,1584 1642,3167 2476,4751 -637,1324 -1250,2648 -1888,3972 558,709 1117,1418 1675,2127 1494,-1820 2804,-4185 4297,-6005 -1704,-2474 -3474,-4404 -5179,-6878z"/>
   <path class="fil101" d="M80635 19848c312,-323 540,-646 852,-969 0,-1158 0,-2317 0,-3475 -2281,-613 -3543,2635 -852,4444z"/>
   <path class="fil102" d="M86237 19868c-312,-323 -540,-646 -852,-969 0,-1158 0,-2317 0,-3475 2281,-613 3544,2635 852,4444z"/>
   <g id="_1447478612592">
    <circle class="fil103 str8" cx="209116" cy="22552" r="22181"/>
    <circle class="fil104 str9" cx="209142" cy="22509" r="19408"/>
    <g>
     <path class="fil105" d="M198424 25453l1145 7696 -2045 0 -108 -1381 -722 0 -108 1381 -2071 0 1015 -7696 2894 0zm-1062 4953c-95,-873 -196,-1953 -303,-3242 -198,1479 -322,2559 -376,3242l679 0z"/>
     <path id="1" class="fil105" d="M206052 26845l-760 6304 -2087 0c-107,-770 -240,-1787 -397,-3050 -60,556 -136,1116 -231,1678l-204 1372 -2077 0 -811 -6304 1643 0c19,165 160,1370 424,3616 28,-233 169,-1440 427,-3616l1591 0 395 3616c64,-1057 210,-2264 438,-3616l1649 0z"/>
     <path id="2" class="fil105" d="M212813 28810l-2004 0 0 -1336c0,-389 -22,-631 -64,-729 -41,-95 -136,-144 -280,-144 -162,0 -266,58 -310,175 -44,119 -66,372 -66,761l0 3571c0,375 22,617 66,733 44,113 143,170 295,170 148,0 245,-57 291,-172 45,-114 68,-383 68,-806l0 -968 2004 0 0 300c0,798 -57,1364 -168,1696 -113,334 -362,626 -747,878 -386,251 -859,376 -1423,376 -586,0 -1069,-106 -1450,-318 -380,-213 -632,-506 -756,-882 -123,-376 -185,-941 -185,-1695l0 -2247c0,-555 20,-970 57,-1247 39,-278 151,-545 341,-802 188,-255 449,-458 783,-606 334,-148 718,-221 1153,-221 589,0 1075,114 1459,343 383,227 634,511 756,851 120,340 180,869 180,1588l0 731z"/>
     <path id="3" class="fil105" d="M215388 25453l0 1734c165,-153 344,-268 535,-344 192,-76 397,-115 616,-115 336,0 621,86 858,256 235,172 379,368 433,592 52,224 78,632 78,1224l0 4349 -1917 0 0 -4438c0,-366 -17,-603 -55,-707 -37,-105 -118,-157 -246,-157 -119,0 -198,53 -240,162 -41,107 -62,321 -62,640l0 4500 -1917 0 0 -7696 1917 0z"/>
     <path id="4" class="fil105" d="M220544 25453l0 1002 -1975 0 0 -1002 1975 0zm0 1392l0 6304 -1975 0 0 -6304 1975 0z"/>
     <path id="5" class="fil105" d="M223249 26008l0 992 536 0 0 1003 -536 0 0 3370c0,414 23,646 67,693 44,47 225,72 546,72l0 1011 -776 0c-438,0 -751,-17 -939,-55 -187,-35 -352,-120 -495,-251 -143,-132 -232,-281 -267,-451 -34,-168 -52,-566 -52,-1192l0 -3197 -409 0 0 -1003 409 0 0 -992 1916 0z"/>
     <path class="fil106" d="M198278 25161l1145 7696 -2045 0 -109 -1381 -721 0 -109 1381 -2070 0 1015 -7696 2894 0zm-1062 4953c-96,-873 -196,-1953 -303,-3242 -198,1479 -323,2559 -377,3242l680 0z"/>
     <path id="1" class="fil106" d="M205906 26552l-760 6305 -2087 0c-107,-770 -241,-1787 -397,-3050 -61,556 -137,1115 -231,1678l-204 1372 -2078 0 -810 -6305 1642 0c20,166 161,1371 425,3617 28,-234 169,-1440 427,-3617l1591 0 395 3617c64,-1058 209,-2264 438,-3617l1649 0z"/>
     <path id="2" class="fil106" d="M212667 28518l-2004 0 0 -1336c0,-389 -22,-631 -64,-729 -42,-95 -136,-144 -280,-144 -163,0 -266,58 -310,175 -44,119 -66,372 -66,761l0 3570c0,375 22,618 66,734 44,113 143,170 295,170 148,0 245,-57 290,-172 46,-114 69,-383 69,-806l0 -968 2004 0 0 300c0,798 -57,1364 -169,1696 -112,334 -362,626 -746,877 -386,252 -859,376 -1423,376 -586,0 -1069,-105 -1450,-317 -380,-213 -633,-506 -756,-883 -123,-376 -185,-940 -185,-1694l0 -2248c0,-554 19,-969 57,-1246 39,-278 151,-545 340,-802 188,-256 449,-459 784,-606 334,-148 718,-221 1152,-221 589,0 1076,114 1460,343 383,227 634,511 756,851 120,340 180,869 180,1588l0 731z"/>
     <path id="3" class="fil106" d="M215242 25161l0 1733c165,-152 343,-267 535,-343 191,-76 397,-116 616,-116 336,0 621,87 858,257 235,172 379,368 433,592 52,224 78,632 78,1224l0 4349 -1917 0 0 -4438c0,-367 -18,-604 -55,-707 -37,-105 -119,-157 -247,-157 -118,0 -197,53 -240,162 -40,107 -61,321 -61,640l0 4500 -1917 0 0 -7696 1917 0z"/>
     <path id="4" class="fil106" d="M220399 25161l0 1002 -1976 0 0 -1002 1976 0zm0 1391l0 6305 -1976 0 0 -6305 1976 0z"/>
     <path id="5" class="fil106" d="M223103 25716l0 992 536 0 0 1003 -536 0 0 3370c0,414 23,646 67,693 44,47 225,72 546,72l0 1011 -776 0c-438,0 -751,-18 -939,-55 -187,-35 -352,-120 -495,-251 -142,-132 -232,-281 -267,-451 -34,-168 -52,-566 -52,-1192l0 -3197 -409 0 0 -1003 409 0 0 -992 1916 0z"/>
    </g>
    <path class="fil107 str10" d="M195788 13088c0,0 -333,786 92,1866 425,1078 1389,3289 3110,4379 1721,1090 3798,1734 5355,1485 1558,-249 1903,-251 2624,-955 721,-703 691,-682 715,-1196 23,-513 -758,-665 -758,-665l-346 -2c0,0 -3582,-1112 -4631,-1767 -1048,-655 -6161,-3145 -6161,-3145z"/>
    <g>
     <path class="fil107 str10" d="M223534 13338c3,-1 -2762,760 -4266,1410 -1503,651 -3614,1459 -4208,1600 -593,141 -2403,637 -3837,794 -1435,158 -2186,326 -2186,326l-895 1987c0,0 695,380 1718,596 1021,216 2100,623 3905,407 1805,-216 3877,-625 5044,-1482 1168,-857 1420,-772 2388,-1967 968,-1194 869,-1096 1338,-2027 468,-931 999,-1644 999,-1644z"/>
     <path class="fil108 str11" d="M212762 17483l3914 -1179c0,0 -258,2061 -2067,2182 -1808,123 -1847,-1003 -1847,-1003z"/>
    </g>
    <path class="fil108 str11" d="M201312 16267l3181 1478c0,0 -117,715 -819,834 -701,118 -1233,174 -1871,-613 -398,-576 -491,-1699 -491,-1699z"/>
   </g>
  </g>
 </g>
</svg>
