<?xml version="1.0" encoding="UTF-8"?>
<!DOCTYPE svg PUBLIC "-//W3C//DTD SVG 1.1//EN" "http://www.w3.org/Graphics/SVG/1.1/DTD/svg11.dtd">
<!-- Creator: CorelDRAW X8 -->
<svg xmlns="http://www.w3.org/2000/svg" xml:space="preserve" width="144px" height="144px" version="1.1" style="shape-rendering:geometricPrecision; text-rendering:geometricPrecision; image-rendering:optimizeQuality; fill-rule:evenodd; clip-rule:evenodd"
viewBox="0 0 27185 27185"
 xmlns:xlink="http://www.w3.org/1999/xlink">
 <defs>
  <style type="text/css">
   <![CDATA[
    .str1 {stroke:#999999;stroke-width:241.118}
    .str0 {stroke:#999999;stroke-width:54.2623}
    .fil7 {fill:#333333;fill-rule:nonzero}
    .fil8 {fill:#CCCCCC;fill-rule:nonzero}
    .fil1 {fill:url(#id2)}
    .fil0 {fill:url(#id3)}
    .fil6 {fill:url(#id4)}
    .fil5 {fill:url(#id5)}
    .fil2 {fill:url(#id6)}
    .fil4 {fill:url(#id7)}
    .fil3 {fill:url(#id8)}
   ]]>
  </style>
     <clipPath id="id0">
      <path d="M10435 3491l6122 0 0 10483 -6122 0 0 -10483z"/>
     </clipPath>
     <clipPath id="id1">
      <path d="M14686 4393l5710 0 0 9788 -5710 0 0 -9788z"/>
     </clipPath>
  <linearGradient id="id2" gradientUnits="userSpaceOnUse" x1="13608.4" y1="25436.3" x2="13608.4" y2="1696.59">
   <stop offset="0" style="stop-opacity:1; stop-color:#CCCCCC"/>
   <stop offset="1" style="stop-opacity:1; stop-color:white"/>
  </linearGradient>
  <linearGradient id="id3" gradientUnits="userSpaceOnUse" x1="13592.7" y1="27158.3" x2="13592.7" y2="27.1311">
   <stop offset="0" style="stop-opacity:1; stop-color:#B3B3B3"/>
   <stop offset="1" style="stop-opacity:1; stop-color:white"/>
  </linearGradient>
  <linearGradient id="id4" gradientUnits="userSpaceOnUse" xlink:href="#id3" x1="15003.5" y1="6266.37" x2="16113.4" y2="3746.16">
  </linearGradient>
  <linearGradient id="id5" gradientUnits="userSpaceOnUse" xlink:href="#id3" x1="10805.7" y1="6253.19" x2="11915.7" y2="3733.06">
  </linearGradient>
  <linearGradient id="id6" gradientUnits="userSpaceOnUse" xlink:href="#id3" x1="11369" y1="12330.5" x2="15622.4" y2="5134.55">
  </linearGradient>
  <linearGradient id="id7" gradientUnits="userSpaceOnUse" xlink:href="#id3" x1="15929" y1="12838.8" x2="19153.1" y2="5735.28">
  </linearGradient>
  <linearGradient id="id8" gradientUnits="userSpaceOnUse" xlink:href="#id3" x1="7716.57" y1="12676.1" x2="10940.6" y2="5572.64">
  </linearGradient>
 </defs>
 <g id="Chit">
  <metadata id="CorelCorpID_0Corel-Layer"/>
  <circle class="fil0 str0" cx="13593" cy="13593" r="13566"/>
  <circle class="fil1 str1" cx="13608" cy="13566" r="11870"/>
  <g id="_2995646834448">
   <g>
    <g style="clip-path:url(#id0)">
     <image x="10435" y="3491" width="6122" height="10484" xlink:href="chit_silver_Images\chit_silver_ImgID1.png"/>
    </g>
   </g>
   <path class="fil2" d="M13159 4197c330,812 569,1675 899,2486 184,23 253,-297 239,-840 430,412 653,1146 862,1903 1167,2161 809,3881 -715,5264 -624,342 -1248,322 -1872,69 -1391,-984 -2033,-2799 -697,-5350 114,-484 246,-967 532,-1440 88,384 192,726 404,789 85,-944 263,-1938 348,-2881z"/>
   <path class="fil3" d="M10600 4889c310,638 498,1113 925,1337 -559,1041 -1044,2082 -1602,3124 427,870 781,1741 1208,2611 -374,466 -747,932 -1121,1399 -1000,-1197 -1877,-2752 -2877,-3949 1141,-1627 2326,-2895 3467,-4522z"/>
   <g>
    <g style="clip-path:url(#id1)">
     <image x="14686" y="4393" width="5709" height="9788" xlink:href="chit_silver_Images\chit_silver_ImgID2.png"/>
    </g>
   </g>
   <path class="fil4" d="M16270 5052c-310,638 -498,1113 -925,1336 558,1042 1100,2083 1658,3124 -427,871 -837,1741 -1265,2612 374,466 748,932 1122,1398 1000,-1196 1877,-2751 2877,-3948 -1141,-1627 -2326,-2896 -3467,-4522z"/>
   <path class="fil5" d="M11584 6479c209,-212 362,-425 571,-637 0,-762 0,-1523 0,-2285 -1528,-403 -2373,1733 -571,2922z"/>
   <path class="fil6" d="M15335 6492c-209,-212 -362,-425 -571,-637 0,-762 0,-1523 0,-2285 1528,-403 2373,1733 571,2922z"/>
  </g>
  <path class="fil7" d="M7662 15624l0 5520 -1374 0 0 -2963c0,-428 -11,-687 -30,-773 -21,-86 -77,-152 -169,-196 -92,-44 -297,-66 -614,-66l-136 0 0 -641c665,-142 1170,-436 1514,-881l809 0z"/>
  <path id="1" class="fil7" d="M12820 18032l-1437 0 0 -959c0,-279 -15,-452 -45,-522 -31,-68 -98,-103 -202,-103 -116,0 -190,42 -222,125 -31,85 -47,267 -47,546l0 2561c0,268 16,443 47,525 32,82 103,123 212,123 106,0 176,-41 208,-124 33,-81 49,-274 49,-578l0 -694 1437 0 0 215c0,572 -40,978 -121,1217 -80,239 -259,449 -534,629 -277,180 -617,270 -1022,270 -420,0 -766,-76 -1039,-228 -272,-153 -454,-363 -542,-633 -89,-270 -133,-675 -133,-1215l0 -1612c0,-398 14,-696 41,-895 28,-199 108,-390 244,-574 135,-184 322,-329 562,-435 239,-106 515,-158 827,-158 422,0 771,81 1046,245 275,163 455,366 542,611 86,244 129,623 129,1138l0 525z"/>
  <path id="2" class="fil7" d="M14667 15624l0 1244c119,-110 247,-192 384,-247 137,-55 285,-83 442,-83 241,0 445,62 615,184 169,124 272,264 311,425 37,160 56,453 56,878l0 3119 -1375 0 0 -3183c0,-263 -13,-433 -40,-507 -26,-76 -85,-113 -176,-113 -85,0 -142,38 -173,116 -29,77 -44,231 -44,460l0 3227 -1374 0 0 -5520 1374 0z"/>
  <path id="3" class="fil7" d="M18366 15624l0 719 -1417 0 0 -719 1417 0zm0 998l0 4522 -1417 0 0 -4522 1417 0z"/>
  <path id="4" class="fil7" d="M20306 16022l0 712 383 0 0 719 -383 0 0 2417c0,297 16,463 47,497 32,34 162,51 392,51l0 726 -557 0c-314,0 -538,-13 -673,-40 -134,-25 -253,-86 -355,-180 -102,-94 -166,-201 -192,-323 -24,-121 -37,-406 -37,-855l0 -2293 -293 0 0 -719 293 0 0 -712 1375 0z"/>
  <path class="fil8" d="M7558 15520l0 5519 -1375 0 0 -2963c0,-428 -10,-686 -30,-772 -21,-86 -77,-153 -169,-197 -92,-44 -296,-66 -614,-66l-136 0 0 -641c665,-142 1170,-436 1514,-880l810 0z"/>
  <path id="1" class="fil8" d="M12716 17927l-1438 0 0 -958c0,-279 -15,-453 -45,-522 -30,-69 -98,-104 -201,-104 -117,0 -191,42 -222,126 -32,84 -48,266 -48,545l0 2561c0,269 16,443 48,526 31,81 102,122 211,122 106,0 176,-41 208,-123 33,-82 49,-275 49,-578l0 -695 1438 0 0 215c0,573 -41,978 -121,1217 -80,239 -260,449 -535,629 -277,180 -617,270 -1021,270 -420,0 -767,-76 -1040,-228 -272,-152 -454,-363 -542,-633 -88,-270 -133,-674 -133,-1215l0 -1612c0,-398 14,-695 41,-894 28,-199 108,-391 244,-575 135,-184 322,-329 562,-435 240,-106 515,-158 827,-158 422,0 771,81 1047,245 274,163 454,367 542,611 86,244 129,623 129,1139l0 524z"/>
  <path id="2" class="fil8" d="M14563 15520l0 1243c118,-109 246,-192 383,-247 138,-54 285,-82 442,-82 241,0 446,61 616,184 168,123 272,263 310,424 37,160 56,454 56,878l0 3119 -1375 0 0 -3183c0,-263 -13,-433 -39,-507 -27,-76 -85,-113 -177,-113 -85,0 -142,39 -172,117 -29,76 -44,230 -44,459l0 3227 -1375 0 0 -5519 1375 0z"/>
  <path id="3" class="fil8" d="M18261 15520l0 718 -1417 0 0 -718 1417 0zm0 997l0 4522 -1417 0 0 -4522 1417 0z"/>
  <path id="4" class="fil8" d="M20201 15917l0 712 384 0 0 719 -384 0 0 2418c0,296 16,463 48,496 31,34 161,52 392,52l0 725 -558 0c-314,0 -538,-13 -673,-39 -134,-26 -252,-86 -355,-181 -102,-94 -166,-201 -192,-323 -24,-121 -37,-406 -37,-855l0 -2293 -293 0 0 -719 293 0 0 -712 1375 0z"/>
 </g>
</svg>
