<?xml version="1.0" encoding="UTF-8"?>
<!DOCTYPE svg PUBLIC "-//W3C//DTD SVG 1.1//EN" "http://www.w3.org/Graphics/SVG/1.1/DTD/svg11.dtd">
<!-- Creator: CorelDRAW X8 -->
<svg xmlns="http://www.w3.org/2000/svg" xml:space="preserve" width="488px" height="118px" version="1.1" style="shape-rendering:geometricPrecision; text-rendering:geometricPrecision; image-rendering:optimizeQuality; fill-rule:evenodd; clip-rule:evenodd"
viewBox="0 0 126207 30411"
 xmlns:xlink="http://www.w3.org/1999/xlink">
 <defs>
  <style type="text/css">
   <![CDATA[
    .str0 {stroke:#FADAC1;stroke-width:517.533}
    .fil1 {fill:none}
    .fil2 {fill:#FADAC1}
    .fil0 {fill:white;fill-rule:nonzero}
   ]]>
  </style>
    <clipPath id="id0">
     <path d="M9274 4842l11971 0 0 20499 -11971 0 0 -20499z"/>
    </clipPath>
    <clipPath id="id1">
     <path d="M17588 6088l11163 0 0 19139 -11163 0 0 -19139z"/>
    </clipPath>
 </defs>
 <g id="card_x0020_content">
  <metadata id="CorelCorpID_0Corel-Layer"/>
  <path class="fil0" d="M53520 22301c-1215,564 -2732,846 -4546,846 -2344,0 -4218,-660 -5625,-1985 -1411,-1324 -2116,-3060 -2116,-5210 0,-2307 795,-4174 2379,-5598 1583,-1427 3594,-2139 6028,-2139 1560,0 2853,199 3880,595l0 1805c-1180,-577 -2481,-866 -3904,-866 -1889,0 -3421,553 -4597,1661 -1176,1107 -1764,2589 -1764,4443 0,1761 549,3164 1646,4205 1102,1046 2540,1569 4327,1569 1650,0 3084,-323 4292,-967l0 1641z"/>
  <path id="1" class="fil0" d="M66383 22906l-1885 0 0 -5946c0,-2149 -910,-3222 -2732,-3222 -917,0 -1693,309 -2320,932 -627,622 -941,1420 -941,2393l0 5843 -1885 0 0 -15272 1885 0 0 6668 47 0c902,-1303 2187,-1953 3857,-1953 2649,0 3974,1399 3974,4198l0 6359z"/>
  <path id="2" class="fil0" d="M70894 9969c-333,0 -623,-100 -858,-303 -239,-199 -357,-454 -357,-763 0,-310 118,-568 357,-771 235,-206 525,-309 858,-309 345,0 639,103 882,309 239,203 361,461 361,771 0,296 -122,546 -361,753 -243,210 -537,313 -882,313zm921 12937l-1885 0 0 -10317 1885 0 0 10317z"/>
  <polygon id="3" class="fil0" points="85615,9989 80861,9989 80861,22906 78932,22906 78932,9989 74190,9989 74190,8459 85615,8459 "/>
  <path id="4" class="fil0" d="M106951 21919c-1650,819 -3488,1228 -5510,1228 -2348,0 -4248,-664 -5699,-1995 -1454,-1327 -2179,-3088 -2179,-5279 0,-2235 807,-4071 2418,-5505 1611,-1434 3653,-2153 6126,-2153 1791,0 3296,258 4511,767l0 1874c-1328,-740 -2908,-1107 -4730,-1107 -1842,0 -3355,557 -4535,1671 -1180,1114 -1768,2559 -1768,4333 0,1826 549,3264 1643,4305 1093,1046 2578,1569 4456,1569 1285,0 2398,-227 3339,-674l0 -4051 -3606 0 0 -1531 5534 0 0 6548z"/>
  <path id="5" class="fil0" d="M111486 9969c-333,0 -623,-100 -858,-303 -239,-199 -357,-454 -357,-763 0,-310 118,-568 357,-771 235,-206 525,-309 858,-309 345,0 639,103 882,309 239,203 361,461 361,771 0,296 -122,546 -361,753 -243,210 -537,313 -882,313zm921 12937l-1885 0 0 -10317 1885 0 0 10317z"/>
  <polygon id="6" class="fil0" points="126207,9989 121453,9989 121453,22906 119524,22906 119524,9989 114782,9989 114782,8459 126207,8459 "/>
  <circle class="fil1 str0" cx="15205" cy="15206" r="14947"/>
  <circle class="fil1" cx="15037" cy="15128" r="13078"/>
  <g id="_2777732732960">
   <g style="clip-path:url(#id0)">
    <image x="9274" y="4842" width="11970" height="20499" xlink:href="19324-logo_orange-4ab6911e-e510-4bf2-a72c-7cf65fd04125_Images\19324-logo_orange-4ab6911e-e510-4bf2-a72c-7cf65fd04125_ImgID1.png"/>
   </g>
  </g>
  <path class="fil2" d="M14601 6223c646,1586 1112,3274 1758,4861 360,45 495,-581 466,-1643 842,805 1279,2242 1687,3722 2280,4224 1582,7588 -1399,10293 -1220,667 -2440,629 -3660,134 -2719,-1924 -3976,-5472 -1363,-10461 223,-947 481,-1892 1040,-2816 173,750 376,1421 789,1542 168,-1844 514,-3788 682,-5632z"/>
  <path class="fil2" d="M9597 7576c606,1248 974,2176 1808,2613 -1092,2036 -2041,4073 -3132,6109 835,1702 1527,3404 2363,5105 -731,912 -1462,1824 -2193,2736 -1956,-2340 -3670,-5381 -5625,-7721 2230,-3181 4548,-5661 6779,-8842z"/>
  <g id="_2777858135680">
   <g style="clip-path:url(#id1)">
    <image x="17588" y="6088" width="11163" height="19139" xlink:href="19324-logo_orange-4ab6911e-e510-4bf2-a72c-7cf65fd04125_Images\19324-logo_orange-4ab6911e-e510-4bf2-a72c-7cf65fd04125_ImgID2.png"/>
   </g>
  </g>
  <path class="fil2" d="M20683 7376c-606,1248 -974,2176 -1808,2614 1092,2036 2150,4072 3242,6108 -836,1702 -1637,3404 -2473,5106 731,912 1462,1823 2193,2735 1956,-2340 3670,-5381 5626,-7721 -2231,-3181 -4549,-5661 -6780,-8842z"/>
  <path class="fil2" d="M11522 10685c408,-415 707,-831 1115,-1246 0,-1489 0,-2979 0,-4468 -2987,-788 -4639,3388 -1115,5714z"/>
  <path class="fil2" d="M18855 10710c-408,-415 -707,-830 -1115,-1246 0,-1489 0,-2978 0,-4467 2986,-788 4638,3388 1115,5713z"/>
 </g>
</svg>
