<?xml version="1.0" encoding="UTF-8"?>
<!DOCTYPE svg PUBLIC "-//W3C//DTD SVG 1.1//EN" "http://www.w3.org/Graphics/SVG/1.1/DTD/svg11.dtd">
<!-- Creator: CorelDRAW X8 -->
<svg xmlns="http://www.w3.org/2000/svg" xml:space="preserve" width="286px" height="384px" version="1.1" style="shape-rendering:geometricPrecision; text-rendering:geometricPrecision; image-rendering:optimizeQuality; fill-rule:evenodd; clip-rule:evenodd"
viewBox="0 0 199550 267824"
 xmlns:xlink="http://www.w3.org/1999/xlink">
 <defs>
  <style type="text/css">
   <![CDATA[
    .str1 {stroke:#FADAC1;stroke-width:1393.5}
    .str0 {stroke:#373435;stroke-width:1451.94}
    .str2 {stroke:#ED3237;stroke-width:2089.84}
    .fil5 {fill:none}
    .fil0 {fill:#4B4B4D}
    .fil6 {fill:#FADAC1}
    .fil11 {fill:#4B6599}
    .fil1 {fill:#FAD3B6}
    .fil7 {fill:white}
    .fil3 {fill:#2F2F30}
    .fil9 {fill:#781F1C}
    .fil2 {fill:#4B6599;fill-rule:nonzero}
    .fil10 {fill:white;fill-rule:nonzero}
    .fil4 {fill:white;fill-rule:nonzero}
    .fil8 {fill:#781F1C;fill-rule:nonzero}
   ]]>
  </style>
    <clipPath id="id0">
     <path d="M11370 8961l10062 0 0 17232 -10062 0 0 -17232z"/>
    </clipPath>
    <clipPath id="id1">
     <path d="M18358 10444l9384 0 0 16088 -9384 0 0 -16088z"/>
    </clipPath>
 </defs>
 <g id="NextSlide">
  <metadata id="CorelCorpID_0Corel-Layer"/>
  <rect class="fil0 str0" x="726" y="726" width="198098" height="266372"/>
  <rect class="fil1" x="683" y="36968" width="198141" height="227788"/>
  <rect class="fil0" x="683" y="726" width="197794" height="33912"/>
  <path class="fil2" d="M41515 71395c-444,214 -1027,322 -1744,322 -935,0 -1671,-275 -2206,-824 -538,-551 -805,-1284 -805,-2200 0,-976 301,-1767 903,-2374 603,-606 1386,-910 2346,-910 595,0 1098,76 1506,226l0 1323c-408,-243 -873,-366 -1396,-366 -572,0 -1034,180 -1386,541 -351,359 -526,847 -526,1463 0,589 165,1059 498,1409 330,350 777,526 1340,526 535,0 1026,-131 1470,-392l0 1256z"/>
  <path id="1" class="fil2" d="M46628 71611l-1340 0 0 -2475c0,-639 -232,-957 -698,-957 -238,0 -432,89 -578,267 -148,179 -222,407 -222,681l0 2484 -1343 0 0 -6447 1343 0 0 2737 18 0c329,-500 774,-751 1340,-751 987,0 1480,595 1480,1785l0 2676z"/>
  <path id="2" class="fil2" d="M48370 66566c-226,0 -412,-66 -555,-201 -146,-136 -219,-300 -219,-496 0,-201 73,-365 219,-494 143,-127 329,-191 555,-191 231,0 417,64 561,191 142,129 214,293 214,494 0,203 -72,372 -214,502 -144,130 -330,195 -561,195zm664 5045l-1343 0 0 -4356 1343 0 0 4356z"/>
  <path id="3" class="fil2" d="M52798 71560c-199,105 -498,157 -897,157 -946,0 -1421,-492 -1421,-1475l0 -1995 -706 0 0 -992 706 0 0 -939 1340 -383 0 1322 978 0 0 992 -978 0 0 1762c0,452 180,679 540,679 142,0 289,-41 438,-124l0 996z"/>
  <path id="4" class="fil2" d="M61097 71203c-595,343 -1336,514 -2222,514 -979,0 -1753,-271 -2319,-815 -565,-542 -848,-1290 -848,-2243 0,-958 309,-1739 928,-2343 616,-605 1440,-907 2467,-907 646,0 1216,90 1708,268l0 1289c-471,-272 -1045,-407 -1727,-407 -570,0 -1033,184 -1391,555 -361,369 -539,863 -539,1482 0,626 161,1110 482,1455 322,342 756,513 1304,513 329,0 591,-46 782,-139l0 -1192 -1220 0 0 -1098 2595 0 0 3068z"/>
  <path id="5" class="fil2" d="M62832 66566c-226,0 -412,-66 -556,-201 -145,-136 -218,-300 -218,-496 0,-201 73,-365 218,-494 144,-127 330,-191 556,-191 231,0 417,64 560,191 143,129 215,293 215,494 0,203 -72,372 -215,502 -143,130 -329,195 -560,195zm663 5045l-1342 0 0 -4356 1342 0 0 4356z"/>
  <path id="6" class="fil2" d="M67260 71560c-199,105 -498,157 -897,157 -947,0 -1421,-492 -1421,-1475l0 -1995 -706 0 0 -992 706 0 0 -939 1340 -383 0 1322 978 0 0 992 -978 0 0 1762c0,452 180,679 540,679 142,0 288,-41 438,-124l0 996z"/>
  <polygon id="7" class="fil2" points="74184,71611 70552,71611 70552,65512 71926,65512 71926,70496 74184,70496 "/>
  <path id="8" class="fil2" d="M78786 69817l-2840 0c44,631 443,948 1194,948 479,0 900,-114 1263,-340l0 970c-402,214 -925,322 -1569,322 -703,0 -1249,-195 -1638,-585 -387,-389 -582,-933 -582,-1630 0,-723 209,-1297 630,-1719 419,-423 935,-633 1548,-633 634,0 1127,188 1473,565 347,377 521,889 521,1535l0 567zm-1245 -827c0,-622 -253,-935 -758,-935 -215,0 -402,89 -559,268 -158,178 -253,402 -288,667l1605 0z"/>
  <path id="9" class="fil2" d="M82218 71560c-199,105 -498,157 -897,157 -946,0 -1421,-492 -1421,-1475l0 -1995 -706 0 0 -992 706 0 0 -939 1340 -383 0 1322 978 0 0 992 -978 0 0 1762c0,452 180,679 540,679 142,0 289,-41 438,-124l0 996z"/>
  <path id="10" class="fil2" d="M82690 71497l0 -1089c222,133 443,232 663,297 219,66 426,98 622,98 239,0 427,-32 564,-98 137,-65 205,-164 205,-297 0,-86 -30,-157 -93,-214 -61,-56 -141,-106 -240,-148 -98,-42 -205,-81 -321,-115 -116,-34 -228,-72 -336,-114 -173,-65 -325,-137 -457,-211 -132,-76 -242,-162 -332,-263 -89,-98 -157,-213 -203,-344 -47,-130 -72,-284 -72,-463 0,-244 54,-454 160,-630 106,-176 248,-319 425,-431 177,-112 381,-195 609,-247 227,-53 465,-78 712,-78 194,0 388,14 587,44 199,30 395,74 588,130l0 1038c-171,-100 -352,-174 -547,-224 -195,-49 -385,-74 -573,-74 -88,0 -171,8 -247,23 -79,15 -148,38 -208,69 -60,29 -106,66 -140,114 -34,47 -51,101 -51,160 0,79 25,147 76,203 53,57 118,106 201,147 82,42 174,79 274,111 100,33 200,66 300,99 179,63 340,131 485,205 144,74 269,160 372,260 103,99 183,215 238,349 55,133 83,292 83,476 0,259 -55,479 -168,662 -112,183 -261,331 -447,445 -185,115 -400,199 -642,252 -243,52 -494,78 -755,78 -479,0 -922,-74 -1332,-220z"/>
  <path id="11" class="fil2" d="M93358 67255l-1769 4704c-426,1131 -1066,1698 -1922,1698 -326,0 -594,-37 -805,-111l0 -1071c181,104 373,157 584,157 346,0 586,-163 723,-489l229 -541 -1769 -4347 1489 0 812 2650c50,164 91,359 119,584l17 0c26,-166 73,-357 141,-575l820 -2659 1331 0z"/>
  <path id="12" class="fil2" d="M95888 71717c-726,0 -1296,-203 -1711,-610 -416,-406 -623,-959 -623,-1657 0,-719 215,-1284 646,-1690 432,-407 1015,-610 1748,-610 723,0 1291,203 1702,610 411,406 617,945 617,1614 0,723 -212,1295 -636,1714 -424,420 -1005,629 -1743,629zm36 -3538c-319,0 -565,109 -741,327 -175,219 -264,528 -264,927 0,836 338,1255 1013,1255 644,0 965,-430 965,-1288 0,-815 -325,-1221 -973,-1221z"/>
  <path id="13" class="fil2" d="M103277 71611l-1340 0 0 -663 -20 0c-333,512 -776,769 -1331,769 -1011,0 -1515,-611 -1515,-1834l0 -2628 1340 0 0 2509c0,616 244,924 732,924 241,0 433,-84 578,-253 145,-168 216,-398 216,-687l0 -2493 1340 0 0 4356z"/>
  <path id="14" class="fil2" d="M109445 71560c-199,105 -498,157 -897,157 -947,0 -1422,-492 -1422,-1475l0 -1995 -705 0 0 -992 705 0 0 -939 1340 -383 0 1322 979 0 0 992 -979 0 0 1762c0,452 180,679 540,679 142,0 289,-41 439,-124l0 996z"/>
  <path id="15" class="fil2" d="M113826 71611l-1272 0 0 -625 -17 0c-291,487 -724,731 -1298,731 -422,0 -755,-119 -997,-359 -242,-239 -363,-560 -363,-959 0,-845 501,-1333 1501,-1464l1184 -156c0,-477 -259,-715 -776,-715 -518,0 -1011,154 -1479,464l0 -1013c187,-97 443,-181 768,-255 323,-74 620,-110 886,-110 1243,0 1863,620 1863,1858l0 2603zm-1262 -1770l0 -293 -791 102c-438,56 -656,254 -656,592 0,153 53,279 158,376 108,98 252,147 433,147 253,0 458,-87 618,-262 158,-173 238,-395 238,-662z"/>
  <polygon id="16" class="fil2" points="119254,71611 117641,71611 116251,69450 116233,69450 116233,71611 114890,71611 114890,65164 116233,65164 116233,69268 116251,69268 117548,67255 119143,67255 117582,69302 "/>
  <path id="17" class="fil2" d="M123550 69817l-2840 0c44,631 443,948 1194,948 479,0 900,-114 1263,-340l0 970c-402,214 -925,322 -1569,322 -703,0 -1249,-195 -1638,-585 -387,-389 -582,-933 -582,-1630 0,-723 209,-1297 630,-1719 419,-423 935,-633 1548,-633 634,0 1127,188 1473,565 348,377 521,889 521,1535l0 567zm-1245 -827c0,-622 -253,-935 -758,-935 -215,0 -402,89 -559,268 -158,178 -253,402 -287,667l1604 0z"/>
  <path id="18" class="fil2" d="M130053 71455c-304,175 -742,262 -1314,262 -669,0 -1211,-201 -1625,-608 -414,-405 -621,-928 -621,-1570 0,-740 222,-1322 665,-1749 444,-427 1038,-640 1781,-640 513,0 884,68 1114,203l0 1141c-280,-211 -594,-315 -939,-315 -387,0 -692,112 -918,338 -225,226 -339,536 -339,933 0,386 109,689 325,908 215,221 512,330 888,330 335,0 662,-105 983,-316l0 1083z"/>
  <path id="19" class="fil2" d="M133008 71717c-726,0 -1296,-203 -1711,-610 -415,-406 -623,-959 -623,-1657 0,-719 215,-1284 646,-1690 432,-407 1015,-610 1749,-610 722,0 1290,203 1701,610 411,406 617,945 617,1614 0,723 -212,1295 -636,1714 -424,420 -1005,629 -1743,629zm36 -3538c-319,0 -565,109 -741,327 -175,219 -264,528 -264,927 0,836 338,1255 1013,1255 644,0 966,-430 966,-1288 0,-815 -326,-1221 -974,-1221z"/>
  <path id="20" class="fil2" d="M140466 71611l-1340 0 0 -2420c0,-675 -241,-1012 -724,-1012 -232,0 -424,89 -573,267 -151,179 -227,407 -227,681l0 2484 -1342 0 0 -4356 1342 0 0 690 18 0c320,-531 787,-795 1400,-795 963,0 1446,597 1446,1794l0 2667z"/>
  <path id="21" class="fil2" d="M144162 71560c-199,105 -498,157 -897,157 -947,0 -1421,-492 -1421,-1475l0 -1995 -706 0 0 -992 706 0 0 -939 1340 -383 0 1322 978 0 0 992 -978 0 0 1762c0,452 180,679 540,679 142,0 288,-41 438,-124l0 996z"/>
  <path id="22" class="fil2" d="M147762 68468c-163,-88 -352,-132 -567,-132 -292,0 -520,107 -685,321 -164,215 -247,505 -247,873l0 2081 -1343 0 0 -4356 1343 0 0 809 18 0c213,-591 595,-885 1148,-885 142,0 253,17 333,51l0 1238z"/>
  <path id="23" class="fil2" d="M150427 71717c-726,0 -1297,-203 -1711,-610 -416,-406 -623,-959 -623,-1657 0,-719 214,-1284 646,-1690 431,-407 1015,-610 1748,-610 723,0 1291,203 1701,610 411,406 618,945 618,1614 0,723 -213,1295 -637,1714 -424,420 -1005,629 -1742,629zm35 -3538c-318,0 -564,109 -741,327 -175,219 -264,528 -264,927 0,836 338,1255 1013,1255 644,0 966,-430 966,-1288 0,-815 -325,-1221 -974,-1221z"/>
  <polygon id="24" class="fil2" points="155021,71611 153678,71611 153678,65164 155021,65164 "/>
  <path id="25" class="fil2" d="M39086 83304c-726,0 -1297,-203 -1712,-610 -415,-406 -623,-960 -623,-1657 0,-719 215,-1285 646,-1690 432,-407 1015,-610 1749,-610 722,0 1290,203 1701,610 411,405 617,945 617,1614 0,722 -212,1294 -636,1714 -424,420 -1005,629 -1742,629zm35 -3538c-319,0 -565,109 -741,326 -175,219 -264,529 -264,928 0,836 338,1254 1013,1254 644,0 966,-429 966,-1287 0,-815 -325,-1221 -974,-1221z"/>
  <path id="26" class="fil2" d="M45046 77779c-173,-68 -340,-102 -498,-102 -432,0 -646,233 -646,702l0 463 994 0 0 992 -994 0 0 3364 -1340 0 0 -3364 -732 0 0 -992 732 0 0 -540c0,-496 161,-895 484,-1199 322,-303 763,-455 1318,-455 272,0 500,28 682,85l0 1046z"/>
  <path id="27" class="fil2" d="M52092 78842l-1769 4704c-426,1131 -1066,1697 -1922,1697 -326,0 -594,-36 -805,-110l0 -1072c181,105 373,158 584,158 346,0 586,-163 723,-489l229 -541 -1769 -4347 1489 0 812 2650c50,164 91,358 119,584l17 0c26,-166 73,-357 141,-575l820 -2659 1331 0z"/>
  <path id="28" class="fil2" d="M54622 83304c-726,0 -1296,-203 -1711,-610 -415,-406 -623,-960 -623,-1657 0,-719 215,-1285 646,-1690 432,-407 1015,-610 1748,-610 723,0 1291,203 1702,610 411,405 617,945 617,1614 0,722 -212,1294 -636,1714 -424,420 -1005,629 -1743,629zm36 -3538c-319,0 -565,109 -741,326 -175,219 -264,529 -264,928 0,836 338,1254 1013,1254 644,0 966,-429 966,-1287 0,-815 -326,-1221 -974,-1221z"/>
  <path id="29" class="fil2" d="M62011 83198l-1340 0 0 -664 -20 0c-333,513 -776,770 -1331,770 -1011,0 -1515,-612 -1515,-1834l0 -2628 1340 0 0 2509c0,616 244,923 732,923 241,0 433,-84 578,-252 145,-168 216,-398 216,-687l0 -2493 1340 0 0 4356z"/>
  <path id="30" class="fil2" d="M65985 80054c-163,-88 -351,-131 -566,-131 -292,0 -520,107 -686,321 -163,215 -247,504 -247,873l0 2081 -1342 0 0 -4356 1342 0 0 809 18 0c214,-591 596,-886 1149,-886 142,0 252,18 332,52l0 1237z"/>
  <path id="31" class="fil2" d="M70374 82691l-18 0 0 2510 -1343 0 0 -6359 1343 0 0 655 18 0c333,-507 798,-760 1399,-760 565,0 1000,192 1308,580 308,386 462,914 462,1579 0,726 -180,1309 -538,1749 -359,439 -837,659 -1432,659 -524,0 -923,-203 -1199,-613zm-38 -1785l0 348c0,300 78,545 238,736 158,191 367,284 626,284 305,0 543,-117 712,-354 167,-237 253,-572 253,-1006 0,-767 -297,-1148 -894,-1148 -275,0 -499,103 -674,312 -174,209 -261,485 -261,828z"/>
  <path id="32" class="fil2" d="M78328 81404l-2841 0c45,631 444,948 1194,948 479,0 901,-114 1264,-340l0 969c-403,215 -925,323 -1570,323 -703,0 -1248,-195 -1638,-585 -387,-390 -582,-934 -582,-1631 0,-722 209,-1296 631,-1718 419,-423 935,-633 1547,-633 635,0 1127,188 1474,564 347,377 521,890 521,1536l0 567zm-1246 -827c0,-622 -252,-935 -758,-935 -215,0 -401,89 -559,268 -158,178 -252,401 -287,667l1604 0z"/>
  <path id="33" class="fil2" d="M81969 80054c-163,-88 -351,-131 -566,-131 -293,0 -521,107 -686,321 -164,215 -247,504 -247,873l0 2081 -1342 0 0 -4356 1342 0 0 809 18 0c213,-591 595,-886 1148,-886 143,0 253,18 333,52l0 1237z"/>
  <path id="34" class="fil2" d="M82359 83083l0 -1089c222,134 443,233 663,298 219,65 426,98 622,98 239,0 427,-33 564,-98 137,-65 206,-164 206,-298 0,-85 -31,-157 -93,-214 -62,-55 -142,-105 -241,-147 -98,-43 -205,-81 -321,-115 -116,-35 -228,-73 -336,-114 -172,-66 -325,-137 -456,-211 -133,-76 -243,-162 -333,-263 -89,-99 -157,-213 -203,-344 -47,-131 -72,-285 -72,-463 0,-244 54,-455 160,-630 106,-176 248,-319 425,-431 177,-112 381,-195 609,-247 228,-53 465,-78 712,-78 194,0 388,14 587,44 199,30 395,73 588,129l0 1039c-171,-100 -352,-174 -547,-224 -195,-49 -385,-74 -572,-74 -89,0 -172,8 -248,23 -79,15 -148,38 -208,68 -60,29 -106,67 -140,115 -34,47 -51,100 -51,160 0,79 25,147 76,203 53,57 118,106 201,147 82,42 174,78 274,111 101,32 200,66 301,99 178,63 339,131 484,205 144,74 269,160 372,260 103,99 183,215 238,348 55,134 83,293 83,477 0,258 -55,479 -168,662 -112,182 -260,331 -446,445 -186,115 -401,199 -643,252 -243,52 -494,78 -755,78 -479,0 -922,-74 -1332,-221z"/>
  <path id="35" class="fil2" d="M88553 83304c-726,0 -1296,-203 -1711,-610 -416,-406 -623,-960 -623,-1657 0,-719 214,-1285 646,-1690 431,-407 1015,-610 1748,-610 723,0 1291,203 1701,610 411,405 618,945 618,1614 0,722 -213,1294 -637,1714 -423,420 -1005,629 -1742,629zm35 -3538c-318,0 -564,109 -740,326 -176,219 -265,529 -265,928 0,836 339,1254 1014,1254 643,0 965,-429 965,-1287 0,-815 -325,-1221 -974,-1221z"/>
  <path id="36" class="fil2" d="M96010 83198l-1340 0 0 -2420c0,-675 -241,-1012 -723,-1012 -232,0 -424,88 -573,267 -152,179 -227,407 -227,681l0 2484 -1343 0 0 -4356 1343 0 0 690 18 0c320,-531 787,-795 1399,-795 964,0 1446,597 1446,1794l0 2667z"/>
  <path id="37" class="fil2" d="M100698 83198l-1272 0 0 -626 -17 0c-292,488 -725,732 -1298,732 -423,0 -755,-119 -997,-359 -243,-239 -363,-560 -363,-960 0,-844 500,-1332 1500,-1463l1184 -156c0,-477 -258,-715 -775,-715 -519,0 -1012,154 -1479,464l0 -1013c186,-97 442,-181 768,-255 323,-74 619,-110 886,-110 1242,0 1863,619 1863,1857l0 2604zm-1263 -1770l0 -293 -791 101c-437,57 -655,255 -655,593 0,152 53,278 158,376 108,97 252,147 433,147 253,0 458,-88 617,-262 158,-174 238,-395 238,-662z"/>
  <polygon id="38" class="fil2" points="103104,83198 101762,83198 101762,76751 103104,76751 "/>
  <path id="39" class="fil2" d="M106353 83083l0 -1089c222,134 443,233 663,298 219,65 426,98 622,98 239,0 427,-33 564,-98 137,-65 206,-164 206,-298 0,-85 -31,-157 -93,-214 -62,-55 -142,-105 -241,-147 -98,-43 -205,-81 -321,-115 -116,-35 -228,-73 -335,-114 -173,-66 -326,-137 -457,-211 -133,-76 -243,-162 -333,-263 -89,-99 -157,-213 -203,-344 -47,-131 -72,-285 -72,-463 0,-244 55,-455 160,-630 106,-176 248,-319 425,-431 177,-112 381,-195 609,-247 228,-53 466,-78 713,-78 193,0 387,14 586,44 200,30 395,73 588,129l0 1039c-171,-100 -352,-174 -547,-224 -195,-49 -385,-74 -572,-74 -88,0 -172,8 -248,23 -79,15 -148,38 -207,68 -61,29 -107,67 -140,115 -35,47 -51,100 -51,160 0,79 24,147 75,203 53,57 118,106 201,147 82,42 174,78 274,111 101,32 200,66 301,99 178,63 340,131 484,205 144,74 269,160 372,260 103,99 183,215 238,348 55,134 83,293 83,477 0,258 -55,479 -168,662 -112,182 -260,331 -446,445 -186,115 -400,199 -643,252 -243,52 -494,78 -755,78 -479,0 -922,-74 -1332,-221z"/>
  <path id="40" class="fil2" d="M113105 83147c-199,104 -498,157 -897,157 -947,0 -1422,-492 -1422,-1475l0 -1995 -705 0 0 -992 705 0 0 -939 1340 -383 0 1322 979 0 0 992 -979 0 0 1761c0,453 181,679 540,679 143,0 289,-40 439,-123l0 996z"/>
  <path id="41" class="fil2" d="M115904 83304c-726,0 -1297,-203 -1712,-610 -415,-406 -623,-960 -623,-1657 0,-719 215,-1285 646,-1690 432,-407 1015,-610 1749,-610 722,0 1290,203 1701,610 411,405 617,945 617,1614 0,722 -212,1294 -636,1714 -424,420 -1005,629 -1742,629zm35 -3538c-319,0 -565,109 -741,326 -175,219 -264,529 -264,928 0,836 338,1254 1013,1254 644,0 966,-429 966,-1287 0,-815 -325,-1221 -974,-1221z"/>
  <path id="42" class="fil2" d="M121996 80054c-163,-88 -351,-131 -566,-131 -292,0 -520,107 -686,321 -164,215 -247,504 -247,873l0 2081 -1342 0 0 -4356 1342 0 0 809 18 0c214,-591 596,-886 1149,-886 142,0 252,18 332,52l0 1237z"/>
  <path id="43" class="fil2" d="M127116 78842l-1770 4704c-425,1131 -1065,1697 -1922,1697 -325,0 -593,-36 -804,-110l0 -1072c180,105 373,158 584,158 345,0 586,-163 722,-489l230 -541 -1770 -4347 1490 0 812 2650c50,164 91,358 118,584l18 0c26,-166 73,-357 140,-575l821 -2659 1331 0z"/>
  <path id="44" class="fil2" d="M133683 83198l-1271 0 0 -626 -18 0c-291,488 -724,732 -1298,732 -422,0 -754,-119 -996,-359 -243,-239 -363,-560 -363,-960 0,-844 500,-1332 1500,-1463l1184 -156c0,-477 -259,-715 -776,-715 -518,0 -1011,154 -1479,464l0 -1013c187,-97 443,-181 768,-255 324,-74 620,-110 887,-110 1242,0 1862,619 1862,1857l0 2604zm-1262 -1770l0 -293 -791 101c-437,57 -655,255 -655,593 0,152 52,278 158,376 107,97 251,147 433,147 252,0 457,-88 617,-262 158,-174 238,-395 238,-662z"/>
  <path id="45" class="fil2" d="M138954 83198l-1340 0 0 -2420c0,-675 -242,-1012 -724,-1012 -232,0 -424,88 -573,267 -151,179 -227,407 -227,681l0 2484 -1342 0 0 -4356 1342 0 0 690 18 0c320,-531 787,-795 1399,-795 964,0 1447,597 1447,1794l0 2667z"/>
  <path id="46" class="fil2" d="M144279 83198l-1345 0 0 -599 -15 0c-307,470 -757,705 -1350,705 -544,0 -982,-192 -1313,-576 -333,-384 -498,-921 -498,-1611 0,-719 183,-1296 549,-1730 365,-434 844,-650 1437,-650 562,0 952,200 1175,603l15 0 0 -2589 1345 0 0 6447zm-1319 -2118l0 -328c0,-284 -82,-519 -246,-706 -164,-187 -379,-280 -642,-280 -298,0 -531,116 -698,349 -168,236 -251,557 -251,965 0,383 81,677 242,884 162,207 386,310 672,310 273,0 495,-108 667,-326 171,-219 256,-508 256,-868z"/>
  <path id="47" class="fil2" d="M38372 94278l-18 0 0 507 -1343 0 0 -6448 1343 0 0 2747 18 0c333,-507 804,-761 1417,-761 560,0 993,193 1296,578 304,386 456,913 456,1582 0,726 -177,1309 -532,1748 -355,440 -829,660 -1420,660 -536,0 -941,-204 -1217,-613zm-38 -1837l0 446c0,282 80,514 242,698 161,185 369,276 622,276 305,0 543,-118 712,-354 167,-237 253,-572 253,-1006 0,-360 -78,-642 -232,-845 -156,-202 -375,-304 -662,-304 -269,0 -492,101 -669,302 -178,201 -266,464 -266,787z"/>
  <path id="48" class="fil2" d="M45255 91641c-163,-88 -352,-132 -567,-132 -292,0 -520,107 -685,322 -164,214 -247,504 -247,873l0 2081 -1343 0 0 -4356 1343 0 0 809 18 0c213,-591 595,-886 1148,-886 143,0 253,18 333,51l0 1238z"/>
  <path id="49" class="fil2" d="M49504 94785l-1272 0 0 -626 -17 0c-292,487 -725,732 -1298,732 -423,0 -755,-120 -997,-359 -243,-240 -363,-561 -363,-960 0,-844 500,-1332 1500,-1463l1184 -157c0,-476 -259,-714 -775,-714 -519,0 -1012,154 -1480,463l0 -1012c187,-97 443,-181 768,-255 324,-74 620,-111 887,-111 1242,0 1863,620 1863,1858l0 2604zm-1263 -1770l0 -293 -791 101c-437,57 -655,254 -655,593 0,152 52,278 158,376 108,97 252,146 433,146 252,0 457,-87 617,-261 158,-174 238,-395 238,-662z"/>
  <path id="50" class="fil2" d="M54774 94785l-1340 0 0 -2420c0,-675 -241,-1013 -724,-1013 -232,0 -424,89 -573,268 -151,178 -227,406 -227,680l0 2485 -1342 0 0 -4356 1342 0 0 690 18 0c321,-531 787,-796 1400,-796 964,0 1446,598 1446,1795l0 2667z"/>
  <path id="51" class="fil2" d="M60099 94785l-1345 0 0 -600 -15 0c-306,470 -757,706 -1349,706 -544,0 -983,-192 -1314,-576 -333,-384 -498,-921 -498,-1611 0,-720 183,-1297 549,-1730 365,-434 845,-651 1437,-651 562,0 952,200 1175,604l15 0 0 -2590 1345 0 0 6448zm-1318 -2118l0 -329c0,-283 -83,-518 -247,-705 -164,-188 -379,-281 -641,-281 -298,0 -532,116 -699,350 -167,236 -251,557 -251,965 0,383 81,677 243,884 162,207 386,310 671,310 273,0 496,-109 667,-327 171,-219 257,-508 257,-867z"/>
  <path id="52" class="fil2" d="M64314 89740c-227,0 -413,-67 -556,-202 -146,-136 -218,-299 -218,-495 0,-202 72,-366 218,-494 143,-128 329,-191 556,-191 231,0 417,63 560,191 142,128 215,292 215,494 0,203 -73,372 -215,502 -143,129 -329,195 -560,195zm663 5045l-1343 0 0 -4356 1343 0 0 4356z"/>
  <path id="53" class="fil2" d="M70316 94785l-1340 0 0 -2420c0,-675 -242,-1013 -724,-1013 -232,0 -424,89 -573,268 -151,178 -227,406 -227,680l0 2485 -1342 0 0 -4356 1342 0 0 690 18 0c320,-531 787,-796 1399,-796 964,0 1447,598 1447,1795l0 2667z"/>
  <path id="54" class="fil2" d="M77928 90429l-1769 4704c-426,1131 -1065,1697 -1922,1697 -325,0 -594,-36 -804,-110l0 -1072c180,105 372,157 583,157 346,0 586,-163 723,-489l230 -540 -1770 -4347 1490 0 811 2649c50,165 92,359 119,585l17 0c26,-167 73,-358 141,-576l820 -2658 1331 0z"/>
  <path id="55" class="fil2" d="M80459 94891c-726,0 -1297,-204 -1712,-610 -415,-407 -623,-960 -623,-1657 0,-719 215,-1285 646,-1691 432,-406 1015,-610 1749,-610 722,0 1290,204 1701,610 411,406 617,945 617,1614 0,723 -212,1295 -636,1715 -424,420 -1005,629 -1742,629zm35 -3539c-319,0 -565,110 -741,327 -175,219 -264,528 -264,928 0,836 338,1254 1013,1254 644,0 966,-430 966,-1287 0,-815 -325,-1222 -974,-1222z"/>
  <path id="56" class="fil2" d="M87848 94785l-1340 0 0 -664 -21 0c-333,513 -775,770 -1331,770 -1011,0 -1514,-612 -1514,-1834l0 -2628 1340 0 0 2509c0,615 243,923 731,923 241,0 433,-84 578,-253 145,-168 217,-397 217,-686l0 -2493 1340 0 0 4356z"/>
  <path id="57" class="fil2" d="M91821 91641c-163,-88 -351,-132 -566,-132 -292,0 -520,107 -685,322 -164,214 -247,504 -247,873l0 2081 -1343 0 0 -4356 1343 0 0 809 18 0c213,-591 595,-886 1148,-886 142,0 253,18 332,51l0 1238z"/>
  <path id="58" class="fil2" d="M95529 89740c-227,0 -413,-67 -556,-202 -146,-136 -218,-299 -218,-495 0,-202 72,-366 218,-494 143,-128 329,-191 556,-191 231,0 417,63 560,191 143,128 215,292 215,494 0,203 -72,372 -215,502 -143,129 -329,195 -560,195zm663 4968c0,645 -156,1158 -472,1544 -315,385 -767,578 -1360,578 -196,0 -409,-42 -643,-128l0 -1054c188,105 354,157 498,157 422,0 635,-331 635,-994l0 -4382 1342 0 0 4279z"/>
  <path id="59" class="fil2" d="M99399 94891c-726,0 -1296,-204 -1711,-610 -416,-407 -623,-960 -623,-1657 0,-719 214,-1285 646,-1691 431,-406 1015,-610 1748,-610 723,0 1291,204 1701,610 411,406 618,945 618,1614 0,723 -213,1295 -637,1715 -424,420 -1005,629 -1742,629zm35 -3539c-318,0 -564,110 -741,327 -175,219 -264,528 -264,928 0,836 339,1254 1014,1254 643,0 965,-430 965,-1287 0,-815 -325,-1222 -974,-1222z"/>
  <path id="60" class="fil2" d="M104011 94278l-18 0 0 507 -1343 0 0 -6448 1343 0 0 2747 18 0c332,-507 804,-761 1416,-761 561,0 994,193 1297,578 303,386 456,913 456,1582 0,726 -177,1309 -532,1748 -356,440 -829,660 -1421,660 -536,0 -941,-204 -1216,-613zm-38 -1837l0 446c0,282 80,514 242,698 161,185 369,276 621,276 306,0 544,-118 712,-354 168,-237 254,-572 254,-1006 0,-360 -78,-642 -232,-845 -156,-202 -375,-304 -662,-304 -269,0 -492,101 -669,302 -178,201 -266,464 -266,787z"/>
  <path id="61" class="fil2" d="M114078 94785l-1272 0 0 -626 -17 0c-291,487 -724,732 -1298,732 -422,0 -755,-120 -997,-359 -243,-240 -363,-561 -363,-960 0,-844 501,-1332 1501,-1463l1183 -157c0,-476 -258,-714 -775,-714 -519,0 -1012,154 -1479,463l0 -1012c187,-97 443,-181 768,-255 323,-74 620,-111 886,-111 1242,0 1863,620 1863,1858l0 2604zm-1263 -1770l0 -293 -791 101c-437,57 -655,254 -655,593 0,152 53,278 158,376 108,97 252,146 433,146 253,0 458,-87 617,-261 159,-174 238,-395 238,-662z"/>
  <path id="62" class="fil2" d="M119348 94785l-1340 0 0 -2420c0,-675 -241,-1013 -723,-1013 -232,0 -424,89 -573,268 -152,178 -227,406 -227,680l0 2485 -1343 0 0 -4356 1343 0 0 690 18 0c320,-531 787,-796 1399,-796 964,0 1446,598 1446,1795l0 2667z"/>
  <path id="63" class="fil2" d="M124674 94785l-1345 0 0 -600 -16 0c-306,470 -756,706 -1349,706 -544,0 -983,-192 -1314,-576 -332,-384 -498,-921 -498,-1611 0,-720 183,-1297 549,-1730 366,-434 845,-651 1438,-651 562,0 952,200 1174,604l16 0 0 -2590 1345 0 0 6448zm-1319 -2118l0 -329c0,-283 -82,-518 -247,-705 -164,-188 -378,-281 -641,-281 -298,0 -532,116 -699,350 -167,236 -251,557 -251,965 0,383 82,677 243,884 162,207 386,310 672,310 273,0 495,-109 666,-327 172,-219 257,-508 257,-867z"/>
  <path id="64" class="fil2" d="M131509 94628c-304,176 -742,263 -1314,263 -669,0 -1211,-202 -1625,-608 -414,-405 -621,-928 -621,-1570 0,-741 222,-1323 665,-1749 444,-427 1038,-641 1781,-641 513,0 884,69 1114,204l0 1141c-280,-211 -594,-316 -939,-316 -386,0 -692,112 -918,339 -225,225 -338,535 -338,933 0,385 108,688 324,908 215,220 512,329 888,329 335,0 662,-104 983,-315l0 1082z"/>
  <path id="65" class="fil2" d="M136014 94785l-1272 0 0 -626 -17 0c-292,487 -725,732 -1298,732 -423,0 -755,-120 -997,-359 -243,-240 -363,-561 -363,-960 0,-844 500,-1332 1500,-1463l1184 -157c0,-476 -259,-714 -775,-714 -519,0 -1012,154 -1480,463l0 -1012c187,-97 443,-181 768,-255 324,-74 620,-111 887,-111 1242,0 1863,620 1863,1858l0 2604zm-1263 -1770l0 -293 -791 101c-437,57 -655,254 -655,593 0,152 52,278 158,376 108,97 252,146 433,146 252,0 457,-87 617,-261 158,-174 238,-395 238,-662z"/>
  <path id="66" class="fil2" d="M139919 91641c-163,-88 -351,-132 -566,-132 -292,0 -520,107 -686,322 -164,214 -247,504 -247,873l0 2081 -1342 0 0 -4356 1342 0 0 809 18 0c214,-591 595,-886 1149,-886 142,0 252,18 332,51l0 1238z"/>
  <path id="67" class="fil2" d="M144422 92990l-2840 0c44,632 443,948 1194,948 479,0 901,-113 1264,-339l0 969c-403,215 -926,323 -1570,323 -703,0 -1249,-195 -1638,-585 -387,-390 -582,-934 -582,-1631 0,-723 209,-1296 631,-1719 418,-423 935,-633 1547,-633 635,0 1127,189 1473,565 348,377 521,890 521,1536l0 566zm-1245 -826c0,-622 -253,-935 -758,-935 -215,0 -402,89 -559,267 -158,179 -253,402 -287,668l1604 0z"/>
  <path id="68" class="fil2" d="M149135 92990l-2841 0c44,632 444,948 1194,948 479,0 901,-113 1264,-339l0 969c-403,215 -925,323 -1570,323 -703,0 -1248,-195 -1638,-585 -387,-390 -582,-934 -582,-1631 0,-723 209,-1296 631,-1719 419,-423 935,-633 1547,-633 635,0 1127,189 1474,565 347,377 521,890 521,1536l0 566zm-1246 -826c0,-622 -252,-935 -758,-935 -215,0 -402,89 -559,267 -158,179 -252,402 -287,668l1604 0z"/>
  <path id="69" class="fil2" d="M152776 91641c-163,-88 -352,-132 -566,-132 -293,0 -521,107 -686,322 -164,214 -247,504 -247,873l0 2081 -1342 0 0 -4356 1342 0 0 809 18 0c213,-591 595,-886 1148,-886 143,0 253,18 333,51l0 1238z"/>
  <polygon class="fil3" points="44818,726 32952,17865 45546,36968 519,36968 519,726 "/>
  <polygon class="fil0" points="44818,726 32952,17865 45546,36968 111734,36968 111491,726 "/>
  <path class="fil4" d="M51028 23334c-972,451 -2185,677 -3637,677 -1875,0 -3374,-529 -4500,-1588 -1129,-1060 -1693,-2449 -1693,-4168 0,-1847 637,-3340 1903,-4480 1267,-1141 2876,-1711 4823,-1711 1249,0 2283,160 3104,476l0 1444c-944,-461 -1985,-693 -3123,-693 -1511,0 -2738,443 -3678,1329 -941,886 -1411,2072 -1411,3555 0,1409 439,2531 1317,3365 881,836 2032,1255 3462,1255 1320,0 2467,-259 3433,-774l0 1313z"/>
  <path id="1" class="fil4" d="M61319 23818l-1508 0 0 -4757c0,-1720 -727,-2578 -2186,-2578 -733,0 -1354,247 -1855,745 -502,498 -753,1137 -753,1916l0 4674 -1508 0 0 -12219 1508 0 0 5335 37 0c722,-1042 1750,-1563 3086,-1563 2119,0 3179,1120 3179,3359l0 5088z"/>
  <path id="2" class="fil4" d="M64929 13468c-266,0 -499,-80 -686,-242 -192,-160 -286,-363 -286,-611 0,-248 94,-455 286,-617 187,-165 420,-247 686,-247 276,0 511,82 706,247 191,162 288,369 288,617 0,236 -97,437 -288,602 -195,168 -430,251 -706,251zm736 10350l-1507 0 0 -8254 1507 0 0 8254z"/>
  <polygon id="3" class="fil4" points="76707,13484 72903,13484 72903,23818 71360,23818 71360,13484 67566,13484 67566,12259 76707,12259 "/>
  <path id="4" class="fil4" d="M93776 23029c-1319,654 -2790,982 -4408,982 -1879,0 -3399,-531 -4559,-1596 -1163,-1062 -1744,-2471 -1744,-4224 0,-1787 646,-3257 1935,-4404 1288,-1148 2922,-1723 4900,-1723 1434,0 2638,207 3610,614l0 1499c-1064,-591 -2327,-886 -3785,-886 -1473,0 -2684,446 -3627,1337 -945,892 -1415,2047 -1415,3467 0,1461 439,2611 1314,3445 874,836 2063,1255 3565,1255 1029,0 1920,-182 2672,-540l0 -3241 -2885 0 0 -1224 4427 0 0 5239z"/>
  <path id="5" class="fil4" d="M97404 13468c-266,0 -499,-80 -687,-242 -191,-160 -285,-363 -285,-611 0,-248 94,-455 285,-617 188,-165 421,-247 687,-247 276,0 512,82 706,247 191,162 287,369 287,617 0,236 -96,437 -287,602 -194,168 -430,251 -706,251zm736 10350l-1507 0 0 -8254 1507 0 0 8254z"/>
  <polygon id="6" class="fil4" points="109181,13484 105378,13484 105378,23818 103835,23818 103835,13484 100041,13484 100041,12259 109181,12259 "/>
  <circle class="fil5 str1" cx="16841" cy="17915" r="12564"/>
  <circle class="fil5" cx="16215" cy="17608" r="10993"/>
  <g id="_2317903458048">
   <g style="clip-path:url(#id0)">
    <image x="11370" y="8961" width="10062" height="17232" xlink:href="frontPage_Images\frontPage_ImgID1.png"/>
   </g>
  </g>
  <path class="fil6" d="M15848 10122c543,1334 935,2753 1478,4086 302,38 416,-488 392,-1381 708,677 1074,1884 1417,3129 1917,3551 1330,6379 -1176,8652 -1025,561 -2050,529 -3076,113 -2285,-1617 -3342,-4600 -1146,-8793 188,-796 404,-1590 875,-2367 144,630 316,1193 663,1296 141,-1551 432,-3185 573,-4735z"/>
  <path class="fil6" d="M11642 11259c509,1050 818,1830 1519,2197 -917,1712 -1715,3423 -2633,5135 703,1431 1284,2861 1987,4292 -615,766 -1229,1533 -1844,2299 -1643,-1967 -3085,-4523 -4728,-6490 1875,-2674 3823,-4759 5699,-7433z"/>
  <g id="_2317903460896">
   <g style="clip-path:url(#id1)">
    <image x="18358" y="10444" width="9383" height="16087" xlink:href="frontPage_Images\frontPage_ImgID2.png"/>
   </g>
  </g>
  <path class="fil6" d="M20960 11527c-509,1049 -818,1829 -1519,2197 917,1712 1807,3423 2724,5135 -702,1430 -1375,2861 -2078,4291 615,767 1230,1533 1844,2299 1643,-1967 3085,-4523 4728,-6490 -1875,-2673 -3823,-4758 -5699,-7432z"/>
  <path class="fil6" d="M13259 13873c344,-350 595,-699 938,-1047 0,-1252 0,-2504 0,-3755 -2511,-663 -3899,2847 -938,4802z"/>
  <path class="fil6" d="M19424 13895c-343,-349 -594,-699 -937,-1048 0,-1252 0,-2503 0,-3755 2510,-663 3899,2848 937,4803z"/>
  <rect class="fil7" x="91086" y="172403" width="83180" height="15305" rx="3938" ry="2783"/>
  <path class="fil2" d="M102860 179965l845 260c-129,476 -345,829 -647,1061 -303,230 -684,346 -1149,346 -574,0 -1047,-196 -1417,-588 -369,-393 -554,-930 -554,-1610 0,-721 186,-1280 557,-1679 371,-398 861,-597 1467,-597 529,0 959,157 1289,470 197,185 344,451 443,798l-864 205c-51,-223 -158,-401 -320,-530 -163,-130 -360,-194 -592,-194 -321,0 -582,114 -781,345 -200,229 -299,601 -299,1117 0,545 98,935 294,1166 198,233 453,348 768,348 232,0 433,-73 600,-221 167,-148 288,-380 360,-697z"/>
  <path id="1" class="fil2" d="M105265 177236l0 1602c268,-319 590,-479 964,-479 192,0 365,36 519,106 154,71 269,161 348,271 79,111 132,233 160,366 30,134 44,341 44,622l0 1836 -827 0 0 -1653c0,-328 -17,-536 -48,-625 -32,-88 -88,-159 -169,-210 -81,-52 -181,-79 -303,-79 -139,0 -262,34 -373,101 -109,66 -188,167 -239,302 -51,134 -76,333 -76,596l0 1568 -827 0 0 -4324 827 0z"/>
  <path id="2" class="fil2" d="M108138 178003l0 -767 827 0 0 767 -827 0zm0 3557l0 -3134 827 0 0 3134 -827 0z"/>
  <path id="3" class="fil2" d="M111247 178426l0 658 -568 0 0 1269c0,258 5,407 16,450 11,42 35,78 74,106 39,27 85,41 140,41 77,0 189,-27 334,-80l70 644c-192,83 -410,124 -653,124 -149,0 -283,-25 -403,-75 -120,-50 -207,-116 -262,-196 -57,-80 -95,-188 -117,-324 -18,-97 -27,-292 -27,-587l0 -1372 -380 0 0 -658 380 0 0 -622 828 -489 0 1111 568 0z"/>
  <path id="4" class="fil2" d="M115520 179972l0 -731 1878 0 0 1725c-182,178 -447,334 -794,470 -346,134 -697,202 -1053,202 -452,0 -846,-95 -1182,-285 -335,-190 -587,-463 -757,-816 -169,-353 -253,-739 -253,-1154 0,-451 94,-852 283,-1203 189,-350 465,-620 828,-807 277,-144 622,-215 1034,-215 537,0 956,112 1258,338 301,226 496,537 582,936l-869 163c-61,-213 -175,-380 -343,-505 -167,-122 -377,-183 -628,-183 -381,0 -684,120 -908,363 -225,243 -338,601 -338,1078 0,514 114,900 342,1156 228,256 526,386 895,386 182,0 366,-37 549,-108 184,-72 341,-159 473,-262l0 -548 -997 0z"/>
  <path id="5" class="fil2" d="M118200 178003l0 -767 827 0 0 767 -827 0zm0 3557l0 -3134 827 0 0 3134 -827 0z"/>
  <path id="6" class="fil2" d="M121309 178426l0 658 -568 0 0 1269c0,258 5,407 16,450 11,42 36,78 75,106 38,27 84,41 139,41 78,0 189,-27 335,-80l70 644c-193,83 -410,124 -654,124 -149,0 -283,-25 -402,-75 -121,-50 -208,-116 -263,-196 -57,-80 -95,-188 -117,-324 -17,-97 -26,-292 -26,-587l0 -1372 -381 0 0 -658 381 0 0 -622 827 -489 0 1111 568 0z"/>
  <path id="7" class="fil2" d="M123572 177236l1729 0c343,0 598,15 766,43 169,29 319,88 451,178 134,90 244,210 333,360 89,150 132,319 132,505 0,201 -54,387 -163,556 -108,169 -256,295 -442,379 262,78 464,209 605,394 142,185 212,402 212,653 0,197 -45,388 -137,574 -91,186 -216,335 -375,447 -158,111 -353,179 -586,206 -145,15 -496,25 -1053,29l-1472 0 0 -4324zm875 718l0 997 572 0c340,0 551,-5 633,-15 149,-17 267,-69 353,-154 85,-85 127,-197 127,-336 0,-134 -37,-241 -111,-325 -73,-83 -183,-134 -327,-151 -87,-10 -335,-16 -745,-16l-502 0zm0 1716l0 1159 809 0c315,0 515,-9 600,-26 129,-24 235,-81 317,-173 81,-93 122,-214 122,-368 0,-131 -31,-241 -94,-331 -63,-92 -154,-157 -273,-199 -118,-41 -378,-62 -775,-62l-706 0z"/>
  <path id="8" class="fil2" d="M128542 179392l-748 -133c85,-306 231,-532 436,-679 207,-147 514,-221 921,-221 369,0 645,43 826,131 180,88 308,199 381,334 73,134 111,381 111,741l-12 966c0,275 13,478 39,609 26,131 75,271 148,420l-821 0c-21,-55 -49,-135 -80,-242 -13,-49 -23,-81 -29,-97 -141,139 -292,243 -453,312 -161,70 -332,105 -514,105 -321,0 -574,-87 -759,-263 -186,-173 -279,-395 -279,-662 0,-176 42,-335 127,-474 85,-138 203,-244 356,-318 151,-73 371,-138 657,-193 387,-72 655,-140 804,-203l0 -84c0,-161 -38,-276 -117,-345 -79,-68 -228,-103 -447,-103 -148,0 -263,30 -345,89 -83,59 -150,162 -202,310zm1111 670c-105,35 -273,78 -503,127 -230,50 -381,97 -451,144 -108,78 -162,174 -162,292 0,116 43,216 130,301 86,84 195,127 330,127 149,0 291,-50 428,-148 99,-75 165,-165 196,-275 22,-70 32,-205 32,-403l0 -165z"/>
  <path id="9" class="fil2" d="M130989 180678l833 -127c36,160 107,282 216,364 108,84 259,125 454,125 214,0 375,-39 483,-117 73,-56 109,-130 109,-223 0,-62 -20,-115 -59,-156 -41,-39 -133,-77 -277,-110 -669,-148 -1093,-283 -1272,-404 -248,-170 -372,-405 -372,-707 0,-272 108,-501 322,-686 214,-185 546,-278 996,-278 429,0 748,71 956,210 208,142 352,349 431,623l-779 145c-33,-122 -97,-217 -191,-282 -94,-66 -227,-98 -402,-98 -219,0 -376,30 -471,91 -64,44 -95,100 -95,169 0,59 27,110 82,151 76,55 334,132 777,233 443,101 752,224 927,369 175,148 261,354 261,618 0,286 -120,534 -361,740 -239,206 -595,310 -1065,310 -427,0 -765,-87 -1015,-259 -248,-172 -411,-405 -488,-701z"/>
  <path id="10" class="fil2" d="M134643 178003l0 -767 827 0 0 767 -827 0zm0 3557l0 -3134 827 0 0 3134 -827 0z"/>
  <path id="11" class="fil2" d="M139050 179355l-815 145c-27,-161 -90,-283 -188,-366 -97,-82 -223,-123 -377,-123 -207,0 -372,72 -495,215 -123,143 -184,381 -184,716 0,373 62,636 187,790 125,154 292,230 501,230 158,0 286,-45 386,-135 100,-90 171,-244 212,-463l815 139c-84,374 -246,657 -486,848 -239,191 -560,287 -964,287 -457,0 -822,-145 -1093,-434 -274,-290 -410,-690 -410,-1202 0,-518 137,-921 410,-1210 273,-289 642,-433 1108,-433 381,0 683,83 909,247 225,164 385,414 484,749z"/>
  <path id="12" class="fil2" d="M141356 178003l0 -767 827 0 0 767 -827 0zm0 3557l0 -3134 827 0 0 3134 -827 0z"/>
  <path id="13" class="fil2" d="M142738 180678l833 -127c36,160 107,282 216,364 108,84 259,125 453,125 215,0 376,-39 484,-117 73,-56 109,-130 109,-223 0,-62 -20,-115 -59,-156 -41,-39 -134,-77 -277,-110 -669,-148 -1093,-283 -1272,-404 -248,-170 -372,-405 -372,-707 0,-272 107,-501 321,-686 215,-185 547,-278 997,-278 429,0 748,71 956,210 208,142 352,349 431,623l-779 145c-33,-122 -97,-217 -191,-282 -94,-66 -227,-98 -402,-98 -219,0 -376,30 -472,91 -63,44 -94,100 -94,169 0,59 27,110 82,151 76,55 334,132 777,233 443,101 752,224 927,369 174,148 261,354 261,618 0,286 -120,534 -361,740 -239,206 -595,310 -1066,310 -426,0 -764,-87 -1014,-259 -248,-172 -411,-405 -488,-701z"/>
  <path id="14" class="fil2" d="M148685 179392l-748 -133c85,-306 230,-532 436,-679 207,-147 514,-221 920,-221 370,0 646,43 827,131 180,88 308,199 381,334 73,134 111,381 111,741l-12 966c0,275 13,478 39,609 26,131 75,271 148,420l-821 0c-22,-55 -49,-135 -80,-242 -13,-49 -23,-81 -29,-97 -141,139 -292,243 -453,312 -161,70 -332,105 -514,105 -321,0 -574,-87 -760,-263 -185,-173 -278,-395 -278,-662 0,-176 42,-335 127,-474 85,-138 202,-244 355,-318 152,-73 372,-138 658,-193 387,-72 655,-140 804,-203l0 -84c0,-161 -38,-276 -117,-345 -79,-68 -228,-103 -447,-103 -148,0 -263,30 -345,89 -83,59 -150,162 -202,310zm1111 670c-105,35 -273,78 -503,127 -230,50 -381,97 -451,144 -108,78 -163,174 -163,292 0,116 44,216 130,301 87,84 196,127 330,127 149,0 292,-50 428,-148 100,-75 166,-165 197,-275 22,-70 32,-205 32,-403l0 -165z"/>
  <path id="15" class="fil2" d="M152743 178426l459 0 0 -237c0,-263 28,-461 84,-590 57,-131 161,-237 311,-319 153,-81 344,-122 575,-122 237,0 469,35 696,105l-105 576c-135,-31 -265,-47 -389,-47 -123,0 -211,28 -265,84 -52,57 -79,166 -79,326l0 224 621 0 0 652 -621 0 0 2482 -828 0 0 -2482 -459 0 0 -652z"/>
  <path id="16" class="fil2" d="M155907 181560l-827 0 0 -3134 767 0 0 445c132,-211 250,-349 356,-414 106,-65 226,-98 359,-98 189,0 371,52 547,156l-257 723c-140,-91 -269,-136 -389,-136 -117,0 -216,32 -296,95 -81,65 -144,180 -190,347 -47,167 -70,517 -70,1049l0 967z"/>
  <path id="17" class="fil2" d="M159278 180569l827 140c-106,302 -274,533 -502,692 -230,158 -516,237 -860,237 -545,0 -948,-178 -1209,-534 -206,-286 -309,-646 -309,-1082 0,-519 136,-927 406,-1221 271,-295 614,-442 1028,-442 465,0 833,154 1103,462 269,308 397,780 385,1416l-2071 0c6,246 72,437 200,574 127,137 286,205 476,205 129,0 237,-35 326,-106 88,-70 154,-183 200,-341zm48 -839c-6,-240 -67,-424 -185,-548 -118,-126 -261,-189 -430,-189 -180,0 -329,67 -447,199 -117,131 -175,312 -173,538l1235 0z"/>
  <path id="18" class="fil2" d="M162636 180569l827 140c-105,302 -274,533 -502,692 -230,158 -516,237 -859,237 -545,0 -949,-178 -1210,-534 -205,-286 -309,-646 -309,-1082 0,-519 136,-927 407,-1221 270,-295 614,-442 1028,-442 465,0 832,154 1102,462 269,308 397,780 385,1416l-2071 0c6,246 73,437 200,574 127,137 287,205 476,205 129,0 238,-35 326,-106 88,-70 155,-183 200,-341zm48 -839c-6,-240 -67,-424 -185,-548 -118,-126 -261,-189 -429,-189 -181,0 -330,67 -447,199 -118,131 -176,312 -174,538l1235 0z"/>
  <polygon class="fil8" points="50455,207788 49748,207787 49760,201744 50468,201747 "/>
  <path id="1" class="fil8" d="M56572 204219c-120,-94 -294,-140 -521,-142 -295,0 -543,138 -741,417 -198,278 -298,656 -299,1137l-5 2199 -691 -2 9 -4314 691 2 -2 889 18 -1c98,-303 248,-538 452,-708 202,-170 429,-254 679,-253 180,0 316,20 412,60l-2 716z"/>
  <path id="2" class="fil8" d="M60786 205878l-3046 -7c10,481 138,852 385,1114 247,262 587,393 1018,394 486,1 934,-158 1342,-477l-2 649c-380,274 -882,410 -1504,410 -610,-2 -1089,-200 -1436,-592 -347,-393 -520,-944 -518,-1654 1,-672 192,-1218 574,-1639 382,-422 855,-633 1418,-632 565,1 1001,184 1309,552 309,365 461,871 461,1522l-1 360zm-707 -587c-1,-398 -97,-709 -286,-932 -189,-221 -452,-332 -790,-334 -325,0 -603,115 -831,348 -227,233 -368,538 -423,913l2330 5z"/>
  <path id="3" class="fil8" d="M64768 207705c-332,199 -725,298 -1180,297 -616,-1 -1112,-203 -1489,-604 -377,-401 -564,-920 -563,-1559 0,-710 206,-1280 614,-1710 409,-431 953,-645 1633,-643 379,1 713,72 1001,212l0 708c-320,-226 -663,-338 -1029,-339 -440,-1 -803,157 -1085,473 -283,314 -424,729 -426,1242 -1,506 131,905 395,1197 265,293 621,439 1067,442 376,0 730,-125 1062,-373l0 657z"/>
  <path id="4" class="fil8" d="M69283 205955l-3047 -6c10,481 139,852 386,1113 246,262 586,393 1018,394 486,2 934,-157 1341,-477l-1 649c-380,274 -883,411 -1505,411 -610,-3 -1088,-200 -1435,-593 -348,-393 -521,-943 -519,-1654 2,-671 193,-1218 574,-1638 382,-423 855,-634 1418,-632 565,0 1001,183 1309,551 309,365 462,872 462,1522l-1 360zm-707 -586c-2,-399 -98,-710 -287,-932 -188,-222 -451,-333 -789,-334 -325,-1 -603,115 -832,347 -227,233 -368,538 -422,914l2330 5z"/>
  <path id="5" class="fil8" d="M70688 202565c-123,0 -228,-42 -316,-126 -87,-85 -129,-192 -129,-322 -2,-129 45,-235 132,-321 87,-85 191,-128 314,-128 127,1 236,43 325,130 86,86 130,193 131,322 -1,123 -46,229 -134,315 -88,87 -196,131 -323,130zm326 5410l-692 -1 10 -4314 691 1 -9 4314z"/>
  <path id="6" class="fil8" d="M75812 203687l-1728 4309 -678 -1 -1626 -4318 760 3 1088 3136c81,230 130,431 151,604l17 -1c28,-216 72,-412 135,-585l1152 -3150 729 3z"/>
  <path id="7" class="fil8" d="M80016 206053l-3046 -6c10,480 139,851 386,1113 246,262 586,393 1017,393 486,3 934,-156 1342,-477l-2 649c-380,275 -882,411 -1504,412 -610,-3 -1089,-200 -1436,-593 -347,-393 -520,-943 -518,-1654 1,-671 192,-1218 574,-1639 382,-422 855,-633 1418,-632 565,1 1001,184 1309,551 309,366 461,872 461,1522l-1 361zm-707 -586c-1,-399 -97,-711 -286,-933 -189,-221 -452,-333 -790,-333 -325,-1 -603,115 -831,346 -227,234 -367,538 -423,915l2330 5z"/>
  <path id="8" class="fil8" d="M84739 208080l-692 -2 3 -733 -18 0c-321,555 -815,832 -1484,831 -542,-2 -975,-195 -1299,-582 -325,-387 -485,-913 -483,-1579 0,-713 183,-1284 543,-1713 360,-428 839,-643 1438,-641 593,0 1024,235 1292,702l17 0 5 -2672 690 2 -12 6387zm-687 -1953l0 -636c2,-348 -112,-643 -343,-885 -229,-242 -521,-365 -875,-364 -421,-1 -754,153 -995,461 -242,308 -363,736 -365,1280 -1,498 114,889 345,1177 231,289 542,434 933,434 383,2 696,-136 937,-415 241,-276 363,-628 363,-1052z"/>
  <path id="9" class="fil8" d="M91589 208147l-693 -1 3 -675 -16 0c-303,516 -746,772 -1330,772 -430,-1 -765,-116 -1007,-344 -242,-228 -364,-529 -363,-906 1,-806 476,-1274 1426,-1405l1294 -177c2,-734 -294,-1102 -887,-1102 -518,-1 -989,175 -1407,528l2 -708c424,-269 913,-403 1465,-402 1014,4 1520,539 1517,1612l-4 2808zm-687 -2184l-1040 140c-321,45 -563,122 -726,236 -162,114 -245,316 -245,605 -1,210 73,383 224,516 149,134 350,201 600,202 343,1 625,-119 850,-358 223,-241 335,-544 336,-912l1 -429z"/>
  <path id="10" class="fil8" d="M98196 208009c-332,199 -726,298 -1181,296 -615,0 -1111,-202 -1487,-603 -378,-400 -565,-919 -564,-1558 1,-710 206,-1280 615,-1711 407,-430 951,-645 1631,-643 380,2 714,71 1003,212l-1 708c-320,-225 -663,-338 -1029,-339 -440,-1 -802,156 -1086,472 -282,315 -423,730 -425,1242 -2,507 131,906 395,1199 264,292 621,439 1067,441 376,0 731,-124 1062,-373l0 657z"/>
  <path id="11" class="fil8" d="M102821 208244l-692 -1 4 -2485c4,-899 -330,-1349 -998,-1350 -338,-2 -622,128 -853,388 -230,259 -346,592 -346,1000l-6 2443 -692 -2 14 -6386 690 0 -4 2790 16 -1c333,-543 805,-814 1418,-814 972,2 1455,589 1453,1760l-4 2658z"/>
  <path id="12" class="fil8" d="M104487 202873c-123,-1 -229,-43 -315,-127 -87,-85 -130,-192 -130,-321 -1,-129 44,-236 132,-322 87,-85 191,-128 314,-127 127,0 236,42 324,129 87,86 131,193 132,323 -1,123 -45,228 -134,314 -88,87 -196,131 -323,131zm326 5410l-691 -2 9 -4313 690 1 -8 4314z"/>
  <path id="13" class="fil8" d="M108212 208262c-163,90 -378,134 -646,133 -754,0 -1131,-422 -1130,-1265l7 -2553 -742 -3 0 -589 742 2 3 -1054 691 -221 -2 1277 1086 3 -1 589 -1087 -3 -6 2430c0,290 49,496 148,621 97,124 260,186 487,187 174,0 325,-47 452,-144l-2 590z"/>
  <path id="14" class="fil8" d="M115080 208356l-692 -2 5 -2460c4,-916 -330,-1373 -998,-1375 -346,-2 -632,129 -859,389 -227,258 -340,586 -341,982l-6 2460 -691 -1 9 -4315 691 2 -1 716 17 -1c326,-542 799,-814 1417,-813 472,2 832,154 1082,459 249,306 373,746 372,1321l-5 2638z"/>
  <path id="15" class="fil8" d="M118185 208498c-638,-2 -1146,-204 -1526,-607 -380,-405 -569,-940 -568,-1606 2,-724 201,-1289 598,-1695 397,-408 932,-609 1607,-608 642,1 1144,200 1504,597 361,397 539,947 538,1648 -2,689 -197,1240 -587,1654 -390,412 -911,619 -1566,617zm58 -3935c-443,-1 -795,150 -1054,451 -258,301 -389,717 -390,1248 -1,511 128,914 389,1210 261,295 610,443 1048,446 446,0 790,-144 1031,-434 240,-287 362,-699 364,-1234 0,-539 -120,-953 -358,-1246 -239,-292 -583,-440 -1030,-441z"/>
  <path id="16" class="fil8" d="M123437 208400c-163,91 -377,134 -644,133 -755,0 -1133,-422 -1130,-1265l6 -2552 -743 -3 1 -589 742 3 3 -1055 691 -222 -2 1277 1085 3 0 589 -1088 -2 -5 2429c0,290 49,497 148,621 97,124 260,186 487,187 174,0 325,-47 452,-143l-3 589z"/>
  <path id="17" class="fil8" d="M124726 203056c-124,0 -229,-42 -316,-125 -87,-85 -130,-193 -130,-322 -1,-130 45,-236 132,-321 87,-86 191,-129 314,-129 127,1 236,43 325,130 86,86 131,193 131,322 0,124 -45,230 -134,315 -88,88 -196,131 -322,130zm326 5411l-692 -1 9 -4314 691 1 -8 4314z"/>
  <path id="18" class="fil8" d="M129391 208293c-332,199 -726,298 -1181,296 -616,0 -1111,-202 -1488,-603 -377,-400 -564,-920 -563,-1559 0,-710 205,-1279 614,-1710 409,-430 952,-645 1632,-643 379,1 714,71 1002,212l0 708c-320,-225 -663,-338 -1029,-339 -440,-1 -803,156 -1085,472 -283,315 -424,730 -426,1242 -2,507 131,906 395,1199 264,292 621,439 1067,441 376,0 730,-124 1062,-373l0 657z"/>
  <path id="19" class="fil8" d="M133905 206543l-3046 -6c10,481 139,851 386,1113 246,262 586,393 1018,394 486,1 933,-158 1341,-477l-1 649c-380,275 -883,410 -1505,410 -610,-2 -1089,-200 -1435,-592 -348,-393 -521,-943 -519,-1654 1,-672 192,-1217 574,-1639 382,-422 855,-633 1418,-632 565,2 1001,184 1309,552 309,365 461,871 461,1522l-1 360zm-706 -587c-2,-398 -98,-709 -287,-931 -189,-222 -451,-333 -789,-335 -325,0 -604,116 -832,348 -227,233 -367,538 -422,913l2330 5z"/>
  <polygon id="20" class="fil9" points="48949,208569 134239,209345 134236,209737 48945,208961 "/>
  <g id="_2317903465760">
   <path class="fil10" d="M43250 176116l825 -105c18,532 114,897 288,1096 174,197 419,298 731,301 230,2 430,-49 597,-153 168,-105 286,-248 351,-428 65,-180 98,-472 101,-870l43 -4790 922 8 -42 4735c-5,581 -79,1030 -223,1350 -143,317 -368,557 -675,722 -305,164 -664,246 -1073,242 -610,-5 -1074,-185 -1394,-539 -320,-354 -471,-876 -451,-1569z"/>
   <path id="1" class="fil10" d="M48145 175616c9,-930 275,-1617 797,-2060 436,-368 967,-550 1590,-544 690,6 1255,238 1690,695 434,455 649,1083 641,1881 -5,647 -107,1154 -305,1523 -197,369 -482,654 -858,855 -372,202 -778,301 -1216,297 -706,-6 -1273,-236 -1704,-692 -431,-455 -642,-1107 -635,-1955zm874 10c-6,644 131,1127 409,1448 280,322 634,486 1062,490 424,4 778,-153 1064,-472 285,-319 430,-808 435,-1466 6,-622 -132,-1094 -412,-1415 -281,-323 -631,-486 -1052,-491 -429,-3 -784,153 -1071,468 -284,316 -429,796 -435,1438z"/>
   <path id="2" class="fil10" d="M53895 172208l9 -971 854 8 -9 971 -854 -8zm-55 5979l47 -5038 854 8 -46 5038 -855 -8z"/>
   <path id="3" class="fil10" d="M55997 178206l46 -5037 767 7 -6 716c373,-546 909,-814 1607,-809 304,4 581,61 835,172 252,110 442,256 566,434 125,177 212,388 260,632 29,158 43,435 40,829l-28 3093 -855 -7 28 -3060c3,-348 -27,-609 -92,-781 -64,-172 -181,-311 -348,-416 -168,-104 -366,-157 -593,-160 -362,-3 -676,110 -941,339 -266,227 -401,665 -407,1308l-25 2748 -854 -8z"/>
   <rect class="fil11" x="25225" y="172479" width="58783" height="15305" rx="2783" ry="2783"/>
   <path class="fil10" d="M32014 180983l865 -69c37,349 130,637 279,862 148,225 379,408 694,550 313,141 668,213 1063,217 351,4 661,-46 930,-149 269,-102 470,-244 603,-425 132,-182 200,-381 202,-595 3,-216 -59,-406 -183,-570 -126,-163 -333,-301 -624,-416 -185,-72 -596,-190 -1233,-349 -637,-159 -1084,-307 -1337,-445 -330,-178 -575,-397 -733,-656 -162,-258 -240,-549 -237,-867 3,-353 106,-680 307,-983 203,-304 494,-532 879,-688 384,-154 809,-230 1277,-226 514,5 969,92 1360,262 392,169 691,416 901,741 208,323 319,690 331,1098l-884 60c-43,-439 -200,-771 -471,-997 -272,-227 -675,-343 -1208,-348 -557,-5 -964,94 -1220,294 -256,202 -386,447 -389,736 -2,248 87,455 265,617 177,162 636,333 1382,508 745,177 1257,329 1534,457 402,190 698,427 888,716 190,286 282,615 279,987 -3,371 -112,716 -326,1041 -216,325 -520,575 -918,753 -398,178 -844,265 -1340,260 -628,-6 -1153,-103 -1575,-290 -424,-187 -753,-464 -990,-835 -240,-370 -362,-786 -371,-1251z"/>
   <path id="1" class="fil10" d="M40523 182531l108 755c-239,47 -455,72 -642,70 -309,-2 -548,-53 -719,-153 -169,-101 -287,-229 -356,-391 -68,-161 -98,-497 -93,-1010l26 -2902 -631 -6 6 -660 631 6 11 -1245 859 -505 -16 1758 854 8 -5 660 -855 -8 -27 2950c-2,244 12,402 41,471 28,70 76,126 144,168 68,41 164,64 291,65 94,1 218,-10 373,-31z"/>
   <path id="2" class="fil10" d="M44654 182700c-320,267 -627,454 -921,562 -294,109 -608,162 -944,159 -554,-5 -978,-144 -1274,-417 -295,-271 -440,-616 -436,-1036 3,-245 60,-469 174,-673 115,-203 263,-363 446,-484 184,-121 388,-214 617,-274 169,-43 423,-83 762,-121 689,-75 1200,-169 1526,-279 5,-117 6,-191 7,-222 3,-346 -76,-591 -236,-735 -217,-194 -541,-293 -971,-297 -403,-3 -702,66 -893,205 -194,137 -336,386 -432,744l-834 -124c79,-356 206,-645 382,-863 178,-219 432,-384 763,-502 329,-114 713,-171 1147,-167 430,4 780,58 1049,162 268,104 466,232 591,387 125,155 212,349 261,584 27,146 39,409 36,786l-11 1131c-7,791 6,1292 40,1504 32,212 101,415 203,610l-893 -8c-84,-180 -138,-391 -159,-632zm-51 -1893c-311,122 -779,225 -1401,307 -352,46 -603,102 -748,163 -147,61 -259,153 -339,272 -81,120 -122,254 -124,403 -2,225 82,415 254,567 172,153 423,231 754,233 329,4 623,-65 881,-206 257,-140 448,-334 570,-581 94,-192 141,-474 145,-848l8 -310z"/>
   <path id="3" class="fil10" d="M46745 183350l46 -5037 767 6 -7 771c199,-354 383,-589 550,-701 168,-114 351,-169 551,-167 287,3 579,96 875,278l-312 786c-205,-119 -412,-179 -619,-181 -186,-1 -353,54 -502,164 -147,110 -254,265 -319,463 -98,302 -148,633 -151,993l-24 2632 -855 -7z"/>
   <path id="4" class="fil10" d="M51849 182634l109 755c-240,48 -455,72 -643,70 -309,-2 -548,-53 -718,-154 -169,-100 -288,-228 -356,-390 -68,-161 -100,-497 -95,-1010l27 -2902 -631 -6 6 -660 630 6 12 -1245 859 -505 -16 1758 854 8 -6 660 -854 -8 -27 2951c-2,244 11,401 41,470 28,70 77,126 144,169 68,40 165,62 292,64 93,1 218,-10 372,-31z"/>
   <polygon id="5" class="fil10" points="55525,183430 55589,176480 56511,176489 56484,179352 60075,179385 60102,176521 61024,176530 60961,183479 60038,183471 60068,180200 56477,180167 56447,183438 "/>
   <path id="6" class="fil10" d="M65840 181893l882 123c-142,512 -403,910 -781,1190 -378,280 -857,417 -1441,412 -735,-6 -1316,-238 -1742,-695 -426,-455 -636,-1093 -628,-1910 8,-844 231,-1500 670,-1961 439,-464 1007,-692 1700,-685 672,6 1218,239 1639,701 422,461 629,1107 622,1937 -1,50 -4,126 -8,226l-3751 -34c28,552 180,977 458,1272 277,296 626,446 1045,450 312,3 581,-78 802,-240 223,-163 400,-425 533,-786zm-2783 -1394l2805 25c-33,-425 -138,-742 -314,-955 -267,-331 -617,-500 -1049,-503 -392,-4 -721,124 -990,384 -268,259 -419,609 -452,1049z"/>
   <path id="7" class="fil10" d="M67777 183541l45 -5038 768 8 -7 771c199,-355 382,-590 550,-701 168,-114 350,-169 550,-167 287,2 579,95 875,278l-311 785c-206,-118 -412,-178 -619,-181 -186,-2 -354,54 -502,165 -147,109 -254,264 -319,462 -99,302 -148,633 -152,994l-23 2632 -855 -8z"/>
   <path id="8" class="fil10" d="M74470 181971l882 124c-142,512 -403,909 -781,1189 -378,280 -858,418 -1442,412 -734,-6 -1315,-237 -1741,-695 -425,-455 -635,-1092 -628,-1910 7,-844 231,-1499 670,-1961 440,-464 1006,-692 1700,-685 671,6 1218,239 1639,701 421,462 628,1107 621,1937 0,50 -3,126 -7,226l-3750 -33c27,551 178,977 457,1272 278,296 627,446 1045,450 312,3 581,-78 802,-241 222,-162 399,-424 533,-786zm-2782 -1394l2803 25c-33,-424 -137,-741 -313,-954 -266,-331 -618,-500 -1050,-504 -392,-3 -721,124 -990,384 -268,260 -418,610 -450,1049z"/>
  </g>
  <polygon class="fil8" points="30487,110377 30487,109716 32530,109716 32530,110377 "/>
  <path id="1" class="fil8" d="M37941 109880l0 -630 2276 0 0 1993c-349,278 -710,488 -1082,629 -372,140 -754,211 -1145,211 -528,0 -1008,-113 -1440,-340 -431,-226 -758,-553 -977,-980 -220,-429 -330,-907 -330,-1435 0,-524 108,-1012 328,-1466 219,-454 533,-791 944,-1010 411,-221 884,-331 1420,-331 388,0 741,63 1055,189 315,127 561,303 738,526 180,226 315,521 408,882l-643 176c-81,-273 -181,-489 -300,-647 -121,-156 -291,-281 -514,-375 -221,-94 -468,-142 -740,-142 -324,0 -605,50 -843,149 -237,99 -427,229 -574,392 -144,162 -257,340 -338,533 -136,334 -205,694 -205,1084 0,481 83,883 246,1208 166,323 406,563 721,720 316,156 650,236 1005,236 307,0 608,-61 901,-180 293,-120 515,-247 667,-383l0 -1009 -1578 0z"/>
  <path id="2" class="fil8" d="M43846 110730l684 90c-107,397 -306,706 -596,925 -291,220 -661,330 -1114,330 -568,0 -1019,-176 -1352,-526 -334,-349 -500,-842 -500,-1475 0,-653 168,-1162 505,-1522 336,-362 773,-543 1311,-543 520,0 945,177 1274,531 329,355 495,854 495,1496 0,38 -2,98 -5,175l-2903 0c24,427 144,756 363,982 216,227 488,341 812,341 242,0 449,-64 619,-192 172,-128 307,-332 407,-612zm-2164 -1060l2172 0c-29,-328 -113,-573 -250,-737 -209,-255 -482,-383 -816,-383 -303,0 -557,102 -764,305 -206,203 -319,475 -342,815z"/>
  <path id="3" class="fil8" d="M46800 111402l91 584c-185,39 -352,59 -497,59 -240,0 -425,-38 -557,-114 -132,-76 -225,-176 -279,-299 -54,-125 -79,-385 -79,-782l0 -2247 -489 0 0 -511 489 0 0 -964 661 -398 0 1362 660 0 0 511 -660 0 0 2285c0,189 11,310 35,364 22,54 60,97 113,129 52,31 127,47 224,47 74,0 170,-8 288,-26z"/>
  <path id="4" class="fil8" d="M52239 111992l-617 0 0 -5380 662 0 0 1920c279,-348 635,-523 1068,-523 240,0 467,48 682,144 214,97 389,233 528,408 138,175 247,385 325,632 79,245 117,509 117,790 0,667 -165,1183 -494,1546 -331,365 -727,546 -1189,546 -460,0 -821,-191 -1082,-573l0 490zm-8 -1978c0,465 64,802 190,1010 209,339 489,510 843,510 290,0 539,-125 748,-376 210,-251 316,-623 316,-1120 0,-508 -100,-883 -302,-1124 -201,-242 -446,-364 -731,-364 -290,0 -539,126 -748,376 -210,250 -316,613 -316,1088z"/>
  <path id="5" class="fil8" d="M58470 110730l684 90c-107,397 -306,706 -596,925 -291,220 -661,330 -1114,330 -568,0 -1019,-176 -1352,-526 -334,-349 -500,-842 -500,-1475 0,-653 168,-1162 505,-1522 336,-362 773,-543 1311,-543 520,0 945,177 1274,531 329,355 495,854 495,1496 0,38 -2,98 -5,175l-2903 0c24,427 144,756 363,982 216,227 488,341 812,341 242,0 449,-64 619,-192 172,-128 307,-332 407,-612zm-2164 -1060l2172 0c-29,-328 -113,-573 -250,-737 -209,-255 -482,-383 -816,-383 -303,0 -557,102 -764,305 -206,203 -319,475 -342,815z"/>
  <path id="6" class="fil8" d="M61424 111402l91 584c-185,39 -352,59 -497,59 -240,0 -425,-38 -557,-114 -132,-76 -225,-176 -279,-299 -54,-125 -79,-385 -79,-782l0 -2247 -489 0 0 -511 489 0 0 -964 661 -398 0 1362 660 0 0 511 -660 0 0 2285c0,189 11,310 35,364 22,54 60,97 113,129 52,31 127,47 224,47 74,0 170,-8 288,-26z"/>
  <path id="7" class="fil8" d="M63513 111402l90 584c-185,39 -352,59 -497,59 -239,0 -425,-38 -557,-114 -132,-76 -225,-176 -278,-299 -55,-125 -80,-385 -80,-782l0 -2247 -489 0 0 -511 489 0 0 -964 661 -398 0 1362 661 0 0 511 -661 0 0 2285c0,189 11,310 35,364 22,54 60,97 113,129 52,31 127,47 225,47 73,0 169,-8 288,-26z"/>
  <path id="8" class="fil8" d="M66826 110730l684 90c-107,397 -306,706 -596,925 -291,220 -661,330 -1114,330 -568,0 -1019,-176 -1352,-526 -334,-349 -500,-842 -500,-1475 0,-653 168,-1162 505,-1522 336,-362 773,-543 1311,-543 520,0 945,177 1274,531 329,355 495,854 495,1496 0,38 -2,98 -4,175l-2904 0c24,427 145,756 363,982 216,227 488,341 812,341 242,0 449,-64 619,-192 172,-128 307,-332 407,-612zm-2164 -1060l2172 0c-29,-328 -113,-573 -250,-737 -209,-255 -482,-383 -816,-383 -303,0 -557,102 -764,305 -206,203 -319,475 -342,815z"/>
  <path id="9" class="fil8" d="M68338 111992l0 -3900 594 0 0 597c151,-276 291,-459 421,-547 129,-89 270,-133 424,-133 223,0 450,70 680,209l-235 610c-161,-89 -321,-135 -481,-135 -144,0 -273,44 -387,130 -114,87 -196,207 -244,361 -74,234 -111,491 -111,770l0 2038 -661 0z"/>
  <path id="10" class="fil8" d="M75025 113488l0 -5396 600 0 0 512c142,-198 302,-347 481,-446 178,-98 395,-149 649,-149 333,0 626,86 880,257 255,170 446,412 577,723 129,312 194,653 194,1025 0,396 -72,754 -214,1074 -143,318 -351,563 -624,733 -272,169 -559,254 -859,254 -221,0 -419,-47 -593,-139 -175,-93 -318,-210 -431,-351l0 1903 -660 0zm600 -3422c0,500 102,869 303,1108 204,240 449,360 737,360 293,0 543,-124 751,-372 209,-248 313,-632 313,-1151 0,-496 -101,-867 -305,-1114 -204,-246 -447,-369 -730,-369 -281,0 -529,132 -744,393 -217,263 -325,644 -325,1145z"/>
  <path id="11" class="fil8" d="M81864 110730l684 90c-107,397 -306,706 -596,925 -291,220 -661,330 -1114,330 -568,0 -1019,-176 -1352,-526 -334,-349 -500,-842 -500,-1475 0,-653 168,-1162 505,-1522 336,-362 773,-543 1311,-543 520,0 945,177 1274,531 329,355 495,854 495,1496 0,38 -2,98 -4,175l-2904 0c24,427 145,756 363,982 216,227 488,341 812,341 242,0 449,-64 619,-192 172,-128 307,-332 407,-612zm-2164 -1060l2172 0c-29,-328 -113,-573 -250,-737 -209,-255 -482,-383 -816,-383 -303,0 -557,102 -764,305 -206,203 -319,475 -342,815z"/>
  <path id="12" class="fil8" d="M83376 111992l0 -3900 594 0 0 597c151,-276 291,-459 421,-547 129,-89 270,-133 424,-133 223,0 450,70 680,209l-235 610c-161,-89 -321,-135 -481,-135 -144,0 -273,44 -387,130 -114,87 -196,207 -244,361 -74,234 -111,491 -111,770l0 2038 -661 0z"/>
  <path id="13" class="fil8" d="M86043 111992l0 -3389 -586 0 0 -511 586 0 0 -414c0,-261 23,-456 69,-582 65,-170 175,-309 335,-415 159,-107 383,-160 671,-160 187,0 392,23 618,67l-99 578c-138,-23 -267,-36 -390,-36 -200,0 -342,43 -426,128 -82,85 -123,244 -123,477l0 357 759 0 0 511 -752 0 0 3389 -662 0z"/>
  <path id="14" class="fil8" d="M87726 110042c0,-720 201,-1253 602,-1601 334,-288 744,-432 1227,-432 535,0 973,176 1313,526 340,350 510,835 510,1452 0,501 -75,894 -225,1181 -151,287 -369,510 -658,669 -287,159 -601,238 -940,238 -547,0 -987,-174 -1324,-524 -337,-349 -505,-853 -505,-1509zm676 1c0,499 109,872 327,1119 219,248 494,372 826,372 328,0 601,-124 820,-373 218,-249 327,-629 327,-1139 0,-481 -110,-846 -329,-1092 -220,-248 -492,-372 -818,-372 -332,0 -607,123 -826,369 -218,247 -327,619 -327,1116z"/>
  <path id="15" class="fil8" d="M92146 111992l0 -3900 594 0 0 597c151,-276 291,-459 421,-547 129,-89 270,-133 424,-133 223,0 450,70 680,209l-235 610c-161,-89 -321,-135 -481,-135 -144,0 -273,44 -387,130 -114,87 -196,207 -244,361 -74,234 -110,491 -110,770l0 2038 -662 0z"/>
  <path id="16" class="fil8" d="M94656 111992l0 -3900 594 0 0 551c121,-190 284,-344 487,-459 202,-117 433,-175 692,-175 288,0 525,60 710,180 183,120 313,286 389,502 310,-455 713,-682 1208,-682 389,0 688,106 896,321 209,214 314,544 314,988l0 2674 -661 0 0 -2454c0,-264 -23,-454 -65,-571 -43,-116 -121,-209 -234,-280 -113,-71 -246,-106 -397,-106 -276,0 -504,91 -686,273 -181,183 -271,474 -271,875l0 2263 -661 0 0 -2531c0,-293 -55,-513 -162,-660 -108,-146 -284,-220 -529,-220 -185,0 -356,48 -514,146 -158,98 -272,240 -343,430 -70,187 -106,459 -106,814l0 2021 -661 0z"/>
  <path id="17" class="fil8" d="M103463 111504c-246,209 -482,356 -709,442 -227,87 -469,129 -730,129 -428,0 -758,-104 -988,-313 -230,-208 -346,-475 -346,-799 0,-191 44,-365 130,-522 88,-158 202,-283 342,-379 142,-95 300,-168 477,-216 130,-34 326,-67 588,-99 533,-63 928,-139 1180,-227 2,-90 4,-148 4,-172 0,-268 -63,-457 -189,-567 -169,-149 -420,-223 -754,-223 -311,0 -541,55 -690,164 -149,109 -257,302 -329,580l-646 -90c59,-277 155,-501 291,-672 135,-170 330,-300 586,-393 254,-92 550,-138 886,-138 334,0 605,39 814,118 208,79 362,177 460,296 97,119 167,269 207,451 21,112 32,316 32,607l0 877c0,612 14,1000 42,1163 26,164 81,321 161,471l-691 0c-67,-139 -110,-302 -128,-488zm-52 -1466c-241,98 -602,181 -1083,248 -273,40 -466,83 -578,132 -113,49 -200,120 -260,213 -62,94 -93,197 -93,313 0,174 66,321 200,437 134,117 330,175 586,175 254,0 481,-54 680,-166 198,-111 344,-262 437,-454 72,-149 107,-368 107,-657l4 -241z"/>
  <path id="18" class="fil8" d="M105096 111992l0 -3900 593 0 0 554c286,-425 699,-637 1239,-637 235,0 451,43 647,127 196,84 345,195 443,332 97,136 166,299 204,487 24,123 37,337 37,643l0 2394 -661 0 0 -2369c0,-270 -26,-471 -77,-604 -51,-133 -142,-239 -273,-319 -130,-79 -284,-119 -459,-119 -281,0 -523,88 -727,268 -204,178 -306,517 -306,1016l0 2127 -660 0z"/>
  <path id="19" class="fil8" d="M111823 110564l646 91c-72,444 -252,792 -544,1043 -292,251 -651,377 -1076,377 -532,0 -961,-174 -1283,-522 -325,-348 -487,-847 -487,-1496 0,-420 70,-788 209,-1104 140,-314 351,-550 637,-707 284,-158 594,-237 929,-237 422,0 770,106 1037,321 269,214 442,519 518,911l-639 98c-62,-261 -170,-458 -326,-591 -155,-131 -343,-198 -564,-198 -332,0 -603,119 -812,357 -208,240 -312,615 -312,1131 0,524 100,903 300,1140 202,237 464,356 786,356 261,0 477,-79 650,-238 174,-158 284,-403 331,-732z"/>
  <path id="20" class="fil8" d="M115693 110730l683 90c-106,397 -305,706 -596,925 -290,220 -661,330 -1113,330 -568,0 -1019,-176 -1353,-526 -333,-349 -499,-842 -499,-1475 0,-653 167,-1162 504,-1522 337,-362 774,-543 1311,-543 521,0 945,177 1274,531 330,355 495,854 495,1496 0,38 -2,98 -4,175l-2904 0c25,427 145,756 363,982 217,227 488,341 813,341 242,0 448,-64 618,-192 173,-128 308,-332 408,-612zm-2165 -1060l2172 0c-28,-328 -112,-573 -249,-737 -209,-255 -482,-383 -817,-383 -302,0 -557,102 -763,305 -206,203 -320,475 -343,815z"/>
  <path id="21" class="fil8" d="M119292 111992l0 -3900 595 0 0 597c151,-276 291,-459 420,-547 129,-89 271,-133 425,-133 223,0 449,70 680,209l-236 610c-160,-89 -321,-135 -480,-135 -144,0 -274,44 -387,130 -115,87 -196,207 -245,361 -74,234 -110,491 -110,770l0 2038 -662 0z"/>
  <path id="22" class="fil8" d="M124463 110730l683 90c-106,397 -305,706 -596,925 -290,220 -661,330 -1113,330 -568,0 -1019,-176 -1353,-526 -333,-349 -499,-842 -499,-1475 0,-653 168,-1162 504,-1522 337,-362 774,-543 1311,-543 521,0 945,177 1275,531 329,355 494,854 494,1496 0,38 -1,98 -4,175l-2904 0c25,427 145,756 363,982 217,227 488,341 813,341 242,0 448,-64 619,-192 172,-128 307,-332 407,-612zm-2165 -1060l2172 0c-28,-328 -112,-573 -249,-737 -209,-255 -482,-383 -816,-383 -303,0 -558,102 -764,305 -206,203 -320,475 -343,815z"/>
  <path id="23" class="fil8" d="M127048 111992l-1471 -3900 707 0 834 2336c90,251 174,513 251,786 59,-206 139,-453 246,-742l867 -2380 679 0 -1476 3900 -637 0z"/>
  <path id="24" class="fil8" d="M129740 107363l0 -751 661 0 0 751 -661 0zm0 4629l0 -3900 661 0 0 3900 -661 0z"/>
  <path id="25" class="fil8" d="M134069 110730l684 90c-107,397 -306,706 -596,925 -291,220 -661,330 -1114,330 -568,0 -1019,-176 -1352,-526 -334,-349 -500,-842 -500,-1475 0,-653 168,-1162 505,-1522 336,-362 773,-543 1311,-543 520,0 945,177 1274,531 329,355 495,854 495,1496 0,38 -2,98 -5,175l-2903 0c24,427 144,756 363,982 216,227 488,341 812,341 242,0 449,-64 619,-192 172,-128 307,-332 407,-612zm-2164 -1060l2172 0c-29,-328 -113,-573 -250,-737 -209,-255 -482,-383 -816,-383 -303,0 -557,102 -764,305 -206,203 -319,475 -342,815z"/>
  <path id="26" class="fil8" d="M136290 111992l-1179 -3900 692 0 622 2251 221 838c9,-41 76,-310 201,-804l618 -2285 677 0 588 2265 192 742 223 -752 675 -2255 642 0 -1224 3900 -684 0 -619 -2333 -156 -668 -789 3001 -700 0z"/>
  <path id="27" class="fil8" d="M140752 110828l654 -106c36,262 139,463 307,603 168,139 403,209 703,209 305,0 530,-61 679,-185 146,-123 219,-269 219,-435 0,-149 -65,-267 -197,-352 -93,-59 -319,-133 -677,-224 -483,-122 -817,-227 -1006,-316 -186,-90 -327,-213 -424,-371 -97,-156 -145,-330 -145,-521 0,-174 40,-334 119,-482 80,-147 188,-271 325,-368 102,-76 242,-139 418,-192 178,-52 368,-79 571,-79 305,0 574,44 804,133 231,88 402,208 512,359 109,151 185,353 226,605l-646 91c-29,-203 -113,-362 -254,-477 -140,-113 -338,-170 -594,-170 -302,0 -519,50 -648,151 -129,100 -194,218 -194,352 0,85 26,162 79,231 55,70 139,130 254,176 66,25 259,81 582,169 466,124 792,227 977,306 185,79 331,195 436,345 106,152 159,339 159,565 0,219 -64,426 -193,620 -129,194 -314,345 -556,451 -243,107 -517,159 -823,159 -505,0 -893,-105 -1158,-315 -266,-210 -435,-521 -509,-932z"/>
  <polygon id="28" class="fil8" points="30487,119948 30487,119287 32530,119287 32530,119948 "/>
  <path id="29" class="fil8" d="M34418 121563l2064 -5380 783 0 2190 5380 -810 0 -622 -1630 -2266 0 -584 1630 -755 0zm1548 -2209l1834 0 -561 -1492c-169,-453 -298,-827 -386,-1123 -74,351 -173,695 -297,1036l-590 1579z"/>
  <path id="30" class="fil8" d="M42455 121563l0 -494c-247,384 -610,577 -1089,577 -311,0 -596,-85 -856,-257 -261,-170 -462,-409 -606,-715 -143,-307 -214,-659 -214,-1057 0,-388 65,-740 194,-1057 130,-315 324,-559 584,-727 258,-169 549,-253 868,-253 235,0 444,50 627,149 183,99 332,230 447,389l0 -1935 662 0 0 5380 -617 0zm-2089 -1945c0,498 106,870 317,1117 211,247 460,370 747,370 289,0 535,-118 737,-353 202,-236 303,-595 303,-1079 0,-530 -102,-921 -308,-1171 -206,-249 -461,-373 -763,-373 -294,0 -539,119 -737,358 -197,239 -296,616 -296,1131z"/>
  <path id="31" class="fil8" d="M46635 121563l0 -494c-247,384 -610,577 -1090,577 -310,0 -596,-85 -855,-257 -261,-170 -463,-409 -607,-715 -142,-307 -214,-659 -214,-1057 0,-388 65,-740 195,-1057 130,-315 324,-559 583,-727 259,-169 549,-253 869,-253 235,0 444,50 627,149 183,99 332,230 447,389l0 -1935 662 0 0 5380 -617 0zm-2089 -1945c0,498 105,870 317,1117 211,247 459,370 746,370 289,0 535,-118 738,-353 202,-236 303,-595 303,-1079 0,-530 -102,-921 -309,-1171 -206,-249 -460,-373 -762,-373 -294,0 -539,119 -737,358 -197,239 -296,616 -296,1131z"/>
  <path id="32" class="fil8" d="M52933 121563l0 -580c-303,443 -714,663 -1233,663 -230,0 -444,-44 -643,-131 -199,-89 -347,-200 -443,-333 -97,-133 -165,-296 -203,-490 -27,-130 -41,-335 -41,-615l0 -2414 662 0 0 2158c0,345 13,578 40,696 42,175 129,310 265,408 133,100 298,150 497,150 197,0 382,-50 555,-152 173,-101 296,-240 369,-414 71,-175 107,-429 107,-761l0 -2085 662 0 0 3900 -594 0z"/>
  <path id="33" class="fil8" d="M54566 121563l0 -3900 593 0 0 554c286,-425 699,-637 1239,-637 235,0 451,43 647,127 196,84 345,195 443,332 97,136 166,299 205,487 23,123 36,337 36,643l0 2394 -661 0 0 -2369c0,-270 -26,-471 -77,-604 -51,-133 -142,-239 -273,-319 -130,-79 -284,-119 -459,-119 -281,0 -523,88 -727,268 -204,178 -305,517 -305,1016l0 2127 -661 0z"/>
  <path id="34" class="fil8" d="M58745 116934l0 -751 661 0 0 751 -661 0zm0 4629l0 -3900 661 0 0 3900 -661 0z"/>
  <path id="35" class="fil8" d="M62898 123059l0 -1914c-103,144 -247,263 -431,358 -184,96 -381,143 -589,143 -462,0 -858,-184 -1193,-554 -334,-368 -500,-874 -500,-1515 0,-391 67,-741 203,-1053 136,-308 333,-544 591,-703 258,-161 541,-241 850,-241 481,0 860,202 1136,607l0 -524 594 0 0 5396 -661 0zm-2037 -3457c0,501 106,876 316,1127 210,251 462,376 756,376 282,0 524,-119 728,-357 203,-239 304,-601 304,-1087 0,-518 -108,-909 -322,-1170 -214,-262 -464,-392 -753,-392 -287,0 -531,122 -730,364 -198,243 -299,623 -299,1139z"/>
  <path id="36" class="fil8" d="M67142 121563l0 -580c-304,443 -715,663 -1234,663 -230,0 -444,-44 -643,-131 -199,-89 -346,-200 -443,-333 -97,-133 -164,-296 -203,-490 -26,-130 -40,-335 -40,-615l0 -2414 661 0 0 2158c0,345 14,578 40,696 42,175 129,310 265,408 133,100 299,150 497,150 198,0 383,-50 556,-152 172,-101 295,-240 368,-414 71,-175 107,-429 107,-761l0 -2085 662 0 0 3900 -593 0z"/>
  <path id="37" class="fil8" d="M71434 120301l683 90c-106,397 -305,706 -596,925 -290,220 -661,330 -1113,330 -568,0 -1019,-176 -1353,-526 -333,-349 -499,-842 -499,-1475 0,-653 168,-1162 504,-1522 337,-362 774,-543 1312,-543 520,0 944,177 1274,531 329,355 494,854 494,1496 0,38 -1,98 -4,175l-2904 0c25,427 145,756 363,982 217,227 488,341 813,341 242,0 448,-64 619,-192 172,-128 307,-332 407,-612zm-2165 -1060l2173 0c-29,-328 -113,-573 -250,-737 -209,-255 -482,-383 -816,-383 -303,0 -558,102 -764,305 -206,203 -320,475 -343,815z"/>
  <path id="38" class="fil8" d="M75042 121563l0 -3900 593 0 0 554c286,-425 699,-637 1239,-637 235,0 451,43 647,127 197,84 345,195 443,332 97,136 166,299 205,487 24,123 36,337 36,643l0 2394 -661 0 0 -2369c0,-270 -26,-471 -77,-604 -51,-133 -142,-239 -273,-319 -130,-79 -284,-119 -459,-119 -281,0 -523,88 -727,268 -204,178 -305,517 -305,1016l0 2127 -661 0z"/>
  <path id="39" class="fil8" d="M81882 120301l683 90c-106,397 -305,706 -596,925 -291,220 -661,330 -1114,330 -568,0 -1019,-176 -1352,-526 -333,-349 -500,-842 -500,-1475 0,-653 168,-1162 505,-1522 337,-362 774,-543 1311,-543 520,0 945,177 1274,531 330,355 495,854 495,1496 0,38 -2,98 -4,175l-2904 0c25,427 145,756 363,982 216,227 488,341 812,341 242,0 449,-64 619,-192 172,-128 307,-332 408,-612zm-2165 -1060l2172 0c-29,-328 -113,-573 -249,-737 -209,-255 -483,-383 -817,-383 -303,0 -557,102 -764,305 -205,203 -319,475 -342,815z"/>
  <path id="40" class="fil8" d="M84102 121563l-1178 -3900 691 0 622 2251 221 838c9,-41 77,-310 202,-804l617 -2285 677 0 588 2265 192 742 224 -752 674 -2255 642 0 -1223 3900 -684 0 -619 -2333 -157 -668 -789 3001 -700 0z"/>
  <path id="41" class="fil8" d="M90916 121563l0 -3900 593 0 0 551c121,-190 284,-344 488,-459 202,-117 433,-175 692,-175 288,0 525,60 710,180 183,120 313,286 389,502 310,-455 713,-682 1208,-682 389,0 688,106 896,321 209,214 314,544 314,988l0 2674 -661 0 0 -2454c0,-264 -23,-454 -65,-571 -43,-116 -121,-209 -234,-280 -113,-71 -246,-106 -397,-106 -276,0 -504,91 -686,273 -181,183 -271,474 -271,875l0 2263 -661 0 0 -2531c0,-293 -55,-513 -163,-660 -107,-146 -284,-220 -528,-220 -185,0 -356,48 -514,146 -158,98 -272,240 -344,430 -70,187 -105,459 -105,814l0 2021 -661 0z"/>
  <path id="42" class="fil8" d="M99723 121075c-246,209 -482,356 -709,442 -227,87 -469,129 -730,129 -428,0 -758,-104 -988,-313 -231,-208 -346,-475 -346,-799 0,-191 44,-365 130,-522 87,-158 202,-283 342,-379 141,-95 299,-168 476,-216 130,-34 327,-67 589,-99 533,-63 928,-139 1179,-227 3,-90 5,-148 5,-172 0,-268 -63,-457 -189,-567 -169,-149 -421,-223 -754,-223 -311,0 -542,55 -690,164 -149,109 -257,302 -329,580l-646 -90c58,-277 155,-501 290,-672 135,-170 331,-300 587,-393 254,-92 550,-138 886,-138 333,0 605,39 814,118 208,79 362,177 460,295 97,120 166,270 207,452 21,112 32,316 32,607l0 877c0,612 14,1000 42,1163 25,164 81,321 161,471l-691 0c-67,-139 -110,-302 -128,-488zm-52 -1466c-241,98 -602,180 -1083,248 -273,39 -466,83 -579,132 -112,49 -199,120 -260,213 -61,94 -93,197 -93,313 0,174 67,321 200,437 135,117 330,175 587,175 254,0 481,-54 680,-166 198,-111 344,-262 437,-454 72,-149 106,-368 106,-657l5 -241z"/>
  <path id="43" class="fil8" d="M101347 121563l0 -3900 594 0 0 597c152,-276 292,-459 421,-547 129,-89 271,-133 425,-133 223,0 449,70 680,209l-236 610c-160,-89 -321,-135 -480,-135 -145,0 -274,44 -387,130 -115,87 -196,207 -245,361 -74,234 -110,491 -110,770l0 2038 -662 0z"/>
  <polygon id="44" class="fil8" points="103860,121563 103860,116183 104521,116183 104521,119247 106084,117663 106938,117663 105450,119112 107088,121563 106274,121563 104979,119571 104521,120017 104521,121563 "/>
  <path id="45" class="fil8" d="M110275 120301l683 90c-106,397 -305,706 -595,925 -291,220 -661,330 -1114,330 -568,0 -1019,-176 -1352,-526 -334,-349 -500,-842 -500,-1475 0,-653 168,-1162 504,-1522 337,-362 774,-543 1312,-543 520,0 945,177 1274,531 329,355 495,854 495,1496 0,38 -2,98 -5,175l-2903 0c24,427 144,756 362,982 217,227 489,341 813,341 242,0 448,-64 619,-192 172,-128 307,-332 407,-612zm-2164 -1060l2172 0c-29,-328 -113,-573 -250,-737 -209,-255 -482,-383 -816,-383 -303,0 -557,102 -764,305 -206,203 -319,475 -342,815z"/>
  <path id="46" class="fil8" d="M113229 120973l91 584c-185,39 -352,59 -497,59 -240,0 -425,-38 -557,-114 -132,-76 -225,-176 -279,-299 -54,-125 -80,-385 -80,-782l0 -2247 -488 0 0 -511 488 0 0 -964 661 -398 0 1362 661 0 0 511 -661 0 0 2285c0,189 12,310 36,364 22,54 60,97 113,129 51,31 127,47 224,47 74,0 170,-8 288,-26z"/>
  <path id="47" class="fil8" d="M113883 116934l0 -751 661 0 0 751 -661 0zm0 4629l0 -3900 661 0 0 3900 -661 0z"/>
  <path id="48" class="fil8" d="M115552 121563l0 -3900 594 0 0 554c285,-425 698,-637 1238,-637 236,0 451,43 647,127 197,84 345,195 443,332 97,136 166,299 205,487 24,123 36,337 36,643l0 2394 -661 0 0 -2369c0,-270 -25,-471 -76,-604 -51,-133 -143,-239 -273,-319 -130,-79 -284,-119 -460,-119 -280,0 -522,88 -727,268 -204,178 -305,517 -305,1016l0 2127 -661 0z"/>
  <path id="49" class="fil8" d="M119610 121887l639 89c26,199 101,343 224,434 164,121 388,183 673,183 305,0 542,-62 709,-183 166,-122 279,-293 338,-513 34,-134 50,-415 47,-845 -289,341 -649,511 -1079,511 -536,0 -953,-192 -1246,-580 -293,-385 -440,-849 -440,-1389 0,-372 68,-715 202,-1029 133,-315 329,-556 584,-728 256,-171 557,-257 902,-257 460,0 839,188 1138,564l0 -481 608 0 0 3368c0,607 -62,1037 -185,1290 -123,253 -320,453 -586,600 -269,147 -598,220 -989,220 -464,0 -839,-104 -1124,-313 -287,-208 -425,-522 -415,-941zm541 -2340c0,509 102,881 304,1116 204,234 459,352 764,352 305,0 559,-117 766,-350 205,-233 308,-598 308,-1097 0,-476 -107,-835 -318,-1077 -212,-242 -468,-362 -766,-362 -294,0 -543,119 -750,357 -205,238 -308,591 -308,1061z"/>
  <path id="50" class="fil8" d="M128547 120135l646 91c-71,444 -252,792 -544,1043 -291,251 -651,377 -1075,377 -532,0 -961,-174 -1284,-522 -325,-348 -486,-847 -486,-1496 0,-420 70,-788 209,-1104 139,-314 351,-550 636,-707 285,-158 594,-237 929,-237 423,0 770,106 1038,321 269,214 442,519 517,911l-638 98c-62,-261 -170,-458 -326,-591 -156,-131 -344,-198 -564,-198 -333,0 -604,119 -813,357 -208,240 -312,615 -312,1131 0,524 101,903 301,1140 202,237 463,356 785,356 261,0 477,-79 650,-238 174,-158 284,-403 331,-732z"/>
  <path id="51" class="fil8" d="M132305 121075c-246,209 -483,356 -710,442 -226,87 -469,129 -730,129 -428,0 -757,-104 -988,-313 -230,-208 -345,-475 -345,-799 0,-191 43,-365 130,-522 87,-158 201,-283 341,-379 142,-95 300,-168 477,-216 130,-34 327,-67 588,-99 534,-63 928,-139 1180,-227 2,-90 4,-148 4,-172 0,-268 -63,-457 -188,-567 -169,-149 -421,-223 -754,-223 -312,0 -542,55 -690,164 -149,109 -258,302 -329,580l-647 -90c59,-277 155,-501 291,-672 135,-170 330,-300 586,-393 254,-92 551,-138 886,-138 334,0 605,39 815,118 208,79 362,177 460,295 97,120 166,270 206,452 22,112 32,316 32,607l0 877c0,612 14,1000 42,1163 26,164 81,321 162,471l-692 0c-66,-139 -109,-302 -127,-488zm-53 -1466c-240,98 -602,180 -1082,248 -274,39 -466,83 -579,132 -113,49 -199,120 -260,213 -62,94 -93,197 -93,313 0,174 67,321 200,437 134,117 330,175 587,175 253,0 480,-54 680,-166 197,-111 344,-262 437,-454 71,-149 106,-368 106,-657l4 -241z"/>
  <path id="52" class="fil8" d="M133937 123059l0 -5396 601 0 0 512c141,-198 302,-347 480,-446 178,-99 396,-149 650,-149 332,0 625,86 880,257 254,170 446,412 576,723 129,312 194,652 194,1025 0,396 -71,754 -214,1074 -143,318 -350,563 -624,733 -271,169 -559,254 -859,254 -221,0 -418,-47 -593,-139 -175,-93 -317,-210 -430,-351l0 1903 -661 0zm601 -3422c0,500 101,869 303,1108 203,240 448,360 736,360 293,0 544,-125 752,-372 209,-248 313,-632 313,-1151 0,-496 -102,-867 -306,-1114 -204,-247 -447,-369 -730,-369 -281,0 -528,132 -744,393 -216,263 -324,644 -324,1145z"/>
  <path id="53" class="fil8" d="M140664 121075c-246,209 -482,356 -709,442 -227,87 -470,129 -731,129 -428,0 -757,-104 -987,-313 -231,-208 -346,-475 -346,-799 0,-191 44,-365 130,-522 87,-158 202,-283 342,-379 141,-95 299,-168 476,-216 130,-34 327,-67 589,-99 533,-63 927,-139 1179,-227 3,-90 4,-148 4,-172 0,-268 -62,-457 -188,-567 -169,-149 -421,-223 -754,-223 -311,0 -542,55 -690,164 -149,109 -257,302 -329,580l-646 -90c58,-277 155,-501 290,-672 135,-170 330,-300 586,-393 255,-92 551,-138 887,-138 333,0 605,39 814,118 208,79 362,177 460,295 97,120 166,270 207,452 21,112 32,316 32,607l0 877c0,612 14,1000 42,1163 25,164 80,321 161,471l-691 0c-67,-139 -110,-302 -128,-488zm-53 -1466c-240,98 -601,180 -1082,248 -273,39 -466,83 -579,132 -112,49 -199,120 -260,213 -61,94 -93,197 -93,313 0,174 67,321 200,437 134,117 330,175 587,175 254,0 481,-54 680,-166 198,-111 344,-262 437,-454 72,-149 106,-368 106,-657l4 -241z"/>
  <path id="54" class="fil8" d="M142905 121563l-617 0 0 -5380 662 0 0 1920c279,-348 634,-523 1068,-523 240,0 467,48 682,144 214,97 389,233 528,408 138,175 247,385 324,632 79,245 118,509 118,790 0,667 -165,1183 -495,1546 -330,364 -726,546 -1188,546 -460,0 -821,-191 -1082,-573l0 490zm-8 -1978c0,465 64,802 190,1010 208,339 489,510 843,510 290,0 539,-125 748,-376 210,-251 316,-623 316,-1120 0,-508 -100,-883 -302,-1124 -201,-242 -446,-364 -731,-364 -290,0 -539,126 -749,376 -210,250 -315,613 -315,1088z"/>
  <path id="55" class="fil8" d="M146476 116934l0 -751 661 0 0 751 -661 0zm0 4629l0 -3900 661 0 0 3900 -661 0z"/>
  <polygon id="56" class="fil8" points="148130,121563 148130,116183 148791,116183 148791,121563 "/>
  <path id="57" class="fil8" d="M149814 116934l0 -751 661 0 0 751 -661 0zm0 4629l0 -3900 661 0 0 3900 -661 0z"/>
  <path id="58" class="fil8" d="M152918 120973l91 584c-185,39 -352,59 -497,59 -240,0 -425,-38 -558,-114 -131,-76 -224,-176 -278,-299 -54,-125 -80,-385 -80,-782l0 -2247 -488 0 0 -511 488 0 0 -964 661 -398 0 1362 661 0 0 511 -661 0 0 2285c0,189 12,310 36,364 22,54 60,97 113,129 51,31 127,47 224,47 73,0 170,-8 288,-26z"/>
  <path id="59" class="fil8" d="M153572 116934l0 -751 661 0 0 751 -661 0zm0 4629l0 -3900 661 0 0 3900 -661 0z"/>
  <path id="60" class="fil8" d="M157901 120301l684 90c-107,397 -306,706 -596,925 -291,220 -661,330 -1114,330 -568,0 -1019,-176 -1352,-526 -334,-349 -500,-842 -500,-1475 0,-653 168,-1162 505,-1522 336,-362 773,-543 1311,-543 520,0 945,177 1274,531 329,355 495,854 495,1496 0,38 -2,98 -5,175l-2903 0c24,427 144,756 363,982 216,227 488,341 812,341 242,0 449,-64 619,-192 172,-128 307,-332 407,-612zm-2164 -1060l2172 0c-29,-328 -113,-573 -250,-737 -209,-255 -482,-383 -816,-383 -303,0 -557,102 -764,305 -206,203 -319,475 -342,815z"/>
  <path id="61" class="fil8" d="M159157 120399l654 -106c36,262 139,463 307,603 168,139 403,209 704,209 304,0 530,-61 678,-185 146,-123 220,-269 220,-435 0,-149 -66,-267 -198,-352 -93,-59 -318,-133 -676,-224 -484,-122 -818,-227 -1006,-316 -186,-90 -328,-213 -425,-371 -96,-156 -145,-331 -145,-521 0,-174 40,-334 120,-482 79,-147 187,-271 324,-368 102,-76 243,-139 419,-192 178,-52 367,-79 570,-79 306,0 574,44 804,133 232,88 402,208 512,359 109,151 186,353 227,605l-646 91c-29,-203 -114,-362 -255,-477 -140,-113 -337,-170 -594,-170 -302,0 -519,50 -648,151 -129,100 -194,218 -194,352 0,85 26,162 80,231 54,70 138,129 253,176 66,25 260,81 582,169 466,124 792,226 977,306 185,79 331,195 436,345 107,152 159,339 159,565 0,219 -64,426 -192,620 -130,194 -315,345 -557,451 -243,107 -517,159 -823,159 -505,0 -893,-105 -1158,-315 -266,-210 -435,-521 -509,-932z"/>
  <path id="62" class="fil8" d="M39260 131134l0 -3389 -586 0 0 -511 586 0 0 -414c0,-261 23,-456 69,-582 64,-170 175,-309 334,-415 160,-107 384,-160 672,-160 187,0 392,23 617,67l-98 578c-139,-23 -267,-36 -390,-36 -201,0 -342,43 -426,128 -82,85 -124,244 -124,477l0 357 759 0 0 511 -751 0 0 3389 -662 0z"/>
  <path id="63" class="fil8" d="M40943 129184c0,-720 200,-1253 602,-1601 334,-288 744,-432 1226,-432 535,0 973,176 1314,526 340,350 510,835 510,1452 0,501 -75,894 -225,1181 -151,287 -370,510 -658,669 -287,159 -601,238 -941,238 -546,0 -986,-174 -1323,-524 -338,-349 -505,-853 -505,-1509zm676 1c0,499 109,872 327,1119 219,247 494,372 825,372 329,0 601,-125 821,-373 217,-249 327,-629 327,-1139 0,-481 -110,-846 -329,-1092 -220,-248 -493,-372 -819,-372 -331,0 -606,123 -825,369 -218,247 -327,619 -327,1116z"/>
  <path id="64" class="fil8" d="M45363 131134l0 -3900 594 0 0 597c151,-276 291,-459 420,-547 130,-89 271,-133 425,-133 223,0 450,70 680,209l-235 610c-161,-89 -321,-135 -481,-135 -144,0 -273,44 -387,130 -114,87 -196,207 -244,361 -74,234 -111,491 -111,770l0 2038 -661 0z"/>
  <path id="65" class="fil8" d="M52509 131134l0 -580c-304,443 -715,663 -1234,663 -230,0 -444,-44 -643,-131 -199,-89 -347,-200 -443,-333 -97,-133 -164,-296 -203,-490 -26,-130 -40,-335 -40,-615l0 -2414 661 0 0 2158c0,345 13,578 40,696 42,175 129,310 265,408 133,100 299,150 497,150 198,0 383,-50 556,-152 172,-101 295,-240 368,-414 71,-175 107,-429 107,-761l0 -2085 662 0 0 3900 -593 0z"/>
  <path id="66" class="fil8" d="M54749 131134l-616 0 0 -5380 661 0 0 1920c279,-348 635,-523 1069,-523 239,0 466,48 681,144 214,97 390,233 529,408 137,175 247,385 324,632 79,245 118,509 118,790 0,667 -166,1183 -495,1546 -331,364 -727,546 -1188,546 -461,0 -821,-191 -1083,-573l0 490zm-7 -1978c0,465 64,802 190,1010 208,339 489,510 843,510 289,0 539,-125 748,-376 210,-251 315,-623 315,-1120 0,-508 -99,-883 -301,-1124 -202,-242 -446,-364 -732,-364 -290,0 -538,126 -748,376 -210,250 -315,613 -315,1088z"/>
  <path id="67" class="fil8" d="M60145 129970l654 -106c36,262 139,463 307,603 168,139 403,209 704,209 304,0 530,-61 678,-185 146,-123 220,-269 220,-435 0,-149 -66,-267 -198,-352 -93,-59 -318,-133 -676,-224 -484,-122 -818,-227 -1006,-316 -186,-90 -328,-213 -425,-371 -96,-156 -145,-331 -145,-521 0,-174 40,-334 119,-482 80,-147 188,-271 325,-368 102,-76 243,-139 419,-192 178,-52 367,-79 570,-79 306,0 574,44 804,133 232,88 402,208 512,359 109,151 185,353 227,605l-646 91c-29,-203 -114,-362 -255,-477 -140,-113 -337,-170 -594,-170 -302,0 -519,50 -648,151 -129,100 -194,218 -194,352 0,85 26,162 80,231 54,70 138,129 253,176 66,25 259,81 582,169 466,124 792,226 977,305 185,80 331,196 436,346 107,152 159,339 159,565 0,219 -64,426 -192,620 -130,194 -315,345 -557,451 -243,107 -517,159 -823,159 -505,0 -893,-105 -1158,-315 -266,-210 -435,-521 -509,-932z"/>
  <path id="68" class="fil8" d="M66826 129872l684 90c-107,397 -306,706 -596,925 -291,220 -661,330 -1114,330 -568,0 -1019,-176 -1352,-526 -334,-349 -500,-842 -500,-1475 0,-653 168,-1162 505,-1522 336,-362 773,-543 1311,-543 520,0 945,177 1274,531 329,355 495,854 495,1496 0,38 -2,98 -4,175l-2904 0c24,427 145,756 363,982 216,227 488,341 812,341 242,0 449,-64 619,-192 172,-128 307,-332 407,-612zm-2164 -1060l2172 0c-29,-328 -113,-573 -250,-737 -209,-255 -482,-383 -816,-383 -303,0 -557,102 -764,305 -206,203 -319,475 -342,815z"/>
  <path id="69" class="fil8" d="M70893 130646c-246,209 -482,356 -709,442 -226,87 -469,129 -730,129 -428,0 -757,-104 -988,-313 -230,-208 -346,-475 -346,-799 0,-191 44,-365 130,-522 88,-158 202,-283 342,-379 142,-95 300,-168 477,-216 130,-34 326,-67 588,-99 533,-63 928,-139 1180,-227 2,-90 4,-148 4,-172 0,-268 -63,-457 -189,-567 -169,-149 -420,-223 -754,-223 -311,0 -541,55 -690,164 -148,109 -257,302 -329,580l-646 -90c59,-277 155,-501 291,-672 135,-170 330,-300 586,-393 254,-92 550,-138 886,-138 334,0 605,39 814,118 208,79 362,177 460,295 97,120 167,270 207,452 21,112 32,316 32,607l0 877c0,612 14,1000 42,1163 26,164 81,321 161,471l-691 0c-67,-139 -110,-302 -128,-488zm-52 -1466c-241,98 -602,180 -1083,248 -273,39 -466,83 -578,132 -113,49 -200,120 -260,213 -62,94 -93,197 -93,313 0,174 66,321 200,437 134,117 330,175 586,175 254,0 481,-54 680,-166 198,-111 344,-262 437,-454 72,-149 107,-368 107,-657l4 -241z"/>
  <path id="70" class="fil8" d="M72517 131134l0 -3900 595 0 0 597c151,-276 291,-459 420,-547 129,-89 271,-133 425,-133 223,0 449,70 680,209l-236 610c-160,-89 -321,-135 -480,-135 -144,0 -274,44 -387,130 -115,87 -196,207 -245,361 -74,234 -110,491 -110,770l0 2038 -662 0z"/>
  <path id="71" class="fil8" d="M77575 129706l646 91c-71,444 -251,792 -544,1043 -291,251 -651,377 -1075,377 -532,0 -961,-174 -1284,-522 -325,-348 -486,-847 -486,-1496 0,-420 70,-788 209,-1104 139,-314 351,-550 636,-707 285,-158 594,-237 929,-237 423,0 770,106 1038,321 269,214 442,519 517,911l-638 98c-62,-261 -170,-458 -326,-591 -156,-131 -344,-198 -564,-198 -333,0 -603,119 -813,357 -208,240 -312,615 -312,1131 0,524 101,903 301,1140 202,237 463,356 785,356 261,0 478,-79 650,-238 174,-158 284,-403 331,-732z"/>
  <path id="72" class="fil8" d="M78785 131134l0 -5380 661 0 0 1936c307,-359 694,-539 1162,-539 288,0 536,57 749,171 212,114 363,270 455,470 92,201 136,493 136,874l0 2468 -661 0 0 -2466c0,-329 -71,-570 -213,-720 -142,-151 -343,-226 -603,-226 -194,0 -377,51 -549,152 -171,101 -293,239 -367,413 -73,173 -109,413 -109,718l0 2129 -661 0z"/>
  <path id="73" class="fil8" d="M85625 129872l683 90c-106,397 -305,706 -596,925 -290,220 -661,330 -1113,330 -568,0 -1019,-176 -1353,-526 -333,-349 -499,-842 -499,-1475 0,-653 168,-1162 504,-1522 337,-362 774,-543 1312,-543 520,0 944,177 1274,531 329,355 494,854 494,1496 0,38 -1,98 -4,175l-2904 0c25,427 145,756 363,982 217,227 488,341 813,341 242,0 448,-64 619,-192 172,-128 307,-332 407,-612zm-2165 -1060l2173 0c-29,-328 -113,-573 -250,-737 -209,-255 -482,-383 -816,-383 -303,0 -558,102 -764,305 -206,203 -320,475 -343,815z"/>
  <path id="74" class="fil8" d="M86881 129970l654 -106c36,262 139,463 307,603 168,139 403,209 704,209 304,0 530,-61 678,-185 146,-123 220,-269 220,-435 0,-149 -66,-267 -198,-352 -93,-59 -319,-133 -677,-224 -483,-122 -817,-227 -1005,-316 -186,-90 -328,-213 -425,-371 -96,-156 -145,-331 -145,-521 0,-174 40,-334 119,-482 80,-147 188,-271 325,-368 102,-76 242,-139 419,-192 177,-52 367,-79 570,-79 305,0 574,44 804,133 231,88 402,208 512,359 109,151 185,353 226,605l-646 91c-28,-203 -113,-362 -254,-477 -140,-113 -337,-170 -594,-170 -302,0 -519,50 -648,151 -129,100 -194,218 -194,352 0,85 26,162 80,231 54,70 138,129 253,176 66,25 259,81 582,169 466,124 792,226 977,305 185,80 331,196 436,346 106,152 159,339 159,565 0,219 -64,426 -192,620 -130,194 -315,345 -557,451 -243,107 -517,159 -823,159 -505,0 -893,-105 -1158,-315 -266,-210 -435,-521 -509,-932z"/>
  <path id="75" class="fil8" d="M95538 130646c-246,209 -483,356 -710,442 -226,87 -469,129 -730,129 -428,0 -757,-104 -988,-313 -230,-208 -345,-475 -345,-799 0,-191 43,-365 130,-522 87,-158 201,-283 341,-379 142,-95 300,-168 477,-216 130,-34 327,-67 588,-99 534,-63 928,-139 1180,-227 2,-90 4,-148 4,-172 0,-268 -62,-457 -188,-567 -169,-149 -421,-223 -754,-223 -312,0 -542,55 -690,164 -149,109 -258,302 -329,580l-647 -90c59,-277 155,-501 291,-672 135,-170 330,-300 586,-393 254,-92 551,-138 887,-138 333,0 605,39 814,118 208,79 362,177 460,295 97,120 166,270 206,452 22,112 32,316 32,607l0 877c0,612 14,1000 42,1163 26,164 81,321 162,471l-692 0c-66,-139 -109,-302 -127,-488zm-53 -1466c-240,98 -602,180 -1082,248 -274,39 -466,83 -579,132 -113,49 -199,120 -260,213 -62,94 -93,197 -93,313 0,174 67,321 200,437 134,117 330,175 587,175 253,0 481,-54 680,-166 197,-111 344,-262 437,-454 71,-149 106,-368 106,-657l4 -241z"/>
  <path id="76" class="fil8" d="M97170 131134l0 -3900 593 0 0 554c286,-425 699,-637 1239,-637 236,0 451,43 647,127 197,84 345,195 443,332 97,136 166,299 205,487 24,123 36,337 36,643l0 2394 -661 0 0 -2369c0,-270 -25,-471 -76,-604 -51,-133 -143,-239 -274,-319 -130,-79 -284,-120 -459,-120 -281,0 -523,89 -727,269 -204,178 -305,517 -305,1016l0 2127 -661 0z"/>
  <path id="77" class="fil8" d="M103867 131134l0 -494c-247,384 -610,577 -1090,577 -310,0 -596,-85 -855,-257 -261,-170 -463,-409 -607,-715 -142,-307 -214,-659 -214,-1057 0,-388 65,-740 194,-1057 130,-316 325,-559 584,-727 258,-169 549,-253 868,-253 236,0 445,50 627,149 183,99 332,230 447,389l0 -1935 662 0 0 5380 -616 0zm-2089 -1945c0,498 105,870 317,1117 210,247 459,370 746,370 289,0 535,-118 738,-353 201,-236 302,-595 302,-1079 0,-531 -102,-921 -308,-1171 -206,-249 -460,-373 -762,-373 -294,0 -540,119 -738,358 -197,239 -295,616 -295,1131z"/>
  <path id="78" class="fil8" d="M107496 131458l638 89c27,199 102,343 224,434 165,121 389,183 674,183 305,0 541,-62 708,-183 167,-122 279,-293 339,-513 33,-134 50,-415 46,-845 -288,341 -648,511 -1079,511 -535,0 -952,-192 -1245,-580 -294,-385 -440,-849 -440,-1389 0,-372 67,-715 201,-1029 134,-315 330,-556 585,-728 256,-171 556,-257 902,-257 459,0 839,188 1137,564l0 -481 609 0 0 3368c0,607 -62,1037 -186,1290 -122,253 -319,453 -586,600 -268,147 -597,220 -988,220 -464,0 -839,-104 -1124,-313 -288,-208 -425,-522 -415,-941zm540 -2340c0,509 103,881 305,1116 204,234 458,352 764,352 304,0 559,-117 765,-350 206,-233 308,-598 308,-1097 0,-476 -106,-835 -318,-1077 -211,-242 -467,-362 -765,-362 -294,0 -543,119 -750,357 -206,238 -309,591 -309,1061z"/>
  <path id="79" class="fil8" d="M111797 126505l0 -751 661 0 0 751 -661 0zm0 4629l0 -3900 661 0 0 3900 -661 0z"/>
  <path id="80" class="fil8" d="M113345 131458l638 89c27,199 102,343 224,434 165,121 389,183 674,183 305,0 541,-62 708,-183 166,-122 279,-293 339,-513 33,-134 50,-415 46,-845 -288,341 -648,511 -1079,511 -535,0 -952,-192 -1245,-580 -294,-385 -440,-849 -440,-1389 0,-372 67,-715 201,-1029 134,-315 330,-556 585,-728 256,-171 556,-257 902,-257 459,0 839,188 1137,564l0 -481 609 0 0 3368c0,607 -62,1037 -186,1290 -122,253 -319,453 -586,600 -268,147 -597,220 -988,220 -464,0 -839,-104 -1125,-313 -287,-208 -424,-522 -414,-941zm540 -2340c0,509 102,881 305,1116 204,234 458,352 764,352 304,0 559,-117 765,-350 206,-233 308,-598 308,-1097 0,-476 -106,-835 -318,-1077 -211,-242 -467,-362 -765,-362 -294,0 -543,119 -750,357 -206,238 -309,591 -309,1061z"/>
  <path id="81" class="fil8" d="M120436 131134l-1179 -3900 691 0 623 2251 220 838c9,-42 77,-310 202,-805l617 -2284 678 0 587 2265 192 742 224 -752 674 -2255 642 0 -1223 3900 -684 0 -619 -2333 -156 -668 -790 3001 -699 0z"/>
  <path id="82" class="fil8" d="M124912 129184c0,-720 201,-1253 603,-1601 334,-288 744,-432 1226,-432 535,0 973,176 1314,526 340,350 510,835 510,1452 0,501 -75,894 -225,1181 -151,287 -370,510 -658,669 -287,159 -602,238 -941,238 -546,0 -987,-174 -1323,-524 -338,-349 -506,-853 -506,-1509zm677 1c0,499 109,872 327,1119 219,247 494,372 825,372 329,0 601,-125 821,-373 217,-249 327,-629 327,-1139 0,-481 -111,-846 -329,-1092 -220,-248 -493,-372 -819,-372 -331,0 -606,123 -825,369 -218,247 -327,619 -327,1116z"/>
  <path id="83" class="fil8" d="M129332 131134l0 -3900 595 0 0 597c151,-276 291,-459 420,-547 130,-89 271,-133 425,-133 223,0 449,70 680,209l-235 610c-161,-89 -321,-135 -481,-135 -144,0 -273,44 -387,130 -114,87 -196,207 -244,361 -75,234 -111,491 -111,770l0 2038 -662 0z"/>
  <polygon id="84" class="fil8" points="131845,131134 131845,125754 132506,125754 132506,128818 134069,127234 134924,127234 133436,128683 135074,131134 134260,131134 132965,129142 132506,129588 132506,131134 "/>
  <polygon id="85" class="fil8" points="30487,139089 30487,138429 32530,138429 32530,139089 "/>
  <path id="86" class="fil8" d="M34418 140705l2064 -5380 783 0 2190 5380 -810 0 -622 -1630 -2266 0 -584 1630 -755 0zm1548 -2209l1834 0 -561 -1492c-169,-453 -298,-827 -386,-1123 -74,351 -173,695 -297,1035l-590 1580z"/>
  <path id="87" class="fil8" d="M39938 140705l0 -3900 594 0 0 553c285,-424 699,-636 1239,-636 235,0 451,43 647,127 196,84 344,195 442,332 97,136 167,299 205,487 24,123 36,337 36,643l0 2394 -660 0 0 -2369c0,-270 -26,-471 -77,-604 -51,-133 -142,-239 -273,-319 -130,-79 -284,-120 -460,-120 -280,0 -522,89 -726,269 -204,178 -306,517 -306,1015l0 2128 -661 0z"/>
  <path id="88" class="fil8" d="M46635 140705l0 -494c-247,384 -610,577 -1090,577 -310,0 -596,-85 -855,-257 -261,-170 -463,-409 -607,-715 -142,-307 -214,-659 -214,-1057 0,-388 65,-740 195,-1057 130,-316 324,-559 583,-727 259,-169 549,-253 869,-253 235,0 444,50 627,149 183,99 332,230 447,389l0 -1935 662 0 0 5380 -617 0zm-2089 -1945c0,498 105,870 317,1117 211,247 459,370 746,370 289,0 535,-118 738,-353 202,-236 303,-595 303,-1079 0,-531 -102,-921 -309,-1171 -206,-249 -460,-373 -762,-373 -294,0 -539,119 -737,358 -197,239 -296,616 -296,1131z"/>
  <path id="89" class="fil8" d="M50123 139541l653 -106c36,262 139,463 307,603 168,139 403,209 704,209 304,0 530,-61 678,-185 147,-123 220,-269 220,-435 0,-149 -66,-267 -198,-352 -93,-59 -318,-133 -676,-224 -483,-122 -818,-227 -1006,-316 -186,-90 -328,-213 -425,-371 -96,-156 -145,-331 -145,-521 0,-174 41,-334 120,-482 79,-147 187,-271 324,-368 102,-76 243,-139 419,-192 178,-52 367,-79 570,-79 306,0 574,44 804,133 232,88 402,208 512,359 109,151 186,353 227,605l-646 91c-29,-203 -114,-362 -255,-477 -140,-113 -337,-170 -594,-170 -302,0 -519,50 -648,151 -129,100 -194,218 -194,352 0,85 26,162 80,231 54,70 138,129 253,176 66,25 260,81 582,169 466,124 792,226 977,305 186,79 331,196 437,346 106,152 158,339 158,565 0,219 -64,426 -192,620 -129,194 -315,344 -557,451 -242,107 -517,159 -823,159 -505,0 -893,-105 -1158,-315 -266,-210 -434,-521 -508,-932z"/>
  <path id="90" class="fil8" d="M53895 138755c0,-720 201,-1253 602,-1601 334,-288 744,-432 1227,-432 535,0 973,176 1313,526 340,350 510,835 510,1452 0,501 -75,894 -225,1181 -150,287 -369,510 -658,669 -287,159 -601,238 -940,238 -547,0 -987,-174 -1324,-524 -337,-349 -505,-853 -505,-1509zm676 1c0,499 109,872 327,1119 219,247 494,372 826,372 328,0 601,-125 820,-373 218,-250 327,-629 327,-1139 0,-481 -110,-846 -329,-1092 -220,-248 -492,-372 -818,-372 -332,0 -607,123 -826,369 -218,247 -327,619 -327,1116z"/>
  <path id="91" class="fil8" d="M60411 140705l0 -3900 594 0 0 551c121,-190 284,-344 487,-459 202,-117 433,-175 692,-175 288,0 525,60 710,180 183,120 313,286 389,502 310,-455 713,-682 1208,-682 389,0 688,106 896,321 209,214 314,543 314,988l0 2674 -661 0 0 -2454c0,-264 -23,-454 -65,-571 -42,-116 -121,-209 -234,-280 -113,-71 -246,-107 -397,-107 -276,0 -504,92 -686,274 -181,182 -271,474 -271,875l0 2263 -661 0 0 -2531c0,-293 -55,-513 -162,-660 -108,-146 -284,-221 -529,-221 -185,0 -356,49 -514,147 -158,98 -272,240 -343,430 -70,187 -106,459 -106,814l0 2021 -661 0z"/>
  <path id="92" class="fil8" d="M69218 140705l0 -580c-303,443 -714,663 -1233,663 -230,0 -444,-44 -643,-131 -199,-89 -347,-200 -443,-333 -97,-133 -165,-296 -203,-490 -27,-130 -41,-335 -41,-615l0 -2414 662 0 0 2158c0,345 13,578 40,696 42,175 129,310 265,408 133,100 298,150 497,150 197,0 382,-50 555,-152 173,-101 296,-241 369,-414 71,-175 107,-429 107,-761l0 -2085 662 0 0 3900 -594 0z"/>
  <path id="93" class="fil8" d="M73398 139277l646 91c-71,444 -252,791 -544,1043 -291,251 -651,377 -1076,377 -531,0 -960,-174 -1283,-522 -325,-348 -486,-847 -486,-1496 0,-421 70,-788 209,-1104 139,-314 350,-550 636,-707 285,-158 594,-237 929,-237 423,0 770,106 1037,321 270,214 442,519 518,911l-639 98c-61,-261 -169,-458 -326,-591 -155,-131 -343,-198 -563,-198 -333,0 -604,119 -813,357 -208,240 -312,615 -312,1131 0,524 101,903 301,1140 201,237 463,356 785,356 261,0 477,-79 650,-238 174,-158 284,-403 331,-732z"/>
  <path id="94" class="fil8" d="M74608 140705l0 -5380 661 0 0 1936c307,-359 694,-539 1162,-539 287,0 536,57 749,171 212,114 363,270 455,470 92,201 136,493 136,874l0 2468 -661 0 0 -2466c0,-329 -71,-570 -213,-720 -142,-151 -343,-226 -603,-226 -195,0 -377,51 -549,152 -171,101 -293,239 -367,413 -73,173 -109,412 -109,718l0 2129 -661 0z"/>
  <path id="95" class="fil8" d="M80876 140705l0 -3900 593 0 0 551c121,-190 284,-344 488,-459 202,-117 433,-175 692,-175 288,0 525,60 709,180 184,120 314,286 390,502 310,-455 712,-682 1208,-682 388,0 688,106 896,321 209,214 314,543 314,988l0 2674 -661 0 0 -2454c0,-264 -23,-454 -65,-571 -43,-116 -121,-209 -235,-280 -112,-71 -245,-107 -396,-107 -276,0 -504,92 -686,274 -181,182 -272,474 -272,875l0 2263 -661 0 0 -2531c0,-293 -54,-513 -162,-660 -108,-146 -284,-221 -528,-221 -185,0 -357,49 -515,147 -158,98 -271,240 -343,430 -70,187 -105,459 -105,814l0 2021 -661 0z"/>
  <path id="96" class="fil8" d="M86887 138755c0,-720 201,-1253 602,-1601 335,-288 745,-432 1227,-432 535,0 973,176 1314,526 340,350 509,835 509,1452 0,501 -75,894 -225,1181 -150,287 -369,510 -657,669 -288,159 -602,238 -941,238 -547,0 -987,-174 -1324,-524 -337,-349 -505,-853 -505,-1509zm677 1c0,499 108,872 326,1119 219,247 494,372 826,372 328,0 601,-125 821,-373 217,-250 326,-629 326,-1139 0,-481 -110,-846 -329,-1092 -220,-248 -492,-372 -818,-372 -332,0 -607,123 -826,369 -218,247 -326,619 -326,1116z"/>
  <path id="97" class="fil8" d="M91307 140705l0 -3900 594 0 0 597c152,-276 292,-459 421,-547 129,-89 271,-133 425,-133 223,0 449,70 679,209l-235 610c-160,-89 -321,-135 -481,-135 -144,0 -273,44 -386,130 -115,87 -196,207 -245,361 -74,234 -110,491 -110,770l0 2038 -662 0z"/>
  <path id="98" class="fil8" d="M96478 139443l683 90c-106,397 -305,706 -596,925 -291,220 -661,330 -1114,330 -568,0 -1019,-176 -1352,-526 -333,-349 -500,-842 -500,-1475 0,-653 168,-1162 505,-1522 337,-363 774,-543 1311,-543 520,0 945,177 1274,531 329,355 495,854 495,1496 0,38 -2,98 -4,175l-2904 0c25,427 145,756 363,982 216,227 488,341 812,341 242,0 449,-64 619,-192 172,-128 307,-332 408,-612zm-2165 -1060l2172 0c-29,-328 -113,-573 -249,-737 -209,-255 -483,-383 -817,-383 -303,0 -557,102 -764,305 -205,203 -319,474 -342,815z"/>
  <polygon id="99" class="fil8" points="98185,140705 98185,139954 98936,139954 98936,140705 "/>
  <polygon id="100" class="fil8" points="100273,140705 100273,139954 101025,139954 101025,140705 "/>
  <polygon id="101" class="fil8" points="102361,140705 102361,139954 103113,139954 103113,140705 "/>
  <ellipse class="fil5 str2" cx="88749" cy="205421" rx="74600" ry="15292"/>
 </g>
</svg>
