<?xml version="1.0" encoding="UTF-8"?>
<!DOCTYPE svg PUBLIC "-//W3C//DTD SVG 1.1//EN" "http://www.w3.org/Graphics/SVG/1.1/DTD/svg11.dtd">
<!-- Creator: CorelDRAW X8 -->
<svg xmlns="http://www.w3.org/2000/svg" xml:space="preserve" width="260px" height="260px" version="1.1" style="shape-rendering:geometricPrecision; text-rendering:geometricPrecision; image-rendering:optimizeQuality; fill-rule:evenodd; clip-rule:evenodd"
viewBox="0 0 66513 66513"
 xmlns:xlink="http://www.w3.org/1999/xlink">
 <defs>
  <style type="text/css">
   <![CDATA[
    .str1 {stroke:#854E13;stroke-width:1022.68}
    .str0 {stroke:#A99018;stroke-width:230.148}
    .fil6 {fill:#DE9D64}
    .fil3 {fill:#7A341D;fill-rule:nonzero}
    .fil4 {fill:#CFA761;fill-rule:nonzero}
    .fil5 {fill:#632510;fill-rule:nonzero}
    .fil2 {fill:#D4AB64;fill-rule:nonzero}
    .fil1 {fill:url(#id4)}
    .fil0 {fill:url(#id5)}
    .fil8 {fill:url(#id6)}
    .fil10 {fill:url(#id7)}
    .fil9 {fill:url(#id8)}
    .fil11 {fill:url(#id9)}
    .fil7 {fill:url(#id10)}
   ]]>
  </style>
     <clipPath id="id0">
      <path d="M28295 23185l11002 0 0 19006 -11002 0 0 -19006z"/>
     </clipPath>
     <clipPath id="id1">
      <path d="M35936 24822l10260 0 0 17745 -10260 0 0 -17745z"/>
     </clipPath>
     <clipPath id="id2">
      <path d="M28093 23030l11002 0 0 19006 -11002 0 0 -19006z"/>
     </clipPath>
     <clipPath id="id3">
      <path d="M35734 24667l10260 0 0 17745 -10260 0 0 -17745z"/>
     </clipPath>
  <linearGradient id="id4" gradientUnits="userSpaceOnUse" x1="33256.4" y1="62191.1" x2="33256.4" y2="4193.71">
   <stop offset="0" style="stop-opacity:1; stop-color:#8E4C1C"/>
   <stop offset="1" style="stop-opacity:1; stop-color:#CF9661"/>
  </linearGradient>
  <linearGradient id="id5" gradientUnits="userSpaceOnUse" x1="33256.4" y1="66397.8" x2="33256.4" y2="115.074">
   <stop offset="0" style="stop-opacity:1; stop-color:#8E441C"/>
   <stop offset="1" style="stop-opacity:1; stop-color:#CF9661"/>
  </linearGradient>
  <linearGradient id="id6" gradientUnits="userSpaceOnUse" x1="23207.8" y1="39691.5" x2="29002.3" y2="26796.6">
   <stop offset="0" style="stop-opacity:1; stop-color:#632510"/>
   <stop offset="1" style="stop-opacity:1; stop-color:#9C4A31"/>
  </linearGradient>
  <linearGradient id="id7" gradientUnits="userSpaceOnUse" xlink:href="#id6" x1="28759.8" y1="28031.6" x2="30754.4" y2="23456.7">
  </linearGradient>
  <linearGradient id="id8" gradientUnits="userSpaceOnUse" xlink:href="#id6" x1="37967.2" y1="39987.2" x2="43761.1" y2="27091.7">
  </linearGradient>
  <linearGradient id="id9" gradientUnits="userSpaceOnUse" xlink:href="#id6" x1="36303.6" y1="28055.4" x2="38298.6" y2="23480.9">
  </linearGradient>
  <linearGradient id="id10" gradientUnits="userSpaceOnUse" xlink:href="#id6" x1="29771.9" y1="39064.2" x2="37415.7" y2="26001">
  </linearGradient>
 </defs>
 <g id="Layer_x0020_1">
  <metadata id="CorelCorpID_0Corel-Layer"/>
  <path class="fil0 str0" d="M33256 115c18304,0 33142,14838 33142,33141 0,18304 -14838,33142 -33142,33142 -18303,0 -33141,-14838 -33141,-33142 0,-18303 14838,-33141 33141,-33141z"/>
  <path class="fil1 str1" d="M33256 4194c16016,0 28999,12983 28999,28998 0,16016 -12983,28999 -28999,28999 -16015,0 -28998,-12983 -28998,-28999 0,-16015 12983,-28998 28998,-28998z"/>
  <path class="fil2" d="M21100 12917l-1067 3245 1167 3940 -1926 0 -758 -3079 0 3079 -1871 0 0 -7185 1871 0 0 2792 840 -2792 1744 0zm2209 0l0 936 -1844 0 0 -936 1844 0zm0 1299l0 5886 -1844 0 0 -5886 1844 0zm2462 0l-27 547c130,-218 289,-382 477,-492 187,-109 404,-164 650,-164 308,0 559,73 754,218 196,144 321,327 378,548 55,220 84,588 84,1102l0 4127 -1789 0 0 -4076c0,-405 -14,-653 -41,-741 -26,-89 -100,-133 -222,-133 -129,0 -209,51 -243,153 -32,103 -48,375 -48,819l0 3978 -1790 0 0 -5886 1817 0zm7013 -1299l0 7185 -1790 0 0 -428c-173,180 -353,313 -542,403 -191,89 -389,134 -596,134 -279,0 -521,-72 -726,-219 -204,-147 -336,-316 -393,-509 -58,-192 -87,-505 -87,-942l0 -2756c0,-453 29,-774 87,-963 57,-189 190,-356 398,-500 207,-143 456,-215 743,-215 223,0 426,41 612,121 185,81 353,200 504,362l0 -1673 1790 0zm-1790 2780c0,-215 -18,-360 -56,-434 -38,-75 -112,-111 -223,-111 -109,0 -181,33 -219,100 -38,66 -56,215 -56,445l0 2884c0,239 18,397 54,472 37,76 105,114 208,114 116,0 195,-43 233,-128 39,-83 59,-289 59,-617l0 -2725zm4246 -1481l-27 547c130,-218 290,-382 477,-492 188,-109 404,-164 651,-164 308,0 559,73 754,218 195,144 321,327 377,548 56,220 85,588 85,1102l0 4127 -1789 0 0 -4076c0,-405 -14,-653 -42,-741 -25,-89 -99,-133 -222,-133 -129,0 -209,51 -242,153 -32,103 -49,375 -49,819l0 3978 -1789 0 0 -5886 1816 0zm6995 3043l-2325 0 0 1276c0,267 20,440 57,517 40,77 114,115 224,115 138,0 231,-52 276,-153 47,-103 70,-301 70,-595l0 -778 1698 0 0 436c0,364 -23,645 -68,840 -47,195 -154,404 -323,627 -168,222 -383,389 -641,501 -259,110 -583,166 -974,166 -378,0 -713,-54 -1004,-165 -289,-109 -514,-259 -676,-449 -162,-191 -273,-401 -335,-632 -62,-228 -94,-561 -94,-1000l0 -1718c0,-515 70,-921 209,-1219 140,-297 367,-526 683,-683 318,-159 681,-238 1093,-238 503,0 918,96 1244,286 327,191 558,444 689,759 132,313 197,757 197,1327l0 780zm-1789 -954l0 -429c0,-306 -17,-502 -50,-591 -34,-89 -102,-133 -205,-133 -127,0 -206,38 -236,114 -30,75 -45,278 -45,610l0 429 536 0zm6033 -209l-1580 0 0 -319c0,-272 -16,-443 -48,-516 -30,-73 -109,-109 -233,-109 -100,0 -176,33 -226,100 -49,66 -75,166 -75,300 0,180 12,313 38,396 24,85 100,177 225,277 124,102 382,248 771,441 519,254 858,493 1021,719 161,224 243,551 243,979 0,480 -62,842 -186,1086 -124,244 -332,433 -622,564 -292,132 -642,197 -1054,197 -454,0 -845,-71 -1167,-212 -324,-142 -547,-334 -668,-577 -121,-242 -182,-608 -182,-1098l0 -284 1590 0 0 371c0,315 20,519 59,615 41,94 119,141 236,141 127,0 215,-32 265,-95 50,-64 76,-199 76,-402 0,-281 -32,-457 -97,-528 -68,-71 -415,-282 -1040,-631 -525,-296 -846,-564 -962,-806 -115,-241 -172,-527 -172,-858 0,-471 62,-818 186,-1040 124,-224 335,-397 631,-518 297,-121 642,-182 1034,-182 391,0 723,50 995,149 274,100 483,230 630,393 145,162 235,314 265,453 32,139 47,357 47,653l0 341zm4275 0l-1580 0 0 -319c0,-272 -16,-443 -47,-516 -30,-73 -109,-109 -233,-109 -100,0 -176,33 -226,100 -50,66 -76,166 -76,300 0,180 12,313 38,396 24,85 100,177 226,277 124,102 381,248 770,441 519,254 859,493 1021,719 162,224 244,551 244,979 0,480 -63,842 -187,1086 -124,244 -331,433 -622,564 -292,132 -642,197 -1054,197 -454,0 -845,-71 -1167,-212 -324,-142 -546,-334 -668,-577 -121,-242 -181,-608 -181,-1098l0 -284 1589 0 0 371c0,315 20,519 59,615 41,94 120,141 237,141 127,0 215,-32 264,-95 51,-64 76,-199 76,-402 0,-281 -31,-457 -97,-528 -68,-71 -414,-282 -1040,-631 -525,-296 -846,-564 -961,-806 -115,-241 -172,-527 -172,-858 0,-471 61,-818 186,-1040 124,-224 334,-397 631,-518 297,-121 642,-182 1034,-182 391,0 722,50 995,149 274,100 483,230 629,393 146,162 235,314 265,453 32,139 47,357 47,653l0 341z"/>
  <path class="fil3" d="M20589 12432l-1067 3244 1167 3941 -1926 0 -759 -3080 0 3080 -1871 0 0 -7185 1871 0 0 2791 841 -2791 1744 0zm2209 0l0 935 -1844 0 0 -935 1844 0zm0 1299l0 5886 -1844 0 0 -5886 1844 0zm2461 0l-27 546c130,-218 289,-381 477,-492 188,-109 404,-163 651,-163 307,0 559,72 754,218 195,143 321,327 377,548 56,219 85,587 85,1102l0 4127 -1790 0 0 -4077c0,-405 -13,-653 -41,-740 -25,-90 -99,-134 -222,-134 -129,0 -209,52 -242,153 -32,103 -49,376 -49,819l0 3979 -1789 0 0 -5886 1816 0zm7013 -1299l0 7185 -1789 0 0 -429c-173,180 -353,314 -542,403 -191,89 -389,135 -597,135 -278,0 -520,-73 -725,-220 -204,-147 -336,-316 -394,-508 -57,-193 -86,-506 -86,-942l0 -2757c0,-453 29,-773 86,-963 58,-189 191,-356 399,-499 207,-144 455,-215 743,-215 222,0 425,40 611,121 185,80 353,200 505,362l0 -1673 1789 0zm-1789 2779c0,-215 -19,-360 -56,-434 -38,-74 -112,-111 -223,-111 -109,0 -182,34 -219,100 -38,67 -56,215 -56,445l0 2884c0,240 18,397 54,472 36,76 105,114 208,114 116,0 195,-42 233,-127 39,-83 59,-289 59,-618l0 -2725zm4246 -1480l-27 546c130,-218 289,-381 477,-492 188,-109 404,-163 651,-163 307,0 559,72 754,218 195,143 321,327 377,548 56,219 84,587 84,1102l0 4127 -1789 0 0 -4077c0,-405 -13,-653 -41,-740 -26,-90 -100,-134 -222,-134 -129,0 -209,52 -242,153 -32,103 -49,376 -49,819l0 3979 -1790 0 0 -5886 1817 0zm6995 3043l-2326 0 0 1276c0,266 20,439 58,516 39,77 113,115 224,115 137,0 230,-51 275,-153 47,-103 70,-301 70,-595l0 -778 1699 0 0 436c0,365 -23,645 -68,840 -47,196 -155,405 -323,627 -168,223 -383,389 -642,501 -259,111 -583,167 -973,167 -379,0 -713,-55 -1004,-165 -289,-109 -515,-259 -677,-450 -162,-191 -272,-401 -334,-631 -63,-229 -94,-562 -94,-1001l0 -1718c0,-515 69,-921 209,-1219 139,-297 366,-525 682,-683 318,-159 682,-237 1093,-237 503,0 918,95 1245,286 327,191 557,443 689,758 132,314 197,757 197,1328l0 780zm-1790 -954l0 -430c0,-306 -17,-501 -50,-590 -33,-90 -101,-134 -204,-134 -127,0 -206,38 -236,114 -31,75 -46,278 -46,610l0 430 536 0zm6033 -209l-1580 0 0 -319c0,-273 -15,-444 -47,-517 -30,-72 -109,-109 -233,-109 -100,0 -176,34 -226,100 -50,67 -75,167 -75,300 0,180 12,313 37,397 24,84 100,177 226,276 124,102 381,249 770,441 520,254 859,494 1021,719 162,224 244,551 244,980 0,480 -63,842 -187,1085 -124,244 -331,433 -622,565 -292,131 -642,197 -1054,197 -454,0 -844,-72 -1167,-212 -324,-143 -546,-335 -668,-577 -121,-242 -181,-608 -181,-1099l0 -283 1590 0 0 371c0,315 19,519 58,614 42,94 120,141 237,141 127,0 215,-32 265,-95 50,-64 75,-199 75,-402 0,-281 -31,-457 -97,-528 -68,-71 -414,-281 -1040,-631 -525,-295 -846,-563 -961,-806 -115,-240 -172,-526 -172,-858 0,-471 62,-817 186,-1040 124,-224 334,-396 631,-518 297,-121 642,-181 1034,-181 391,0 722,50 995,148 274,100 483,230 629,394 146,162 235,313 265,452 32,139 47,358 47,653l0 342zm4276 0l-1581 0 0 -319c0,-273 -15,-444 -47,-517 -30,-72 -109,-109 -233,-109 -100,0 -175,34 -225,100 -50,67 -76,167 -76,300 0,180 12,313 38,397 24,84 100,177 225,276 125,102 382,249 771,441 519,254 858,494 1020,719 162,224 244,551 244,980 0,480 -62,842 -186,1085 -124,244 -332,433 -622,565 -292,131 -642,197 -1054,197 -454,0 -845,-72 -1167,-212 -325,-143 -547,-335 -668,-577 -121,-242 -182,-608 -182,-1099l0 -283 1590 0 0 371c0,315 20,519 59,614 41,94 120,141 236,141 127,0 215,-32 265,-95 50,-64 76,-199 76,-402 0,-281 -32,-457 -97,-528 -68,-71 -415,-281 -1040,-631 -525,-295 -847,-563 -962,-806 -115,-240 -172,-526 -172,-858 0,-471 62,-817 186,-1040 124,-224 335,-396 631,-518 297,-121 642,-181 1035,-181 390,0 722,50 994,148 274,100 483,230 630,394 145,162 235,313 265,452 32,139 47,358 47,653l0 342z"/>
  <path class="fil4" d="M30736 51244l-2086 0 0 -1390c0,-405 -22,-656 -66,-757 -44,-100 -142,-151 -292,-151 -169,0 -276,61 -322,183 -46,123 -69,386 -69,791l0 3715c0,390 23,643 69,763 46,118 148,177 307,177 154,0 255,-59 302,-179 47,-118 71,-398 71,-838l0 -1008 2086 0 0 312c0,831 -60,1419 -176,1765 -116,348 -376,651 -776,913 -402,262 -895,391 -1482,391 -609,0 -1112,-109 -1508,-330 -395,-221 -658,-527 -786,-918 -129,-392 -193,-979 -193,-1763l0 -2339c0,-577 21,-1009 59,-1297 41,-289 157,-567 355,-834 195,-267 467,-477 815,-631 347,-154 747,-229 1199,-229 613,0 1119,118 1519,356 398,236 660,531 786,886 125,354 188,904 188,1651l0 761zm2679 -3492l0 1803c172,-158 358,-278 557,-357 199,-80 413,-120 641,-120 349,0 646,89 893,266 244,179 394,383 450,616 54,233 81,658 81,1274l0 4525 -1994 0 0 -4618c0,-381 -19,-627 -58,-735 -38,-110 -123,-164 -256,-164 -123,0 -206,56 -250,169 -42,111 -64,334 -64,666l0 4682 -1994 0 0 -8007 1994 0zm5365 0l0 1042 -2055 0 0 -1042 2055 0zm0 1447l0 6560 -2055 0 0 -6560 2055 0zm2815 -870l0 1032 557 0 0 1043 -557 0 0 3508c0,430 23,671 69,720 45,49 234,74 569,74l0 1053 -809 0c-455,0 -781,-18 -976,-57 -195,-37 -367,-125 -515,-262 -149,-136 -241,-291 -279,-469 -35,-175 -54,-588 -54,-1240l0 -3327 -425 0 0 -1043 425 0 0 -1032 1995 0z"/>
  <path class="fil5" d="M30736 50951l-2086 0 0 -1391c0,-405 -22,-656 -66,-757 -44,-100 -142,-150 -292,-150 -169,0 -276,60 -322,182 -46,123 -69,386 -69,791l0 3716c0,389 23,642 69,762 46,118 148,177 307,177 154,0 255,-59 302,-179 47,-118 71,-398 71,-838l0 -1007 2086 0 0 312c0,830 -60,1419 -176,1765 -116,347 -376,651 -776,912 -402,262 -895,392 -1482,392 -609,0 -1112,-110 -1508,-331 -395,-221 -658,-526 -786,-918 -129,-391 -193,-978 -193,-1763l0 -2338c0,-577 21,-1009 59,-1298 41,-289 157,-567 355,-833 195,-267 467,-478 815,-631 347,-154 747,-230 1199,-230 613,0 1119,118 1519,356 398,236 660,531 786,886 125,354 188,904 188,1652l0 761zm2679 -3493l0 1804c172,-159 358,-279 557,-358 199,-79 413,-120 641,-120 349,0 646,90 893,267 244,179 394,383 450,616 54,233 81,658 81,1273l0 4526 -1994 0 0 -4618c0,-381 -19,-628 -58,-736 -38,-110 -123,-163 -256,-163 -123,0 -206,55 -250,168 -42,112 -64,334 -64,667l0 4682 -1994 0 0 -8008 1994 0zm5365 0l0 1043 -2055 0 0 -1043 2055 0zm0 1448l0 6560 -2055 0 0 -6560 2055 0zm2815 -871l0 1033 557 0 0 1042 -557 0 0 3508c0,430 23,672 69,721 45,49 234,74 569,74l0 1053 -809 0c-455,0 -781,-19 -976,-58 -195,-37 -367,-124 -515,-261 -149,-137 -241,-292 -279,-469 -35,-176 -54,-589 -54,-1240l0 -3328 -425 0 0 -1042 425 0 0 -1033 1995 0z"/>
 </g>
 <g id="Layer_x0020_2">
  <metadata id="CorelCorpID_1Corel-Layer"/>
  <g id="_2874862100560">
   <g>
    <g style="clip-path:url(#id0)">
     <image x="28295" y="23185" width="11002" height="19007" xlink:href="copper_kindness_Images\copper_kindness_ImgID1.png"/>
    </g>
   </g>
   <path class="fil6" d="M33191 24454c594,1474 1023,3041 1616,4514 331,42 455,-539 429,-1525 774,747 1175,2081 1550,3455 2096,3922 1454,7045 -1286,9556 -1122,620 -2242,585 -3364,125 -2499,-1786 -3654,-5081 -1253,-9712 205,-880 442,-1757 956,-2615 159,697 346,1319 726,1432 154,-1712 472,-3517 626,-5230z"/>
   <path class="fil6" d="M28592 25710c557,1159 895,2021 1662,2427 -1004,1891 -1876,3781 -2879,5672 768,1579 1404,3160 2172,4740 -672,846 -1344,1693 -2016,2539 -1797,-2172 -3373,-4995 -5170,-7168 2050,-2953 4181,-5256 6231,-8210z"/>
   <g>
    <g style="clip-path:url(#id1)">
     <image x="35936" y="24822" width="10260" height="17745" xlink:href="copper_kindness_Images\copper_kindness_ImgID2.png"/>
    </g>
   </g>
   <path class="fil6" d="M38782 26006c-558,1159 -896,2020 -1662,2426 1003,1891 1976,3782 2979,5672 -768,1580 -1504,3160 -2273,4740 673,847 1344,1693 2016,2540 1798,-2173 3373,-4996 5171,-7169 -2051,-2953 -4181,-5256 -6231,-8209z"/>
   <path class="fil6" d="M30361 28597c375,-385 650,-771 1025,-1156 0,-1383 0,-2766 0,-4148 -2745,-732 -4263,3145 -1025,5304z"/>
   <path class="fil6" d="M37101 28621c-375,-386 -649,-771 -1025,-1157 0,-1382 0,-2765 0,-4147 2745,-732 4264,3145 1025,5304z"/>
  </g>
  <g id="_2874862101040">
   <g>
    <g style="clip-path:url(#id2)">
     <image x="28093" y="23030" width="11002" height="19007" xlink:href="copper_kindness_Images\copper_kindness_ImgID3.png"/>
    </g>
   </g>
   <path class="fil7" d="M32989 24299c594,1473 1023,3040 1616,4514 330,41 455,-539 429,-1526 773,747 1174,2081 1550,3455 2096,3923 1454,7046 -1286,9557 -1122,619 -2243,584 -3364,124 -2499,-1786 -3654,-5080 -1253,-9711 205,-880 442,-1757 956,-2615 159,696 346,1318 726,1431 153,-1711 472,-3517 626,-5229z"/>
   <path class="fil8" d="M28390 25555c557,1159 895,2021 1662,2427 -1004,1890 -1876,3781 -2879,5671 768,1580 1404,3160 2172,4740 -672,847 -1344,1693 -2016,2540 -1797,-2173 -3373,-4996 -5170,-7168 2050,-2954 4180,-5257 6231,-8210z"/>
   <g>
    <g style="clip-path:url(#id3)">
     <image x="35734" y="24667" width="10260" height="17745" xlink:href="copper_kindness_Images\copper_kindness_ImgID4.png"/>
    </g>
   </g>
   <path class="fil9" d="M38579 25851c-557,1158 -895,2020 -1661,2426 1003,1891 1976,3781 2979,5671 -768,1581 -1505,3161 -2273,4741 672,846 1344,1693 2016,2539 1798,-2173 3373,-4995 5171,-7168 -2051,-2953 -4181,-5256 -6232,-8209z"/>
   <path class="fil10" d="M30159 28442c375,-386 650,-771 1025,-1157 0,-1382 0,-2765 0,-4148 -2745,-731 -4264,3146 -1025,5305z"/>
   <path class="fil11" d="M36899 28466c-375,-386 -650,-771 -1025,-1157 0,-1383 0,-2765 0,-4148 2745,-732 4263,3145 1025,5305z"/>
  </g>
 </g>
</svg>
