<?xml version="1.0" encoding="UTF-8"?>
<!DOCTYPE svg PUBLIC "-//W3C//DTD SVG 1.1//EN" "http://www.w3.org/Graphics/SVG/1.1/DTD/svg11.dtd">
<!-- Creator: CorelDRAW X8 -->
<svg xmlns="http://www.w3.org/2000/svg" xml:space="preserve" width="260px" height="260px" version="1.1" style="shape-rendering:geometricPrecision; text-rendering:geometricPrecision; image-rendering:optimizeQuality; fill-rule:evenodd; clip-rule:evenodd"
viewBox="0 0 268571 268571"
 xmlns:xlink="http://www.w3.org/1999/xlink">
 <defs>
  <style type="text/css">
   <![CDATA[
    .str1 {stroke:#854E13;stroke-width:4129.46}
    .str0 {stroke:#A99018;stroke-width:929.312}
    .str2 {stroke:#856916;stroke-width:929.312}
    .fil16 {fill:#652611}
    .fil17 {fill:#682813}
    .fil18 {fill:#6B2A15}
    .fil19 {fill:#6D2B16}
    .fil20 {fill:#6F2D17}
    .fil21 {fill:#702E18}
    .fil22 {fill:#712E18}
    .fil23 {fill:#732F19}
    .fil24 {fill:#74301A}
    .fil25 {fill:#75311A}
    .fil26 {fill:#76311B}
    .fil27 {fill:#76321B}
    .fil28 {fill:#77321B}
    .fil29 {fill:#77321C}
    .fil30 {fill:#78321C}
    .fil31 {fill:#78331C}
    .fil32 {fill:#79331C}
    .fil33 {fill:#79331D}
    .fil34 {fill:#79341D}
    .fil35 {fill:#7A341D}
    .fil36 {fill:#7A341E}
    .fil37 {fill:#7B341E}
    .fil38 {fill:#7B351E}
    .fil39 {fill:#7C351E}
    .fil40 {fill:#7C351F}
    .fil41 {fill:#7C361F}
    .fil42 {fill:#7D361F}
    .fil43 {fill:#7E361F}
    .fil44 {fill:#7E3620}
    .fil45 {fill:#7E3720}
    .fil46 {fill:#7F3720}
    .fil47 {fill:#803821}
    .fil48 {fill:#813821}
    .fil49 {fill:#813921}
    .fil50 {fill:#813922}
    .fil51 {fill:#823922}
    .fil52 {fill:#833922}
    .fil53 {fill:#833A22}
    .fil54 {fill:#833A23}
    .fil55 {fill:#843A23}
    .fil56 {fill:#843B23}
    .fil15 {fill:#845713}
    .fil57 {fill:#853B23}
    .fil58 {fill:#853B24}
    .fil59 {fill:#863B24}
    .fil60 {fill:#863C24}
    .fil61 {fill:#863C25}
    .fil62 {fill:#873C25}
    .fil63 {fill:#873D25}
    .fil14 {fill:#875C14}
    .fil64 {fill:#883D25}
    .fil65 {fill:#883D26}
    .fil66 {fill:#893D26}
    .fil67 {fill:#893E26}
    .fil68 {fill:#8A3E27}
    .fil69 {fill:#8B3F27}
    .fil70 {fill:#8C4028}
    .fil71 {fill:#8E4129}
    .fil72 {fill:#8F4129}
    .fil73 {fill:#90422A}
    .fil74 {fill:#92442B}
    .fil75 {fill:#94452C}
    .fil76 {fill:#97472E}
    .fil77 {fill:#9A4930}
    .fil7 {fill:#9A7D1A}
    .fil78 {fill:#A44E34}
    .fil79 {fill:#A54F34}
    .fil13 {fill:#AA9117}
    .fil0 {fill:#DE9D64}
    .fil80 {fill:#AD5337}
    .fil6 {fill:#7A341D;fill-rule:nonzero}
    .fil3 {fill:#CFA761;fill-rule:nonzero}
    .fil5 {fill:#D3955F;fill-rule:nonzero}
    .fil4 {fill:#632510;fill-rule:nonzero}
    .fil1 {fill:url(#id3)}
    .fil2 {fill:url(#id4)}
    .fil8 {fill:url(#id5)}
    .fil11 {fill:url(#id6)}
    .fil12 {fill:url(#id7)}
    .fil9 {fill:url(#id8)}
    .fil10 {fill:url(#id9)}
   ]]>
  </style>
     <clipPath id="id0">
      <path d="M115225 79607l46289 0 0 70792 -46289 0 0 -70792z"/>
     </clipPath>
    <clipPath id="id1">
     <path d="M114192 77541l46289 0 0 70792 -46289 0 0 -70792z"/>
    </clipPath>
    <clipPath id="id2">
     <path d="M99497 178789l0 -10738 40673 0 0 10738 -40673 0z"/>
    </clipPath>
  <linearGradient id="id3" gradientUnits="userSpaceOnUse" x1="134286" y1="268106" x2="134286" y2="464.656">
   <stop offset="0" style="stop-opacity:1; stop-color:#8E441C"/>
   <stop offset="1" style="stop-opacity:1; stop-color:#CF9661"/>
  </linearGradient>
  <linearGradient id="id4" gradientUnits="userSpaceOnUse" x1="134286" y1="251120" x2="134286" y2="16933.7">
   <stop offset="0" style="stop-opacity:1; stop-color:#8E4C1C"/>
   <stop offset="1" style="stop-opacity:1; stop-color:#CF9661"/>
  </linearGradient>
  <linearGradient id="id5" gradientUnits="userSpaceOnUse" x1="121257" y1="136780" x2="153417" y2="89095.6">
   <stop offset="0" style="stop-opacity:1; stop-color:#632510"/>
   <stop offset="1" style="stop-opacity:1; stop-color:#9C4A31"/>
  </linearGradient>
  <linearGradient id="id6" gradientUnits="userSpaceOnUse" xlink:href="#id5" x1="125797" y1="157011" x2="121714" y2="168523">
  </linearGradient>
  <linearGradient id="id7" gradientUnits="userSpaceOnUse" xlink:href="#id5" x1="171125" y1="152842" x2="131602" y2="167307">
  </linearGradient>
  <linearGradient id="id8" gradientUnits="userSpaceOnUse" xlink:href="#id5" x1="106851" y1="115427" x2="95319.5" y2="111105">
  </linearGradient>
  <linearGradient id="id9" gradientUnits="userSpaceOnUse" xlink:href="#id5" x1="110334" y1="160333" x2="96677.2" y2="120888">
  </linearGradient>
 </defs>
 <g id="kudo">
  <metadata id="CorelCorpID_0Corel-Layer"/>
  <g id="_2322394675616">
   <path class="fil0" d="M107434 123952c-498,-858 1524,-4388 1153,-6823 -305,-2003 -1615,-3422 -2025,-4129 -4539,-1403 -2213,-7301 -7912,-1414 -4468,6271 -1609,14122 8784,12366z"/>
   <path class="fil0" d="M97763 121475c4153,1464 6071,3161 9163,2280 831,8302 990,15048 736,21543 5476,1019 8811,609 15583,609 -56,3701 -112,7851 -168,11553 -9541,0 -15350,-12 -25998,-348 0,-11641 -870,-19123 684,-35637z"/>
   <g>
    <g style="clip-path:url(#id0)">
     <image x="115225" y="79607" width="46289" height="70791" xlink:href="15700-copper_promise-718d1c76-358b-4c76-bce4-049fcfb586cc_Images\15700-copper_promise-718d1c76-358b-4c76-bce4-049fcfb586cc_ImgID1.png"/>
    </g>
   </g>
   <path class="fil0" d="M135825 84948c2496,5378 4301,11098 6799,16475 1389,152 1913,-1967 1802,-5567 3255,2727 4943,7595 6521,12613 8820,14315 6118,25715 -5410,34882 -4718,2261 -9434,2133 -14153,455 -10515,-6520 -15374,-18545 -5271,-35451 864,-3210 1859,-6411 4024,-9544 668,2541 1455,4813 3051,5226 648,-6249 1989,-12840 2637,-19089z"/>
   <path class="fil0" d="M106799 122694c-500,-859 1523,-4388 1152,-6824 -306,-2002 -1614,-3422 -2024,-4128 -4541,-1404 -2215,-7302 -7914,-1415 -4466,6271 -1608,14123 8786,12367z"/>
   <path class="fil0" d="M97128 120217c4152,1463 6071,3161 9162,2279 832,8303 991,15048 737,21544 5475,1018 8810,608 15582,608 -56,3702 -112,7852 -169,11553 -9541,0 -15348,-12 -25998,-347 0,-11641 -869,-19123 686,-35637z"/>
   <path class="fil0" d="M133443 159478c-862,504 -4452,-1460 -6908,-1066 -2022,325 -3441,1635 -4151,2048 -1369,4507 -7355,2271 -1343,7844 6386,4353 14290,1439 12402,-8826z"/>
   <path class="fil0" d="M131045 169074c1433,-4124 3128,-6041 2204,-9090 8381,-913 15196,-1144 21763,-963 970,-5428 520,-8724 445,-15424 3742,16 7937,26 11678,41 103,9441 155,15188 -69,25727 -11764,126 -19316,1069 -36021,-291z"/>
   <path class="fil0" d="M132178 160122c-863,503 -4452,-1460 -6909,-1066 -2021,323 -3440,1634 -4150,2048 -1369,4506 -7355,2270 -1344,7844 6387,4352 14290,1438 12403,-8826z"/>
   <path class="fil0" d="M129779 169716c1433,-4123 3128,-6040 2204,-9089 8382,-913 15197,-1144 21763,-962 971,-5430 520,-8724 447,-15425 3741,16 7937,25 11677,42 104,9440 155,15186 -70,25726 -11764,126 -19315,1068 -36021,-292z"/>
   <polygon class="fil0" points="100530,180855 100530,170117 141203,170117 141203,180855 "/>
  </g>
  <path class="fil1 str0" d="M134286 465c73907,0 133820,59913 133820,133821 0,73907 -59913,133820 -133820,133820 -73908,0 -133821,-59913 -133821,-133820 0,-73908 59913,-133821 133821,-133821z"/>
  <path class="fil2 str1" d="M134286 16934c64668,0 117093,52424 117093,117093 0,64669 -52425,117093 -117093,117093 -64669,0 -117094,-52424 -117094,-117093 0,-64669 52425,-117093 117094,-117093z"/>
  <path class="fil3" d="M123217 207972l-8921 0 0 -5984c0,-1744 -93,-2826 -281,-3262 -188,-429 -606,-647 -1249,-647 -722,0 -1183,261 -1378,785 -195,531 -295,1662 -295,3406l0 15994c0,1677 100,2766 295,3282 195,508 634,762 1314,762 656,0 1089,-254 1292,-770 202,-508 302,-1713 302,-3608l0 -4337 8921 0 0 1344c0,3573 -253,6108 -750,7598 -499,1495 -1611,2802 -3321,3928 -1717,1127 -3826,1686 -6337,1686 -2604,0 -4755,-472 -6450,-1424 -1689,-952 -2814,-2267 -3363,-3951 -549,-1686 -823,-4213 -823,-7591l0 -10065c0,-2485 87,-4344 254,-5585 173,-1243 669,-2441 1514,-3590 837,-1147 1999,-2055 3486,-2716 1487,-661 3196,-987 5131,-987 2619,0 4784,508 6494,1533 1702,1017 2823,2286 3363,3813 535,1525 802,3893 802,7110l0 3276zm11459 -15035l0 7764c736,-682 1529,-1199 2382,-1539 851,-342 1767,-516 2741,-516 1494,0 2765,384 3819,1148 1046,769 1688,1648 1925,2651 232,1002 347,2832 347,5482l0 19480 -8530 0 0 -19879c0,-1640 -78,-2701 -245,-3166 -166,-473 -526,-705 -1096,-705 -527,0 -881,240 -1069,726 -179,480 -274,1438 -274,2869l0 20155 -8530 0 0 -34470 8530 0zm22947 0l0 4489 -8789 0 0 -4489 8789 0zm0 6231l0 28239 -8789 0 0 -28239 8789 0zm12036 -3747l0 4446 2382 0 0 4488 -2382 0 0 15099c0,1852 103,2891 297,3102 193,209 1003,319 2431,319l0 4532 -3456 0c-1949,0 -3340,-79 -4178,-246 -831,-160 -1567,-538 -2201,-1126 -636,-588 -1032,-1256 -1191,-2020 -151,-755 -231,-2534 -231,-5338l0 -14322 -1818 0 0 -4488 1818 0 0 -4446 8529 0z"/>
  <path class="fil4" d="M123217 206707l-8921 0 0 -5984c0,-1743 -93,-2825 -281,-3260 -188,-429 -606,-648 -1249,-648 -722,0 -1183,261 -1378,786 -195,530 -295,1662 -295,3406l0 15992c0,1678 100,2767 295,3283 195,509 634,763 1314,763 656,0 1089,-254 1292,-770 202,-509 302,-1714 302,-3610l0 -4336 8921 0 0 1343c0,3575 -253,6109 -750,7598 -499,1495 -1610,2804 -3321,3930 -1717,1125 -3826,1685 -6337,1685 -2604,0 -4755,-472 -6450,-1424 -1689,-952 -2814,-2266 -3363,-3951 -549,-1685 -823,-4212 -823,-7590l0 -10067c0,-2484 87,-4342 254,-5584 173,-1244 669,-2440 1514,-3589 837,-1148 1999,-2055 3486,-2716 1487,-661 3196,-988 5131,-988 2619,0 4784,509 6494,1533 1704,1017 2823,2287 3363,3814 535,1524 802,3891 802,7110l0 3274zm11459 -15035l0 7765c736,-683 1529,-1198 2382,-1539 851,-342 1767,-516 2741,-516 1494,0 2765,385 3819,1148 1046,770 1688,1649 1925,2651 232,1003 347,2831 347,5482l0 19481 -8530 0 0 -19879c0,-1641 -78,-2702 -245,-3166 -166,-474 -526,-705 -1096,-705 -527,0 -881,239 -1069,725 -179,480 -274,1438 -274,2870l0 20155 -8530 0 0 -34472 8530 0zm22947 0l0 4491 -8789 0 0 -4491 8789 0zm0 6232l0 28240 -8789 0 0 -28240 8789 0zm12036 -3746l0 4445 2382 0 0 4488 -2382 0 0 15100c0,1851 103,2890 297,3101 193,210 1003,320 2431,320l0 4532 -3456 0c-1949,0 -3340,-80 -4178,-247 -831,-161 -1567,-538 -2201,-1127 -636,-588 -1032,-1255 -1191,-2018 -151,-756 -231,-2534 -231,-5339l0 -14322 -1818 0 0 -4488 1818 0 0 -4445 8529 0z"/>
  <path class="fil5 str2" d="M77360 44015l7509 0c2028,0 3586,152 4680,458 1087,308 1908,747 2458,1321 550,579 918,1280 1117,2097 194,822 290,2091 290,3810l0 2392c0,1749 -188,3029 -567,3828 -374,805 -1070,1426 -2072,1854 -1009,429 -2326,642 -3951,642l-1998 0 0 11085 -7466 0 0 -27487zm7466 4692l0 7002c211,12 393,17 543,17 683,0 1153,-161 1419,-487 261,-318 393,-989 393,-2008l0 -2265c0,-939 -150,-1551 -460,-1836 -301,-284 -935,-423 -1895,-423zm17613 278l-254 2966c1044,-2132 2555,-3255 4530,-3383l0 7924c-1311,0 -2277,167 -2893,508 -617,342 -992,811 -1135,1420 -140,602 -213,1997 -213,4187l0 8895 -7139 0 0 -22517 7104 0zm22028 7905l0 5519c0,2028 -109,3510 -321,4460 -211,944 -663,1824 -1357,2646 -697,824 -1589,1426 -2683,1819 -1093,389 -2344,585 -3757,585 -1583,0 -2923,-167 -4017,-497 -1099,-336 -1951,-841 -2555,-1511 -610,-678 -1044,-1494 -1304,-2451 -261,-956 -387,-2391 -387,-4303l0 -5774c0,-2096 235,-3730 707,-4912 472,-1176 1323,-2119 2549,-2831 1225,-712 2796,-1072 4705,-1072 1600,0 2978,232 4131,689 1148,458 2035,1054 2664,1791 622,734 1050,1493 1281,2275 229,782 344,1969 344,3567zm-7140 -1696c0,-1152 -67,-1883 -193,-2177 -132,-302 -410,-454 -840,-454 -428,0 -713,152 -858,454 -138,294 -211,1025 -211,2177l0 10164c0,1066 73,1761 211,2079 145,323 424,487 841,487 428,0 707,-145 846,-440 137,-297 204,-927 204,-1900l0 -10390zm16568 -6209l-108 2143c555,-851 1214,-1494 1982,-1917 759,-428 1636,-643 2614,-643 1909,0 3407,851 4507,2560 597,-851 1273,-1494 2030,-1917 755,-428 1588,-643 2513,-643 1207,0 2217,284 3007,851 796,563 1305,1258 1528,2080 225,817 339,2149 339,3995l0 16008 -6922 0 0 -14681c0,-1923 -67,-3110 -205,-3567 -133,-459 -448,-691 -950,-691 -507,0 -834,227 -978,680 -151,451 -225,1644 -225,3578l0 14681 -6921 0 0 -14305c0,-2205 -54,-3532 -169,-3973 -109,-439 -422,-661 -929,-661 -322,0 -587,116 -816,348 -225,232 -345,516 -369,852 -24,330 -36,1042 -36,2126l0 15613 -6923 0 0 -22517 7031 0zm28233 -4970l0 3580 -7356 0 0 -3580 7356 0zm0 4970l0 22517 -7356 0 0 -22517 7356 0zm17178 7193l-6305 0 0 -1222c0,-1042 -62,-1697 -189,-1974 -121,-280 -434,-419 -930,-419 -398,0 -700,128 -898,383 -200,255 -303,638 -303,1147 0,689 49,1199 151,1517 97,324 398,678 899,1061 495,388 1523,950 3075,1684 2072,973 3426,1888 4071,2752 646,857 972,2108 972,3746 0,1838 -248,3221 -743,4154 -495,932 -1322,1656 -2482,2160 -1166,503 -2561,752 -4204,752 -1811,0 -3369,-272 -4657,-811 -1292,-544 -2181,-1280 -2664,-2206 -483,-927 -724,-2327 -724,-4204l0 -1084 6343 0 0 1420c0,1203 78,1986 235,2351 162,358 477,539 942,539 507,0 857,-122 1056,-366 201,-243 303,-757 303,-1534 0,-1077 -126,-1750 -387,-2021 -272,-273 -1654,-1078 -4149,-2415 -2096,-1130 -3377,-2155 -3836,-3082 -458,-920 -688,-2014 -688,-3283 0,-1802 248,-3127 743,-3979 494,-857 1335,-1517 2518,-1981 1185,-463 2562,-695 4126,-695 1559,0 2881,190 3969,567 1092,383 1925,881 2512,1506 579,620 935,1199 1056,1732 127,533 188,1366 188,2497l0 1308zm18652 4448l-9277 0 0 4883c0,1019 79,1678 229,1975 157,295 454,440 895,440 549,0 917,-198 1099,-585 187,-394 278,-1153 278,-2276l0 -2978 6776 0 0 1669c0,1395 -90,2467 -271,3214 -187,747 -616,1546 -1288,2397 -669,852 -1526,1490 -2559,1918 -1033,422 -2326,636 -3884,636 -1511,0 -2846,-208 -4006,-630 -1155,-419 -2054,-992 -2700,-1720 -645,-730 -1088,-1535 -1335,-2416 -248,-874 -375,-2149 -375,-3828l0 -6574c0,-1969 278,-3520 833,-4661 558,-1136 1462,-2010 2726,-2613 1267,-608 2718,-909 4361,-909 2005,0 3660,365 4965,1095 1305,730 2222,1697 2749,2900 526,1200 784,2897 784,5081l0 2982zm-7138 -3649l0 -1644c0,-1169 -67,-1917 -200,-2259 -133,-342 -404,-511 -815,-511 -508,0 -822,146 -942,436 -121,289 -182,1066 -182,2334l0 1644 2139 0z"/>
  <path class="fil6 str2" d="M74808 40532l7508 0c2029,0 3588,152 4681,458 1088,307 1908,747 2457,1321 550,579 920,1280 1119,2096 193,823 290,2092 290,3811l0 2392c0,1749 -188,3029 -569,3828 -374,805 -1069,1424 -2070,1854 -1010,429 -2326,642 -3952,642l-1999 0 0 11085 -7465 0 0 -27487zm7465 4692l0 7002c211,11 393,17 543,17 684,0 1155,-161 1421,-487 260,-318 391,-990 391,-2009l0 -2264c0,-939 -150,-1553 -458,-1837 -301,-283 -936,-422 -1897,-422zm17613 277l-253 2966c1045,-2132 2555,-3255 4529,-3382l0 7924c-1310,0 -2277,167 -2893,508 -615,342 -990,811 -1134,1420 -139,602 -212,1997 -212,4187l0 8895 -7139 0 0 -22518 7102 0zm22029 7906l0 5519c0,2028 -108,3510 -320,4460 -212,944 -665,1824 -1359,2646 -695,824 -1589,1426 -2682,1819 -1094,388 -2344,585 -3757,585 -1582,0 -2924,-168 -4016,-497 -1100,-336 -1952,-841 -2555,-1513 -611,-677 -1045,-1494 -1305,-2449 -260,-956 -387,-2391 -387,-4303l0 -5774c0,-2098 236,-3731 706,-4912 472,-1176 1325,-2119 2549,-2831 1227,-713 2797,-1072 4705,-1072 1602,0 2979,232 4132,689 1148,457 2036,1054 2664,1790 622,735 1050,1494 1282,2276 229,781 343,1969 343,3567zm-7139 -1696c0,-1153 -67,-1883 -194,-2178 -132,-301 -411,-453 -840,-453 -428,0 -712,152 -857,453 -138,295 -211,1025 -211,2178l0 10164c0,1066 73,1760 211,2078 145,324 423,487 840,487 428,0 707,-146 846,-439 138,-297 205,-927 205,-1901l0 -10389zm16568 -6210l-109 2144c555,-853 1214,-1494 1981,-1917 761,-430 1637,-643 2616,-643 1909,0 3407,851 4506,2560 599,-853 1275,-1494 2030,-1917 756,-430 1589,-643 2512,-643 1209,0 2217,284 3009,851 796,563 1303,1258 1527,2080 224,817 339,2147 339,3995l0 16008 -6923 0 0 -14681c0,-1923 -67,-3110 -205,-3567 -133,-459 -447,-691 -948,-691 -507,0 -833,227 -977,678 -152,453 -226,1644 -226,3580l0 14681 -6921 0 0 -14306c0,-2204 -55,-3531 -169,-3972 -110,-440 -424,-661 -931,-661 -321,0 -585,116 -815,348 -224,232 -345,516 -368,851 -24,331 -37,1043 -37,2127l0 15613 -6922 0 0 -22518 7031 0zm28232 -4969l0 3580 -7357 0 0 -3580 7357 0zm0 4969l0 22518 -7357 0 0 -22518 7357 0zm17179 7193l-6307 0 0 -1221c0,-1043 -61,-1697 -188,-1974 -120,-280 -434,-419 -929,-419 -400,0 -701,128 -900,383 -200,255 -302,638 -302,1147 0,689 48,1199 151,1517 96,324 397,678 899,1060 496,389 1523,950 3075,1685 2072,973 3425,1888 4070,2751 648,857 973,2109 973,3747 0,1837 -247,3221 -742,4154 -497,930 -1324,1655 -2482,2160 -1167,503 -2563,752 -4204,752 -1812,0 -3371,-272 -4658,-811 -1292,-544 -2180,-1280 -2663,-2207 -483,-926 -726,-2327 -726,-4203l0 -1084 6343 0 0 1419c0,1204 78,1987 236,2352 162,358 476,538 942,538 508,0 858,-121 1056,-365 200,-243 303,-759 303,-1535 0,-1076 -127,-1749 -387,-2020 -272,-273 -1655,-1078 -4150,-2415 -2095,-1130 -3376,-2156 -3834,-3082 -460,-920 -689,-2014 -689,-3283 0,-1802 247,-3128 744,-3979 494,-858 1334,-1517 2518,-1981 1183,-463 2561,-695 4125,-695 1558,0 2882,190 3968,567 1094,383 1927,881 2512,1506 580,620 937,1199 1058,1732 127,533 188,1366 188,2497l0 1307zm18651 4449l-9277 0 0 4882c0,1019 80,1679 230,1976 157,293 453,439 894,439 548,0 917,-197 1100,-585 186,-395 278,-1152 278,-2275l0 -2978 6775 0 0 1668c0,1396 -91,2468 -271,3215 -188,747 -616,1546 -1287,2396 -669,853 -1528,1490 -2560,1919 -1034,421 -2325,636 -3884,636 -1511,0 -2845,-208 -4005,-630 -1154,-419 -2053,-992 -2700,-1721 -645,-729 -1087,-1534 -1334,-2415 -248,-874 -375,-2149 -375,-3828l0 -6574c0,-1969 278,-3521 833,-4662 556,-1135 1462,-2010 2725,-2612 1268,-609 2717,-909 4361,-909 2005,0 3658,365 4965,1095 1305,728 2222,1697 2747,2900 526,1199 785,2896 785,5081l0 2982zm-7139 -3649l0 -1644c0,-1171 -67,-1918 -200,-2260 -133,-341 -403,-510 -814,-510 -508,0 -821,145 -942,436 -121,289 -182,1066 -182,2334l0 1644 2138 0z"/>
  <path class="fil7" d="M106401 121886c-498,-858 1524,-4388 1153,-6823 -305,-2003 -1615,-3422 -2025,-4129 -4539,-1403 -2213,-7301 -7912,-1414 -4468,6271 -1609,14122 8784,12366z"/>
  <path class="fil7" d="M96730 119409c4153,1464 6071,3161 9163,2280 832,8302 990,15048 736,21543 5476,1019 8811,609 15583,609 -56,3701 -112,7851 -168,11553 -9541,0 -15350,-12 -25998,-348 0,-11640 -870,-19123 684,-35637z"/>
  <g id="_2322524396016">
   <g style="clip-path:url(#id1)">
    <image x="114192" y="77541" width="46289" height="70791" xlink:href="15700-copper_promise-718d1c76-358b-4c76-bce4-049fcfb586cc_Images\15700-copper_promise-718d1c76-358b-4c76-bce4-049fcfb586cc_ImgID2.png"/>
   </g>
  </g>
  <path class="fil8" d="M134792 82882c2496,5378 4301,11098 6799,16475 1389,153 1913,-1967 1802,-5567 3255,2727 4943,7595 6521,12613 8820,14315 6118,25715 -5410,34882 -4718,2261 -9434,2133 -14153,455 -10515,-6520 -15374,-18545 -5271,-35451 864,-3210 1859,-6411 4024,-9544 668,2541 1455,4813 3051,5226 648,-6249 1989,-12840 2637,-19089z"/>
  <path class="fil9" d="M105766 120628c-500,-859 1523,-4388 1152,-6824 -306,-2002 -1614,-3422 -2024,-4128 -4541,-1404 -2215,-7302 -7914,-1415 -4466,6271 -1608,14123 8786,12367z"/>
  <path class="fil10" d="M96095 118151c4152,1463 6071,3161 9162,2279 832,8303 991,15048 737,21544 5475,1018 8810,608 15582,608 -56,3702 -112,7852 -169,11553 -9541,0 -15348,-12 -25998,-347 0,-11641 -869,-19123 686,-35637z"/>
  <path class="fil7" d="M132410 157412c-862,504 -4452,-1460 -6908,-1066 -2022,325 -3441,1635 -4151,2048 -1369,4508 -7355,2271 -1343,7844 6386,4353 14290,1439 12402,-8826z"/>
  <path class="fil7" d="M130012 167008c1433,-4124 3128,-6041 2204,-9090 8381,-913 15196,-1144 21763,-963 970,-5428 520,-8724 445,-15424 3742,16 7937,26 11678,41 103,9441 155,15188 -69,25727 -11764,126 -19316,1069 -36021,-291z"/>
  <path class="fil11" d="M131145 158056c-863,503 -4452,-1460 -6909,-1066 -2021,323 -3440,1635 -4150,2048 -1369,4506 -7355,2270 -1344,7844 6387,4352 14290,1438 12403,-8826z"/>
  <path class="fil12" d="M128746 167651c1433,-4124 3128,-6041 2204,-9090 8382,-913 15197,-1144 21763,-962 971,-5430 520,-8724 447,-15425 3741,16 7937,25 11677,42 104,9440 155,15187 -70,25726 -11763,126 -19315,1068 -36021,-291z"/>
  <g>
   <g style="clip-path:url(#id2)">
    <polygon class="fil13" points="99497,178789 99497,178768 140170,178768 140170,178789 "/>
    <polygon id="1" class="fil14" points="99497,178789 99497,178727 140170,178727 140170,178789 "/>
    <polygon id="2" class="fil15" points="99497,178747 99497,178684 140170,178684 140170,178747 "/>
    <polygon id="3" class="fil16" points="99497,178706 99497,178643 140170,178643 140170,178706 "/>
    <polygon id="4" class="fil17" points="99497,178663 99497,178601 140170,178601 140170,178663 "/>
    <polygon id="5" class="fil18" points="99497,178622 99497,178558 140170,178558 140170,178622 "/>
    <polygon id="6" class="fil19" points="99497,178579 99497,178517 140170,178517 140170,178579 "/>
    <polygon id="7" class="fil20" points="99497,178538 99497,178474 140170,178474 140170,178538 "/>
    <polygon id="8" class="fil21" points="99497,178496 99497,178433 140170,178433 140170,178496 "/>
    <polygon id="9" class="fil22" points="99497,178453 99497,178391 140170,178391 140170,178453 "/>
    <polygon id="10" class="fil23" points="99497,178412 99497,178349 140170,178349 140170,178412 "/>
    <polygon id="11" class="fil24" points="99497,178369 99497,178307 140170,178307 140170,178369 "/>
    <polygon id="12" class="fil24" points="99497,178328 99497,178264 140170,178264 140170,178328 "/>
    <polygon id="13" class="fil25" points="99497,178286 99497,178223 140170,178223 140170,178286 "/>
    <polygon id="14" class="fil26" points="99497,178244 99497,178182 140170,178182 140170,178244 "/>
    <polygon id="15" class="fil27" points="99497,178202 99497,178139 140170,178139 140170,178202 "/>
    <polygon id="16" class="fil28" points="99497,178160 99497,178097 140170,178097 140170,178160 "/>
    <polygon id="17" class="fil29" points="99497,178118 99497,178055 140170,178055 140170,178118 "/>
    <polygon id="18" class="fil30" points="99497,178077 99497,178013 140170,178013 140170,178077 "/>
    <polygon id="19" class="fil31" points="99497,178034 99497,177972 140170,177972 140170,178034 "/>
    <polygon id="20" class="fil32" points="99497,177992 99497,177929 140170,177929 140170,177992 "/>
    <polygon id="21" class="fil33" points="99497,177950 99497,177888 140170,177888 140170,177950 "/>
    <polygon id="22" class="fil33" points="99497,177908 99497,177845 140170,177845 140170,177908 "/>
    <polygon id="23" class="fil34" points="99497,177867 99497,177803 140170,177803 140170,177867 "/>
    <polygon id="24" class="fil35" points="99497,177824 99497,177762 140170,177762 140170,177824 "/>
    <polygon id="25" class="fil35" points="99497,177783 99497,177719 140170,177719 140170,177783 "/>
    <polygon id="26" class="fil35" points="99497,177740 99497,177678 140170,177678 140170,177740 "/>
    <polygon id="27" class="fil36" points="99497,177699 99497,177635 140170,177635 140170,177699 "/>
    <polygon id="28" class="fil37" points="99497,177657 99497,177594 140170,177594 140170,177657 "/>
    <polygon id="29" class="fil37" points="99497,177614 99497,177552 140170,177552 140170,177614 "/>
    <polygon id="30" class="fil38" points="99497,177573 99497,177510 140170,177510 140170,177573 "/>
    <polygon id="31" class="fil38" points="99497,177531 99497,177468 140170,177468 140170,177531 "/>
    <polygon id="32" class="fil38" points="99497,177489 99497,177427 140170,177427 140170,177489 "/>
    <polygon id="33" class="fil38" points="99497,177447 99497,177384 140170,177384 140170,177447 "/>
    <polygon id="34" class="fil39" points="99497,177405 99497,177342 140170,177342 140170,177405 "/>
    <polygon id="35" class="fil39" points="99497,177363 99497,177300 140170,177300 140170,177363 "/>
    <polygon id="36" class="fil39" points="99497,177322 99497,177258 140170,177258 140170,177322 "/>
    <polygon id="37" class="fil39" points="99497,177279 99497,177217 140170,177217 140170,177279 "/>
    <polygon id="38" class="fil40" points="99497,177238 99497,177174 140170,177174 140170,177238 "/>
    <polygon id="39" class="fil40" points="99497,177195 99497,177133 140170,177133 140170,177195 "/>
    <polygon id="40" class="fil40" points="99497,177153 99497,177090 140170,177090 140170,177153 "/>
    <polygon id="41" class="fil41" points="99497,177112 99497,177049 140170,177049 140170,177112 "/>
    <polygon id="42" class="fil42" points="99497,177069 99497,177007 140170,177007 140170,177069 "/>
    <polygon id="43" class="fil42" points="99497,177028 99497,176964 140170,176964 140170,177028 "/>
    <polygon id="44" class="fil42" points="99497,176985 99497,176923 140170,176923 140170,176985 "/>
    <polygon id="45" class="fil42" points="99497,176944 99497,176880 140170,176880 140170,176944 "/>
    <polygon id="46" class="fil42" points="99497,176902 99497,176839 140170,176839 140170,176902 "/>
    <polygon id="47" class="fil42" points="99497,176860 99497,176797 140170,176797 140170,176860 "/>
    <polygon id="48" class="fil42" points="99497,176818 99497,176755 140170,176755 140170,176818 "/>
    <polygon id="49" class="fil42" points="99497,176775 99497,176713 140170,176713 140170,176775 "/>
    <polygon id="50" class="fil42" points="99497,176734 99497,176670 140170,176670 140170,176734 "/>
    <polygon id="51" class="fil42" points="99497,176692 99497,176629 140170,176629 140170,176692 "/>
    <polygon id="52" class="fil42" points="99497,176650 99497,176588 140170,176588 140170,176650 "/>
    <polygon id="53" class="fil42" points="99497,176608 99497,176545 140170,176545 140170,176608 "/>
    <polygon id="54" class="fil43" points="99497,176566 99497,176503 140170,176503 140170,176566 "/>
    <polygon id="55" class="fil43" points="99497,176524 99497,176461 140170,176461 140170,176524 "/>
    <polygon id="56" class="fil43" points="99497,176483 99497,176419 140170,176419 140170,176483 "/>
    <polygon id="57" class="fil43" points="99497,176440 99497,176378 140170,176378 140170,176440 "/>
    <polygon id="58" class="fil43" points="99497,176399 99497,176335 140170,176335 140170,176399 "/>
    <polygon id="59" class="fil44" points="99497,176356 99497,176294 140170,176294 140170,176356 "/>
    <polygon id="60" class="fil44" points="99497,176314 99497,176251 140170,176251 140170,176314 "/>
    <polygon id="61" class="fil44" points="99497,176273 99497,176209 140170,176209 140170,176273 "/>
    <polygon id="62" class="fil44" points="99497,176230 99497,176168 140170,176168 140170,176230 "/>
    <polygon id="63" class="fil45" points="99497,176189 99497,176125 140170,176125 140170,176189 "/>
    <polygon id="64" class="fil45" points="99497,176146 99497,176084 140170,176084 140170,176146 "/>
    <polygon id="65" class="fil45" points="99497,176105 99497,176041 140170,176041 140170,176105 "/>
    <polygon id="66" class="fil45" points="99497,176063 99497,176000 140170,176000 140170,176063 "/>
    <polygon id="67" class="fil45" points="99497,176020 99497,175958 140170,175958 140170,176020 "/>
    <polygon id="68" class="fil45" points="99497,175979 99497,175916 140170,175916 140170,175979 "/>
    <polygon id="69" class="fil45" points="99497,175936 99497,175874 140170,175874 140170,175936 "/>
    <polygon id="70" class="fil45" points="99497,175895 99497,175831 140170,175831 140170,175895 "/>
    <polygon id="71" class="fil45" points="99497,175853 99497,175790 140170,175790 140170,175853 "/>
    <polygon id="72" class="fil45" points="99497,175811 99497,175748 140170,175748 140170,175811 "/>
    <polygon id="73" class="fil45" points="99497,175769 99497,175706 140170,175706 140170,175769 "/>
    <polygon id="74" class="fil45" points="99497,175727 99497,175664 140170,175664 140170,175727 "/>
    <polygon id="75" class="fil45" points="99497,175685 99497,175622 140170,175622 140170,175685 "/>
    <polygon id="76" class="fil45" points="99497,175644 99497,175580 140170,175580 140170,175644 "/>
    <polygon id="77" class="fil46" points="99497,175601 99497,175539 140170,175539 140170,175601 "/>
    <polygon id="78" class="fil46" points="99497,175559 99497,175496 140170,175496 140170,175559 "/>
    <polygon id="79" class="fil46" points="99497,175517 99497,175455 140170,175455 140170,175517 "/>
    <polygon id="80" class="fil46" points="99497,175475 99497,175412 140170,175412 140170,175475 "/>
    <polygon id="81" class="fil46" points="99497,175434 99497,175370 140170,175370 140170,175434 "/>
    <polygon id="82" class="fil46" points="99497,175391 99497,175329 140170,175329 140170,175391 "/>
    <polygon id="83" class="fil46" points="99497,175350 99497,175286 140170,175286 140170,175350 "/>
    <polygon id="84" class="fil46" points="99497,175307 99497,175245 140170,175245 140170,175307 "/>
    <polygon id="85" class="fil46" points="99497,175266 99497,175202 140170,175202 140170,175266 "/>
    <polygon id="86" class="fil46" points="99497,175224 99497,175161 140170,175161 140170,175224 "/>
    <polygon id="87" class="fil46" points="99497,175181 99497,175119 140170,175119 140170,175181 "/>
    <polygon id="88" class="fil46" points="99497,175140 99497,175077 140170,175077 140170,175140 "/>
    <polygon id="89" class="fil46" points="99497,175097 99497,175035 140170,175035 140170,175097 "/>
    <polygon id="90" class="fil46" points="99497,175056 99497,174992 140170,174992 140170,175056 "/>
    <polygon id="91" class="fil46" points="99497,175014 99497,174951 140170,174951 140170,175014 "/>
    <polygon id="92" class="fil46" points="99497,174972 99497,174909 140170,174909 140170,174972 "/>
    <polygon id="93" class="fil46" points="99497,174930 99497,174867 140170,174867 140170,174930 "/>
    <polygon id="94" class="fil46" points="99497,174887 99497,174825 140170,174825 140170,174887 "/>
    <polygon id="95" class="fil46" points="99497,174846 99497,174783 140170,174783 140170,174846 "/>
    <polygon id="96" class="fil46" points="99497,174805 99497,174741 140170,174741 140170,174805 "/>
    <polygon id="97" class="fil46" points="99497,174762 99497,174700 140170,174700 140170,174762 "/>
    <polygon id="98" class="fil46" points="99497,174720 99497,174657 140170,174657 140170,174720 "/>
    <polygon id="99" class="fil46" points="99497,174678 99497,174616 140170,174616 140170,174678 "/>
    <polygon id="100" class="fil46" points="99497,174636 99497,174573 140170,174573 140170,174636 "/>
    <polygon id="101" class="fil46" points="99497,174595 99497,174531 140170,174531 140170,174595 "/>
    <polygon id="102" class="fil46" points="99497,174552 99497,174490 140170,174490 140170,174552 "/>
    <polygon id="103" class="fil46" points="99497,174511 99497,174447 140170,174447 140170,174511 "/>
    <polygon id="104" class="fil46" points="99497,174468 99497,174406 140170,174406 140170,174468 "/>
    <polygon id="105" class="fil46" points="99497,174426 99497,174363 140170,174363 140170,174426 "/>
    <polygon id="106" class="fil46" points="99497,174385 99497,174322 140170,174322 140170,174385 "/>
    <polygon id="107" class="fil46" points="99497,174342 99497,174280 140170,174280 140170,174342 "/>
    <polygon id="108" class="fil46" points="99497,174301 99497,174237 140170,174237 140170,174301 "/>
    <polygon id="109" class="fil46" points="99497,174258 99497,174196 140170,174196 140170,174258 "/>
    <polygon id="110" class="fil46" points="99497,174217 99497,174153 140170,174153 140170,174217 "/>
    <polygon id="111" class="fil46" points="99497,174175 99497,174112 140170,174112 140170,174175 "/>
    <polygon id="112" class="fil46" points="99497,174133 99497,174070 140170,174070 140170,174133 "/>
    <polygon id="113" class="fil46" points="99497,174091 99497,174028 140170,174028 140170,174091 "/>
    <polygon id="114" class="fil46" points="99497,174048 99497,173986 140170,173986 140170,174048 "/>
    <polygon id="115" class="fil46" points="99497,174007 99497,173944 140170,173944 140170,174007 "/>
    <polygon id="116" class="fil46" points="99497,173965 99497,173902 140170,173902 140170,173965 "/>
    <polygon id="117" class="fil46" points="99497,173923 99497,173861 140170,173861 140170,173923 "/>
    <polygon id="118" class="fil46" points="99497,173881 99497,173818 140170,173818 140170,173881 "/>
    <polygon id="119" class="fil46" points="99497,173839 99497,173776 140170,173776 140170,173839 "/>
    <polygon id="120" class="fil46" points="99497,173797 99497,173734 140170,173734 140170,173797 "/>
    <polygon id="121" class="fil46" points="99497,173756 99497,173692 140170,173692 140170,173756 "/>
    <polygon id="122" class="fil46" points="99497,173713 99497,173651 140170,173651 140170,173713 "/>
    <polygon id="123" class="fil46" points="99497,173672 99497,173608 140170,173608 140170,173672 "/>
    <polygon id="124" class="fil46" points="99497,173629 99497,173567 140170,173567 140170,173629 "/>
    <polygon id="125" class="fil46" points="99497,173587 99497,173524 140170,173524 140170,173587 "/>
    <polygon id="126" class="fil46" points="99497,173546 99497,173483 140170,173483 140170,173546 "/>
    <polygon id="127" class="fil46" points="99497,173503 99497,173441 140170,173441 140170,173503 "/>
    <polygon id="128" class="fil47" points="99497,173462 99497,173398 140170,173398 140170,173462 "/>
    <polygon id="129" class="fil47" points="99497,173420 99497,173357 140170,173357 140170,173420 "/>
    <polygon id="130" class="fil47" points="99497,173378 99497,173315 140170,173315 140170,173378 "/>
    <polygon id="131" class="fil47" points="99497,173336 99497,173273 140170,173273 140170,173336 "/>
    <polygon id="132" class="fil47" points="99497,173293 99497,173231 140170,173231 140170,173293 "/>
    <polygon id="133" class="fil47" points="99497,173252 99497,173189 140170,173189 140170,173252 "/>
    <polygon id="134" class="fil47" points="99497,173211 99497,173147 140170,173147 140170,173211 "/>
    <polygon id="135" class="fil47" points="99497,173168 99497,173106 140170,173106 140170,173168 "/>
    <polygon id="136" class="fil47" points="99497,173126 99497,173063 140170,173063 140170,173126 "/>
    <polygon id="137" class="fil47" points="99497,173084 99497,173022 140170,173022 140170,173084 "/>
    <polygon id="138" class="fil47" points="99497,173042 99497,172979 140170,172979 140170,173042 "/>
    <polygon id="139" class="fil47" points="99497,173001 99497,172937 140170,172937 140170,173001 "/>
    <polygon id="140" class="fil47" points="99497,172958 99497,172896 140170,172896 140170,172958 "/>
    <polygon id="141" class="fil47" points="99497,172917 99497,172853 140170,172853 140170,172917 "/>
    <polygon id="142" class="fil47" points="99497,172874 99497,172812 140170,172812 140170,172874 "/>
    <polygon id="143" class="fil47" points="99497,172832 99497,172769 140170,172769 140170,172832 "/>
    <polygon id="144" class="fil47" points="99497,172791 99497,172728 140170,172728 140170,172791 "/>
    <polygon id="145" class="fil47" points="99497,172748 99497,172686 140170,172686 140170,172748 "/>
    <polygon id="146" class="fil47" points="99497,172707 99497,172643 140170,172643 140170,172707 "/>
    <polygon id="147" class="fil47" points="99497,172664 99497,172602 140170,172602 140170,172664 "/>
    <polygon id="148" class="fil47" points="99497,172623 99497,172559 140170,172559 140170,172623 "/>
    <polygon id="149" class="fil47" points="99497,172581 99497,172518 140170,172518 140170,172581 "/>
    <polygon id="150" class="fil47" points="99497,172539 99497,172476 140170,172476 140170,172539 "/>
    <polygon id="151" class="fil47" points="99497,172497 99497,172434 140170,172434 140170,172497 "/>
    <polygon id="152" class="fil47" points="99497,172454 99497,172392 140170,172392 140170,172454 "/>
    <polygon id="153" class="fil47" points="99497,172413 99497,172350 140170,172350 140170,172413 "/>
    <polygon id="154" class="fil47" points="99497,172371 99497,172308 140170,172308 140170,172371 "/>
    <polygon id="155" class="fil47" points="99497,172329 99497,172267 140170,172267 140170,172329 "/>
    <polygon id="156" class="fil47" points="99497,172287 99497,172224 140170,172224 140170,172287 "/>
    <polygon id="157" class="fil47" points="99497,172245 99497,172182 140170,172182 140170,172245 "/>
    <polygon id="158" class="fil47" points="99497,172203 99497,172140 140170,172140 140170,172203 "/>
    <polygon id="159" class="fil47" points="99497,172162 99497,172098 140170,172098 140170,172162 "/>
    <polygon id="160" class="fil47" points="99497,172119 99497,172057 140170,172057 140170,172119 "/>
    <polygon id="161" class="fil47" points="99497,172078 99497,172014 140170,172014 140170,172078 "/>
    <polygon id="162" class="fil47" points="99497,172035 99497,171973 140170,171973 140170,172035 "/>
    <polygon id="163" class="fil47" points="99497,171993 99497,171930 140170,171930 140170,171993 "/>
    <polygon id="164" class="fil47" points="99497,171952 99497,171889 140170,171889 140170,171952 "/>
    <polygon id="165" class="fil47" points="99497,171909 99497,171847 140170,171847 140170,171909 "/>
    <polygon id="166" class="fil47" points="99497,171868 99497,171804 140170,171804 140170,171868 "/>
    <polygon id="167" class="fil47" points="99497,171825 99497,171763 140170,171763 140170,171825 "/>
    <polygon id="168" class="fil47" points="99497,171784 99497,171720 140170,171720 140170,171784 "/>
    <polygon id="169" class="fil47" points="99497,171742 99497,171679 140170,171679 140170,171742 "/>
    <polygon id="170" class="fil47" points="99497,171700 99497,171637 140170,171637 140170,171700 "/>
    <polygon id="171" class="fil47" points="99497,171658 99497,171595 140170,171595 140170,171658 "/>
    <polygon id="172" class="fil47" points="99497,171615 99497,171553 140170,171553 140170,171615 "/>
    <polygon id="173" class="fil47" points="99497,171574 99497,171510 140170,171510 140170,171574 "/>
    <polygon id="174" class="fil47" points="99497,171532 99497,171469 140170,171469 140170,171532 "/>
    <polygon id="175" class="fil47" points="99497,171490 99497,171428 140170,171428 140170,171490 "/>
    <polygon id="176" class="fil47" points="99497,171448 99497,171385 140170,171385 140170,171448 "/>
    <polygon id="177" class="fil47" points="99497,171406 99497,171343 140170,171343 140170,171406 "/>
    <polygon id="178" class="fil47" points="99497,171364 99497,171301 140170,171301 140170,171364 "/>
    <polygon id="179" class="fil48" points="99497,171323 99497,171259 140170,171259 140170,171323 "/>
    <polygon id="180" class="fil48" points="99497,171280 99497,171218 140170,171218 140170,171280 "/>
    <polygon id="181" class="fil48" points="99497,171239 99497,171175 140170,171175 140170,171239 "/>
    <polygon id="182" class="fil48" points="99497,171196 99497,171134 140170,171134 140170,171196 "/>
    <polygon id="183" class="fil48" points="99497,171154 99497,171091 140170,171091 140170,171154 "/>
    <polygon id="184" class="fil48" points="99497,171113 99497,171049 140170,171049 140170,171113 "/>
    <polygon id="185" class="fil48" points="99497,171070 99497,171008 140170,171008 140170,171070 "/>
    <polygon id="186" class="fil48" points="99497,171029 99497,170965 140170,170965 140170,171029 "/>
    <polygon id="187" class="fil48" points="99497,170986 99497,170924 140170,170924 140170,170986 "/>
    <polygon id="188" class="fil48" points="99497,170945 99497,170881 140170,170881 140170,170945 "/>
    <polygon id="189" class="fil48" points="99497,170903 99497,170840 140170,170840 140170,170903 "/>
    <polygon id="190" class="fil48" points="99497,170860 99497,170798 140170,170798 140170,170860 "/>
    <polygon id="191" class="fil48" points="99497,170819 99497,170756 140170,170756 140170,170819 "/>
    <polygon id="192" class="fil48" points="99497,170776 99497,170714 140170,170714 140170,170776 "/>
    <polygon id="193" class="fil49" points="99497,170735 99497,170671 140170,170671 140170,170735 "/>
    <polygon id="194" class="fil49" points="99497,170693 99497,170630 140170,170630 140170,170693 "/>
    <polygon id="195" class="fil49" points="99497,170651 99497,170588 140170,170588 140170,170651 "/>
    <polygon id="196" class="fil49" points="99497,170609 99497,170546 140170,170546 140170,170609 "/>
    <polygon id="197" class="fil50" points="99497,170567 99497,170504 140170,170504 140170,170567 "/>
    <polygon id="198" class="fil50" points="99497,170525 99497,170462 140170,170462 140170,170525 "/>
    <polygon id="199" class="fil50" points="99497,170484 99497,170420 140170,170420 140170,170484 "/>
    <polygon id="200" class="fil50" points="99497,170441 99497,170379 140170,170379 140170,170441 "/>
    <polygon id="201" class="fil50" points="99497,170399 99497,170336 140170,170336 140170,170399 "/>
    <polygon id="202" class="fil51" points="99497,170357 99497,170295 140170,170295 140170,170357 "/>
    <polygon id="203" class="fil51" points="99497,170315 99497,170252 140170,170252 140170,170315 "/>
    <polygon id="204" class="fil51" points="99497,170274 99497,170210 140170,170210 140170,170274 "/>
    <polygon id="205" class="fil51" points="99497,170231 99497,170169 140170,170169 140170,170231 "/>
    <polygon id="206" class="fil51" points="99497,170190 99497,170126 140170,170126 140170,170190 "/>
    <polygon id="207" class="fil51" points="99497,170147 99497,170085 140170,170085 140170,170147 "/>
    <polygon id="208" class="fil51" points="99497,170106 99497,170042 140170,170042 140170,170106 "/>
    <polygon id="209" class="fil51" points="99497,170064 99497,170001 140170,170001 140170,170064 "/>
    <polygon id="210" class="fil51" points="99497,170021 99497,169959 140170,169959 140170,170021 "/>
    <polygon id="211" class="fil51" points="99497,169980 99497,169917 140170,169917 140170,169980 "/>
    <polygon id="212" class="fil51" points="99497,169937 99497,169875 140170,169875 140170,169937 "/>
    <polygon id="213" class="fil51" points="99497,169896 99497,169832 140170,169832 140170,169896 "/>
    <polygon id="214" class="fil52" points="99497,169854 99497,169791 140170,169791 140170,169854 "/>
    <polygon id="215" class="fil53" points="99497,169812 99497,169749 140170,169749 140170,169812 "/>
    <polygon id="216" class="fil53" points="99497,169770 99497,169707 140170,169707 140170,169770 "/>
    <polygon id="217" class="fil53" points="99497,169727 99497,169665 140170,169665 140170,169727 "/>
    <polygon id="218" class="fil54" points="99497,169686 99497,169623 140170,169623 140170,169686 "/>
    <polygon id="219" class="fil54" points="99497,169645 99497,169581 140170,169581 140170,169645 "/>
    <polygon id="220" class="fil54" points="99497,169602 99497,169540 140170,169540 140170,169602 "/>
    <polygon id="221" class="fil54" points="99497,169560 99497,169497 140170,169497 140170,169560 "/>
    <polygon id="222" class="fil55" points="99497,169518 99497,169456 140170,169456 140170,169518 "/>
    <polygon id="223" class="fil55" points="99497,169476 99497,169413 140170,169413 140170,169476 "/>
    <polygon id="224" class="fil55" points="99497,169435 99497,169371 140170,169371 140170,169435 "/>
    <polygon id="225" class="fil55" points="99497,169392 99497,169330 140170,169330 140170,169392 "/>
    <polygon id="226" class="fil56" points="99497,169351 99497,169287 140170,169287 140170,169351 "/>
    <polygon id="227" class="fil56" points="99497,169308 99497,169246 140170,169246 140170,169308 "/>
    <polygon id="228" class="fil57" points="99497,169266 99497,169204 140170,169204 140170,169266 "/>
    <polygon id="229" class="fil58" points="99497,169225 99497,169162 140170,169162 140170,169225 "/>
    <polygon id="230" class="fil58" points="99497,169182 99497,169120 140170,169120 140170,169182 "/>
    <polygon id="231" class="fil58" points="99497,169141 99497,169077 140170,169077 140170,169141 "/>
    <polygon id="232" class="fil59" points="99497,169099 99497,169036 140170,169036 140170,169099 "/>
    <polygon id="233" class="fil60" points="99497,169057 99497,168995 140170,168995 140170,169057 "/>
    <polygon id="234" class="fil60" points="99497,169015 99497,168952 140170,168952 140170,169015 "/>
    <polygon id="235" class="fil61" points="99497,168973 99497,168910 140170,168910 140170,168973 "/>
    <polygon id="236" class="fil62" points="99497,168931 99497,168868 140170,168868 140170,168931 "/>
    <polygon id="237" class="fil63" points="99497,168890 99497,168826 140170,168826 140170,168890 "/>
    <polygon id="238" class="fil64" points="99497,168847 99497,168785 140170,168785 140170,168847 "/>
    <polygon id="239" class="fil65" points="99497,168805 99497,168742 140170,168742 140170,168805 "/>
    <polygon id="240" class="fil66" points="99497,168763 99497,168701 140170,168701 140170,168763 "/>
    <polygon id="241" class="fil67" points="99497,168721 99497,168658 140170,168658 140170,168721 "/>
    <polygon id="242" class="fil68" points="99497,168680 99497,168616 140170,168616 140170,168680 "/>
    <polygon id="243" class="fil69" points="99497,168637 99497,168575 140170,168575 140170,168637 "/>
    <polygon id="244" class="fil69" points="99497,168596 99497,168532 140170,168532 140170,168596 "/>
    <polygon id="245" class="fil70" points="99497,168553 99497,168491 140170,168491 140170,168553 "/>
    <polygon id="246" class="fil71" points="99497,168512 99497,168448 140170,168448 140170,168512 "/>
    <polygon id="247" class="fil72" points="99497,168470 99497,168407 140170,168407 140170,168470 "/>
    <polygon id="248" class="fil73" points="99497,168427 99497,168365 140170,168365 140170,168427 "/>
    <polygon id="249" class="fil74" points="99497,168386 99497,168323 140170,168323 140170,168386 "/>
    <polygon id="250" class="fil75" points="99497,168343 99497,168281 140170,168281 140170,168343 "/>
    <polygon id="251" class="fil76" points="99497,168302 99497,168238 140170,168238 140170,168302 "/>
    <polygon id="252" class="fil77" points="99497,168260 99497,168197 140170,168197 140170,168260 "/>
    <polygon id="253" class="fil78" points="99497,168218 99497,168155 140170,168155 140170,168218 "/>
    <polygon id="254" class="fil79" points="99497,168176 99497,168113 140170,168113 140170,168176 "/>
    <polygon id="255" class="fil80" points="99497,168133 99497,168051 140170,168051 140170,168133 "/>
   </g>
  </g>
 </g>
</svg>
