<?xml version="1.0" encoding="UTF-8"?>
<!DOCTYPE svg PUBLIC "-//W3C//DTD SVG 1.1//EN" "http://www.w3.org/Graphics/SVG/1.1/DTD/svg11.dtd">
<!-- Creator: CorelDRAW X8 -->
<svg xmlns="http://www.w3.org/2000/svg" xml:space="preserve" width="260px" height="260px" version="1.1" style="shape-rendering:geometricPrecision; text-rendering:geometricPrecision; image-rendering:optimizeQuality; fill-rule:evenodd; clip-rule:evenodd"
viewBox="0 0 158402 158402"
 xmlns:xlink="http://www.w3.org/1999/xlink">
 <defs>
  <style type="text/css">
   <![CDATA[
    .str1 {stroke:#A99018;stroke-width:2437.4}
    .str0 {stroke:#A99018;stroke-width:548.523}
    .str2 {stroke:#C5B513;stroke-width:548.523}
    .fil4 {fill:#634E10}
    .fil2 {fill:#DED60F;fill-rule:nonzero}
    .fil6 {fill:#F7F60A;fill-rule:nonzero}
    .fil3 {fill:#634E10;fill-rule:nonzero}
    .fil5 {fill:#7A6114;fill-rule:nonzero}
    .fil8 {fill:url(#id4)}
    .fil10 {fill:url(#id5)}
    .fil9 {fill:url(#id6)}
    .fil1 {fill:url(#id7)}
    .fil0 {fill:url(#id8)}
    .fil7 {fill:url(#id9)}
    .fil11 {fill:url(#id10)}
   ]]>
  </style>
     <clipPath id="id0">
      <path d="M64000 51563l30992 0 0 52677 -30992 0 0 -52677z"/>
     </clipPath>
     <clipPath id="id1">
      <path d="M85523 56093l28905 0 0 49182 -28905 0 0 -49182z"/>
     </clipPath>
     <clipPath id="id2">
      <path d="M63390 49145l30992 0 0 52677 -30992 0 0 -52677z"/>
     </clipPath>
     <clipPath id="id3">
      <path d="M84913 53675l28906 0 0 49183 -28906 0 0 -49183z"/>
     </clipPath>
  <linearGradient id="id4" gradientUnits="userSpaceOnUse" x1="49627.7" y1="95275.3" x2="65950.9" y2="59624.9">
   <stop offset="0" style="stop-opacity:1; stop-color:#957417"/>
   <stop offset="1" style="stop-opacity:1; stop-color:#FFFF51"/>
  </linearGradient>
  <linearGradient id="id5" gradientUnits="userSpaceOnUse" xlink:href="#id4" x1="65267.8" y1="63039.9" x2="70886.9" y2="50392.2">
  </linearGradient>
  <linearGradient id="id6" gradientUnits="userSpaceOnUse" xlink:href="#id4" x1="91205.3" y1="96091.6" x2="107527" y2="60441.2">
  </linearGradient>
  <linearGradient id="id7" gradientUnits="userSpaceOnUse" x1="79291.8" y1="148109" x2="79291.8" y2="9987.87">
   <stop offset="0" style="stop-opacity:1; stop-color:#8E6D1C"/>
   <stop offset="1" style="stop-opacity:1; stop-color:#FAFA0A"/>
  </linearGradient>
  <linearGradient id="id8" gradientUnits="userSpaceOnUse" xlink:href="#id7" x1="79200.4" y1="158127" x2="79200.4" y2="274.262">
  </linearGradient>
  <linearGradient id="id9" gradientUnits="userSpaceOnUse" xlink:href="#id4" x1="68119.8" y1="93540.5" x2="89651.9" y2="57426.5">
  </linearGradient>
  <linearGradient id="id10" gradientUnits="userSpaceOnUse" xlink:href="#id4" x1="86519.1" y1="63106.1" x2="92138.2" y2="50458.4">
  </linearGradient>
 </defs>
 <g id="kudo">
  <metadata id="CorelCorpID_0Corel-Layer"/>
  <path class="fil0 str0" d="M79200 274c43591,0 78927,35337 78927,78927 0,43590 -35336,78926 -78927,78926 -43589,0 -78926,-35336 -78926,-78926 0,-43590 35337,-78927 78926,-78927z"/>
  <path class="fil1 str1" d="M79292 9988c38141,0 69060,30919 69060,69061 0,38141 -30919,69060 -69060,69060 -38141,0 -69061,-30919 -69061,-69060 0,-38142 30920,-69061 69061,-69061z"/>
  <g id="_2839548166160">
   <path class="fil2" d="M72467 122773l-5187 0 0 -3457c0,-1008 -54,-1633 -164,-1885 -109,-247 -352,-373 -726,-373 -420,0 -688,151 -801,453 -113,306 -172,961 -172,1968l0 9241c0,970 59,1599 172,1897 113,294 369,440 764,440 382,0 633,-146 751,-444 117,-294 176,-990 176,-2086l0 -2505 5187 0 0 776c0,2065 -147,3530 -436,4390 -290,864 -936,1619 -1931,2270 -998,651 -2224,974 -3685,974 -1514,0 -2765,-273 -3751,-823 -982,-550 -1637,-1309 -1956,-2282 -319,-974 -478,-2435 -478,-4386l0 -5817c0,-1435 50,-2509 146,-3227 101,-717 391,-1410 882,-2073 487,-663 1162,-1188 2027,-1569 864,-382 1859,-571 2983,-571 1524,0 2783,294 3777,885 991,588 1642,1322 1956,2204 310,881 466,2249 466,4108l0 1892zm6664 -8686l0 4486c429,-394 890,-692 1385,-890 496,-197 1028,-298 1595,-298 869,0 1607,223 2220,663 609,445 982,953 1121,1532 133,579 201,1636 201,3168l0 11256 -4960 0 0 -11486c0,-949 -46,-1561 -143,-1830 -96,-273 -307,-407 -638,-407 -306,0 -512,139 -621,419 -105,277 -160,832 -160,1658l0 11646 -4960 0 0 -19917 4960 0zm13346 0l0 2593 -5112 0 0 -2593 5112 0zm0 3601l0 16316 -5112 0 0 -16316 5112 0zm6999 -2166l0 2568 1385 0 0 2594 -1385 0 0 8724c0,1071 59,1671 172,1793 113,121 583,184 1415,184l0 2619 -2011 0c-1133,0 -1943,-46 -2429,-143 -483,-92 -911,-311 -1280,-650 -369,-340 -600,-726 -693,-1167 -88,-437 -134,-1465 -134,-3084l0 -8276 -1058 0 0 -2594 1058 0 0 -2568 4960 0z"/>
   <path class="fil3" d="M71950 121803l-5187 0 0 -3457c0,-1008 -54,-1633 -164,-1885 -109,-248 -352,-373 -726,-373 -419,0 -688,151 -801,453 -113,306 -172,961 -172,1968l0 9241c0,969 59,1599 172,1897 113,293 369,440 764,440 382,0 633,-147 751,-445 118,-293 176,-990 176,-2085l0 -2505 5187 0 0 776c0,2064 -147,3529 -436,4389 -290,865 -936,1620 -1931,2271 -998,651 -2224,974 -3685,974 -1514,0 -2765,-273 -3751,-823 -982,-550 -1637,-1309 -1956,-2283 -318,-974 -478,-2434 -478,-4386l0 -5816c0,-1435 50,-2509 147,-3227 100,-718 390,-1410 881,-2073 487,-663 1162,-1188 2027,-1570 864,-382 1859,-570 2984,-570 1523,0 2782,293 3777,885 990,587 1641,1322 1955,2203 311,882 466,2249 466,4109l0 1892zm6664 -8686l0 4486c429,-395 890,-693 1385,-890 496,-197 1028,-298 1595,-298 869,0 1607,222 2220,663 609,445 982,952 1121,1532 134,579 201,1636 201,3168l0 11255 -4960 0 0 -11485c0,-949 -46,-1562 -143,-1830 -96,-273 -306,-408 -638,-408 -306,0 -512,139 -621,420 -105,277 -160,831 -160,1658l0 11645 -4960 0 0 -19916 4960 0zm13346 0l0 2593 -5112 0 0 -2593 5112 0zm0 3600l0 16316 -5112 0 0 -16316 5112 0zm6999 -2166l0 2569 1385 0 0 2593 -1385 0 0 8725c0,1070 60,1671 173,1792 113,122 583,185 1414,185l0 2618 -2011 0c-1133,0 -1942,-46 -2429,-142 -483,-92 -911,-311 -1280,-651 -369,-340 -600,-725 -692,-1167 -89,-436 -135,-1464 -135,-3084l0 -8276 -1057 0 0 -2593 1057 0 0 -2569 4960 0z"/>
  </g>
  <g id="_2839548165104">
   <g>
    <g style="clip-path:url(#id0)">
     <image x="64000" y="51563" width="30992" height="52677" xlink:href="4860-gold_personal-2f5b5906-0697-4a73-a395-f269f2a69069_Images\4860-gold_personal-2f5b5906-0697-4a73-a395-f269f2a69069_ImgID1.png"/>
    </g>
   </g>
   <path class="fil4" d="M77792 55138c1672,4073 2880,8405 4552,12479 931,114 1281,-1491 1207,-4217 2180,2065 3309,5752 4367,9551 5904,10843 4095,19477 -3623,26420 -3160,1713 -6317,1616 -9476,344 -7040,-4938 -10293,-14045 -3530,-26849 579,-2431 1246,-4856 2694,-7229 448,1926 975,3646 2044,3959 433,-4733 1331,-9725 1765,-14458z"/>
   <path class="fil4" d="M64835 58611c1569,3204 2522,5586 4681,6709 -2827,5226 -5283,10453 -8109,15679 2163,4368 3955,8736 6118,13104 -1892,2341 -3785,4681 -5678,7021 -5063,-6006 -9502,-13811 -14565,-19817 5776,-8165 11777,-14531 17553,-22696z"/>
   <g>
    <g style="clip-path:url(#id1)">
     <image x="85523" y="56093" width="28905" height="49183" xlink:href="4860-gold_personal-2f5b5906-0697-4a73-a395-f269f2a69069_Images\4860-gold_personal-2f5b5906-0697-4a73-a395-f269f2a69069_ImgID2.png"/>
    </g>
   </g>
   <path class="fil4" d="M93539 59428c-1569,3203 -2522,5585 -4681,6708 2827,5227 5566,10453 8393,15679 -2163,4369 -4239,8737 -6402,13105 1892,2341 3786,4680 5678,7020 5064,-6006 9503,-13810 14566,-19817 -5776,-8165 -11778,-14531 -17554,-22695z"/>
   <path class="fil4" d="M69819 66592c1056,-1067 1830,-2133 2887,-3199 0,-3822 0,-7644 0,-11466 -7732,-2024 -12010,8696 -2887,14665z"/>
   <path class="fil4" d="M88806 66658c-1057,-1066 -1831,-2132 -2887,-3198 0,-3823 0,-7645 0,-11468 7732,-2022 12010,8696 2887,14666z"/>
  </g>
  <path class="fil5" d="M69870 22408l-2743 9044 3000 10985 -4949 0 -1950 -8583 0 8583 -4809 0 0 -20029 4809 0 0 7782 2160 -7782 4482 0zm11465 3621l0 16408 -4680 0 82 -1368c-319,558 -713,976 -1179,1254 -466,278 -1004,418 -1611,418 -688,0 -1264,-131 -1719,-397 -456,-261 -790,-612 -1008,-1051 -214,-439 -350,-890 -404,-1367 -51,-473 -79,-1413 -79,-2827l0 -11070 4599 0 0 11167c0,1278 36,2034 109,2275 71,240 268,358 588,358 338,0 544,-122 607,-371 66,-245 97,-1043 97,-2384l0 -11045 4598 0zm12151 -3621l0 20029 -4599 0 0 -1194c-443,502 -906,874 -1392,1122 -490,249 -1000,376 -1533,376 -716,0 -1338,-202 -1864,-612 -525,-410 -864,-882 -1011,-1418 -148,-536 -222,-1410 -222,-2625l0 -7685c0,-1262 74,-2156 222,-2684 147,-528 490,-991 1023,-1392 533,-401 1171,-600 1910,-600 573,0 1094,115 1572,338 475,224 907,557 1295,1008l0 -4663 4599 0zm-4599 7749c0,-599 -46,-1005 -144,-1211 -97,-208 -288,-309 -571,-309 -280,0 -467,93 -564,279 -98,185 -144,599 -144,1241l0 8039c0,666 46,1105 140,1316 93,212 268,317 533,317 300,0 501,-118 599,-355 101,-232 151,-805 151,-1721l0 -7596zm16657 1633l0 4022c0,1476 -70,2557 -207,3249 -136,687 -427,1330 -875,1929 -447,599 -1023,1038 -1727,1325 -705,283 -1510,426 -2420,426 -1019,0 -1883,-122 -2588,-363 -707,-245 -1256,-612 -1645,-1101 -393,-494 -674,-1089 -841,-1785 -167,-697 -249,-1744 -249,-3136l0 -4208c0,-1527 152,-2718 455,-3578 304,-857 853,-1545 1642,-2064 790,-519 1802,-781 3032,-781 1030,0 1917,169 2660,503 739,333 1312,768 1716,1303 401,537 677,1089 825,1659 148,570 222,1435 222,2600zm-4599 -1237c0,-840 -43,-1371 -125,-1586 -85,-220 -264,-330 -540,-330 -276,0 -460,110 -552,330 -90,215 -136,746 -136,1586l0 7407c0,776 46,1282 136,1514 92,237 272,355 540,355 277,0 455,-105 545,-321 89,-215 132,-675 132,-1384l0 -7571z"/>
  <path class="fil6 str2" d="M67627 20800l-2742 9043 2999 10985 -4949 0 -1949 -8583 0 8583 -4809 0 0 -20028 4809 0 0 7782 2160 -7782 4481 0zm11466 3621l0 16407 -4680 0 82 -1367c-319,557 -712,975 -1179,1254 -467,278 -1005,418 -1611,418 -689,0 -1264,-131 -1719,-397 -456,-262 -791,-612 -1008,-1051 -215,-439 -351,-890 -405,-1368 -51,-472 -78,-1413 -78,-2827l0 -11069 4599 0 0 11166c0,1279 35,2034 109,2275 70,240 268,358 588,358 338,0 544,-122 607,-370 66,-246 97,-1044 97,-2385l0 -11044 4598 0zm12151 -3621l0 20028 -4599 0 0 -1193c-443,501 -906,873 -1392,1122 -490,249 -1001,376 -1533,376 -717,0 -1339,-203 -1864,-612 -525,-410 -864,-883 -1011,-1418 -149,-536 -222,-1410 -222,-2625l0 -7685c0,-1262 73,-2157 222,-2684 147,-528 490,-992 1022,-1392 534,-402 1172,-600 1911,-600 572,0 1093,114 1571,338 475,224 907,557 1296,1008l0 -4663 4599 0zm-4599 7748c0,-599 -46,-1005 -144,-1211 -97,-207 -288,-308 -571,-308 -280,0 -468,93 -565,278 -97,186 -144,600 -144,1241l0 8040c0,666 47,1105 141,1316 92,211 268,316 532,316 300,0 502,-118 600,-354 101,-232 151,-806 151,-1722l0 -7596zm16657 1634l0 4021c0,1477 -70,2557 -207,3249 -136,688 -428,1330 -875,1929 -447,599 -1023,1038 -1727,1326 -705,282 -1510,426 -2420,426 -1020,0 -1883,-123 -2588,-364 -708,-245 -1256,-612 -1646,-1101 -393,-494 -673,-1089 -840,-1785 -168,-696 -249,-1743 -249,-3135l0 -4208c0,-1527 152,-2718 455,-3579 304,-856 852,-1544 1642,-2064 790,-519 1802,-780 3031,-780 1031,0 1918,168 2661,502 739,334 1311,768 1716,1304 401,536 677,1089 825,1659 147,569 222,1434 222,2600zm-4599 -1237c0,-840 -43,-1372 -125,-1587 -86,-220 -264,-329 -541,-329 -275,0 -459,109 -552,329 -90,215 -136,747 -136,1587l0 7406c0,777 46,1283 136,1515 93,236 272,354 541,354 276,0 455,-105 545,-320 89,-215 132,-675 132,-1384l0 -7571z"/>
  <g id="_2874862060976">
   <g>
    <g style="clip-path:url(#id2)">
     <image x="63390" y="49145" width="30992" height="52678" xlink:href="4860-gold_personal-2f5b5906-0697-4a73-a395-f269f2a69069_Images\4860-gold_personal-2f5b5906-0697-4a73-a395-f269f2a69069_ImgID3.png"/>
    </g>
   </g>
   <path class="fil7" d="M77182 52720c1672,4074 2880,8406 4552,12479 931,115 1282,-1490 1207,-4217 2180,2065 3310,5752 4367,9552 5904,10843 4095,19477 -3623,26419 -3159,1714 -6317,1616 -9475,344 -7041,-4937 -10294,-14045 -3530,-26849 578,-2431 1245,-4856 2693,-7229 448,1926 975,3647 2044,3959 433,-4733 1332,-9724 1765,-14458z"/>
   <path class="fil8" d="M64225 56193c1570,3204 2523,5586 4682,6709 -2827,5226 -5283,10453 -8110,15679 2163,4368 3955,8736 6119,13105 -1893,2340 -3786,4680 -5679,7020 -5063,-6006 -9502,-13810 -14565,-19817 5776,-8165 11777,-14531 17553,-22696z"/>
   <g>
    <g style="clip-path:url(#id3)">
     <image x="84913" y="53675" width="28905" height="49184" xlink:href="4860-gold_personal-2f5b5906-0697-4a73-a395-f269f2a69069_Images\4860-gold_personal-2f5b5906-0697-4a73-a395-f269f2a69069_ImgID4.png"/>
    </g>
   </g>
   <path class="fil9" d="M92929 57010c-1569,3204 -2522,5586 -4681,6709 2827,5226 5567,10452 8394,15679 -2164,4368 -4240,8736 -6403,13104 1893,2341 3786,4681 5678,7021 5064,-6007 9503,-13811 14567,-19817 -5777,-8165 -11779,-14531 -17555,-22696z"/>
   <path class="fil10" d="M69209 64174c1057,-1066 1831,-2132 2887,-3198 0,-3822 0,-7645 0,-11467 -7732,-2023 -12010,8696 -2887,14665z"/>
   <path class="fil11" d="M88196 64240c-1056,-1066 -1830,-2132 -2887,-3198 0,-3823 0,-7645 0,-11468 7733,-2022 12010,8696 2887,14666z"/>
  </g>
 </g>
</svg>
