<?xml version="1.0" encoding="UTF-8"?>
<!DOCTYPE svg PUBLIC "-//W3C//DTD SVG 1.1//EN" "http://www.w3.org/Graphics/SVG/1.1/DTD/svg11.dtd">
<!-- Creator: CorelDRAW X8 -->
<svg xmlns="http://www.w3.org/2000/svg" xml:space="preserve" width="260px" height="260px" version="1.1" style="shape-rendering:geometricPrecision; text-rendering:geometricPrecision; image-rendering:optimizeQuality; fill-rule:evenodd; clip-rule:evenodd"
viewBox="0 0 64267 64267"
 xmlns:xlink="http://www.w3.org/1999/xlink">
 <defs>
  <style type="text/css">
   <![CDATA[
    .str1 {stroke:#A99018;stroke-width:988.902}
    .str0 {stroke:#A99018;stroke-width:222.547}
    .str2 {stroke:#BEAB14;stroke-width:222.547}
    .fil6 {fill:#634E10}
    .fil2 {fill:#DED60F;fill-rule:nonzero}
    .fil7 {fill:#E5DE0E;fill-rule:nonzero}
    .fil4 {fill:#F7F60A;fill-rule:nonzero}
    .fil3 {fill:#634E10;fill-rule:nonzero}
    .fil5 {fill:#7D6315;fill-rule:nonzero}
    .fil12 {fill:url(#id4)}
    .fil10 {fill:url(#id5)}
    .fil9 {fill:url(#id6)}
    .fil8 {fill:url(#id7)}
    .fil11 {fill:url(#id8)}
    .fil1 {fill:url(#id9)}
    .fil0 {fill:url(#id10)}
   ]]>
  </style>
     <clipPath id="id0">
      <path d="M27091 22728l10729 0 0 18373 -10729 0 0 -18373z"/>
     </clipPath>
     <clipPath id="id1">
      <path d="M34542 24310l10006 0 0 17154 -10006 0 0 -17154z"/>
     </clipPath>
     <clipPath id="id2">
      <path d="M26597 21986l10728 0 0 18373 -10728 0 0 -18373z"/>
     </clipPath>
     <clipPath id="id3">
      <path d="M34047 23567l10006 0 0 17155 -10006 0 0 -17155z"/>
     </clipPath>
  <linearGradient id="id4" gradientUnits="userSpaceOnUse" x1="34602.8" y1="26850.5" x2="36548.2" y2="22434">
   <stop offset="0" style="stop-opacity:1; stop-color:#957417"/>
   <stop offset="1" style="stop-opacity:1; stop-color:#FFFF51"/>
  </linearGradient>
  <linearGradient id="id5" gradientUnits="userSpaceOnUse" xlink:href="#id4" x1="36224.9" y1="38368.9" x2="41875.3" y2="25920">
  </linearGradient>
  <linearGradient id="id6" gradientUnits="userSpaceOnUse" xlink:href="#id4" x1="21832.7" y1="38083.5" x2="27482.8" y2="25634.9">
  </linearGradient>
  <linearGradient id="id7" gradientUnits="userSpaceOnUse" xlink:href="#id4" x1="28233.4" y1="37478.1" x2="35687.5" y2="24867.1">
  </linearGradient>
  <linearGradient id="id8" gradientUnits="userSpaceOnUse" xlink:href="#id4" x1="27246.5" y1="26827.7" x2="29191.6" y2="22411.2">
  </linearGradient>
  <linearGradient id="id9" gradientUnits="userSpaceOnUse" x1="32170.3" y1="60090.8" x2="32170.3" y2="4052.28">
   <stop offset="0" style="stop-opacity:1; stop-color:#8E6D1C"/>
   <stop offset="1" style="stop-opacity:1; stop-color:#FAFA0A"/>
  </linearGradient>
  <linearGradient id="id10" gradientUnits="userSpaceOnUse" xlink:href="#id9" x1="32133.2" y1="64155.4" x2="32133.2" y2="111.273">
  </linearGradient>
 </defs>
 <g id="kudo">
  <metadata id="CorelCorpID_0Corel-Layer"/>
  <path class="fil0 str0" d="M32133 111c17686,0 32022,14337 32022,32022 0,17686 -14336,32022 -32022,32022 -17685,0 -32022,-14336 -32022,-32022 0,-17685 14337,-32022 32022,-32022z"/>
  <path class="fil1 str1" d="M32170 4052c15475,0 28020,12545 28020,28020 0,15474 -12545,28019 -28020,28019 -15474,0 -28019,-12545 -28019,-28019 0,-15475 12545,-28020 28019,-28020z"/>
  <g id="_1939225745792">
   <path class="fil2" d="M29689 49074l-2079 0 0 -1386c0,-404 -21,-654 -65,-755 -44,-99 -141,-149 -291,-149 -168,0 -276,60 -321,181 -45,123 -69,385 -69,789l0 3702c0,389 24,641 69,760 45,118 148,177 306,177 153,0 254,-59 301,-179 47,-117 70,-396 70,-835l0 -1004 2079 0 0 311c0,827 -59,1414 -175,1759 -116,346 -375,649 -774,910 -400,260 -891,390 -1476,390 -607,0 -1108,-109 -1503,-330 -394,-220 -656,-525 -783,-914 -128,-391 -192,-976 -192,-1758l0 -2330c0,-575 20,-1006 59,-1293 40,-288 156,-565 353,-831 195,-265 465,-476 812,-629 346,-153 745,-228 1195,-228 611,0 1115,117 1513,355 397,235 658,529 784,882 124,353 187,901 187,1646l0 759zm2670 -3481l0 1798c171,-159 356,-278 555,-357 198,-79 412,-119 639,-119 348,0 644,89 889,265 244,179 394,382 449,614 54,232 81,656 81,1269l0 4510 -1987 0 0 -4602c0,-380 -19,-625 -58,-733 -38,-109 -123,-163 -256,-163 -122,0 -205,56 -248,168 -42,111 -64,333 -64,664l0 4666 -1988 0 0 -7980 1988 0zm5347 0l0 1039 -2048 0 0 -1039 2048 0zm0 1443l0 6537 -2048 0 0 -6537 2048 0zm2804 -868l0 1029 555 0 0 1039 -555 0 0 3496c0,429 24,669 69,718 46,49 234,74 567,74l0 1049 -805 0c-455,0 -779,-18 -974,-57 -194,-37 -365,-125 -513,-261 -148,-136 -240,-290 -277,-467 -36,-175 -54,-587 -54,-1236l0 -3316 -424 0 0 -1039 424 0 0 -1029 1987 0z"/>
   <path class="fil3" d="M29482 48685l-2079 0 0 -1386c0,-403 -21,-654 -65,-755 -44,-99 -141,-149 -291,-149 -168,0 -276,60 -321,182 -46,122 -69,384 -69,788l0 3702c0,389 23,641 69,760 45,118 148,177 306,177 153,0 254,-59 301,-178 47,-118 70,-397 70,-836l0 -1004 2079 0 0 311c0,827 -59,1414 -175,1759 -116,346 -375,649 -774,910 -400,260 -891,390 -1476,390 -607,0 -1108,-109 -1503,-330 -394,-220 -656,-524 -784,-914 -127,-391 -191,-976 -191,-1758l0 -2330c0,-575 20,-1005 58,-1293 41,-288 157,-565 354,-831 195,-265 465,-475 812,-628 346,-153 745,-229 1195,-229 611,0 1115,118 1513,355 397,235 658,529 784,883 124,352 187,901 187,1645l0 759zm2670 -3481l0 1798c171,-158 356,-278 555,-357 198,-79 412,-119 639,-119 348,0 643,89 889,265 244,179 394,382 449,614 54,232 81,656 81,1270l0 4509 -1988 0 0 -4602c0,-380 -18,-625 -57,-733 -38,-109 -123,-163 -256,-163 -122,0 -205,56 -248,168 -42,111 -64,333 -64,664l0 4666 -1988 0 0 -7980 1988 0zm5347 0l0 1039 -2048 0 0 -1039 2048 0zm0 1443l0 6537 -2048 0 0 -6537 2048 0zm2804 -868l0 1029 555 0 0 1040 -555 0 0 3495c0,429 24,670 69,718 45,49 234,74 567,74l0 1049 -806 0c-454,0 -778,-18 -973,-57 -194,-37 -365,-124 -513,-260 -148,-137 -240,-291 -277,-468 -36,-175 -54,-587 -54,-1235l0 -3316 -424 0 0 -1040 424 0 0 -1029 1987 0z"/>
  </g>
  <path class="fil4" d="M28829 11550l-1078 3348 1179 4066 -1946 0 -766 -3177 0 3177 -1890 0 0 -7414 1890 0 0 2880 849 -2880 1762 0zm4506 1340l0 6074 -1840 0 32 -506c-125,206 -279,361 -463,464 -183,103 -394,155 -633,155 -271,0 -497,-49 -676,-147 -179,-97 -310,-227 -396,-389 -84,-163 -137,-330 -159,-506 -20,-175 -31,-524 -31,-1047l0 -4098 1808 0 0 4134c0,473 14,753 43,842 27,89 105,133 231,133 133,0 214,-45 238,-138 26,-90 38,-386 38,-882l0 -4089 1808 0zm4776 -1340l0 7414 -1808 0 0 -442c-174,186 -356,324 -547,416 -193,92 -393,139 -603,139 -281,0 -526,-75 -732,-227 -207,-151 -340,-326 -398,-525 -58,-198 -87,-522 -87,-972l0 -2844c0,-468 29,-799 87,-994 58,-195 193,-367 402,-515 210,-149 461,-222 751,-222 225,0 430,42 618,125 186,82 356,206 509,373l0 -1726 1808 0zm-1808 2868c0,-222 -18,-372 -57,-448 -37,-77 -113,-114 -224,-114 -110,0 -184,34 -222,103 -38,68 -56,221 -56,459l0 2976c0,247 18,409 54,488 37,78 106,117 210,117 118,0 197,-44 236,-132 39,-85 59,-298 59,-637l0 -2812zm6547 605l0 1488c0,547 -28,947 -81,1203 -54,255 -169,492 -345,714 -175,222 -402,385 -678,491 -277,105 -594,158 -952,158 -400,0 -740,-45 -1017,-135 -278,-90 -493,-226 -646,-408 -155,-182 -265,-402 -331,-660 -65,-258 -98,-646 -98,-1161l0 -1558c0,-565 60,-1006 179,-1324 120,-318 335,-572 646,-764 310,-192 708,-289 1191,-289 405,0 754,62 1046,185 290,124 515,285 674,483 158,199 266,403 324,614 59,211 88,531 88,963zm-1808 -458c0,-311 -17,-508 -49,-587 -34,-82 -104,-122 -212,-122 -109,0 -181,40 -217,122 -36,79 -54,276 -54,587l0 2742c0,287 18,475 54,560 36,88 107,132 212,132 109,0 179,-39 214,-119 35,-80 52,-250 52,-512l0 -2803z"/>
  <path class="fil5" d="M21876 12017l-1010 3137 1105 3810 -1823 0 -718 -2977 0 2977 -1771 0 0 -6947 1771 0 0 2699 795 -2699 1651 0zm2091 0l0 904 -1746 0 0 -904 1746 0zm0 1255l0 5692 -1746 0 0 -5692 1746 0zm2330 0l-26 529c123,-211 274,-369 451,-476 178,-105 383,-158 616,-158 291,0 529,70 714,211 185,139 304,316 357,530 53,212 80,568 80,1066l0 3990 -1694 0 0 -3942c0,-391 -13,-631 -38,-716 -25,-86 -95,-129 -211,-129 -122,0 -198,50 -229,148 -30,100 -46,363 -46,792l0 3847 -1694 0 0 -5692 1720 0zm6637 -1255l0 6947 -1693 0 0 -414c-164,174 -334,303 -513,390 -181,86 -369,130 -565,130 -264,0 -493,-71 -687,-213 -193,-141 -318,-306 -372,-491 -55,-186 -82,-489 -82,-911l0 -2666c0,-437 27,-748 82,-931 54,-183 180,-344 377,-483 196,-139 431,-208 703,-208 211,0 403,40 579,117 175,78 334,194 478,350l0 -1617 1693 0zm-1693 2687c0,-208 -18,-348 -53,-420 -36,-72 -107,-107 -211,-107 -103,0 -172,32 -208,97 -36,64 -53,208 -53,430l0 2789c0,231 17,384 52,457 34,73 98,110 196,110 110,0 185,-41 221,-123 37,-81 56,-280 56,-598l0 -2635zm4019 -1432l-26 529c123,-211 274,-369 451,-476 178,-105 383,-158 617,-158 291,0 528,70 713,211 185,139 304,316 357,530 53,212 80,568 80,1066l0 3990 -1694 0 0 -3942c0,-391 -12,-631 -38,-716 -25,-86 -95,-129 -211,-129 -121,0 -198,50 -229,148 -30,100 -46,363 -46,792l0 3847 -1694 0 0 -5692 1720 0zm6620 2943l-2201 0 0 1234c0,258 19,425 54,499 38,75 108,112 213,112 130,0 218,-50 260,-148 45,-100 66,-291 66,-576l0 -752 1608 0 0 422c0,352 -21,623 -64,812 -45,189 -147,391 -305,606 -159,215 -363,377 -608,485 -245,106 -552,161 -921,161 -359,0 -675,-53 -951,-160 -273,-105 -487,-250 -640,-435 -154,-184 -258,-387 -317,-610 -59,-221 -89,-543 -89,-968l0 -1661c0,-498 66,-890 198,-1179 132,-287 347,-508 646,-660 301,-154 645,-230 1035,-230 476,0 868,92 1178,277 310,184 527,429 652,733 125,303 186,732 186,1284l0 754zm-1694 -922l0 -416c0,-296 -15,-484 -47,-571 -31,-86 -96,-129 -193,-129 -121,0 -195,37 -224,110 -29,73 -43,269 -43,590l0 416 507 0zm5711 -202l-1496 0 0 -309c0,-264 -15,-429 -45,-499 -29,-71 -103,-106 -220,-106 -95,0 -167,32 -214,97 -47,64 -72,161 -72,290 0,174 12,303 36,383 23,82 95,172 214,268 117,98 361,240 729,426 492,246 813,478 966,696 153,216 231,532 231,947 0,464 -59,814 -177,1050 -117,235 -313,418 -589,545 -276,128 -607,191 -997,191 -430,0 -800,-69 -1105,-205 -306,-138 -517,-324 -632,-558 -114,-234 -172,-589 -172,-1063l0 -273 1505 0 0 358c0,305 19,502 56,594 39,91 113,137 223,137 121,0 204,-31 251,-93 47,-61 72,-191 72,-388 0,-272 -30,-442 -92,-510 -64,-69 -393,-273 -984,-611 -497,-285 -801,-544 -910,-779 -109,-232 -163,-509 -163,-830 0,-455 58,-790 176,-1006 117,-216 316,-383 597,-500 281,-117 608,-176 979,-176 370,0 683,49 941,144 260,96 457,222 596,380 138,157 223,303 251,438 30,135 45,346 45,631l0 331zm4046 0l-1496 0 0 -309c0,-264 -14,-429 -44,-499 -29,-71 -103,-106 -221,-106 -94,0 -166,32 -213,97 -48,64 -72,161 -72,290 0,174 12,303 36,383 23,82 94,172 213,268 118,98 361,240 730,426 491,246 812,478 966,696 153,216 230,532 230,947 0,464 -59,814 -176,1050 -118,235 -314,418 -589,545 -276,128 -608,191 -997,191 -430,0 -800,-69 -1105,-205 -307,-138 -517,-324 -632,-558 -115,-234 -172,-589 -172,-1063l0 -273 1505 0 0 358c0,305 18,502 56,594 38,91 113,137 223,137 120,0 203,-31 251,-93 47,-61 71,-191 71,-388 0,-272 -30,-442 -91,-510 -65,-69 -393,-273 -985,-611 -497,-285 -801,-544 -910,-779 -109,-232 -163,-509 -163,-830 0,-455 59,-790 176,-1006 118,-216 317,-383 598,-500 281,-117 607,-176 979,-176 369,0 683,49 941,144 259,96 457,222 596,380 138,157 222,303 251,438 30,135 44,346 44,631l0 331z"/>
  <g id="_1940688635408">
   <g>
    <g style="clip-path:url(#id0)">
     <image x="27091" y="22728" width="10728" height="18373" xlink:href="gold_kindness_Images\gold_kindness_ImgID1.png"/>
    </g>
   </g>
   <path class="fil6" d="M31865 23966c579,1422 997,2935 1576,4357 322,41 444,-520 418,-1472 755,721 1146,2009 1512,3335 2044,3787 1418,6802 -1254,9226 -1094,598 -2187,564 -3281,120 -2437,-1724 -3563,-4904 -1221,-9375 200,-849 431,-1696 932,-2525 155,673 337,1273 708,1383 149,-1653 461,-3396 610,-5049z"/>
   <path class="fil6" d="M27381 25179c543,1119 873,1950 1620,2342 -979,1825 -1829,3650 -2807,5475 748,1526 1369,3051 2118,4576 -655,818 -1311,1635 -1966,2452 -1753,-2097 -3289,-4822 -5042,-6920 2000,-2851 4077,-5074 6077,-7925z"/>
   <g>
    <g style="clip-path:url(#id1)">
     <image x="34542" y="24310" width="10006" height="17154" xlink:href="gold_kindness_Images\gold_kindness_ImgID2.png"/>
    </g>
   </g>
   <path class="fil6" d="M37317 25464c-543,1119 -873,1950 -1621,2342 979,1825 1927,3650 2906,5476 -749,1525 -1468,3050 -2216,4576 655,817 1310,1634 1965,2451 1753,-2097 3289,-4822 5042,-6920 -1999,-2851 -4077,-5074 -6076,-7925z"/>
   <path class="fil6" d="M29105 27966c366,-373 634,-745 1000,-1117 0,-1335 0,-2670 0,-4004 -2677,-707 -4157,3036 -1000,5121z"/>
   <path class="fil6" d="M35678 27989c-365,-373 -633,-745 -999,-1117 0,-1335 0,-2670 0,-4004 2676,-707 4157,3036 999,5121z"/>
  </g>
  <path class="fil7 str2" d="M20907 11027l-1010 3137 1105 3811 -1823 0 -718 -2978 0 2978 -1771 0 0 -6948 1771 0 0 2700 795 -2700 1651 0zm2091 0l0 905 -1745 0 0 -905 1745 0zm0 1256l0 5692 -1745 0 0 -5692 1745 0zm2330 0l-26 529c124,-211 274,-369 452,-476 178,-106 382,-158 616,-158 291,0 529,70 714,210 185,139 304,317 356,531 54,212 81,568 81,1065l0 3991 -1694 0 0 -3943c0,-390 -13,-630 -39,-715 -24,-87 -94,-129 -210,-129 -122,0 -198,50 -230,148 -30,99 -46,363 -46,792l0 3847 -1693 0 0 -5692 1719 0zm6638 -1256l0 6948 -1694 0 0 -415c-163,175 -334,304 -513,390 -181,87 -368,130 -565,130 -263,0 -492,-70 -686,-212 -194,-142 -318,-306 -372,-492 -55,-186 -82,-489 -82,-910l0 -2666c0,-438 27,-748 82,-931 54,-183 180,-344 376,-483 197,-140 432,-208 704,-208 210,0 403,39 579,117 175,77 334,193 477,350l0 -1618 1694 0zm-1694 2688c0,-208 -17,-348 -53,-420 -36,-72 -106,-107 -211,-107 -103,0 -172,32 -208,96 -35,65 -53,208 -53,431l0 2789c0,231 18,383 52,456 35,74 99,110 196,110 111,0 185,-41 221,-123 37,-80 56,-279 56,-597l0 -2635zm4019 -1432l-26 529c124,-211 274,-369 452,-476 178,-106 383,-158 616,-158 291,0 529,70 714,210 185,139 304,317 357,531 53,212 80,568 80,1065l0 3991 -1694 0 0 -3943c0,-390 -13,-630 -39,-715 -24,-87 -94,-129 -210,-129 -122,0 -198,50 -229,148 -30,99 -47,363 -47,792l0 3847 -1693 0 0 -5692 1719 0zm6621 2943l-2201 0 0 1234c0,257 18,424 54,499 37,75 107,111 212,111 130,0 218,-50 261,-148 44,-99 66,-291 66,-575l0 -752 1608 0 0 421c0,353 -22,624 -65,813 -44,189 -146,391 -305,606 -159,215 -363,376 -607,484 -246,107 -552,161 -922,161 -359,0 -675,-53 -950,-159 -274,-106 -487,-251 -641,-435 -153,-185 -258,-388 -316,-610 -59,-222 -89,-544 -89,-968l0 -1662c0,-497 66,-890 198,-1178 131,-287 346,-508 646,-661 301,-153 645,-229 1034,-229 476,0 869,92 1178,276 310,185 527,429 652,734 125,303 187,732 187,1284l0 754zm-1694 -923l0 -415c0,-296 -16,-485 -47,-571 -32,-87 -97,-129 -194,-129 -120,0 -195,36 -223,110 -29,73 -43,269 -43,590l0 415 507 0zm5710 -202l-1496 0 0 -309c0,-263 -14,-428 -44,-499 -29,-70 -103,-105 -221,-105 -95,0 -166,32 -213,96 -48,65 -72,161 -72,290 0,175 11,303 36,384 23,82 94,171 213,268 118,98 361,240 730,426 491,246 812,477 966,695 153,217 230,533 230,947 0,464 -59,814 -176,1050 -118,236 -314,419 -589,546 -277,127 -608,190 -997,190 -430,0 -800,-69 -1105,-205 -307,-137 -518,-323 -632,-558 -115,-234 -172,-588 -172,-1062l0 -274 1504 0 0 359c0,304 19,502 57,594 38,91 113,136 223,136 120,0 203,-31 251,-92 47,-62 71,-192 71,-388 0,-272 -30,-442 -91,-511 -65,-69 -393,-272 -985,-610 -497,-286 -801,-545 -910,-779 -109,-233 -163,-510 -163,-830 0,-456 59,-791 176,-1006 118,-217 317,-383 598,-501 280,-117 607,-175 979,-175 369,0 683,48 941,143 259,97 457,223 596,381 137,156 222,303 250,438 31,134 45,345 45,630l0 331zm4047 0l-1496 0 0 -309c0,-263 -14,-428 -45,-499 -28,-70 -103,-105 -221,-105 -94,0 -166,32 -213,96 -47,65 -72,161 -72,290 0,175 12,303 36,384 23,82 95,171 214,268 117,98 361,240 729,426 492,246 813,477 966,695 153,217 231,533 231,947 0,464 -59,814 -177,1050 -117,236 -313,419 -589,546 -276,127 -607,190 -997,190 -430,0 -799,-69 -1105,-205 -306,-137 -517,-323 -632,-558 -114,-234 -171,-588 -171,-1062l0 -274 1504 0 0 359c0,304 19,502 56,594 39,91 113,136 224,136 120,0 203,-31 250,-92 48,-62 72,-192 72,-388 0,-272 -30,-442 -92,-511 -64,-69 -392,-272 -984,-610 -497,-286 -801,-545 -910,-779 -109,-233 -163,-510 -163,-830 0,-456 58,-791 176,-1006 117,-217 317,-383 597,-501 281,-117 608,-175 979,-175 370,0 684,48 942,143 259,97 457,223 596,381 137,156 222,303 250,438 31,134 45,345 45,630l0 331z"/>
  <g id="_1940693638784">
   <g>
    <g style="clip-path:url(#id2)">
     <image x="26597" y="21986" width="10728" height="18373" xlink:href="gold_kindness_Images\gold_kindness_ImgID3.png"/>
    </g>
   </g>
   <path class="fil8" d="M31371 23224c578,1422 997,2935 1576,4357 322,40 443,-520 417,-1472 755,721 1146,2009 1512,3335 2044,3787 1418,6802 -1254,9226 -1094,598 -2187,564 -3280,120 -2438,-1724 -3563,-4904 -1222,-9376 200,-849 431,-1695 933,-2524 154,673 337,1273 707,1382 150,-1652 461,-3395 611,-5048z"/>
   <path class="fil9" d="M26886 24437c543,1118 873,1950 1620,2342 -979,1825 -1829,3650 -2807,5475 749,1526 1369,3051 2118,4576 -655,818 -1311,1635 -1966,2452 -1753,-2097 -3289,-4823 -5042,-6920 2000,-2851 4077,-5074 6077,-7925z"/>
   <g>
    <g style="clip-path:url(#id3)">
     <image x="34047" y="23567" width="10006" height="17154" xlink:href="gold_kindness_Images\gold_kindness_ImgID4.png"/>
    </g>
   </g>
   <path class="fil10" d="M36822 24722c-543,1119 -873,1950 -1620,2342 978,1825 1927,3650 2905,5475 -749,1526 -1467,3051 -2216,4577 655,817 1310,1634 1965,2451 1753,-2097 3290,-4823 5043,-6920 -2000,-2851 -4077,-5074 -6077,-7925z"/>
   <path class="fil11" d="M28611 27223c366,-372 633,-744 999,-1116 0,-1335 0,-2670 0,-4004 -2676,-707 -4157,3036 -999,5120z"/>
   <path class="fil12" d="M35184 27246c-366,-372 -634,-744 -1000,-1116 0,-1335 0,-2670 0,-4004 2677,-707 4157,3036 1000,5120z"/>
  </g>
 </g>
</svg>
