<?xml version="1.0" encoding="UTF-8"?>
<!DOCTYPE svg PUBLIC "-//W3C//DTD SVG 1.1//EN" "http://www.w3.org/Graphics/SVG/1.1/DTD/svg11.dtd">
<!-- Creator: CorelDRAW X8 -->
<svg xmlns="http://www.w3.org/2000/svg" xml:space="preserve" width="260px" height="260px" version="1.1" style="shape-rendering:geometricPrecision; text-rendering:geometricPrecision; image-rendering:optimizeQuality; fill-rule:evenodd; clip-rule:evenodd"
viewBox="0 0 191848 191848"
 xmlns:xlink="http://www.w3.org/1999/xlink">
 <defs>
  <style type="text/css">
   <![CDATA[
    .str1 {stroke:#999999;stroke-width:2949.79}
    .str0 {stroke:#999999;stroke-width:663.834}
    .fil6 {fill:#4D4D4D}
    .fil12 {fill:#CCCCCC}
    .fil13 {fill:#CECECE}
    .fil14 {fill:#CFCFCF}
    .fil15 {fill:#D0D0D0}
    .fil16 {fill:#D1D1D1}
    .fil17 {fill:#D2D2D2}
    .fil18 {fill:lightgrey}
    .fil19 {fill:#D4D4D4}
    .fil20 {fill:#D5D5D5}
    .fil21 {fill:#D6D6D6}
    .fil22 {fill:#D7D7D7}
    .fil23 {fill:#D8D8D8}
    .fil24 {fill:#D9D9D9}
    .fil25 {fill:#DADADA}
    .fil26 {fill:#DBDBDB}
    .fil27 {fill:gainsboro}
    .fil28 {fill:#DDDDDD}
    .fil29 {fill:#DEDEDE}
    .fil30 {fill:#DFDFDF}
    .fil31 {fill:#E0E0E0}
    .fil32 {fill:#E1E1E1}
    .fil33 {fill:#E2E2E2}
    .fil34 {fill:#E3E3E3}
    .fil35 {fill:#E4E4E4}
    .fil36 {fill:#E5E5E5}
    .fil37 {fill:#E7E7E7}
    .fil38 {fill:#F3F3F3}
    .fil39 {fill:#F4F4F4}
    .fil40 {fill:white}
    .fil2 {fill:#333333;fill-rule:nonzero}
    .fil4 {fill:#4D4D4D;fill-rule:nonzero}
    .fil3 {fill:#CCCCCC;fill-rule:nonzero}
    .fil5 {fill:#E6E6E6;fill-rule:nonzero}
    .fil0 {fill:url(#id1)}
    .fil1 {fill:url(#id2)}
    .fil7 {fill:url(#id3)}
    .fil8 {fill:url(#id4)}
    .fil10 {fill:url(#id5)}
    .fil9 {fill:url(#id6)}
    .fil11 {fill:url(#id7)}
   ]]>
  </style>
    <clipPath id="id0">
     <path d="M72385 126287l0 -7631 28597 0 0 7631 -28597 0z"/>
    </clipPath>
  <linearGradient id="id1" gradientUnits="userSpaceOnUse" x1="95924" y1="191516" x2="95924" y2="331.917">
   <stop offset="0" style="stop-opacity:1; stop-color:#B3B3B3"/>
   <stop offset="1" style="stop-opacity:1; stop-color:white"/>
  </linearGradient>
  <linearGradient id="id2" gradientUnits="userSpaceOnUse" x1="96034.7" y1="179382" x2="96034.7" y2="12096.2">
   <stop offset="0" style="stop-opacity:1; stop-color:#CCCCCC"/>
   <stop offset="1" style="stop-opacity:1; stop-color:white"/>
  </linearGradient>
  <linearGradient id="id3" gradientUnits="userSpaceOnUse" xlink:href="#id1" x1="87546" y1="94288.9" x2="110331" y2="60382.8">
  </linearGradient>
  <linearGradient id="id4" gradientUnits="userSpaceOnUse" xlink:href="#id2" x1="77869.8" y1="80230" x2="69741.4" y2="77215.9">
  </linearGradient>
  <linearGradient id="id5" gradientUnits="userSpaceOnUse" xlink:href="#id2" x1="90580.8" y1="108207" x2="87655.4" y2="116368">
  </linearGradient>
  <linearGradient id="id6" gradientUnits="userSpaceOnUse" x1="80095.5" y1="111038" x2="70310.5" y2="83073.4">
   <stop offset="0" style="stop-opacity:1; stop-color:#CCCCCC"/>
   <stop offset="1" style="stop-opacity:1; stop-color:whitesmoke"/>
  </linearGradient>
  <linearGradient id="id7" gradientUnits="userSpaceOnUse" x1="122781" y1="105842" x2="94923.4" y2="115931">
   <stop offset="0" style="stop-opacity:1; stop-color:#CCCCCC"/>
   <stop offset="0.988235" style="stop-opacity:1; stop-color:#F4F4F4"/>
   <stop offset="1" style="stop-opacity:1; stop-color:white"/>
  </linearGradient>
 </defs>
 <g id="kudo">
  <metadata id="CorelCorpID_0Corel-Layer"/>
  <path class="fil0 str0" d="M95924 332c52794,0 95592,42798 95592,95592 0,52794 -42798,95592 -95592,95592 -52794,0 -95592,-42798 -95592,-95592 0,-52794 42798,-95592 95592,-95592z"/>
  <path class="fil1 str1" d="M96035 12096c46195,0 83643,37449 83643,83643 0,46195 -37448,83643 -83643,83643 -46195,0 -83643,-37448 -83643,-83643 0,-46194 37448,-83643 83643,-83643z"/>
  <path class="fil2" d="M89200 148783l-6256 0 0 -4171c0,-1214 -66,-1968 -197,-2272 -132,-299 -425,-450 -876,-450 -506,0 -830,182 -967,546 -137,369 -207,1159 -207,2374l0 11144c0,1169 70,1929 207,2288 137,354 446,531 922,531 461,0 764,-177 905,-537 143,-353 213,-1194 213,-2515l0 -3021 6256 0 0 937c0,2489 -177,4255 -527,5293 -349,1043 -1128,1954 -2328,2738 -1204,785 -2682,1174 -4443,1174 -1827,0 -3336,-329 -4525,-991 -1184,-664 -1973,-1579 -2359,-2754 -385,-1174 -576,-2936 -576,-5289l0 -7014c0,-1731 60,-3027 177,-3893 122,-865 471,-1700 1062,-2499 588,-800 1402,-1432 2445,-1893 1043,-461 2242,-689 3598,-689 1837,0 3356,354 4555,1068 1195,709 1980,1595 2359,2657 375,1063 562,2713 562,4955l0 2283zm8037 -10476l0 5410c517,-476 1073,-835 1670,-1073 598,-238 1240,-360 1923,-360 1049,0 1939,269 2678,800 734,536 1184,1148 1352,1847 161,699 243,1974 243,3821l0 13575 -5983 0 0 -13853c0,-1144 -55,-1882 -172,-2207 -117,-328 -369,-490 -769,-490 -370,0 -618,166 -750,505 -126,335 -192,1003 -192,2000l0 14045 -5982 0 0 -24020 5982 0zm16094 0l0 3127 -6164 0 0 -3127 6164 0zm0 4342l0 19678 -6164 0 0 -19678 6164 0zm8443 -2612l0 3098 1670 0 0 3127 -1670 0 0 10522c0,1291 70,2014 207,2162 137,146 703,222 1706,222l0 3159 -2425 0c-1367,0 -2342,-56 -2930,-173 -582,-111 -1098,-374 -1544,-785 -445,-409 -723,-874 -835,-1406 -106,-526 -162,-1767 -162,-3720l0 -9981 -1275 0 0 -3127 1275 0 0 -3098 5983 0z"/>
  <path class="fil3" d="M87550 145537l-6255 0 0 -4170c0,-1214 -66,-1968 -197,-2272 -132,-299 -426,-450 -876,-450 -506,0 -830,182 -967,546 -137,370 -207,1159 -207,2374l0 11144c0,1169 70,1929 207,2288 137,354 445,531 922,531 461,0 764,-177 905,-536 142,-354 213,-1194 213,-2516l0 -3021 6255 0 0 937c0,2489 -177,4255 -526,5294 -349,1042 -1128,1953 -2328,2737 -1204,785 -2683,1175 -4443,1175 -1827,0 -3336,-329 -4525,-992 -1185,-664 -1974,-1580 -2359,-2754 -385,-1173 -576,-2935 -576,-5289l0 -7015c0,-1731 60,-3026 176,-3891 122,-866 471,-1701 1063,-2500 587,-800 1402,-1433 2445,-1893 1043,-461 2241,-689 3598,-689 1837,0 3356,355 4555,1068 1195,709 1979,1595 2359,2658 374,1062 561,2712 561,4954l0 2282zm8038 -10475l0 5410c516,-476 1073,-835 1670,-1073 597,-239 1240,-360 1923,-360 1048,0 1939,269 2677,800 734,537 1185,1148 1352,1848 162,698 244,1973 244,3821l0 13574 -5984 0 0 -13853c0,-1144 -55,-1883 -171,-2207 -117,-328 -370,-490 -769,-490 -370,0 -618,166 -750,505 -126,335 -192,1003 -192,1999l0 14046 -5982 0 0 -24020 5982 0zm16094 0l0 3127 -6164 0 0 -3127 6164 0zm0 4341l0 19679 -6164 0 0 -19679 6164 0zm8442 -2610l0 3097 1670 0 0 3127 -1670 0 0 10522c0,1291 71,2014 208,2161 136,147 703,224 1705,224l0 3158 -2424 0c-1367,0 -2343,-56 -2931,-173 -582,-111 -1097,-375 -1543,-784 -446,-410 -723,-876 -835,-1407 -107,-526 -162,-1767 -162,-3720l0 -9981 -1275 0 0 -3127 1275 0 0 -3097 5982 0z"/>
  <path class="fil4" d="M58618 32416l5360 0c1449,0 2561,113 3342,341 776,229 1362,557 1754,984 393,431 656,953 798,1561 139,612 208,1556 208,2837l0 1781c0,1302 -134,2255 -405,2850 -268,600 -764,1061 -1480,1380 -720,320 -1660,479 -2820,479l-1427 0 0 8254 -5330 0 0 -20467zm5330 3494l0 5213c150,9 280,13 387,13 488,0 824,-120 1014,-362 186,-237 280,-737 280,-1496l0 -1687c0,-699 -107,-1155 -328,-1367 -215,-211 -668,-314 -1353,-314zm12575 206l-181 2209c746,-1588 1824,-2424 3234,-2519l0 5900c-936,0 -1626,124 -2066,379 -440,254 -707,603 -810,1056 -99,449 -152,1488 -152,3118l0 6624 -5097 0 0 -16767 5072 0zm15727 5887l0 4109c0,1510 -77,2614 -229,3321 -151,703 -474,1358 -969,1971 -497,612 -1135,1061 -1915,1353 -781,290 -1674,436 -2683,436 -1130,0 -2087,-125 -2868,-370 -784,-250 -1393,-626 -1824,-1126 -435,-504 -745,-1112 -931,-1824 -186,-712 -276,-1781 -276,-3204l0 -4299c0,-1562 168,-2778 504,-3658 337,-875 945,-1577 1820,-2108 876,-530 1997,-798 3359,-798 1143,0 2127,173 2950,513 820,341 1453,785 1902,1333 444,547 750,1113 915,1695 163,581 245,1466 245,2656zm-5097 -1263c0,-859 -48,-1402 -138,-1622 -95,-224 -293,-337 -600,-337 -306,0 -509,113 -612,337 -99,220 -151,763 -151,1622l0 7567c0,794 52,1312 151,1549 103,241 302,362 600,362 306,0 504,-108 604,-328 98,-220 146,-690 146,-1414l0 -7736zm11829 -4624l-78 1596c397,-634 867,-1112 1415,-1428 543,-318 1168,-478 1867,-478 1363,0 2432,634 3217,1906 427,-634 910,-1112 1450,-1428 539,-318 1134,-478 1794,-478 862,0 1583,212 2147,634 569,418 931,936 1091,1548 160,608 242,1600 242,2975l0 11920 -4942 0 0 -10932c0,-1432 -48,-2315 -147,-2656 -94,-341 -319,-514 -677,-514 -363,0 -596,169 -699,505 -108,337 -160,1224 -160,2665l0 10932 -4942 0 0 -10652c0,-1642 -39,-2630 -121,-2958 -77,-327 -301,-492 -663,-492 -230,0 -419,86 -582,259 -161,172 -247,384 -264,634 -17,246 -26,776 -26,1583l0 11626 -4942 0 0 -16767 5020 0zm20157 -3700l0 2665 -5252 0 0 -2665 5252 0zm0 3700l0 16767 -5252 0 0 -16767 5252 0zm12264 5356l-4502 0 0 -909c0,-777 -43,-1264 -134,-1471 -86,-207 -310,-311 -664,-311 -285,0 -500,95 -642,285 -143,190 -216,475 -216,854 0,513 35,893 108,1130 69,241 284,504 642,789 354,289 1087,707 2196,1254 1479,725 2445,1407 2906,2049 462,638 694,1570 694,2790 0,1368 -177,2398 -530,3093 -354,693 -945,1232 -1772,1608 -833,375 -1829,560 -3002,560 -1293,0 -2406,-202 -3325,-604 -922,-405 -1557,-953 -1902,-1643 -345,-690 -517,-1733 -517,-3130l0 -807 4528 0 0 1057c0,897 56,1479 168,1751 116,267 341,401 673,401 362,0 612,-91 754,-272 143,-181 216,-564 216,-1143 0,-801 -90,-1302 -276,-1504 -194,-203 -1181,-803 -2963,-1798 -1495,-842 -2410,-1605 -2738,-2295 -327,-686 -491,-1500 -491,-2445 0,-1341 177,-2328 531,-2963 352,-638 953,-1129 1798,-1474 845,-345 1828,-518 2945,-518 1113,0 2057,142 2833,423 781,284 1376,655 1794,1121 414,462 668,893 754,1289 91,397 134,1018 134,1859l0 974zm13317 3312l-6623 0 0 3636c0,759 56,1250 163,1470 113,220 325,328 639,328 392,0 655,-146 785,-436 133,-293 199,-858 199,-1694l0 -2217 4837 0 0 1242c0,1039 -64,1837 -193,2393 -134,557 -440,1152 -919,1785 -479,634 -1091,1109 -1828,1428 -738,315 -1660,474 -2773,474 -1078,0 -2032,-155 -2860,-470 -824,-311 -1466,-737 -1928,-1280 -461,-544 -776,-1143 -953,-1798 -177,-652 -267,-1601 -267,-2851l0 -4895c0,-1466 198,-2621 595,-3471 397,-846 1043,-1496 1945,-1945 905,-453 1941,-677 3114,-677 1432,0 2613,272 3545,816 931,542 1587,1263 1962,2159 376,893 560,2156 560,3783l0 2220zm-5096 -2717l0 -1224c0,-871 -48,-1428 -143,-1682 -95,-254 -288,-380 -582,-380 -362,0 -586,108 -673,324 -86,215 -129,794 -129,1738l0 1224 1527 0z"/>
  <path class="fil5 str0" d="M56405 30378l5360 0c1449,0 2562,112 3342,340 776,230 1363,557 1755,984 393,431 656,953 798,1561 138,613 207,1557 207,2838l0 1780c0,1303 -134,2256 -405,2851 -268,599 -764,1061 -1479,1380 -721,319 -1661,479 -2821,479l-1427 0 0 8253 -5330 0 0 -20466zm5330 3493l0 5213c151,9 280,13 388,13 487,0 824,-120 1014,-362 185,-237 279,-737 279,-1496l0 -1686c0,-699 -107,-1156 -327,-1367 -216,-211 -669,-315 -1354,-315zm12575 207l-181 2208c746,-1587 1824,-2423 3234,-2518l0 5899c-936,0 -1626,125 -2066,379 -440,254 -707,604 -810,1057 -99,448 -152,1488 -152,3118l0 6623 -5097 0 0 -16766 5072 0zm15728 5886l0 4110c0,1509 -78,2613 -230,3320 -150,703 -474,1359 -969,1971 -497,612 -1134,1061 -1915,1354 -781,289 -1674,435 -2682,435 -1130,0 -2088,-124 -2868,-370 -785,-250 -1393,-625 -1825,-1125 -435,-505 -745,-1113 -931,-1825 -185,-711 -276,-1780 -276,-3204l0 -4299c0,-1561 168,-2777 504,-3657 338,-876 946,-1578 1820,-2108 876,-531 1997,-798 3360,-798 1143,0 2126,172 2949,513 820,340 1453,785 1902,1333 444,547 750,1112 915,1694 164,582 246,1466 246,2656zm-5098 -1263c0,-858 -48,-1402 -138,-1621 -94,-225 -293,-337 -600,-337 -305,0 -508,112 -612,337 -98,219 -151,763 -151,1621l0 7568c0,794 53,1311 151,1548 104,241 302,362 600,362 306,0 505,-108 604,-327 98,-221 146,-690 146,-1415l0 -7736zm11829 -4623l-77 1596c396,-635 866,-1113 1414,-1428 543,-319 1169,-478 1867,-478 1364,0 2433,634 3218,1906 427,-635 910,-1113 1449,-1428 539,-319 1134,-478 1794,-478 862,0 1583,211 2147,634 569,418 932,935 1091,1548 160,608 242,1599 242,2975l0 11919 -4942 0 0 -10931c0,-1432 -48,-2316 -146,-2656 -95,-342 -320,-514 -678,-514 -362,0 -595,169 -698,505 -108,336 -160,1224 -160,2665l0 10931 -4942 0 0 -10652c0,-1642 -40,-2630 -121,-2957 -78,-328 -302,-492 -664,-492 -229,0 -418,86 -582,258 -161,173 -247,385 -263,635 -18,245 -26,776 -26,1582l0 11626 -4943 0 0 -16766 5020 0zm20157 -3700l0 2665 -5252 0 0 -2665 5252 0zm0 3700l0 16766 -5252 0 0 -16766 5252 0zm12265 5356l-4503 0 0 -910c0,-776 -43,-1264 -134,-1470 -86,-208 -310,-311 -664,-311 -284,0 -500,95 -642,284 -142,190 -216,475 -216,854 0,513 35,893 108,1130 69,241 284,505 642,789 354,290 1088,708 2196,1255 1479,725 2445,1406 2906,2049 462,638 694,1570 694,2789 0,1368 -176,2399 -530,3093 -354,694 -945,1233 -1772,1608 -833,376 -1829,560 -3001,560 -1294,0 -2407,-202 -3326,-603 -922,-405 -1556,-953 -1901,-1643 -345,-690 -518,-1733 -518,-3130l0 -807 4528 0 0 1057c0,896 56,1479 169,1751 115,266 340,400 672,400 363,0 613,-90 755,-271 142,-182 216,-565 216,-1143 0,-802 -91,-1303 -277,-1505 -194,-203 -1181,-802 -2962,-1798 -1496,-842 -2411,-1605 -2738,-2295 -328,-685 -492,-1500 -492,-2444 0,-1342 177,-2329 531,-2963 353,-639 953,-1130 1798,-1475 845,-345 1828,-517 2945,-517 1113,0 2057,142 2833,422 781,285 1376,655 1794,1121 414,462 668,893 755,1290 90,397 134,1017 134,1859l0 974zm13316 3312l-6623 0 0 3635c0,759 57,1250 164,1471 112,219 324,327 638,327 392,0 655,-146 785,-435 133,-294 199,-858 199,-1695l0 -2217 4837 0 0 1243c0,1039 -64,1837 -193,2393 -134,556 -440,1151 -919,1785 -478,634 -1091,1109 -1828,1428 -738,314 -1660,473 -2773,473 -1078,0 -2031,-155 -2859,-469 -824,-311 -1466,-738 -1928,-1281 -461,-543 -776,-1143 -953,-1798 -177,-651 -267,-1600 -267,-2850l0 -4895c0,-1467 198,-2622 595,-3471 397,-846 1043,-1497 1945,-1946 905,-453 1940,-676 3114,-676 1431,0 2612,271 3544,815 932,543 1587,1263 1962,2160 376,893 560,2156 560,3782l0 2221zm-5096 -2717l0 -1224c0,-871 -48,-1428 -143,-1683 -95,-254 -288,-379 -582,-379 -362,0 -586,108 -672,324 -87,215 -130,793 -130,1738l0 1224 1527 0z"/>
  <g id="_1940688789216">
   <path class="fil6" d="M99238 58067c1769,3825 3048,7891 4818,11716 984,108 1355,-1399 1277,-3960 2306,1939 3501,5402 4620,8969 6248,10181 4333,18287 -3834,24804 -3342,1609 -6683,1517 -10026,323 -7449,-4635 -10891,-13186 -3735,-25208 613,-2283 1318,-4559 2851,-6786 473,1807 1030,3422 2162,3716 458,-4444 1409,-9130 1867,-13574z"/>
   <path class="fil6" d="M79199 86057c-351,-611 1072,-3119 810,-4848 -214,-1423 -1135,-2432 -1423,-2934 -3192,-998 -1556,-5189 -5563,-1005 -3141,4456 -1131,10035 6176,8787z"/>
   <path class="fil6" d="M72095 83200c2920,1039 4269,2246 6442,1619 585,5900 696,10693 519,15308 3849,724 6194,433 10955,433 -39,2630 -78,5579 -118,8209 -6709,0 -10792,-8 -18279,-247 0,-8272 -612,-13588 481,-25322z"/>
   <path class="fil6" d="M96416 111043c-606,357 -3130,-1037 -4857,-757 -1420,229 -2419,1161 -2918,1455 -963,3203 -5171,1613 -944,5574 4490,3092 10046,1022 8719,-6272z"/>
   <path class="fil6" d="M95053 118373c1008,-2930 2200,-4292 1550,-6459 5892,-649 10684,-812 15301,-684 682,-3858 366,-6199 314,-10961 2631,12 5580,19 8210,30 73,6708 109,10791 -48,18281 -8271,90 -13581,759 -25327,-207z"/>
   <polygon class="fil6" points="74488,128390 74488,120759 103084,120759 103084,128390 "/>
  </g>
  <path class="fil7" d="M97135 55964c1769,3825 3048,7891 4818,11716 984,108 1355,-1399 1277,-3959 2306,1939 3501,5401 4620,8968 6248,10181 4333,18287 -3834,24805 -3342,1608 -6683,1517 -10026,323 -7449,-4636 -10891,-13187 -3735,-25208 613,-2284 1318,-4560 2851,-6787 474,1807 1030,3423 2162,3716 458,-4444 1409,-9130 1867,-13574z"/>
  <path class="fil8" d="M77096 83954c-351,-611 1072,-3119 810,-4848 -214,-1423 -1135,-2432 -1422,-2934 -3193,-998 -1557,-5189 -5564,-1005 -3141,4456 -1131,10035 6176,8787z"/>
  <path class="fil9" d="M69992 81097c2920,1039 4269,2246 6442,1619 585,5900 697,10693 519,15308 3849,724 6194,433 10955,433 -39,2630 -78,5579 -118,8209 -6709,0 -10792,-8 -18279,-247 0,-8272 -612,-13588 481,-25322z"/>
  <path class="fil10" d="M94313 108940c-606,358 -3130,-1037 -4857,-757 -1420,230 -2419,1161 -2918,1455 -963,3202 -5171,1613 -944,5574 4490,3092 10046,1022 8719,-6272z"/>
  <path class="fil11" d="M92950 116270c1008,-2930 2200,-4292 1550,-6459 5892,-649 10684,-812 15301,-684 683,-3858 366,-6199 314,-10961 2631,12 5580,19 8210,30 73,6708 109,10791 -48,18281 -8271,90 -13581,759 -25327,-207z"/>
  <g>
   <g style="clip-path:url(#id0)">
    <polygon class="fil12" points="72385,126287 72385,126272 100982,126272 100982,126287 "/>
    <polygon id="1" class="fil13" points="72385,126288 72385,126243 100982,126243 100982,126288 "/>
    <polygon id="2" class="fil14" points="72385,126257 72385,126213 100982,126213 100982,126257 "/>
    <polygon id="3" class="fil15" points="72385,126228 72385,126183 100982,126183 100982,126228 "/>
    <polygon id="4" class="fil16" points="72385,126198 72385,126154 100982,126154 100982,126198 "/>
    <polygon id="5" class="fil17" points="72385,126169 72385,126123 100982,126123 100982,126169 "/>
    <polygon id="6" class="fil18" points="72385,126138 72385,126094 100982,126094 100982,126138 "/>
    <polygon id="7" class="fil18" points="72385,126108 72385,126064 100982,126064 100982,126108 "/>
    <polygon id="8" class="fil19" points="72385,126079 72385,126034 100982,126034 100982,126079 "/>
    <polygon id="9" class="fil19" points="72385,126049 72385,126004 100982,126004 100982,126049 "/>
    <polygon id="10" class="fil20" points="72385,126020 72385,125974 100982,125974 100982,126020 "/>
    <polygon id="11" class="fil20" points="72385,125989 72385,125945 100982,125945 100982,125989 "/>
    <polygon id="12" class="fil20" points="72385,125959 72385,125915 100982,125915 100982,125959 "/>
    <polygon id="13" class="fil21" points="72385,125930 72385,125885 100982,125885 100982,125930 "/>
    <polygon id="14" class="fil21" points="72385,125900 72385,125855 100982,125855 100982,125900 "/>
    <polygon id="15" class="fil21" points="72385,125870 72385,125825 100982,125825 100982,125870 "/>
    <polygon id="16" class="fil21" points="72385,125840 72385,125796 100982,125796 100982,125840 "/>
    <polygon id="17" class="fil21" points="72385,125811 72385,125766 100982,125766 100982,125811 "/>
    <polygon id="18" class="fil22" points="72385,125781 72385,125736 100982,125736 100982,125781 "/>
    <polygon id="19" class="fil22" points="72385,125751 72385,125706 100982,125706 100982,125751 "/>
    <polygon id="20" class="fil22" points="72385,125721 72385,125676 100982,125676 100982,125721 "/>
    <polygon id="21" class="fil22" points="72385,125691 72385,125647 100982,125647 100982,125691 "/>
    <polygon id="22" class="fil22" points="72385,125662 72385,125617 100982,125617 100982,125662 "/>
    <polygon id="23" class="fil22" points="72385,125632 72385,125587 100982,125587 100982,125632 "/>
    <polygon id="24" class="fil22" points="72385,125602 72385,125557 100982,125557 100982,125602 "/>
    <polygon id="25" class="fil23" points="72385,125572 72385,125527 100982,125527 100982,125572 "/>
    <polygon id="26" class="fil23" points="72385,125542 72385,125498 100982,125498 100982,125542 "/>
    <polygon id="27" class="fil23" points="72385,125513 72385,125468 100982,125468 100982,125513 "/>
    <polygon id="28" class="fil23" points="72385,125483 72385,125438 100982,125438 100982,125483 "/>
    <polygon id="29" class="fil23" points="72385,125452 72385,125408 100982,125408 100982,125452 "/>
    <polygon id="30" class="fil23" points="72385,125423 72385,125378 100982,125378 100982,125423 "/>
    <polygon id="31" class="fil23" points="72385,125393 72385,125349 100982,125349 100982,125393 "/>
    <polygon id="32" class="fil23" points="72385,125364 72385,125318 100982,125318 100982,125364 "/>
    <polygon id="33" class="fil23" points="72385,125334 72385,125289 100982,125289 100982,125334 "/>
    <polygon id="34" class="fil23" points="72385,125304 72385,125259 100982,125259 100982,125304 "/>
    <polygon id="35" class="fil23" points="72385,125274 72385,125229 100982,125229 100982,125274 "/>
    <polygon id="36" class="fil23" points="72385,125244 72385,125200 100982,125200 100982,125244 "/>
    <polygon id="37" class="fil23" points="72385,125215 72385,125169 100982,125169 100982,125215 "/>
    <polygon id="38" class="fil23" points="72385,125184 72385,125140 100982,125140 100982,125184 "/>
    <polygon id="39" class="fil24" points="72385,125155 72385,125110 100982,125110 100982,125155 "/>
    <polygon id="40" class="fil24" points="72385,125125 72385,125080 100982,125080 100982,125125 "/>
    <polygon id="41" class="fil24" points="72385,125095 72385,125051 100982,125051 100982,125095 "/>
    <polygon id="42" class="fil24" points="72385,125066 72385,125020 100982,125020 100982,125066 "/>
    <polygon id="43" class="fil24" points="72385,125035 72385,124991 100982,124991 100982,125035 "/>
    <polygon id="44" class="fil24" points="72385,125006 72385,124961 100982,124961 100982,125006 "/>
    <polygon id="45" class="fil24" points="72385,124976 72385,124932 100982,124932 100982,124976 "/>
    <polygon id="46" class="fil24" points="72385,124946 72385,124901 100982,124901 100982,124946 "/>
    <polygon id="47" class="fil24" points="72385,124917 72385,124871 100982,124871 100982,124917 "/>
    <polygon id="48" class="fil24" points="72385,124886 72385,124842 100982,124842 100982,124886 "/>
    <polygon id="49" class="fil24" points="72385,124857 72385,124812 100982,124812 100982,124857 "/>
    <polygon id="50" class="fil24" points="72385,124827 72385,124783 100982,124783 100982,124827 "/>
    <polygon id="51" class="fil24" points="72385,124797 72385,124752 100982,124752 100982,124797 "/>
    <polygon id="52" class="fil24" points="72385,124767 72385,124722 100982,124722 100982,124767 "/>
    <polygon id="53" class="fil24" points="72385,124737 72385,124693 100982,124693 100982,124737 "/>
    <polygon id="54" class="fil24" points="72385,124708 72385,124663 100982,124663 100982,124708 "/>
    <polygon id="55" class="fil24" points="72385,124678 72385,124633 100982,124633 100982,124678 "/>
    <polygon id="56" class="fil24" points="72385,124648 72385,124603 100982,124603 100982,124648 "/>
    <polygon id="57" class="fil24" points="72385,124618 72385,124573 100982,124573 100982,124618 "/>
    <polygon id="58" class="fil24" points="72385,124588 72385,124544 100982,124544 100982,124588 "/>
    <polygon id="59" class="fil24" points="72385,124559 72385,124514 100982,124514 100982,124559 "/>
    <polygon id="60" class="fil24" points="72385,124529 72385,124484 100982,124484 100982,124529 "/>
    <polygon id="61" class="fil24" points="72385,124499 72385,124454 100982,124454 100982,124499 "/>
    <polygon id="62" class="fil24" points="72385,124469 72385,124424 100982,124424 100982,124469 "/>
    <polygon id="63" class="fil24" points="72385,124439 72385,124395 100982,124395 100982,124439 "/>
    <polygon id="64" class="fil24" points="72385,124410 72385,124365 100982,124365 100982,124410 "/>
    <polygon id="65" class="fil24" points="72385,124380 72385,124335 100982,124335 100982,124380 "/>
    <polygon id="66" class="fil24" points="72385,124350 72385,124305 100982,124305 100982,124350 "/>
    <polygon id="67" class="fil24" points="72385,124320 72385,124276 100982,124276 100982,124320 "/>
    <polygon id="68" class="fil24" points="72385,124290 72385,124246 100982,124246 100982,124290 "/>
    <polygon id="69" class="fil24" points="72385,124261 72385,124215 100982,124215 100982,124261 "/>
    <polygon id="70" class="fil24" points="72385,124231 72385,124186 100982,124186 100982,124231 "/>
    <polygon id="71" class="fil24" points="72385,124201 72385,124156 100982,124156 100982,124201 "/>
    <polygon id="72" class="fil24" points="72385,124171 72385,124127 100982,124127 100982,124171 "/>
    <polygon id="73" class="fil24" points="72385,124141 72385,124097 100982,124097 100982,124141 "/>
    <polygon id="74" class="fil24" points="72385,124112 72385,124066 100982,124066 100982,124112 "/>
    <polygon id="75" class="fil25" points="72385,124081 72385,124037 100982,124037 100982,124081 "/>
    <polygon id="76" class="fil25" points="72385,124052 72385,124007 100982,124007 100982,124052 "/>
    <polygon id="77" class="fil25" points="72385,124022 72385,123978 100982,123978 100982,124022 "/>
    <polygon id="78" class="fil25" points="72385,123992 72385,123947 100982,123947 100982,123992 "/>
    <polygon id="79" class="fil25" points="72385,123963 72385,123917 100982,123917 100982,123963 "/>
    <polygon id="80" class="fil25" points="72385,123932 72385,123888 100982,123888 100982,123932 "/>
    <polygon id="81" class="fil25" points="72385,123903 72385,123858 100982,123858 100982,123903 "/>
    <polygon id="82" class="fil25" points="72385,123873 72385,123829 100982,123829 100982,123873 "/>
    <polygon id="83" class="fil25" points="72385,123843 72385,123798 100982,123798 100982,123843 "/>
    <polygon id="84" class="fil25" points="72385,123814 72385,123768 100982,123768 100982,123814 "/>
    <polygon id="85" class="fil25" points="72385,123783 72385,123739 100982,123739 100982,123783 "/>
    <polygon id="86" class="fil25" points="72385,123754 72385,123709 100982,123709 100982,123754 "/>
    <polygon id="87" class="fil25" points="72385,123724 72385,123680 100982,123680 100982,123724 "/>
    <polygon id="88" class="fil25" points="72385,123694 72385,123649 100982,123649 100982,123694 "/>
    <polygon id="89" class="fil25" points="72385,123664 72385,123620 100982,123620 100982,123664 "/>
    <polygon id="90" class="fil25" points="72385,123634 72385,123590 100982,123590 100982,123634 "/>
    <polygon id="91" class="fil25" points="72385,123605 72385,123560 100982,123560 100982,123605 "/>
    <polygon id="92" class="fil25" points="72385,123575 72385,123530 100982,123530 100982,123575 "/>
    <polygon id="93" class="fil25" points="72385,123545 72385,123500 100982,123500 100982,123545 "/>
    <polygon id="94" class="fil25" points="72385,123515 72385,123471 100982,123471 100982,123515 "/>
    <polygon id="95" class="fil25" points="72385,123485 72385,123441 100982,123441 100982,123485 "/>
    <polygon id="96" class="fil25" points="72385,123456 72385,123411 100982,123411 100982,123456 "/>
    <polygon id="97" class="fil25" points="72385,123426 72385,123381 100982,123381 100982,123426 "/>
    <polygon id="98" class="fil25" points="72385,123396 72385,123351 100982,123351 100982,123396 "/>
    <polygon id="99" class="fil25" points="72385,123366 72385,123322 100982,123322 100982,123366 "/>
    <polygon id="100" class="fil25" points="72385,123336 72385,123292 100982,123292 100982,123336 "/>
    <polygon id="101" class="fil25" points="72385,123307 72385,123261 100982,123261 100982,123307 "/>
    <polygon id="102" class="fil25" points="72385,123277 72385,123232 100982,123232 100982,123277 "/>
    <polygon id="103" class="fil25" points="72385,123247 72385,123202 100982,123202 100982,123247 "/>
    <polygon id="104" class="fil25" points="72385,123217 72385,123173 100982,123173 100982,123217 "/>
    <polygon id="105" class="fil25" points="72385,123187 72385,123143 100982,123143 100982,123187 "/>
    <polygon id="106" class="fil25" points="72385,123158 72385,123113 100982,123113 100982,123158 "/>
    <polygon id="107" class="fil25" points="72385,123128 72385,123083 100982,123083 100982,123128 "/>
    <polygon id="108" class="fil25" points="72385,123098 72385,123053 100982,123053 100982,123098 "/>
    <polygon id="109" class="fil25" points="72385,123068 72385,123024 100982,123024 100982,123068 "/>
    <polygon id="110" class="fil25" points="72385,123038 72385,122994 100982,122994 100982,123038 "/>
    <polygon id="111" class="fil25" points="72385,123009 72385,122964 100982,122964 100982,123009 "/>
    <polygon id="112" class="fil25" points="72385,122978 72385,122934 100982,122934 100982,122978 "/>
    <polygon id="113" class="fil25" points="72385,122949 72385,122904 100982,122904 100982,122949 "/>
    <polygon id="114" class="fil25" points="72385,122919 72385,122875 100982,122875 100982,122919 "/>
    <polygon id="115" class="fil25" points="72385,122889 72385,122844 100982,122844 100982,122889 "/>
    <polygon id="116" class="fil25" points="72385,122860 72385,122815 100982,122815 100982,122860 "/>
    <polygon id="117" class="fil25" points="72385,122829 72385,122785 100982,122785 100982,122829 "/>
    <polygon id="118" class="fil25" points="72385,122800 72385,122755 100982,122755 100982,122800 "/>
    <polygon id="119" class="fil25" points="72385,122770 72385,122726 100982,122726 100982,122770 "/>
    <polygon id="120" class="fil25" points="72385,122741 72385,122695 100982,122695 100982,122741 "/>
    <polygon id="121" class="fil25" points="72385,122710 72385,122666 100982,122666 100982,122710 "/>
    <polygon id="122" class="fil25" points="72385,122680 72385,122636 100982,122636 100982,122680 "/>
    <polygon id="123" class="fil25" points="72385,122651 72385,122606 100982,122606 100982,122651 "/>
    <polygon id="124" class="fil25" points="72385,122621 72385,122577 100982,122577 100982,122621 "/>
    <polygon id="125" class="fil25" points="72385,122592 72385,122546 100982,122546 100982,122592 "/>
    <polygon id="126" class="fil25" points="72385,122561 72385,122517 100982,122517 100982,122561 "/>
    <polygon id="127" class="fil25" points="72385,122531 72385,122487 100982,122487 100982,122531 "/>
    <polygon id="128" class="fil25" points="72385,122502 72385,122457 100982,122457 100982,122502 "/>
    <polygon id="129" class="fil25" points="72385,122472 72385,122427 100982,122427 100982,122472 "/>
    <polygon id="130" class="fil25" points="72385,122443 72385,122397 100982,122397 100982,122443 "/>
    <polygon id="131" class="fil25" points="72385,122412 72385,122368 100982,122368 100982,122412 "/>
    <polygon id="132" class="fil25" points="72385,122382 72385,122338 100982,122338 100982,122382 "/>
    <polygon id="133" class="fil25" points="72385,122353 72385,122308 100982,122308 100982,122353 "/>
    <polygon id="134" class="fil25" points="72385,122323 72385,122278 100982,122278 100982,122323 "/>
    <polygon id="135" class="fil25" points="72385,122293 72385,122248 100982,122248 100982,122293 "/>
    <polygon id="136" class="fil25" points="72385,122263 72385,122219 100982,122219 100982,122263 "/>
    <polygon id="137" class="fil25" points="72385,122233 72385,122189 100982,122189 100982,122233 "/>
    <polygon id="138" class="fil25" points="72385,122204 72385,122159 100982,122159 100982,122204 "/>
    <polygon id="139" class="fil25" points="72385,122174 72385,122129 100982,122129 100982,122174 "/>
    <polygon id="140" class="fil25" points="72385,122144 72385,122099 100982,122099 100982,122144 "/>
    <polygon id="141" class="fil25" points="72385,122114 72385,122070 100982,122070 100982,122114 "/>
    <polygon id="142" class="fil25" points="72385,122085 72385,122040 100982,122040 100982,122085 "/>
    <polygon id="143" class="fil25" points="72385,122055 72385,122010 100982,122010 100982,122055 "/>
    <polygon id="144" class="fil25" points="72385,122024 72385,121980 100982,121980 100982,122024 "/>
    <polygon id="145" class="fil25" points="72385,121995 72385,121950 100982,121950 100982,121995 "/>
    <polygon id="146" class="fil25" points="72385,121965 72385,121921 100982,121921 100982,121965 "/>
    <polygon id="147" class="fil25" points="72385,121936 72385,121891 100982,121891 100982,121936 "/>
    <polygon id="148" class="fil25" points="72385,121906 72385,121861 100982,121861 100982,121906 "/>
    <polygon id="149" class="fil25" points="72385,121875 72385,121831 100982,121831 100982,121875 "/>
    <polygon id="150" class="fil25" points="72385,121846 72385,121801 100982,121801 100982,121846 "/>
    <polygon id="151" class="fil25" points="72385,121816 72385,121772 100982,121772 100982,121816 "/>
    <polygon id="152" class="fil25" points="72385,121787 72385,121741 100982,121741 100982,121787 "/>
    <polygon id="153" class="fil25" points="72385,121757 72385,121712 100982,121712 100982,121757 "/>
    <polygon id="154" class="fil25" points="72385,121726 72385,121682 100982,121682 100982,121726 "/>
    <polygon id="155" class="fil25" points="72385,121697 72385,121652 100982,121652 100982,121697 "/>
    <polygon id="156" class="fil25" points="72385,121667 72385,121623 100982,121623 100982,121667 "/>
    <polygon id="157" class="fil25" points="72385,121638 72385,121592 100982,121592 100982,121638 "/>
    <polygon id="158" class="fil25" points="72385,121607 72385,121563 100982,121563 100982,121607 "/>
    <polygon id="159" class="fil25" points="72385,121577 72385,121533 100982,121533 100982,121577 "/>
    <polygon id="160" class="fil25" points="72385,121548 72385,121503 100982,121503 100982,121548 "/>
    <polygon id="161" class="fil25" points="72385,121518 72385,121473 100982,121473 100982,121518 "/>
    <polygon id="162" class="fil25" points="72385,121489 72385,121443 100982,121443 100982,121489 "/>
    <polygon id="163" class="fil25" points="72385,121458 72385,121414 100982,121414 100982,121458 "/>
    <polygon id="164" class="fil25" points="72385,121429 72385,121384 100982,121384 100982,121429 "/>
    <polygon id="165" class="fil25" points="72385,121399 72385,121354 100982,121354 100982,121399 "/>
    <polygon id="166" class="fil25" points="72385,121369 72385,121324 100982,121324 100982,121369 "/>
    <polygon id="167" class="fil25" points="72385,121339 72385,121294 100982,121294 100982,121339 "/>
    <polygon id="168" class="fil25" points="72385,121309 72385,121265 100982,121265 100982,121309 "/>
    <polygon id="169" class="fil25" points="72385,121280 72385,121235 100982,121235 100982,121280 "/>
    <polygon id="170" class="fil25" points="72385,121250 72385,121206 100982,121206 100982,121250 "/>
    <polygon id="171" class="fil25" points="72385,121220 72385,121175 100982,121175 100982,121220 "/>
    <polygon id="172" class="fil25" points="72385,121190 72385,121145 100982,121145 100982,121190 "/>
    <polygon id="173" class="fil25" points="72385,121160 72385,121116 100982,121116 100982,121160 "/>
    <polygon id="174" class="fil25" points="72385,121131 72385,121086 100982,121086 100982,121131 "/>
    <polygon id="175" class="fil25" points="72385,121101 72385,121056 100982,121056 100982,121101 "/>
    <polygon id="176" class="fil25" points="72385,121071 72385,121026 100982,121026 100982,121071 "/>
    <polygon id="177" class="fil25" points="72385,121041 72385,120996 100982,120996 100982,121041 "/>
    <polygon id="178" class="fil25" points="72385,121011 72385,120967 100982,120967 100982,121011 "/>
    <polygon id="179" class="fil26" points="72385,120982 72385,120937 100982,120937 100982,120982 "/>
    <polygon id="180" class="fil26" points="72385,120952 72385,120907 100982,120907 100982,120952 "/>
    <polygon id="181" class="fil26" points="72385,120922 72385,120877 100982,120877 100982,120922 "/>
    <polygon id="182" class="fil26" points="72385,120892 72385,120847 100982,120847 100982,120892 "/>
    <polygon id="183" class="fil26" points="72385,120862 72385,120818 100982,120818 100982,120862 "/>
    <polygon id="184" class="fil26" points="72385,120833 72385,120787 100982,120787 100982,120833 "/>
    <polygon id="185" class="fil26" points="72385,120803 72385,120758 100982,120758 100982,120803 "/>
    <polygon id="186" class="fil26" points="72385,120773 72385,120728 100982,120728 100982,120773 "/>
    <polygon id="187" class="fil26" points="72385,120743 72385,120698 100982,120698 100982,120743 "/>
    <polygon id="188" class="fil26" points="72385,120713 72385,120669 100982,120669 100982,120713 "/>
    <polygon id="189" class="fil26" points="72385,120684 72385,120638 100982,120638 100982,120684 "/>
    <polygon id="190" class="fil26" points="72385,120654 72385,120609 100982,120609 100982,120654 "/>
    <polygon id="191" class="fil26" points="72385,120624 72385,120579 100982,120579 100982,120624 "/>
    <polygon id="192" class="fil26" points="72385,120594 72385,120550 100982,120550 100982,120594 "/>
    <polygon id="193" class="fil26" points="72385,120564 72385,120520 100982,120520 100982,120564 "/>
    <polygon id="194" class="fil26" points="72385,120535 72385,120489 100982,120489 100982,120535 "/>
    <polygon id="195" class="fil26" points="72385,120504 72385,120460 100982,120460 100982,120504 "/>
    <polygon id="196" class="fil26" points="72385,120475 72385,120430 100982,120430 100982,120475 "/>
    <polygon id="197" class="fil26" points="72385,120445 72385,120401 100982,120401 100982,120445 "/>
    <polygon id="198" class="fil26" points="72385,120415 72385,120370 100982,120370 100982,120415 "/>
    <polygon id="199" class="fil26" points="72385,120386 72385,120340 100982,120340 100982,120386 "/>
    <polygon id="200" class="fil26" points="72385,120355 72385,120311 100982,120311 100982,120355 "/>
    <polygon id="201" class="fil26" points="72385,120326 72385,120281 100982,120281 100982,120326 "/>
    <polygon id="202" class="fil26" points="72385,120296 72385,120252 100982,120252 100982,120296 "/>
    <polygon id="203" class="fil26" points="72385,120266 72385,120221 100982,120221 100982,120266 "/>
    <polygon id="204" class="fil26" points="72385,120236 72385,120191 100982,120191 100982,120236 "/>
    <polygon id="205" class="fil26" points="72385,120206 72385,120162 100982,120162 100982,120206 "/>
    <polygon id="206" class="fil26" points="72385,120177 72385,120132 100982,120132 100982,120177 "/>
    <polygon id="207" class="fil26" points="72385,120147 72385,120102 100982,120102 100982,120147 "/>
    <polygon id="208" class="fil26" points="72385,120117 72385,120072 100982,120072 100982,120117 "/>
    <polygon id="209" class="fil26" points="72385,120087 72385,120042 100982,120042 100982,120087 "/>
    <polygon id="210" class="fil26" points="72385,120057 72385,120013 100982,120013 100982,120057 "/>
    <polygon id="211" class="fil26" points="72385,120028 72385,119983 100982,119983 100982,120028 "/>
    <polygon id="212" class="fil26" points="72385,119998 72385,119953 100982,119953 100982,119998 "/>
    <polygon id="213" class="fil26" points="72385,119968 72385,119923 100982,119923 100982,119968 "/>
    <polygon id="214" class="fil27" points="72385,119938 72385,119894 100982,119894 100982,119938 "/>
    <polygon id="215" class="fil27" points="72385,119908 72385,119864 100982,119864 100982,119908 "/>
    <polygon id="216" class="fil27" points="72385,119879 72385,119834 100982,119834 100982,119879 "/>
    <polygon id="217" class="fil27" points="72385,119849 72385,119804 100982,119804 100982,119849 "/>
    <polygon id="218" class="fil27" points="72385,119819 72385,119774 100982,119774 100982,119819 "/>
    <polygon id="219" class="fil27" points="72385,119789 72385,119745 100982,119745 100982,119789 "/>
    <polygon id="220" class="fil27" points="72385,119759 72385,119715 100982,119715 100982,119759 "/>
    <polygon id="221" class="fil27" points="72385,119730 72385,119684 100982,119684 100982,119730 "/>
    <polygon id="222" class="fil27" points="72385,119700 72385,119655 100982,119655 100982,119700 "/>
    <polygon id="223" class="fil27" points="72385,119670 72385,119625 100982,119625 100982,119670 "/>
    <polygon id="224" class="fil27" points="72385,119640 72385,119596 100982,119596 100982,119640 "/>
    <polygon id="225" class="fil27" points="72385,119610 72385,119566 100982,119566 100982,119610 "/>
    <polygon id="226" class="fil27" points="72385,119581 72385,119535 100982,119535 100982,119581 "/>
    <polygon id="227" class="fil27" points="72385,119550 72385,119506 100982,119506 100982,119550 "/>
    <polygon id="228" class="fil28" points="72385,119521 72385,119476 100982,119476 100982,119521 "/>
    <polygon id="229" class="fil28" points="72385,119491 72385,119447 100982,119447 100982,119491 "/>
    <polygon id="230" class="fil28" points="72385,119461 72385,119416 100982,119416 100982,119461 "/>
    <polygon id="231" class="fil28" points="72385,119432 72385,119386 100982,119386 100982,119432 "/>
    <polygon id="232" class="fil28" points="72385,119401 72385,119357 100982,119357 100982,119401 "/>
    <polygon id="233" class="fil28" points="72385,119372 72385,119327 100982,119327 100982,119372 "/>
    <polygon id="234" class="fil28" points="72385,119342 72385,119298 100982,119298 100982,119342 "/>
    <polygon id="235" class="fil28" points="72385,119312 72385,119267 100982,119267 100982,119312 "/>
    <polygon id="236" class="fil29" points="72385,119283 72385,119238 100982,119238 100982,119283 "/>
    <polygon id="237" class="fil29" points="72385,119252 72385,119208 100982,119208 100982,119252 "/>
    <polygon id="238" class="fil29" points="72385,119223 72385,119178 100982,119178 100982,119223 "/>
    <polygon id="239" class="fil29" points="72385,119193 72385,119149 100982,119149 100982,119193 "/>
    <polygon id="240" class="fil30" points="72385,119163 72385,119118 100982,119118 100982,119163 "/>
    <polygon id="241" class="fil30" points="72385,119133 72385,119089 100982,119089 100982,119133 "/>
    <polygon id="242" class="fil30" points="72385,119103 72385,119059 100982,119059 100982,119103 "/>
    <polygon id="243" class="fil31" points="72385,119074 72385,119029 100982,119029 100982,119074 "/>
    <polygon id="244" class="fil31" points="72385,119044 72385,118999 100982,118999 100982,119044 "/>
    <polygon id="245" class="fil31" points="72385,119015 72385,118969 100982,118969 100982,119015 "/>
    <polygon id="246" class="fil32" points="72385,118984 72385,118940 100982,118940 100982,118984 "/>
    <polygon id="247" class="fil33" points="72385,118954 72385,118910 100982,118910 100982,118954 "/>
    <polygon id="248" class="fil33" points="72385,118925 72385,118880 100982,118880 100982,118925 "/>
    <polygon id="249" class="fil34" points="72385,118895 72385,118850 100982,118850 100982,118895 "/>
    <polygon id="250" class="fil35" points="72385,118865 72385,118820 100982,118820 100982,118865 "/>
    <polygon id="251" class="fil36" points="72385,118835 72385,118791 100982,118791 100982,118835 "/>
    <polygon id="252" class="fil37" points="72385,118805 72385,118761 100982,118761 100982,118805 "/>
    <polygon id="253" class="fil38" points="72385,118776 72385,118731 100982,118731 100982,118776 "/>
    <polygon id="254" class="fil39" points="72385,118746 72385,118701 100982,118701 100982,118746 "/>
    <polygon id="255" class="fil40" points="72385,118716 72385,118656 100982,118656 100982,118716 "/>
   </g>
  </g>
 </g>
</svg>
