<?xml version="1.0" encoding="UTF-8"?>
<!DOCTYPE svg PUBLIC "-//W3C//DTD SVG 1.1//EN" "http://www.w3.org/Graphics/SVG/1.1/DTD/svg11.dtd">
<!-- Creator: CorelDRAW X8 -->
<svg xmlns="http://www.w3.org/2000/svg" xml:space="preserve" width="260px" height="260px" version="1.1" style="shape-rendering:geometricPrecision; text-rendering:geometricPrecision; image-rendering:optimizeQuality; fill-rule:evenodd; clip-rule:evenodd"
viewBox="0 0 182560 182560"
 xmlns:xlink="http://www.w3.org/1999/xlink">
 <defs>
  <style type="text/css">
   <![CDATA[
    .str1 {stroke:#999999;stroke-width:2806.98}
    .str0 {stroke:#999999;stroke-width:631.696}
    .fil2 {fill:#4D4D4D}
    .fil8 {fill:#4D4D4D;fill-rule:nonzero}
    .fil10 {fill:#CCCCCC;fill-rule:nonzero}
    .fil9 {fill:#E6E6E6;fill-rule:nonzero}
    .fil0 {fill:url(#id0)}
    .fil1 {fill:url(#id1)}
    .fil3 {fill:url(#id2)}
    .fil4 {fill:url(#id3)}
    .fil6 {fill:url(#id4)}
    .fil5 {fill:url(#id5)}
    .fil7 {fill:url(#id6)}
   ]]>
  </style>
  <linearGradient id="id0" gradientUnits="userSpaceOnUse" x1="91280" y1="182244" x2="91280" y2="315.848">
   <stop offset="0" style="stop-opacity:1; stop-color:#B3B3B3"/>
   <stop offset="1" style="stop-opacity:1; stop-color:white"/>
  </linearGradient>
  <linearGradient id="id1" gradientUnits="userSpaceOnUse" x1="91385.3" y1="170698" x2="91385.3" y2="11510.6">
   <stop offset="0" style="stop-opacity:1; stop-color:#CCCCCC"/>
   <stop offset="1" style="stop-opacity:1; stop-color:white"/>
  </linearGradient>
  <linearGradient id="id2" gradientUnits="userSpaceOnUse" xlink:href="#id0" x1="80612.5" y1="107826" x2="102285" y2="70490.4">
  </linearGradient>
  <linearGradient id="id3" gradientUnits="userSpaceOnUse" xlink:href="#id0" x1="62000.7" y1="109618" x2="78429.8" y2="72763.6">
  </linearGradient>
  <linearGradient id="id4" gradientUnits="userSpaceOnUse" xlink:href="#id0" x1="77741.7" y1="76295.1" x2="83397.9" y2="63220.1">
  </linearGradient>
  <linearGradient id="id5" gradientUnits="userSpaceOnUse" xlink:href="#id0" x1="103847" y1="110463" x2="120276" y2="73608.3">
  </linearGradient>
  <linearGradient id="id6" gradientUnits="userSpaceOnUse" xlink:href="#id0" x1="99131.5" y1="76363.1" x2="104787" y2="63287.3">
  </linearGradient>
 </defs>
 <g id="kudo">
  <metadata id="CorelCorpID_0Corel-Layer"/>
  <path class="fil0 str0" d="M91280 316c50238,0 90964,40726 90964,90964 0,50238 -40726,90964 -90964,90964 -50238,0 -90964,-40726 -90964,-90964 0,-50238 40726,-90964 90964,-90964z"/>
  <path class="fil1 str1" d="M91385 11511c43959,0 79594,35635 79594,79593 0,43959 -35635,79594 -79594,79594 -43958,0 -79593,-35635 -79593,-79594 0,-43958 35635,-79593 79593,-79593z"/>
  <path class="fil2" d="M91486 67378c1682,4211 2899,8689 4581,12900 937,119 1290,-1541 1216,-4359 2193,2135 3331,5947 4394,9875 5943,11209 4122,20134 -3646,27312 -3180,1771 -6357,1669 -9537,356 -7086,-5105 -10360,-14520 -3552,-27757 581,-2513 1252,-5020 2710,-7473 451,1991 981,3769 2057,4092 437,-4893 1341,-10053 1777,-14946z"/>
  <path class="fil2" d="M78446 70969c1579,3312 2538,5774 4711,6934 -2845,5404 -5317,10806 -8163,16210 2177,4515 3981,9032 6159,13547 -1905,2420 -3811,4839 -5715,7258 -5097,-6209 -9563,-14278 -14660,-20487 5814,-8441 11854,-15022 17668,-23462z"/>
  <path class="fil2" d="M107335 71813c-1579,3312 -2538,5774 -4711,6935 2845,5403 5602,10805 8448,16209 -2177,4515 -4267,9032 -6444,13547 1905,2420 3810,4839 5715,7258 5096,-6209 9564,-14277 14660,-20487 -5813,-8440 -11854,-15021 -17668,-23462z"/>
  <path class="fil2" d="M83461 79219c1064,-1102 1843,-2204 2906,-3306 0,-3952 0,-7903 0,-11855 -7782,-2091 -12087,8990 -2906,15161z"/>
  <path class="fil2" d="M102572 79287c-1064,-1102 -1843,-2204 -2907,-3306 0,-3952 0,-7903 0,-11855 7783,-2091 12089,8990 2907,15161z"/>
  <path class="fil3" d="M89733 65626c1683,4210 2899,8689 4582,12900 937,118 1290,-1540 1215,-4360 2194,2136 3331,5947 4395,9875 5943,11210 4122,20136 -3646,27312 -3180,1771 -6358,1670 -9538,356 -7086,-5104 -10360,-14520 -3552,-27756 582,-2514 1253,-5020 2712,-7473 450,1990 980,3769 2056,4092 436,-4893 1340,-10053 1776,-14946z"/>
  <path class="fil4" d="M76693 69216c1579,3312 2538,5774 4711,6936 -2845,5402 -5317,10805 -8162,16208 2177,4516 3981,9032 6159,13548 -1906,2420 -3811,4839 -5716,7258 -5096,-6210 -9563,-14277 -14660,-20487 5814,-8440 11854,-15022 17668,-23463z"/>
  <path class="fil5" d="M105583 70060c-1580,3312 -2539,5775 -4711,6936 2845,5403 5602,10806 8447,16208 -2177,4517 -4266,9032 -6444,13548 1905,2419 3811,4838 5715,7257 5097,-6209 9564,-14277 14661,-20486 -5814,-8441 -11855,-15022 -17668,-23463z"/>
  <path class="fil6" d="M81708 77466c1064,-1101 1843,-2204 2907,-3306 0,-3951 0,-7902 0,-11854 -7783,-2091 -12088,8989 -2907,15160z"/>
  <path class="fil7" d="M100819 77534c-1063,-1101 -1842,-2204 -2905,-3306 0,-3951 0,-7902 0,-11854 7781,-2091 12087,8989 2905,15160z"/>
  <path class="fil8" d="M61430 34475l-2930 8905 3204 10817 -5286 0 -2081 -8452 0 8452 -5138 0 0 -19722 5138 0 0 7663 2305 -7663 4788 0zm6062 0l0 2568 -5061 0 0 -2568 5061 0zm0 3565l0 16157 -5061 0 0 -16157 5061 0zm6758 0l-75 1501c357,-599 794,-1047 1308,-1351 516,-299 1111,-449 1788,-449 843,0 1533,200 2069,598 536,395 881,898 1035,1505 154,603 233,1612 233,3025l0 11328 -4912 0 0 -11191c0,-1109 -38,-1791 -112,-2032 -71,-245 -275,-366 -611,-366 -353,0 -574,142 -665,420 -87,283 -133,1030 -133,2248l0 10921 -4912 0 0 -16157 4987 0zm19248 -3565l0 19722 -4912 0 0 -1177c-474,495 -968,861 -1488,1106 -524,245 -1068,370 -1638,370 -764,0 -1429,-200 -1990,-603 -561,-403 -923,-869 -1080,-1396 -158,-528 -237,-1388 -237,-2585l0 -7567c0,-1242 79,-2123 237,-2643 157,-519 523,-976 1092,-1371 570,-394 1251,-590 2041,-590 611,0 1168,113 1678,332 508,221 969,549 1385,993l0 -4591 4912 0zm-4912 7630c0,-590 -51,-989 -154,-1193 -104,-204 -308,-304 -611,-304 -300,0 -499,92 -603,275 -104,182 -153,590 -153,1222l0 7915c0,657 49,1089 149,1297 100,208 287,311 569,311 320,0 537,-116 640,-349 108,-228 163,-793 163,-1695l0 -7479zm11656 -4065l-75 1501c357,-599 794,-1047 1309,-1351 516,-299 1110,-449 1787,-449 843,0 1533,200 2069,598 537,395 882,898 1035,1505 154,603 233,1612 233,3025l0 11328 -4912 0 0 -11191c0,-1109 -37,-1791 -112,-2032 -71,-245 -274,-366 -611,-366 -353,0 -573,142 -665,420 -87,283 -133,1030 -133,2248l0 10921 -4911 0 0 -16157 4986 0zm19198 8353l-6382 0 0 3503c0,731 54,1205 157,1416 109,213 312,316 615,316 378,0 632,-141 757,-419 129,-283 191,-827 191,-1633l0 -2136 4662 0 0 1196c0,1002 -62,1771 -186,2307 -130,536 -425,1110 -886,1720 -461,611 -1051,1068 -1761,1376 -712,303 -1600,457 -2672,457 -1040,0 -1957,-150 -2756,-453 -793,-299 -1412,-711 -1857,-1234 -445,-524 -748,-1101 -918,-1733 -171,-627 -258,-1542 -258,-2747l0 -4716c0,-1413 191,-2526 574,-3345 382,-814 1005,-1442 1874,-1875 872,-436 1869,-652 3000,-652 1380,0 2518,262 3416,786 897,523 1528,1218 1891,2081 361,861 539,2078 539,3645l0 2140zm-4912 -2618l0 -1180c0,-839 -45,-1376 -136,-1621 -92,-245 -279,-366 -562,-366 -349,0 -564,104 -648,312 -83,208 -124,764 -124,1675l0 1180 1470 0zm16560 -573l-4338 0 0 -878c0,-747 -41,-1217 -129,-1416 -83,-200 -298,-300 -641,-300 -273,0 -481,92 -618,275 -138,182 -208,457 -208,822 0,495 33,861 103,1089 67,233 275,486 620,761 340,278 1047,681 2116,1209 1425,698 2356,1355 2800,1974 445,614 669,1512 669,2688 0,1318 -170,2311 -511,2980 -341,669 -910,1188 -1708,1549 -802,362 -1761,541 -2891,541 -1248,0 -2320,-196 -3205,-582 -890,-391 -1501,-919 -1833,-1584 -333,-664 -498,-1670 -498,-3016l0 -777 4363 0 0 1018c0,865 53,1425 162,1687 112,258 328,386 648,386 350,0 591,-87 728,-262 137,-174 207,-544 207,-1101 0,-772 -87,-1255 -265,-1450 -187,-195 -1140,-773 -2856,-1732 -1441,-811 -2323,-1546 -2638,-2211 -316,-661 -474,-1446 -474,-2356 0,-1292 170,-2244 511,-2855 341,-615 918,-1089 1732,-1421 815,-332 1763,-499 2839,-499 1073,0 1983,138 2731,408 752,274 1325,631 1728,1080 399,444 644,860 727,1243 88,382 129,980 129,1790l0 940zm11735 0l-4338 0 0 -878c0,-747 -42,-1217 -130,-1416 -82,-200 -298,-300 -640,-300 -273,0 -481,92 -618,275 -138,182 -208,457 -208,822 0,495 33,861 104,1089 67,233 274,486 619,761 341,278 1047,681 2115,1209 1425,698 2356,1355 2801,1974 444,614 669,1512 669,2688 0,1318 -171,2311 -512,2980 -340,669 -909,1188 -1707,1549 -802,362 -1762,541 -2892,541 -1247,0 -2319,-196 -3204,-582 -890,-391 -1501,-919 -1833,-1584 -332,-664 -498,-1670 -498,-3016l0 -777 4363 0 0 1018c0,865 54,1425 162,1687 112,258 329,386 649,386 349,0 589,-87 727,-262 136,-174 207,-544 207,-1101 0,-772 -87,-1255 -265,-1450 -188,-195 -1139,-773 -2855,-1732 -1442,-811 -2323,-1546 -2639,-2211 -316,-661 -474,-1446 -474,-2356 0,-1292 170,-2244 511,-2855 341,-615 919,-1089 1733,-1421 815,-332 1762,-499 2838,-499 1072,0 1982,138 2730,408 752,274 1326,631 1729,1080 398,444 644,860 727,1243 87,382 129,980 129,1790l0 940z"/>
  <path class="fil9" d="M60551 32415l-2930 8905 3204 10816 -5286 0 -2081 -8451 0 8451 -5137 0 0 -19721 5137 0 0 7663 2305 -7663 4788 0zm6063 0l0 2568 -5062 0 0 -2568 5062 0zm0 3565l0 16156 -5062 0 0 -16156 5062 0zm6757 0l-75 1501c357,-599 794,-1047 1309,-1351 515,-299 1110,-449 1787,-449 843,0 1533,200 2069,598 537,395 881,898 1035,1505 154,603 233,1612 233,3025l0 11327 -4912 0 0 -11190c0,-1109 -37,-1791 -112,-2032 -71,-245 -274,-366 -611,-366 -353,0 -574,142 -665,420 -87,283 -133,1030 -133,2248l0 10920 -4911 0 0 -16156 4986 0zm19248 -3565l0 19721 -4911 0 0 -1176c-474,495 -968,861 -1488,1106 -524,245 -1068,370 -1637,370 -765,0 -1430,-200 -1991,-603 -561,-403 -923,-869 -1080,-1396 -158,-528 -237,-1388 -237,-2585l0 -7567c0,-1242 79,-2123 237,-2643 157,-519 523,-976 1093,-1371 569,-394 1251,-590 2040,-590 611,0 1168,113 1678,332 508,221 969,549 1385,993l0 -4591 4911 0zm-4911 7630c0,-591 -51,-989 -154,-1193 -104,-204 -308,-304 -611,-304 -300,0 -499,92 -603,275 -104,182 -153,590 -153,1222l0 7915c0,657 49,1089 149,1297 100,208 287,311 569,311 320,0 537,-116 640,-349 108,-228 163,-793 163,-1695l0 -7479zm11656 -4065l-75 1501c357,-599 794,-1047 1309,-1351 516,-299 1110,-449 1787,-449 843,0 1533,200 2069,598 537,395 882,898 1035,1505 154,603 233,1612 233,3025l0 11327 -4912 0 0 -11190c0,-1109 -37,-1791 -112,-2032 -71,-245 -274,-366 -611,-366 -353,0 -573,142 -665,420 -87,283 -133,1030 -133,2248l0 10920 -4912 0 0 -16156 4987 0zm19198 8353l-6383 0 0 3503c0,731 54,1205 158,1416 108,213 311,316 615,316 378,0 631,-141 757,-419 128,-283 190,-827 190,-1633l0 -2136 4663 0 0 1196c0,1002 -62,1771 -186,2307 -130,536 -425,1110 -886,1720 -460,611 -1052,1068 -1762,1376 -711,303 -1600,457 -2672,457 -1039,0 -1957,-150 -2755,-453 -794,-299 -1413,-711 -1857,-1234 -446,-524 -749,-1101 -919,-1733 -171,-627 -258,-1542 -258,-2747l0 -4716c0,-1413 192,-2526 574,-3345 382,-814 1005,-1442 1874,-1875 872,-436 1870,-652 3000,-652 1380,0 2518,262 3416,786 899,523 1529,1218 1892,2081 361,861 539,2078 539,3645l0 2140zm-4912 -2618l0 -1180c0,-839 -46,-1376 -137,-1621 -91,-245 -279,-366 -561,-366 -349,0 -565,104 -649,312 -82,208 -124,764 -124,1675l0 1180 1471 0zm16560 -574l-4338 0 0 -877c0,-747 -42,-1217 -130,-1416 -83,-200 -298,-300 -640,-300 -273,0 -481,92 -618,275 -138,182 -208,457 -208,822 0,495 33,861 103,1089 68,233 275,486 620,761 340,278 1047,681 2115,1209 1425,698 2356,1355 2801,1974 444,614 669,1512 669,2688 0,1318 -171,2311 -512,2980 -341,669 -909,1188 -1708,1549 -801,362 -1761,541 -2891,541 -1247,0 -2319,-196 -3204,-582 -890,-391 -1501,-919 -1833,-1584 -333,-664 -498,-1670 -498,-3016l0 -777 4363 0 0 1018c0,865 54,1425 162,1687 112,258 328,386 648,386 349,0 590,-87 727,-262 137,-174 208,-544 208,-1101 0,-772 -87,-1255 -266,-1450 -187,-195 -1139,-773 -2855,-1732 -1441,-811 -2323,-1546 -2638,-2211 -316,-661 -474,-1446 -474,-2356 0,-1293 170,-2244 511,-2855 341,-615 918,-1089 1733,-1421 814,-333 1762,-499 2838,-499 1072,0 1982,137 2730,408 752,274 1325,631 1728,1080 399,444 645,860 727,1243 88,382 130,980 130,1790l0 939zm11735 0l-4338 0 0 -877c0,-747 -42,-1217 -129,-1416 -83,-200 -299,-300 -640,-300 -274,0 -482,92 -619,275 -137,182 -208,457 -208,822 0,495 33,861 104,1089 67,233 274,486 619,761 341,278 1047,681 2116,1209 1425,698 2356,1355 2800,1974 444,614 669,1512 669,2688 0,1318 -171,2311 -512,2980 -340,669 -909,1188 -1707,1549 -802,362 -1762,541 -2892,541 -1247,0 -2319,-196 -3205,-582 -889,-391 -1500,-919 -1833,-1584 -332,-664 -498,-1670 -498,-3016l0 -777 4364 0 0 1018c0,865 54,1425 162,1687 112,258 329,386 649,386 349,0 589,-87 727,-262 137,-174 207,-544 207,-1101 0,-772 -87,-1255 -265,-1450 -188,-195 -1139,-773 -2856,-1732 -1442,-811 -2323,-1546 -2639,-2211 -316,-661 -473,-1446 -473,-2356 0,-1293 170,-2244 510,-2855 341,-615 919,-1089 1733,-1421 815,-333 1763,-499 2839,-499 1072,0 1982,137 2730,408 752,274 1326,631 1729,1080 398,444 644,860 727,1243 88,382 129,980 129,1790l0 939z"/>
  <path class="fil8" d="M83269 137225l-5725 0 0 -3816c0,-1112 -60,-1802 -181,-2079 -120,-274 -389,-413 -801,-413 -463,0 -759,166 -885,501 -125,338 -189,1060 -189,2172l0 10197c0,1069 64,1764 189,2093 126,324 408,486 844,486 421,0 698,-162 829,-491 129,-324 194,-1092 194,-2301l0 -2765 5725 0 0 857c0,2279 -163,3894 -482,4844 -320,954 -1034,1788 -2131,2506 -1102,717 -2455,1074 -4067,1074 -1671,0 -3051,-301 -4140,-908 -1083,-607 -1805,-1445 -2158,-2519 -352,-1075 -528,-2686 -528,-4840l0 -6418c0,-1584 56,-2770 163,-3561 111,-793 430,-1556 972,-2288 538,-732 1283,-1311 2237,-1732 954,-422 2052,-630 3293,-630 1681,0 3070,324 4168,977 1093,649 1811,1458 2159,2432 342,972 514,2482 514,4533l0 2089zm7354 -9587l0 4951c472,-435 981,-764 1528,-982 547,-218 1134,-329 1759,-329 960,0 1774,246 2451,732 671,491 1083,1051 1236,1691 148,639 222,1805 222,3496l0 12420 -5474 0 0 -12675c0,-1046 -50,-1723 -157,-2019 -106,-301 -338,-449 -704,-449 -338,0 -565,153 -686,463 -115,306 -175,917 -175,1829l0 12851 -5474 0 0 -21979 5474 0zm14726 0l0 2863 -5641 0 0 -2863 5641 0zm0 3974l0 18005 -5641 0 0 -18005 5641 0zm7725 -2390l0 2835 1528 0 0 2861 -1528 0 0 9628c0,1181 65,1843 189,1978 126,134 645,204 1561,204l0 2889 -2218 0c-1250,0 -2144,-50 -2681,-157 -533,-102 -1006,-342 -1413,-718 -407,-375 -662,-801 -764,-1287 -97,-482 -148,-1616 -148,-3404l0 -9133 -1167 0 0 -2861 1167 0 0 -2835 5474 0z"/>
  <path class="fil10" d="M81584 135219l-5725 0 0 -3816c0,-1111 -60,-1801 -181,-2079 -120,-273 -388,-412 -801,-412 -463,0 -759,166 -884,500 -125,338 -190,1061 -190,2172l0 10198c0,1069 65,1764 190,2093 125,324 407,486 843,486 421,0 699,-162 829,-491 129,-324 194,-1093 194,-2301l0 -2765 5725 0 0 856c0,2279 -162,3895 -482,4845 -320,953 -1032,1787 -2131,2505 -1102,718 -2455,1075 -4066,1075 -1671,0 -3052,-301 -4140,-908 -1084,-607 -1806,-1445 -2158,-2520 -352,-1074 -528,-2685 -528,-4839l0 -6418c0,-1584 55,-2770 162,-3562 111,-792 431,-1556 973,-2288 537,-732 1282,-1310 2236,-1731 955,-422 2052,-630 3293,-630 1681,0 3071,324 4168,977 1094,648 1812,1458 2159,2431 342,973 514,2482 514,4534l0 2088zm7354 -9586l0 4951c473,-436 982,-765 1529,-982 546,-218 1134,-329 1759,-329 959,0 1774,245 2450,732 672,491 1084,1051 1236,1690 149,639 223,1806 223,3496l0 12421 -5474 0 0 -12675c0,-1047 -51,-1723 -158,-2019 -106,-302 -337,-449 -704,-449 -338,0 -564,152 -685,462 -115,306 -176,917 -176,1830l0 12851 -5474 0 0 -21979 5474 0zm14726 0l0 2862 -5640 0 0 -2862 5640 0zm0 3973l0 18006 -5640 0 0 -18006 5640 0zm7725 -2389l0 2834 1529 0 0 2862 -1529 0 0 9628c0,1181 66,1843 190,1977 125,135 644,204 1561,204l0 2890 -2219 0c-1250,0 -2143,-51 -2681,-157 -533,-102 -1005,-343 -1412,-718 -408,-375 -662,-801 -764,-1288 -97,-481 -149,-1616 -149,-3404l0 -9132 -1166 0 0 -2862 1166 0 0 -2834 5474 0z"/>
 </g>
</svg>
