<?xml version="1.0" encoding="UTF-8"?>
<!DOCTYPE svg PUBLIC "-//W3C//DTD SVG 1.1//EN" "http://www.w3.org/Graphics/SVG/1.1/DTD/svg11.dtd">
<!-- Creator: CorelDRAW X8 -->
<svg xmlns="http://www.w3.org/2000/svg" xml:space="preserve" width="387px" height="186px" version="1.1" style="shape-rendering:geometricPrecision; text-rendering:geometricPrecision; image-rendering:optimizeQuality; fill-rule:evenodd; clip-rule:evenodd"
viewBox="0 0 104670 50257"
 xmlns:xlink="http://www.w3.org/1999/xlink">
 <defs>
  <style type="text/css">
   <![CDATA[
    .str1 {stroke:#727376;stroke-width:243.468}
    .str0 {stroke:#ABA2CF;stroke-width:243.468}
    .fil4 {fill:none;fill-rule:nonzero}
    .fil0 {fill:#040952}
    .fil1 {fill:white}
    .fil5 {fill:#FFF688;fill-rule:nonzero}
    .fil9 {fill:#F7ADAF;fill-rule:nonzero}
    .fil3 {fill:#F285B5;fill-rule:nonzero}
    .fil7 {fill:#00AFEF;fill-rule:nonzero}
    .fil2 {fill:#040952;fill-rule:nonzero}
    .fil10 {fill:#33CC99;fill-rule:nonzero}
    .fil8 {fill:#66FFCC;fill-rule:nonzero}
    .fil6 {fill:#F58634;fill-rule:nonzero}
   ]]>
  </style>
 </defs>
 <g id="Details">
  <metadata id="CorelCorpID_0Corel-Layer"/>
  <g id="_2326295443184">
   <g>
    <g>
     <g>
      <path class="fil0" d="M54986 2648c638,1600 1099,3302 1738,4902 355,45 489,-585 461,-1656 831,811 1263,2260 1666,3752 2254,4260 1563,7653 -1383,10380 -1205,673 -2411,635 -3616,135 -2688,-1940 -3930,-5518 -1348,-10548 221,-956 475,-1908 1028,-2840 171,756 372,1432 780,1555 166,-1859 509,-3821 674,-5680z"/>
      <path class="fil0" d="M49732 4918c599,1259 962,1998 1786,2439 -1079,2053 -2016,4303 -3095,6357 826,1716 1510,3432 2336,5148 -723,920 -1445,1839 -2168,2758 -1933,-2359 -3626,-5426 -5559,-7785 2205,-3208 4495,-5709 6700,-8917z"/>
      <path class="fil0" d="M51943 7345c403,-419 699,-838 1102,-1257 0,-1501 0,-3003 0,-4505 -2952,-795 -4584,3416 -1102,5762z"/>
      <path class="fil0" d="M59373 7174c-403,-419 -699,-838 -1102,-1257 0,-1502 0,-3003 0,-4505 2951,-795 4584,3416 1102,5762z"/>
      <path class="fil0" d="M61501 5044c-599,1259 -1146,1998 -1970,2439 1079,2053 2199,4303 3278,6357 -825,1716 -1509,3433 -2335,5149 722,919 1445,1838 2167,2758 1933,-2360 3627,-5426 5560,-7786 -2205,-3208 -4496,-5709 -6700,-8917z"/>
     </g>
     <g>
      <path class="fil0" d="M54445 2377c638,1601 1099,3302 1737,4903 356,45 490,-586 461,-1657 832,812 1263,2260 1667,3753 2254,4260 1563,7652 -1383,10379 -1206,673 -2411,635 -3617,136 -2687,-1940 -3929,-5518 -1347,-10549 221,-955 475,-1908 1028,-2840 171,757 372,1433 780,1555 166,-1859 508,-3820 674,-5680z"/>
      <path class="fil0" d="M49190 4648c600,1258 963,1997 1787,2438 -1079,2054 -2016,4304 -3095,6357 826,1716 1510,3433 2335,5149 -722,919 -1444,1839 -2167,2758 -1933,-2360 -3627,-5426 -5560,-7786 2205,-3208 4496,-5709 6700,-8916z"/>
      <path class="fil0" d="M51401 7074c404,-419 699,-838 1102,-1256 0,-1502 0,-3004 0,-4505 -2951,-795 -4584,3416 -1102,5761z"/>
      <path class="fil0" d="M58832 6903c-403,-419 -699,-838 -1102,-1257 0,-1501 0,-3003 0,-4505 2951,-794 4584,3417 1102,5762z"/>
      <path class="fil0" d="M60959 4774c-599,1258 -1145,1997 -1969,2439 1079,2053 2199,4303 3278,6356 -826,1716 -1510,3433 -2336,5149 723,920 1446,1839 2168,2758 1933,-2360 3627,-5426 5560,-7786 -2205,-3207 -4496,-5709 -6701,-8916z"/>
     </g>
    </g>
    <g>
     <path class="fil1" d="M53966 1334c638,1601 1099,3302 1738,4903 355,45 489,-585 461,-1657 831,812 1263,2260 1666,3753 2254,4260 1563,7652 -1383,10380 -1205,672 -2411,634 -3616,135 -2688,-1940 -3930,-5518 -1348,-10549 221,-955 475,-1907 1028,-2840 171,757 372,1433 780,1555 166,-1859 509,-3820 674,-5680z"/>
     <path class="fil1" d="M48712 3605c599,1258 963,1997 1787,2438 -1079,2054 -2017,4304 -3096,6357 826,1716 1510,3433 2336,5149 -723,919 -1445,1839 -2167,2758 -1934,-2360 -3627,-5426 -5560,-7786 2205,-3208 4495,-5709 6700,-8916z"/>
     <path class="fil1" d="M50923 6031c403,-418 699,-838 1102,-1256 0,-1502 0,-3004 0,-4505 -2951,-795 -4584,3416 -1102,5761z"/>
     <path class="fil1" d="M58353 5860c-403,-419 -699,-838 -1102,-1256 0,-1502 0,-3004 0,-4506 2951,-794 4584,3417 1102,5762z"/>
     <path class="fil1" d="M60481 3731c-599,1258 -1146,1998 -1970,2439 1079,2053 2199,4303 3278,6356 -825,1717 -1509,3433 -2335,5149 722,920 1445,1839 2167,2758 1933,-2359 3627,-5426 5560,-7785 -2205,-3208 -4496,-5709 -6700,-8917z"/>
    </g>
   </g>
   <g>
    <g>
     <path class="fil2" d="M17437 35936l-6880 0 0 -4248c0,-1238 -73,-2006 -217,-2315 -145,-304 -468,-459 -963,-459 -557,0 -913,186 -1064,557 -150,376 -228,1180 -228,2418l0 11352c0,1191 78,1964 228,2330 151,361 490,541 1013,541 507,0 841,-180 997,-546 156,-361 234,-1217 234,-2562l0 -3078 6880 0 0 954c0,2536 -195,4335 -579,5392 -384,1062 -1241,1990 -2560,2789 -1325,799 -2951,1196 -4888,1196 -2009,0 -3669,-335 -4977,-1010 -1302,-675 -2171,-1609 -2594,-2805 -423,-1196 -635,-2990 -635,-5387l0 -7145c0,-1763 67,-3083 195,-3965 134,-881 518,-1732 1169,-2547 646,-814 1543,-1458 2689,-1927 1147,-470 2466,-702 3958,-702 2021,0 3691,361 5010,1088 1314,722 2177,1624 2594,2707 412,1082 618,2763 618,5047l0 2325z"/>
     <path class="fil2" d="M26278 25264l0 5511c568,-484 1180,-850 1837,-1093 657,-242 1364,-366 2115,-366 1153,0 2132,274 2945,815 807,546 1303,1170 1486,1882 179,711 268,2010 268,3892l0 13826 -6580 0 0 -14110c0,-1165 -61,-1918 -189,-2247 -129,-335 -407,-500 -847,-500 -406,0 -679,170 -824,515 -139,340 -211,1021 -211,2036l0 14306 -6580 0 0 -24467 6580 0z"/>
     <path class="fil2" d="M53266 27027l0 3155 1838 0 0 3187 -1838 0 0 10717c0,1315 78,2052 229,2202 150,149 773,227 1875,227l0 3216 -2666 0c-1503,0 -2577,-56 -3223,-175 -640,-113 -1208,-382 -1698,-799 -490,-417 -796,-892 -918,-1433 -117,-536 -179,-1799 -179,-3789l0 -10166 -1403 0 0 -3187 1403 0 0 -3155 6580 0z"/>
     <path class="fil2" d="M78074 34296l-6880 0 0 -2221c0,-1403 -61,-2279 -189,-2630 -129,-356 -434,-531 -913,-531 -412,0 -696,150 -846,454 -151,299 -223,1077 -223,2325l0 11733c0,1094 72,1820 223,2166 150,345 445,520 890,520 490,0 818,-196 997,-587 172,-392 261,-1160 261,-2299l0 -2898 -1336 0 0 -3712 8016 0 0 13115 -4325 0 -635 -1752c-467,757 -1057,1325 -1764,1706 -713,382 -1554,572 -2516,572 -1153,0 -2227,-258 -3235,-778 -1002,-521 -1765,-1160 -2282,-1928 -524,-763 -846,-1567 -980,-2408 -128,-840 -195,-2103 -195,-3784l0 -7269c0,-2335 134,-4031 407,-5088 272,-1062 1052,-2031 2338,-2913 1286,-881 2950,-1320 4993,-1320 2010,0 3674,382 4999,1150 1325,768 2193,1675 2594,2727 401,1057 601,2583 601,4593l0 1057z"/>
     <path class="fil2" d="M91050 31153l-889 3827 -6176 0 889 -3827 6176 0zm-1121 4824l-3167 13628 -6176 0 3167 -13628 6176 0z"/>
     <path class="fil2" d="M103761 26210l-861 3286 1770 0 -869 3319 -1771 0 -2925 11163c-359,1369 -484,2137 -381,2292 105,156 684,237 1747,237l-878 3350 -2570 0c-1448,0 -2468,-59 -3058,-182 -586,-118 -1060,-398 -1418,-832 -358,-435 -524,-930 -494,-1493 34,-559 319,-1874 862,-3947l2775 -10588 -1352 0 869 -3319 1352 0 861 -3286 6341 0z"/>
     <path class="fil2" d="M43790 31153l0 3827 -6780 0 0 -3827 6780 0zm0 4824l0 13628 -6780 0 0 -13628 6780 0z"/>
    </g>
    <path class="fil3" d="M16355 33500l-6881 0 0 -4248c0,-1237 -72,-2005 -217,-2315 -145,-304 -467,-458 -963,-458 -557,0 -913,185 -1063,556 -151,377 -229,1181 -229,2418l0 11352c0,1191 78,1964 229,2330 150,361 490,542 1013,542 506,0 841,-181 996,-547 156,-361 234,-1216 234,-2562l0 -3078 6881 0 0 954c0,2537 -195,4336 -579,5392 -384,1062 -1242,1991 -2561,2789 -1325,800 -2950,1197 -4888,1197 -2009,0 -3668,-335 -4976,-1011 -1303,-675 -2171,-1608 -2594,-2804 -424,-1196 -635,-2990 -635,-5388l0 -7145c0,-1763 67,-3083 195,-3964 133,-882 518,-1732 1169,-2547 645,-815 1542,-1459 2689,-1928 1146,-469 2465,-701 3958,-701 2020,0 3690,361 5010,1088 1313,721 2176,1623 2594,2706 412,1083 618,2763 618,5047l0 2325z"/>
    <path id="1" class="fil4 str0" d="M16355 33500l-6881 0 0 -4248c0,-1237 -72,-2005 -217,-2315 -145,-304 -467,-458 -963,-458 -557,0 -913,185 -1063,556 -151,377 -229,1181 -229,2418l0 11352c0,1191 78,1964 229,2330 150,361 490,542 1013,542 506,0 841,-181 996,-547 156,-361 234,-1216 234,-2562l0 -3078 6881 0 0 954c0,2537 -195,4336 -579,5392 -384,1062 -1242,1991 -2561,2789 -1325,800 -2950,1197 -4888,1197 -2009,0 -3668,-335 -4976,-1011 -1303,-675 -2171,-1608 -2594,-2804 -424,-1196 -635,-2990 -635,-5388l0 -7145c0,-1763 67,-3083 195,-3964 133,-882 518,-1732 1169,-2547 645,-815 1542,-1459 2689,-1928 1146,-469 2465,-701 3958,-701 2020,0 3690,361 5010,1088 1313,721 2176,1623 2594,2706 412,1083 618,2763 618,5047l0 2325z"/>
    <path class="fil5" d="M25195 22828l0 5512c568,-485 1181,-851 1837,-1093 657,-242 1364,-366 2116,-366 1152,0 2132,273 2944,814 808,547 1303,1170 1487,1882 178,711 267,2011 267,3892l0 13827 -6580 0 0 -14110c0,-1165 -61,-1918 -189,-2248 -128,-335 -406,-500 -846,-500 -407,0 -679,170 -824,515 -139,341 -212,1021 -212,2037l0 14306 -6580 0 0 -24468 6580 0z"/>
    <path id="1" class="fil4 str1" d="M25195 22828l0 5512c568,-485 1181,-851 1837,-1093 657,-242 1364,-366 2116,-366 1152,0 2132,273 2944,814 808,547 1303,1170 1487,1882 178,711 267,2011 267,3892l0 13827 -6580 0 0 -14110c0,-1165 -61,-1918 -189,-2248 -128,-335 -406,-500 -846,-500 -407,0 -679,170 -824,515 -139,341 -212,1021 -212,2037l0 14306 -6580 0 0 -24468 6580 0z"/>
    <path class="fil6" d="M52184 24592l0 3155 1837 0 0 3186 -1837 0 0 10718c0,1314 78,2052 228,2201 150,150 774,227 1876,227l0 3217 -2667 0c-1502,0 -2577,-57 -3223,-176 -640,-113 -1208,-381 -1697,-799 -490,-417 -796,-892 -919,-1433 -117,-536 -178,-1799 -178,-3789l0 -10166 -1403 0 0 -3186 1403 0 0 -3155 6580 0z"/>
    <path id="1" class="fil4 str1" d="M52184 24592l0 3155 1837 0 0 3186 -1837 0 0 10718c0,1314 78,2052 228,2201 150,150 774,227 1876,227l0 3217 -2667 0c-1502,0 -2577,-57 -3223,-176 -640,-113 -1208,-381 -1697,-799 -490,-417 -796,-892 -919,-1433 -117,-536 -178,-1799 -178,-3789l0 -10166 -1403 0 0 -3186 1403 0 0 -3155 6580 0z"/>
    <path class="fil7" d="M76992 31861l-6881 0 0 -2222c0,-1402 -61,-2279 -189,-2629 -128,-356 -434,-531 -913,-531 -412,0 -696,149 -846,453 -150,299 -223,1078 -223,2325l0 11734c0,1093 73,1820 223,2165 150,346 445,521 891,521 489,0 818,-196 996,-588 173,-392 262,-1160 262,-2299l0 -2897 -1336 0 0 -3712 8016 0 0 13115 -4325 0 -635 -1753c-468,758 -1058,1325 -1765,1706 -712,382 -1553,573 -2516,573 -1152,0 -2226,-258 -3234,-779 -1002,-520 -1765,-1160 -2282,-1928 -524,-763 -847,-1567 -980,-2407 -129,-841 -195,-2104 -195,-3784l0 -7270c0,-2335 134,-4031 406,-5088 273,-1062 1052,-2031 2338,-2913 1286,-881 2950,-1319 4994,-1319 2009,0 3674,381 4998,1149 1325,769 2194,1676 2595,2728 401,1056 601,2582 601,4593l0 1057z"/>
    <path id="1" class="fil4 str1" d="M76992 31861l-6881 0 0 -2222c0,-1402 -61,-2279 -189,-2629 -128,-356 -434,-531 -913,-531 -412,0 -696,149 -846,453 -150,299 -223,1078 -223,2325l0 11734c0,1093 73,1820 223,2165 150,346 445,521 891,521 489,0 818,-196 996,-588 173,-392 262,-1160 262,-2299l0 -2897 -1336 0 0 -3712 8016 0 0 13115 -4325 0 -635 -1753c-468,758 -1058,1325 -1765,1706 -712,382 -1553,573 -2516,573 -1152,0 -2226,-258 -3234,-779 -1002,-520 -1765,-1160 -2282,-1928 -524,-763 -847,-1567 -980,-2407 -129,-841 -195,-2104 -195,-3784l0 -7270c0,-2335 134,-4031 406,-5088 273,-1062 1052,-2031 2338,-2913 1286,-881 2950,-1319 4994,-1319 2009,0 3674,381 4998,1149 1325,769 2194,1676 2595,2728 401,1056 601,2582 601,4593l0 1057z"/>
    <path class="fil8 str1" d="M89968 28718l-890 3826 -6176 0 890 -3826 6176 0zm-1122 4823l-3167 13629 -6176 0 3168 -13629 6175 0z"/>
    <path class="fil9" d="M102678 23774l-861 3286 1770 0 -869 3319 -1770 0 -2925 11163c-359,1369 -485,2137 -381,2293 104,155 684,236 1746,236l-878 3351 -2569 0c-1449,0 -2469,-59 -3059,-183 -586,-118 -1059,-397 -1418,-832 -358,-435 -523,-929 -493,-1493 33,-558 319,-1874 862,-3946l2774 -10589 -1352 0 870 -3319 1352 0 861 -3286 6340 0z"/>
    <path id="1" class="fil4 str1" d="M102678 23774l-861 3286 1770 0 -869 3319 -1770 0 -2925 11163c-359,1369 -485,2137 -381,2293 104,155 684,236 1746,236l-878 3351 -2569 0c-1449,0 -2469,-59 -3059,-183 -586,-118 -1059,-397 -1418,-832 -358,-435 -523,-929 -493,-1493 33,-558 319,-1874 862,-3946l2774 -10589 -1352 0 870 -3319 1352 0 861 -3286 6340 0z"/>
    <path class="fil10 str1" d="M42708 28718l0 3826 -6781 0 0 -3826 6781 0zm0 4823l0 13629 -6781 0 0 -13629 6781 0z"/>
   </g>
  </g>
 </g>
</svg>
