<?xml version="1.0" encoding="UTF-8"?>
<!DOCTYPE svg PUBLIC "-//W3C//DTD SVG 1.1//EN" "http://www.w3.org/Graphics/SVG/1.1/DTD/svg11.dtd">
<!-- Creator: CorelDRAW X8 -->
<svg xmlns="http://www.w3.org/2000/svg" xml:space="preserve" width="697px" height="83px" version="1.1" shape-rendering="geometricPrecision" text-rendering="geometricPrecision" image-rendering="optimizeQuality" fill-rule="evenodd" clip-rule="evenodd"
viewBox="0 0 497128 59495"
 xmlns:xlink="http://www.w3.org/1999/xlink">
 <g id="Layer_x0020_1">
  <metadata id="CorelCorpID_0Corel-Layer"/>
  <g id="_2104687658208">
   <path fill="#373435" fill-rule="nonzero" d="M4663 40573l-4663 -15429 2735 0 2463 8903 872 3315c35,-163 302,-1224 797,-3181l2443 -9037 2681 0 2324 8958 758 2938 887 -2978 2665 -8918 2542 0 -4841 15429 -2705 0 -2448 -9231 -619 -2641 -3121 11872 -2770 0z"/>
   <path id="1" fill="#373435" fill-rule="nonzero" d="M26132 40573l-4662 -15429 2735 0 2462 8903 872 3315c35,-163 302,-1224 798,-3181l2443 -9037 2680 0 2324 8958 758 2938 887 -2978 2666 -8918 2541 0 -4840 15429 -2706 0 -2447 -9231 -620 -2641 -3121 11872 -2770 0z"/>
   <path id="2" fill="#373435" fill-rule="nonzero" d="M47602 40573l-4663 -15429 2735 0 2463 8903 872 3315c35,-163 302,-1224 797,-3181l2443 -9037 2681 0 2324 8958 758 2938 887 -2978 2665 -8918 2542 0 -4840 15429 -2706 0 -2448 -9231 -619 -2641 -3121 11872 -2770 0z"/>
   <polygon id="3" fill="#373435" fill-rule="nonzero" points="65399,40573 65399,37600 68372,37600 68372,40573 "/>
   <path id="4" fill="#373435" fill-rule="nonzero" d="M88404 33106l2824 713c-590,2314 -1650,4073 -3181,5287 -1531,1214 -3404,1823 -5619,1823 -2289,0 -4152,-465 -5589,-1402 -1437,-931 -2527,-2284 -3275,-4053 -748,-1774 -1125,-3671 -1125,-5703 0,-2215 422,-4147 1269,-5797 847,-1650 2051,-2903 3612,-3761 1560,-857 3280,-1283 5153,-1283 2130,0 3919,540 5366,1625 1452,1086 2462,2607 3032,4568l-2765 654c-490,-1545 -1208,-2675 -2145,-3379 -937,-708 -2116,-1060 -3538,-1060 -1630,0 -2998,392 -4092,1175 -1096,783 -1868,1838 -2309,3156 -446,1323 -669,2685 -669,4088 0,1808 263,3388 788,4736 525,1353 1342,2358 2452,3027 1110,670 2309,1002 3602,1002 1576,0 2904,-456 3994,-1363 1090,-912 1829,-2259 2215,-4053z"/>
   <path id="5" fill="#373435" fill-rule="nonzero" d="M94384 40573l0 -21286 2617 0 0 7660c1213,-1422 2745,-2130 4598,-2130 1135,0 2121,222 2963,673 837,451 1436,1070 1799,1863 361,793 539,1948 539,3454l0 9766 -2616 0 0 -9756c0,-1303 -282,-2254 -842,-2849 -565,-595 -1358,-892 -2389,-892 -767,0 -1490,198 -2170,599 -678,401 -1159,947 -1452,1636 -287,683 -430,1630 -430,2839l0 8423 -2617 0z"/>
   <path id="6" fill="#373435" fill-rule="nonzero" d="M110918 22260l0 -2973 2617 0 0 2973 -2617 0zm0 18313l0 -15429 2617 0 0 15429 -2617 0z"/>
   <path id="7" fill="#373435" fill-rule="nonzero" d="M123201 38239l358 2309c-734,154 -1393,233 -1967,233 -947,0 -1681,-148 -2206,-451 -520,-303 -886,-694 -1099,-1184 -214,-490 -317,-1521 -317,-3092l0 -8889 -1933 0 0 -2021 1933 0 0 -3816 2616 -1570 0 5386 2615 0 0 2021 -2615 0 0 9037c0,749 44,1229 139,1442 88,214 237,382 445,511 208,124 506,188 892,188 287,0 669,-35 1139,-104z"/>
   <path id="8" fill="#373435" fill-rule="nonzero" d="M136069 32219l0 -2497 9008 0 0 7888c-1383,1099 -2810,1932 -4281,2487 -1472,555 -2983,832 -4529,832 -2090,0 -3988,-446 -5698,-1342 -1704,-892 -2997,-2190 -3865,-3880 -872,-1695 -1308,-3587 -1308,-5673 0,-2071 431,-4004 1298,-5802 867,-1794 2111,-3127 3736,-3994 1626,-872 3499,-1308 5619,-1308 1536,0 2928,248 4172,748 1243,500 2220,1194 2924,2081 707,892 1243,2057 1610,3488l-2542 694c-322,-1080 -718,-1932 -1189,-2557 -476,-619 -1150,-1114 -2031,-1486 -878,-371 -1853,-560 -2929,-560 -1283,0 -2393,198 -3334,590 -937,391 -1690,907 -2270,1551 -574,639 -1020,1343 -1338,2105 -540,1323 -812,2750 -812,4291 0,1903 327,3493 976,4777 653,1278 1605,2230 2849,2849 1249,619 2572,931 3974,931 1218,0 2408,-237 3567,-708 1160,-476 2036,-976 2636,-1516l0 -3989 -6243 0z"/>
   <path id="9" fill="#373435" fill-rule="nonzero" d="M148906 22260l0 -2973 2617 0 0 2973 -2617 0zm0 18313l0 -15429 2617 0 0 15429 -2617 0z"/>
   <path id="10" fill="#373435" fill-rule="nonzero" d="M161189 38239l358 2309c-733,154 -1392,233 -1967,233 -947,0 -1681,-148 -2206,-451 -519,-303 -886,-694 -1099,-1184 -213,-490 -317,-1521 -317,-3092l0 -8889 -1933 0 0 -2021 1933 0 0 -3816 2616 -1570 0 5386 2615 0 0 2021 -2615 0 0 9037c0,749 44,1229 139,1442 88,214 237,382 445,511 209,124 506,188 892,188 287,0 669,-35 1139,-104z"/>
   <polygon id="11" fill="#373435" fill-rule="nonzero" points="164514,40573 164514,37600 167487,37600 167487,40573 "/>
   <path id="12" fill="#373435" fill-rule="nonzero" d="M182109 34924l2556 357c-283,1759 -996,3131 -2150,4127 -1155,996 -2577,1492 -4257,1492 -2106,0 -3800,-689 -5079,-2067 -1282,-1377 -1922,-3349 -1922,-5915 0,-1666 277,-3117 828,-4366 550,-1243 1387,-2180 2517,-2799 1125,-624 2348,-936 3677,-936 1669,0 3042,420 4102,1268 1065,847 1748,2051 2046,3607l-2527 387c-242,-1036 -669,-1814 -1288,-2339 -614,-521 -1358,-783 -2230,-783 -1318,0 -2388,470 -3216,1412 -822,946 -1233,2433 -1233,4474 0,2071 397,3573 1189,4509 798,936 1833,1407 3107,1407 1030,0 1887,-312 2571,-941 689,-625 1125,-1590 1309,-2894z"/>
   <path id="13" fill="#373435" fill-rule="nonzero" d="M185913 32858c0,-2849 793,-4960 2384,-6332 1323,-1140 2943,-1709 4850,-1709 2116,0 3850,693 5198,2080 1343,1383 2017,3300 2017,5743 0,1982 -297,3538 -892,4672 -595,1135 -1462,2017 -2601,2646 -1135,630 -2379,942 -3722,942 -2160,0 -3904,-689 -5236,-2072 -1334,-1382 -1998,-3374 -1998,-5970zm2676 5c0,1972 431,3448 1294,4425 867,981 1951,1471 3264,1471 1299,0 2379,-490 3246,-1476 862,-986 1293,-2488 1293,-4504 0,-1903 -436,-3344 -1303,-4321 -867,-981 -1947,-1471 -3236,-1471 -1313,0 -2397,485 -3264,1461 -863,977 -1294,2448 -1294,4415z"/>
   <path id="14" fill="#373435" fill-rule="nonzero" d="M203428 40573l0 -15429 2349 0 0 2180c481,-754 1125,-1363 1928,-1819 802,-461 1714,-688 2739,-688 1140,0 2077,237 2805,708 728,476 1244,1135 1540,1987 1230,-1799 2820,-2695 4782,-2695 1536,0 2720,420 3543,1268 827,847 1243,2151 1243,3909l0 10579 -2615 0 0 -9712c0,-1040 -90,-1794 -258,-2254 -169,-461 -476,-827 -927,-1110 -446,-283 -971,-421 -1570,-421 -1091,0 -1992,362 -2711,1080 -718,723 -1075,1878 -1075,3463l0 8954 -2616 0 0 -10014c0,-1160 -213,-2031 -640,-2611 -425,-580 -1124,-872 -2090,-872 -734,0 -1412,193 -2036,580 -625,386 -1076,951 -1358,1699 -278,743 -416,1818 -416,3220l0 7998 -2617 0z"/>
   <polygon id="15" fill="#373435" fill-rule="nonzero" points="226231,40929 232415,18930 234520,18930 228337,40929 "/>
   <path id="16" fill="#373435" fill-rule="nonzero" d="M246531 34924l2556 357c-283,1759 -996,3131 -2150,4127 -1155,996 -2577,1492 -4257,1492 -2106,0 -3800,-689 -5079,-2067 -1282,-1377 -1922,-3349 -1922,-5915 0,-1666 277,-3117 828,-4366 550,-1243 1387,-2180 2517,-2799 1125,-624 2348,-936 3677,-936 1669,0 3042,420 4102,1268 1065,847 1748,2051 2046,3607l-2527 387c-242,-1036 -669,-1814 -1288,-2339 -614,-521 -1358,-783 -2230,-783 -1318,0 -2388,470 -3216,1412 -822,946 -1233,2433 -1233,4474 0,2071 397,3573 1189,4509 798,936 1833,1407 3107,1407 1030,0 1887,-312 2571,-941 689,-625 1125,-1590 1309,-2894z"/>
   <path id="17" fill="#373435" fill-rule="nonzero" d="M251316 40573l0 -21286 2617 0 0 7660c1213,-1422 2745,-2130 4598,-2130 1135,0 2121,222 2963,673 837,451 1436,1070 1799,1863 361,793 539,1948 539,3454l0 9766 -2616 0 0 -9756c0,-1303 -282,-2254 -842,-2849 -565,-595 -1358,-892 -2389,-892 -767,0 -1490,198 -2170,599 -678,401 -1159,947 -1451,1636 -288,683 -431,1630 -431,2839l0 8423 -2617 0z"/>
   <path id="18" fill="#373435" fill-rule="nonzero" d="M267850 22260l0 -2973 2617 0 0 2973 -2617 0zm0 18313l0 -15429 2617 0 0 15429 -2617 0z"/>
   <path id="19" fill="#373435" fill-rule="nonzero" d="M280133 38239l358 2309c-734,154 -1393,233 -1967,233 -947,0 -1681,-148 -2206,-451 -520,-303 -886,-694 -1099,-1184 -214,-490 -317,-1521 -317,-3092l0 -8889 -1933 0 0 -2021 1933 0 0 -3816 2616 -1570 0 5386 2615 0 0 2021 -2615 0 0 9037c0,749 44,1229 139,1442 88,214 237,382 445,511 209,124 506,188 892,188 287,0 669,-35 1139,-104z"/>
   <path id="20" fill="#373435" fill-rule="nonzero" d="M283041 40573l0 -21286 8037 0c1413,0 2493,69 3241,203 1045,174 1923,506 2631,991 708,490 1279,1174 1709,2051 432,877 644,1843 644,2899 0,1803 -575,3335 -1729,4583 -1150,1254 -3235,1878 -6248,1878l-5460 0 0 8681 -2825 0zm2825 -11179l5500 0c1823,0 3112,-336 3879,-1015 763,-679 1145,-1630 1145,-2864 0,-887 -223,-1650 -673,-2284 -451,-634 -1046,-1055 -1779,-1258 -477,-124 -1353,-189 -2626,-189l-5446 0 0 7610z"/>
   <path id="21" fill="#373435" fill-rule="nonzero" d="M302514 40573l0 -15429 2348 0 0 2363c600,-1095 1155,-1819 1666,-2165 509,-353 1070,-525 1679,-525 882,0 1779,277 2690,827l-931 2413c-635,-357 -1268,-535 -1903,-535 -570,0 -1080,173 -1531,515 -451,342 -773,818 -966,1427 -292,926 -436,1943 -436,3047l0 8062 -2616 0z"/>
   <path id="22" fill="#373435" fill-rule="nonzero" d="M322968 35578l2705 357c-421,1570 -1209,2795 -2359,3662 -1149,867 -2616,1303 -4405,1303 -2249,0 -4033,-694 -5351,-2081 -1318,-1383 -1977,-3330 -1977,-5832 0,-2587 664,-4598 1997,-6025 1333,-1432 3062,-2145 5188,-2145 2056,0 3736,698 5039,2101 1303,1402 1957,3374 1957,5915 0,154 -5,387 -15,694l-11490 0c99,1689 575,2988 1437,3885 858,896 1932,1347 3215,1347 957,0 1774,-253 2448,-758 679,-505 1214,-1313 1611,-2423zm-8562 -4192l8591 0c-113,-1297 -445,-2269 -986,-2918 -827,-1006 -1908,-1511 -3231,-1511 -1198,0 -2204,401 -3021,1204 -813,803 -1264,1878 -1353,3225z"/>
   <path id="23" fill="#373435" fill-rule="nonzero" d="M333194 40573l-5822 -15429 2799 0 3300 9240c358,996 689,2032 991,3107 233,-812 556,-1789 976,-2934l3429 -9413 2686 0 -5842 15429 -2517 0z"/>
   <path id="24" fill="#373435" fill-rule="nonzero" d="M343842 22260l0 -2973 2616 0 0 2973 -2616 0zm0 18313l0 -15429 2616 0 0 15429 -2616 0z"/>
   <path id="25" fill="#373435" fill-rule="nonzero" d="M360971 35578l2705 357c-421,1570 -1209,2795 -2359,3662 -1149,867 -2615,1303 -4404,1303 -2249,0 -4033,-694 -5351,-2081 -1318,-1383 -1977,-3330 -1977,-5832 0,-2587 664,-4598 1997,-6025 1332,-1432 3061,-2145 5187,-2145 2057,0 3736,698 5039,2101 1304,1402 1958,3374 1958,5915 0,154 -6,387 -16,694l-11490 0c100,1689 575,2988 1437,3885 858,896 1932,1347 3216,1347 956,0 1774,-253 2448,-758 678,-505 1213,-1313 1610,-2423zm-8562 -4192l8592 0c-114,-1297 -446,-2269 -986,-2918 -828,-1006 -1908,-1511 -3231,-1511 -1199,0 -2205,401 -3022,1204 -813,803 -1263,1878 -1353,3225z"/>
   <path id="26" fill="#373435" fill-rule="nonzero" d="M369755 40573l-4662 -15429 2735 0 2463 8903 872 3315c34,-163 301,-1224 797,-3181l2443 -9037 2681 0 2324 8958 757 2938 888 -2978 2665 -8918 2542 0 -4841 15429 -2706 0 -2447 -9231 -619 -2641 -3122 11872 -2770 0z"/>
   <polygon id="27" fill="#373435" fill-rule="nonzero" points="386488,41001 393908,14602 396435,14602 389015,41001 "/>
   <path id="28" fill="#ED3237" fill-rule="nonzero" d="M406466 40573l9871 -13253 -8694 -12290 4026 0 4655 6535c970,1355 1642,2390 2028,3109 577,-892 1254,-1844 2033,-2848l5102 -6796 3704 0 -8871 12141 9549 13402 -4151 0 -6445 -9109c-368,-517 -719,-1035 -1046,-1546 -571,857 -975,1457 -1225,1795l-6475 8860 -4061 0z"/>
   <path id="29" fill="#ED3237" fill-rule="nonzero" d="M440054 40573l0 -10821 -9847 -14722 4067 0 5048 7730c940,1432 1814,2865 2610,4298 779,-1338 1724,-2836 2825,-4501l4946 -7527 3943 0 -10204 14722 0 10821 -3388 0z"/>
   <path id="30" fill="#ED3237" fill-rule="nonzero" d="M454615 40573l0 -3122 13080 -16374c940,-1154 1819,-2170 2658,-3050l-14240 0 0 -2997 18265 0 0 2997 -14347 17718 -1534 1831 16309 0 0 2997 -20191 0z"/>
   <ellipse fill="none" stroke="#ED3237" stroke-width="1486.53" cx="444039" cy="29747" rx="52346" ry="29004"/>
  </g>
 </g>
</svg>
