<?xml version="1.0" encoding="UTF-8"?>
<!DOCTYPE svg PUBLIC "-//W3C//DTD SVG 1.1//EN" "http://www.w3.org/Graphics/SVG/1.1/DTD/svg11.dtd">
<!-- Creator: CorelDRAW X8 -->
<svg xmlns="http://www.w3.org/2000/svg" xml:space="preserve" width="208px" height="52px" version="1.1" style="shape-rendering:geometricPrecision; text-rendering:geometricPrecision; image-rendering:optimizeQuality; fill-rule:evenodd; clip-rule:evenodd"
viewBox="0 0 22643 5648"
 xmlns:xlink="http://www.w3.org/1999/xlink">
 <defs>
  <style type="text/css">
   <![CDATA[
    .str1 {stroke:#727376;stroke-width:98.1785}
    .str0 {stroke:#ABA2CF;stroke-width:98.1785}
    .fil1 {fill:none;fill-rule:nonzero}
    .fil2 {fill:#FFF688;fill-rule:nonzero}
    .fil6 {fill:#F7ADAF;fill-rule:nonzero}
    .fil0 {fill:#F285B5;fill-rule:nonzero}
    .fil4 {fill:#00AFEF;fill-rule:nonzero}
    .fil7 {fill:#33CC99;fill-rule:nonzero}
    .fil5 {fill:#66FFCC;fill-rule:nonzero}
    .fil3 {fill:#F58634;fill-rule:nonzero}
   ]]>
  </style>
 </defs>
 <g id="Logo">
  <metadata id="CorelCorpID_0Corel-Layer"/>
  <g id="_1784315326576">
   <path class="fil0" d="M3584 2481l-1498 0 0 -925c0,-270 -16,-437 -48,-504 -31,-67 -102,-100 -209,-100 -122,0 -199,40 -232,121 -33,82 -50,257 -50,526l0 2472c0,260 17,428 50,508 33,78 107,118 221,118 110,0 183,-40 217,-119 34,-79 51,-265 51,-558l0 -670 1498 0 0 207c0,552 -43,944 -126,1174 -84,232 -271,434 -558,608 -288,174 -642,260 -1064,260 -438,0 -799,-73 -1084,-220 -284,-147 -473,-350 -565,-611 -92,-260 -138,-651 -138,-1173l0 -1556c0,-383 15,-671 43,-863 29,-192 112,-377 254,-554 141,-178 336,-318 586,-420 249,-102 537,-153 861,-153 440,0 804,79 1091,237 286,157 474,354 565,589 90,236 135,602 135,1099l0 507z"/>
   <path id="1" class="fil1 str0" d="M3584 2481l-1498 0 0 -925c0,-270 -16,-437 -48,-504 -31,-67 -102,-100 -209,-100 -122,0 -199,40 -232,121 -33,82 -50,257 -50,526l0 2472c0,260 17,428 50,508 33,78 107,118 221,118 110,0 183,-40 217,-119 34,-79 51,-265 51,-558l0 -670 1498 0 0 207c0,552 -43,944 -126,1174 -84,232 -271,434 -558,608 -288,174 -642,260 -1064,260 -438,0 -799,-73 -1084,-220 -284,-147 -473,-350 -565,-611 -92,-260 -138,-651 -138,-1173l0 -1556c0,-383 15,-671 43,-863 29,-192 112,-377 254,-554 141,-178 336,-318 586,-420 249,-102 537,-153 861,-153 440,0 804,79 1091,237 286,157 474,354 565,589 90,236 135,602 135,1099l0 507z"/>
   <path class="fil2" d="M5509 157l0 1200c124,-106 257,-185 400,-238 143,-53 297,-80 460,-80 251,0 465,60 642,178 175,119 283,254 323,409 39,155 59,438 59,848l0 3011 -1433 0 0 -3073c0,-254 -14,-418 -41,-489 -28,-73 -89,-109 -185,-109 -88,0 -147,37 -179,112 -30,74 -46,222 -46,443l0 3116 -1433 0 0 -5328 1433 0z"/>
   <path id="1" class="fil1 str1" d="M5509 157l0 1200c124,-106 257,-185 400,-238 143,-53 297,-80 460,-80 251,0 465,60 642,178 175,119 283,254 323,409 39,155 59,438 59,848l0 3011 -1433 0 0 -3073c0,-254 -14,-418 -41,-489 -28,-73 -89,-109 -185,-109 -88,0 -147,37 -179,112 -30,74 -46,222 -46,443l0 3116 -1433 0 0 -5328 1433 0z"/>
   <path class="fil3" d="M11386 541l0 687 400 0 0 694 -400 0 0 2333c0,287 17,447 49,480 33,32 169,49 409,49l0 701 -581 0c-327,0 -561,-13 -702,-39 -139,-24 -263,-83 -369,-174 -107,-90 -174,-194 -200,-312 -26,-116 -39,-391 -39,-825l0 -2213 -305 0 0 -694 305 0 0 -687 1433 0z"/>
   <path id="1" class="fil1 str1" d="M11386 541l0 687 400 0 0 694 -400 0 0 2333c0,287 17,447 49,480 33,32 169,49 409,49l0 701 -581 0c-327,0 -561,-13 -702,-39 -139,-24 -263,-83 -369,-174 -107,-90 -174,-194 -200,-312 -26,-116 -39,-391 -39,-825l0 -2213 -305 0 0 -694 305 0 0 -687 1433 0z"/>
   <path class="fil4" d="M16788 2124l-1499 0 0 -484c0,-306 -13,-496 -41,-573 -28,-77 -94,-115 -198,-115 -90,0 -152,32 -185,98 -32,66 -48,235 -48,507l0 2555c0,238 16,396 48,471 33,75 97,114 194,114 107,0 178,-43 217,-128 38,-86 57,-253 57,-501l0 -631 -291 0 0 -808 1746 0 0 2856 -942 0 -138 -382c-102,165 -231,288 -385,372 -155,83 -338,124 -548,124 -250,0 -484,-56 -704,-169 -218,-114 -384,-253 -497,-420 -114,-166 -184,-341 -213,-524 -28,-183 -42,-458 -42,-824l0 -1583c0,-509 29,-878 88,-1108 59,-231 229,-442 509,-634 280,-192 643,-288 1087,-288 438,0 801,83 1089,250 288,168 478,365 565,594 87,230 131,563 131,1000l0 231z"/>
   <path id="1" class="fil1 str1" d="M16788 2124l-1499 0 0 -484c0,-306 -13,-496 -41,-573 -28,-77 -94,-115 -198,-115 -90,0 -152,32 -185,98 -32,66 -48,235 -48,507l0 2555c0,238 16,396 48,471 33,75 97,114 194,114 107,0 178,-43 217,-128 38,-86 57,-253 57,-501l0 -631 -291 0 0 -808 1746 0 0 2856 -942 0 -138 -382c-102,165 -231,288 -385,372 -155,83 -338,124 -548,124 -250,0 -484,-56 -704,-169 -218,-114 -384,-253 -497,-420 -114,-166 -184,-341 -213,-524 -28,-183 -42,-458 -42,-824l0 -1583c0,-509 29,-878 88,-1108 59,-231 229,-442 509,-634 280,-192 643,-288 1087,-288 438,0 801,83 1089,250 288,168 478,365 565,594 87,230 131,563 131,1000l0 231z"/>
   <path class="fil5 str1" d="M19613 1439l-193 833 -1345 0 194 -833 1344 0zm-244 1050l-690 2968 -1344 0 689 -2968 1345 0z"/>
   <path class="fil6" d="M22381 363l-187 715 385 0 -189 723 -386 0 -637 2431c-78,298 -105,465 -82,499 22,34 148,51 380,51l-191 730 -560 0c-315,0 -538,-13 -666,-40 -128,-26 -231,-86 -309,-181 -78,-95 -114,-202 -107,-325 7,-122 69,-408 188,-860l604 -2305 -295 0 190 -723 294 0 188 -715 1380 0z"/>
   <path id="1" class="fil1 str1" d="M22381 363l-187 715 385 0 -189 723 -386 0 -637 2431c-78,298 -105,465 -82,499 22,34 148,51 380,51l-191 730 -560 0c-315,0 -538,-13 -666,-40 -128,-26 -231,-86 -309,-181 -78,-95 -114,-202 -107,-325 7,-122 69,-408 188,-860l604 -2305 -295 0 190 -723 294 0 188 -715 1380 0z"/>
   <path class="fil7 str1" d="M9322 1439l0 833 -1476 0 0 -833 1476 0zm0 1050l0 2968 -1476 0 0 -2968 1476 0z"/>
  </g>
 </g>
</svg>
