<?xml version="1.0" encoding="UTF-8"?>
<!DOCTYPE svg PUBLIC "-//W3C//DTD SVG 1.1//EN" "http://www.w3.org/Graphics/SVG/1.1/DTD/svg11.dtd">
<!-- Creator: CorelDRAW X8 -->
<svg xmlns="http://www.w3.org/2000/svg" xml:space="preserve" width="801px" height="83px" version="1.1" shape-rendering="geometricPrecision" text-rendering="geometricPrecision" image-rendering="optimizeQuality" fill-rule="evenodd" clip-rule="evenodd"
viewBox="0 0 656576 68375"
 xmlns:xlink="http://www.w3.org/1999/xlink">
 <g id="Layer_x0020_1">
  <metadata id="CorelCorpID_0Corel-Layer"/>
  <g id="_2104571865472">
   <path fill="#373435" fill-rule="nonzero" d="M6430 49795l-6430 -21279 3771 0 3397 12279 1203 4572c47,-226 416,-1688 1100,-4388l3368 -12463 3697 0 3205 12355 1046 4051 1223 -4106 3675 -12300 3506 0 -6676 21279 -3731 0 -3375 -12730 -855 -3643 -4305 16373 -3819 0z"/>
   <path id="1" fill="#373435" fill-rule="nonzero" d="M36037 49795l-6429 -21279 3771 0 3396 12279 1203 4572c48,-226 417,-1688 1100,-4388l3369 -12463 3696 0 3205 12355 1046 4051 1223 -4106 3676 -12300 3506 0 -6676 21279 -3732 0 -3375 -12730 -854 -3643 -4305 16373 -3820 0z"/>
   <path id="2" fill="#373435" fill-rule="nonzero" d="M65645 49795l-6430 -21279 3771 0 3397 12279 1203 4572c47,-226 416,-1688 1100,-4388l3368 -12463 3697 0 3205 12355 1046 4051 1223 -4106 3675 -12300 3506 0 -6676 21279 -3731 0 -3375 -12730 -855 -3643 -4305 16373 -3819 0z"/>
   <polygon id="3" fill="#373435" fill-rule="nonzero" points="90189,49795 90189,45695 94290,45695 94290,49795 "/>
   <path id="4" fill="#373435" fill-rule="nonzero" d="M121916 39497l3895 984c-813,3191 -2275,5617 -4387,7291 -2112,1674 -4695,2515 -7748,2515 -3157,0 -5727,-643 -7708,-1934 -1982,-1285 -3485,-3150 -4517,-5590 -1032,-2446 -1551,-5063 -1551,-7865 0,-3054 580,-5719 1749,-7994 1168,-2275 2829,-4004 4981,-5187 2153,-1182 4524,-1769 7107,-1769 2938,0 5405,745 7400,2241 2002,1496 3396,3594 4182,6300l-3813 902c-676,-2132 -1667,-3690 -2959,-4661 -1291,-977 -2918,-1461 -4879,-1461 -2248,0 -4133,539 -5643,1619 -1511,1079 -2576,2535 -3185,4352 -615,1825 -923,3704 -923,5638 0,2494 363,4674 1087,6532 724,1866 1852,3253 3383,4176 1530,922 3183,1380 4967,1380 2174,0 4004,-629 5508,-1879 1503,-1257 2521,-3117 3054,-5590z"/>
   <path id="5" fill="#373435" fill-rule="nonzero" d="M130163 49795l0 -29355 3608 0 0 10563c1674,-1961 3786,-2937 6341,-2937 1565,0 2925,307 4087,928 1154,622 1981,1476 2480,2570 499,1093 745,2685 745,4763l0 13468 -3608 0 0 -13455c0,-1797 -389,-3109 -1162,-3929 -779,-820 -1872,-1230 -3293,-1230 -1060,0 -2057,273 -2994,827 -935,553 -1599,1305 -2001,2255 -397,943 -595,2248 -595,3916l0 11616 -3608 0z"/>
   <path id="6" fill="#373435" fill-rule="nonzero" d="M152965 24539l0 -4099 3608 0 0 4099 -3608 0zm0 25256l0 -21279 3608 0 0 21279 -3608 0z"/>
   <path id="7" fill="#373435" fill-rule="nonzero" d="M169905 46576l492 3185c-1012,211 -1921,320 -2713,320 -1305,0 -2316,-204 -3041,-622 -717,-416 -1223,-955 -1516,-1632 -295,-676 -438,-2098 -438,-4265l0 -12258 -2665 0 0 -2788 2665 0 0 -5262 3607 -2165 0 7427 3609 0 0 2788 -3609 0 0 12464c0,1031 62,1695 192,1988 123,294 328,526 615,704 287,171 696,260 1230,260 396,0 922,-48 1572,-144z"/>
   <path id="8" fill="#373435" fill-rule="nonzero" d="M187651 38274l0 -3444 12422 0 0 10879c-1906,1516 -3874,2664 -5904,3430 -2029,765 -4113,1148 -6245,1148 -2884,0 -5500,-615 -7858,-1852 -2351,-1230 -4134,-3021 -5330,-5351 -1202,-2336 -1804,-4947 -1804,-7823 0,-2857 594,-5522 1790,-8002 1196,-2474 2911,-4312 5153,-5508 2241,-1203 4824,-1803 7748,-1803 2118,0 4039,341 5754,1031 1715,691 3062,1647 4031,2870 977,1230 1715,2836 2221,4810l-3505 957c-445,-1489 -991,-2665 -1640,-3526 -657,-853 -1585,-1537 -2802,-2049 -1209,-513 -2556,-772 -4038,-772 -1770,0 -3301,273 -4599,812 -1292,541 -2330,1251 -3130,2140 -792,881 -1407,1851 -1845,2903 -744,1825 -1120,3793 -1120,5918 0,2623 451,4817 1346,6587 903,1763 2214,3075 3929,3929 1722,855 3547,1285 5481,1285 1680,0 3321,-329 4920,-978 1599,-655 2807,-1346 3634,-2091l0 -5500 -8609 0z"/>
   <path id="9" fill="#373435" fill-rule="nonzero" d="M205355 24539l0 -4099 3608 0 0 4099 -3608 0zm0 25256l0 -21279 3608 0 0 21279 -3608 0z"/>
   <path id="10" fill="#373435" fill-rule="nonzero" d="M222295 46576l492 3185c-1012,211 -1920,320 -2713,320 -1305,0 -2316,-204 -3041,-622 -717,-416 -1223,-955 -1516,-1632 -295,-676 -438,-2098 -438,-4265l0 -12258 -2665 0 0 -2788 2665 0 0 -5262 3608 -2165 0 7427 3608 0 0 2788 -3608 0 0 12464c0,1031 62,1695 191,1988 123,294 328,526 615,704 287,171 697,260 1230,260 396,0 922,-48 1572,-144z"/>
   <polygon id="11" fill="#373435" fill-rule="nonzero" points="226880,49795 226880,45695 230980,45695 230980,49795 "/>
   <path id="12" fill="#373435" fill-rule="nonzero" d="M251145 42005l3527 492c-391,2425 -1375,4319 -2967,5692 -1592,1373 -3552,2057 -5869,2057 -2904,0 -5241,-950 -7004,-2849 -1770,-1901 -2652,-4620 -2652,-8160 0,-2295 383,-4298 1142,-6020 758,-1715 1913,-3006 3471,-3860 1551,-861 3239,-1291 5070,-1291 2303,0 4196,580 5658,1749 1469,1168 2413,2829 2822,4974l-3484 533c-335,-1428 -923,-2501 -1778,-3225 -847,-718 -1872,-1080 -3074,-1080 -1818,0 -3294,650 -4435,1947 -1134,1306 -1702,3356 -1702,6170 0,2858 547,4927 1641,6219 1100,1291 2528,1941 4283,1941 1422,0 2605,-431 3547,-1299 950,-861 1552,-2193 1804,-3990z"/>
   <path id="13" fill="#373435" fill-rule="nonzero" d="M256393 39156c0,-3929 1094,-6841 3288,-8733 1824,-1572 4058,-2357 6689,-2357 2918,0 5309,956 7168,2869 1851,1906 2781,4551 2781,7920 0,2733 -411,4879 -1230,6443 -820,1565 -2016,2781 -3587,3649 -1565,868 -3280,1299 -5132,1299 -2979,0 -5385,-950 -7223,-2857 -1838,-1906 -2754,-4653 -2754,-8233zm3690 7c0,2719 595,4755 1783,6101 1196,1353 2693,2030 4504,2030 1791,0 3280,-677 4475,-2037 1190,-1360 1784,-3430 1784,-6211 0,-2624 -601,-4613 -1797,-5959 -1195,-1353 -2686,-2029 -4462,-2029 -1811,0 -3308,670 -4504,2016 -1188,1346 -1783,3376 -1783,6089z"/>
   <path id="14" fill="#373435" fill-rule="nonzero" d="M280548 49795l0 -21279 3239 0 0 3007c663,-1039 1552,-1880 2659,-2508 1107,-636 2364,-949 3779,-949 1570,0 2862,327 3867,976 1004,657 1715,1565 2125,2741 1694,-2481 3888,-3717 6594,-3717 2118,0 3751,580 4885,1749 1142,1168 1715,2965 1715,5391l0 14589 -3607 0 0 -13394c0,-1434 -123,-2473 -356,-3108 -232,-636 -656,-1141 -1277,-1531 -615,-390 -1340,-581 -2167,-581 -1503,0 -2746,499 -3737,1490 -991,997 -1483,2590 -1483,4776l0 12348 -3607 0 0 -13810c0,-1599 -295,-2802 -883,-3601 -587,-800 -1550,-1203 -2883,-1203 -1011,0 -1948,267 -2809,799 -861,534 -1482,1313 -1872,2344 -382,1026 -574,2508 -574,4441l0 11030 -3608 0z"/>
   <polygon id="15" fill="#373435" fill-rule="nonzero" points="311994,50287 320522,19948 323426,19948 314899,50287 "/>
   <path id="16" fill="#373435" fill-rule="nonzero" d="M339990 42005l3526 492c-390,2425 -1374,4319 -2966,5692 -1592,1373 -3553,2057 -5869,2057 -2905,0 -5242,-950 -7004,-2849 -1771,-1901 -2652,-4620 -2652,-8160 0,-2295 383,-4298 1142,-6020 758,-1715 1913,-3006 3471,-3860 1551,-861 3239,-1291 5070,-1291 2303,0 4195,580 5658,1749 1469,1168 2412,2829 2822,4974l-3485 533c-335,-1428 -923,-2501 -1777,-3225 -847,-718 -1872,-1080 -3075,-1080 -1818,0 -3293,650 -4434,1947 -1134,1306 -1702,3356 -1702,6170 0,2858 547,4927 1641,6219 1100,1291 2527,1941 4283,1941 1422,0 2604,-431 3547,-1299 950,-861 1551,-2193 1804,-3990z"/>
   <path id="17" fill="#373435" fill-rule="nonzero" d="M346591 49795l0 -29355 3608 0 0 10563c1674,-1961 3786,-2937 6342,-2937 1564,0 2924,307 4086,928 1154,622 1981,1476 2480,2570 499,1093 745,2685 745,4763l0 13468 -3608 0 0 -13455c0,-1797 -389,-3109 -1162,-3929 -779,-820 -1872,-1230 -3293,-1230 -1060,0 -2057,273 -2994,827 -935,553 -1599,1305 -2001,2255 -397,943 -595,2248 -595,3916l0 11616 -3608 0z"/>
   <path id="18" fill="#373435" fill-rule="nonzero" d="M369393 24539l0 -4099 3608 0 0 4099 -3608 0zm0 25256l0 -21279 3608 0 0 21279 -3608 0z"/>
   <path id="19" fill="#373435" fill-rule="nonzero" d="M386333 46576l492 3185c-1012,211 -1920,320 -2713,320 -1305,0 -2316,-204 -3041,-622 -717,-416 -1223,-955 -1516,-1632 -295,-676 -438,-2098 -438,-4265l0 -12258 -2665 0 0 -2788 2665 0 0 -5262 3607 -2165 0 7427 3609 0 0 2788 -3609 0 0 12464c0,1031 62,1695 192,1988 123,294 328,526 615,704 287,171 697,260 1230,260 396,0 922,-48 1572,-144z"/>
   <path id="20" fill="#373435" fill-rule="nonzero" d="M390344 49795l0 -29355 11084 0c1946,0 3437,95 4468,280 1442,239 2651,697 3628,1366 978,676 1764,1620 2359,2829 593,1210 888,2542 888,3997 0,2488 -793,4599 -2386,6321 -1584,1729 -4461,2590 -8616,2590l-7530 0 0 11972 -3895 0zm3895 -15416l7585 0c2514,0 4291,-465 5350,-1401 1053,-936 1578,-2248 1578,-3950 0,-1223 -307,-2275 -928,-3149 -622,-875 -1442,-1456 -2453,-1736 -657,-171 -1866,-259 -3623,-259l-7509 0 0 10495z"/>
   <path id="21" fill="#373435" fill-rule="nonzero" d="M417199 49795l0 -21279 3238 0 0 3260c827,-1511 1592,-2508 2296,-2987 704,-485 1476,-723 2316,-723 1217,0 2453,382 3711,1141l-1285 3327c-874,-492 -1749,-738 -2623,-738 -787,0 -1490,240 -2112,711 -622,471 -1066,1127 -1332,1968 -403,1278 -602,2678 -602,4202l0 11118 -3607 0z"/>
   <path id="22" fill="#373435" fill-rule="nonzero" d="M445406 42907l3730 492c-581,2166 -1666,3853 -3252,5049 -1585,1196 -3608,1798 -6075,1798 -3102,0 -5562,-957 -7380,-2871 -1817,-1906 -2726,-4591 -2726,-8042 0,-3567 916,-6341 2754,-8309 1838,-1974 4223,-2958 7154,-2958 2836,0 5153,962 6949,2896 1798,1934 2699,4654 2699,8159 0,212 -6,534 -20,957l-15846 0c136,2330 793,4121 1981,5357 1183,1237 2665,1859 4435,1859 1319,0 2446,-349 3376,-1046 936,-696 1673,-1811 2221,-3341zm-11808 -5781l11848 0c-157,-1790 -615,-3129 -1359,-4025 -1141,-1387 -2631,-2084 -4455,-2084 -1654,0 -3041,554 -4169,1661 -1120,1107 -1742,2589 -1865,4448z"/>
   <path id="23" fill="#373435" fill-rule="nonzero" d="M459509 49795l-8029 -21279 3860 0 4551 12744c492,1374 950,2801 1367,4284 321,-1121 766,-2467 1346,-4044l4729 -12984 3704 0 -8057 21279 -3471 0z"/>
   <path id="24" fill="#373435" fill-rule="nonzero" d="M474194 24539l0 -4099 3607 0 0 4099 -3607 0zm0 25256l0 -21279 3607 0 0 21279 -3607 0z"/>
   <path id="25" fill="#373435" fill-rule="nonzero" d="M497816 42907l3731 492c-581,2166 -1667,3853 -3252,5049 -1586,1196 -3609,1798 -6076,1798 -3102,0 -5562,-957 -7380,-2871 -1816,-1906 -2726,-4591 -2726,-8042 0,-3567 916,-6341 2755,-8309 1838,-1974 4222,-2958 7154,-2958 2835,0 5152,962 6949,2896 1797,1934 2699,4654 2699,8159 0,212 -7,534 -21,957l-15846 0c137,2330 793,4121 1982,5357 1182,1237 2665,1859 4434,1859 1319,0 2447,-349 3376,-1046 936,-696 1674,-1811 2221,-3341zm-11808 -5781l11849 0c-157,-1790 -615,-3129 -1360,-4025 -1141,-1387 -2630,-2084 -4455,-2084 -1653,0 -3041,554 -4168,1661 -1121,1107 -1743,2589 -1866,4448z"/>
   <path id="26" fill="#373435" fill-rule="nonzero" d="M509931 49795l-6430 -21279 3771 0 3397 12279 1203 4572c47,-226 416,-1688 1100,-4388l3368 -12463 3697 0 3205 12355 1046 4051 1223 -4106 3675 -12300 3506 0 -6676 21279 -3731 0 -3375 -12730 -854 -3643 -4305 16373 -3820 0z"/>
   <polygon id="27" fill="#373435" fill-rule="nonzero" points="533006,50287 541534,19948 544438,19948 535910,50287 "/>
   <path id="28" fill="#ED3237" fill-rule="nonzero" d="M555966 49795l11344 -15232 -9991 -14123 4626 0 5350 7509c1115,1558 1887,2747 2330,3574 664,-1025 1442,-2119 2337,-3273l5864 -7810 4257 0 -10195 13953 10974 15402 -4770 0 -7407 -10469c-423,-594 -827,-1189 -1203,-1776 -656,984 -1121,1674 -1407,2063l-7442 10182 -4667 0z"/>
   <path id="29" fill="#ED3237" fill-rule="nonzero" d="M594567 49795l0 -12437 -11316 -16918 4674 0 5801 8883c1080,1646 2084,3293 2999,4940 896,-1538 1982,-3260 3247,-5173l5685 -8650 4530 0 -11726 16918 0 12437 -3894 0z"/>
   <path id="30" fill="#ED3237" fill-rule="nonzero" d="M611301 49795l0 -3588 15033 -18818c1080,-1326 2091,-2494 3055,-3505l-16366 0 0 -3444 20991 0 0 3444 -16488 20362 -1763 2105 18743 0 0 3444 -23205 0z"/>
   <ellipse fill="none" stroke="#ED3237" stroke-width="1708.41" cx="595562" cy="34187" rx="60159" ry="33333"/>
  </g>
 </g>
</svg>
