<?xml version="1.0" encoding="UTF-8"?>
<!DOCTYPE svg PUBLIC "-//W3C//DTD SVG 1.1//EN" "http://www.w3.org/Graphics/SVG/1.1/DTD/svg11.dtd">
<!-- Creator: CorelDRAW X8 -->
<svg xmlns="http://www.w3.org/2000/svg" xml:space="preserve" width="519px" height="135px" version="1.1" style="shape-rendering:geometricPrecision; text-rendering:geometricPrecision; image-rendering:optimizeQuality; fill-rule:evenodd; clip-rule:evenodd"
viewBox="0 0 418194 109151"
 xmlns:xlink="http://www.w3.org/1999/xlink">
 <defs>
  <style type="text/css">
   <![CDATA[
    .str0 {stroke:#F58634;stroke-width:1611.02}
    .fil1 {fill:none}
    .fil2 {fill:#F58634}
    .fil0 {fill:#F58634;fill-rule:nonzero}
   ]]>
  </style>
    <clipPath id="id0">
     <path d="M31165 16255l43062 0 0 73744 -43062 0 0 -73744z"/>
    </clipPath>
    <clipPath id="id1">
     <path d="M61071 22602l40159 0 0 68851 -40159 0 0 -68851z"/>
    </clipPath>
 </defs>
 <g id="card_x0020_content">
  <metadata id="CorelCorpID_0Corel-Layer"/>
  <path class="fil0" d="M180373 73623c-3976,1845 -8938,2768 -14875,2768 -7668,0 -13798,-2161 -18402,-6492 -4616,-4332 -6923,-10015 -6923,-17047 0,-7549 2602,-13660 7783,-18317 5180,-4670 11759,-6999 19722,-6999 5104,0 9336,652 12695,1947l0 5907c-3860,-1891 -8117,-2836 -12772,-2836 -6181,0 -11196,1812 -15042,5435 -3846,3623 -5770,8473 -5770,14537 0,5761 1795,10352 5385,13761 3604,3421 8310,5131 14157,5131 5399,0 10093,-1058 14042,-3162l0 5367zm42086 1981l-6168 0 0 -19454c0,-7033 -2976,-10544 -8938,-10544 -3001,0 -5539,1014 -7592,3050 -2051,2036 -3077,4646 -3077,7830l0 19118 -6167 0 0 -49970 6167 0 0 21818 154 0c2950,-4265 7155,-6392 12618,-6392 8668,0 13003,4580 13003,13739l0 20805zm14758 -42329c-1090,0 -2038,-327 -2807,-991 -782,-652 -1167,-1484 -1167,-2498 0,-1012 385,-1856 1167,-2520 769,-675 1717,-1013 2807,-1013 1130,0 2092,338 2886,1013 782,664 1180,1508 1180,2520 0,968 -398,1789 -1180,2465 -794,686 -1756,1024 -2886,1024zm3015 42329l-6169 0 0 -33756 6169 0 0 33756zm45151 -42262l-15556 0 0 42262 -6309 0 0 -42262 -15516 0 0 -5007 37381 0 0 5007zm69810 39032c-5398,2679 -11413,4017 -18029,4017 -7682,0 -13902,-2171 -18646,-6525 -4757,-4344 -7130,-10105 -7130,-17272 0,-7314 2642,-13323 7912,-18015 5271,-4691 11952,-7043 20044,-7043 5859,0 10783,844 14759,2509l0 6133c-4347,-2420 -9515,-3624 -15478,-3624 -6027,0 -10977,1824 -14837,5469 -3859,3645 -5783,8371 -5783,14177 0,5974 1794,10678 5372,14087 3578,3421 8439,5131 14581,5131 4206,0 7848,-743 10925,-2205l0 -13255 -11796 0 0 -5007 18106 0 0 21423zm14836 -39099c-1090,0 -2039,-327 -2808,-991 -782,-652 -1167,-1484 -1167,-2498 0,-1012 385,-1856 1167,-2520 769,-675 1718,-1013 2808,-1013 1129,0 2091,338 2885,1013 783,664 1180,1508 1180,2520 0,968 -397,1789 -1180,2465 -794,686 -1756,1024 -2885,1024zm3014 42329l-6168 0 0 -33756 6168 0 0 33756zm45151 -42262l-15554 0 0 42262 -6310 0 0 -42262 -15516 0 0 -5007 37380 0 0 5007z"/>
  <path class="fil1 str0" d="M54576 806c29695,0 53769,24074 53769,53770 0,29696 -24074,53769 -53769,53769 -29696,0 -53770,-24073 -53770,-53769 0,-29696 24074,-53770 53770,-53770z"/>
  <path class="fil1" d="M51898 6210c25984,0 47048,21064 47048,47049 0,25983 -21064,47048 -47048,47048 -25985,0 -47049,-21065 -47049,-47048 0,-25985 21064,-47049 47049,-47049z"/>
  <g id="_1689265325568">
   <g style="clip-path:url(#id0)">
    <image x="31165" y="16255" width="43062" height="73744" xlink:href="logo_header_for_white_background_Images\logo_header_for_white_background_ImgID1.png"/>
   </g>
  </g>
  <path class="fil2" d="M50328 21223c2324,5708 4001,11779 6325,17489 1293,161 1780,-2089 1678,-5910 3027,2894 4598,8062 6066,13387 8204,15198 5690,27299 -5034,37029 -4389,2401 -8776,2264 -13165,482 -9782,-6920 -14302,-19685 -4904,-37630 804,-3408 1730,-6806 3742,-10132 622,2699 1354,5110 2840,5548 602,-6635 1849,-13630 2452,-20263z"/>
  <path class="fil2" d="M32326 26090c2180,4490 3505,7829 6504,9403 -3928,7325 -7341,14649 -11268,21975 3005,6122 5496,12245 8502,18368 -2630,3280 -5261,6559 -7890,9839 -7035,-8419 -13202,-19357 -20237,-27776 8026,-11442 16363,-20365 24389,-31809z"/>
  <g id="_1654548613136">
   <g style="clip-path:url(#id1)">
    <image x="61071" y="22602" width="40159" height="68851" xlink:href="logo_header_for_white_background_Images\logo_header_for_white_background_ImgID2.png"/>
   </g>
  </g>
  <path class="fil2" d="M72207 27235c-2180,4490 -3503,7829 -6503,9403 3927,7325 7734,14649 11661,21974 -3005,6123 -5889,12245 -8894,18367 2629,3281 5259,6561 7888,9841 7036,-8419 13203,-19357 20238,-27776 -8025,-11443 -16364,-20366 -24390,-31809z"/>
  <path class="fil2" d="M39250 37276c1469,-1494 2544,-2989 4012,-4483 0,-5357 0,-10715 0,-16071 -10744,-2836 -16686,12187 -4012,20554z"/>
  <path class="fil2" d="M65632 37368c-1468,-1494 -2544,-2989 -4012,-4483 0,-5357 0,-10714 0,-16072 10743,-2834 16687,12188 4012,20555z"/>
 </g>
</svg>
