<?xml version="1.0" encoding="UTF-8"?>
<!DOCTYPE svg PUBLIC "-//W3C//DTD SVG 1.1//EN" "http://www.w3.org/Graphics/SVG/1.1/DTD/svg11.dtd">
<!-- Creator: CorelDRAW X8 -->
<svg xmlns="http://www.w3.org/2000/svg" xml:space="preserve" width="595px" height="175px" version="1.1" style="shape-rendering:geometricPrecision; text-rendering:geometricPrecision; image-rendering:optimizeQuality; fill-rule:evenodd; clip-rule:evenodd"
viewBox="0 0 197413 58059"
 xmlns:xlink="http://www.w3.org/1999/xlink">
 <defs>
  <style type="text/css">
   <![CDATA[
    .str0 {stroke:#FADAC1;stroke-width:663.344}
    .fil3 {fill:none}
    .fil1 {fill:#4B4B4D}
    .fil4 {fill:#FADAC1}
    .fil0 {fill:#2F2F30}
    .fil2 {fill:white;fill-rule:nonzero}
   ]]>
  </style>
     <clipPath id="id0">
      <path d="M22482 12753l17730 0 0 30366 -17730 0 0 -30366z"/>
     </clipPath>
     <clipPath id="id1">
      <path d="M34795 15367l16537 0 0 28350 -16537 0 0 -28350z"/>
     </clipPath>
 </defs>
 <g id="card_x0020_content">
  <metadata id="CorelCorpID_0Corel-Layer"/>
  <g id="_1920589702128">
   <polygon class="fil0" points="82250,0 63241,27456 83416,58059 0,58059 0,0 "/>
   <polygon class="fil1" points="82250,0 63241,27456 83416,58059 197413,58059 197024,0 "/>
   <path class="fil2" d="M93211 37001c-1637,760 -3681,1140 -6125,1140 -3158,0 -5682,-890 -7577,-2673 -1901,-1784 -2851,-4124 -2851,-7019 0,-3109 1072,-5625 3205,-7543 2133,-1922 4842,-2881 8120,-2881 2102,0 3844,268 5228,801l0 2433c-1590,-779 -3343,-1168 -5259,-1168 -2545,0 -4610,746 -6194,2238 -1584,1492 -2376,3489 -2376,5986 0,2372 739,4262 2217,5666 1485,1408 3422,2112 5830,2112 2223,0 4156,-435 5782,-1301l0 2209zm17329 816l-2540 0 0 -8010c0,-2896 -1225,-4342 -3680,-4342 -1236,0 -2281,418 -3126,1256 -845,839 -1267,1913 -1267,3224l0 7872 -2540 0 0 -20575 2540 0 0 8983 63 0c1215,-1756 2946,-2631 5196,-2631 3569,0 5354,1885 5354,5657l0 8566zm6076 -17429c-448,0 -839,-135 -1155,-408 -322,-269 -481,-611 -481,-1029 0,-417 159,-764 481,-1037 316,-278 707,-417 1155,-417 466,0 862,139 1189,417 322,273 486,620 486,1037 0,399 -164,737 -486,1015 -327,283 -723,422 -1189,422zm1242 17429l-2540 0 0 -13899 2540 0 0 13899zm18591 -17401l-6405 0 0 17401 -2598 0 0 -17401 -6389 0 0 -2062 15392 0 0 2062zm28745 16071c-2223,1103 -4700,1654 -7424,1654 -3163,0 -5724,-894 -7678,-2687 -1958,-1788 -2935,-4160 -2935,-7112 0,-3011 1088,-5485 3257,-7417 2171,-1932 4922,-2900 8254,-2900 2412,0 4440,347 6077,1033l0 2525c-1790,-996 -3918,-1492 -6373,-1492 -2482,0 -4520,751 -6109,2252 -1590,1501 -2382,3447 -2382,5837 0,2460 739,4397 2212,5801 1474,1408 3475,2112 6004,2112 1732,0 3231,-305 4499,-908l0 -5457 -4858 0 0 -2062 7456 0 0 8821zm6109 -16099c-450,0 -840,-135 -1157,-408 -322,-269 -480,-611 -480,-1029 0,-417 158,-764 480,-1037 317,-278 707,-417 1157,-417 464,0 860,139 1187,417 323,273 486,620 486,1037 0,399 -163,737 -486,1015 -327,283 -723,422 -1187,422zm1240 17429l-2539 0 0 -13899 2539 0 0 13899zm18592 -17401l-6405 0 0 17401 -2598 0 0 -17401 -6389 0 0 -2062 15392 0 0 2062z"/>
   <path class="fil3 str0" d="M32121 6392c12227,0 22140,9913 22140,22140 0,12228 -9913,22140 -22140,22140 -12227,0 -22140,-9912 -22140,-22140 0,-12227 9913,-22140 22140,-22140z"/>
   <path class="fil3" d="M31018 8618c10699,0 19373,8673 19373,19372 0,10699 -8674,19373 -19373,19373 -10699,0 -19372,-8674 -19372,-19373 0,-10699 8673,-19372 19372,-19372z"/>
   <g>
    <g style="clip-path:url(#id0)">
     <image x="22482" y="12753" width="17731" height="30365" xlink:href="28496-logo_header-4bc3cbbe-fd10-49f2-968b-6b2c3ee30a6f_Images\28496-logo_header-4bc3cbbe-fd10-49f2-968b-6b2c3ee30a6f_ImgID1.png"/>
    </g>
   </g>
   <path class="fil4" d="M30372 14799c957,2351 1648,4851 2604,7201 533,67 733,-860 691,-2433 1247,1192 1893,3320 2498,5512 3378,6258 2343,11241 -2073,15247 -1807,989 -3613,932 -5421,199 -4027,-2850 -5888,-8106 -2019,-15495 331,-1403 712,-2802 1541,-4172 256,1111 558,2104 1169,2285 248,-2732 762,-5612 1010,-8344z"/>
   <path class="fil4" d="M22960 16803c897,1849 1443,3224 2678,3872 -1618,3016 -3023,6032 -4640,9049 1238,2520 2263,5041 3501,7562 -1083,1351 -2166,2701 -3249,4052 -2897,-3467 -5436,-7971 -8333,-11437 3305,-4712 6738,-8386 10043,-13098z"/>
   <g>
    <g style="clip-path:url(#id1)">
     <image x="34795" y="15367" width="16537" height="28350" xlink:href="28496-logo_header-4bc3cbbe-fd10-49f2-968b-6b2c3ee30a6f_Images\28496-logo_header-4bc3cbbe-fd10-49f2-968b-6b2c3ee30a6f_ImgID2.png"/>
    </g>
   </g>
   <path class="fil4" d="M39381 17275c-898,1848 -1443,3223 -2678,3871 1617,3016 3185,6032 4802,9048 -1238,2521 -2425,5042 -3663,7563 1083,1351 2166,2701 3248,4052 2898,-3466 5437,-7970 8334,-11437 -3305,-4712 -6738,-8386 -10043,-13097z"/>
   <path class="fil4" d="M25810 21409c605,-615 1048,-1231 1653,-1846 0,-2206 0,-4411 0,-6617 -4424,-1168 -6871,5018 -1653,8463z"/>
   <path class="fil4" d="M36674 21447c-605,-615 -1048,-1230 -1652,-1846 0,-2206 0,-4411 0,-6617 4423,-1168 6871,5018 1652,8463z"/>
  </g>
 </g>
</svg>
