<?xml version="1.0" encoding="UTF-8"?>
<!DOCTYPE svg PUBLIC "-//W3C//DTD SVG 1.1//EN" "http://www.w3.org/Graphics/SVG/1.1/DTD/svg11.dtd">
<!-- Creator: CorelDRAW X8 -->
<svg xmlns="http://www.w3.org/2000/svg" xml:space="preserve" width="120px" height="96px" version="1.1" shape-rendering="geometricPrecision" text-rendering="geometricPrecision" image-rendering="optimizeQuality" fill-rule="evenodd" clip-rule="evenodd"
viewBox="0 0 36485 28991"
 xmlns:xlink="http://www.w3.org/1999/xlink">
 <g id="Layer_x0020_1">
  <metadata id="CorelCorpID_0Corel-Layer"/>
  <path fill="white" d="M17444 1997c957,2349 1647,4848 2603,7197 532,66 733,-859 691,-2432 1246,1191 1892,3318 2496,5509 3376,6254 2342,11234 -2071,15238 -1806,988 -3612,932 -5418,199 -4026,-2848 -5886,-8101 -2018,-15486 330,-1402 711,-2801 1540,-4170 256,1111 557,2103 1168,2283 248,-2729 761,-5608 1009,-8338z"/>
  <path fill="white" d="M10036 4000c897,1848 1443,3222 2677,3869 -1616,3015 -3021,6029 -4637,9044 1237,2519 2262,5039 3498,7558 -1082,1350 -2164,2700 -3246,4049 -2895,-3464 -5433,-7965 -8328,-11430 3303,-4709 6734,-8381 10036,-13090z"/>
  <path fill="white" d="M26448 4471c-897,1848 -1441,3222 -2676,3869 1616,3015 3183,6029 4799,9044 -1237,2519 -2424,5039 -3660,7558 1081,1350 2164,2699 3246,4049 2895,-3464 5433,-7965 8328,-11430 -3302,-4709 -6734,-8381 -10037,-13090z"/>
  <path fill="white" d="M12886 8603c604,-615 1046,-1230 1651,-1845 0,-2204 0,-4409 0,-6613 -4421,-1167 -6867,5015 -1651,8458z"/>
  <path fill="white" d="M23743 8641c-605,-615 -1047,-1230 -1652,-1844 0,-2205 0,-4410 0,-6614 4421,-1167 6867,5015 1652,8458z"/>
 </g>
</svg>
