<?xml version="1.0" encoding="UTF-8"?>
<!DOCTYPE svg PUBLIC "-//W3C//DTD SVG 1.1//EN" "http://www.w3.org/Graphics/SVG/1.1/DTD/svg11.dtd">
<!-- Creator: CorelDRAW X8 -->
<svg xmlns="http://www.w3.org/2000/svg" xml:space="preserve" width="515px" height="129px" version="1.1" style="shape-rendering:geometricPrecision; text-rendering:geometricPrecision; image-rendering:optimizeQuality; fill-rule:evenodd; clip-rule:evenodd"
viewBox="0 0 141066 35300"
 xmlns:xlink="http://www.w3.org/1999/xlink">
 <defs>
  <style type="text/css">
   <![CDATA[
    .str0 {stroke:#FADAC1;stroke-width:548.013}
    .fil1 {fill:none}
    .fil2 {fill:#FADAC1}
    .fil0 {fill:white;fill-rule:nonzero}
   ]]>
  </style>
    <clipPath id="id0">
     <path d="M10085 5266l13916 0 0 23831 -13916 0 0 -23831z"/>
    </clipPath>
    <clipPath id="id1">
     <path d="M19750 7317l12977 0 0 22250 -12977 0 0 -22250z"/>
    </clipPath>
 </defs>
 <g id="card_x0020_content">
  <metadata id="CorelCorpID_0Corel-Layer"/>
  <path class="fil0" d="M60167 24647c-1352,627 -3040,941 -5060,941 -2608,0 -4693,-735 -6259,-2208 -1570,-1474 -2355,-3407 -2355,-5799 0,-2568 885,-4647 2647,-6231 1762,-1588 4000,-2381 6709,-2381 1736,0 3176,222 4318,662l0 2010c-1312,-643 -2761,-965 -4344,-965 -2103,0 -3808,617 -5117,1849 -1308,1233 -1963,2882 -1963,4945 0,1960 611,3522 1832,4681 1226,1164 2827,1745 4816,1745 1836,0 3433,-359 4776,-1075l0 1826zm14317 673l-2098 0 0 -6617c0,-2392 -1013,-3587 -3041,-3587 -1020,0 -1884,345 -2582,1038 -698,692 -1047,1580 -1047,2663l0 6503 -2098 0 0 -16998 2098 0 0 7422 52 0c1004,-1451 2434,-2174 4293,-2174 2948,0 4423,1558 4423,4673l0 7077zm5020 -14399c-371,0 -693,-111 -955,-337 -266,-221 -397,-505 -397,-849 0,-345 131,-632 397,-857 262,-230 584,-345 955,-345 384,0 711,115 982,345 266,225 401,512 401,857 0,329 -135,608 -401,838 -271,234 -598,348 -982,348zm1025 14399l-2098 0 0 -11482 2098 0 0 11482zm15359 -14376l-5291 0 0 14376 -2146 0 0 -14376 -5278 0 0 -1703 12715 0 0 1703zm23747 13278c-1836,911 -3882,1366 -6133,1366 -2613,0 -4728,-738 -6342,-2220 -1618,-1477 -2425,-3437 -2425,-5875 0,-2488 898,-4532 2691,-6128 1793,-1596 4065,-2396 6818,-2396 1993,0 3668,287 5020,854l0 2086c-1478,-823 -3236,-1233 -5264,-1233 -2051,0 -3735,621 -5047,1861 -1313,1240 -1968,2847 -1968,4822 0,2032 611,3633 1828,4792 1217,1164 2870,1745 4960,1745 1430,0 2669,-252 3716,-750l0 -4508 -4013 0 0 -1704 6159 0 0 7288zm5047 -13301c-371,0 -694,-111 -955,-337 -266,-221 -397,-505 -397,-849 0,-345 131,-632 397,-857 261,-230 584,-345 955,-345 384,0 711,115 982,345 266,225 401,512 401,857 0,329 -135,608 -401,838 -271,234 -598,348 -982,348zm1025 14399l-2098 0 0 -11482 2098 0 0 11482zm15359 -14376l-5291 0 0 14376 -2146 0 0 -14376 -5278 0 0 -1703 12715 0 0 1703z"/>
  <path class="fil1 str0" d="M17650 274c9597,0 17376,7779 17376,17376 0,9597 -7779,17376 -17376,17376 -9597,0 -17376,-7779 -17376,-17376 0,-9597 7779,-17376 17376,-17376z"/>
  <path class="fil1" d="M16785 2020c8397,0 15204,6807 15204,15204 0,8397 -6807,15205 -15204,15205 -8397,0 -15204,-6808 -15204,-15205 0,-8397 6807,-15204 15204,-15204z"/>
  <g id="_2140157056496">
   <g style="clip-path:url(#id0)">
    <image x="10085" y="5266" width="13916" height="23831" xlink:href="19128-logo_header2-07a9e613-1f84-483e-96ed-c1e7d91974f8_Images\19128-logo_header2-07a9e613-1f84-483e-96ed-c1e7d91974f8_ImgID1.png"/>
   </g>
  </g>
  <path class="fil2" d="M16277 6872c751,1844 1293,3807 2044,5651 418,52 576,-675 543,-1909 978,935 1485,2605 1960,4326 2651,4911 1839,8822 -1627,11966 -1418,776 -2836,732 -4254,156 -3162,-2236 -4622,-6361 -1585,-12161 259,-1101 559,-2199 1209,-3274 201,872 438,1652 918,1793 194,-2144 598,-4404 792,-6548z"/>
  <path class="fil2" d="M10460 8445c705,1451 1132,2529 2102,3038 -1270,2368 -2372,4734 -3642,7102 972,1978 1776,3957 2748,5935 -850,1060 -1700,2120 -2550,3180 -2274,-2721 -4266,-6255 -6540,-8976 2594,-3698 5288,-6581 7882,-10279z"/>
  <g id="_2140157076752">
   <g style="clip-path:url(#id1)">
    <image x="19750" y="7317" width="12978" height="22250" xlink:href="19128-logo_header2-07a9e613-1f84-483e-96ed-c1e7d91974f8_Images\19128-logo_header2-07a9e613-1f84-483e-96ed-c1e7d91974f8_ImgID2.png"/>
   </g>
  </g>
  <path class="fil2" d="M23348 8814c-705,1452 -1133,2530 -2102,3039 1269,2367 2499,4734 3769,7102 -972,1978 -1904,3957 -2875,5935 850,1060 1700,2120 2550,3180 2273,-2721 4266,-6255 6540,-8976 -2594,-3698 -5289,-6581 -7882,-10280z"/>
  <path class="fil2" d="M12698 12060c474,-483 821,-966 1296,-1449 0,-1731 0,-3463 0,-5194 -3472,-916 -5392,3939 -1296,6643z"/>
  <path class="fil2" d="M21223 12089c-475,-483 -822,-966 -1296,-1448 0,-1732 0,-3463 0,-5194 3471,-916 5392,3938 1296,6642z"/>
 </g>
</svg>
