<?xml version="1.0" encoding="UTF-8"?>
<!DOCTYPE svg PUBLIC "-//W3C//DTD SVG 1.1//EN" "http://www.w3.org/Graphics/SVG/1.1/DTD/svg11.dtd">
<!-- Creator: CorelDRAW X8 -->
<svg xmlns="http://www.w3.org/2000/svg" xml:space="preserve" width="1599px" height="971px" version="1.1" shape-rendering="geometricPrecision" text-rendering="geometricPrecision" image-rendering="optimizeQuality" fill-rule="evenodd" clip-rule="evenodd"
viewBox="0 0 1576160 957260"
 xmlns:xlink="http://www.w3.org/1999/xlink">
 <g id="Layer_x0020_1">
  <metadata id="CorelCorpID_0Corel-Layer"/>
  <g id="_2542466177008">
   <g>
    <g>
     <path fill="#A49AED" d="M532992 475573l479959 0c-211,132359 -107571,239591 -239980,239591 -132408,0 -239768,-107232 -239979,-239591z"/>
     <path fill="#FEFEFE" fill-rule="nonzero" d="M633708 646465l27868 -35456 -13239 -10405 3703 -4712 31808 25000 -3704 4713 -13239 -10406 -27868 35454 -5329 -4188zm26918 18236l5057 -38354 5983 2704 -3419 21907 -1370 8113c238,-323 1871,-2377 4890,-6169l14278 -17350 5862 2650 -3774 21891 -1247 7175 4885 -5636 14647 -16870 5559 2513 -25842 28959 -5918 -2675 3774 -22609 1257 -6388 -18566 22877 -6056 -2738zm43348 -1504c1537,-6662 4530,-11170 8991,-13522 3709,-1951 7805,-2408 12266,-1378 4949,1142 8629,3699 11033,7671 2394,3959 2935,8807 1616,14520 -1069,4634 -2604,8112 -4608,10445 -2003,2333 -4507,3928 -7512,4783 -2994,861 -6069,919 -9210,193 -5052,-1166 -8759,-3718 -11131,-7670 -2370,-3952 -2847,-8969 -1445,-15042zm6254 1458c-1065,4612 -854,8297 636,11046 1498,2761 3770,4494 6841,5203 3036,701 5827,136 8387,-1702 2550,-1840 4367,-5118 5455,-9834 1028,-4450 786,-8058 -713,-10808 -1500,-2763 -3760,-4493 -6774,-5189 -3070,-709 -5870,-159 -8425,1657 -2543,1817 -4345,5026 -5407,9627zm51559 26343l-3870 -50943 19234 -1462c3379,-256 5977,-287 7792,-102 2533,226 4694,859 6478,1893 1785,1045 3271,2578 4463,4599 1191,2020 1877,4293 2069,6819 328,4316 -770,8086 -3305,11283 -2522,3210 -7402,5083 -14613,5631l-13066 993 1578 20775 -6760 514zm4728 -27265l13162 -1001c4364,-331 7386,-1372 9100,-3136 1704,-1764 2443,-4110 2218,-7062 -160,-2123 -833,-3909 -2028,-5345 -1194,-1434 -2693,-2335 -4486,-2687 -1160,-211 -3271,-206 -6317,26l-13033 990 1384 18215zm63920 11758c-1699,2547 -3481,4499 -5329,5877 -1846,1378 -3954,2396 -6335,3071 -3912,1112 -7190,1017 -9838,-295 -2644,-1303 -4388,-3440 -5230,-6403 -493,-1739 -545,-3443 -165,-5109 391,-1668 1108,-3108 2142,-4341 1047,-1237 2299,-2309 3786,-3214 1102,-646 2813,-1454 5119,-2430 4712,-1956 8117,-3678 10189,-5132 -210,-828 -349,-1358 -411,-1576 -694,-2449 -1757,-4014 -3187,-4695 -1931,-923 -4422,-945 -7465,-81 -2848,809 -4811,1910 -5877,3289 -1079,1381 -1574,3427 -1506,6152l-6137 852c-180,-2682 119,-4979 913,-6886 794,-1907 2240,-3604 4334,-5112 2085,-1495 4677,-2688 7743,-3559 3042,-864 5625,-1215 7740,-1036 2105,182 3764,674 4965,1507 1201,833 2221,2027 3058,3584 487,973 1116,2797 1873,5464l2275 8007c1589,5595 2717,9093 3395,10521 665,1430 1575,2717 2698,3881l-6317 1794c-966,-1098 -1777,-2475 -2433,-4130zm-4281 -13248c-1943,1515 -5024,3207 -9242,5072 -2393,1062 -4040,1963 -4944,2701 -903,740 -1507,1615 -1826,2621 -318,1017 -334,2047 -35,3100 452,1590 1438,2756 2964,3473 1526,717 3463,748 5809,82 2322,-660 4250,-1752 5780,-3286 1522,-1521 2467,-3284 2816,-5275 267,-1547 18,-3640 -732,-6282l-590 -2206zm20231 12276l-15255 -33745 5137 -2323 2338 5170c228,-2988 726,-5118 1499,-6382 770,-1274 1822,-2207 3156,-2808 1928,-872 4164,-1153 6702,-851l348 6198c-1740,-154 -3303,84 -4690,712 -1246,562 -2192,1445 -2840,2639 -648,1194 -882,2552 -703,4076 278,2317 968,4680 2059,7096l7971 17631 -5722 2587zm33354 -24216l3506 4377c-1342,1198 -2619,2150 -3815,2838 -1968,1132 -3673,1700 -5128,1699 -1443,-6 -2675,-382 -3705,-1146 -1030,-768 -2479,-2787 -4358,-6055l-10636 -18495 -4021 2312 -2418 -4206 4020 -2311 -4565 -7939 3564 -6398 6444 11206 5443 -3130 2419 4206 -5443 3130 10813 18804c895,1557 1563,2503 2014,2834 441,338 952,510 1540,529 581,9 1276,-213 2080,-676 597,-343 1350,-873 2246,-1579zm19707 11039l-4147 -4122c1314,-564 2365,-1149 3170,-1781 1103,-868 1835,-1745 2203,-2623 377,-887 516,-1828 422,-2812 -81,-738 -539,-2361 -1390,-4867 -119,-345 -295,-858 -509,-1552l-34007 -20525 5273 -4144 19290 12035c2463,1498 4927,3190 7406,5055 -1171,-2664 -2218,-5382 -3122,-8150l-7136 -21859 4927 -3873 12274 38271c1319,4121 2112,7037 2397,8766 392,2307 316,4289 -221,5935 -545,1655 -1608,3093 -3178,4328 -953,750 -2174,1392 -3652,1918z"/>
    </g>
    <g>
     <path fill="#A49AED" d="M531098 463925l479959 0c0,-132537 -107442,-239979 -239980,-239979 -132537,0 -239979,107442 -239979,239979z"/>
     <path fill="#FEFEFE" fill-rule="nonzero" d="M653122 338323l-33667 -38429 14496 -12701c2547,-2232 4603,-3824 6167,-4753 2162,-1342 4271,-2126 6318,-2362 2047,-235 4151,99 6321,1004 2181,907 4099,2322 5763,4224 2869,3265 4250,6949 4151,11028 -98,4091 -2862,8508 -8293,13266l-9854 8641 13682 15621 -5084 4461zm-12577 -24615l9939 -8700c3277,-2880 5079,-5545 5392,-7970 302,-2435 -515,-4760 -2465,-6984 -1404,-1603 -3014,-2624 -4831,-3052 -1817,-440 -3544,-261 -5201,538 -1050,527 -2736,1800 -5043,3819l-9820 8619 12029 13730z"/>
     <path id="1" fill="#FEFEFE" fill-rule="nonzero" d="M706828 287258l6234 -1958c636,3874 132,7325 -1518,10378 -1649,3040 -4419,5457 -8335,7238 -4923,2249 -9513,2511 -13779,796 -4267,-1726 -7651,-5324 -10141,-10794 -2586,-5659 -3134,-10723 -1636,-15178 1487,-4456 4563,-7742 9213,-9859 4498,-2057 8874,-2198 13116,-436 4256,1763 7651,5432 10176,10983 158,345 374,856 663,1544l-25106 11438c1899,3595 4229,5960 7007,7064 2776,1103 5570,1018 8381,-258 2101,-948 3628,-2313 4606,-4090 977,-1777 1358,-4063 1119,-6868zm-22934 -690l18794 -8565c-1536,-2714 -3222,-4514 -5057,-5385 -2814,-1377 -5668,-1398 -8563,-74 -2623,1191 -4432,3067 -5418,5641 -986,2561 -901,5356 244,8383z"/>
     <path id="2" fill="#FEFEFE" fill-rule="nonzero" d="M725716 293515l-10692 -35413 5400 -1631 1620 5376c621,-2930 1392,-4969 2311,-6129 932,-1149 2091,-1941 3493,-2356 2016,-609 4276,-589 6755,71l-384 6188c-1728,-428 -3334,-416 -4794,33 -1317,390 -2369,1147 -3183,2247 -800,1100 -1220,2422 -1244,3958 -20,2342 354,4765 1121,7305l5590 18537 -5993 1814z"/>
     <path id="3" fill="#FEFEFE" fill-rule="nonzero" d="M745618 276532l6105 -1473c548,2447 1664,4273 3361,5463 1694,1192 3957,1667 6809,1438 2865,-230 4955,-979 6243,-2259 1302,-1293 1888,-2712 1760,-4291 -114,-1415 -821,-2469 -2111,-3187 -906,-483 -3097,-1018 -6561,-1593 -4678,-795 -7941,-1538 -9777,-2241 -1835,-703 -3279,-1753 -4311,-3175 -1030,-1422 -1622,-3035 -1775,-4842 -128,-1641 126,-3188 759,-4654 646,-1468 1579,-2708 2797,-3738 912,-790 2192,-1510 3830,-2139 1638,-639 3419,-1029 5333,-1184 2901,-241 5471,-30 7721,636 2264,653 3958,1654 5120,2991 1160,1338 2028,3189 2611,5540l-6034 1318c-437,-1877 -1362,-3286 -2782,-4242 -1409,-956 -3338,-1336 -5762,-1145 -2878,230 -4884,873 -6032,1924 -1147,1042 -1676,2210 -1574,3483 64,808 377,1519 941,2123 562,626 1409,1122 2528,1472 644,175 2525,569 5656,1146 4512,831 7678,1539 9478,2159 1811,608 3268,1587 4381,2948 1114,1349 1754,3094 1932,5222 166,2080 -286,4093 -1345,6038 -1072,1932 -2717,3499 -4921,4689 -2206,1201 -4758,1905 -7660,2147 -4790,385 -8515,-321 -11190,-2101 -2674,-1794 -4510,-4614 -5530,-8473z"/>
     <path id="4" fill="#FEFEFE" fill-rule="nonzero" d="M785028 266896c992,-6776 3619,-11528 7872,-14240 3537,-2252 7582,-3039 12112,-2373 5029,737 8900,2983 11615,6759 2714,3765 3642,8548 2783,14373 -690,4707 -1934,8308 -3748,10801 -1802,2494 -4173,4294 -7090,5395 -2928,1097 -5985,1412 -9170,939 -5137,-750 -9032,-2994 -11710,-6747 -2679,-3752 -3571,-8726 -2664,-14907zm6385 942c-690,4684 -187,8348 1518,10980 1707,2633 4105,4173 7220,4632 3080,448 5804,-342 8199,-2393 2383,-2041 3939,-5461 4639,-10277 665,-4516 140,-8110 -1579,-10742 -1717,-2633 -4105,-4172 -7159,-4620 -3104,-460 -5841,331 -8236,2347 -2383,2028 -3913,5378 -4602,10073z"/>
     <path id="5" fill="#FEFEFE" fill-rule="nonzero" d="M823382 292925l12857 -34676 5292 1953 -1824 4936c3955,-2866 8338,-3405 13155,-1627 2086,784 3864,1867 5337,3273 1470,1393 2420,2864 2845,4407 414,1544 484,3219 209,5029 -183,1166 -778,3109 -1783,5826l-7908 21325 -5877 -2176 7814 -21097c889,-2397 1330,-4267 1310,-5623 -21,-1356 -480,-2600 -1380,-3748 -898,-1136 -2140,-1998 -3703,-2571 -2501,-935 -4964,-944 -7360,-26 -2409,918 -4439,3596 -6088,8030l-7020 18940 -5876 -2175z"/>
     <path id="6" fill="#FEFEFE" fill-rule="nonzero" d="M881956 319254c-3032,274 -5661,110 -7882,-468 -2222,-591 -4335,-1585 -6352,-3019 -3310,-2355 -5276,-4967 -5908,-7858 -632,-2880 -51,-5578 1742,-8093 1051,-1482 2339,-2584 3876,-3328 1549,-744 3120,-1107 4737,-1065 1605,29 3233,343 4861,932 1200,456 2897,1271 5094,2467 4474,2442 7928,4012 10365,4711 514,-688 837,-1115 979,-1305 1470,-2089 2036,-3894 1672,-5441 -480,-2084 -2008,-4038 -4581,-5867 -2409,-1709 -4487,-2549 -6223,-2519 -1748,29 -3655,915 -5718,2668l-4516 -4226c1969,-1825 3948,-3019 5923,-3594 1975,-576 4200,-522 6671,165 2470,698 5012,1957 7597,3809 2587,1829 4460,3618 5631,5358 1182,1752 1819,3360 1933,4812 103,1462 -188,2996 -883,4611 -445,985 -1485,2623 -3098,4888l-4839 6823c-3383,4745 -5404,7829 -6086,9243 -671,1412 -1105,2933 -1277,4538l-5338 -3789c219,-1438 759,-2923 1620,-4453zm7688 -11712c-2388,-567 -5630,-1899 -9726,-4006 -2314,-1186 -4037,-1904 -5177,-2146 -1141,-231 -2212,-163 -3200,238 -989,388 -1800,1028 -2433,1919 -968,1364 -1259,2861 -872,4504 387,1642 1571,3168 3552,4578 1970,1399 4036,2214 6175,2448 2153,221 4115,-153 5892,-1133 1369,-769 2849,-2273 4451,-4528l1338 -1874z"/>
     <polygon id="7" fill="#FEFEFE" fill-rule="nonzero" points="890701,333915 928538,299595 932756,304237 894919,338556 "/>
    </g>
    <path fill="#383459" fill-rule="nonzero" d="M689681 480273l17248 5298c-2648,9712 -7063,16919 -13223,21641 -6160,4703 -13963,7064 -23428,7064 -11724,0 -21355,-4005 -28911,-12012 -7535,-8008 -11313,-18951 -11313,-32853 0,-14681 3798,-26097 11375,-34228 7577,-8131 17555,-12196 29917,-12196 10800,0 19568,3202 26302,9588 4024,3779 7023,9199 9034,16283l-17617 4189c-1046,-4559 -3223,-8172 -6529,-10822 -3326,-2648 -7351,-3962 -12074,-3962 -6549,0 -11868,2341 -15932,7043 -4086,4681 -6120,12278 -6120,22791 0,11130 2013,19076 6016,23798 4025,4743 9240,7105 15667,7105 4743,0 8830,-1500 12238,-4518 3409,-3019 5872,-7741 7350,-14209z"/>
    <path id="1" fill="#383459" fill-rule="nonzero" d="M738734 424588l0 32689c5483,-6510 12053,-9774 19671,-9774 3921,0 7453,719 10595,2156 3142,1458 5503,3285 7104,5543 1602,2239 2691,4723 3266,7454 594,2731 882,6961 882,12690l0 37451 -16878 0 0 -33715c0,-6693 -328,-10943 -965,-12751 -656,-1807 -1807,-3244 -3449,-4291 -1643,-1067 -3696,-1601 -6181,-1601 -2834,0 -5359,677 -7597,2053 -2239,1355 -3860,3408 -4887,6160 -1048,2730 -1561,6796 -1561,12156l0 31989 -16878 0 0 -88209 16878 0z"/>
    <path id="2" fill="#383459" fill-rule="nonzero" d="M797356 440234l0 -15646 16878 0 0 15646 -16878 0zm0 72563l0 -63939 16878 0 0 63939 -16878 0z"/>
    <path id="3" fill="#383459" fill-rule="nonzero" d="M860782 448858l0 13428 -11581 0 0 25892c0,5257 103,8317 329,9179 225,862 719,1581 1520,2156 780,554 1724,842 2853,842 1582,0 3840,-535 6817,-1623l1418 13141c-3922,1685 -8357,2526 -13327,2526 -3039,0 -5770,-513 -8213,-1540 -2444,-1027 -4229,-2362 -5359,-3983 -1150,-1643 -1930,-3839 -2381,-6632 -349,-1972 -535,-5955 -535,-11971l0 -27987 -7762 0 0 -13428 7762 0 0 -12689 16878 -9980 0 22669 11581 0z"/>
    <path id="4" fill="#383459" fill-rule="nonzero" d="M866572 494810l17001 -2586c718,3264 2177,5749 4394,7432 2197,1704 5298,2546 9261,2546 4373,0 7658,-801 9876,-2401 1478,-1131 2217,-2650 2217,-4539 0,-1273 -411,-2340 -1210,-3183 -843,-799 -2731,-1560 -5647,-2237 -13655,-3019 -22299,-5770 -25955,-8255 -5070,-3470 -7596,-8274 -7596,-14413 0,-5566 2196,-10227 6570,-14004 4373,-3779 11149,-5667 20328,-5667 8747,0 15256,1437 19506,4291 4250,2874 7186,7104 8788,12709l-15892 2957c-677,-2504 -1992,-4435 -3902,-5769 -1909,-1335 -4640,-1992 -8193,-1992 -4476,0 -7678,616 -9629,1869 -1293,883 -1930,2032 -1930,3429 0,1211 554,2237 1683,3080 1540,1129 6817,2710 15851,4764 9035,2053 15340,4558 18912,7535 3552,2998 5318,7208 5318,12587 0,5852 -2444,10903 -7352,15112 -4886,4209 -12134,6324 -21743,6324 -8706,0 -15606,-1766 -20698,-5277 -5071,-3512 -8397,-8275 -9958,-14312z"/>
   </g>
   <rect fill="#F8C6A0" stroke="#9C704E" stroke-width="2053.43" x="1027" y="1027" width="622566" height="136186" rx="9856" ry="9856"/>
   <path fill="#373435" fill-rule="nonzero" d="M77402 86422l13896 -1379c839,4648 2514,8048 5061,10233 2546,2185 5978,3269 10298,3269 4567,0 8017,-969 10333,-2907 2316,-1938 3483,-4206 3483,-6800 0,-1677 -494,-3089 -1463,-4271 -969,-1167 -2677,-2185 -5109,-3040 -1658,-591 -5436,-1610 -11349,-3088 -7606,-1906 -12945,-4237 -16017,-7014 -4320,-3893 -6472,-8641 -6472,-14242 0,-3597 1018,-6981 3039,-10118 2037,-3137 4960,-5519 8788,-7163 3827,-1642 8427,-2463 13848,-2463 8821,0 15474,1954 19925,5881 4468,3925 6801,9148 7031,15703l-14291 493c-608,-3647 -1906,-6258 -3894,-7852 -1987,-1594 -4976,-2398 -8952,-2398 -4107,0 -7326,854 -9642,2562 -1494,1101 -2251,2562 -2251,4403 0,1675 706,3104 2120,4287 1790,1527 6142,3105 13058,4747 6916,1626 12024,3335 15326,5075 3318,1758 5914,4140 7787,7179 1872,3040 2809,6785 2809,11236 0,4040 -1118,7835 -3368,11367 -2250,3532 -5421,6160 -9528,7868 -4107,1725 -9231,2580 -15359,2580 -8919,0 -15768,-2054 -20549,-6177 -4780,-4107 -7621,-10102 -8558,-17971z"/>
   <path id="1" fill="#373435" fill-rule="nonzero" d="M146393 58136l12616 0 0 7507c1643,-2563 3844,-4633 6637,-6226 2792,-1576 5897,-2366 9297,-2366 5930,0 10973,2333 15112,6999 4140,4648 6209,11153 6209,19465 0,8558 -2086,15194 -6258,19942 -4173,4747 -9232,7113 -15178,7113 -2825,0 -5389,-559 -7688,-1693 -2284,-1116 -4714,-3038 -7244,-5766l0 25593 -13503 0 0 -70568zm13305 24788c0,5766 1134,10019 3418,12779 2267,2744 5043,4123 8295,4123 3137,0 5750,-1265 7836,-3794 2086,-2530 3121,-6669 3121,-12435 0,-5387 -1068,-9379 -3220,-11991 -2135,-2612 -4796,-3909 -7967,-3909 -3301,0 -6045,1280 -8213,3844 -2185,2562 -3270,6357 -3270,11383z"/>
   <path id="2" fill="#373435" fill-rule="nonzero" d="M203837 83088c0,-4501 1100,-8854 3317,-13060 2218,-4220 5355,-7424 9413,-9642 4057,-2217 8575,-3335 13585,-3335 7736,0 14061,2514 19004,7541 4945,5043 7410,11384 7410,19071 0,7753 -2497,14176 -7475,19268 -4994,5092 -11268,7639 -18841,7639 -4681,0 -9149,-1069 -13404,-3188 -4238,-2118 -7474,-5223 -9692,-9330 -2217,-4090 -3317,-9084 -3317,-14964zm13896 723c0,5075 1199,8968 3597,11663 2415,2710 5371,4057 8903,4057 3516,0 6472,-1347 8854,-4057 2382,-2695 3581,-6620 3581,-11762 0,-5010 -1199,-8870 -3581,-11564 -2382,-2711 -5338,-4058 -8854,-4058 -3532,0 -6488,1347 -8903,4058 -2398,2694 -3597,6587 -3597,11663z"/>
   <path id="3" fill="#373435" fill-rule="nonzero" d="M290551 58136l0 10744 -9265 0 0 20713c0,4205 83,6653 263,7342 181,690 575,1265 1215,1725 626,444 1381,674 2284,674 1265,0 3072,-427 5454,-1298l1133 10513c-3137,1347 -6686,2021 -10661,2021 -2430,0 -4615,-411 -6570,-1233 -1954,-821 -3384,-1888 -4287,-3186 -920,-1314 -1545,-3072 -1906,-5306 -279,-1577 -427,-4763 -427,-9577l0 -22388 -6209 0 0 -10744 6209 0 0 -10152 13502 -7983 0 18135 9265 0z"/>
   <polygon id="4" fill="#373435" fill-rule="nonzero" points="300013,109288 300013,38719 313515,38719 313515,109288 "/>
   <path id="5" fill="#373435" fill-rule="nonzero" d="M327395 51237l0 -12518 13502 0 0 12518 -13502 0zm0 58051l0 -51152 13502 0 0 51152 -13502 0z"/>
   <path id="6" fill="#373435" fill-rule="nonzero" d="M353496 112541l15474 1873c263,1822 855,3070 1774,3761 1298,969 3319,1462 6078,1462 3532,0 6176,-526 7950,-1594 1183,-706 2086,-1839 2694,-3416 411,-1117 624,-3204 624,-6210l66 -7473c-4074,5568 -9198,8344 -15375,8344 -6867,0 -12320,-2908 -16328,-8706 -3154,-4583 -4731,-10300 -4731,-17117 0,-8574 2070,-15112 6193,-19629 4123,-4517 9265,-6785 15409,-6785 6323,0 11547,2777 15653,8329l0 -7244 12616 0 0 45863c0,6028 -492,10546 -1494,13519 -986,2989 -2382,5322 -4190,7030 -1790,1693 -4188,3039 -7194,3992 -3007,969 -6800,1445 -11383,1445 -8674,0 -14818,-1494 -18447,-4467 -3631,-2990 -5438,-6752 -5438,-11335 0,-443 16,-1002 49,-1642zm12123 -29864c0,5421 1052,9379 3138,11893 2102,2513 4697,3778 7769,3778 3285,0 6078,-1298 8345,-3876 2283,-2580 3417,-6391 3417,-11450 0,-5290 -1085,-9215 -3269,-11777 -2168,-2563 -4928,-3844 -8262,-3844 -3237,0 -5898,1264 -8000,3778 -2086,2513 -3138,6340 -3138,11498z"/>
   <path id="7" fill="#373435" fill-rule="nonzero" d="M428286 38719l0 26151c4386,-5206 9642,-7819 15737,-7819 3137,0 5962,575 8475,1726 2514,1166 4403,2628 5683,4435 1282,1790 2153,3778 2613,5963 476,2184 706,5568 706,10151l0 29962 -13503 0 0 -26973c0,-5354 -262,-8755 -772,-10201 -525,-1444 -1446,-2594 -2759,-3432 -1314,-855 -2957,-1281 -4945,-1281 -2266,0 -4287,541 -6077,1643 -1791,1083 -3089,2726 -3909,4927 -839,2185 -1249,5438 -1249,9725l0 25592 -13503 0 0 -70569 13503 0z"/>
   <path id="8" fill="#373435" fill-rule="nonzero" d="M498541 58136l0 10744 -9265 0 0 20713c0,4205 83,6653 263,7342 181,690 575,1265 1216,1725 625,444 1380,674 2283,674 1265,0 3072,-427 5454,-1298l1133 10513c-3137,1347 -6686,2021 -10661,2021 -2430,0 -4615,-411 -6570,-1233 -1954,-821 -3384,-1888 -4287,-3186 -920,-1314 -1545,-3072 -1906,-5306 -279,-1577 -427,-4763 -427,-9577l0 -22388 -6209 0 0 -10744 6209 0 0 -10152 13502 -7983 0 18135 9265 0z"/>
   <path id="9" fill="#373435" fill-rule="nonzero" d="M503173 94899l13601 -2070c575,2611 1741,4599 3515,5946 1758,1363 4239,2037 7409,2037 3499,0 6127,-641 7901,-1921 1183,-904 1774,-2120 1774,-3631 0,-1019 -328,-1873 -969,-2546 -673,-641 -2185,-1249 -4517,-1790 -10924,-2416 -17839,-4617 -20763,-6604 -4057,-2776 -6078,-6620 -6078,-11532 0,-4451 1758,-8179 5257,-11203 3498,-3022 8919,-4534 16262,-4534 6997,0 12204,1150 15604,3434 3401,2299 5750,5683 7031,10169l-12714 2365c-542,-2005 -1593,-3548 -3120,-4617 -1529,-1067 -3713,-1592 -6555,-1592 -3581,0 -6143,492 -7704,1494 -1035,706 -1544,1627 -1544,2743 0,970 444,1790 1347,2464 1232,904 5454,2169 12681,3812 7228,1642 12271,3645 15129,6027 2841,2399 4254,5766 4254,10071 0,4680 -1954,8722 -5880,12088 -3909,3368 -9709,5061 -17396,5061 -6965,0 -12484,-1413 -16558,-4222 -4057,-2809 -6718,-6620 -7967,-11449z"/>
   <rect fill="#F2B5D0" stroke="#A37A8D" stroke-width="2053.43" x="952427" y="1293" width="622566" height="136186" rx="9856" ry="9856"/>
   <polygon fill="#373435" fill-rule="nonzero" points="1138246,104691 1138246,34714 1152537,34714 1152537,92765 1187921,92765 1187921,104691 "/>
   <path id="1" fill="#373435" fill-rule="nonzero" d="M1194803 78491c0,-4501 1100,-8854 3317,-13059 2218,-4221 5355,-7425 9413,-9643 4057,-2217 8575,-3335 13585,-3335 7736,0 14061,2514 19004,7541 4945,5043 7410,11384 7410,19071 0,7753 -2497,14176 -7475,19268 -4994,5092 -11268,7639 -18841,7639 -4681,0 -9149,-1069 -13404,-3187 -4238,-2119 -7474,-5224 -9692,-9331 -2217,-4090 -3317,-9084 -3317,-14964zm13896 723c0,5076 1199,8968 3597,11663 2415,2710 5371,4057 8903,4057 3516,0 6472,-1347 8854,-4057 2382,-2695 3581,-6620 3581,-11762 0,-5010 -1199,-8870 -3581,-11564 -2382,-2711 -5338,-4058 -8854,-4058 -3532,0 -6488,1347 -8903,4058 -2398,2694 -3597,6587 -3597,11663z"/>
   <path id="2" fill="#373435" fill-rule="nonzero" d="M1256877 107944l15474 1873c263,1823 854,3070 1774,3761 1298,969 3319,1462 6078,1462 3532,0 6176,-526 7950,-1594 1183,-706 2086,-1839 2694,-3416 411,-1117 624,-3204 624,-6210l66 -7473c-4074,5568 -9198,8344 -15375,8344 -6867,0 -12320,-2908 -16328,-8706 -3154,-4583 -4731,-10300 -4731,-17117 0,-8574 2070,-15112 6193,-19629 4123,-4517 9265,-6785 15409,-6785 6323,0 11547,2777 15653,8329l0 -7244 12616 0 0 45863c0,6028 -492,10546 -1494,13519 -986,2990 -2382,5322 -4190,7030 -1790,1693 -4188,3039 -7194,3992 -3007,969 -6800,1445 -11383,1445 -8674,0 -14818,-1494 -18448,-4467 -3630,-2990 -5437,-6752 -5437,-11335 0,-443 16,-1002 49,-1642zm12123 -29864c0,5421 1052,9379 3138,11893 2102,2513 4697,3778 7769,3778 3285,0 6078,-1298 8345,-3876 2283,-2580 3417,-6391 3417,-11450 0,-5290 -1085,-9215 -3269,-11777 -2169,-2563 -4929,-3844 -8262,-3844 -3237,0 -5898,1264 -8000,3778 -2086,2513 -3138,6340 -3138,11498z"/>
   <path id="3" fill="#373435" fill-rule="nonzero" d="M1313531 90302l13601 -2070c576,2611 1742,4600 3516,5946 1758,1364 4238,2038 7408,2038 3499,0 6128,-642 7902,-1922 1183,-904 1774,-2120 1774,-3631 0,-1019 -328,-1873 -970,-2546 -673,-641 -2185,-1249 -4516,-1790 -10924,-2416 -17840,-4617 -20764,-6604 -4057,-2776 -6078,-6620 -6078,-11531 0,-4452 1758,-8180 5257,-11204 3498,-3021 8919,-4534 16262,-4534 6998,0 12205,1151 15605,3434 3400,2299 5749,5683 7031,10169l-12714 2365c-543,-2004 -1594,-3548 -3121,-4617 -1528,-1067 -3712,-1592 -6555,-1592 -3581,0 -6143,492 -7704,1495 -1035,705 -1543,1626 -1543,2742 0,970 443,1790 1347,2464 1231,904 5453,2169 12681,3812 7228,1642 12270,3646 15128,6027 2842,2399 4255,5766 4255,10071 0,4680 -1954,8722 -5881,12089 -3909,3367 -9708,5060 -17396,5060 -6965,0 -12483,-1413 -16558,-4222 -4056,-2809 -6718,-6620 -7967,-11449z"/>
   <rect fill="#F5F08D" stroke="#807D47" stroke-width="2053.43" x="1339" y="820047" width="622566" height="136186" rx="9856" ry="9856"/>
   <polygon fill="#373435" fill-rule="nonzero" points="143494,923445 143494,864802 122600,864802 122600,852876 178582,852876 178582,864802 157786,864802 157786,923445 "/>
   <path id="1" fill="#373435" fill-rule="nonzero" d="M177268 897245c0,-4501 1100,-8854 3317,-13060 2218,-4221 5355,-7424 9413,-9642 4057,-2217 8575,-3335 13585,-3335 7736,0 14061,2513 19005,7541 4945,5043 7409,11384 7409,19071 0,7753 -2497,14176 -7475,19268 -4994,5092 -11268,7639 -18841,7639 -4681,0 -9149,-1069 -13404,-3188 -4238,-2118 -7474,-5223 -9692,-9330 -2217,-4090 -3317,-9084 -3317,-14964zm13897 723c0,5075 1199,8968 3597,11663 2414,2710 5371,4057 8902,4057 3516,0 6473,-1347 8854,-4057 2382,-2695 3581,-6620 3581,-11762 0,-5010 -1199,-8870 -3581,-11564 -2381,-2711 -5338,-4058 -8854,-4058 -3531,0 -6488,1347 -8902,4058 -2398,2694 -3597,6586 -3597,11663z"/>
   <path id="2" fill="#373435" fill-rule="nonzero" d="M240229 872293l12616 0 0 7507c1643,-2563 3844,-4633 6637,-6226 2792,-1577 5897,-2366 9297,-2366 5930,0 10973,2333 15112,6999 4140,4648 6209,11153 6209,19465 0,8557 -2086,15194 -6258,19942 -4173,4747 -9232,7113 -15178,7113 -2825,0 -5388,-559 -7688,-1693 -2283,-1116 -4714,-3038 -7244,-5766l0 25593 -13503 0 0 -70568zm13306 24788c0,5766 1133,10019 3417,12779 2267,2744 5043,4123 8295,4123 3138,0 5750,-1265 7836,-3795 2086,-2529 3121,-6669 3121,-12434 0,-5388 -1068,-9379 -3220,-11991 -2135,-2613 -4796,-3909 -7967,-3909 -3301,0 -6045,1280 -8213,3843 -2185,2563 -3269,6357 -3269,11384z"/>
   <path id="3" fill="#373435" fill-rule="nonzero" d="M300826 865394l0 -12518 13502 0 0 12518 -13502 0zm0 58051l0 -51152 13502 0 0 51152 -13502 0z"/>
   <path id="4" fill="#373435" fill-rule="nonzero" d="M372758 887472l-13307 2365c-443,-2645 -1460,-4633 -3054,-5980 -1594,-1330 -3647,-2003 -6177,-2003 -3367,0 -6061,1165 -8066,3498 -2003,2333 -3005,6225 -3005,11695 0,6078 1018,10366 3055,12880 2038,2513 4764,3761 8180,3761 2563,0 4666,-740 6292,-2202 1643,-1462 2793,-3975 3466,-7556l13305 2267c-1379,6111 -4024,10727 -7934,13848 -3909,3121 -9149,4682 -15736,4682 -7457,0 -13421,-2366 -17856,-7080 -4451,-4731 -6669,-11270 -6669,-19630 0,-8459 2234,-15031 6685,-19745 4452,-4715 10481,-7064 18087,-7064 6209,0 11153,1348 14832,4026 3664,2677 6292,6750 7902,12238z"/>
   <path id="5" fill="#373435" fill-rule="nonzero" d="M393077 888063l-12222 -2169c1381,-4994 3763,-8690 7130,-11088 3367,-2398 8377,-3598 15013,-3598 6029,0 10529,707 13486,2136 2941,1430 5027,3236 6227,5438 1199,2201 1806,6225 1806,12106l-197 15769c0,4485 214,7802 641,9939 427,2134 1232,4418 2414,6849l-13404 0c-345,-887 -788,-2201 -1297,-3943 -214,-804 -378,-1330 -477,-1576 -2299,2267 -4764,3958 -7392,5092 -2627,1134 -5420,1709 -8393,1709 -5241,0 -9380,-1430 -12402,-4288 -3023,-2842 -4534,-6456 -4534,-10826 0,-2874 690,-5453 2070,-7720 1379,-2250 3301,-3991 5798,-5190 2481,-1199 6061,-2251 10743,-3154 6308,-1183 10693,-2300 13125,-3319l0 -1363c0,-2628 -641,-4500 -1922,-5634 -1298,-1117 -3728,-1675 -7294,-1675 -2414,0 -4287,476 -5634,1445 -1363,953 -2447,2644 -3285,5060zm18135 10940c-1725,574 -4468,1264 -8230,2070 -3745,804 -6209,1592 -7359,2348 -1758,1265 -2645,2842 -2645,4764 0,1906 707,3532 2120,4911 1412,1380 3202,2070 5387,2070 2432,0 4764,-804 6981,-2398 1626,-1233 2711,-2711 3220,-4485 346,-1149 526,-3350 526,-6586l0 -2694z"/>
   <polygon id="6" fill="#373435" fill-rule="nonzero" points="437839,923445 437839,852876 451341,852876 451341,923445 "/>
   <path id="7" fill="#373435" fill-rule="nonzero" d="M460392 909056l13601 -2070c575,2611 1741,4599 3516,5946 1757,1363 4238,2037 7408,2037 3499,0 6127,-641 7901,-1922 1183,-903 1774,-2119 1774,-3630 0,-1019 -328,-1873 -969,-2546 -673,-642 -2185,-1249 -4517,-1790 -10923,-2416 -17839,-4617 -20763,-6604 -4057,-2777 -6078,-6620 -6078,-11532 0,-4451 1758,-8180 5257,-11203 3498,-3022 8919,-4534 16262,-4534 6997,0 12204,1150 15604,3434 3401,2299 5750,5683 7031,10168l-12714 2366c-542,-2005 -1593,-3548 -3120,-4617 -1529,-1067 -3713,-1592 -6555,-1592 -3581,0 -6143,492 -7704,1494 -1035,706 -1544,1627 -1544,2743 0,970 444,1790 1347,2464 1232,904 5454,2169 12682,3811 7227,1643 12270,3646 15128,6028 2841,2399 4255,5766 4255,10070 0,4681 -1955,8723 -5881,12089 -3909,3368 -9709,5061 -17396,5061 -6965,0 -12484,-1414 -16558,-4222 -4057,-2809 -6718,-6621 -7967,-11449z"/>
   <rect fill="#96FFDC" stroke="#63B096" stroke-width="1970.78" x="952607" y="820010" width="622566" height="136186" rx="9856" ry="9856"/>
   <path fill="#373435" fill-rule="nonzero" d="M1114081 852839l14291 0 0 44713c0,5849 -510,10349 -1544,13503 -1380,4106 -3877,7409 -7506,9905 -3615,2480 -8394,3729 -14341,3729 -6965,0 -12320,-1938 -16065,-5832 -3762,-3892 -5650,-9609 -5684,-17133l13503 -1576c164,4025 739,6866 1758,8525 1527,2529 3844,3795 6965,3795 3137,0 5371,-904 6668,-2727 1298,-1807 1955,-5568 1955,-11285l0 -45617z"/>
   <path id="1" fill="#373435" fill-rule="nonzero" d="M1140315 897208c0,-4502 1100,-8854 3317,-13060 2218,-4221 5355,-7424 9413,-9642 4057,-2218 8575,-3335 13585,-3335 7736,0 14061,2513 19004,7541 4945,5043 7410,11383 7410,19071 0,7753 -2497,14176 -7475,19268 -4994,5091 -11268,7638 -18842,7638 -4680,0 -9148,-1068 -13403,-3187 -4238,-2118 -7474,-5223 -9692,-9330 -2217,-4091 -3317,-9084 -3317,-14964zm13896 723c0,5075 1199,8968 3597,11663 2415,2710 5371,4056 8903,4056 3516,0 6472,-1346 8854,-4056 2382,-2695 3581,-6620 3581,-11762 0,-5010 -1199,-8870 -3581,-11564 -2382,-2711 -5338,-4058 -8854,-4058 -3532,0 -6488,1347 -8903,4058 -2398,2694 -3597,6586 -3597,11663z"/>
   <path id="2" fill="#373435" fill-rule="nonzero" d="M1237477 923408l0 -7655c-1873,2727 -4320,4895 -7360,6521 -3039,1610 -6242,2415 -9609,2415 -3449,0 -6538,-755 -9265,-2267 -2743,-1511 -4715,-3646 -5930,-6374 -1232,-2742 -1839,-6521 -1839,-11350l0 -32442 13502 0 0 23555c0,7211 247,11614 755,13240 494,1626 1397,2924 2728,3860 1314,952 2989,1430 5026,1430 2316,0 4385,-642 6226,-1906 1839,-1265 3088,-2841 3761,-4731 674,-1889 1019,-6488 1019,-13831l0 -21617 13503 0 0 51152 -12517 0z"/>
   <path id="3" fill="#373435" fill-rule="nonzero" d="M1276784 923408l-13502 0 0 -51152 12517 0 0 7260c2151,-3433 4089,-5684 5815,-6751 1725,-1068 3679,-1594 5864,-1594 3089,0 6062,854 8919,2547l-4188 11794c-2284,-1478 -4403,-2217 -6357,-2217 -1906,0 -3516,525 -4830,1560 -1314,1051 -2349,2924 -3104,5650 -756,2728 -1134,8443 -1134,17133l0 15770z"/>
   <path id="4" fill="#373435" fill-rule="nonzero" d="M1348749 923408l-13503 0 0 -26069c0,-5520 -296,-9084 -870,-10694 -591,-1626 -1528,-2874 -2842,-3777 -1314,-904 -2891,-1347 -4731,-1347 -2365,0 -4484,640 -6357,1922 -1888,1280 -3170,2989 -3860,5091 -707,2119 -1051,6029 -1051,11745l0 23129 -13502 0 0 -51152 12516 0 0 7507c4485,-5733 10119,-8592 16936,-8592 2989,0 5733,542 8214,1610 2495,1085 4368,2448 5634,4107 1280,1676 2167,3564 2661,5684 509,2119 755,5140 755,9083l0 31753z"/>
   <path id="5" fill="#373435" fill-rule="nonzero" d="M1372485 888026l-12222 -2169c1381,-4994 3762,-8690 7130,-11088 3367,-2398 8377,-3598 15013,-3598 6029,0 10529,707 13486,2136 2941,1430 5027,3236 6227,5437 1199,2202 1806,6226 1806,12107l-198 15768c0,4486 215,7803 642,9939 427,2135 1231,4419 2414,6850l-13404 0c-345,-887 -788,-2202 -1297,-3943 -214,-804 -378,-1331 -477,-1576 -2299,2266 -4764,3958 -7392,5091 -2627,1134 -5420,1709 -8393,1709 -5241,0 -9380,-1429 -12402,-4287 -3023,-2843 -4534,-6456 -4534,-10826 0,-2874 690,-5454 2070,-7720 1379,-2250 3301,-3992 5798,-5191 2480,-1199 6061,-2250 10743,-3153 6308,-1183 10693,-2300 13125,-3319l0 -1363c0,-2628 -641,-4500 -1922,-5634 -1298,-1118 -3728,-1675 -7294,-1675 -2414,0 -4287,476 -5634,1444 -1363,954 -2447,2645 -3285,5061zm18135 10940c-1725,574 -4468,1264 -8230,2069 -3745,805 -6209,1593 -7359,2348 -1758,1266 -2645,2843 -2645,4765 0,1905 706,3532 2120,4911 1412,1380 3202,2070 5387,2070 2432,0 4763,-805 6981,-2398 1626,-1233 2711,-2711 3220,-4485 346,-1149 526,-3351 526,-6587l0 -2693z"/>
   <polygon id="6" fill="#373435" fill-rule="nonzero" points="1417247,923408 1417247,852839 1430749,852839 1430749,923408 "/>
   <polygon fill="#373435" fill-rule="nonzero" points="1124789,381905 1124789,340740 1130251,340740 1130251,381905 "/>
   <path id="1" fill="#373435" fill-rule="nonzero" d="M1139211 381905l0 -29838 4541 0 0 4234c2185,-3247 5348,-4867 9477,-4867 1802,0 3450,326 4954,968 1504,642 2636,1494 3383,2540 747,1044 1275,2290 1571,3727 182,938 278,2577 278,4915l0 18321 -5060 0 0 -18129c0,-2060 -190,-3603 -584,-4619 -392,-1015 -1092,-1830 -2088,-2443 -997,-603 -2176,-911 -3517,-911 -2147,0 -3996,681 -5558,2051 -1561,1361 -2338,3958 -2338,7772l0 16279 -5059 0z"/>
   <path id="2" fill="#373435" fill-rule="nonzero" d="M1169174 372994l5002 -805c279,2003 1064,3536 2348,4610 1284,1062 3085,1599 5385,1599 2328,0 4054,-469 5184,-1418 1121,-939 1687,-2051 1687,-3325 0,-1140 -509,-2041 -1515,-2692 -709,-451 -2434,-1016 -5174,-1716 -3698,-929 -6257,-1734 -7695,-2414 -1427,-690 -2509,-1630 -3247,-2837 -738,-1198 -1112,-2530 -1112,-3986 0,-1332 306,-2558 910,-3689 614,-1130 1438,-2069 2482,-2817 786,-575 1859,-1064 3209,-1467 1361,-401 2808,-603 4361,-603 2338,0 4389,336 6151,1016 1773,671 3077,1591 3919,2741 834,1159 1418,2702 1735,4638l-4945 689c-220,-1552 -872,-2770 -1945,-3641 -1072,-872 -2587,-1303 -4551,-1303 -2309,0 -3967,383 -4954,1150 -987,766 -1485,1667 -1485,2693 0,650 201,1245 613,1771 412,537 1054,987 1936,1342 508,192 1982,623 4455,1294 3564,948 6055,1734 7475,2338 1417,603 2529,1495 3333,2645 815,1160 1218,2596 1218,4321 0,1676 -489,3258 -1476,4744 -987,1484 -2405,2634 -4255,3449 -1859,815 -3956,1216 -6295,1216 -3871,0 -6832,-804 -8863,-2405 -2032,-1610 -3325,-3985 -3891,-7138z"/>
   <path id="3" fill="#373435" fill-rule="nonzero" d="M1199934 393346l0 -41279 4599 0 0 3919c1083,-1514 2310,-2654 3680,-3412 1361,-757 3018,-1140 4963,-1140 2549,0 4791,652 6736,1964 1945,1304 3412,3153 4408,5530 987,2386 1485,4991 1485,7837 0,3039 -545,5779 -1639,8222 -1091,2434 -2683,4303 -4771,5605 -2079,1295 -4273,1945 -6574,1945 -1686,0 -3200,-353 -4531,-1062 -1343,-710 -2434,-1601 -3297,-2684l0 14555 -5059 0zm4599 -26178c0,3823 777,6650 2319,8480 1552,1830 3431,2750 5634,2750 2242,0 4158,-949 5749,-2845 1600,-1898 2396,-4830 2396,-8806 0,-3795 -776,-6631 -2338,-8519 -1563,-1888 -3421,-2826 -5587,-2826 -2146,0 -4043,1005 -5691,3008 -1658,2012 -2482,4925 -2482,8758z"/>
   <path id="4" fill="#373435" fill-rule="nonzero" d="M1231910 346489l0 -5749 5059 0 0 5749 -5059 0zm0 35416l0 -29838 5059 0 0 29838 -5059 0z"/>
   <path id="5" fill="#373435" fill-rule="nonzero" d="M1244625 381905l0 -29838 4542 0 0 4571c1160,-2119 2233,-3517 3220,-4188 987,-680 2070,-1016 3248,-1016 1705,0 3440,537 5203,1600l-1802 4667c-1225,-689 -2452,-1035 -3678,-1035 -1103,0 -2090,335 -2962,996 -871,661 -1494,1582 -1868,2760 -566,1792 -843,3757 -843,5893l0 15590 -5060 0z"/>
   <path id="6" fill="#373435" fill-rule="nonzero" d="M1283319 378169c-1879,1599 -3690,2720 -5423,3381 -1735,661 -3594,987 -5587,987 -3278,0 -5798,-795 -7561,-2395 -1763,-1590 -2644,-3631 -2644,-6113 0,-1456 335,-2789 996,-3996 671,-1207 1543,-2165 2616,-2894 1082,-728 2291,-1284 3641,-1658 996,-258 2502,-507 4504,-756 4082,-480 7101,-1064 9026,-1735 20,-690 29,-1130 29,-1313 0,-2050 -479,-3497 -1437,-4341 -1294,-1139 -3220,-1705 -5768,-1705 -2387,0 -4150,421 -5281,1256 -1139,833 -1974,2308 -2520,4436l-4944 -690c451,-2117 1189,-3833 2224,-5136 1035,-1303 2529,-2300 4484,-3009 1945,-700 4216,-1054 6784,-1054 2548,0 4628,297 6228,901 1591,603 2769,1351 3516,2261 748,910 1275,2060 1581,3450 163,862 249,2415 249,4647l0 6708c0,4685 106,7647 317,8901 201,1255 623,2453 1236,3603l-5289 0c-508,-1064 -834,-2309 -977,-3736zm-403 -11212c-1840,748 -4599,1380 -8279,1898 -2089,297 -3564,632 -4427,1006 -862,373 -1523,919 -1993,1628 -470,720 -709,1515 -709,2396 0,1332 508,2453 1534,3344 1024,892 2519,1341 4484,1341 1945,0 3679,-421 5203,-1273 1513,-844 2634,-2004 3343,-3469 547,-1141 815,-2817 815,-5031l29 -1840z"/>
   <path id="7" fill="#373435" fill-rule="nonzero" d="M1306786 377392l690 4466c-1419,296 -2693,450 -3804,450 -1830,0 -3249,-287 -4264,-872 -1007,-584 -1716,-1342 -2128,-2291 -412,-948 -613,-2941 -613,-5978l0 -17190 -3737 0 0 -3910 3737 0 0 -7378 5059 -3039 0 10417 5060 0 0 3910 -5060 0 0 17477c0,1447 87,2376 268,2788 173,412 460,738 863,987 403,240 978,365 1725,365 555,0 1293,-68 2204,-202z"/>
   <path id="8" fill="#373435" fill-rule="nonzero" d="M1311778 346489l0 -5749 5059 0 0 5749 -5059 0zm0 35416l0 -29838 5059 0 0 29838 -5059 0z"/>
   <path id="9" fill="#373435" fill-rule="nonzero" d="M1322654 366987c0,-5511 1533,-9592 4609,-12247 2558,-2204 5692,-3306 9381,-3306 4092,0 7446,1341 10052,4025 2596,2674 3900,6381 3900,11105 0,3833 -575,6842 -1726,9037 -1150,2194 -2826,3899 -5030,5116 -2194,1217 -4599,1820 -7196,1820 -4178,0 -7551,-1331 -10129,-4004 -2577,-2674 -3861,-6526 -3861,-11546zm5175 9c0,3813 833,6669 2500,8557 1677,1896 3775,2845 6315,2845 2510,0 4599,-949 6276,-2856 1668,-1906 2501,-4809 2501,-8709 0,-3680 -843,-6468 -2520,-8356 -1677,-1897 -3766,-2846 -6257,-2846 -2540,0 -4638,939 -6315,2827 -1667,1887 -2500,4734 -2500,8538z"/>
   <path id="10" fill="#373435" fill-rule="nonzero" d="M1356528 381905l0 -29838 4541 0 0 4234c2185,-3247 5348,-4867 9476,-4867 1802,0 3451,326 4955,968 1504,642 2635,1494 3383,2540 747,1044 1274,2290 1571,3727 182,938 277,2577 277,4915l0 18321 -5059 0 0 -18129c0,-2060 -191,-3603 -584,-4619 -393,-1015 -1092,-1830 -2089,-2443 -996,-603 -2175,-911 -3516,-911 -2147,0 -3997,681 -5559,2051 -1561,1361 -2337,3958 -2337,7772l0 16279 -5059 0z"/>
   <path fill="#373435" fill-rule="nonzero" d="M1153554 588886l0 -41165 18244 0c3669,0 6458,375 8365,1112 1907,738 3430,2041 4570,3910 1141,1868 1706,3938 1706,6200 0,2921 -949,5385 -2836,7387 -1888,2002 -4801,3267 -8749,3813 1447,691 2540,1381 3287,2051 1590,1457 3096,3287 4504,5481l7120 11211 -6804 0 -5443 -8566c-1580,-2482 -2893,-4370 -3919,-5682 -1035,-1313 -1954,-2224 -2769,-2751 -805,-517 -1638,-881 -2482,-1092 -614,-124 -1619,-192 -3028,-192l-6305 0 0 18283 -5461 0zm5461 -22997l11690 0c2491,0 4427,-259 5826,-776 1400,-508 2462,-1333 3182,-2472 727,-1130 1092,-2357 1092,-3689 0,-1945 -700,-3555 -2109,-4810 -1408,-1256 -3631,-1879 -6668,-1879l-13013 0 0 13626z"/>
   <path id="1" fill="#373435" fill-rule="nonzero" d="M1214677 579228l5232 689c-814,3038 -2338,5405 -4560,7081 -2224,1677 -5061,2520 -8519,2520 -4350,0 -7801,-1341 -10349,-4024 -2549,-2674 -3824,-6440 -3824,-11278 0,-5002 1284,-8892 3863,-11652 2577,-2769 5921,-4149 10032,-4149 3976,0 7225,1351 9745,4063 2519,2712 3785,6526 3785,11440 0,298 -10,748 -29,1343l-22221 0c192,3267 1111,5777 2779,7511 1658,1735 3737,2607 6219,2607 1848,0 3430,-489 4733,-1466 1313,-978 2348,-2539 3114,-4685zm-16558 -8107l16616 0c-221,-2511 -862,-4388 -1907,-5644 -1600,-1946 -3689,-2922 -6247,-2922 -2319,0 -4264,776 -5845,2328 -1572,1553 -2443,3632 -2617,6238z"/>
   <path id="2" fill="#373435" fill-rule="nonzero" d="M1226301 600327l0 -41280 4600 0 0 3920c1082,-1515 2309,-2654 3679,-3412 1361,-757 3019,-1140 4964,-1140 2548,0 4790,652 6735,1964 1945,1304 3412,3152 4409,5529 987,2387 1485,4992 1485,7838 0,3038 -546,5779 -1639,8222 -1092,2434 -2683,4302 -4772,5605 -2079,1294 -4273,1945 -6573,1945 -1687,0 -3200,-354 -4532,-1063 -1342,-710 -2434,-1600 -3297,-2683l0 14555 -5059 0zm4600 -26178c0,3823 776,6650 2318,8480 1552,1830 3431,2750 5635,2750 2242,0 4158,-949 5749,-2845 1599,-1898 2396,-4830 2396,-8806 0,-3795 -777,-6631 -2339,-8519 -1562,-1888 -3420,-2827 -5586,-2827 -2147,0 -4043,1006 -5692,3008 -1657,2013 -2481,4926 -2481,8759z"/>
   <path id="3" fill="#373435" fill-rule="nonzero" d="M1256380 573967c0,-5510 1533,-9592 4609,-12246 2558,-2205 5692,-3306 9381,-3306 4092,0 7445,1341 10052,4024 2595,2674 3899,6382 3899,11106 0,3833 -575,6842 -1725,9036 -1150,2195 -2826,3900 -5030,5117 -2194,1217 -4599,1820 -7196,1820 -4178,0 -7552,-1331 -10129,-4004 -2577,-2674 -3861,-6526 -3861,-11547zm5174 10c0,3813 834,6669 2501,8557 1677,1896 3775,2845 6315,2845 2510,0 4599,-949 6275,-2856 1668,-1906 2502,-4810 2502,-8709 0,-3680 -843,-6468 -2520,-8356 -1678,-1898 -3766,-2846 -6257,-2846 -2540,0 -4638,939 -6315,2827 -1667,1887 -2501,4733 -2501,8538z"/>
   <path id="4" fill="#373435" fill-rule="nonzero" d="M1290195 588886l0 -29839 4542 0 0 4572c1160,-2119 2233,-3517 3220,-4189 987,-679 2070,-1015 3248,-1015 1705,0 3440,537 5203,1600l-1802 4666c-1225,-689 -2452,-1034 -3678,-1034 -1102,0 -2090,335 -2961,996 -872,661 -1495,1582 -1869,2760 -566,1792 -843,3757 -843,5893l0 15590 -5060 0z"/>
   <path id="5" fill="#373435" fill-rule="nonzero" d="M1320380 584373l690 4465c-1419,297 -2693,451 -3804,451 -1830,0 -3249,-288 -4264,-872 -1007,-584 -1716,-1342 -2128,-2291 -412,-949 -613,-2942 -613,-5979l0 -17190 -3737 0 0 -3910 3737 0 0 -7378 5060 -3038 0 10416 5059 0 0 3910 -5059 0 0 17478c0,1447 86,2376 267,2788 173,412 460,738 863,987 403,240 978,364 1725,364 555,0 1293,-67 2204,-201z"/>
   <path id="6" fill="#373435" fill-rule="nonzero" d="M1323360 579975l5002 -805c278,2003 1064,3536 2348,4609 1284,1063 3084,1600 5385,1600 2328,0 4053,-469 5183,-1418 1121,-940 1687,-2051 1687,-3325 0,-1140 -509,-2041 -1514,-2692 -709,-451 -2435,-1016 -5175,-1716 -3698,-929 -6257,-1735 -7694,-2414 -1427,-691 -2510,-1630 -3248,-2837 -738,-1198 -1112,-2530 -1112,-3986 0,-1332 306,-2559 911,-3689 613,-1130 1437,-2070 2481,-2817 786,-575 1859,-1064 3210,-1467 1361,-401 2807,-603 4360,-603 2338,0 4389,336 6151,1015 1773,672 3077,1592 3920,2742 833,1159 1418,2702 1734,4637l-4945 690c-220,-1552 -872,-2770 -1945,-3642 -1072,-872 -2586,-1302 -4550,-1302 -2310,0 -3967,383 -4955,1150 -987,766 -1485,1667 -1485,2692 0,651 201,1246 614,1772 412,537 1053,987 1935,1342 508,192 1983,623 4455,1294 3565,948 6056,1734 7475,2338 1418,603 2529,1495 3334,2645 815,1159 1217,2596 1217,4321 0,1676 -489,3258 -1476,4744 -987,1484 -2405,2634 -4254,3449 -1859,815 -3957,1216 -6296,1216 -3870,0 -6832,-804 -8863,-2405 -2031,-1610 -3325,-3986 -3890,-7138z"/>
   <polygon fill="#373435" fill-rule="nonzero" points="217040,381905 217040,340740 222635,340740 244234,373051 244234,340740 249465,340740 249465,381905 243869,381905 222271,349594 222271,381905 "/>
   <path id="1" fill="#373435" fill-rule="nonzero" d="M256086 366987c0,-5511 1533,-9592 4609,-12247 2558,-2204 5692,-3306 9381,-3306 4092,0 7445,1341 10052,4025 2596,2674 3899,6381 3899,11105 0,3833 -575,6842 -1725,9037 -1150,2194 -2826,3899 -5030,5116 -2194,1217 -4599,1820 -7196,1820 -4178,0 -7551,-1331 -10129,-4004 -2577,-2674 -3861,-6526 -3861,-11546zm5174 9c0,3813 834,6669 2501,8557 1677,1896 3775,2845 6315,2845 2510,0 4599,-949 6276,-2856 1668,-1906 2501,-4809 2501,-8709 0,-3680 -843,-6468 -2520,-8356 -1677,-1897 -3766,-2846 -6257,-2846 -2540,0 -4638,939 -6315,2827 -1667,1887 -2501,4734 -2501,8538z"/>
   <path id="2" fill="#373435" fill-rule="nonzero" d="M300940 377392l691 4466c-1419,296 -2693,450 -3805,450 -1829,0 -3248,-287 -4264,-872 -1006,-584 -1715,-1342 -2127,-2291 -413,-948 -613,-2941 -613,-5978l0 -17190 -3738 0 0 -3910 3738 0 0 -7378 5059 -3039 0 10417 5059 0 0 3910 -5059 0 0 17477c0,1447 86,2376 268,2788 172,412 460,738 863,987 402,240 977,365 1725,365 555,0 1293,-68 2203,-202z"/>
   <path id="3" fill="#373435" fill-rule="nonzero" d="M326285 372247l5232 689c-815,3038 -2339,5405 -4561,7081 -2223,1678 -5060,2520 -8518,2520 -4351,0 -7801,-1341 -10349,-4024 -2549,-2674 -3824,-6439 -3824,-11277 0,-5002 1284,-8893 3862,-11653 2578,-2769 5922,-4149 10032,-4149 3977,0 7226,1351 9746,4063 2519,2712 3784,6526 3784,11441 0,298 -9,747 -29,1342l-22221 0c192,3267 1112,5777 2780,7512 1658,1734 3737,2606 6219,2606 1848,0 3430,-489 4733,-1466 1313,-977 2348,-2538 3114,-4685zm-16558 -8107l16616 0c-221,-2511 -863,-4388 -1907,-5644 -1601,-1945 -3689,-2922 -6248,-2922 -2318,0 -4264,776 -5844,2328 -1572,1553 -2444,3632 -2617,6238z"/>
   <path id="4" fill="#373435" fill-rule="nonzero" d="M335896 372994l5002 -805c279,2003 1064,3536 2348,4610 1284,1062 3085,1599 5385,1599 2329,0 4054,-469 5184,-1418 1121,-939 1687,-2051 1687,-3325 0,-1140 -509,-2041 -1515,-2692 -709,-451 -2434,-1016 -5174,-1716 -3698,-929 -6257,-1734 -7695,-2414 -1427,-690 -2509,-1630 -3247,-2837 -738,-1198 -1112,-2530 -1112,-3986 0,-1332 306,-2558 910,-3689 614,-1130 1438,-2069 2482,-2817 786,-575 1859,-1064 3209,-1467 1361,-401 2808,-603 4361,-603 2338,0 4389,336 6151,1016 1773,671 3077,1591 3919,2741 834,1159 1418,2702 1735,4638l-4945 689c-220,-1552 -872,-2770 -1945,-3641 -1072,-872 -2587,-1303 -4551,-1303 -2309,0 -3967,383 -4954,1150 -987,766 -1485,1667 -1485,2693 0,650 201,1245 613,1771 412,537 1054,987 1936,1342 508,192 1982,623 4455,1294 3564,948 6056,1734 7475,2338 1417,603 2529,1495 3333,2645 815,1160 1218,2596 1218,4321 0,1676 -489,3258 -1476,4744 -987,1484 -2405,2634 -4255,3449 -1859,815 -3956,1216 -6295,1216 -3871,0 -6832,-804 -8863,-2405 -2032,-1610 -3325,-3985 -3891,-7138z"/>
   <path fill="#373435" fill-rule="nonzero" d="M207240 588886l0 -41165 15542 0c2731,0 4820,135 6267,393 2022,336 3718,978 5089,1916 1370,949 2472,2272 3306,3968 833,1696 1245,3564 1245,5606 0,3487 -1112,6448 -3344,8863 -2224,2424 -6257,3631 -12083,3631l-10560 0 0 16788 -5462 0zm5462 -21617l10636 0c3526,0 6018,-652 7503,-1965 1476,-1312 2214,-3152 2214,-5538 0,-1715 -432,-3191 -1304,-4417 -872,-1227 -2022,-2042 -3440,-2434 -919,-240 -2615,-364 -5079,-364l-10530 0 0 14718z"/>
   <path id="1" fill="#373435" fill-rule="nonzero" d="M265307 579228l5232 689c-815,3038 -2338,5405 -4561,7081 -2223,1677 -5060,2520 -8518,2520 -4350,0 -7801,-1341 -10349,-4024 -2549,-2674 -3824,-6440 -3824,-11278 0,-5002 1284,-8892 3863,-11652 2577,-2769 5921,-4149 10032,-4149 3976,0 7225,1351 9745,4063 2519,2712 3785,6526 3785,11440 0,298 -10,748 -29,1343l-22222 0c193,3267 1112,5777 2780,7511 1658,1735 3737,2607 6219,2607 1848,0 3430,-489 4733,-1466 1313,-978 2348,-2539 3114,-4685zm-16558 -8107l16616 0c-221,-2511 -863,-4388 -1907,-5644 -1600,-1946 -3689,-2922 -6247,-2922 -2319,0 -4264,776 -5845,2328 -1572,1553 -2444,3632 -2617,6238z"/>
   <path id="2" fill="#373435" fill-rule="nonzero" d="M275034 573967c0,-5510 1533,-9592 4608,-12246 2559,-2205 5693,-3306 9382,-3306 4091,0 7445,1341 10051,4024 2596,2674 3900,6382 3900,11106 0,3833 -575,6842 -1725,9036 -1150,2195 -2826,3900 -5030,5117 -2194,1217 -4599,1820 -7196,1820 -4178,0 -7552,-1331 -10129,-4004 -2577,-2674 -3861,-6526 -3861,-11547zm5174 10c0,3813 834,6669 2501,8557 1677,1896 3775,2845 6315,2845 2509,0 4599,-949 6275,-2856 1668,-1906 2502,-4810 2502,-8709 0,-3680 -843,-6468 -2520,-8356 -1678,-1898 -3766,-2846 -6257,-2846 -2540,0 -4638,939 -6315,2827 -1667,1887 -2501,4733 -2501,8538z"/>
   <path id="3" fill="#373435" fill-rule="nonzero" d="M308907 600327l0 -41280 4600 0 0 3920c1082,-1515 2309,-2654 3679,-3412 1361,-757 3019,-1140 4964,-1140 2548,0 4790,652 6735,1964 1945,1304 3412,3152 4408,5529 988,2387 1486,4992 1486,7838 0,3038 -546,5779 -1639,8222 -1092,2434 -2683,4302 -4772,5605 -2079,1294 -4273,1945 -6573,1945 -1687,0 -3200,-354 -4532,-1063 -1342,-710 -2434,-1600 -3297,-2683l0 14555 -5059 0zm4600 -26178c0,3823 776,6650 2318,8480 1552,1830 3431,2750 5635,2750 2242,0 4158,-949 5749,-2845 1599,-1898 2396,-4830 2396,-8806 0,-3795 -777,-6631 -2339,-8519 -1562,-1888 -3420,-2827 -5586,-2827 -2147,0 -4043,1006 -5692,3008 -1657,2013 -2481,4926 -2481,8759z"/>
   <polygon id="4" fill="#373435" fill-rule="nonzero" points="340768,588886 340768,547721 345827,547721 345827,588886 "/>
   <path id="5" fill="#373435" fill-rule="nonzero" d="M374008 579228l5233 689c-815,3038 -2339,5405 -4561,7081 -2224,1677 -5060,2520 -8519,2520 -4350,0 -7800,-1341 -10348,-4024 -2550,-2674 -3824,-6440 -3824,-11278 0,-5002 1284,-8892 3862,-11652 2577,-2769 5922,-4149 10032,-4149 3976,0 7225,1351 9746,4063 2519,2712 3784,6526 3784,11440 0,298 -9,748 -29,1343l-22221 0c192,3267 1112,5777 2780,7511 1657,1735 3736,2607 6218,2607 1849,0 3431,-489 4733,-1466 1313,-978 2348,-2539 3114,-4685zm-16558 -8107l16616 0c-221,-2511 -862,-4388 -1906,-5644 -1601,-1946 -3689,-2922 -6248,-2922 -2319,0 -4264,776 -5845,2328 -1571,1553 -2443,3632 -2617,6238z"/>
  </g>
 </g>
</svg>
