<?xml version="1.0" encoding="UTF-8"?>
<!DOCTYPE svg PUBLIC "-//W3C//DTD SVG 1.1//EN" "http://www.w3.org/Graphics/SVG/1.1/DTD/svg11.dtd">
<!-- Creator: CorelDRAW X8 -->
<svg xmlns="http://www.w3.org/2000/svg" xml:space="preserve" width="711px" height="344px" version="1.1" style="shape-rendering:geometricPrecision; text-rendering:geometricPrecision; image-rendering:optimizeQuality; fill-rule:evenodd; clip-rule:evenodd"
viewBox="0 0 268379 129823"
 xmlns:xlink="http://www.w3.org/1999/xlink">
 <defs>
  <style type="text/css">
   <![CDATA[
    .str10 {stroke:#999999;stroke-width:1509.43}
    .str8 {stroke:#A99018;stroke-width:1509.43}
    .str3 {stroke:#4B4B4D;stroke-width:377.133}
    .str0 {stroke:#373435;stroke-width:377.133}
    .str2 {stroke:#90D5DF;stroke-width:377.133}
    .str14 {stroke:#FADAC1;stroke-width:754.713}
    .str1 {stroke:#373435;stroke-width:786.363}
    .str13 {stroke:#F58634;stroke-width:786.363}
    .str11 {stroke:black;stroke-width:786.363}
    .str6 {stroke:#B3B3B3;stroke-width:786.363}
    .str12 {stroke:#96989A;stroke-width:339.688}
    .str5 {stroke:black;stroke-width:339.688}
    .str9 {stroke:#999999;stroke-width:339.688}
    .str7 {stroke:#A99018;stroke-width:339.688}
    .str4 {stroke:white;stroke-width:339.688}
    .fil0 {fill:none}
    .fil6 {fill:none;fill-rule:nonzero}
    .fil4 {fill:#4B4B4D}
    .fil1 {fill:#373435}
    .fil74 {fill:#FADAC1}
    .fil52 {fill:black}
    .fil70 {fill:#006633}
    .fil8 {fill:#8293B8}
    .fil67 {fill:#8A9E9E}
    .fil69 {fill:#9900CC}
    .fil9 {fill:#F58634}
    .fil72 {fill:#F58634}
    .fil2 {fill:white}
    .fil3 {fill:white}
    .fil71 {fill:white}
    .fil73 {fill:#2F2F30}
    .fil36 {fill:#FFDD89}
    .fil7 {fill:#373435;fill-rule:nonzero}
    .fil51 {fill:black;fill-rule:nonzero}
    .fil10 {fill:black;fill-rule:nonzero}
    .fil27 {fill:#333333;fill-rule:nonzero}
    .fil28 {fill:#CCCCCC;fill-rule:nonzero}
    .fil18 {fill:#DED60F;fill-rule:nonzero}
    .fil68 {fill:white;fill-rule:nonzero}
    .fil5 {fill:white;fill-rule:nonzero}
    .fil19 {fill:#634E10;fill-rule:nonzero}
    .fil57 {fill:url(#id16)}
    .fil39 {fill:url(#id17)}
    .fil48 {fill:url(#id18)}
    .fil62 {fill:url(#id19)}
    .fil24 {fill:url(#id20)}
    .fil64 {fill:url(#id21)}
    .fil54 {fill:url(#id22)}
    .fil53 {fill:url(#id23)}
    .fil20 {fill:url(#id24)}
    .fil65 {fill:url(#id25)}
    .fil34 {fill:url(#id26)}
    .fil17 {fill:url(#id27)}
    .fil16 {fill:url(#id28)}
    .fil29 {fill:url(#id29)}
    .fil47 {fill:url(#id30)}
    .fil66 {fill:url(#id31)}
    .fil25 {fill:url(#id32)}
    .fil59 {fill:url(#id33)}
    .fil26 {fill:url(#id34)}
    .fil44 {fill:url(#id35)}
    .fil21 {fill:url(#id36)}
    .fil40 {fill:url(#id37)}
    .fil45 {fill:url(#id38)}
    .fil38 {fill:url(#id39)}
    .fil49 {fill:url(#id40)}
    .fil30 {fill:url(#id41)}
    .fil32 {fill:url(#id42)}
    .fil37 {fill:url(#id43)}
    .fil42 {fill:url(#id44)}
    .fil46 {fill:url(#id45)}
    .fil31 {fill:url(#id46)}
    .fil11 {fill:url(#id47)}
    .fil13 {fill:url(#id48)}
    .fil58 {fill:url(#id49)}
    .fil12 {fill:url(#id50)}
    .fil61 {fill:url(#id51)}
    .fil41 {fill:url(#id52)}
    .fil43 {fill:url(#id53)}
    .fil23 {fill:url(#id54)}
    .fil60 {fill:url(#id55)}
    .fil63 {fill:url(#id56)}
    .fil15 {fill:url(#id57)}
    .fil14 {fill:url(#id58)}
    .fil56 {fill:url(#id59)}
    .fil50 {fill:url(#id60)}
    .fil35 {fill:url(#id61)}
    .fil22 {fill:url(#id62)}
    .fil55 {fill:url(#id63)}
    .fil33 {fill:url(#id64)}
   ]]>
  </style>
       <clipPath id="id0">
        <path d="M229913 48587l2276 0 0 3748 -2276 0 0 -3748z"/>
       </clipPath>
       <clipPath id="id1">
        <path d="M231494 48908l2124 0 0 3499 -2124 0 0 -3499z"/>
       </clipPath>
       <clipPath id="id2">
        <path d="M101179 65071l2266 0 0 3730 -2266 0 0 -3730z"/>
       </clipPath>
       <clipPath id="id3">
        <path d="M102752 65390l2114 0 0 3483 -2114 0 0 -3483z"/>
       </clipPath>
       <clipPath id="id4">
        <path d="M165933 64887l2278 0 0 3747 -2278 0 0 -3747z"/>
       </clipPath>
       <clipPath id="id5">
        <path d="M167516 65208l2121 0 0 3498 -2121 0 0 -3498z"/>
       </clipPath>
       <clipPath id="id6">
        <path d="M198879 47580l2277 0 0 3748 -2277 0 0 -3748z"/>
       </clipPath>
       <clipPath id="id7">
        <path d="M200460 47901l2124 0 0 3500 -2124 0 0 -3500z"/>
       </clipPath>
       <clipPath id="id8">
        <path d="M68503 47930l2277 0 0 3748 -2277 0 0 -3748z"/>
       </clipPath>
       <clipPath id="id9">
        <path d="M70084 48250l2124 0 0 3500 -2124 0 0 -3500z"/>
       </clipPath>
       <clipPath id="id10">
        <path d="M66189 82958l2266 0 0 3730 -2266 0 0 -3730z"/>
       </clipPath>
       <clipPath id="id11">
        <path d="M67762 83277l2113 0 0 3483 -2113 0 0 -3483z"/>
       </clipPath>
       <clipPath id="id12">
        <path d="M232203 66691l2277 0 0 3747 -2277 0 0 -3747z"/>
       </clipPath>
       <clipPath id="id13">
        <path d="M233784 67012l2124 0 0 3499 -2124 0 0 -3499z"/>
       </clipPath>
      <clipPath id="id14">
       <path d="M22982 3388l3592 0 0 5920 -3592 0 0 -5920z"/>
      </clipPath>
      <clipPath id="id15">
       <path d="M25477 3895l3347 0 0 5527 -3347 0 0 -5527z"/>
      </clipPath>
  <linearGradient id="id16" gradientUnits="userSpaceOnUse" x1="68222.4" y1="86274.4" x2="69415.3" y2="83762.9">
   <stop offset="0" style="stop-opacity:1; stop-color:#B3B3B3"/>
   <stop offset="1" style="stop-opacity:1; stop-color:white"/>
  </linearGradient>
  <linearGradient id="id17" gradientUnits="userSpaceOnUse" x1="199226" y1="50732" x2="200809" y2="48175.9">
   <stop offset="0" style="stop-opacity:1; stop-color:#957417"/>
   <stop offset="1" style="stop-opacity:1; stop-color:#FFFF51"/>
  </linearGradient>
  <linearGradient id="id18" gradientUnits="userSpaceOnUse" xlink:href="#id17" x1="70546.7" y1="51262.1" x2="71745.9" y2="48738.5">
  </linearGradient>
  <linearGradient id="id19" gradientUnits="userSpaceOnUse" xlink:href="#id17" x1="232550" y1="69842.4" x2="234133" y2="67286.2">
  </linearGradient>
  <linearGradient id="id20" gradientUnits="userSpaceOnUse" xlink:href="#id16" x1="103212" y1="68387.3" x2="104406" y2="65875.8">
  </linearGradient>
  <linearGradient id="id21" gradientUnits="userSpaceOnUse" xlink:href="#id17" x1="234247" y1="70023.3" x2="235446" y2="67499.8">
  </linearGradient>
  <linearGradient id="id22" gradientUnits="userSpaceOnUse" x1="67362.9" y1="90728.2" x2="67362.9" y2="82335">
   <stop offset="0" style="stop-opacity:1; stop-color:#CCCCCC"/>
   <stop offset="1" style="stop-opacity:1; stop-color:white"/>
  </linearGradient>
  <linearGradient id="id23" gradientUnits="userSpaceOnUse" xlink:href="#id16" x1="67357.1" y1="91337.2" x2="67357.1" y2="81744.8">
  </linearGradient>
  <linearGradient id="id24" gradientUnits="userSpaceOnUse" xlink:href="#id16" x1="102348" y1="73449.6" x2="102348" y2="63857.7">
  </linearGradient>
  <linearGradient id="id25" gradientUnits="userSpaceOnUse" xlink:href="#id17" x1="232341" y1="67683.9" x2="232754" y2="66788.7">
  </linearGradient>
  <linearGradient id="id26" gradientUnits="userSpaceOnUse" xlink:href="#id17" x1="166072" y1="65879.3" x2="166485" y2="64984.6">
  </linearGradient>
  <linearGradient id="id27" gradientUnits="userSpaceOnUse" xlink:href="#id17" x1="231612" y1="49584.6" x2="232025" y2="48689.4">
  </linearGradient>
  <linearGradient id="id28" gradientUnits="userSpaceOnUse" xlink:href="#id17" x1="230051" y1="49580.1" x2="230463" y2="48685">
  </linearGradient>
  <linearGradient id="id29" gradientUnits="userSpaceOnUse" x1="167108" y1="73306.1" x2="167108" y2="63667.8">
   <stop offset="0" style="stop-opacity:1; stop-color:#8E6D1C"/>
   <stop offset="1" style="stop-opacity:1; stop-color:#FAFA0A"/>
  </linearGradient>
  <linearGradient id="id30" gradientUnits="userSpaceOnUse" xlink:href="#id17" x1="67492.2" y1="51204.1" x2="68691.3" y2="48680.5">
  </linearGradient>
  <linearGradient id="id31" gradientUnits="userSpaceOnUse" xlink:href="#id17" x1="233903" y1="67688.3" x2="234315" y2="66793.2">
  </linearGradient>
  <linearGradient id="id32" gradientUnits="userSpaceOnUse" xlink:href="#id16" x1="101316" y1="66059" x2="101727" y2="65168.3">
  </linearGradient>
  <linearGradient id="id33" gradientUnits="userSpaceOnUse" xlink:href="#id16" x1="67879.6" y1="83950.5" x2="68290.1" y2="83059.9">
  </linearGradient>
  <linearGradient id="id34" gradientUnits="userSpaceOnUse" xlink:href="#id16" x1="102870" y1="66063.4" x2="103281" y2="65172.8">
  </linearGradient>
  <linearGradient id="id35" gradientUnits="userSpaceOnUse" xlink:href="#id29" x1="69677.9" y1="56348.9" x2="69677.9" y2="46710.6">
  </linearGradient>
  <linearGradient id="id36" gradientUnits="userSpaceOnUse" xlink:href="#id22" x1="102353" y1="72841.1" x2="102353" y2="64447.9">
  </linearGradient>
  <linearGradient id="id37" gradientUnits="userSpaceOnUse" xlink:href="#id17" x1="197868" y1="50854.6" x2="199067" y2="48331.5">
  </linearGradient>
  <linearGradient id="id38" gradientUnits="userSpaceOnUse" xlink:href="#id29" x1="69683.7" y1="55737.3" x2="69683.7" y2="47303.5">
  </linearGradient>
  <linearGradient id="id39" gradientUnits="userSpaceOnUse" xlink:href="#id29" x1="200059" y1="55387.8" x2="200059" y2="46954.9">
  </linearGradient>
  <linearGradient id="id40" gradientUnits="userSpaceOnUse" xlink:href="#id17" x1="68641.4" y1="48922.6" x2="69053.8" y2="48027.5">
  </linearGradient>
  <linearGradient id="id41" gradientUnits="userSpaceOnUse" xlink:href="#id29" x1="167114" y1="72694.5" x2="167114" y2="64260.7">
  </linearGradient>
  <linearGradient id="id42" gradientUnits="userSpaceOnUse" xlink:href="#id17" x1="164923" y1="68161.3" x2="166122" y2="65638.2">
  </linearGradient>
  <linearGradient id="id43" gradientUnits="userSpaceOnUse" xlink:href="#id29" x1="200053" y1="55999.9" x2="200053" y2="46361.6">
  </linearGradient>
  <linearGradient id="id44" gradientUnits="userSpaceOnUse" xlink:href="#id17" x1="199017" y1="48573.1" x2="199430" y2="47678.4">
  </linearGradient>
  <linearGradient id="id45" gradientUnits="userSpaceOnUse" xlink:href="#id17" x1="68850.9" y1="51081.1" x2="70432.6" y2="48525">
  </linearGradient>
  <linearGradient id="id46" gradientUnits="userSpaceOnUse" xlink:href="#id17" x1="166282" y1="68038.3" x2="167863" y2="65482.1">
  </linearGradient>
  <linearGradient id="id47" gradientUnits="userSpaceOnUse" xlink:href="#id29" x1="231087" y1="57006.4" x2="231087" y2="47368.1">
  </linearGradient>
  <linearGradient id="id48" gradientUnits="userSpaceOnUse" xlink:href="#id17" x1="230260" y1="51738.6" x2="231842" y2="49182.5">
  </linearGradient>
  <linearGradient id="id49" gradientUnits="userSpaceOnUse" xlink:href="#id16" x1="66326" y1="83946.1" x2="66736.6" y2="83055.4">
  </linearGradient>
  <linearGradient id="id50" gradientUnits="userSpaceOnUse" xlink:href="#id29" x1="231093" y1="56394.8" x2="231093" y2="47961">
  </linearGradient>
  <linearGradient id="id51" gradientUnits="userSpaceOnUse" xlink:href="#id29" x1="233384" y1="74498.6" x2="233384" y2="66064.8">
  </linearGradient>
  <linearGradient id="id52" gradientUnits="userSpaceOnUse" xlink:href="#id17" x1="200922" y1="50913" x2="202122" y2="48389.4">
  </linearGradient>
  <linearGradient id="id53" gradientUnits="userSpaceOnUse" xlink:href="#id17" x1="200578" y1="48578" x2="200991" y2="47682.9">
  </linearGradient>
  <linearGradient id="id54" gradientUnits="userSpaceOnUse" xlink:href="#id16" x1="100172" y1="68329.8" x2="101366" y2="65817.8">
  </linearGradient>
  <linearGradient id="id55" gradientUnits="userSpaceOnUse" xlink:href="#id29" x1="233378" y1="75110.2" x2="233378" y2="65471.9">
  </linearGradient>
  <linearGradient id="id56" gradientUnits="userSpaceOnUse" xlink:href="#id17" x1="231192" y1="69965.4" x2="232391" y2="67441.8">
  </linearGradient>
  <linearGradient id="id57" gradientUnits="userSpaceOnUse" xlink:href="#id17" x1="231956" y1="51919.6" x2="233155" y2="49396">
  </linearGradient>
  <linearGradient id="id58" gradientUnits="userSpaceOnUse" xlink:href="#id17" x1="228902" y1="51861.6" x2="230101" y2="49338.1">
  </linearGradient>
  <linearGradient id="id59" gradientUnits="userSpaceOnUse" xlink:href="#id16" x1="65182.1" y1="86216.9" x2="66375.9" y2="83705.4">
  </linearGradient>
  <linearGradient id="id60" gradientUnits="userSpaceOnUse" xlink:href="#id17" x1="70202.5" y1="48927" x2="70615.3" y2="48031.9">
  </linearGradient>
  <linearGradient id="id61" gradientUnits="userSpaceOnUse" xlink:href="#id17" x1="167633" y1="65884.2" x2="168046" y2="64989.1">
  </linearGradient>
  <linearGradient id="id62" gradientUnits="userSpaceOnUse" xlink:href="#id16" x1="101524" y1="68207.2" x2="103099" y2="65663.1">
  </linearGradient>
  <linearGradient id="id63" gradientUnits="userSpaceOnUse" xlink:href="#id16" x1="66533.7" y1="86094.3" x2="68108.3" y2="83550.7">
  </linearGradient>
  <linearGradient id="id64" gradientUnits="userSpaceOnUse" xlink:href="#id17" x1="167977" y1="68218.8" x2="169176" y2="65695.7">
  </linearGradient>
 </defs>
 <g id="NextSlide">
  <metadata id="CorelCorpID_0Corel-Layer"/>
  <g id="_2653697907520">
   <g>
    <g>
     <rect class="fil0 str0" transform="matrix(5.01493E-14 -1.89353 2.41407 6.39356E-14 20039.8 129234)" width="67938" height="94735"/>
     <path class="fil1 str0" d="M20039 129631l0 -129436c-5592,62 -9306,179 -14899,241 -2242,241 -4013,1600 -4951,5516l0 117922c1786,5757 4169,5360 7345,5565l12505 192z"/>
     <path class="fil1 str0" d="M248339 394l0 129039c5593,-62 9306,-180 14899,-242 2243,-240 4013,-1600 4952,-5515l0 -117922c-1787,-5757 -4169,-5360 -7345,-5565l-12506 205z"/>
    </g>
    <rect class="fil2" transform="matrix(3.45696E-14 -1.30527 1.30527 3.45696E-14 20039.6 129234)" width="98708" height="174906"/>
    <line class="fil0 str1" x1="20040" y1="128741" x2="251545" y2= "128896" />
    <line class="fil0 str1" x1="20634" y1="1033" x2="252139" y2= "1188" />
   </g>
   <rect class="fil3" transform="matrix(3.45696E-14 -1.30527 1.30527 3.45696E-14 20799 128523)" width="97724" height="174906"/>
   <rect class="fil4 str2" x="62850" y="14634" width="73282" height="9910"/>
   <rect class="fil3 str3" x="137395" y="14681" width="73282" height="9910"/>
   <path class="fil5" d="M97366 20260l625 151c-130,490 -365,861 -704,1118 -339,256 -753,385 -1243,385 -507,0 -919,-98 -1237,-296 -318,-197 -560,-483 -725,-857 -166,-375 -249,-776 -249,-1205 0,-469 93,-877 281,-1226 187,-349 453,-614 799,-795 345,-181 726,-271 1141,-271 471,0 867,114 1188,343 321,230 544,551 670,966l-611 138c-109,-326 -268,-565 -475,-714 -208,-150 -468,-224 -784,-224 -360,0 -663,82 -905,248 -243,166 -414,389 -511,667 -99,280 -148,568 -148,865 0,382 58,716 174,1001 116,286 297,498 543,640 246,141 511,211 797,211 349,0 643,-96 884,-288 241,-192 405,-477 490,-857z"/>
   <path id="1" class="fil5" d="M98689 21839l0 -4500 580 0 0 1619c269,-300 608,-450 1018,-450 251,0 469,47 655,143 186,95 318,226 399,393 79,168 119,412 119,731l0 2064 -579 0 0 -2062c0,-276 -62,-477 -186,-603 -125,-126 -301,-188 -529,-188 -170,0 -330,41 -480,127 -150,84 -257,200 -322,345 -63,144 -95,345 -95,601l0 1780 -580 0z"/>
   <path id="2" class="fil5" d="M102349 17968l0 -629 579 0 0 629 -579 0zm0 3871l0 -3262 579 0 0 3262 -579 0z"/>
   <path id="3" class="fil5" d="M105068 21345l79 489c-162,32 -308,49 -435,49 -209,0 -372,-32 -488,-95 -116,-64 -197,-147 -244,-251 -47,-103 -70,-321 -70,-653l0 -1879 -427 0 0 -428 427 0 0 -806 579 -332 0 1138 579 0 0 428 -579 0 0 1910c0,158 10,260 30,305 21,45 54,80 99,108 47,26 112,40 198,40 64,0 148,-8 252,-23z"/>
   <path id="4" class="fil6 str4" d="M97366 20260l625 151c-130,490 -365,861 -704,1118 -339,256 -753,385 -1243,385 -507,0 -919,-98 -1237,-296 -318,-197 -560,-483 -725,-857 -166,-375 -249,-776 -249,-1205 0,-469 93,-877 281,-1226 187,-349 453,-614 799,-795 345,-181 726,-271 1141,-271 471,0 867,114 1188,343 321,230 544,551 670,966l-611 138c-109,-326 -268,-565 -475,-714 -208,-150 -468,-224 -784,-224 -360,0 -663,82 -905,248 -243,166 -414,389 -511,667 -99,280 -148,568 -148,865 0,382 58,716 174,1001 116,286 297,498 543,640 246,141 511,211 797,211 349,0 643,-96 884,-288 241,-192 405,-477 490,-857z"/>
   <path id="5" class="fil6 str4" d="M98689 21839l0 -4500 580 0 0 1619c269,-300 608,-450 1018,-450 251,0 469,47 655,143 186,95 318,226 399,393 79,168 119,412 119,731l0 2064 -579 0 0 -2062c0,-276 -62,-477 -186,-603 -125,-126 -301,-188 -529,-188 -170,0 -330,41 -480,127 -150,84 -257,200 -322,345 -63,144 -95,345 -95,601l0 1780 -580 0z"/>
   <path id="6" class="fil6 str4" d="M102349 17968l0 -629 579 0 0 629 -579 0zm0 3871l0 -3262 579 0 0 3262 -579 0z"/>
   <path id="7" class="fil6 str4" d="M105068 21345l79 489c-162,32 -308,49 -435,49 -209,0 -372,-32 -488,-95 -116,-64 -197,-147 -244,-251 -47,-103 -70,-321 -70,-653l0 -1879 -427 0 0 -428 427 0 0 -806 579 -332 0 1138 579 0 0 428 -579 0 0 1910c0,158 10,260 30,305 21,45 54,80 99,108 47,26 112,40 198,40 64,0 148,-8 252,-23z"/>
   <polygon class="fil7" points="165708,21276 165708,16776 166333,16776 166333,20748 168650,20748 168650,21276 "/>
   <path id="1" class="fil7" d="M171651 20220l599 76c-93,332 -267,590 -522,774 -254,183 -579,275 -975,275 -498,0 -893,-147 -1184,-440 -292,-292 -438,-704 -438,-1233 0,-547 147,-972 442,-1274 295,-302 678,-453 1149,-453 455,0 826,148 1114,444 289,296 434,713 434,1251 0,32 -1,81 -3,147l-2544 0c22,357 127,631 319,821 189,189 427,285 711,285 211,0 393,-54 542,-160 150,-107 269,-278 356,-513zm-1895 -886l1902 0c-25,-274 -99,-480 -218,-617 -184,-212 -422,-319 -715,-319 -266,0 -488,84 -669,254 -180,170 -280,397 -300,682z"/>
   <path id="2" class="fil7" d="M175186 21276l0 -414c-216,322 -534,483 -954,483 -272,0 -522,-71 -749,-215 -228,-142 -405,-342 -531,-598 -125,-256 -187,-551 -187,-884 0,-325 56,-619 169,-884 115,-264 284,-467 511,-607 226,-142 481,-212 761,-212 205,0 389,42 549,125 160,82 291,192 391,324l0 -1618 579 0 0 4500 -539 0zm-1829 -1627c0,417 92,728 277,935 184,206 403,309 654,309 253,0 468,-99 646,-296 176,-197 265,-497 265,-902 0,-444 -90,-771 -271,-979 -180,-208 -402,-312 -666,-312 -259,0 -473,99 -646,299 -172,200 -259,516 -259,946z"/>
   <path id="3" class="fil7" d="M176535 21546l559 75c23,166 89,287 196,363 144,101 341,153 590,153 267,0 474,-52 620,-153 146,-102 245,-245 296,-429 30,-111 44,-347 42,-707 -253,285 -568,428 -946,428 -469,0 -833,-161 -1090,-485 -257,-323 -386,-710 -386,-1162 0,-311 60,-598 177,-861 117,-263 288,-465 512,-608 224,-144 487,-215 790,-215 402,0 734,157 996,471l0 -402 533 0 0 2817c0,508 -54,867 -163,1079 -107,211 -279,379 -513,501 -235,123 -523,185 -865,185 -407,0 -735,-87 -985,-262 -252,-174 -372,-437 -363,-788zm474 -1956c0,426 89,737 266,933 179,196 402,294 669,294 267,0 489,-97 671,-292 179,-195 269,-501 269,-918 0,-398 -93,-698 -278,-901 -186,-201 -410,-302 -671,-302 -257,0 -476,99 -656,298 -181,199 -270,495 -270,888z"/>
   <path id="4" class="fil7" d="M182630 20220l599 76c-93,332 -268,590 -522,774 -254,183 -579,275 -975,275 -498,0 -892,-147 -1184,-440 -292,-292 -438,-704 -438,-1233 0,-547 147,-972 442,-1274 295,-302 678,-453 1148,-453 455,0 827,148 1115,444 289,296 434,713 434,1251 0,32 -1,81 -4,147l-2543 0c22,357 128,631 318,821 190,189 428,285 712,285 212,0 393,-54 542,-160 150,-107 268,-278 356,-513zm-1895 -886l1902 0c-26,-274 -99,-480 -218,-617 -184,-212 -423,-319 -715,-319 -266,0 -489,84 -670,254 -179,170 -279,397 -299,682z"/>
   <path id="5" class="fil7" d="M183954 21276l0 -3262 520 0 0 500c132,-231 255,-384 369,-458 112,-74 236,-111 371,-111 195,0 394,59 596,175l-207 510c-140,-75 -280,-113 -421,-113 -126,0 -239,37 -338,109 -100,72 -172,173 -214,302 -65,195 -97,410 -97,644l0 1704 -579 0z"/>
   <polygon id="6" class="fil6 str5" points="165708,21276 165708,16776 166333,16776 166333,20748 168650,20748 168650,21276 "/>
   <path id="7" class="fil6 str5" d="M171651 20220l599 76c-93,332 -267,590 -522,774 -254,183 -579,275 -975,275 -498,0 -893,-147 -1184,-440 -292,-292 -438,-704 -438,-1233 0,-547 147,-972 442,-1274 295,-302 678,-453 1149,-453 455,0 826,148 1114,444 289,296 434,713 434,1251 0,32 -1,81 -3,147l-2544 0c22,357 127,631 319,821 189,189 427,285 711,285 211,0 393,-54 542,-160 150,-107 269,-278 356,-513zm-1895 -886l1902 0c-25,-274 -99,-480 -218,-617 -184,-212 -422,-319 -715,-319 -266,0 -488,84 -669,254 -180,170 -280,397 -300,682z"/>
   <path id="8" class="fil6 str5" d="M175186 21276l0 -414c-216,322 -534,483 -954,483 -272,0 -522,-71 -749,-215 -228,-142 -405,-342 -531,-598 -125,-256 -187,-551 -187,-884 0,-325 56,-619 169,-884 115,-264 284,-467 511,-607 226,-142 481,-212 761,-212 205,0 389,42 549,125 160,82 291,192 391,324l0 -1618 579 0 0 4500 -539 0zm-1829 -1627c0,417 92,728 277,935 184,206 403,309 654,309 253,0 468,-99 646,-296 176,-197 265,-497 265,-902 0,-444 -90,-771 -271,-979 -180,-208 -402,-312 -666,-312 -259,0 -473,99 -646,299 -172,200 -259,516 -259,946z"/>
   <path id="9" class="fil6 str5" d="M176535 21546l559 75c23,166 89,287 196,363 144,101 341,153 590,153 267,0 474,-52 620,-153 146,-102 245,-245 296,-429 30,-111 44,-347 42,-707 -253,285 -568,428 -946,428 -469,0 -833,-161 -1090,-485 -257,-323 -386,-710 -386,-1162 0,-311 60,-598 177,-861 117,-263 288,-465 512,-608 224,-144 487,-215 790,-215 402,0 734,157 996,471l0 -402 533 0 0 2817c0,508 -54,867 -163,1079 -107,211 -279,379 -513,501 -235,123 -523,185 -865,185 -407,0 -735,-87 -985,-262 -252,-174 -372,-437 -363,-788zm474 -1956c0,426 89,737 266,933 179,196 402,294 669,294 267,0 489,-97 671,-292 179,-195 269,-501 269,-918 0,-398 -93,-698 -278,-901 -186,-201 -410,-302 -671,-302 -257,0 -476,99 -656,298 -181,199 -270,495 -270,888z"/>
   <path id="10" class="fil6 str5" d="M182630 20220l599 76c-93,332 -268,590 -522,774 -254,183 -579,275 -975,275 -498,0 -892,-147 -1184,-440 -292,-292 -438,-704 -438,-1233 0,-547 147,-972 442,-1274 295,-302 678,-453 1148,-453 455,0 827,148 1115,444 289,296 434,713 434,1251 0,32 -1,81 -4,147l-2543 0c22,357 128,631 318,821 190,189 428,285 712,285 212,0 393,-54 542,-160 150,-107 268,-278 356,-513zm-1895 -886l1902 0c-26,-274 -99,-480 -218,-617 -184,-212 -423,-319 -715,-319 -266,0 -489,84 -670,254 -179,170 -279,397 -299,682z"/>
   <path id="11" class="fil6 str5" d="M183954 21276l0 -3262 520 0 0 500c132,-231 255,-384 369,-458 112,-74 236,-111 371,-111 195,0 394,59 596,175l-207 510c-140,-75 -280,-113 -421,-113 -126,0 -239,37 -338,109 -100,72 -172,173 -214,302 -65,195 -97,410 -97,644l0 1704 -579 0z"/>
   <rect class="fil8 str6" x="54493" y="43262" width="31004" height="16122"/>
   <rect class="fil2 str6" x="22115" y="43191" width="31004" height="16122"/>
   <rect class="fil2 str6" x="119513" y="43372" width="31004" height="16122"/>
   <rect class="fil2 str6" x="87136" y="43301" width="31004" height="16122"/>
   <rect class="fil2 str6" x="152315" y="43290" width="31004" height="16122"/>
   <rect class="fil9 str6" x="217336" y="43400" width="31004" height="16122"/>
   <rect class="fil9 str6" x="184959" y="43329" width="31004" height="16122"/>
   <path class="fil10" d="M209312 45721l-317 0 0 -1046c-76,38 -176,76 -300,113 -122,38 -234,66 -333,85l0 -159c177,-42 331,-95 465,-157 132,-61 226,-120 281,-178l204 0 0 1342z"/>
   <g>
    <ellipse class="fil11 str7" cx="231087" cy="52187" rx="5046" ry="4819"/>
    <ellipse class="fil12 str8" cx="231093" cy="52178" rx="4415" ry="4217"/>
    <g>
     <g>
      <g style="clip-path:url(#id0)">
       <image x="229913" y="48587" width="2277" height="3747" xlink:href="phoneLandscape_Images\phoneLandscape_ImgID1.png"/>
      </g>
     </g>
     <path class="fil13" d="M230926 48849c123,289 212,596 334,884 69,8 94,-106 89,-299 160,147 243,407 321,677 434,767 301,1378 -266,1870 -232,121 -464,114 -696,24 -518,-350 -756,-994 -260,-1901 43,-172 92,-343 198,-511 33,136 72,258 150,280 32,-335 98,-688 130,-1024z"/>
     <path class="fil14" d="M229974 49096c115,226 185,395 344,474 -208,370 -388,740 -596,1110 159,309 291,619 450,928 -139,165 -278,331 -417,497 -372,-426 -699,-978 -1070,-1403 424,-578 865,-1029 1289,-1606z"/>
     <g>
      <g style="clip-path:url(#id1)">
       <image x="231494" y="48908" width="2124" height="3499" xlink:href="phoneLandscape_Images\phoneLandscape_ImgID2.png"/>
      </g>
     </g>
     <path class="fil15" d="M232083 49153c-115,227 -185,395 -344,475 208,370 409,740 617,1110 -159,309 -312,618 -471,928 139,165 279,331 418,497 371,-426 698,-978 1070,-1403 -425,-578 -866,-1029 -1290,-1607z"/>
     <path class="fil16" d="M230340 49660c78,-75 135,-151 212,-226 0,-271 0,-541 0,-812 -567,-143 -882,616 -212,1038z"/>
     <path class="fil17" d="M231735 49665c-77,-76 -134,-151 -212,-227 0,-270 0,-540 0,-811 568,-144 883,615 212,1038z"/>
    </g>
    <path class="fil18" d="M228881 52911l0 1959 -511 0 0 -1052c0,-152 -4,-243 -11,-274 -8,-30 -29,-54 -63,-70 -34,-15 -110,-23 -228,-23l-51 0 0 -227c248,-51 435,-155 563,-313l301 0z"/>
    <path id="1" class="fil18" d="M230798 53765l-534 0 0 -340c0,-99 -6,-160 -17,-185 -11,-25 -37,-37 -75,-37 -43,0 -71,15 -83,45 -11,30 -17,94 -17,194l0 908c0,95 6,157 17,187 12,29 38,43 79,43 39,0 65,-14 77,-44 12,-29 19,-97 19,-205l0 -246 534 0 0 76c0,203 -16,347 -45,432 -30,85 -97,159 -199,223 -103,64 -229,96 -380,96 -156,0 -284,-27 -386,-81 -101,-54 -169,-129 -201,-225 -33,-95 -50,-239 -50,-431l0 -572c0,-141 6,-247 16,-317 10,-71 40,-139 90,-204 50,-65 120,-117 209,-154 89,-38 192,-57 307,-57 157,0 287,29 389,87 102,58 169,130 202,217 32,87 48,221 48,404l0 186z"/>
    <path id="2" class="fil18" d="M231484 52911l0 441c44,-38 92,-68 142,-87 52,-20 106,-29 165,-29 89,0 165,21 229,65 62,43 101,93 115,150 14,57 21,161 21,312l0 1107 -511 0 0 -1130c0,-93 -5,-153 -15,-180 -10,-27 -32,-40 -66,-40 -31,0 -53,14 -64,41 -10,28 -16,82 -16,164l0 1145 -511 0 0 -1959 511 0z"/>
    <path id="3" class="fil18" d="M232858 52911l0 255 -526 0 0 -255 526 0zm0 354l0 1605 -526 0 0 -1605 526 0z"/>
    <path id="4" class="fil18" d="M233579 53052l0 253 143 0 0 255 -143 0 0 858c0,105 6,164 17,176 12,12 60,18 146,18l0 258 -207 0c-117,0 -200,-5 -250,-14 -50,-9 -93,-31 -132,-64 -38,-34 -61,-72 -71,-115 -9,-43 -14,-144 -14,-303l0 -814 -109 0 0 -255 109 0 0 -253 511 0z"/>
    <path class="fil19" d="M228842 52874l0 1959 -511 0 0 -1052c0,-152 -4,-243 -11,-274 -8,-30 -29,-54 -63,-70 -34,-15 -110,-23 -228,-23l-51 0 0 -227c247,-51 435,-155 563,-313l301 0z"/>
    <path id="1" class="fil19" d="M230758 53728l-534 0 0 -340c0,-99 -5,-160 -16,-185 -11,-25 -37,-37 -75,-37 -43,0 -71,15 -82,45 -12,30 -18,94 -18,194l0 908c0,95 6,157 18,187 11,29 37,43 78,43 39,0 65,-14 78,-44 12,-29 17,-97 17,-205l0 -246 534 0 0 76c0,203 -14,347 -44,432 -30,85 -97,159 -199,223 -103,64 -229,96 -380,96 -155,0 -284,-27 -386,-81 -101,-54 -168,-129 -201,-225 -33,-95 -50,-239 -50,-431l0 -572c0,-141 6,-247 16,-317 10,-71 40,-139 90,-204 51,-65 120,-117 209,-154 89,-38 192,-57 308,-57 156,0 286,29 388,87 102,58 169,130 201,217 33,87 48,221 48,404l0 186z"/>
    <path id="2" class="fil19" d="M231445 52874l0 441c44,-38 92,-68 143,-87 51,-20 105,-29 164,-29 89,0 165,21 228,65 63,43 102,93 116,150 14,57 21,161 21,312l0 1107 -512 0 0 -1130c0,-93 -4,-153 -14,-180 -10,-27 -31,-40 -66,-40 -31,0 -52,14 -64,41 -10,28 -16,82 -16,164l0 1145 -511 0 0 -1959 511 0z"/>
    <path id="3" class="fil19" d="M232819 52874l0 255 -526 0 0 -255 526 0zm0 354l0 1605 -526 0 0 -1605 526 0z"/>
    <path id="4" class="fil19" d="M233540 53015l0 253 143 0 0 255 -143 0 0 858c0,105 6,164 18,176 11,12 60,18 145,18l0 258 -207 0c-116,0 -200,-5 -250,-14 -50,-9 -94,-31 -132,-64 -37,-34 -62,-72 -71,-115 -9,-43 -14,-144 -14,-303l0 -814 -109 0 0 -255 109 0 0 -253 511 0z"/>
   </g>
   <rect class="fil2 str6" x="54191" y="60607" width="31004" height="16122"/>
   <rect class="fil2 str6" x="21813" y="60535" width="31004" height="16122"/>
   <rect class="fil2 str6" x="119211" y="60717" width="31004" height="16122"/>
   <rect class="fil9 str6" x="86834" y="60646" width="31004" height="16122"/>
   <path class="fil10" d="M111188 63038l-317 0 0 -1046c-76,38 -177,76 -300,113 -123,38 -235,66 -333,85l0 -159c177,-42 331,-95 464,-157 132,-61 226,-120 282,-178l204 0 0 1342z"/>
   <g>
    <ellipse class="fil20 str9" cx="102347" cy="68654" rx="5021" ry="4796"/>
    <ellipse class="fil21 str10" cx="102353" cy="68644" rx="4394" ry="4197"/>
    <g>
     <g>
      <g style="clip-path:url(#id2)">
       <image x="101179" y="65071" width="2266" height="3729" xlink:href="phoneLandscape_Images\phoneLandscape_ImgID3.png"/>
      </g>
     </g>
     <path class="fil22" d="M102187 65332c122,287 211,592 333,879 68,8 94,-105 88,-297 160,145 242,405 320,673 431,763 299,1372 -266,1861 -231,121 -462,114 -692,24 -515,-348 -753,-989 -259,-1891 43,-172 91,-342 198,-510 32,136 71,257 149,279 31,-333 97,-685 129,-1018z"/>
     <path class="fil23" d="M101240 65577c114,225 184,393 342,472 -207,368 -386,737 -593,1105 158,307 289,615 447,923 -138,165 -276,329 -415,494 -370,-423 -695,-973 -1065,-1396 423,-575 861,-1023 1284,-1598z"/>
     <g>
      <g style="clip-path:url(#id3)">
       <image x="102752" y="65390" width="2113" height="3482" xlink:href="phoneLandscape_Images\phoneLandscape_ImgID4.png"/>
      </g>
     </g>
     <path class="fil24" d="M103339 65634c-115,226 -185,393 -343,473 207,368 407,736 614,1104 -158,308 -310,616 -468,924 138,164 276,329 415,494 370,-423 695,-973 1065,-1396 -423,-575 -861,-1024 -1283,-1599z"/>
     <path class="fil25" d="M101604 66139c77,-76 134,-150 211,-226 0,-269 0,-538 0,-808 -565,-142 -878,613 -211,1034z"/>
     <path class="fil26" d="M102992 66143c-77,-75 -134,-150 -211,-225 0,-269 0,-538 0,-808 566,-142 879,613 211,1033z"/>
    </g>
    <path class="fil27" d="M100151 69374l0 1950 -508 0 0 -1047c0,-151 -4,-243 -11,-273 -8,-30 -29,-54 -62,-69 -34,-16 -110,-24 -227,-24l-51 0 0 -226c246,-50 433,-154 560,-311l299 0z"/>
    <path id="1" class="fil27" d="M102059 70224l-531 0 0 -338c0,-98 -6,-160 -17,-185 -11,-24 -37,-36 -75,-36 -43,0 -70,15 -82,45 -12,29 -17,94 -17,192l0 905c0,95 5,156 17,185 12,29 38,43 78,43 40,0 65,-14 78,-43 12,-29 18,-97 18,-205l0 -245 531 0 0 76c0,202 -15,346 -44,430 -30,85 -97,158 -198,222 -102,64 -229,96 -378,96 -155,0 -283,-27 -385,-81 -100,-54 -167,-128 -200,-223 -32,-96 -49,-238 -49,-430l0 -569c0,-140 6,-246 15,-316 11,-70 40,-138 90,-203 50,-65 120,-116 208,-154 88,-37 191,-55 306,-55 156,0 285,29 387,87 101,57 168,129 200,215 33,86 48,220 48,402l0 185z"/>
    <path id="2" class="fil27" d="M102742 69374l0 439c44,-38 91,-67 142,-87 51,-19 106,-29 163,-29 90,0 165,22 228,65 62,43 101,93 115,150 14,57 20,160 20,310l0 1102 -508 0 0 -1125c0,-92 -5,-152 -15,-179 -9,-27 -31,-39 -65,-39 -31,0 -52,13 -63,41 -11,27 -17,81 -17,162l0 1140 -508 0 0 -1950 508 0z"/>
    <path id="3" class="fil27" d="M104110 69374l0 254 -524 0 0 -254 524 0zm0 352l0 1598 -524 0 0 -1598 524 0z"/>
    <path id="4" class="fil27" d="M104827 69515l0 251 142 0 0 254 -142 0 0 854c0,105 6,164 18,175 11,12 60,18 144,18l0 257 -205 0c-117,0 -200,-5 -250,-14 -49,-9 -93,-31 -131,-64 -38,-33 -61,-71 -71,-114 -9,-43 -13,-144 -13,-302l0 -810 -108 0 0 -254 108 0 0 -251 508 0z"/>
    <path class="fil28" d="M100112 69337l0 1950 -508 0 0 -1047c0,-151 -3,-243 -11,-273 -7,-30 -28,-54 -62,-69 -34,-16 -110,-24 -227,-24l-51 0 0 -226c246,-50 433,-154 560,-311l299 0z"/>
    <path id="1" class="fil28" d="M102020 70187l-531 0 0 -338c0,-98 -6,-160 -17,-185 -11,-24 -36,-36 -74,-36 -44,0 -71,15 -83,45 -11,29 -17,94 -17,192l0 905c0,95 6,156 17,185 12,29 38,43 79,43 39,0 65,-14 77,-43 12,-29 18,-97 18,-205l0 -245 531 0 0 76c0,202 -15,346 -44,430 -30,85 -96,158 -198,222 -102,64 -228,96 -378,96 -155,0 -283,-27 -384,-81 -101,-54 -168,-128 -201,-223 -32,-96 -49,-238 -49,-430l0 -569c0,-140 6,-246 16,-316 10,-70 39,-138 90,-203 50,-65 119,-116 207,-154 89,-37 191,-55 306,-55 156,0 285,29 387,87 102,57 168,129 201,215 32,86 47,220 47,402l0 185z"/>
    <path id="2" class="fil28" d="M102703 69337l0 439c44,-38 91,-67 142,-87 51,-19 106,-29 164,-29 89,0 164,22 227,65 62,43 101,93 115,150 14,57 21,160 21,310l0 1102 -509 0 0 -1125c0,-92 -5,-152 -14,-179 -10,-27 -32,-39 -66,-39 -31,0 -52,13 -63,41 -11,27 -17,81 -17,162l0 1140 -508 0 0 -1950 508 0z"/>
    <path id="3" class="fil28" d="M104071 69337l0 254 -524 0 0 -254 524 0zm0 352l0 1598 -524 0 0 -1598 524 0z"/>
    <path id="4" class="fil28" d="M104788 69478l0 251 142 0 0 254 -142 0 0 854c0,105 7,164 18,175 12,12 60,18 145,18l0 257 -206 0c-116,0 -199,-5 -250,-14 -49,-9 -93,-31 -131,-64 -38,-33 -61,-71 -71,-114 -8,-43 -13,-144 -13,-302l0 -810 -108 0 0 -254 108 0 0 -251 508 0z"/>
   </g>
   <rect class="fil8 str6" x="152013" y="60634" width="31004" height="16122"/>
   <g>
    <ellipse class="fil29 str7" cx="167108" cy="68487" rx="5046" ry="4819"/>
    <ellipse class="fil30 str8" cx="167114" cy="68478" rx="4415" ry="4217"/>
    <g>
     <g>
      <g style="clip-path:url(#id4)">
       <image x="165933" y="64887" width="2278" height="3748" xlink:href="phoneLandscape_Images\phoneLandscape_ImgID5.png"/>
      </g>
     </g>
     <path class="fil31" d="M166947 65149c123,289 211,595 334,883 69,9 94,-105 89,-298 160,146 243,407 321,676 434,767 301,1379 -266,1870 -232,122 -465,114 -696,24 -518,-349 -757,-994 -260,-1900 43,-172 92,-344 198,-512 33,137 71,258 150,281 32,-336 98,-689 130,-1024z"/>
     <path class="fil32" d="M165995 65395c115,227 185,395 344,475 -208,370 -388,740 -596,1110 159,309 291,618 450,927 -139,166 -278,331 -417,497 -373,-425 -699,-977 -1071,-1403 425,-577 866,-1028 1290,-1606z"/>
     <g>
      <g style="clip-path:url(#id5)">
       <image x="167516" y="65208" width="2121" height="3498" xlink:href="phoneLandscape_Images\phoneLandscape_ImgID6.png"/>
      </g>
     </g>
     <path class="fil33" d="M168104 65453c-116,227 -186,395 -344,474 207,370 409,740 617,1110 -159,310 -312,619 -471,928 139,166 278,331 417,497 372,-425 698,-977 1071,-1403 -425,-578 -866,-1028 -1290,-1606z"/>
     <path class="fil34" d="M166361 65960c78,-76 135,-151 212,-226 0,-271 0,-542 0,-812 -568,-143 -882,615 -212,1038z"/>
     <path class="fil35" d="M167756 65964c-77,-75 -134,-150 -212,-226 0,-271 0,-541 0,-811 568,-144 882,615 212,1037z"/>
    </g>
    <path class="fil18" d="M164901 69211l0 1958 -510 0 0 -1051c0,-152 -4,-244 -11,-274 -8,-31 -29,-54 -63,-70 -34,-15 -111,-23 -228,-23l-51 0 0 -228c247,-50 435,-155 563,-312l300 0z"/>
    <path id="1" class="fil18" d="M166818 70065l-534 0 0 -340c0,-99 -5,-161 -16,-185 -11,-25 -37,-37 -75,-37 -43,0 -71,15 -83,44 -11,31 -17,95 -17,194l0 909c0,95 6,157 17,186 12,29 38,44 79,44 39,0 65,-15 77,-44 12,-29 18,-98 18,-205l0 -247 534 0 0 77c0,203 -14,347 -44,432 -30,84 -97,159 -199,223 -103,64 -229,95 -380,95 -156,0 -284,-26 -386,-80 -101,-54 -169,-129 -201,-225 -33,-95 -50,-239 -50,-431l0 -572c0,-141 6,-247 16,-317 10,-71 40,-139 90,-205 50,-65 120,-116 209,-154 89,-37 191,-56 307,-56 157,0 287,29 389,87 102,58 169,130 201,217 33,87 48,221 48,404l0 186z"/>
    <path id="2" class="fil18" d="M167505 69211l0 441c44,-39 92,-68 142,-88 52,-19 106,-29 164,-29 90,0 166,22 229,65 63,44 101,94 116,151 13,57 21,161 21,312l0 1106 -511 0 0 -1129c0,-93 -5,-154 -15,-180 -10,-27 -32,-40 -66,-40 -32,0 -53,13 -64,41 -10,27 -16,82 -16,163l0 1145 -511 0 0 -1958 511 0z"/>
    <path id="3" class="fil18" d="M168879 69211l0 255 -526 0 0 -255 526 0zm0 354l0 1604 -526 0 0 -1604 526 0z"/>
    <path id="4" class="fil18" d="M169600 69352l0 252 143 0 0 255 -143 0 0 858c0,106 6,165 17,177 12,12 61,18 146,18l0 257 -207 0c-117,0 -200,-4 -250,-13 -50,-10 -94,-31 -132,-65 -38,-33 -62,-71 -71,-114 -9,-43 -14,-144 -14,-304l0 -814 -109 0 0 -255 109 0 0 -252 511 0z"/>
    <path class="fil19" d="M164863 69174l0 1958 -511 0 0 -1051c0,-152 -4,-244 -11,-274 -8,-31 -28,-54 -63,-70 -34,-15 -110,-23 -228,-23l-51 0 0 -228c248,-50 435,-155 563,-312l301 0z"/>
    <path id="1" class="fil19" d="M166779 70028l-534 0 0 -340c0,-99 -5,-161 -17,-185 -11,-25 -36,-37 -74,-37 -43,0 -71,15 -82,44 -12,31 -18,95 -18,194l0 909c0,95 6,157 18,186 11,29 37,44 78,44 39,0 65,-15 77,-44 13,-29 18,-98 18,-205l0 -247 534 0 0 77c0,203 -15,347 -45,432 -29,84 -96,159 -198,223 -103,64 -230,95 -380,95 -156,0 -285,-26 -386,-80 -101,-54 -169,-129 -201,-225 -33,-95 -50,-239 -50,-431l0 -572c0,-141 6,-247 16,-317 10,-71 40,-139 90,-205 51,-65 120,-116 209,-154 89,-37 192,-56 308,-56 156,0 286,29 388,87 102,58 169,130 201,217 32,87 48,221 48,404l0 186z"/>
    <path id="2" class="fil19" d="M167466 69174l0 441c44,-39 91,-68 142,-88 51,-19 106,-29 165,-29 89,0 166,22 228,65 63,44 102,94 115,151 15,57 22,161 22,312l0 1106 -512 0 0 -1129c0,-93 -4,-154 -14,-180 -10,-27 -32,-40 -66,-40 -31,0 -52,13 -64,41 -10,27 -16,82 -16,163l0 1145 -511 0 0 -1958 511 0z"/>
    <path id="3" class="fil19" d="M168840 69174l0 255 -527 0 0 -255 527 0zm0 354l0 1604 -527 0 0 -1604 527 0z"/>
    <path id="4" class="fil19" d="M169561 69315l0 252 142 0 0 255 -142 0 0 858c0,106 6,165 18,177 11,12 60,18 145,18l0 257 -207 0c-116,0 -200,-4 -250,-13 -50,-10 -94,-31 -132,-65 -38,-33 -62,-71 -71,-114 -9,-43 -14,-144 -14,-304l0 -814 -108 0 0 -255 108 0 0 -252 511 0z"/>
   </g>
   <rect class="fil36 str6" x="217034" y="60745" width="31004" height="16122"/>
   <rect class="fil2 str6" x="184657" y="60673" width="31004" height="16122"/>
   <path class="fil10" d="M209010 63066l-317 0 0 -1046c-75,38 -176,76 -300,113 -123,38 -234,66 -333,85l0 -159c177,-43 332,-95 465,-157 132,-61 226,-120 282,-178l203 0 0 1342z"/>
   <g>
    <ellipse class="fil37 str7" cx="200053" cy="51181" rx="5046" ry="4819"/>
    <ellipse class="fil38 str8" cx="200059" cy="51171" rx="4415" ry="4217"/>
    <g>
     <g>
      <g style="clip-path:url(#id6)">
       <image x="198879" y="47580" width="2277" height="3749" xlink:href="phoneLandscape_Images\phoneLandscape_ImgID7.png"/>
      </g>
     </g>
     <path class="fil39" d="M199892 47843c123,288 212,595 335,883 68,8 94,-105 88,-298 160,146 243,407 321,676 434,767 301,1378 -266,1870 -232,121 -464,114 -696,24 -518,-349 -757,-994 -260,-1900 43,-172 92,-344 198,-512 33,136 72,258 151,280 31,-335 97,-688 129,-1023z"/>
     <path class="fil40" d="M198940 48089c116,226 186,395 344,474 -207,370 -388,740 -596,1110 159,310 291,619 450,928 -139,166 -278,331 -417,497 -372,-425 -698,-978 -1071,-1403 425,-578 866,-1028 1290,-1606z"/>
     <g>
      <g style="clip-path:url(#id7)">
       <image x="200460" y="47901" width="2124" height="3499" xlink:href="phoneLandscape_Images\phoneLandscape_ImgID8.png"/>
      </g>
     </g>
     <path class="fil41" d="M201049 48146c-115,227 -185,396 -344,475 208,370 409,740 617,1110 -159,309 -312,619 -470,928 138,165 277,331 416,497 373,-425 699,-978 1071,-1403 -425,-578 -865,-1029 -1290,-1607z"/>
     <path class="fil42" d="M199307 48653c77,-75 134,-150 212,-226 0,-270 0,-541 0,-811 -569,-144 -883,615 -212,1037z"/>
     <path class="fil43" d="M200701 48658c-77,-75 -134,-151 -212,-226 0,-271 0,-541 0,-812 568,-143 882,616 212,1038z"/>
    </g>
    <path class="fil18" d="M197847 51904l0 1959 -511 0 0 -1051c0,-152 -4,-244 -11,-275 -8,-30 -28,-53 -63,-69 -34,-16 -110,-24 -228,-24l-51 0 0 -227c248,-50 435,-155 563,-313l301 0z"/>
    <path id="1" class="fil18" d="M199763 52759l-534 0 0 -340c0,-100 -5,-161 -16,-186 -11,-24 -37,-37 -75,-37 -43,0 -71,16 -82,45 -12,30 -18,95 -18,194l0 908c0,96 6,158 18,187 11,29 37,43 78,43 39,0 65,-14 78,-43 12,-29 17,-98 17,-205l0 -247 534 0 0 76c0,204 -14,348 -44,432 -30,85 -97,160 -199,224 -103,63 -229,95 -379,95 -156,0 -285,-27 -387,-81 -101,-54 -168,-128 -201,-224 -33,-96 -50,-240 -50,-431l0 -572c0,-142 6,-247 16,-318 10,-71 40,-138 90,-204 51,-65 120,-117 209,-154 89,-38 192,-56 308,-56 156,0 286,29 388,87 102,58 169,130 201,217 33,86 48,221 48,404l0 186z"/>
    <path id="2" class="fil18" d="M200450 51904l0 442c44,-39 92,-68 143,-88 51,-19 105,-29 164,-29 89,0 166,22 228,65 63,44 102,94 116,151 14,57 21,161 21,311l0 1107 -511 0 0 -1129c0,-94 -5,-154 -15,-180 -10,-27 -31,-40 -66,-40 -31,0 -52,13 -64,41 -10,27 -16,81 -16,163l0 1145 -511 0 0 -1959 511 0z"/>
    <path id="3" class="fil18" d="M201824 51904l0 255 -526 0 0 -255 526 0zm0 354l0 1605 -526 0 0 -1605 526 0z"/>
    <path id="4" class="fil18" d="M202545 52046l0 252 143 0 0 255 -143 0 0 858c0,105 6,165 18,177 11,11 60,18 145,18l0 257 -206 0c-117,0 -201,-4 -251,-14 -50,-9 -94,-30 -132,-64 -37,-33 -62,-71 -71,-114 -9,-44 -14,-144 -14,-304l0 -814 -108 0 0 -255 108 0 0 -252 511 0z"/>
    <path class="fil19" d="M197808 51867l0 1959 -511 0 0 -1052c0,-152 -4,-243 -11,-274 -8,-30 -28,-54 -63,-70 -34,-15 -110,-23 -228,-23l-51 0 0 -228c248,-50 435,-154 563,-312l301 0z"/>
    <path id="1" class="fil19" d="M199725 52721l-534 0 0 -340c0,-99 -6,-160 -17,-185 -11,-25 -36,-37 -75,-37 -43,0 -71,15 -82,45 -12,30 -18,94 -18,193l0 909c0,95 6,157 18,187 11,29 37,43 78,43 39,0 65,-14 77,-44 13,-29 19,-97 19,-205l0 -246 534 0 0 76c0,203 -15,347 -45,432 -30,85 -97,159 -199,223 -103,64 -229,96 -379,96 -157,0 -285,-27 -387,-81 -101,-54 -168,-129 -201,-225 -33,-95 -50,-239 -50,-431l0 -572c0,-141 6,-247 16,-317 10,-71 40,-139 91,-204 50,-65 119,-117 208,-155 89,-37 192,-56 308,-56 156,0 286,29 389,87 101,58 168,130 201,217 32,87 48,221 48,404l0 186z"/>
    <path id="2" class="fil19" d="M200411 51867l0 441c44,-38 92,-68 142,-87 52,-20 107,-29 165,-29 90,0 166,21 229,65 62,43 101,93 115,150 14,57 21,161 21,312l0 1107 -511 0 0 -1130c0,-93 -5,-153 -15,-180 -10,-27 -31,-40 -66,-40 -31,0 -52,14 -63,41 -11,28 -17,82 -17,164l0 1145 -511 0 0 -1959 511 0z"/>
    <path id="3" class="fil19" d="M201785 51867l0 255 -526 0 0 -255 526 0zm0 354l0 1605 -526 0 0 -1605 526 0z"/>
    <path id="4" class="fil19" d="M202506 52008l0 253 143 0 0 255 -143 0 0 858c0,105 6,164 18,176 11,12 60,18 145,18l0 258 -207 0c-116,0 -200,-5 -250,-14 -50,-9 -93,-31 -132,-64 -38,-34 -61,-72 -71,-115 -9,-43 -14,-144 -14,-303l0 -814 -108 0 0 -255 108 0 0 -253 511 0z"/>
   </g>
   <rect class="fil8 str6" x="54130" y="78090" width="31004" height="16122"/>
   <rect class="fil2 str6" x="21753" y="78018" width="31004" height="16122"/>
   <g>
    <ellipse class="fil44 str7" cx="69678" cy="51530" rx="5046" ry="4819"/>
    <ellipse class="fil45 str8" cx="69684" cy="51521" rx="4415" ry="4217"/>
    <g>
     <g>
      <g style="clip-path:url(#id8)">
       <image x="68503" y="47930" width="2277" height="3748" xlink:href="phoneLandscape_Images\phoneLandscape_ImgID9.png"/>
      </g>
     </g>
     <path class="fil46" d="M69516 48192c124,288 212,595 335,883 68,9 94,-105 89,-298 160,146 243,407 320,676 434,767 301,1378 -266,1870 -232,121 -464,114 -696,24 -517,-349 -756,-994 -259,-1900 42,-172 91,-344 198,-512 33,136 71,258 150,280 32,-335 98,-688 129,-1023z"/>
     <path class="fil47" d="M68565 48438c115,226 185,395 343,475 -207,370 -387,739 -595,1109 159,310 291,619 449,928 -139,166 -278,331 -417,497 -372,-425 -698,-978 -1070,-1403 424,-578 865,-1028 1290,-1606z"/>
     <g>
      <g style="clip-path:url(#id9)">
       <image x="70084" y="48250" width="2124" height="3499" xlink:href="phoneLandscape_Images\phoneLandscape_ImgID10.png"/>
      </g>
     </g>
     <path class="fil48" d="M70673 48496c-115,226 -185,395 -343,474 207,370 408,740 616,1110 -159,310 -311,619 -470,928 139,165 278,331 417,497 372,-425 698,-978 1070,-1403 -424,-578 -865,-1028 -1290,-1606z"/>
     <path class="fil49" d="M68931 49003c77,-76 134,-151 212,-227 0,-270 0,-541 0,-811 -568,-143 -882,615 -212,1038z"/>
     <path class="fil50" d="M70326 49007c-78,-75 -135,-150 -213,-226 0,-271 0,-541 0,-811 569,-144 883,615 213,1037z"/>
    </g>
    <path class="fil18" d="M67471 52253l0 1959 -511 0 0 -1051c0,-152 -4,-244 -11,-274 -8,-31 -28,-54 -63,-70 -34,-16 -110,-24 -227,-24l-51 0 0 -227c247,-50 435,-155 562,-313l301 0z"/>
    <path id="1" class="fil18" d="M69388 53108l-534 0 0 -340c0,-99 -6,-161 -17,-186 -11,-24 -36,-37 -74,-37 -44,0 -71,16 -83,45 -12,30 -18,95 -18,194l0 908c0,96 6,158 18,187 12,29 38,44 78,44 39,0 66,-15 78,-44 12,-29 18,-98 18,-205l0 -247 534 0 0 76c0,204 -15,348 -45,432 -30,85 -97,160 -199,224 -102,64 -229,95 -379,95 -156,0 -285,-27 -387,-81 -100,-53 -168,-128 -201,-224 -32,-96 -49,-240 -49,-431l0 -572c0,-142 5,-247 15,-318 10,-70 40,-138 91,-204 50,-65 120,-117 209,-154 88,-37 191,-56 307,-56 157,0 286,29 389,87 102,58 169,130 201,217 32,86 48,221 48,404l0 186z"/>
    <path id="2" class="fil18" d="M70075 52253l0 442c43,-39 91,-68 142,-88 51,-19 106,-29 164,-29 90,0 166,22 229,65 62,44 101,94 115,151 14,57 21,161 21,311l0 1107 -511 0 0 -1129c0,-94 -4,-154 -14,-180 -11,-27 -32,-40 -66,-40 -32,0 -53,13 -64,41 -11,27 -16,81 -16,163l0 1145 -512 0 0 -1959 512 0z"/>
    <path id="3" class="fil18" d="M71449 52253l0 255 -527 0 0 -255 527 0zm0 354l0 1605 -527 0 0 -1605 527 0z"/>
    <path id="4" class="fil18" d="M72169 52395l0 252 143 0 0 255 -143 0 0 858c0,105 6,165 18,177 12,11 60,18 146,18l0 257 -207 0c-117,0 -200,-4 -250,-14 -50,-9 -94,-30 -132,-64 -38,-33 -62,-71 -71,-114 -10,-44 -15,-144 -15,-304l0 -814 -108 0 0 -255 108 0 0 -252 511 0z"/>
    <path class="fil19" d="M67432 52216l0 1959 -510 0 0 -1051c0,-152 -4,-244 -12,-274 -8,-31 -28,-54 -62,-70 -35,-16 -111,-24 -228,-24l-51 0 0 -227c247,-50 435,-155 563,-313l300 0z"/>
    <path id="1" class="fil19" d="M69349 53071l-534 0 0 -340c0,-99 -6,-161 -17,-186 -11,-24 -36,-37 -75,-37 -43,0 -70,16 -82,45 -12,30 -18,95 -18,194l0 908c0,96 6,158 18,187 12,29 38,44 78,44 40,0 66,-15 78,-44 12,-29 18,-98 18,-205l0 -247 534 0 0 76c0,204 -15,348 -45,432 -30,85 -96,160 -199,224 -103,64 -229,95 -379,95 -156,0 -285,-27 -386,-81 -101,-53 -169,-128 -202,-224 -32,-96 -49,-240 -49,-431l0 -572c0,-142 5,-247 15,-318 10,-70 40,-138 91,-204 50,-65 120,-117 208,-154 90,-37 192,-56 308,-56 157,0 287,29 389,87 101,58 169,130 201,217 32,86 48,221 48,404l0 186z"/>
    <path id="2" class="fil19" d="M70035 52216l0 442c45,-39 92,-68 143,-88 51,-19 106,-29 164,-29 90,0 166,22 229,65 63,44 101,94 115,151 14,57 21,161 21,311l0 1107 -511 0 0 -1129c0,-94 -5,-154 -14,-180 -11,-27 -32,-40 -66,-40 -32,0 -53,13 -64,41 -11,27 -17,81 -17,163l0 1145 -510 0 0 -1959 510 0z"/>
    <path id="3" class="fil19" d="M71410 52216l0 255 -527 0 0 -255 527 0zm0 354l0 1605 -527 0 0 -1605 527 0z"/>
    <path id="4" class="fil19" d="M72130 52358l0 252 143 0 0 255 -143 0 0 858c0,105 6,165 18,177 12,11 60,18 146,18l0 257 -207 0c-117,0 -200,-4 -250,-14 -50,-9 -94,-30 -133,-64 -37,-33 -61,-71 -70,-114 -10,-44 -14,-144 -14,-304l0 -814 -109 0 0 -255 109 0 0 -252 510 0z"/>
   </g>
   <rect class="fil2 str6" x="119150" y="78200" width="31004" height="16122"/>
   <rect class="fil2 str6" x="86773" y="78129" width="31004" height="16122"/>
   <path class="fil10" d="M111126 80521l-317 0 0 -1046c-75,38 -176,76 -299,113 -123,38 -235,66 -334,85l0 -159c177,-43 332,-95 465,-157 133,-61 226,-120 282,-178l203 0 0 1342z"/>
   <rect class="fil2 str6" x="151953" y="78117" width="31004" height="16122"/>
   <rect class="fil2 str6" x="216973" y="78228" width="31004" height="16122"/>
   <rect class="fil2 str6" x="184596" y="78156" width="31004" height="16122"/>
   <path class="fil10" d="M208949 80549l-317 0 0 -1047c-75,38 -176,76 -299,114 -123,38 -235,66 -334,84l0 -158c177,-43 332,-95 465,-157 132,-61 226,-121 282,-179l203 0 0 1343z"/>
   <rect class="fil2 str6" x="53828" y="95434" width="31004" height="16122"/>
   <rect class="fil2 str6" x="21451" y="95363" width="31004" height="16122"/>
   <rect class="fil2 str6" x="118849" y="95545" width="31004" height="16122"/>
   <rect class="fil2 str6" x="86471" y="95473" width="31004" height="16122"/>
   <path class="fil10" d="M110825 97866l-317 0 0 -1047c-76,38 -176,76 -300,114 -123,38 -234,66 -333,84l0 -158c177,-43 331,-95 465,-157 132,-61 225,-121 281,-179l204 0 0 1343z"/>
   <rect class="fil2 str6" x="151651" y="95462" width="31004" height="16122"/>
   <rect class="fil2 str6" x="216671" y="95572" width="31004" height="16122"/>
   <rect class="fil2 str6" x="184294" y="95501" width="31004" height="16122"/>
   <path class="fil10" d="M208648 97893l-317 0 0 -1046c-76,38 -177,76 -300,113 -123,38 -234,66 -333,85l0 -159c177,-42 331,-95 464,-157 132,-61 226,-120 282,-178l204 0 0 1342z"/>
   <rect class="fil2 str6" x="53176" y="112263" width="31004" height="16122"/>
   <rect class="fil2 str6" x="20799" y="112191" width="31004" height="16122"/>
   <rect class="fil2 str6" x="118197" y="112373" width="31004" height="16122"/>
   <rect class="fil2 str6" x="85820" y="112302" width="31004" height="16122"/>
   <path class="fil10" d="M110173 114694l-317 0 0 -1046c-75,38 -176,76 -300,113 -122,38 -234,66 -333,85l0 -159c177,-42 332,-94 465,-156 132,-62 226,-121 282,-179l203 0 0 1342z"/>
   <rect class="fil2 str6" x="150999" y="112290" width="31004" height="16122"/>
   <rect class="fil2 str6" x="216020" y="112401" width="31004" height="16122"/>
   <rect class="fil2 str6" x="183642" y="112329" width="31004" height="16122"/>
   <path class="fil10" d="M207996 114722l-317 0 0 -1046c-75,38 -176,76 -300,113 -123,38 -234,66 -333,85l0 -159c177,-43 331,-95 465,-157 132,-61 225,-120 282,-178l203 0 0 1342z"/>
   <g>
    <path class="fil51" d="M101830 35695l815 -107c22,503 120,846 294,1033 174,185 417,278 726,278 227,0 424,-50 588,-150 165,-101 280,-237 343,-408 62,-171 92,-446 92,-821l0 -4522 912 0 0 4470c0,548 -69,973 -208,1275 -139,301 -358,530 -660,689 -301,157 -654,237 -1059,237 -603,0 -1063,-165 -1383,-497 -320,-331 -473,-823 -460,-1477z"/>
    <path id="1" class="fil51" d="M110234 37559l0 -707c-387,539 -912,807 -1575,807 -293,0 -566,-53 -821,-160 -254,-108 -442,-243 -566,-405 -123,-163 -209,-361 -259,-597 -33,-158 -51,-409 -51,-751l0 -2943 845 0 0 2631c0,420 17,704 50,849 53,213 165,378 338,498 171,121 382,182 635,182 252,0 489,-61 709,-185 222,-123 378,-293 471,-505 91,-213 137,-522 137,-927l0 -2543 844 0 0 4756 -757 0z"/>
    <polygon id="2" class="fil51" points="112298,37559 112298,30998 113143,30998 113143,37559 "/>
    <path id="3" class="fil51" d="M114410 39387l-95 -746c185,48 345,72 482,72 189,0 339,-30 452,-90 113,-60 206,-143 278,-250 52,-81 139,-281 257,-602 16,-44 40,-110 75,-197l-1890 -4771 902 0 1039 2746c136,346 256,713 363,1098 98,-362 213,-719 347,-1071l1062 -2773 843 0 -1882 4838c-203,521 -362,878 -475,1075 -150,265 -323,459 -517,582 -195,124 -427,185 -695,185 -163,0 -346,-32 -546,-96z"/>
    <path id="4" class="fil51" d="M126104 36789l0 770 -4548 0c-6,-194 27,-381 99,-561 117,-295 304,-586 562,-872 257,-285 625,-615 1103,-990 744,-585 1249,-1047 1513,-1389 265,-343 398,-666 398,-972 0,-319 -120,-588 -360,-808 -240,-218 -553,-328 -939,-328 -407,0 -733,116 -978,348 -245,231 -368,552 -371,962l-863 -82c58,-617 282,-1087 669,-1411 389,-324 908,-486 1562,-486 660,0 1182,174 1566,524 385,350 577,783 577,1300 0,262 -56,520 -169,774 -112,255 -299,522 -560,803 -262,280 -695,666 -1300,1155 -507,406 -833,681 -977,826 -144,145 -262,290 -356,437l3372 0z"/>
    <path id="5" class="fil51" d="M127017 34321c0,-774 83,-1401 249,-1874 169,-475 416,-840 745,-1095 328,-255 742,-382 1241,-382 368,0 691,70 970,212 279,142 509,347 688,614 179,266 320,592 422,974 104,384 155,902 155,1551 0,770 -83,1393 -247,1866 -165,475 -413,840 -742,1097 -328,256 -744,385 -1246,385 -660,0 -1180,-225 -1557,-676 -453,-549 -678,-1439 -678,-2672zm863 3c0,1080 131,1797 395,2152 264,356 591,533 977,533 387,0 713,-179 977,-534 264,-358 395,-1074 395,-2151 0,-1080 -131,-1798 -395,-2152 -262,-356 -591,-533 -986,-533 -387,0 -698,157 -929,470 -290,399 -434,1138 -434,2215z"/>
    <path id="6" class="fil51" d="M135519 37559l-844 0 0 -5135c-203,186 -470,371 -800,556 -329,185 -627,324 -889,415l0 -779c472,-210 884,-467 1238,-769 353,-301 604,-593 751,-877l544 0 0 6589z"/>
    <path id="7" class="fil51" d="M137814 36038l805 -65c69,364 200,626 394,790 193,164 441,246 745,246 259,0 486,-57 682,-171 197,-113 357,-265 480,-455 123,-190 227,-446 312,-768 85,-323 127,-651 127,-986 0,-35 -2,-90 -5,-161 -168,256 -398,465 -689,624 -291,161 -608,240 -947,240 -568,0 -1047,-197 -1441,-591 -391,-392 -589,-912 -589,-1556 0,-666 206,-1201 616,-1607 409,-405 923,-608 1542,-608 444,0 852,115 1223,345 369,229 649,556 841,982 192,425 288,1041 288,1845 0,839 -94,1506 -285,2003 -190,497 -475,875 -850,1134 -376,260 -816,390 -1321,390 -537,0 -976,-142 -1316,-428 -339,-285 -544,-687 -612,-1203zm3443 -2895c0,-461 -127,-827 -383,-1098 -254,-270 -564,-406 -929,-406 -378,0 -703,145 -978,437 -277,292 -415,670 -415,1134 0,417 131,757 392,1016 262,261 589,391 977,391 390,0 710,-130 961,-391 251,-259 375,-621 375,-1083z"/>
    <polygon class="fil52 str11" points="82693,34504 85783,32970 88874,31436 88874,34504 88874,37572 85783,36038 "/>
    <polygon class="fil52 str11" points="162732,34128 159642,32594 156551,31060 156551,34128 156551,37196 159642,35662 "/>
   </g>
   <path class="fil10" d="M147230 63347l-316 0 0 -1046c-76,37 -177,75 -300,113 -123,38 -235,66 -333,85l0 -159c176,-43 331,-95 464,-157 132,-61 226,-120 282,-178l203 0 0 1342z"/>
   <path class="fil10" d="M147169 80830l-317 0 0 -1047c-75,38 -176,76 -299,114 -123,37 -235,66 -334,84l0 -158c177,-43 332,-95 465,-157 132,-61 226,-121 282,-179l203 0 0 1343z"/>
   <path class="fil10" d="M146868 98174l-317 0 0 -1046c-76,38 -176,76 -300,113 -123,38 -234,66 -333,85l0 -159c177,-43 331,-95 465,-157 132,-61 225,-120 281,-178l204 0 0 1342z"/>
   <path class="fil10" d="M146216 115003l-317 0 0 -1047c-75,38 -176,76 -300,113 -123,38 -234,66 -333,85l0 -159c177,-42 332,-94 465,-156 132,-61 226,-121 282,-179l203 0 0 1343z"/>
   <path class="fil10" d="M80434 63347l-317 0 0 -1046c-76,37 -176,75 -300,113 -123,38 -234,66 -333,85l0 -159c177,-43 331,-95 464,-157 133,-61 226,-120 282,-178l204 0 0 1342z"/>
   <path class="fil10" d="M80373 80830l-317 0 0 -1047c-76,38 -176,76 -300,114 -122,37 -234,66 -333,84l0 -158c177,-43 331,-95 465,-157 132,-61 226,-121 281,-179l204 0 0 1343z"/>
   <path class="fil10" d="M80071 98174l-317 0 0 -1046c-75,38 -176,76 -300,113 -122,38 -234,66 -333,85l0 -159c177,-43 332,-95 465,-157 132,-61 226,-120 282,-178l203 0 0 1342z"/>
   <path class="fil10" d="M79420 115003l-317 0 0 -1047c-76,38 -176,76 -300,113 -123,38 -235,66 -333,85l0 -159c177,-42 331,-94 464,-156 133,-61 226,-121 282,-179l204 0 0 1343z"/>
   <path class="fil10" d="M47666 63645l-317 0 0 -1047c-75,38 -176,76 -300,114 -123,37 -234,66 -333,84l0 -158c177,-43 332,-95 465,-157 132,-61 225,-121 282,-179l203 0 0 1343z"/>
   <path class="fil10" d="M47605 81127l-317 0 0 -1046c-75,38 -176,76 -299,113 -123,38 -235,66 -334,85l0 -159c177,-42 332,-95 465,-157 132,-61 226,-120 282,-178l203 0 0 1342z"/>
   <path class="fil10" d="M47304 98472l-317 0 0 -1046c-76,38 -177,75 -300,113 -123,38 -235,66 -333,85l0 -159c177,-43 331,-95 464,-157 132,-61 226,-120 282,-178l204 0 0 1342z"/>
   <path class="fil10" d="M46652 115301l-317 0 0 -1047c-76,38 -176,76 -300,114 -123,38 -234,66 -333,84l0 -158c177,-43 331,-95 464,-157 133,-61 226,-121 282,-179l204 0 0 1343z"/>
   <path class="fil10" d="M176890 46785l-317 0 0 -1047c-75,38 -176,76 -300,114 -122,37 -234,66 -333,84l0 -158c177,-43 332,-95 465,-157 132,-61 226,-121 282,-179l203 0 0 1343z"/>
   <path class="fil10" d="M176588 64129l-317 0 0 -1046c-75,38 -176,76 -299,113 -123,38 -235,66 -334,85l0 -159c177,-43 332,-95 465,-157 132,-61 226,-120 282,-178l203 0 0 1342z"/>
   <path class="fil10" d="M176527 81612l-317 0 0 -1046c-75,38 -176,76 -299,113 -123,38 -235,66 -334,85l0 -159c177,-42 332,-95 465,-157 132,-61 226,-120 282,-178l203 0 0 1342z"/>
   <path class="fil10" d="M176226 98957l-317 0 0 -1046c-76,38 -176,75 -300,113 -123,38 -235,66 -333,85l0 -159c177,-43 331,-95 464,-157 133,-61 226,-120 282,-178l204 0 0 1342z"/>
   <path class="fil10" d="M175574 115785l-317 0 0 -1046c-75,38 -176,76 -300,113 -123,38 -234,66 -333,85l0 -159c177,-42 332,-95 465,-157 132,-61 225,-120 281,-178l204 0 0 1342z"/>
   <path class="fil10" d="M241217 47027l-317 0 0 -1046c-76,38 -177,76 -300,113 -123,38 -234,66 -333,85l0 -159c177,-43 331,-95 465,-157 131,-61 225,-120 281,-178l204 0 0 1342z"/>
   <path class="fil10" d="M240915 64372l-317 0 0 -1047c-76,38 -176,76 -300,114 -123,38 -234,66 -333,84l0 -158c177,-43 331,-95 464,-157 133,-61 226,-121 282,-179l204 0 0 1343z"/>
   <path class="fil10" d="M240854 81855l-317 0 0 -1046c-76,38 -176,75 -300,113 -122,38 -234,66 -333,85l0 -159c177,-43 332,-95 465,-157 132,-61 226,-120 281,-178l204 0 0 1342z"/>
   <path class="fil10" d="M240552 99199l-317 0 0 -1046c-75,38 -176,76 -300,113 -122,38 -234,66 -333,85l0 -159c177,-42 332,-95 465,-156 132,-62 226,-121 282,-179l203 0 0 1342z"/>
   <path class="fil10" d="M239901 116028l-317 0 0 -1046c-76,37 -176,75 -300,113 -123,38 -235,66 -333,85l0 -159c177,-43 331,-95 464,-157 133,-61 226,-120 282,-178l204 0 0 1342z"/>
   <g>
    <ellipse class="fil53 str9" cx="67357" cy="86541" rx="5021" ry="4796"/>
    <ellipse class="fil54 str10" cx="67363" cy="86532" rx="4394" ry="4197"/>
    <g>
     <g>
      <g style="clip-path:url(#id10)">
       <image x="66189" y="82958" width="2266" height="3729" xlink:href="phoneLandscape_Images\phoneLandscape_ImgID11.png"/>
      </g>
     </g>
     <path class="fil55" d="M67197 83219c122,287 210,592 333,879 68,8 93,-105 88,-297 159,146 242,405 319,673 432,764 300,1372 -265,1861 -231,121 -462,114 -692,24 -515,-348 -753,-989 -259,-1891 43,-172 91,-342 197,-509 33,135 72,256 150,279 31,-334 97,-686 129,-1019z"/>
     <path class="fil56" d="M66249 83464c115,225 185,393 343,472 -207,368 -386,737 -593,1105 158,308 289,615 447,923 -138,165 -276,330 -415,495 -370,-424 -695,-973 -1065,-1397 423,-575 861,-1023 1283,-1598z"/>
     <g>
      <g style="clip-path:url(#id11)">
       <image x="67762" y="83277" width="2113" height="3482" xlink:href="phoneLandscape_Images\phoneLandscape_ImgID12.png"/>
      </g>
     </g>
     <path class="fil57" d="M68348 83521c-114,226 -184,394 -342,473 207,368 407,736 614,1104 -159,308 -310,616 -469,924 139,165 277,329 416,494 370,-423 694,-973 1064,-1396 -422,-575 -860,-1024 -1283,-1599z"/>
     <path class="fil58" d="M66614 84026c77,-75 134,-150 211,-225 0,-270 0,-539 0,-808 -565,-143 -878,612 -211,1033z"/>
     <path class="fil59" d="M68002 84030c-77,-75 -134,-150 -211,-225 0,-269 0,-538 0,-808 566,-142 878,613 211,1033z"/>
    </g>
    <path class="fil27" d="M65161 87261l0 1950 -508 0 0 -1047c0,-151 -4,-242 -11,-273 -8,-30 -29,-54 -63,-69 -33,-16 -109,-23 -226,-23l-51 0 0 -227c246,-50 433,-154 560,-311l299 0z"/>
    <path id="1" class="fil27" d="M67069 88111l-531 0 0 -338c0,-98 -6,-160 -17,-184 -11,-24 -37,-37 -75,-37 -43,0 -71,15 -82,45 -12,29 -18,94 -18,192l0 905c0,95 6,156 18,185 11,29 38,43 78,43 40,0 65,-14 77,-43 13,-29 19,-97 19,-204l0 -246 531 0 0 77c0,201 -15,345 -44,429 -31,85 -97,159 -198,222 -103,64 -229,96 -378,96 -156,0 -283,-27 -385,-81 -100,-53 -167,-128 -200,-223 -33,-96 -49,-238 -49,-430l0 -569c0,-140 5,-246 15,-316 10,-70 40,-138 90,-203 50,-65 119,-116 208,-154 88,-37 190,-55 306,-55 156,0 285,29 387,87 101,57 168,129 200,215 32,86 48,220 48,402l0 185z"/>
    <path id="2" class="fil27" d="M67752 87261l0 439c44,-38 91,-67 142,-87 51,-19 105,-29 163,-29 89,0 165,22 227,65 63,43 102,93 116,150 13,57 20,160 20,310l0 1102 -508 0 0 -1124c0,-93 -5,-153 -15,-180 -10,-26 -31,-39 -65,-39 -31,0 -52,13 -64,41 -11,27 -16,81 -16,162l0 1140 -508 0 0 -1950 508 0z"/>
    <path id="3" class="fil27" d="M69119 87261l0 254 -523 0 0 -254 523 0zm0 353l0 1597 -523 0 0 -1597 523 0z"/>
    <path id="4" class="fil27" d="M69837 87402l0 251 142 0 0 254 -142 0 0 854c0,105 6,164 17,175 12,12 60,18 145,18l0 257 -206 0c-116,0 -199,-5 -249,-14 -49,-9 -93,-31 -131,-64 -38,-33 -61,-71 -71,-114 -9,-43 -14,-143 -14,-302l0 -810 -108 0 0 -254 108 0 0 -251 509 0z"/>
    <path class="fil28" d="M65122 87224l0 1950 -508 0 0 -1047c0,-151 -4,-242 -11,-273 -8,-30 -28,-54 -62,-69 -34,-16 -110,-23 -227,-23l-51 0 0 -227c246,-50 433,-154 560,-311l299 0z"/>
    <path id="1" class="fil28" d="M67030 88074l-531 0 0 -338c0,-98 -6,-160 -17,-184 -11,-24 -37,-37 -75,-37 -43,0 -70,15 -82,45 -11,29 -18,94 -18,192l0 905c0,95 7,156 18,185 12,29 38,43 79,43 39,0 64,-14 77,-43 12,-29 18,-97 18,-204l0 -246 531 0 0 77c0,201 -15,345 -44,429 -30,85 -97,159 -198,222 -103,64 -228,96 -378,96 -155,0 -283,-27 -384,-81 -101,-53 -168,-128 -201,-223 -33,-96 -49,-238 -49,-430l0 -569c0,-140 5,-246 15,-316 10,-70 40,-138 90,-203 50,-65 120,-116 208,-154 89,-37 191,-55 306,-55 156,0 285,29 387,87 101,57 168,129 200,215 32,86 48,220 48,402l0 185z"/>
    <path id="2" class="fil28" d="M67713 87224l0 439c44,-38 91,-67 142,-87 51,-19 106,-29 164,-29 89,0 164,22 227,65 62,43 101,93 115,150 13,57 21,160 21,310l0 1102 -509 0 0 -1124c0,-93 -5,-153 -15,-180 -10,-26 -31,-39 -65,-39 -31,0 -52,13 -64,41 -10,27 -16,81 -16,162l0 1140 -508 0 0 -1950 508 0z"/>
    <path id="3" class="fil28" d="M69081 87224l0 254 -524 0 0 -254 524 0zm0 353l0 1597 -524 0 0 -1597 524 0z"/>
    <path id="4" class="fil28" d="M69798 87365l0 251 142 0 0 254 -142 0 0 854c0,105 6,164 18,175 12,12 59,18 144,18l0 257 -205 0c-116,0 -200,-5 -250,-14 -49,-9 -93,-31 -131,-64 -38,-33 -61,-71 -71,-114 -9,-43 -13,-143 -13,-302l0 -810 -108 0 0 -254 108 0 0 -251 508 0z"/>
   </g>
   <g>
    <ellipse class="fil60 str7" cx="233378" cy="70291" rx="5046" ry="4819"/>
    <ellipse class="fil61 str8" cx="233384" cy="70282" rx="4415" ry="4217"/>
    <g>
     <g>
      <g style="clip-path:url(#id12)">
       <image x="232203" y="66691" width="2277" height="3747" xlink:href="phoneLandscape_Images\phoneLandscape_ImgID13.png"/>
      </g>
     </g>
     <path class="fil62" d="M233216 66953c124,289 212,595 335,883 68,9 94,-105 89,-298 160,146 243,407 320,676 434,768 301,1379 -266,1870 -232,122 -464,115 -696,24 -517,-349 -756,-994 -259,-1900 42,-172 91,-344 198,-512 33,137 71,258 150,281 32,-335 97,-689 129,-1024z"/>
     <path class="fil63" d="M232265 67199c115,227 185,395 343,475 -207,370 -388,740 -595,1110 159,309 290,618 449,927 -139,166 -278,332 -417,497 -372,-425 -698,-977 -1070,-1403 424,-577 865,-1028 1290,-1606z"/>
     <g>
      <g style="clip-path:url(#id13)">
       <image x="233784" y="67012" width="2124" height="3499" xlink:href="phoneLandscape_Images\phoneLandscape_ImgID14.png"/>
      </g>
     </g>
     <path class="fil64" d="M234373 67257c-115,227 -185,395 -343,475 207,370 408,740 616,1110 -159,309 -311,618 -470,927 139,166 278,331 417,497 372,-425 698,-977 1070,-1403 -424,-577 -865,-1028 -1290,-1606z"/>
     <path class="fil65" d="M232631 67764c77,-75 134,-151 212,-226 0,-271 0,-542 0,-812 -568,-143 -882,616 -212,1038z"/>
     <path class="fil66" d="M234026 67769c-78,-76 -135,-151 -213,-227 0,-270 0,-541 0,-811 569,-144 883,615 213,1038z"/>
    </g>
    <path class="fil18" d="M231171 71015l0 1959 -511 0 0 -1052c0,-152 -4,-243 -11,-274 -8,-31 -28,-54 -63,-70 -34,-15 -110,-23 -227,-23l-51 0 0 -228c247,-50 434,-154 562,-312l301 0z"/>
    <path id="1" class="fil18" d="M233088 71869l-534 0 0 -340c0,-99 -6,-161 -17,-185 -11,-25 -36,-37 -74,-37 -44,0 -72,15 -83,44 -12,31 -18,95 -18,194l0 909c0,95 6,157 18,187 11,29 38,43 78,43 39,0 66,-14 78,-44 12,-29 18,-98 18,-205l0 -246 534 0 0 76c0,203 -15,347 -45,432 -30,84 -97,159 -199,223 -102,64 -229,95 -379,95 -156,0 -285,-26 -387,-80 -100,-54 -168,-129 -201,-225 -33,-95 -49,-239 -49,-431l0 -572c0,-141 5,-247 15,-317 10,-71 40,-139 91,-204 50,-66 119,-117 208,-155 89,-37 192,-56 308,-56 157,0 286,29 388,87 103,58 170,130 202,217 32,87 48,221 48,404l0 186z"/>
    <path id="2" class="fil18" d="M233775 71015l0 441c43,-39 91,-68 142,-88 51,-19 106,-29 164,-29 90,0 166,22 229,65 62,44 101,94 115,151 14,57 21,161 21,312l0 1107 -511 0 0 -1130c0,-93 -5,-153 -15,-180 -10,-27 -31,-40 -65,-40 -32,0 -53,14 -64,41 -11,27 -16,82 -16,163l0 1146 -512 0 0 -1959 512 0z"/>
    <path id="3" class="fil18" d="M235149 71015l0 255 -527 0 0 -255 527 0zm0 354l0 1605 -527 0 0 -1605 527 0z"/>
    <path id="4" class="fil18" d="M235869 71156l0 252 143 0 0 255 -143 0 0 859c0,105 6,164 18,176 12,12 60,18 145,18l0 258 -206 0c-117,0 -201,-5 -250,-14 -50,-10 -94,-31 -132,-64 -38,-34 -62,-72 -71,-115 -10,-43 -15,-144 -15,-304l0 -814 -108 0 0 -255 108 0 0 -252 511 0z"/>
    <path class="fil19" d="M231132 70978l0 1959 -510 0 0 -1052c0,-152 -5,-243 -12,-274 -8,-31 -28,-54 -63,-70 -34,-15 -110,-23 -228,-23l-50 0 0 -228c247,-50 435,-154 563,-312l300 0z"/>
    <path id="1" class="fil19" d="M233049 71832l-534 0 0 -340c0,-99 -6,-161 -17,-185 -11,-25 -36,-37 -75,-37 -43,0 -70,15 -82,44 -12,31 -18,95 -18,194l0 909c0,95 6,157 18,187 12,29 38,43 78,43 40,0 66,-14 78,-44 12,-29 18,-98 18,-205l0 -246 534 0 0 76c0,203 -15,347 -45,432 -30,84 -96,159 -199,223 -103,64 -229,95 -379,95 -156,0 -285,-26 -386,-80 -102,-54 -169,-129 -202,-225 -32,-95 -49,-239 -49,-431l0 -572c0,-141 5,-247 15,-317 10,-71 40,-139 91,-204 50,-66 120,-117 208,-155 90,-37 192,-56 308,-56 157,0 287,29 389,87 101,58 169,130 201,217 32,87 48,221 48,404l0 186z"/>
    <path id="2" class="fil19" d="M233735 70978l0 441c45,-39 92,-68 143,-88 51,-19 106,-29 164,-29 90,0 166,22 229,65 63,44 101,94 115,151 14,57 21,161 21,312l0 1107 -511 0 0 -1130c0,-93 -5,-153 -14,-180 -11,-27 -32,-40 -66,-40 -32,0 -53,14 -64,41 -11,27 -17,82 -17,163l0 1146 -510 0 0 -1959 510 0z"/>
    <path id="3" class="fil19" d="M235110 70978l0 255 -527 0 0 -255 527 0zm0 354l0 1605 -527 0 0 -1605 527 0z"/>
    <path id="4" class="fil19" d="M235830 71119l0 252 143 0 0 255 -143 0 0 859c0,105 6,164 18,176 12,12 60,18 146,18l0 258 -207 0c-117,0 -200,-5 -250,-14 -50,-10 -94,-31 -133,-64 -37,-34 -61,-72 -70,-115 -10,-43 -14,-144 -14,-304l0 -814 -109 0 0 -255 109 0 0 -252 510 0z"/>
   </g>
   <g>
    <ellipse class="fil67" cx="232710" cy="116192" rx="8326" ry="7953"/>
    <polygon class="fil68" points="231569,111031 233205,111031 233205,115543 237926,115543 237926,117015 233205,117015 233205,121523 231569,121523 231569,117015 226845,117015 226845,115543 231569,115543 "/>
   </g>
   <polygon class="fil69 str11" points="196798,29343 195806,31165 194815,32987 196798,32987 198781,32987 197789,31165 "/>
   <rect class="fil70 str11" x="195568" y="35880" width="2715" height="2829"/>
   <path class="fil51" d="M201353 32714l0 -1956 312 0 0 277c150,-213 367,-319 651,-319 123,0 237,22 340,64 103,42 181,98 232,166 51,69 87,151 108,245 12,61 19,169 19,322l0 1201 -348 0 0 -1189c0,-135 -13,-236 -40,-302 -26,-67 -74,-120 -143,-161 -68,-39 -149,-59 -241,-59 -148,0 -275,45 -382,134 -107,89 -161,260 -161,510l0 1067 -347 0z"/>
   <path id="1" class="fil51" d="M203418 31736c0,-361 106,-629 317,-803 175,-144 390,-217 644,-217 281,0 511,88 690,264 178,175 268,419 268,728 0,252 -40,449 -119,593 -79,144 -193,256 -345,335 -151,80 -316,120 -494,120 -287,0 -519,-88 -695,-263 -177,-175 -266,-428 -266,-757zm356 1c0,250 57,437 171,561 116,124 259,186 434,186 172,0 316,-62 431,-187 114,-125 171,-315 171,-571 0,-241 -58,-424 -173,-548 -115,-124 -258,-187 -429,-187 -175,0 -318,62 -434,186 -114,124 -171,310 -171,560z"/>
   <path id="2" class="fil51" d="M206498 32418l48 293c-98,20 -185,30 -262,30 -125,0 -222,-19 -292,-57 -70,-39 -118,-88 -147,-151 -28,-62 -42,-193 -42,-392l0 -1127 -256 0 0 -256 256 0 0 -484 348 -199 0 683 347 0 0 256 -347 0 0 1146c0,95 6,156 18,183 12,27 32,49 60,65 27,15 67,24 118,24 38,0 89,-5 151,-14z"/>
   <path id="3" class="fil51" d="M208306 32714l-619 -1956 363 0 327 1129 116 420c5,-21 40,-155 106,-403l324 -1146 356 0 309 1136 100 372 118 -377 354 -1131 338 0 -643 1956 -359 0 -325 -1170 -83 -335 -414 1505 -368 0z"/>
   <path id="4" class="fil51" d="M210658 31736c0,-361 105,-629 316,-803 176,-144 391,-217 644,-217 282,0 512,88 691,264 178,175 267,419 267,728 0,252 -39,449 -118,593 -79,144 -194,256 -346,335 -150,80 -315,120 -494,120 -287,0 -518,-88 -695,-263 -177,-175 -265,-428 -265,-757zm355 1c0,250 57,437 172,561 115,124 259,186 433,186 173,0 316,-62 431,-187 114,-125 172,-315 172,-571 0,-241 -58,-424 -173,-548 -115,-124 -259,-187 -430,-187 -174,0 -318,62 -433,186 -115,124 -172,310 -172,560z"/>
   <path id="5" class="fil51" d="M212980 32714l0 -1956 312 0 0 299c79,-138 153,-230 220,-274 69,-45 143,-67 223,-67 118,0 237,36 358,105l-124 306c-84,-45 -168,-68 -253,-68 -75,0 -143,22 -203,66 -59,43 -102,104 -128,181 -39,117 -58,246 -58,386l0 1022 -347 0z"/>
   <polygon id="6" class="fil51" points="214299,32714 214299,30015 214646,30015 214646,31553 215468,30758 215916,30758 215135,31485 215995,32714 215567,32714 214887,31714 214646,31938 214646,32714 "/>
   <path id="7" class="fil51" d="M217364 32714l0 -1956 312 0 0 299c79,-138 153,-230 221,-274 68,-45 142,-67 223,-67 117,0 236,36 358,105l-124 306c-85,-45 -169,-68 -253,-68 -76,0 -144,22 -203,66 -60,43 -103,104 -129,181 -39,117 -57,246 -57,386l0 1022 -348 0z"/>
   <path id="8" class="fil51" d="M220080 32081l359 45c-56,200 -161,355 -313,464 -153,111 -348,166 -585,166 -299,0 -536,-88 -711,-264 -175,-175 -262,-422 -262,-740 0,-328 88,-583 265,-764 177,-181 406,-272 689,-272 273,0 496,89 669,266 173,178 260,428 260,751 0,19 -1,49 -2,88l-1526 0c13,214 77,379 191,493 114,113 256,170 427,170 127,0 235,-32 325,-96 90,-64 161,-166 214,-307zm-1138 -532l1141 0c-14,-164 -59,-287 -130,-370 -110,-127 -254,-191 -429,-191 -159,0 -293,51 -401,152 -108,102 -168,238 -181,409z"/>
   <polygon id="9" class="fil51" points="220870,32714 220870,30015 221217,30015 221217,32714 "/>
   <path id="10" class="fil51" d="M223093 32469c-129,105 -253,179 -373,222 -119,43 -246,65 -383,65 -225,0 -398,-52 -519,-157 -121,-104 -182,-239 -182,-401 0,-96 24,-183 69,-262 46,-79 106,-142 180,-190 74,-48 157,-84 249,-109 69,-17 172,-33 310,-49 280,-32 487,-70 619,-114 1,-45 2,-74 2,-86 0,-135 -33,-229 -99,-285 -88,-75 -221,-112 -395,-112 -164,0 -285,28 -363,83 -78,54 -135,151 -173,290l-339 -45c31,-139 81,-251 152,-337 71,-85 174,-150 308,-197 133,-46 289,-69 466,-69 175,0 318,19 427,59 110,40 190,89 242,149 51,59 87,135 108,226 12,56 18,158 18,305l0 440c0,307 7,501 21,583 14,83 43,161 85,236l-363 0c-35,-69 -57,-151 -67,-245zm-28 -735c-126,49 -316,91 -568,124 -143,20 -245,42 -304,66 -59,25 -105,61 -137,107 -32,48 -49,100 -49,157 0,88 35,161 106,220 70,58 173,87 308,87 133,0 252,-27 357,-83 104,-55 181,-131 230,-227 37,-75 55,-185 55,-330l2 -121z"/>
   <path id="11" class="fil51" d="M224704 32418l47 293c-97,20 -184,30 -261,30 -125,0 -223,-19 -293,-57 -69,-39 -117,-88 -145,-151 -28,-62 -43,-193 -43,-392l0 -1127 -256 0 0 -256 256 0 0 -484 348 -199 0 683 347 0 0 256 -347 0 0 1146c0,95 6,156 18,183 12,27 31,49 60,65 27,15 66,24 118,24 38,0 89,-5 151,-14z"/>
   <path id="12" class="fil51" d="M226445 32081l359 45c-56,200 -161,355 -314,464 -152,111 -347,166 -584,166 -299,0 -536,-88 -711,-264 -175,-175 -263,-422 -263,-740 0,-328 89,-583 266,-764 177,-181 406,-272 688,-272 274,0 496,89 670,266 173,178 259,428 259,751 0,19 0,49 -1,88l-1526 0c13,214 76,379 191,493 114,113 256,170 427,170 127,0 235,-32 325,-96 90,-64 161,-166 214,-307zm-1138 -532l1141 0c-15,-164 -59,-287 -130,-370 -110,-127 -254,-191 -429,-191 -159,0 -293,51 -402,152 -108,102 -168,238 -180,409z"/>
   <path id="13" class="fil51" d="M228640 32081l359 45c-56,200 -160,355 -313,464 -152,111 -348,166 -585,166 -299,0 -536,-88 -710,-264 -176,-175 -263,-422 -263,-740 0,-328 88,-583 265,-764 177,-181 407,-272 689,-272 273,0 496,89 669,266 173,178 260,428 260,751 0,19 -1,49 -2,88l-1526 0c13,214 77,379 191,493 114,113 256,170 427,170 127,0 235,-32 325,-96 90,-64 161,-166 214,-307zm-1137 -532l1141 0c-16,-164 -59,-287 -131,-370 -110,-127 -254,-191 -429,-191 -159,0 -293,51 -401,152 -108,102 -168,238 -180,409z"/>
   <path id="14" class="fil51" d="M230760 32714l0 -248c-129,193 -320,290 -572,290 -163,0 -313,-43 -450,-129 -136,-86 -242,-206 -318,-359 -75,-154 -112,-330 -112,-530 0,-195 34,-371 102,-530 68,-159 170,-281 306,-365 136,-85 289,-127 456,-127 124,0 234,25 330,75 96,50 174,115 235,195l0 -971 347 0 0 2699 -324 0zm-1097 -975c0,250 55,436 166,560 111,124 242,185 393,185 151,0 281,-59 387,-177 106,-118 159,-298 159,-541 0,-266 -54,-462 -162,-587 -108,-125 -242,-188 -400,-188 -155,0 -283,60 -388,180 -103,120 -155,309 -155,568z"/>
   <path class="fil51" d="M202020 38234l-620 -1957 364 0 327 1130 116 420c4,-21 40,-156 105,-403l325 -1147 356 0 308 1136 101 373 118 -378 353 -1131 338 0 -643 1957 -359 0 -325 -1171 -82 -334 -415 1505 -367 0z"/>
   <path id="1" class="fil51" d="M204371 37256c0,-362 106,-629 317,-803 175,-145 391,-217 644,-217 281,0 511,88 690,264 178,175 267,419 267,728 0,251 -38,449 -118,593 -79,143 -194,255 -345,335 -151,80 -316,119 -494,119 -287,0 -519,-87 -696,-262 -177,-175 -265,-428 -265,-757zm355 0c0,251 58,438 172,562 115,124 259,186 434,186 172,0 316,-62 430,-187 115,-125 172,-315 172,-571 0,-241 -57,-425 -173,-548 -114,-125 -258,-187 -429,-187 -175,0 -319,62 -434,186 -114,123 -172,310 -172,559z"/>
   <path id="2" class="fil51" d="M206693 38234l0 -1957 312 0 0 300c79,-139 153,-230 221,-275 68,-44 142,-66 223,-66 117,0 236,35 357,105l-123 306c-85,-45 -169,-68 -253,-68 -76,0 -143,22 -203,65 -60,44 -103,104 -129,181 -38,118 -58,246 -58,387l0 1022 -347 0z"/>
   <polygon id="3" class="fil51" points="208013,38234 208013,35535 208360,35535 208360,37072 209181,36277 209630,36277 208848,37005 209709,38234 209281,38234 208601,37234 208360,37458 208360,38234 "/>
   <path id="4" class="fil51" d="M211077 38234l0 -1957 313 0 0 300c79,-139 152,-230 220,-275 68,-44 142,-66 223,-66 117,0 236,35 358,105l-124 306c-85,-45 -168,-68 -253,-68 -75,0 -143,22 -203,65 -60,44 -102,104 -128,181 -39,118 -58,246 -58,387l0 1022 -348 0z"/>
   <path id="5" class="fil51" d="M213793 37601l360 45c-57,199 -161,354 -314,464 -152,110 -348,165 -584,165 -299,0 -536,-87 -711,-263 -176,-176 -262,-423 -262,-740 0,-328 87,-583 264,-764 177,-181 407,-272 690,-272 272,0 495,89 668,266 173,178 260,428 260,750 0,20 -1,49 -2,89l-1526 0c14,214 77,379 192,492 113,114 256,171 427,171 126,0 235,-32 324,-96 90,-64 161,-167 214,-307zm-1137 -532l1141 0c-15,-165 -59,-288 -131,-370 -109,-128 -253,-192 -429,-192 -159,0 -293,51 -401,153 -108,102 -167,238 -180,409z"/>
   <polygon id="6" class="fil51" points="214583,38234 214583,35535 214930,35535 214930,38234 "/>
   <path id="7" class="fil51" d="M216806 37989c-129,105 -253,179 -372,222 -119,43 -246,64 -383,64 -225,0 -398,-52 -520,-156 -121,-105 -182,-239 -182,-402 0,-95 24,-182 69,-261 46,-80 106,-143 180,-190 74,-48 157,-84 250,-109 68,-17 171,-33 309,-49 280,-32 487,-70 620,-114 1,-46 2,-75 2,-86 0,-135 -33,-230 -99,-285 -89,-75 -221,-112 -396,-112 -164,0 -285,28 -363,83 -78,54 -135,151 -172,290l-340 -45c31,-139 82,-251 153,-337 71,-85 173,-151 308,-197 133,-46 289,-69 466,-69 174,0 317,19 427,59 109,40 190,89 241,148 51,60 88,135 109,226 11,57 17,159 17,305l0 440c0,307 7,501 22,584 14,82 43,161 84,236l-362 0c-36,-70 -58,-152 -68,-245zm-27 -735c-127,49 -316,90 -569,124 -143,20 -244,42 -304,66 -59,25 -104,61 -136,107 -33,47 -49,99 -49,157 0,87 35,161 105,219 70,59 173,88 308,88 134,0 253,-27 357,-83 104,-55 182,-132 230,-228 37,-74 56,-185 56,-329l2 -121z"/>
   <path id="8" class="fil51" d="M218417 37938l48 293c-98,20 -185,29 -261,29 -126,0 -223,-18 -293,-57 -69,-38 -118,-88 -146,-150 -28,-62 -42,-193 -42,-392l0 -1127 -257 0 0 -257 257 0 0 -483 347 -199 0 682 347 0 0 257 -347 0 0 1146c0,95 6,155 19,183 11,27 31,48 59,64 28,16 67,24 118,24 39,0 89,-4 151,-13z"/>
   <path id="9" class="fil51" d="M220158 37601l359 45c-56,199 -161,354 -313,464 -152,110 -348,165 -585,165 -299,0 -536,-87 -710,-263 -176,-176 -263,-423 -263,-740 0,-328 88,-583 265,-764 177,-181 407,-272 689,-272 273,0 496,89 669,266 173,178 260,428 260,750 0,20 -1,49 -2,89l-1526 0c13,214 77,379 191,492 114,114 256,171 427,171 127,0 236,-32 325,-96 90,-64 161,-167 214,-307zm-1137 -532l1141 0c-15,-165 -59,-288 -131,-370 -110,-128 -254,-192 -429,-192 -159,0 -293,51 -401,153 -108,102 -168,238 -180,409z"/>
   <path id="10" class="fil51" d="M222353 37601l360 45c-56,199 -161,354 -313,464 -153,110 -348,165 -585,165 -299,0 -536,-87 -711,-263 -175,-176 -262,-423 -262,-740 0,-328 88,-583 265,-764 177,-181 406,-272 688,-272 274,0 496,89 670,266 173,178 260,428 260,750 0,20 -1,49 -3,89l-1525 0c13,214 76,379 191,492 114,114 256,171 427,171 127,0 235,-32 325,-96 90,-64 161,-167 213,-307zm-1137 -532l1141 0c-15,-165 -59,-288 -130,-370 -110,-128 -254,-192 -430,-192 -159,0 -292,51 -401,153 -108,102 -168,238 -180,409z"/>
   <path id="11" class="fil51" d="M224474 38234l0 -248c-130,193 -320,289 -573,289 -163,0 -313,-42 -449,-128 -137,-86 -243,-206 -318,-359 -76,-154 -113,-331 -113,-530 0,-195 34,-372 102,-531 69,-158 171,-280 307,-364 135,-85 288,-127 456,-127 123,0 233,25 329,75 96,49 175,114 235,194l0 -970 347 0 0 2699 -323 0zm-1098 -976c0,250 56,437 167,561 111,123 241,185 392,185 152,0 281,-59 388,-177 105,-118 159,-299 159,-541 0,-267 -54,-462 -163,-588 -108,-125 -241,-187 -400,-187 -154,0 -283,60 -387,180 -103,120 -156,309 -156,567z"/>
   <rect class="fil0 str12" x="190879" y="26451" width="41709" height="15794"/>
   <rect class="fil4" x="21155" y="1022" width="227943" height="12102"/>
   <g>
    <rect class="fil71" x="207490" y="5846" width="15213" height="2540"/>
    <rect class="fil71" x="223394" y="5846" width="15213" height="2540"/>
    <rect class="fil72 str13" x="239448" y="5822" width="5452" height="2540"/>
    <polygon class="fil5" points="240583,7559 240583,6458 240718,6458 240718,7559 "/>
    <path id="1" class="fil5" d="M240877 7160c0,-147 41,-257 123,-328 69,-59 152,-88 251,-88 110,0 200,35 269,108 70,71 104,170 104,297 0,102 -15,183 -45,242 -31,58 -76,104 -135,137 -59,32 -124,48 -193,48 -112,0 -202,-36 -271,-107 -69,-72 -103,-175 -103,-309zm138 0c0,102 23,179 67,229 45,51 101,76 169,76 67,0 123,-25 168,-76 44,-51 67,-129 67,-233 0,-99 -23,-173 -68,-224 -44,-50 -100,-76 -167,-76 -68,0 -124,25 -169,76 -44,50 -67,127 -67,228z"/>
    <path id="2" class="fil5" d="M241758 7625l131 19c5,40 21,70 46,89 34,25 79,37 137,37 63,0 111,-12 146,-37 34,-25 57,-61 69,-105 7,-28 10,-85 10,-174 -60,70 -133,105 -221,105 -110,0 -195,-40 -255,-118 -61,-79 -90,-174 -90,-285 0,-76 13,-146 41,-211 27,-64 67,-113 119,-149 53,-35 114,-52 185,-52 94,0 172,38 233,115l0 -98 125 0 0 689c0,125 -13,213 -38,264 -26,52 -66,93 -120,123 -55,30 -123,45 -203,45 -95,0 -172,-21 -230,-64 -59,-43 -87,-107 -85,-193zm111 -479c0,105 21,181 62,229 42,48 94,72 157,72 62,0 114,-24 156,-71 42,-48 63,-123 63,-225 0,-98 -21,-171 -65,-221 -43,-49 -96,-74 -157,-74 -60,0 -111,25 -153,73 -42,49 -63,121 -63,217z"/>
    <path id="3" class="fil5" d="M242639 6611l0 -153 135 0 0 153 -135 0zm0 948l0 -798 135 0 0 798 -135 0z"/>
    <path id="4" class="fil5" d="M242980 7559l0 -798 122 0 0 113c59,-87 143,-130 253,-130 49,0 93,9 133,26 40,17 71,40 91,67 19,29 34,62 42,100 5,26 7,69 7,132l0 490 -135 0 0 -485c0,-55 -6,-96 -16,-123 -11,-28 -29,-49 -56,-66 -26,-16 -58,-24 -94,-24 -57,0 -107,18 -149,54 -41,37 -62,107 -62,209l0 435 -136 0z"/>
   </g>
   <g>
    <polygon class="fil73" points="34918,592 30684,6446 35178,12970 19110,12970 19110,592 "/>
    <polygon class="fil4" points="34918,592 30684,6446 35178,12970 58798,12970 58711,592 "/>
    <path class="fil5" d="M37134 8313c-347,155 -779,232 -1297,232 -670,0 -1204,-181 -1606,-543 -403,-361 -604,-836 -604,-1423 0,-630 227,-1140 679,-1529 452,-390 1026,-585 1720,-585 446,0 815,55 1108,163l0 493c-337,-158 -708,-237 -1114,-237 -539,0 -976,152 -1313,454 -335,303 -503,708 -503,1214 0,481 157,864 470,1149 314,286 725,428 1235,428 471,0 880,-88 1225,-264l0 448z"/>
    <path id="1" class="fil5" d="M40806 8479l-538 0 0 -1625c0,-587 -260,-880 -780,-880 -262,0 -483,85 -662,255 -179,170 -269,388 -269,653l0 1597 -538 0 0 -4172 538 0 0 1821 14 0c257,-356 624,-533 1101,-533 756,0 1134,382 1134,1147l0 1737z"/>
    <path id="2" class="fil5" d="M42094 4945c-95,0 -178,-28 -245,-83 -68,-55 -102,-124 -102,-209 0,-84 34,-155 102,-210 67,-56 150,-85 245,-85 98,0 182,29 251,85 69,55 103,126 103,210 0,81 -34,149 -103,206 -69,57 -153,86 -251,86zm263 3534l-538 0 0 -2819 538 0 0 2819z"/>
    <polygon id="3" class="fil5" points="46296,4950 44939,4950 44939,8479 44389,8479 44389,4950 43035,4950 43035,4532 46296,4532 "/>
    <path id="4" class="fil5" d="M52387 8209c-471,224 -996,336 -1573,336 -670,0 -1213,-182 -1627,-545 -415,-363 -621,-844 -621,-1443 0,-610 230,-1112 690,-1504 459,-391 1042,-588 1748,-588 512,0 941,71 1288,210l0 512c-380,-202 -830,-303 -1350,-303 -526,0 -958,152 -1295,457 -337,304 -505,699 -505,1183 0,499 157,892 469,1177 312,286 737,428 1272,428 367,0 685,-62 954,-184l0 -1107 -1030 0 0 -418 1580 0 0 1789z"/>
    <path id="5" class="fil5" d="M53682 4945c-96,0 -178,-28 -246,-83 -68,-55 -101,-124 -101,-209 0,-84 33,-155 101,-210 68,-56 150,-85 246,-85 98,0 182,29 251,85 68,55 103,126 103,210 0,81 -35,149 -103,206 -69,57 -153,86 -251,86zm262 3534l-538 0 0 -2819 538 0 0 2819z"/>
    <polygon id="6" class="fil5" points="57883,4950 56527,4950 56527,8479 55976,8479 55976,4950 54622,4950 54622,4532 57883,4532 "/>
    <ellipse class="fil0 str14" cx="24935" cy="6463" rx="4484" ry="4291"/>
    <ellipse class="fil0" cx="24711" cy="6358" rx="3923" ry="3754"/>
    <g>
     <g style="clip-path:url(#id14)">
      <image x="22982" y="3388" width="3592" height="5920" xlink:href="phoneLandscape_Images\phoneLandscape_ImgID15.png"/>
     </g>
    </g>
    <path class="fil74" d="M24581 3801c193,456 333,940 527,1396 108,13 148,-167 140,-472 252,231 383,644 505,1069 685,1212 475,2178 -419,2955 -366,191 -732,180 -1098,38 -815,-552 -1193,-1571 -409,-3003 67,-272 145,-543 312,-808 52,215 113,407 237,443 50,-530 154,-1088 205,-1618z"/>
    <path class="fil74" d="M23080 4190c181,358 292,624 542,750 -328,585 -612,1169 -940,1754 251,488 459,977 709,1465 -219,262 -438,524 -658,786 -586,-672 -1100,-1545 -1687,-2217 669,-913 1364,-1625 2034,-2538z"/>
    <g>
     <g style="clip-path:url(#id15)">
      <image x="25477" y="3895" width="3348" height="5527" xlink:href="phoneLandscape_Images\phoneLandscape_ImgID16.png"/>
     </g>
    </g>
    <path class="fil74" d="M26405 4281c-182,358 -292,625 -542,751 327,584 645,1168 972,1753 -251,488 -491,977 -742,1466 219,261 439,523 658,785 587,-672 1101,-1545 1688,-2216 -670,-914 -1365,-1626 -2034,-2539z"/>
    <path class="fil74" d="M23657 5082c122,-119 212,-238 334,-357 0,-428 0,-855 0,-1283 -895,-226 -1391,973 -334,1640z"/>
    <path class="fil74" d="M25856 5090c-122,-120 -211,-239 -334,-358 0,-428 0,-855 0,-1283 896,-226 1391,973 334,1641z"/>
   </g>
  </g>
 </g>
</svg>
