<?xml version="1.0" encoding="UTF-8"?>
<!DOCTYPE svg PUBLIC "-//W3C//DTD SVG 1.1//EN" "http://www.w3.org/Graphics/SVG/1.1/DTD/svg11.dtd">
<!-- Creator: CorelDRAW X8 -->
<svg xmlns="http://www.w3.org/2000/svg" xml:space="preserve" width="260px" height="260px" version="1.1" style="shape-rendering:geometricPrecision; text-rendering:geometricPrecision; image-rendering:optimizeQuality; fill-rule:evenodd; clip-rule:evenodd"
viewBox="0 0 133439 133439"
 xmlns:xlink="http://www.w3.org/1999/xlink">
 <defs>
  <style type="text/css">
   <![CDATA[
    .str1 {stroke:#B10000;stroke-width:2053.29}
    .str2 {stroke:#B10000;stroke-width:1069.7}
    .str3 {stroke:red;stroke-width:1069.7}
    .str0 {stroke:red;stroke-width:462.081}
    .fil5 {fill:#640000}
    .fil6 {fill:red}
    .fil4 {fill:red}
    .fil2 {fill:#640000;fill-rule:nonzero}
    .fil3 {fill:#900000;fill-rule:nonzero}
    .fil0 {fill:url(#id0)}
    .fil1 {fill:url(#id1)}
   ]]>
  </style>
  <linearGradient id="id0" gradientUnits="userSpaceOnUse" x1="66719.8" y1="133208" x2="66719.8" y2="231.04">
   <stop offset="0" style="stop-opacity:1; stop-color:#B10000"/>
   <stop offset="1" style="stop-opacity:1; stop-color:red"/>
  </linearGradient>
  <linearGradient id="id1" gradientUnits="userSpaceOnUse" x1="66796.8" y1="124769" x2="66796.8" y2="8413.88">
   <stop offset="0" style="stop-opacity:1; stop-color:red"/>
   <stop offset="1" style="stop-opacity:1; stop-color:#B10000"/>
  </linearGradient>
 </defs>
 <g id="Layer_x0020_1">
  <metadata id="CorelCorpID_0Corel-Layer"/>
  <path class="fil0 str0" d="M66720 231c36721,0 66488,29768 66488,66489 0,36721 -29767,66488 -66488,66488 -36721,0 -66489,-29767 -66489,-66488 0,-36721 29768,-66489 66489,-66489z"/>
  <path class="fil1 str1" d="M66797 8414c32130,0 58177,26047 58177,58177 0,32131 -26047,58178 -58177,58178 -32131,0 -58178,-26047 -58178,-58178 0,-32130 26047,-58177 58178,-58177z"/>
  <path class="fil2" d="M37777 79912l3228 18235 -5766 0 -305 -3274 -2035 0 -306 3274 -5837 0 2861 -18235 8160 0zm-2994 11734c-270,-2067 -553,-4626 -855,-7681 -558,3505 -910,6063 -1061,7681l1916 0zm24497 -8437l-2143 14938 -5884 0c-302,-1826 -676,-4234 -1120,-7227 -169,1317 -384,2643 -650,3976l-575 3251 -5856 0 -2286 -14938 4631 0c55,392 452,3246 1197,8567 79,-553 476,-3411 1203,-8567l4484 0 1116 8567c178,-2505 589,-5363 1235,-8567l4648 0zm19058 4656l-5651 0 0 -3165c0,-923 -59,-1495 -177,-1726 -120,-226 -385,-342 -791,-342 -458,0 -751,139 -874,415 -124,281 -187,880 -187,1802l0 8460c0,888 63,1464 187,1737 123,269 403,403 833,403 415,0 689,-134 818,-406 128,-270 191,-908 191,-1910l0 -2294 5651 0 0 711c0,1890 -160,3231 -476,4019 -315,791 -1020,1483 -2103,2078 -1088,596 -2423,891 -4013,891 -1650,0 -3013,-249 -4087,-753 -1070,-503 -1783,-1198 -2130,-2089 -348,-892 -521,-2229 -521,-4015l0 -5326c0,-1314 55,-2297 159,-2954 110,-657 426,-1291 961,-1898 530,-607 1266,-1088 2208,-1437 941,-350 2025,-523 3250,-523 1659,0 3030,269 4114,811 1079,538 1787,1211 2130,2017 338,807 508,2059 508,3762l0 1732zm7259 -7953l0 4107c466,-361 969,-633 1508,-814 540,-181 1121,-273 1738,-273 946,0 1751,204 2418,607 663,408 1070,872 1220,1403 147,530 220,1498 220,2900l0 10305 -5403 0 0 -10516c0,-868 -50,-1429 -156,-1675 -105,-250 -334,-373 -695,-373 -334,0 -558,127 -676,384 -114,254 -174,761 -174,1518l0 10662 -5403 0 0 -18235 5403 0zm14538 0l0 2375 -5568 0 0 -2375 5568 0zm0 3297l0 14938 -5568 0 0 -14938 5568 0zm7624 -1983l0 2352 1508 0 0 2374 -1508 0 0 7987c0,980 64,1530 187,1641 123,111 636,169 1541,169l0 2398 -2190 0c-1234,0 -2117,-43 -2647,-131 -525,-85 -992,-284 -1394,-595 -402,-312 -653,-665 -755,-1069 -95,-399 -145,-1340 -145,-2824l0 -7576 -1152 0 0 -2374 1152 0 0 -2352 5403 0z"/>
  <path class="fil3" d="M36692 78654l3228 18235 -5765 0 -306 -3273 -2035 0 -306 3273 -5837 0 2861 -18235 8160 0zm-2994 11734c-270,-2067 -553,-4626 -855,-7680 -557,3504 -910,6062 -1061,7680l1916 0zm24497 -8437l-2143 14938 -5884 0c-302,-1825 -676,-4234 -1120,-7227 -169,1318 -384,2643 -650,3977l-575 3250 -5855 0 -2287 -14938 4631 0c55,392 452,3247 1198,8568 78,-553 476,-3412 1202,-8568l4484 0 1116 8568c178,-2505 590,-5364 1235,-8568l4648 0zm19058 4656l-5650 0 0 -3165c0,-922 -60,-1495 -178,-1725 -120,-227 -385,-342 -791,-342 -458,0 -751,138 -874,415 -123,280 -186,879 -186,1802l0 8460c0,888 63,1464 186,1736 123,269 403,404 833,404 415,0 689,-135 818,-407 128,-269 192,-907 192,-1910l0 -2294 5650 0 0 711c0,1891 -160,3231 -475,4019 -316,792 -1020,1483 -2104,2078 -1088,596 -2423,892 -4013,892 -1650,0 -3013,-250 -4087,-753 -1069,-504 -1783,-1199 -2130,-2090 -348,-891 -521,-2229 -521,-4015l0 -5326c0,-1314 55,-2297 160,-2954 109,-657 425,-1291 960,-1898 530,-607 1266,-1087 2208,-1437 941,-349 2025,-522 3250,-522 1659,0 3031,268 4114,811 1079,537 1787,1210 2130,2016 338,808 508,2060 508,3762l0 1732zm7259 -7953l0 4108c467,-361 969,-634 1508,-815 540,-180 1121,-273 1738,-273 946,0 1751,204 2418,607 663,408 1070,872 1220,1403 147,530 220,1498 220,2900l0 10305 -5403 0 0 -10516c0,-868 -50,-1429 -156,-1675 -105,-249 -334,-372 -695,-372 -334,0 -557,126 -676,383 -114,254 -174,761 -174,1518l0 10662 -5403 0 0 -18235 5403 0zm14538 0l0 2375 -5568 0 0 -2375 5568 0zm0 3297l0 14938 -5568 0 0 -14938 5568 0zm7624 -1982l0 2351 1508 0 0 2374 -1508 0 0 7988c0,980 64,1529 187,1641 123,111 636,168 1541,168l0 2398 -2189 0c-1235,0 -2117,-42 -2648,-130 -525,-85 -992,-285 -1394,-596 -402,-312 -653,-665 -755,-1068 -95,-400 -145,-1341 -145,-2824l0 -7577 -1152 0 0 -2374 1152 0 0 -2351 5403 0z"/>
  <path class="fil4" d="M26936 40939c0,0 -997,2355 278,5590 1275,3236 4163,9862 9322,13130 5159,3268 11383,5198 16052,4451 4668,-747 5704,-753 7865,-2862 2161,-2109 2071,-2046 2141,-3585 71,-1538 -2269,-1996 -2269,-1996l-1039 -5c0,0 -10737,-3332 -13879,-5296 -3144,-1966 -18471,-9427 -18471,-9427z"/>
  <g id="_1940694616208">
   <path class="fil4" d="M110109 41686c7,0 -8281,2278 -12789,4229 -4508,1950 -10834,4371 -12613,4794 -1779,424 -7204,1910 -11504,2382 -4300,473 -6550,977 -6550,977l-2683 5954c0,0 2084,1142 5147,1788 3063,646 6296,1867 11707,1220 5411,-647 11623,-1872 15121,-4442 3499,-2570 4253,-2315 7155,-5896 2903,-3580 2607,-3286 4011,-6076 1404,-2789 2998,-4930 2998,-4930z"/>
   <path class="fil4" d="M77816 54112l11733 -3535c0,0 -773,6178 -6194,6544 -5422,366 -5539,-3009 -5539,-3009z"/>
  </g>
  <path class="fil4" d="M43494 50469l9537 4429c0,0 -352,2143 -2454,2498 -2102,356 -3698,522 -5610,-1835 -1193,-1728 -1473,-5092 -1473,-5092z"/>
  <path class="fil5 str2" d="M26936 40595c0,0 -997,2357 278,5591 1274,3235 3121,8790 8280,12057 5158,3268 10624,5500 17094,5179 6470,-320 6051,-399 7865,-1831 1813,-1432 1717,-3454 2141,-4271 1203,-2316 -2060,-1716 -3308,-2002 0,0 -10737,-3331 -13879,-5296 -3144,-1965 -18471,-9427 -18471,-9427z"/>
  <path class="fil5 str2" d="M110109 41342c7,0 -8281,2279 -12789,4229 -4508,1950 -10834,4371 -12613,4795 -1779,423 -7204,1910 -11504,2382 -4300,472 -6550,976 -6550,976l-2683 5954c0,0 2084,1143 5147,1788 3063,646 6296,1867 11707,1220 5411,-647 11623,-1871 15121,-4441 3499,-2570 4253,-2316 7155,-5896 2903,-3581 2607,-3287 4011,-6077 1404,-2789 2998,-4930 2998,-4930z"/>
  <path class="fil6 str3" d="M77816 53424l11733 -3191c0,0 -773,6178 -6194,6544 -5422,366 -5539,-3353 -5539,-3353z"/>
  <path class="fil6 str3" d="M43494 50125l9537 4430c0,0 -352,2142 -2454,2498 -2102,355 -3698,522 -5610,-1836 -1193,-1727 -1473,-5092 -1473,-5092z"/>
 </g>
</svg>
