<?xml version="1.0" encoding="UTF-8"?>
<!DOCTYPE svg PUBLIC "-//W3C//DTD SVG 1.1//EN" "http://www.w3.org/Graphics/SVG/1.1/DTD/svg11.dtd">
<!-- Creator: CorelDRAW X8 -->
<svg xmlns="http://www.w3.org/2000/svg" xml:space="preserve" width="260px" height="260px" version="1.1" style="shape-rendering:geometricPrecision; text-rendering:geometricPrecision; image-rendering:optimizeQuality; fill-rule:evenodd; clip-rule:evenodd"
viewBox="0 0 64587 64587"
 xmlns:xlink="http://www.w3.org/1999/xlink">
 <defs>
  <style type="text/css">
   <![CDATA[
    .str1 {stroke:#854E13;stroke-width:993.067}
    .str0 {stroke:#A99018;stroke-width:223.484}
    .fil4 {fill:#DE9D64}
    .fil2 {fill:#CFA761;fill-rule:nonzero}
    .fil3 {fill:#632510;fill-rule:nonzero}
    .fil1 {fill:url(#id4)}
    .fil0 {fill:url(#id5)}
    .fil8 {fill:url(#id6)}
    .fil5 {fill:url(#id7)}
    .fil6 {fill:url(#id8)}
    .fil9 {fill:url(#id9)}
    .fil7 {fill:url(#id10)}
   ]]>
  </style>
      <clipPath id="id0">
       <path d="M25779 9121l14427 0 0 24837 -14427 0 0 -24837z"/>
      </clipPath>
      <clipPath id="id1">
       <path d="M35798 11260l13455 0 0 23189 -13455 0 0 -23189z"/>
      </clipPath>
      <clipPath id="id2">
       <path d="M25499 8892l14427 0 0 24837 -14427 0 0 -24837z"/>
      </clipPath>
      <clipPath id="id3">
       <path d="M35518 11031l13455 0 0 23189 -13455 0 0 -23189z"/>
      </clipPath>
  <linearGradient id="id4" gradientUnits="userSpaceOnUse" x1="32330.7" y1="60390.3" x2="32330.7" y2="4072.28">
   <stop offset="0" style="stop-opacity:1; stop-color:#8E4C1C"/>
   <stop offset="1" style="stop-opacity:1; stop-color:#E2BC9C"/>
  </linearGradient>
  <linearGradient id="id5" gradientUnits="userSpaceOnUse" x1="32293.5" y1="64475.2" x2="32293.5" y2="111.742">
   <stop offset="0" style="stop-opacity:1; stop-color:#8E441C"/>
   <stop offset="1" style="stop-opacity:1; stop-color:#CF9661"/>
  </linearGradient>
  <linearGradient id="id6" gradientUnits="userSpaceOnUse" x1="26373.2" y1="15432.1" x2="28988.7" y2="9457.01">
   <stop offset="0" style="stop-opacity:1; stop-color:#632510"/>
   <stop offset="1" style="stop-opacity:1; stop-color:#9C4A31"/>
  </linearGradient>
  <linearGradient id="id7" gradientUnits="userSpaceOnUse" xlink:href="#id6" x1="27700.6" y1="29841" x2="37724.2" y2="12779.9">
  </linearGradient>
  <linearGradient id="id8" gradientUnits="userSpaceOnUse" xlink:href="#id6" x1="19092.9" y1="30660.7" x2="26690.8" y2="13818.5">
  </linearGradient>
  <linearGradient id="id9" gradientUnits="userSpaceOnUse" xlink:href="#id6" x1="36265.7" y1="15463.2" x2="38881.5" y2="9488.1">
  </linearGradient>
  <linearGradient id="id10" gradientUnits="userSpaceOnUse" xlink:href="#id6" x1="38446.9" y1="31046.4" x2="46044.8" y2="14204.1">
  </linearGradient>
 </defs>
 <g id="Layer_x0020_2">
  <metadata id="CorelCorpID_0Corel-Layer"/>
  <path class="fil0 str0" d="M32293 112c17774,0 32182,14408 32182,32181 0,17774 -14408,32182 -32182,32182 -17773,0 -32181,-14408 -32181,-32182 0,-17773 14408,-32181 32181,-32181z"/>
  <path class="fil1 str1" d="M32331 4072c15551,0 28159,12607 28159,28159 0,15552 -12608,28159 -28159,28159 -15552,0 -28159,-12607 -28159,-28159 0,-15552 12607,-28159 28159,-28159z"/>
  <path class="fil2" d="M27023 44287l-3486 0 0 -2319c0,-676 -37,-1095 -110,-1264 -73,-166 -237,-250 -488,-250 -282,0 -462,101 -538,304 -76,205 -116,644 -116,1319l0 6197c0,650 40,1072 116,1272 76,197 248,295 513,295 256,0 426,-98 505,-298 79,-197 118,-664 118,-1398l0 -1681 3486 0 0 521c0,1385 -99,2367 -293,2944 -195,579 -630,1086 -1298,1522 -671,436 -1494,653 -2476,653 -1018,0 -1858,-183 -2521,-552 -660,-368 -1100,-878 -1314,-1531 -214,-652 -322,-1632 -322,-2940l0 -3900c0,-963 34,-1683 99,-2165 68,-481 262,-945 592,-1390 328,-444 782,-796 1362,-1052 581,-256 1250,-383 2006,-383 1023,0 1869,197 2538,594 665,394 1102,886 1314,1477 208,591 313,1509 313,2755l0 1270zm4478 -5826l0 3008c288,-264 598,-464 931,-596 332,-132 691,-200 1072,-200 583,0 1079,149 1491,445 409,298 660,639 753,1027 90,388 136,1097 136,2125l0 7547 -3334 0 0 -7702c0,-636 -31,-1047 -96,-1227 -64,-183 -205,-273 -428,-273 -206,0 -344,93 -418,281 -70,186 -107,558 -107,1112l0 7809 -3333 0 0 -13356 3333 0zm8968 0l0 1739 -3435 0 0 -1739 3435 0zm0 2415l0 10941 -3435 0 0 -10941 3435 0zm4704 -1452l0 1722 930 0 0 1739 -930 0 0 5850c0,718 39,1120 115,1202 76,82 393,124 951,124l0 1756 -1351 0c-762,0 -1306,-31 -1633,-96 -324,-62 -612,-208 -860,-436 -248,-228 -403,-487 -465,-782 -60,-293 -90,-983 -90,-2069l0 -5549 -711 0 0 -1739 711 0 0 -1722 3333 0z"/>
  <path class="fil3" d="M26651 43797l-3486 0 0 -2319c0,-675 -36,-1095 -110,-1263 -73,-166 -237,-251 -488,-251 -282,0 -462,102 -538,304 -77,205 -116,645 -116,1320l0 6197c0,649 39,1072 116,1272 76,196 248,295 513,295 257,0 426,-99 505,-298 79,-197 118,-664 118,-1399l0 -1680 3486 0 0 521c0,1384 -99,2366 -294,2943 -194,580 -628,1086 -1297,1523 -671,436 -1494,653 -2476,653 -1018,0 -1858,-183 -2521,-552 -660,-369 -1100,-878 -1314,-1531 -214,-653 -322,-1632 -322,-2941l0 -3900c0,-963 34,-1683 99,-2164 68,-481 263,-946 592,-1390 327,-445 782,-797 1362,-1053 581,-256 1250,-382 2005,-382 1024,0 1870,197 2539,594 665,393 1102,886 1314,1477 209,591 313,1508 313,2755l0 1269zm4478 -5825l0 3008c288,-265 598,-464 931,-597 333,-132 690,-199 1071,-199 584,0 1081,149 1492,444 409,299 660,639 753,1027 90,389 135,1098 135,2125l0 7547 -3333 0 0 -7702c0,-636 -31,-1047 -96,-1227 -65,-183 -206,-273 -428,-273 -206,0 -345,93 -418,282 -70,185 -107,557 -107,1111l0 7809 -3333 0 0 -13355 3333 0zm8968 0l0 1739 -3435 0 0 -1739 3435 0zm0 2414l0 10941 -3435 0 0 -10941 3435 0zm4704 -1452l0 1723 930 0 0 1738 -930 0 0 5851c0,718 39,1120 115,1202 76,81 392,124 951,124l0 1755 -1351 0c-762,0 -1306,-31 -1633,-95 -324,-62 -612,-208 -860,-436 -248,-228 -403,-487 -465,-783 -59,-292 -91,-982 -91,-2068l0 -5550 -710 0 0 -1738 710 0 0 -1723 3334 0z"/>
  <g id="_1939265613344">
   <g>
    <g>
     <g style="clip-path:url(#id0)">
      <image x="25779" y="9121" width="14427" height="24837" xlink:href="copper_standard_Images\copper_standard_ImgID1.png"/>
     </g>
    </g>
    <path class="fil4" d="M32199 10786c779,1924 1341,3971 2119,5895 433,54 597,-704 563,-1992 1014,976 1540,2718 2032,4513 2748,5122 1906,9201 -1687,12481 -1470,809 -2940,763 -4410,162 -3278,-2332 -4792,-6635 -1643,-12684 269,-1149 579,-2294 1253,-3415 209,910 454,1723 952,1870 202,-2236 620,-4594 821,-6830z"/>
    <path class="fil4" d="M26168 12427c730,1513 1174,2639 2179,3169 -1316,2469 -2459,4938 -3775,7407 1007,2064 1841,4128 2848,6191 -881,1106 -1762,2211 -2643,3317 -2357,-2837 -4423,-6524 -6780,-9362 2689,-3857 5482,-6865 8171,-10722z"/>
    <g>
     <g style="clip-path:url(#id1)">
      <image x="35798" y="11260" width="13455" height="23189" xlink:href="copper_standard_Images\copper_standard_ImgID2.png"/>
     </g>
    </g>
    <path class="fil4" d="M39530 12813c-731,1513 -1174,2638 -2179,3169 1316,2469 2591,4938 3906,7407 -1006,2064 -1972,4127 -2980,6191 881,1106 1763,2211 2644,3317 2357,-2838 4423,-6525 6780,-9363 -2689,-3857 -5482,-6864 -8171,-10721z"/>
    <path class="fil4" d="M28488 16197c492,-504 852,-1007 1344,-1511 0,-1805 0,-3611 0,-5417 -3599,-956 -5591,4108 -1344,6928z"/>
    <path class="fil4" d="M37327 16228c-492,-503 -853,-1007 -1345,-1511 0,-1805 0,-3611 0,-5417 3600,-956 5591,4108 1345,6928z"/>
   </g>
   <g>
    <g>
     <g style="clip-path:url(#id2)">
      <image x="25499" y="8892" width="14427" height="24837" xlink:href="copper_standard_Images\copper_standard_ImgID3.png"/>
     </g>
    </g>
    <path class="fil5" d="M31919 10557c779,1924 1341,3970 2119,5895 433,54 597,-704 562,-1992 1015,975 1541,2717 2033,4512 2748,5123 1906,9202 -1687,12481 -1470,810 -2940,764 -4411,163 -3277,-2333 -4791,-6635 -1642,-12684 269,-1149 579,-2294 1253,-3415 209,909 454,1722 952,1870 202,-2236 619,-4594 821,-6830z"/>
    <path class="fil6" d="M25888 12197c730,1514 1174,2639 2179,3170 -1316,2469 -2459,4938 -3775,7407 1007,2064 1841,4127 2848,6191 -881,1106 -1762,2211 -2643,3317 -2357,-2838 -4423,-6525 -6780,-9363 2689,-3857 5482,-6864 8171,-10722z"/>
    <g>
     <g style="clip-path:url(#id3)">
      <image x="35518" y="11031" width="13455" height="23189" xlink:href="copper_standard_Images\copper_standard_ImgID4.png"/>
     </g>
    </g>
    <path class="fil7" d="M39250 12583c-731,1514 -1174,2639 -2179,3169 1315,2470 2591,4938 3907,7408 -1007,2063 -1974,4127 -2980,6191 880,1105 1762,2211 2643,3316 2357,-2837 4423,-6524 6780,-9362 -2689,-3857 -5483,-6865 -8171,-10722z"/>
    <path class="fil8" d="M28208 15968c492,-504 852,-1007 1344,-1511 0,-1806 0,-3612 0,-5417 -3599,-956 -5591,4108 -1344,6928z"/>
    <path class="fil9" d="M37046 15999c-491,-504 -852,-1007 -1344,-1511 0,-1806 0,-3611 0,-5417 3600,-956 5591,4108 1344,6928z"/>
   </g>
  </g>
 </g>
</svg>
