<?xml version="1.0" encoding="UTF-8"?>
<!DOCTYPE svg PUBLIC "-//W3C//DTD SVG 1.1//EN" "http://www.w3.org/Graphics/SVG/1.1/DTD/svg11.dtd">
<!-- Creator: CorelDRAW X8 -->
<svg xmlns="http://www.w3.org/2000/svg" xml:space="preserve" width="260px" height="260px" version="1.1" style="shape-rendering:geometricPrecision; text-rendering:geometricPrecision; image-rendering:optimizeQuality; fill-rule:evenodd; clip-rule:evenodd"
viewBox="0 0 185429 185429"
 xmlns:xlink="http://www.w3.org/1999/xlink">
 <defs>
  <style type="text/css">
   <![CDATA[
    .str1 {stroke:#854E13;stroke-width:2851.09}
    .str0 {stroke:#A99018;stroke-width:641.622}
    .fil4 {fill:#DE9D64}
    .fil11 {fill:#7A341D;fill-rule:nonzero}
    .fil2 {fill:#CFA761;fill-rule:nonzero}
    .fil3 {fill:#632510;fill-rule:nonzero}
    .fil10 {fill:#E6B96C;fill-rule:nonzero}
    .fil0 {fill:url(#id4)}
    .fil1 {fill:url(#id5)}
    .fil6 {fill:url(#id6)}
    .fil9 {fill:url(#id7)}
    .fil7 {fill:url(#id8)}
    .fil8 {fill:url(#id9)}
    .fil5 {fill:url(#id10)}
   ]]>
  </style>
     <clipPath id="id0">
      <path d="M74455 59468l36197 0 0 62897 -36197 0 0 -62897z"/>
     </clipPath>
     <clipPath id="id1">
      <path d="M99593 64888l33758 0 0 58724 -33758 0 0 -58724z"/>
     </clipPath>
     <clipPath id="id2">
      <path d="M72315 58161l36197 0 0 62897 -36197 0 0 -62897z"/>
     </clipPath>
     <clipPath id="id3">
      <path d="M97453 63581l33759 0 0 58725 -33759 0 0 -58725z"/>
     </clipPath>
  <linearGradient id="id4" gradientUnits="userSpaceOnUse" x1="92714.4" y1="185108" x2="92714.4" y2="320.811">
   <stop offset="0" style="stop-opacity:1; stop-color:#8E441C"/>
   <stop offset="1" style="stop-opacity:1; stop-color:#CF9661"/>
  </linearGradient>
  <linearGradient id="id5" gradientUnits="userSpaceOnUse" x1="92714.4" y1="173380" x2="92714.4" y2="11691.5">
   <stop offset="0" style="stop-opacity:1; stop-color:#8E4C1C"/>
   <stop offset="1" style="stop-opacity:1; stop-color:#CF9661"/>
  </linearGradient>
  <linearGradient id="id6" gradientUnits="userSpaceOnUse" x1="56243.8" y1="113321" x2="75306.4" y2="70609.6">
   <stop offset="0" style="stop-opacity:1; stop-color:#632510"/>
   <stop offset="1" style="stop-opacity:1; stop-color:#9C4A31"/>
  </linearGradient>
  <linearGradient id="id7" gradientUnits="userSpaceOnUse" xlink:href="#id6" x1="99329.3" y1="74780.9" x2="105892" y2="59627.9">
  </linearGradient>
  <linearGradient id="id8" gradientUnits="userSpaceOnUse" xlink:href="#id6" x1="104802" y1="114300" x2="123863" y2="71588">
  </linearGradient>
  <linearGradient id="id9" gradientUnits="userSpaceOnUse" xlink:href="#id6" x1="74508.1" y1="74701" x2="81070.9" y2="59548.7">
  </linearGradient>
  <linearGradient id="id10" gradientUnits="userSpaceOnUse" xlink:href="#id6" x1="77840" y1="111243" x2="102988" y2="67975.7">
  </linearGradient>
 </defs>
 <g id="kudo">
  <metadata id="CorelCorpID_0Corel-Layer"/>
  <path class="fil0 str0" d="M92714 321c51028,0 92394,41366 92394,92393 0,51028 -41366,92394 -92394,92394 -51027,0 -92393,-41366 -92393,-92394 0,-51027 41366,-92393 92393,-92393z"/>
  <path class="fil1 str1" d="M92714 11691c44649,0 80845,36196 80845,80845 0,44649 -36196,80844 -80845,80844 -44649,0 -80844,-36195 -80844,-80844 0,-44649 36195,-80845 80844,-80845z"/>
  <path class="fil2" d="M82219 143589l-6159 0 0 -4131c0,-1204 -64,-1951 -194,-2252 -129,-296 -418,-447 -862,-447 -498,0 -817,180 -951,542 -135,366 -204,1148 -204,2352l0 11042c0,1158 69,1910 204,2266 134,351 437,526 906,526 453,0 752,-175 893,-531 139,-351 208,-1183 208,-2491l0 -2995 6159 0 0 928c0,2467 -174,4217 -517,5246 -345,1032 -1113,1935 -2293,2712 -1186,778 -2642,1164 -4375,1164 -1798,0 -3283,-326 -4454,-983 -1166,-657 -1942,-1565 -2321,-2728 -379,-1164 -569,-2908 -569,-5241l0 -6949c0,-1716 60,-2999 175,-3856 120,-858 463,-1685 1046,-2478 578,-793 1380,-1419 2407,-1876 1026,-456 2207,-682 3542,-682 1809,0 3303,351 4484,1059 1175,702 1949,1579 2322,2633 369,1052 553,2687 553,4909l0 2261zm7912 -10380l0 5360c509,-470 1056,-827 1645,-1062 587,-236 1220,-357 1892,-357 1032,0 1909,266 2637,793 722,531 1165,1138 1329,1830 160,693 239,1956 239,3785l0 13450 -5889 0 0 -13725c0,-1133 -54,-1865 -169,-2186 -114,-327 -363,-487 -757,-487 -364,0 -608,166 -738,501 -123,332 -189,993 -189,1982l0 13915 -5889 0 0 -23799 5889 0zm15844 0l0 3099 -6069 0 0 -3099 6069 0zm0 4302l0 19497 -6069 0 0 -19497 6069 0zm8309 -2587l0 3069 1645 0 0 3099 -1645 0 0 10425c0,1278 71,1996 205,2141 134,145 693,221 1679,221l0 3129 -2386 0c-1346,0 -2307,-55 -2885,-170 -573,-110 -1082,-372 -1520,-777 -439,-406 -712,-868 -822,-1395 -104,-521 -160,-1749 -160,-3685l0 -9889 -1254 0 0 -3099 1254 0 0 -3069 5889 0z"/>
  <path class="fil3" d="M82219 142716l-6159 0 0 -4132c0,-1203 -64,-1950 -194,-2250 -129,-297 -418,-447 -862,-447 -498,0 -817,180 -951,542 -135,366 -204,1148 -204,2352l0 11041c0,1159 69,1911 204,2267 134,351 437,526 906,526 453,0 752,-175 893,-531 139,-351 208,-1183 208,-2493l0 -2993 6159 0 0 927c0,2468 -174,4218 -517,5246 -345,1032 -1112,1936 -2293,2713 -1186,777 -2642,1164 -4375,1164 -1798,0 -3283,-326 -4454,-984 -1166,-657 -1942,-1564 -2321,-2727 -379,-1164 -569,-2909 -569,-5241l0 -6950c0,-1715 60,-2999 175,-3856 120,-859 463,-1685 1046,-2478 578,-792 1380,-1419 2407,-1875 1026,-456 2207,-682 3542,-682 1809,0 3303,351 4484,1058 1176,703 1949,1579 2322,2633 369,1053 553,2687 553,4909l0 2261zm7912 -10380l0 5361c509,-472 1056,-828 1645,-1063 587,-236 1220,-356 1892,-356 1032,0 1909,265 2637,792 722,532 1165,1139 1329,1831 160,692 239,1954 239,3785l0 13450 -5889 0 0 -13725c0,-1133 -54,-1865 -169,-2186 -114,-327 -363,-487 -757,-487 -364,0 -608,165 -738,501 -123,331 -189,993 -189,1981l0 13916 -5889 0 0 -23800 5889 0zm15844 0l0 3100 -6069 0 0 -3100 6069 0zm0 4303l0 19497 -6069 0 0 -19497 6069 0zm8309 -2587l0 3069 1645 0 0 3099 -1645 0 0 10425c0,1278 71,1995 205,2141 134,145 693,221 1679,221l0 3129 -2386 0c-1346,0 -2307,-55 -2885,-171 -573,-111 -1082,-371 -1520,-778 -439,-405 -712,-866 -822,-1393 -104,-522 -160,-1750 -160,-3686l0 -9888 -1254 0 0 -3099 1254 0 0 -3069 5889 0z"/>
  <g id="_1939265611808">
   <g>
    <g style="clip-path:url(#id0)">
     <image x="74455" y="59468" width="36197" height="62897" xlink:href="copper_personal_Images\copper_personal_ImgID1.png"/>
    </g>
   </g>
   <path class="fil4" d="M90563 63644c1953,4881 3364,10070 5317,14950 1087,139 1497,-1785 1410,-5052 2545,2475 3865,6892 5099,11444 6896,12991 4784,23335 -4231,31653 -3689,2052 -7377,1935 -11066,412 -8223,-5916 -12022,-16827 -4122,-32167 675,-2913 1453,-5818 3145,-8661 523,2307 1138,4369 2387,4743 507,-5671 1555,-11651 2061,-17322z"/>
   <path class="fil4" d="M75432 67806c1832,3838 2945,6691 5466,8037 -3301,6261 -6169,12522 -9471,18784 2526,5234 4620,10468 7146,15701 -2210,2804 -4421,5607 -6631,8411 -5914,-7196 -11097,-16546 -17011,-23743 6746,-9782 13755,-17409 20501,-27190z"/>
   <g>
    <g style="clip-path:url(#id1)">
     <image x="99593" y="64888" width="33758" height="58724" xlink:href="copper_personal_Images\copper_personal_ImgID2.png"/>
    </g>
   </g>
   <path class="fil4" d="M108955 68783c-1833,3839 -2946,6693 -5467,8038 3302,6261 6500,12523 9802,18785 -2526,5233 -4950,10467 -7476,15700 2210,2804 4420,5607 6631,8411 5914,-7196 11098,-16546 17011,-23742 -6745,-9782 -13755,-17409 -20501,-27192z"/>
   <path class="fil4" d="M81252 77367c1234,-1278 2138,-2555 3372,-3832 0,-4579 0,-9159 0,-13738 -9031,-2424 -14026,10418 -3372,17570z"/>
   <path class="fil4" d="M103427 77446c-1234,-1277 -2137,-2555 -3372,-3832 0,-4580 0,-9159 0,-13739 9031,-2423 14027,10419 3372,17571z"/>
  </g>
  <g id="_1939265613856">
   <g>
    <g style="clip-path:url(#id2)">
     <image x="72315" y="58161" width="36197" height="62897" xlink:href="copper_personal_Images\copper_personal_ImgID3.png"/>
    </g>
   </g>
   <path class="fil5" d="M88423 62338c1953,4879 3364,10069 5317,14950 1087,137 1496,-1786 1410,-5052 2546,2474 3865,6891 5100,11443 6896,12991 4783,23335 -4232,31652 -3689,2053 -7377,1936 -11066,413 -8223,-5916 -12022,-16827 -4123,-32167 676,-2913 1454,-5818 3147,-8661 522,2307 1137,4368 2386,4743 506,-5671 1555,-11650 2061,-17321z"/>
   <path class="fil6" d="M73291 66498c1833,3839 2946,6692 5468,8038 -3302,6261 -6171,12522 -9471,18785 2526,5233 4619,10467 7145,15700 -2210,2804 -4421,5607 -6631,8411 -5914,-7196 -11097,-16547 -17011,-23743 6746,-9781 13755,-17408 20500,-27191z"/>
   <g>
    <g style="clip-path:url(#id3)">
     <image x="97453" y="63581" width="33758" height="58724" xlink:href="copper_personal_Images\copper_personal_ImgID4.png"/>
    </g>
   </g>
   <path class="fil7" d="M106815 67476c-1832,3838 -2946,6693 -5467,8038 3302,6262 6501,12523 9802,18784 -2526,5234 -4950,10467 -7477,15701 2211,2804 4422,5607 6632,8411 5914,-7196 11098,-16546 17011,-23742 -6746,-9782 -13755,-17410 -20501,-27192z"/>
   <path class="fil8" d="M79111 76060c1235,-1277 2139,-2555 3374,-3832 0,-4579 0,-9159 0,-13738 -9031,-2424 -14027,10418 -3374,17570z"/>
   <path class="fil9" d="M101288 76138c-1235,-1276 -2138,-2554 -3372,-3831 0,-4580 0,-9159 0,-13738 9030,-2424 14026,10418 3372,17569z"/>
  </g>
  <path class="fil10" d="M79008 25736l-3164 10909 3460 13250 -5709 0 -2249 -10354 0 10354 -5548 0 0 -24159 5548 0 0 9386 2491 -9386 5171 0zm13227 4367l0 19792 -5400 0 95 -1649c-368,672 -821,1176 -1360,1512 -539,336 -1158,504 -1859,504 -794,0 -1458,-157 -1983,-478 -526,-317 -911,-739 -1163,-1268 -247,-530 -404,-1074 -467,-1650 -58,-570 -90,-1704 -90,-3410l0 -13353 5306 0 0 13470c0,1543 40,2454 125,2744 81,290 310,433 678,433 391,0 629,-148 701,-448 75,-296 112,-1258 112,-2876l0 -13323 5305 0zm14017 -4367l0 24159 -5305 0 0 -1441c-512,606 -1046,1054 -1607,1354 -566,302 -1153,454 -1768,454 -826,0 -1544,-244 -2151,-738 -605,-494 -996,-1064 -1167,-1711 -170,-646 -255,-1700 -255,-3166l0 -9270c0,-1522 85,-2600 255,-3238 171,-636 566,-1195 1181,-1680 615,-482 1351,-722 2204,-722 660,0 1261,137 1813,407 548,270 1046,672 1495,1217l0 -5625 5305 0zm-5305 9346c0,-723 -54,-1211 -166,-1462 -112,-249 -333,-371 -660,-371 -323,0 -538,113 -651,337 -112,224 -166,722 -166,1496l0 9698c0,804 54,1333 162,1588 107,254 310,382 614,382 346,0 580,-143 692,-428 117,-280 175,-972 175,-2077l0 -9163zm19214 1970l0 4851c0,1782 -81,3085 -238,3921 -157,828 -494,1603 -1010,2325 -516,724 -1180,1253 -1993,1599 -813,341 -1741,514 -2791,514 -1177,0 -2173,-148 -2985,-439 -817,-294 -1450,-737 -1899,-1328 -453,-596 -776,-1313 -969,-2153 -194,-840 -287,-2102 -287,-3782l0 -5076c0,-1842 174,-3278 524,-4316 351,-1033 984,-1863 1895,-2490 911,-625 2078,-941 3496,-941 1190,0 2213,204 3070,606 853,403 1513,926 1979,1573 463,647 781,1313 952,2001 171,687 256,1730 256,3135zm-5306 -1492c0,-1012 -48,-1653 -143,-1914 -99,-264 -305,-397 -624,-397 -319,0 -529,133 -637,397 -104,261 -158,902 -158,1914l0 8934c0,937 54,1548 158,1828 108,285 314,428 624,428 318,0 524,-128 628,-387 104,-260 152,-815 152,-1670l0 -9133z"/>
  <path class="fil11" d="M78478 24597l-3164 10909 3461 13251 -5710 0 -2248 -10354 0 10354 -5548 0 0 -24160 5548 0 0 9388 2490 -9388 5171 0zm13228 4369l0 19791 -5400 0 94 -1649c-368,672 -821,1175 -1360,1511 -539,336 -1158,505 -1858,505 -794,0 -1459,-158 -1984,-479 -525,-315 -911,-738 -1163,-1268 -247,-529 -403,-1073 -466,-1649 -58,-570 -90,-1704 -90,-3410l0 -13352 5305 0 0 13469c0,1542 41,2453 126,2744 80,289 310,433 677,433 391,0 629,-149 701,-448 76,-297 112,-1258 112,-2877l0 -13321 5306 0zm14017 -4369l0 24160 -5306 0 0 -1441c-512,606 -1046,1054 -1606,1354 -566,301 -1154,454 -1769,454 -826,0 -1544,-245 -2150,-739 -606,-493 -996,-1063 -1167,-1710 -170,-647 -255,-1701 -255,-3167l0 -9270c0,-1520 85,-2600 255,-3236 171,-637 566,-1196 1180,-1680 616,-484 1352,-724 2205,-724 659,0 1260,138 1813,408 547,269 1045,672 1494,1217l0 -5626 5306 0zm-5306 9347c0,-724 -54,-1211 -166,-1461 -112,-250 -332,-372 -660,-372 -322,0 -538,112 -651,336 -112,224 -166,723 -166,1497l0 9697c0,804 54,1333 162,1588 108,255 310,383 615,383 346,0 579,-144 691,-428 117,-281 175,-973 175,-2077l0 -9163zm19214 1970l0 4851c0,1782 -81,3084 -238,3920 -157,829 -493,1604 -1010,2326 -516,723 -1180,1252 -1993,1598 -812,342 -1741,515 -2791,515 -1176,0 -2172,-149 -2985,-438 -817,-296 -1450,-739 -1899,-1329 -452,-596 -775,-1313 -968,-2154 -194,-838 -287,-2102 -287,-3781l0 -5076c0,-1842 174,-3278 524,-4316 351,-1033 983,-1864 1894,-2490 911,-626 2078,-942 3496,-942 1190,0 2213,204 3070,607 853,402 1513,926 1980,1573 462,646 780,1313 951,2000 171,687 256,1731 256,3136zm-5305 -1492c0,-1012 -49,-1654 -143,-1914 -100,-264 -306,-397 -624,-397 -319,0 -530,133 -638,397 -103,260 -157,902 -157,1914l0 8934c0,936 54,1547 157,1828 108,284 314,428 624,428 318,0 525,-128 628,-388 104,-259 153,-814 153,-1669l0 -9133z"/>
 </g>
</svg>
