<?xml version="1.0" encoding="UTF-8"?>
<!DOCTYPE svg PUBLIC "-//W3C//DTD SVG 1.1//EN" "http://www.w3.org/Graphics/SVG/1.1/DTD/svg11.dtd">
<!-- Creator: CorelDRAW X8 -->
<svg xmlns="http://www.w3.org/2000/svg" xml:space="preserve" width="260px" height="260px" version="1.1" style="shape-rendering:geometricPrecision; text-rendering:geometricPrecision; image-rendering:optimizeQuality; fill-rule:evenodd; clip-rule:evenodd"
viewBox="0 0 225277 225277"
 xmlns:xlink="http://www.w3.org/1999/xlink">
 <defs>
  <style type="text/css">
   <![CDATA[
    .str1 {stroke:#A99018;stroke-width:3466.45}
    .str0 {stroke:#A99018;stroke-width:780.104}
    .str2 {stroke:#856916;stroke-width:780.104}
    .fil4 {fill:#9A7D1A}
    .fil10 {fill:#AA9117}
    .fil11 {fill:#AF9816}
    .fil12 {fill:#B39D16}
    .fil13 {fill:#B6A115}
    .fil14 {fill:#B8A415}
    .fil15 {fill:#BBA714}
    .fil16 {fill:#BCA914}
    .fil17 {fill:#BEAB14}
    .fil18 {fill:#BFAD14}
    .fil19 {fill:#C0AF13}
    .fil20 {fill:#C1B013}
    .fil21 {fill:#C2B113}
    .fil22 {fill:#C3B213}
    .fil23 {fill:#C4B313}
    .fil24 {fill:#C5B413}
    .fil25 {fill:#C5B513}
    .fil26 {fill:#C6B613}
    .fil27 {fill:#C7B712}
    .fil28 {fill:#C8B812}
    .fil29 {fill:#C8B912}
    .fil30 {fill:#C9B912}
    .fil31 {fill:#C9BA12}
    .fil32 {fill:#CABA12}
    .fil33 {fill:#CABB12}
    .fil34 {fill:#CABC12}
    .fil35 {fill:#CBBC12}
    .fil36 {fill:#CBBD12}
    .fil37 {fill:#CCBD12}
    .fil38 {fill:#CCBE12}
    .fil39 {fill:#CDBE12}
    .fil41 {fill:#CDBF11}
    .fil40 {fill:#CDBF12}
    .fil42 {fill:#CDC011}
    .fil43 {fill:#CEC011}
    .fil44 {fill:#CEC111}
    .fil45 {fill:#CFC111}
    .fil46 {fill:#CFC211}
    .fil47 {fill:#D0C211}
    .fil48 {fill:#D0C311}
    .fil49 {fill:#D0C411}
    .fil50 {fill:#D1C411}
    .fil51 {fill:#D1C511}
    .fil52 {fill:#D2C511}
    .fil53 {fill:#D2C611}
    .fil54 {fill:#D3C611}
    .fil56 {fill:#D3C710}
    .fil55 {fill:#D3C711}
    .fil57 {fill:#D3C810}
    .fil58 {fill:#D4C810}
    .fil59 {fill:#D4C910}
    .fil60 {fill:#D5C910}
    .fil61 {fill:#D5CA10}
    .fil62 {fill:#D6CA10}
    .fil63 {fill:#D6CB10}
    .fil64 {fill:#D6CC10}
    .fil65 {fill:#D7CC10}
    .fil66 {fill:#D7CD10}
    .fil67 {fill:#D8CD10}
    .fil68 {fill:#D8CE10}
    .fil69 {fill:#D9CF10}
    .fil70 {fill:#DAD00F}
    .fil71 {fill:#DBD10F}
    .fil72 {fill:#DBD20F}
    .fil73 {fill:#DCD30F}
    .fil74 {fill:#DDD40F}
    .fil75 {fill:#DED50F}
    .fil76 {fill:#DFD60F}
    .fil77 {fill:#E0D70F}
    .fil78 {fill:#E1D90E}
    .fil79 {fill:#E2DB0E}
    .fil80 {fill:#E4DD0E}
    .fil81 {fill:#E5DF0E}
    .fil82 {fill:#E8E20D}
    .fil83 {fill:#EAE50D}
    .fil84 {fill:#EDE90C}
    .fil85 {fill:#F1EE0C}
    .fil86 {fill:#F6F50B}
    .fil2 {fill:#DED60F;fill-rule:nonzero}
    .fil88 {fill:#F7F60A;fill-rule:nonzero}
    .fil3 {fill:#634E10;fill-rule:nonzero}
    .fil87 {fill:#7D6315;fill-rule:nonzero}
    .fil1 {fill:url(#id2)}
    .fil0 {fill:url(#id3)}
    .fil5 {fill:url(#id4)}
    .fil8 {fill:url(#id5)}
    .fil6 {fill:url(#id6)}
    .fil9 {fill:url(#id7)}
    .fil7 {fill:url(#id8)}
   ]]>
  </style>
    <clipPath id="id0">
     <path d="M95440 65723l38857 0 0 59425 -38857 0 0 -59425z"/>
    </clipPath>
    <clipPath id="id1">
     <path d="M83105 150715l0 -9014 34142 0 0 9014 -34142 0z"/>
    </clipPath>
  <linearGradient id="id2" gradientUnits="userSpaceOnUse" x1="112768" y1="210639" x2="112768" y2="14204.7">
   <stop offset="0" style="stop-opacity:1; stop-color:#8E6D1C"/>
   <stop offset="1" style="stop-opacity:1; stop-color:#FAFA0A"/>
  </linearGradient>
  <linearGradient id="id3" gradientUnits="userSpaceOnUse" xlink:href="#id2" x1="112638" y1="224887" x2="112638" y2="390.052">
  </linearGradient>
  <linearGradient id="id4" gradientUnits="userSpaceOnUse" x1="101371" y1="115450" x2="128367" y2="75422.4">
   <stop offset="0" style="stop-opacity:1; stop-color:#957417"/>
   <stop offset="1" style="stop-opacity:1; stop-color:#FFFF51"/>
  </linearGradient>
  <linearGradient id="id5" gradientUnits="userSpaceOnUse" xlink:href="#id4" x1="105182" y1="132433" x2="101754" y2="142097">
  </linearGradient>
  <linearGradient id="id6" gradientUnits="userSpaceOnUse" xlink:href="#id4" x1="89277.3" y1="97525.7" x2="79597.6" y2="93898.4">
  </linearGradient>
  <linearGradient id="id7" gradientUnits="userSpaceOnUse" xlink:href="#id4" x1="143232" y1="128934" x2="110055" y2="141077">
  </linearGradient>
  <linearGradient id="id8" gradientUnits="userSpaceOnUse" xlink:href="#id4" x1="92201.5" y1="135222" x2="80737.3" y2="102110">
  </linearGradient>
 </defs>
 <g id="Layer_x0020_1">
  <metadata id="CorelCorpID_0Corel-Layer"/>
  <path class="fil0 str0" d="M112638 390c61994,0 112249,50255 112249,112249 0,61993 -50255,112248 -112249,112248 -61993,0 -112248,-50255 -112248,-112248 0,-61994 50255,-112249 112248,-112249z"/>
  <path class="fil1 str1" d="M112768 14205c54244,0 98217,43973 98217,98217 0,54244 -43973,98217 -98217,98217 -54244,0 -98217,-43973 -98217,-98217 0,-54244 43973,-98217 98217,-98217z"/>
  <g id="_1940682758560">
   <path class="fil2" d="M103738 177133l-7504 0 0 -5243c0,-1528 -77,-2476 -236,-2858 -158,-376 -510,-567 -1050,-567 -608,0 -996,229 -1159,688 -163,463 -249,1457 -249,2985l0 14014c0,1470 86,2424 249,2876 163,445 534,668 1104,668 553,0 917,-223 1087,-674 170,-446 254,-1501 254,-3163l0 -3799 7504 0 0 1176c0,3132 -213,5354 -631,6658 -420,1311 -1355,2456 -2793,3443 -1444,987 -3218,1477 -5330,1477 -2190,0 -3998,-413 -5426,-1248 -1421,-834 -2366,-1986 -2828,-3461 -462,-1477 -692,-3693 -692,-6652l0 -8821c0,-2177 72,-3806 212,-4894 146,-1088 564,-2138 1275,-3144 705,-1005 1680,-1802 2931,-2380 1250,-579 2690,-866 4315,-866 2205,0 4026,446 5464,1343 1432,891 2373,2005 2829,3342 448,1336 674,3411 674,6230l0 2870zm9638 -13173l0 6803c620,-598 1287,-1050 2004,-1349 716,-299 1486,-452 2306,-452 1256,0 2325,337 3211,1006 881,674 1420,1444 1621,2322 194,878 291,2482 291,4805l0 17070 -7174 0 0 -17419c0,-1440 -67,-2368 -206,-2776 -139,-413 -443,-617 -924,-617 -442,0 -740,210 -897,636 -152,421 -232,1261 -232,2514l0 17662 -7174 0 0 -30205 7174 0zm19303 0l0 3932 -7393 0 0 -3932 7393 0zm0 5461l0 24744 -7393 0 0 -24744 7393 0zm10124 -3285l0 3895 2004 0 0 3933 -2004 0 0 13231c0,1624 85,2534 249,2718 164,185 843,280 2045,280l0 3972 -2907 0c-1639,0 -2810,-71 -3514,-217 -699,-139 -1317,-471 -1852,-987 -533,-515 -868,-1099 -1001,-1769 -128,-661 -194,-2220 -194,-4676l0 -12552 -1530 0 0 -3933 1530 0 0 -3895 7174 0z"/>
   <path class="fil3" d="M102990 175662l-7503 0 0 -5244c0,-1528 -78,-2475 -236,-2858 -158,-375 -510,-566 -1051,-566 -607,0 -995,229 -1159,688 -164,463 -249,1456 -249,2984l0 14014c0,1470 85,2424 249,2877 164,445 535,668 1105,668 553,0 916,-223 1087,-674 170,-447 254,-1502 254,-3164l0 -3799 7503 0 0 1177c0,3131 -213,5353 -631,6658 -420,1310 -1354,2456 -2792,3443 -1445,987 -3218,1477 -5330,1477 -2191,0 -4000,-415 -5426,-1248 -1421,-834 -2368,-1986 -2829,-3462 -461,-1477 -693,-3692 -693,-6652l0 -8820c0,-2177 74,-3806 213,-4895 146,-1088 564,-2139 1276,-3144 703,-1005 1680,-1801 2931,-2379 1250,-581 2689,-866 4315,-866 2204,0 4026,445 5463,1343 1433,891 2374,2003 2830,3342 448,1336 673,3410 673,6229l0 2871zm9639 -13174l0 6804c619,-599 1287,-1051 2003,-1349 717,-299 1487,-453 2306,-453 1257,0 2325,338 3211,1005 881,675 1420,1445 1621,2324 195,878 292,2481 292,4805l0 17069 -7175 0 0 -17419c0,-1439 -66,-2368 -206,-2775 -140,-413 -444,-618 -923,-618 -443,0 -741,211 -898,637 -152,419 -231,1260 -231,2514l0 17661 -7175 0 0 -30205 7175 0zm19302 0l0 3932 -7393 0 0 -3932 7393 0zm0 5461l0 24744 -7393 0 0 -24744 7393 0zm10125 -3286l0 3896 2003 0 0 3933 -2003 0 0 13231c0,1624 85,2535 249,2719 163,185 843,280 2045,280l0 3971 -2907 0c-1639,0 -2811,-70 -3515,-216 -698,-140 -1317,-472 -1851,-987 -534,-515 -868,-1100 -1001,-1770 -128,-661 -195,-2221 -195,-4677l0 -12551 -1529 0 0 -3933 1529 0 0 -3896 7175 0z"/>
  </g>
 </g>
 <g id="promise_x0020_logo">
  <metadata id="CorelCorpID_1Corel-Layer"/>
  <path class="fil4" d="M88900 102948c-419,-721 1279,-3683 968,-5728 -256,-1681 -1356,-2872 -1700,-3465 -3810,-1179 -1858,-6129 -6642,-1188 -3750,5264 -1350,11855 7374,10381z"/>
  <path class="fil4" d="M80782 100869c3486,1228 5096,2654 7691,1913 698,6970 832,12633 619,18085 4596,855 7395,511 13080,511 -47,3107 -94,6591 -141,9698 -8009,0 -12885,-10 -21824,-292 0,-9772 -730,-16052 575,-29915z"/>
  <g id="_1940682761696">
   <g style="clip-path:url(#id0)">
    <image x="95440" y="65723" width="38857" height="59425" xlink:href="gold_promise_Images\gold_promise_ImgID1.png"/>
   </g>
  </g>
  <path class="fil5" d="M112732 70206c2096,4515 3611,9317 5708,13830 1166,128 1606,-1651 1513,-4673 2732,2289 4149,6376 5474,10588 7404,12016 5135,21587 -4542,29281 -3960,1898 -7919,1791 -11880,382 -8827,-5473 -12906,-15567 -4425,-29759 725,-2694 1560,-5382 3377,-8012 561,2134 1222,4041 2562,4387 544,-5246 1670,-10778 2213,-16024z"/>
  <path class="fil6" d="M88367 101892c-420,-721 1278,-3684 967,-5728 -257,-1681 -1355,-2873 -1699,-3466 -3812,-1178 -1859,-6129 -6643,-1187 -3749,5264 -1351,11855 7375,10381z"/>
  <path class="fil7" d="M80248 99812c3486,1229 5097,2654 7692,1914 698,6970 831,12632 618,18085 4596,854 7396,510 13081,510 -47,3107 -94,6591 -143,9698 -8008,0 -12884,-10 -21823,-291 0,-9772 -730,-16053 575,-29916z"/>
  <path class="fil4" d="M110733 132770c-724,423 -3737,-1225 -5799,-894 -1697,272 -2889,1371 -3485,1718 -1148,3784 -6174,1907 -1127,6585 5361,3654 11996,1208 10411,-7409z"/>
  <path class="fil4" d="M108720 140825c1203,-3461 2626,-5070 1850,-7630 7035,-767 12756,-960 18269,-809 814,-4556 436,-7323 374,-12947 3141,13 6662,21 9802,35 87,7925 130,12749 -57,21596 -9875,105 -16215,897 -30238,-245z"/>
  <path class="fil8" d="M109671 133311c-725,422 -3738,-1226 -5799,-895 -1697,271 -2888,1372 -3484,1719 -1150,3783 -6175,1905 -1128,6585 5361,3653 11995,1207 10411,-7409z"/>
  <path class="fil9" d="M107657 141365c1203,-3462 2626,-5071 1850,-7630 7037,-767 12757,-961 18269,-808 815,-4558 437,-7323 375,-12949 3141,14 6663,22 9803,36 87,7924 130,12748 -59,21595 -9875,106 -16214,897 -30238,-244z"/>
  <g>
   <g style="clip-path:url(#id1)">
    <polygon class="fil10" points="83105,150715 83105,150697 117247,150697 117247,150715 "/>
    <polygon id="1" class="fil11" points="83105,150715 83105,150663 117247,150663 117247,150715 "/>
    <polygon id="2" class="fil12" points="83105,150680 83105,150627 117247,150627 117247,150680 "/>
    <polygon id="3" class="fil13" points="83105,150645 83105,150592 117247,150592 117247,150645 "/>
    <polygon id="4" class="fil14" points="83105,150609 83105,150557 117247,150557 117247,150609 "/>
    <polygon id="5" class="fil15" points="83105,150574 83105,150521 117247,150521 117247,150574 "/>
    <polygon id="6" class="fil16" points="83105,150539 83105,150486 117247,150486 117247,150539 "/>
    <polygon id="7" class="fil17" points="83105,150504 83105,150451 117247,150451 117247,150504 "/>
    <polygon id="8" class="fil18" points="83105,150469 83105,150416 117247,150416 117247,150469 "/>
    <polygon id="9" class="fil19" points="83105,150433 83105,150381 117247,150381 117247,150433 "/>
    <polygon id="10" class="fil20" points="83105,150398 83105,150345 117247,150345 117247,150398 "/>
    <polygon id="11" class="fil21" points="83105,150363 83105,150310 117247,150310 117247,150363 "/>
    <polygon id="12" class="fil22" points="83105,150328 83105,150275 117247,150275 117247,150328 "/>
    <polygon id="13" class="fil23" points="83105,150293 83105,150240 117247,150240 117247,150293 "/>
    <polygon id="14" class="fil24" points="83105,150257 83105,150205 117247,150205 117247,150257 "/>
    <polygon id="15" class="fil25" points="83105,150222 83105,150169 117247,150169 117247,150222 "/>
    <polygon id="16" class="fil26" points="83105,150186 83105,150134 117247,150134 117247,150186 "/>
    <polygon id="17" class="fil26" points="83105,150152 83105,150098 117247,150098 117247,150152 "/>
    <polygon id="18" class="fil27" points="83105,150117 83105,150064 117247,150064 117247,150117 "/>
    <polygon id="19" class="fil27" points="83105,150081 83105,150029 117247,150029 117247,150081 "/>
    <polygon id="20" class="fil28" points="83105,150046 83105,149993 117247,149993 117247,150046 "/>
    <polygon id="21" class="fil28" points="83105,150010 83105,149958 117247,149958 117247,150010 "/>
    <polygon id="22" class="fil29" points="83105,149976 83105,149922 117247,149922 117247,149976 "/>
    <polygon id="23" class="fil30" points="83105,149941 83105,149888 117247,149888 117247,149941 "/>
    <polygon id="24" class="fil31" points="83105,149905 83105,149853 117247,149853 117247,149905 "/>
    <polygon id="25" class="fil31" points="83105,149870 83105,149817 117247,149817 117247,149870 "/>
    <polygon id="26" class="fil32" points="83105,149834 83105,149782 117247,149782 117247,149834 "/>
    <polygon id="27" class="fil33" points="83105,149800 83105,149746 117247,149746 117247,149800 "/>
    <polygon id="28" class="fil33" points="83105,149765 83105,149711 117247,149711 117247,149765 "/>
    <polygon id="29" class="fil33" points="83105,149729 83105,149677 117247,149677 117247,149729 "/>
    <polygon id="30" class="fil34" points="83105,149694 83105,149641 117247,149641 117247,149694 "/>
    <polygon id="31" class="fil35" points="83105,149659 83105,149606 117247,149606 117247,149659 "/>
    <polygon id="32" class="fil35" points="83105,149623 83105,149571 117247,149571 117247,149623 "/>
    <polygon id="33" class="fil35" points="83105,149589 83105,149535 117247,149535 117247,149589 "/>
    <polygon id="34" class="fil36" points="83105,149553 83105,149501 117247,149501 117247,149553 "/>
    <polygon id="35" class="fil36" points="83105,149518 83105,149465 117247,149465 117247,149518 "/>
    <polygon id="36" class="fil37" points="83105,149483 83105,149430 117247,149430 117247,149483 "/>
    <polygon id="37" class="fil37" points="83105,149447 83105,149395 117247,149395 117247,149447 "/>
    <polygon id="38" class="fil37" points="83105,149413 83105,149359 117247,149359 117247,149413 "/>
    <polygon id="39" class="fil38" points="83105,149377 83105,149324 117247,149324 117247,149377 "/>
    <polygon id="40" class="fil38" points="83105,149342 83105,149289 117247,149289 117247,149342 "/>
    <polygon id="41" class="fil38" points="83105,149307 83105,149254 117247,149254 117247,149307 "/>
    <polygon id="42" class="fil38" points="83105,149271 83105,149219 117247,149219 117247,149271 "/>
    <polygon id="43" class="fil38" points="83105,149236 83105,149183 117247,149183 117247,149236 "/>
    <polygon id="44" class="fil39" points="83105,149201 83105,149148 117247,149148 117247,149201 "/>
    <polygon id="45" class="fil40" points="83105,149166 83105,149113 117247,149113 117247,149166 "/>
    <polygon id="46" class="fil40" points="83105,149131 83105,149078 117247,149078 117247,149131 "/>
    <polygon id="47" class="fil41" points="83105,149095 83105,149043 117247,149043 117247,149095 "/>
    <polygon id="48" class="fil41" points="83105,149060 83105,149007 117247,149007 117247,149060 "/>
    <polygon id="49" class="fil41" points="83105,149025 83105,148972 117247,148972 117247,149025 "/>
    <polygon id="50" class="fil41" points="83105,148990 83105,148936 117247,148936 117247,148990 "/>
    <polygon id="51" class="fil41" points="83105,148955 83105,148902 117247,148902 117247,148955 "/>
    <polygon id="52" class="fil41" points="83105,148919 83105,148867 117247,148867 117247,148919 "/>
    <polygon id="53" class="fil42" points="83105,148884 83105,148831 117247,148831 117247,148884 "/>
    <polygon id="54" class="fil42" points="83105,148848 83105,148796 117247,148796 117247,148848 "/>
    <polygon id="55" class="fil43" points="83105,148814 83105,148760 117247,148760 117247,148814 "/>
    <polygon id="56" class="fil43" points="83105,148779 83105,148726 117247,148726 117247,148779 "/>
    <polygon id="57" class="fil43" points="83105,148743 83105,148691 117247,148691 117247,148743 "/>
    <polygon id="58" class="fil43" points="83105,148708 83105,148655 117247,148655 117247,148708 "/>
    <polygon id="59" class="fil43" points="83105,148672 83105,148620 117247,148620 117247,148672 "/>
    <polygon id="60" class="fil43" points="83105,148638 83105,148584 117247,148584 117247,148638 "/>
    <polygon id="61" class="fil43" points="83105,148603 83105,148549 117247,148549 117247,148603 "/>
    <polygon id="62" class="fil43" points="83105,148567 83105,148515 117247,148515 117247,148567 "/>
    <polygon id="63" class="fil43" points="83105,148532 83105,148479 117247,148479 117247,148532 "/>
    <polygon id="64" class="fil44" points="83105,148496 83105,148444 117247,148444 117247,148496 "/>
    <polygon id="65" class="fil44" points="83105,148461 83105,148408 117247,148408 117247,148461 "/>
    <polygon id="66" class="fil44" points="83105,148427 83105,148373 117247,148373 117247,148427 "/>
    <polygon id="67" class="fil44" points="83105,148391 83105,148339 117247,148339 117247,148391 "/>
    <polygon id="68" class="fil44" points="83105,148356 83105,148303 117247,148303 117247,148356 "/>
    <polygon id="69" class="fil44" points="83105,148320 83105,148268 117247,148268 117247,148320 "/>
    <polygon id="70" class="fil44" points="83105,148285 83105,148232 117247,148232 117247,148285 "/>
    <polygon id="71" class="fil44" points="83105,148251 83105,148197 117247,148197 117247,148251 "/>
    <polygon id="72" class="fil45" points="83105,148215 83105,148163 117247,148163 117247,148215 "/>
    <polygon id="73" class="fil45" points="83105,148180 83105,148127 117247,148127 117247,148180 "/>
    <polygon id="74" class="fil45" points="83105,148144 83105,148092 117247,148092 117247,148144 "/>
    <polygon id="75" class="fil45" points="83105,148109 83105,148056 117247,148056 117247,148109 "/>
    <polygon id="76" class="fil45" points="83105,148074 83105,148021 117247,148021 117247,148074 "/>
    <polygon id="77" class="fil45" points="83105,148039 83105,147986 117247,147986 117247,148039 "/>
    <polygon id="78" class="fil45" points="83105,148004 83105,147951 117247,147951 117247,148004 "/>
    <polygon id="79" class="fil45" points="83105,147968 83105,147916 117247,147916 117247,147968 "/>
    <polygon id="80" class="fil45" points="83105,147933 83105,147880 117247,147880 117247,147933 "/>
    <polygon id="81" class="fil46" points="83105,147898 83105,147845 117247,147845 117247,147898 "/>
    <polygon id="82" class="fil46" points="83105,147863 83105,147810 117247,147810 117247,147863 "/>
    <polygon id="83" class="fil46" points="83105,147828 83105,147775 117247,147775 117247,147828 "/>
    <polygon id="84" class="fil46" points="83105,147792 83105,147740 117247,147740 117247,147792 "/>
    <polygon id="85" class="fil46" points="83105,147757 83105,147704 117247,147704 117247,147757 "/>
    <polygon id="86" class="fil46" points="83105,147722 83105,147669 117247,147669 117247,147722 "/>
    <polygon id="87" class="fil46" points="83105,147686 83105,147634 117247,147634 117247,147686 "/>
    <polygon id="88" class="fil46" points="83105,147652 83105,147598 117247,147598 117247,147652 "/>
    <polygon id="89" class="fil46" points="83105,147616 83105,147564 117247,147564 117247,147616 "/>
    <polygon id="90" class="fil46" points="83105,147581 83105,147528 117247,147528 117247,147581 "/>
    <polygon id="91" class="fil46" points="83105,147546 83105,147493 117247,147493 117247,147546 "/>
    <polygon id="92" class="fil46" points="83105,147510 83105,147458 117247,147458 117247,147510 "/>
    <polygon id="93" class="fil46" points="83105,147476 83105,147422 117247,147422 117247,147476 "/>
    <polygon id="94" class="fil46" points="83105,147440 83105,147388 117247,147388 117247,147440 "/>
    <polygon id="95" class="fil46" points="83105,147405 83105,147352 117247,147352 117247,147405 "/>
    <polygon id="96" class="fil46" points="83105,147370 83105,147317 117247,147317 117247,147370 "/>
    <polygon id="97" class="fil46" points="83105,147334 83105,147282 117247,147282 117247,147334 "/>
    <polygon id="98" class="fil46" points="83105,147299 83105,147246 117247,147246 117247,147299 "/>
    <polygon id="99" class="fil46" points="83105,147264 83105,147211 117247,147211 117247,147264 "/>
    <polygon id="100" class="fil46" points="83105,147229 83105,147176 117247,147176 117247,147229 "/>
    <polygon id="101" class="fil46" points="83105,147194 83105,147141 117247,147141 117247,147194 "/>
    <polygon id="102" class="fil47" points="83105,147158 83105,147106 117247,147106 117247,147158 "/>
    <polygon id="103" class="fil47" points="83105,147123 83105,147070 117247,147070 117247,147123 "/>
    <polygon id="104" class="fil47" points="83105,147088 83105,147035 117247,147035 117247,147088 "/>
    <polygon id="105" class="fil47" points="83105,147053 83105,147000 117247,147000 117247,147053 "/>
    <polygon id="106" class="fil47" points="83105,147018 83105,146965 117247,146965 117247,147018 "/>
    <polygon id="107" class="fil48" points="83105,146982 83105,146930 117247,146930 117247,146982 "/>
    <polygon id="108" class="fil48" points="83105,146947 83105,146894 117247,146894 117247,146947 "/>
    <polygon id="109" class="fil48" points="83105,146911 83105,146859 117247,146859 117247,146911 "/>
    <polygon id="110" class="fil48" points="83105,146877 83105,146823 117247,146823 117247,146877 "/>
    <polygon id="111" class="fil48" points="83105,146842 83105,146789 117247,146789 117247,146842 "/>
    <polygon id="112" class="fil48" points="83105,146806 83105,146754 117247,146754 117247,146806 "/>
    <polygon id="113" class="fil48" points="83105,146771 83105,146718 117247,146718 117247,146771 "/>
    <polygon id="114" class="fil48" points="83105,146735 83105,146683 117247,146683 117247,146735 "/>
    <polygon id="115" class="fil48" points="83105,146701 83105,146647 117247,146647 117247,146701 "/>
    <polygon id="116" class="fil48" points="83105,146666 83105,146613 117247,146613 117247,146666 "/>
    <polygon id="117" class="fil48" points="83105,146630 83105,146578 117247,146578 117247,146630 "/>
    <polygon id="118" class="fil48" points="83105,146595 83105,146542 117247,146542 117247,146595 "/>
    <polygon id="119" class="fil48" points="83105,146559 83105,146507 117247,146507 117247,146559 "/>
    <polygon id="120" class="fil48" points="83105,146524 83105,146471 117247,146471 117247,146524 "/>
    <polygon id="121" class="fil48" points="83105,146490 83105,146436 117247,146436 117247,146490 "/>
    <polygon id="122" class="fil48" points="83105,146454 83105,146402 117247,146402 117247,146454 "/>
    <polygon id="123" class="fil48" points="83105,146419 83105,146366 117247,146366 117247,146419 "/>
    <polygon id="124" class="fil48" points="83105,146383 83105,146331 117247,146331 117247,146383 "/>
    <polygon id="125" class="fil48" points="83105,146348 83105,146295 117247,146295 117247,146348 "/>
    <polygon id="126" class="fil48" points="83105,146314 83105,146260 117247,146260 117247,146314 "/>
    <polygon id="127" class="fil48" points="83105,146278 83105,146226 117247,146226 117247,146278 "/>
    <polygon id="128" class="fil48" points="83105,146243 83105,146190 117247,146190 117247,146243 "/>
    <polygon id="129" class="fil48" points="83105,146208 83105,146155 117247,146155 117247,146208 "/>
    <polygon id="130" class="fil48" points="83105,146172 83105,146120 117247,146120 117247,146172 "/>
    <polygon id="131" class="fil48" points="83105,146138 83105,146084 117247,146084 117247,146138 "/>
    <polygon id="132" class="fil48" points="83105,146102 83105,146049 117247,146049 117247,146102 "/>
    <polygon id="133" class="fil48" points="83105,146067 83105,146014 117247,146014 117247,146067 "/>
    <polygon id="134" class="fil48" points="83105,146032 83105,145979 117247,145979 117247,146032 "/>
    <polygon id="135" class="fil48" points="83105,145996 83105,145944 117247,145944 117247,145996 "/>
    <polygon id="136" class="fil48" points="83105,145961 83105,145908 117247,145908 117247,145961 "/>
    <polygon id="137" class="fil48" points="83105,145926 83105,145873 117247,145873 117247,145926 "/>
    <polygon id="138" class="fil48" points="83105,145891 83105,145838 117247,145838 117247,145891 "/>
    <polygon id="139" class="fil48" points="83105,145856 83105,145803 117247,145803 117247,145856 "/>
    <polygon id="140" class="fil48" points="83105,145820 83105,145768 117247,145768 117247,145820 "/>
    <polygon id="141" class="fil48" points="83105,145785 83105,145732 117247,145732 117247,145785 "/>
    <polygon id="142" class="fil48" points="83105,145750 83105,145697 117247,145697 117247,145750 "/>
    <polygon id="143" class="fil48" points="83105,145715 83105,145661 117247,145661 117247,145715 "/>
    <polygon id="144" class="fil48" points="83105,145680 83105,145627 117247,145627 117247,145680 "/>
    <polygon id="145" class="fil48" points="83105,145644 83105,145592 117247,145592 117247,145644 "/>
    <polygon id="146" class="fil48" points="83105,145609 83105,145556 117247,145556 117247,145609 "/>
    <polygon id="147" class="fil48" points="83105,145573 83105,145521 117247,145521 117247,145573 "/>
    <polygon id="148" class="fil48" points="83105,145539 83105,145485 117247,145485 117247,145539 "/>
    <polygon id="149" class="fil49" points="83105,145504 83105,145451 117247,145451 117247,145504 "/>
    <polygon id="150" class="fil49" points="83105,145468 83105,145416 117247,145416 117247,145468 "/>
    <polygon id="151" class="fil49" points="83105,145433 83105,145380 117247,145380 117247,145433 "/>
    <polygon id="152" class="fil49" points="83105,145397 83105,145345 117247,145345 117247,145397 "/>
    <polygon id="153" class="fil49" points="83105,145363 83105,145309 117247,145309 117247,145363 "/>
    <polygon id="154" class="fil50" points="83105,145328 83105,145274 117247,145274 117247,145328 "/>
    <polygon id="155" class="fil50" points="83105,145292 83105,145240 117247,145240 117247,145292 "/>
    <polygon id="156" class="fil50" points="83105,145257 83105,145204 117247,145204 117247,145257 "/>
    <polygon id="157" class="fil50" points="83105,145221 83105,145169 117247,145169 117247,145221 "/>
    <polygon id="158" class="fil50" points="83105,145186 83105,145133 117247,145133 117247,145186 "/>
    <polygon id="159" class="fil50" points="83105,145152 83105,145098 117247,145098 117247,145152 "/>
    <polygon id="160" class="fil50" points="83105,145116 83105,145064 117247,145064 117247,145116 "/>
    <polygon id="161" class="fil50" points="83105,145081 83105,145028 117247,145028 117247,145081 "/>
    <polygon id="162" class="fil50" points="83105,145045 83105,144993 117247,144993 117247,145045 "/>
    <polygon id="163" class="fil50" points="83105,145010 83105,144957 117247,144957 117247,145010 "/>
    <polygon id="164" class="fil50" points="83105,144976 83105,144922 117247,144922 117247,144976 "/>
    <polygon id="165" class="fil50" points="83105,144940 83105,144888 117247,144888 117247,144940 "/>
    <polygon id="166" class="fil50" points="83105,144905 83105,144852 117247,144852 117247,144905 "/>
    <polygon id="167" class="fil50" points="83105,144869 83105,144817 117247,144817 117247,144869 "/>
    <polygon id="168" class="fil50" points="83105,144834 83105,144781 117247,144781 117247,144834 "/>
    <polygon id="169" class="fil50" points="83105,144799 83105,144746 117247,144746 117247,144799 "/>
    <polygon id="170" class="fil50" points="83105,144764 83105,144711 117247,144711 117247,144764 "/>
    <polygon id="171" class="fil50" points="83105,144729 83105,144676 117247,144676 117247,144729 "/>
    <polygon id="172" class="fil50" points="83105,144693 83105,144641 117247,144641 117247,144693 "/>
    <polygon id="173" class="fil50" points="83105,144658 83105,144605 117247,144605 117247,144658 "/>
    <polygon id="174" class="fil50" points="83105,144623 83105,144570 117247,144570 117247,144623 "/>
    <polygon id="175" class="fil51" points="83105,144588 83105,144535 117247,144535 117247,144588 "/>
    <polygon id="176" class="fil51" points="83105,144553 83105,144499 117247,144499 117247,144553 "/>
    <polygon id="177" class="fil51" points="83105,144517 83105,144465 117247,144465 117247,144517 "/>
    <polygon id="178" class="fil51" points="83105,144482 83105,144429 117247,144429 117247,144482 "/>
    <polygon id="179" class="fil51" points="83105,144447 83105,144394 117247,144394 117247,144447 "/>
    <polygon id="180" class="fil51" points="83105,144411 83105,144359 117247,144359 117247,144411 "/>
    <polygon id="181" class="fil51" points="83105,144377 83105,144323 117247,144323 117247,144377 "/>
    <polygon id="182" class="fil51" points="83105,144341 83105,144289 117247,144289 117247,144341 "/>
    <polygon id="183" class="fil51" points="83105,144306 83105,144253 117247,144253 117247,144306 "/>
    <polygon id="184" class="fil52" points="83105,144271 83105,144218 117247,144218 117247,144271 "/>
    <polygon id="185" class="fil52" points="83105,144235 83105,144183 117247,144183 117247,144235 "/>
    <polygon id="186" class="fil52" points="83105,144201 83105,144147 117247,144147 117247,144201 "/>
    <polygon id="187" class="fil52" points="83105,144165 83105,144113 117247,144113 117247,144165 "/>
    <polygon id="188" class="fil52" points="83105,144130 83105,144077 117247,144077 117247,144130 "/>
    <polygon id="189" class="fil52" points="83105,144095 83105,144042 117247,144042 117247,144095 "/>
    <polygon id="190" class="fil52" points="83105,144059 83105,144007 117247,144007 117247,144059 "/>
    <polygon id="191" class="fil52" points="83105,144024 83105,143971 117247,143971 117247,144024 "/>
    <polygon id="192" class="fil53" points="83105,143989 83105,143936 117247,143936 117247,143989 "/>
    <polygon id="193" class="fil53" points="83105,143954 83105,143901 117247,143901 117247,143954 "/>
    <polygon id="194" class="fil53" points="83105,143919 83105,143866 117247,143866 117247,143919 "/>
    <polygon id="195" class="fil53" points="83105,143883 83105,143831 117247,143831 117247,143883 "/>
    <polygon id="196" class="fil53" points="83105,143848 83105,143795 117247,143795 117247,143848 "/>
    <polygon id="197" class="fil53" points="83105,143813 83105,143760 117247,143760 117247,143813 "/>
    <polygon id="198" class="fil53" points="83105,143778 83105,143725 117247,143725 117247,143778 "/>
    <polygon id="199" class="fil53" points="83105,143743 83105,143690 117247,143690 117247,143743 "/>
    <polygon id="200" class="fil53" points="83105,143707 83105,143655 117247,143655 117247,143707 "/>
    <polygon id="201" class="fil54" points="83105,143672 83105,143619 117247,143619 117247,143672 "/>
    <polygon id="202" class="fil54" points="83105,143636 83105,143584 117247,143584 117247,143636 "/>
    <polygon id="203" class="fil55" points="83105,143602 83105,143548 117247,143548 117247,143602 "/>
    <polygon id="204" class="fil55" points="83105,143567 83105,143514 117247,143514 117247,143567 "/>
    <polygon id="205" class="fil55" points="83105,143531 83105,143479 117247,143479 117247,143531 "/>
    <polygon id="206" class="fil55" points="83105,143496 83105,143443 117247,143443 117247,143496 "/>
    <polygon id="207" class="fil55" points="83105,143460 83105,143408 117247,143408 117247,143460 "/>
    <polygon id="208" class="fil55" points="83105,143426 83105,143372 117247,143372 117247,143426 "/>
    <polygon id="209" class="fil56" points="83105,143391 83105,143338 117247,143338 117247,143391 "/>
    <polygon id="210" class="fil56" points="83105,143355 83105,143303 117247,143303 117247,143355 "/>
    <polygon id="211" class="fil57" points="83105,143320 83105,143267 117247,143267 117247,143320 "/>
    <polygon id="212" class="fil58" points="83105,143284 83105,143232 117247,143232 117247,143284 "/>
    <polygon id="213" class="fil58" points="83105,143249 83105,143196 117247,143196 117247,143249 "/>
    <polygon id="214" class="fil58" points="83105,143215 83105,143161 117247,143161 117247,143215 "/>
    <polygon id="215" class="fil58" points="83105,143179 83105,143127 117247,143127 117247,143179 "/>
    <polygon id="216" class="fil58" points="83105,143144 83105,143091 117247,143091 117247,143144 "/>
    <polygon id="217" class="fil59" points="83105,143108 83105,143056 117247,143056 117247,143108 "/>
    <polygon id="218" class="fil59" points="83105,143073 83105,143020 117247,143020 117247,143073 "/>
    <polygon id="219" class="fil59" points="83105,143039 83105,142985 117247,142985 117247,143039 "/>
    <polygon id="220" class="fil60" points="83105,143003 83105,142951 117247,142951 117247,143003 "/>
    <polygon id="221" class="fil60" points="83105,142968 83105,142915 117247,142915 117247,142968 "/>
    <polygon id="222" class="fil61" points="83105,142932 83105,142880 117247,142880 117247,142932 "/>
    <polygon id="223" class="fil61" points="83105,142897 83105,142844 117247,142844 117247,142897 "/>
    <polygon id="224" class="fil61" points="83105,142863 83105,142809 117247,142809 117247,142863 "/>
    <polygon id="225" class="fil62" points="83105,142827 83105,142774 117247,142774 117247,142827 "/>
    <polygon id="226" class="fil63" points="83105,142792 83105,142739 117247,142739 117247,142792 "/>
    <polygon id="227" class="fil63" points="83105,142756 83105,142704 117247,142704 117247,142756 "/>
    <polygon id="228" class="fil63" points="83105,142721 83105,142669 117247,142669 117247,142721 "/>
    <polygon id="229" class="fil64" points="83105,142686 83105,142633 117247,142633 117247,142686 "/>
    <polygon id="230" class="fil65" points="83105,142651 83105,142598 117247,142598 117247,142651 "/>
    <polygon id="231" class="fil65" points="83105,142616 83105,142563 117247,142563 117247,142616 "/>
    <polygon id="232" class="fil66" points="83105,142581 83105,142528 117247,142528 117247,142581 "/>
    <polygon id="233" class="fil67" points="83105,142545 83105,142493 117247,142493 117247,142545 "/>
    <polygon id="234" class="fil68" points="83105,142510 83105,142457 117247,142457 117247,142510 "/>
    <polygon id="235" class="fil68" points="83105,142475 83105,142422 117247,142422 117247,142475 "/>
    <polygon id="236" class="fil69" points="83105,142440 83105,142386 117247,142386 117247,142440 "/>
    <polygon id="237" class="fil69" points="83105,142405 83105,142352 117247,142352 117247,142405 "/>
    <polygon id="238" class="fil70" points="83105,142369 83105,142317 117247,142317 117247,142369 "/>
    <polygon id="239" class="fil70" points="83105,142334 83105,142281 117247,142281 117247,142334 "/>
    <polygon id="240" class="fil71" points="83105,142298 83105,142246 117247,142246 117247,142298 "/>
    <polygon id="241" class="fil72" points="83105,142264 83105,142210 117247,142210 117247,142264 "/>
    <polygon id="242" class="fil73" points="83105,142229 83105,142176 117247,142176 117247,142229 "/>
    <polygon id="243" class="fil74" points="83105,142193 83105,142141 117247,142141 117247,142193 "/>
    <polygon id="244" class="fil75" points="83105,142158 83105,142105 117247,142105 117247,142158 "/>
    <polygon id="245" class="fil76" points="83105,142122 83105,142070 117247,142070 117247,142122 "/>
    <polygon id="246" class="fil77" points="83105,142088 83105,142034 117247,142034 117247,142088 "/>
    <polygon id="247" class="fil78" points="83105,142053 83105,141999 117247,141999 117247,142053 "/>
    <polygon id="248" class="fil79" points="83105,142017 83105,141965 117247,141965 117247,142017 "/>
    <polygon id="249" class="fil80" points="83105,141982 83105,141929 117247,141929 117247,141982 "/>
    <polygon id="250" class="fil81" points="83105,141946 83105,141894 117247,141894 117247,141946 "/>
    <polygon id="251" class="fil82" points="83105,141911 83105,141858 117247,141858 117247,141911 "/>
    <polygon id="252" class="fil83" points="83105,141877 83105,141823 117247,141823 117247,141877 "/>
    <polygon id="253" class="fil84" points="83105,141841 83105,141789 117247,141789 117247,141841 "/>
    <polygon id="254" class="fil85" points="83105,141806 83105,141753 117247,141753 117247,141806 "/>
    <polygon id="255" class="fil86" points="83105,141770 83105,141701 117247,141701 117247,141770 "/>
   </g>
  </g>
  <path class="fil87" d="M65439 40947l6302 0c1703,0 3011,127 3929,384 912,259 1601,628 2063,1110 462,485 771,1074 938,1760 163,690 243,1755 243,3198l0 2008c0,1468 -157,2543 -476,3213 -314,676 -897,1197 -1739,1556 -847,361 -1952,541 -3316,541l-1678 0 0 9304 -6266 0 0 -23074zm6266 3939l0 5877c177,10 330,15 456,15 573,0 968,-136 1191,-409 219,-267 330,-830 330,-1686l0 -1901c0,-789 -126,-1303 -386,-1541 -253,-239 -785,-355 -1591,-355zm14785 233l-213 2490c877,-1790 2145,-2733 3803,-2840l0 6651c-1101,0 -1912,141 -2429,427 -518,287 -832,681 -953,1192 -117,506 -178,1678 -178,3514l0 7468 -5993 0 0 -18902 5963 0zm18491 6636l0 4633c0,1702 -91,2946 -269,3744 -177,793 -557,1531 -1139,2221 -585,691 -1334,1197 -2253,1526 -917,327 -1967,492 -3153,492 -1329,0 -2454,-140 -3372,-418 -922,-281 -1638,-705 -2145,-1268 -512,-569 -876,-1254 -1094,-2057 -219,-803 -326,-2008 -326,-3613l0 -4846c0,-1760 198,-3131 594,-4123 396,-988 1111,-1779 2140,-2377 1029,-598 2347,-900 3949,-900 1344,0 2500,194 3468,578 964,384 1708,886 2237,1503 522,618 881,1254 1075,1911 192,656 288,1653 288,2994zm-5993 -1424c0,-967 -56,-1581 -162,-1827 -111,-254 -344,-381 -705,-381 -359,0 -598,127 -721,381 -115,246 -177,860 -177,1827l0 8532c0,895 62,1478 177,1746 123,271 357,408 707,408 359,0 593,-122 709,-370 116,-248 172,-778 172,-1595l0 -8721zm13908 -5212l-91 1799c466,-715 1020,-1254 1664,-1609 637,-360 1373,-540 2194,-540 1604,0 2861,716 3784,2149 502,-715 1069,-1254 1704,-1609 634,-360 1333,-540 2109,-540 1013,0 1861,239 2524,716 669,471 1096,1054 1283,1744 189,686 285,1804 285,3355l0 13437 -5811 0 0 -12324c0,-1615 -56,-2611 -172,-2995 -112,-385 -376,-579 -797,-579 -425,0 -700,190 -821,570 -127,379 -188,1380 -188,3004l0 12324 -5811 0 0 -12009c0,-1851 -46,-2965 -142,-3334 -91,-369 -354,-555 -780,-555 -270,0 -493,97 -685,292 -189,194 -290,433 -309,715 -21,277 -31,874 -31,1785l0 13106 -5811 0 0 -18902 5902 0zm23700 -4172l0 3005 -6175 0 0 -3005 6175 0zm0 4172l0 18902 -6175 0 0 -18902 6175 0zm14420 6038l-5293 0 0 -1026c0,-875 -51,-1425 -159,-1657 -101,-233 -364,-351 -780,-351 -335,0 -588,107 -754,321 -168,214 -254,536 -254,963 0,578 41,1007 127,1274 81,271 333,568 754,890 416,325 1279,797 2581,1414 1739,817 2876,1585 3417,2310 543,719 816,1769 816,3144 0,1543 -208,2705 -623,3487 -416,782 -1110,1390 -2084,1813 -978,424 -2149,632 -3528,632 -1521,0 -2829,-228 -3910,-681 -1084,-456 -1831,-1074 -2236,-1852 -405,-778 -608,-1953 -608,-3529l0 -910 5324 0 0 1192c0,1010 66,1667 198,1974 136,301 400,452 790,452 426,0 720,-102 888,-307 168,-204 254,-636 254,-1288 0,-904 -107,-1468 -325,-1696 -229,-230 -1389,-905 -3484,-2027 -1758,-949 -2834,-1809 -3219,-2587 -385,-773 -578,-1692 -578,-2756 0,-1512 208,-2625 624,-3341 414,-720 1121,-1273 2114,-1662 994,-390 2150,-584 3463,-584 1309,0 2418,161 3332,476 917,321 1616,739 2108,1264 487,521 786,1007 887,1454 107,447 158,1148 158,2096l0 1098zm15657 3734l-7788 0 0 4099c0,855 67,1409 193,1657 132,248 381,370 751,370 461,0 770,-165 923,-491 156,-331 233,-968 233,-1911l0 -2499 5688 0 0 1401c0,1171 -76,2071 -227,2697 -158,628 -517,1299 -1081,2013 -562,715 -1282,1250 -2149,1609 -867,355 -1952,535 -3260,535 -1268,0 -2389,-175 -3362,-529 -969,-352 -1724,-833 -2266,-1444 -542,-613 -914,-1289 -1121,-2027 -208,-735 -315,-1805 -315,-3214l0 -5519c0,-1653 234,-2955 700,-3912 467,-955 1227,-1688 2288,-2193 1063,-511 2281,-764 3660,-764 1683,0 3072,306 4168,919 1095,613 1865,1424 2307,2435 441,1007 658,2431 658,4265l0 2503zm-5992 -3063l0 -1380c0,-982 -56,-1610 -168,-1896 -111,-287 -339,-429 -684,-429 -427,0 -690,122 -791,365 -101,243 -153,895 -153,1960l0 1380 1796 0z"/>
 </g>
 <g id="kudo">
  <metadata id="CorelCorpID_2Corel-Layer"/>
  <g>
   <path class="fil2 str2" d="M63654 39063l6304 0c1702,0 3010,126 3929,383 912,259 1601,628 2063,1109 461,486 771,1075 937,1761 163,690 244,1755 244,3198l0 2008c0,1468 -158,2543 -476,3213 -314,676 -898,1197 -1739,1557 -847,360 -1953,539 -3317,539l-1677 0 0 9305 -6268 0 0 -23073zm6268 3938l0 5877c177,11 329,15 455,15 574,0 969,-135 1192,-409 219,-267 330,-830 330,-1686l0 -1901c0,-788 -126,-1302 -386,-1541 -253,-238 -786,-355 -1591,-355zm14785 233l-213 2490c876,-1789 2145,-2732 3802,-2840l0 6652c-1100,0 -1911,140 -2428,427 -518,286 -833,680 -953,1191 -117,506 -178,1677 -178,3515l0 7467 -5994 0 0 -18902 5964 0zm18491 6636l0 4633c0,1702 -91,2946 -269,3744 -177,792 -557,1531 -1140,2221 -584,691 -1334,1197 -2252,1527 -917,326 -1968,491 -3153,491 -1329,0 -2454,-140 -3372,-418 -923,-281 -1638,-705 -2145,-1268 -512,-569 -877,-1254 -1095,-2057 -219,-802 -325,-2007 -325,-3613l0 -4846c0,-1760 197,-3132 594,-4124 396,-987 1110,-1778 2139,-2376 1029,-598 2348,-900 3950,-900 1343,0 2500,195 3467,579 965,384 1709,884 2237,1503 522,616 882,1254 1075,1910 193,656 289,1652 289,2994zm-5993 -1424c0,-967 -56,-1580 -163,-1827 -110,-254 -344,-381 -704,-381 -360,0 -599,127 -721,381 -116,247 -177,860 -177,1827l0 8532c0,895 61,1479 177,1746 122,271 356,408 706,408 360,0 593,-122 710,-369 116,-249 172,-778 172,-1595l0 -8722zm13908 -5212l-91 1799c465,-714 1019,-1254 1663,-1609 638,-360 1374,-540 2195,-540 1602,0 2859,715 3783,2149 502,-714 1069,-1254 1704,-1609 634,-360 1333,-540 2109,-540 1014,0 1862,239 2525,715 668,472 1095,1055 1283,1745 188,686 284,1804 284,3354l0 13438 -5810 0 0 -12324c0,-1614 -57,-2611 -172,-2994 -112,-385 -376,-580 -798,-580 -426,0 -700,190 -821,570 -127,379 -188,1380 -188,3004l0 12324 -5810 0 0 -12009c0,-1851 -46,-2964 -143,-3334 -91,-369 -354,-555 -780,-555 -270,0 -492,97 -685,292 -188,194 -289,433 -309,715 -20,277 -30,875 -30,1785l0 13106 -5811 0 0 -18902 5902 0zm23700 -4171l0 3004 -6176 0 0 -3004 6176 0zm0 4171l0 18902 -6176 0 0 -18902 6176 0zm14419 6039l-5292 0 0 -1026c0,-876 -53,-1425 -159,-1658 -102,-234 -365,-351 -780,-351 -335,0 -588,108 -755,322 -168,214 -254,535 -254,962 0,578 41,1006 127,1273 81,273 334,570 755,891 415,326 1278,798 2581,1414 1739,817 2875,1585 3417,2310 543,719 816,1770 816,3144 0,1543 -208,2704 -624,3487 -415,783 -1109,1391 -2083,1814 -979,422 -2150,631 -3529,631 -1520,0 -2828,-228 -3910,-681 -1084,-456 -1830,-1075 -2235,-1852 -406,-778 -609,-1953 -609,-3529l0 -910 5325 0 0 1192c0,1010 66,1668 198,1974 136,301 400,452 790,452 426,0 720,-102 887,-307 168,-204 254,-636 254,-1288 0,-904 -106,-1469 -325,-1696 -228,-229 -1388,-905 -3483,-2027 -1759,-949 -2835,-1809 -3220,-2587 -385,-773 -577,-1691 -577,-2756 0,-1513 208,-2625 623,-3341 415,-719 1121,-1273 2114,-1662 995,-389 2150,-584 3464,-584 1308,0 2418,160 3331,476 917,322 1617,739 2109,1265 486,520 785,1006 887,1453 106,448 157,1147 157,2096l0 1099zm15658 3733l-7788 0 0 4099c0,855 67,1409 192,1658 133,247 381,369 752,369 461,0 770,-166 922,-491 157,-331 234,-968 234,-1910l0 -2500 5688 0 0 1401c0,1171 -76,2071 -228,2698 -157,627 -517,1298 -1081,2012 -562,715 -1281,1250 -2149,1610 -867,354 -1952,534 -3259,534 -1269,0 -2390,-175 -3363,-529 -970,-351 -1724,-832 -2267,-1444 -541,-613 -913,-1289 -1121,-2028 -208,-734 -314,-1804 -314,-3213l0 -5518c0,-1654 233,-2956 699,-3913 468,-954 1228,-1687 2288,-2194 1064,-510 2282,-763 3661,-763 1683,0 3072,306 4168,920 1095,612 1865,1424 2307,2434 442,1007 659,2432 659,4265l0 2503zm-5992 -3063l0 -1380c0,-982 -57,-1609 -168,-1896 -112,-288 -339,-429 -684,-429 -427,0 -690,122 -791,366 -102,242 -153,894 -153,1959l0 1380 1796 0z"/>
   <path class="fil88 str2" d="M62658 38367l6302 0c1704,0 3012,127 3930,384 913,258 1602,628 2062,1109 462,486 772,1075 939,1760 163,691 244,1756 244,3199l0 2008c0,1468 -158,2543 -477,3213 -314,676 -898,1196 -1738,1556 -848,361 -1953,540 -3317,540l-1678 0 0 9305 -6267 0 0 -23074zm6267 3939l0 5877c177,9 329,15 455,15 574,0 970,-136 1193,-409 218,-267 328,-831 328,-1686l0 -1901c0,-788 -125,-1303 -384,-1542 -253,-237 -786,-354 -1592,-354zm14785 232l-213 2490c877,-1790 2145,-2732 3802,-2839l0 6651c-1100,0 -1911,141 -2428,427 -517,287 -832,681 -952,1192 -117,506 -179,1677 -179,3515l0 7467 -5993 0 0 -18903 5963 0zm18492 6637l0 4633c0,1702 -91,2946 -269,3744 -179,792 -558,1531 -1141,2221 -583,691 -1334,1197 -2251,1527 -918,325 -1968,491 -3154,491 -1328,0 -2454,-141 -3372,-418 -923,-281 -1638,-705 -2144,-1269 -513,-568 -878,-1254 -1096,-2056 -218,-802 -324,-2007 -324,-3613l0 -4846c0,-1761 197,-3132 592,-4124 397,-987 1112,-1778 2140,-2376 1030,-599 2348,-900 3950,-900 1344,0 2500,195 3468,579 964,383 1709,884 2236,1502 522,617 882,1255 1076,1911 193,655 289,1652 289,2994zm-5993 -1424c0,-967 -57,-1580 -163,-1828 -111,-253 -345,-380 -705,-380 -360,0 -598,127 -720,380 -116,248 -177,861 -177,1828l0 8532c0,895 61,1477 177,1745 122,272 355,408 705,408 360,0 594,-122 711,-368 115,-249 172,-778 172,-1595l0 -8722zm13908 -5213l-92 1800c466,-716 1019,-1254 1663,-1609 639,-361 1374,-540 2196,-540 1602,0 2860,715 3783,2149 502,-716 1070,-1254 1703,-1609 635,-361 1334,-540 2109,-540 1015,0 1861,239 2526,715 668,472 1094,1055 1282,1745 188,686 284,1803 284,3354l0 13438 -5811 0 0 -12324c0,-1615 -56,-2611 -172,-2995 -111,-385 -375,-579 -796,-579 -425,0 -699,190 -820,569 -127,380 -190,1380 -190,3005l0 12324 -5809 0 0 -12009c0,-1851 -46,-2965 -143,-3334 -92,-370 -355,-555 -781,-555 -269,0 -491,97 -684,292 -188,194 -289,433 -309,714 -20,278 -31,876 -31,1786l0 13106 -5810 0 0 -18903 5902 0zm23699 -4171l0 3005 -6176 0 0 -3005 6176 0zm0 4171l0 18903 -6176 0 0 -18903 6176 0zm14420 6038l-5294 0 0 -1024c0,-876 -51,-1426 -157,-1658 -102,-234 -365,-351 -780,-351 -336,0 -589,107 -756,321 -168,214 -254,536 -254,963 0,578 41,1006 127,1273 81,273 334,570 755,890 416,327 1278,797 2582,1415 1739,817 2874,1585 3416,2309 543,719 817,1770 817,3145 0,1542 -208,2704 -624,3487 -416,781 -1110,1390 -2083,1813 -980,423 -2151,632 -3529,632 -1521,0 -2830,-228 -3910,-681 -1085,-456 -1830,-1075 -2236,-1853 -405,-777 -609,-1953 -609,-3528l0 -910 5325 0 0 1192c0,1010 65,1668 197,1974 137,301 401,451 792,451 426,0 720,-101 886,-306 168,-204 254,-637 254,-1289 0,-903 -106,-1468 -324,-1695 -229,-230 -1389,-905 -3484,-2027 -1759,-949 -2834,-1810 -3219,-2587 -386,-773 -578,-1692 -578,-2756 0,-1513 208,-2626 624,-3341 415,-719 1120,-1273 2114,-1662 993,-389 2150,-584 3463,-584 1308,0 2419,160 3331,476 918,322 1618,739 2109,1265 486,520 786,1006 888,1453 106,448 157,1147 157,2096l0 1097zm15657 3735l-7787 0 0 4098c0,856 66,1410 192,1659 132,246 381,368 751,368 460,0 770,-165 923,-490 157,-332 234,-968 234,-1911l0 -2500 5687 0 0 1401c0,1172 -76,2072 -228,2699 -157,627 -517,1298 -1080,2011 -562,716 -1283,1251 -2149,1611 -868,354 -1952,534 -3260,534 -1269,0 -2389,-175 -3362,-529 -969,-351 -1723,-833 -2267,-1445 -542,-612 -912,-1288 -1120,-2027 -208,-734 -314,-1804 -314,-3213l0 -5518c0,-1654 233,-2956 699,-3914 467,-953 1227,-1687 2287,-2193 1065,-511 2281,-763 3661,-763 1683,0 3071,306 4168,919 1095,612 1865,1424 2306,2435 442,1006 659,2430 659,4265l0 2503zm-5992 -3063l0 -1380c0,-983 -57,-1610 -168,-1897 -112,-287 -339,-428 -684,-428 -426,0 -689,122 -791,365 -101,243 -152,895 -152,1960l0 1380 1795 0z"/>
  </g>
 </g>
</svg>
