<?xml version="1.0" encoding="UTF-8"?>
<!DOCTYPE svg PUBLIC "-//W3C//DTD SVG 1.1//EN" "http://www.w3.org/Graphics/SVG/1.1/DTD/svg11.dtd">
<!-- Creator: CorelDRAW X8 -->
<svg xmlns="http://www.w3.org/2000/svg" xml:space="preserve" width="260px" height="260px" version="1.1" style="shape-rendering:geometricPrecision; text-rendering:geometricPrecision; image-rendering:optimizeQuality; fill-rule:evenodd; clip-rule:evenodd"
viewBox="0 0 140873 140873"
 xmlns:xlink="http://www.w3.org/1999/xlink">
 <defs>
  <style type="text/css">
   <![CDATA[
    .str1 {stroke:#A99018;stroke-width:2166.02}
    .str0 {stroke:#A99018;stroke-width:487.45}
    .fil2 {fill:#634E10}
    .fil3 {fill:#DED60F;fill-rule:nonzero}
    .fil4 {fill:#634E10;fill-rule:nonzero}
    .fil1 {fill:url(#id4)}
    .fil0 {fill:url(#id5)}
    .fil9 {fill:url(#id6)}
    .fil7 {fill:url(#id7)}
    .fil6 {fill:url(#id8)}
    .fil5 {fill:url(#id9)}
    .fil8 {fill:url(#id10)}
   ]]>
  </style>
     <clipPath id="id0">
      <path d="M55722 18616l31677 0 0 53312 -31677 0 0 -53312z"/>
     </clipPath>
     <clipPath id="id1">
      <path d="M77721 23197l29542 0 0 49774 -29542 0 0 -49774z"/>
     </clipPath>
     <clipPath id="id2">
      <path d="M54097 15961l31676 0 0 53311 -31676 0 0 -53311z"/>
     </clipPath>
     <clipPath id="id3">
      <path d="M76096 20542l29542 0 0 49774 -29542 0 0 -49774z"/>
     </clipPath>
  <linearGradient id="id4" gradientUnits="userSpaceOnUse" x1="70517.7" y1="131720" x2="70517.7" y2="8882.2">
   <stop offset="0" style="stop-opacity:1; stop-color:#8E6D1C"/>
   <stop offset="1" style="stop-opacity:1; stop-color:#FAFA0A"/>
  </linearGradient>
  <linearGradient id="id5" gradientUnits="userSpaceOnUse" xlink:href="#id4" x1="70436.5" y1="140629" x2="70436.5" y2="243.725">
  </linearGradient>
  <linearGradient id="id6" gradientUnits="userSpaceOnUse" x1="77736.1" y1="30109.9" x2="83479.9" y2="17330">
   <stop offset="0" style="stop-opacity:1; stop-color:#957417"/>
   <stop offset="1" style="stop-opacity:1; stop-color:#FFFF51"/>
  </linearGradient>
  <linearGradient id="id7" gradientUnits="userSpaceOnUse" xlink:href="#id6" x1="82525.5" y1="63440.7" x2="99208.2" y2="27416.8">
  </linearGradient>
  <linearGradient id="id8" gradientUnits="userSpaceOnUse" xlink:href="#id6" x1="40031.6" y1="62615.5" x2="56713.7" y2="26592.2">
  </linearGradient>
  <linearGradient id="id9" gradientUnits="userSpaceOnUse" xlink:href="#id6" x1="58930.2" y1="60862.8" x2="80939" y2="24371.2">
  </linearGradient>
  <linearGradient id="id10" gradientUnits="userSpaceOnUse" xlink:href="#id6" x1="56015.8" y1="30043.4" x2="61759.6" y2="17263.5">
  </linearGradient>
 </defs>
 <g id="Layer_x0020_1">
  <metadata id="CorelCorpID_0Corel-Layer"/>
  <path class="fil0 str0" d="M70436 244c38767,0 70193,31426 70193,70192 0,38767 -31426,70193 -70193,70193 -38766,0 -70192,-31426 -70192,-70193 0,-38766 31426,-70192 70192,-70192z"/>
  <path class="fil1 str1" d="M70518 8882c33920,0 61418,27498 61418,61419 0,33920 -27498,61419 -61418,61419 -33921,0 -61419,-27499 -61419,-61419 0,-33921 27498,-61419 61419,-61419z"/>
  <g id="_1939265604480">
   <g>
    <g style="clip-path:url(#id0)">
     <image x="55722" y="18616" width="31677" height="53311" xlink:href="gold_standard_Images\gold_standard_ImgID1.png"/>
    </g>
   </g>
   <path class="fil2" d="M69819 22271c1709,4116 2943,8493 4652,12609 951,116 1310,-1506 1235,-4262 2227,2088 3382,5813 4462,9653 6035,10956 4186,19680 -3703,26695 -3229,1731 -6456,1633 -9684,348 -7196,-4990 -10522,-14192 -3608,-27130 591,-2457 1272,-4907 2753,-7304 457,1946 996,3684 2089,3999 443,-4782 1360,-9826 1804,-14608z"/>
   <path class="fil2" d="M56576 25780c1604,3237 2578,5645 4784,6779 -2888,5281 -5399,10562 -8288,15843 2211,4413 4043,8828 6254,13242 -1935,2364 -3869,4729 -5804,7093 -5175,-6069 -9711,-13955 -14886,-20024 5904,-8250 12037,-14683 17940,-22933z"/>
   <g>
    <g style="clip-path:url(#id1)">
     <image x="77721" y="23197" width="29542" height="49774" xlink:href="gold_standard_Images\gold_standard_ImgID2.png"/>
    </g>
   </g>
   <path class="fil2" d="M85913 26605c-1603,3238 -2577,5644 -4783,6779 2889,5281 5688,10562 8577,15843 -2210,4414 -4332,8828 -6542,13242 1933,2364 3868,4729 5803,7094 5175,-6070 9712,-13955 14887,-20025 -5904,-8250 -12038,-14683 -17942,-22933z"/>
   <path class="fil2" d="M61669 33844c1081,-1077 1872,-2154 2952,-3231 0,-3863 0,-7725 0,-11587 -7903,-2044 -12275,8787 -2952,14818z"/>
   <path class="fil2" d="M81077 33911c-1081,-1077 -1872,-2154 -2952,-3232 0,-3862 0,-7724 0,-11587 7903,-2043 12275,8787 2952,14819z"/>
  </g>
  <path class="fil3" d="M58674 95238l-7634 0 0 -5156c0,-1503 -81,-2435 -242,-2811 -160,-369 -518,-557 -1068,-557 -618,0 -1013,225 -1180,676 -167,457 -253,1433 -253,2935l0 13782c0,1446 86,2385 253,2829 167,438 544,657 1124,657 563,0 933,-219 1106,-663 173,-438 260,-1477 260,-3111l0 -3736 7634 0 0 1157c0,3080 -215,5264 -642,6547 -426,1290 -1377,2416 -2841,3386 -1470,970 -3274,1452 -5424,1452 -2230,0 -4071,-407 -5522,-1227 -1446,-819 -2409,-1952 -2879,-3404 -469,-1452 -704,-3631 -704,-6541l0 -8674c0,-2141 74,-3743 216,-4813 148,-1070 574,-2103 1297,-3092 717,-989 1711,-1771 2984,-2341 1272,-569 2736,-851 4392,-851 2242,0 4095,439 5560,1321 1457,876 2414,1971 2878,3286 457,1314 685,3354 685,6127l0 2822zm9810 -12955l0 6691c630,-589 1310,-1033 2039,-1327 728,-294 1513,-445 2348,-445 1278,0 2365,332 3266,989 897,664 1447,1421 1650,2285 198,863 296,2441 296,4725l0 16786 -7300 0 0 -17130c0,-1414 -69,-2329 -211,-2729 -142,-407 -451,-607 -939,-607 -450,0 -754,207 -914,626 -155,413 -235,1239 -235,2472l0 17368 -7301 0 0 -29704 7301 0zm19643 0l0 3868 -7523 0 0 -3868 7523 0zm0 5370l0 24334 -7523 0 0 -24334 7523 0zm10305 -3230l0 3831 2038 0 0 3868 -2038 0 0 13012c0,1596 86,2491 253,2672 167,181 858,275 2081,275l0 3906 -2958 0c-1668,0 -2860,-69 -3577,-213 -710,-138 -1341,-463 -1884,-970 -543,-507 -883,-1083 -1019,-1740 -130,-651 -197,-2185 -197,-4600l0 -12342 -1557 0 0 -3868 1557 0 0 -3831 7301 0z"/>
  <path class="fil4" d="M58118 94767l-7635 0 0 -5156c0,-1503 -80,-2435 -241,-2810 -161,-370 -518,-558 -1068,-558 -618,0 -1013,226 -1180,677 -167,456 -253,1432 -253,2934l0 13782c0,1446 86,2385 253,2829 167,438 544,657 1124,657 563,0 933,-219 1106,-663 173,-438 259,-1477 259,-3111l0 -3736 7635 0 0 1158c0,3079 -216,5263 -642,6546 -426,1290 -1378,2416 -2841,3386 -1470,971 -3274,1452 -5424,1452 -2230,0 -4071,-406 -5523,-1227 -1445,-819 -2408,-1952 -2878,-3404 -470,-1452 -704,-3630 -704,-6540l0 -8675c0,-2141 73,-3742 215,-4813 149,-1070 576,-2103 1298,-3092 717,-988 1711,-1771 2983,-2341 1273,-569 2737,-850 4393,-850 2242,0 4095,438 5559,1320 1458,876 2415,1971 2879,3286 457,1314 685,3355 685,6127l0 2822zm9810 -12955l0 6691c630,-589 1310,-1033 2039,-1327 729,-294 1513,-445 2347,-445 1279,0 2366,332 3268,989 896,664 1445,1421 1649,2285 198,863 297,2441 297,4725l0 16786 -7302 0 0 -17130c0,-1414 -68,-2328 -210,-2729 -142,-407 -451,-607 -939,-607 -451,0 -753,207 -914,626 -155,413 -235,1239 -235,2472l0 17368 -7301 0 0 -29704 7301 0zm19643 0l0 3868 -7523 0 0 -3868 7523 0zm0 5370l0 24334 -7523 0 0 -24334 7523 0zm10305 -3229l0 3830 2038 0 0 3868 -2038 0 0 13012c0,1596 86,2491 252,2672 167,182 859,276 2083,276l0 3905 -2959 0c-1668,0 -2861,-69 -3577,-213 -710,-138 -1340,-463 -1884,-970 -544,-507 -884,-1083 -1019,-1740 -130,-651 -198,-2184 -198,-4600l0 -12342 -1557 0 0 -3868 1557 0 0 -3830 7302 0z"/>
 </g>
 <g id="kudo">
  <metadata id="CorelCorpID_1Corel-Layer"/>
  <g id="_1939265607200">
   <g>
    <g style="clip-path:url(#id2)">
     <image x="54097" y="15961" width="31677" height="53311" xlink:href="gold_standard_Images\gold_standard_ImgID3.png"/>
    </g>
   </g>
   <path class="fil5" d="M68193 19616c1709,4116 2944,8493 4653,12609 951,116 1309,-1506 1234,-4261 2228,2086 3382,5812 4463,9652 6035,10956 4185,19680 -3703,26695 -3229,1731 -6456,1632 -9685,348 -7196,-4989 -10521,-14192 -3608,-27130 591,-2457 1273,-4906 2753,-7305 458,1946 996,3685 2089,4000 443,-4783 1361,-9825 1804,-14608z"/>
   <path class="fil6" d="M54951 23125c1603,3237 2578,5644 4784,6779 -2889,5281 -5400,10561 -8289,15843 2211,4414 4043,8828 6254,13241 -1934,2365 -3869,4730 -5803,7095 -5175,-6070 -9711,-13955 -14887,-20025 5904,-8250 12038,-14683 17941,-22933z"/>
   <g>
    <g style="clip-path:url(#id3)">
     <image x="76096" y="20542" width="29542" height="49774" xlink:href="gold_standard_Images\gold_standard_ImgID4.png"/>
    </g>
   </g>
   <path class="fil7" d="M84288 23950c-1604,3237 -2577,5644 -4784,6779 2889,5281 5689,10562 8578,15843 -2211,4414 -4332,8828 -6543,13242 1934,2365 3869,4729 5803,7093 5176,-6069 9712,-13955 14887,-20024 -5903,-8250 -12037,-14683 -17941,-22933z"/>
   <path class="fil8" d="M60044 31189c1080,-1077 1871,-2154 2952,-3232 0,-3862 0,-7724 0,-11586 -7903,-2044 -12276,8786 -2952,14818z"/>
   <path class="fil9" d="M79451 31256c-1080,-1078 -1871,-2155 -2951,-3232 0,-3862 0,-7724 0,-11586 7902,-2045 12275,8786 2951,14818z"/>
  </g>
 </g>
</svg>
