<?xml version="1.0" encoding="UTF-8"?>
<!DOCTYPE svg PUBLIC "-//W3C//DTD SVG 1.1//EN" "http://www.w3.org/Graphics/SVG/1.1/DTD/svg11.dtd">
<!-- Creator: CorelDRAW X8 -->
<svg xmlns="http://www.w3.org/2000/svg" xml:space="preserve" width="231px" height="231px" version="1.1" style="shape-rendering:geometricPrecision; text-rendering:geometricPrecision; image-rendering:optimizeQuality; fill-rule:evenodd; clip-rule:evenodd"
viewBox="0 0 175511 175511"
 xmlns:xlink="http://www.w3.org/1999/xlink">
 <defs>
  <style type="text/css">
   <![CDATA[
    .str0 {stroke:#E9E9E9;stroke-width:3041.2}
    .str1 {stroke:#E6B96C;stroke-width:684.405}
    .fil2 {fill:#7A341D;fill-rule:nonzero}
    .fil1 {fill:#E6B96C;fill-rule:nonzero}
    .fil0 {fill:url(#id0)}
   ]]>
  </style>
  <linearGradient id="id0" gradientUnits="userSpaceOnUse" x1="87755.6" y1="173991" x2="87755.6" y2="1520.6">
   <stop offset="0" style="stop-opacity:1; stop-color:#EBE60D"/>
   <stop offset="0.301961" style="stop-opacity:1; stop-color:#DDBE37"/>
   <stop offset="0.490196" style="stop-opacity:1; stop-color:#F1F1F1"/>
   <stop offset="1" style="stop-opacity:1; stop-color:#CF9661"/>
  </linearGradient>
 </defs>
 <g id="kudo">
  <metadata id="CorelCorpID_0Corel-Layer"/>
  <g id="_1990972143808">
   <path class="fil0 str0" d="M87756 1521c47626,0 86235,38608 86235,86235 0,47626 -38609,86235 -86235,86235 -47627,0 -86235,-38609 -86235,-86235 0,-47627 38608,-86235 86235,-86235z"/>
   <g>
    <path class="fil1" d="M53502 51946l0 29775 -6776 0 -19 -20100 -2690 20100 -4744 0 -2841 -19649 -19 19649 -6776 0 0 -29775 10006 0c282,1801 590,3922 923,6343l1097 7559 1763 -13902 10076 0zm19869 5383l0 24392 -7548 0 132 -2033c-514,828 -1149,1449 -1901,1863 -753,414 -1619,622 -2597,622 -1111,0 -2039,-195 -2773,-591 -734,-388 -1274,-908 -1625,-1561 -345,-653 -564,-1324 -652,-2033 -82,-702 -126,-2102 -126,-4203l0 -16456 7415 0 0 16600c0,1901 57,3024 176,3382 113,357 433,532 947,532 546,0 878,-181 979,-551 107,-364 157,-1550 157,-3545l0 -16418 7416 0zm10331 -5383l0 29775 -7641 0 0 -29775 7641 0zm10465 2146l0 3840 2070 0 0 3876 -2070 0 0 13044c0,1599 88,2496 257,2678 169,182 872,276 2114,276l0 3915 -3005 0c-1693,0 -2904,-69 -3633,-213 -721,-138 -1360,-464 -1913,-973 -552,-508 -897,-1086 -1035,-1744 -131,-652 -201,-2190 -201,-4611l0 -12372 -1580 0 0 -3876 1580 0 0 -3840 7416 0zm11317 -2146l0 3878 -7641 0 0 -3878 7641 0zm0 5383l0 24392 -7641 0 0 -24392 7641 0zm10220 0l-132 2159c664,-879 1393,-1532 2190,-1965 796,-432 1668,-646 2609,-646 1154,0 2152,308 2992,929 835,621 1362,1337 1569,2146 207,809 314,2182 314,4122l0 10282c0,2220 -132,3795 -396,4736 -263,935 -803,1687 -1619,2246 -815,559 -1799,835 -2954,835 -916,0 -1769,-214 -2553,-647 -784,-432 -1500,-1073 -2152,-1926l0 5584 -7415 0 0 -27855 7547 0zm2126 7096c0,-1513 -56,-2422 -169,-2742 -107,-320 -414,-476 -922,-476 -496,0 -810,181 -954,551 -144,364 -213,1255 -213,2667l0 10112c0,1469 75,2391 219,2755 151,370 471,551 966,551 484,0 778,-168 898,-507 119,-333 175,-1155 175,-2453l0 -10458zm17503 -12479l0 29775 -7640 0 0 -29775 7640 0zm19499 17993l-9637 0 0 5289c0,1104 82,1819 239,2139 163,320 471,476 929,476 570,0 953,-212 1141,-633 194,-426 289,-1248 289,-2465l0 -3225 7039 0 0 1806c0,1513 -95,2673 -282,3483 -195,809 -641,1675 -1337,2597 -696,922 -1587,1612 -2660,2077 -1073,457 -2415,690 -4034,690 -1568,0 -2955,-227 -4159,-684 -1198,-452 -2133,-1073 -2804,-1864 -671,-790 -1129,-1662 -1387,-2616 -257,-947 -389,-2327 -389,-4147l0 -7120c0,-2133 289,-3814 866,-5050 577,-1230 1519,-2177 2829,-2829 1318,-660 2824,-986 4530,-986 2082,0 3801,396 5157,1186 1355,790 2308,1839 2854,3144 546,1297 816,3136 816,5501l0 3231zm-7416 -3952l0 -1782c0,-1268 -69,-2077 -206,-2447 -138,-370 -420,-551 -847,-551 -527,0 -853,156 -979,469 -126,315 -189,1155 -189,2529l0 1782 2221 0z"/>
    <path class="fil2" d="M50854 49684l0 29774 -6775 0 -19 -20100 -2691 20100 -4743 0 -2842 -19648 -19 19648 -6776 0 0 -29774 10007 0c282,1801 590,3921 922,6343l1098 7559 1763 -13902 10075 0zm19869 5383l0 24391 -7548 0 132 -2032c-514,828 -1148,1448 -1901,1863 -753,414 -1619,621 -2597,621 -1111,0 -2038,-195 -2773,-590 -734,-389 -1274,-909 -1625,-1562 -345,-652 -564,-1324 -652,-2033 -82,-702 -126,-2101 -126,-4203l0 -16455 7416 0 0 16600c0,1900 56,3024 176,3381 112,358 432,533 946,533 546,0 879,-182 979,-552 107,-363 157,-1550 157,-3545l0 -16417 7416 0zm10331 -5383l0 29774 -7640 0 0 -29774 7640 0zm10465 2146l0 3839 2070 0 0 3877 -2070 0 0 13043c0,1600 88,2497 257,2678 170,183 872,276 2114,276l0 3915 -3004 0c-1694,0 -2905,-69 -3633,-213 -722,-138 -1361,-464 -1914,-972 -552,-509 -897,-1086 -1035,-1745 -131,-652 -200,-2189 -200,-4611l0 -12371 -1581 0 0 -3877 1581 0 0 -3839 7415 0zm11317 -2146l0 3877 -7641 0 0 -3877 7641 0zm0 5383l0 24391 -7641 0 0 -24391 7641 0zm10220 0l-132 2158c665,-878 1393,-1531 2190,-1964 796,-432 1669,-646 2609,-646 1154,0 2152,307 2993,929 834,620 1361,1336 1568,2145 207,810 314,2183 314,4122l0 10282c0,2221 -132,3796 -396,4736 -263,935 -803,1688 -1618,2247 -816,558 -1800,834 -2954,834 -917,0 -1770,-214 -2554,-647 -784,-432 -1500,-1072 -2152,-1925l0 5584 -7415 0 0 -27855 7547 0zm2126 7095c0,-1512 -56,-2421 -169,-2742 -107,-320 -414,-476 -922,-476 -496,0 -809,182 -954,552 -144,363 -213,1254 -213,2666l0 10113c0,1468 75,2391 219,2754 151,370 471,552 967,552 483,0 777,-169 897,-508 119,-333 175,-1155 175,-2452l0 -10459zm17504 -12478l0 29774 -7641 0 0 -29774 7641 0zm19498 17992l-9637 0 0 5289c0,1104 82,1819 239,2140 163,320 471,476 929,476 570,0 953,-213 1142,-633 194,-427 288,-1249 288,-2466l0 -3224 7039 0 0 1806c0,1513 -94,2673 -282,3482 -195,809 -641,1675 -1337,2598 -696,921 -1587,1612 -2660,2076 -1072,457 -2415,690 -4034,690 -1568,0 -2955,-226 -4159,-683 -1198,-452 -2133,-1074 -2804,-1864 -671,-791 -1129,-1663 -1387,-2617 -257,-946 -389,-2327 -389,-4146l0 -7120c0,-2133 289,-3815 866,-5051 578,-1229 1519,-2177 2829,-2829 1318,-659 2824,-985 4530,-985 2083,0 3802,395 5157,1186 1355,790 2308,1838 2854,3143 546,1298 816,3137 816,5501l0 3231zm-7415 -3952l0 -1782c0,-1267 -70,-2076 -207,-2446 -138,-370 -420,-552 -847,-552 -527,0 -853,156 -979,470 -126,314 -189,1155 -189,2528l0 1782 2222 0z"/>
    <path class="fil1 str1" d="M69061 116796l-7755 0 0 -5170c0,-1505 -81,-2440 -244,-2816 -163,-371 -527,-559 -1085,-559 -628,0 -1029,226 -1199,678 -169,457 -257,1436 -257,2942l0 13814c0,1450 88,2390 257,2836 170,439 552,659 1142,659 571,0 947,-220 1123,-666 176,-439 263,-1480 263,-3117l0 -3745 7755 0 0 1160c0,3087 -220,5276 -653,6562 -433,1292 -1398,2421 -2886,3394 -1492,973 -3325,1455 -5508,1455 -2264,0 -4134,-408 -5608,-1229 -1468,-822 -2447,-1957 -2924,-3413 -477,-1455 -715,-3639 -715,-6555l0 -8695c0,-2146 76,-3752 219,-4825 151,-1073 584,-2108 1318,-3099 727,-992 1738,-1776 3030,-2347 1293,-570 2779,-853 4461,-853 2277,0 4159,439 5646,1324 1481,878 2452,1976 2923,3293 464,1318 697,3363 697,6142l0 2830zm9963 -12987l0 6707c639,-590 1330,-1036 2070,-1330 740,-295 1537,-446 2384,-446 1298,0 2402,333 3318,992 910,665 1469,1424 1675,2289 202,866 301,2447 301,4737l0 16826 -7415 0 0 -17171c0,-1418 -69,-2334 -213,-2735 -144,-408 -458,-608 -954,-608 -458,0 -765,206 -928,626 -157,415 -238,1243 -238,2479l0 17409 -7416 0 0 -29775 7416 0zm19949 0l0 3878 -7641 0 0 -3878 7641 0zm0 5383l0 24392 -7641 0 0 -24392 7641 0zm10464 -3237l0 3840 2071 0 0 3876 -2071 0 0 13044c0,1599 88,2496 257,2678 170,182 872,276 2115,276l0 3915 -3005 0c-1694,0 -2905,-69 -3633,-213 -721,-138 -1361,-464 -1913,-973 -552,-508 -897,-1086 -1036,-1744 -131,-652 -200,-2190 -200,-4611l0 -12372 -1581 0 0 -3876 1581 0 0 -3840 7415 0zm18846 11029l-6550 0 0 -1324c0,-1129 -63,-1838 -195,-2139 -124,-301 -450,-451 -965,-451 -414,0 -728,137 -935,414 -207,275 -314,689 -314,1242 0,746 51,1298 157,1643 100,352 414,734 935,1148 514,421 1580,1029 3193,1825 2152,1055 3557,2045 4228,2980 672,929 1011,2285 1011,4059 0,1990 -258,3489 -772,4499 -514,1010 -1374,1794 -2578,2340 -1211,546 -2661,816 -4367,816 -1882,0 -3501,-295 -4837,-879 -1343,-590 -2264,-1387 -2766,-2390 -502,-1004 -753,-2522 -753,-4555l0 -1173 6587 0 0 1537c0,1305 82,2152 244,2547 170,389 496,583 979,583 527,0 891,-131 1098,-395 207,-263 313,-822 313,-1662 0,-1167 -131,-1895 -401,-2189 -282,-296 -1719,-1168 -4309,-2617 -2178,-1223 -3508,-2333 -3985,-3337 -476,-998 -715,-2184 -715,-3557 0,-1952 257,-3388 772,-4310 515,-929 1387,-1644 2616,-2146 1230,-502 2660,-753 4285,-753 1619,0 2992,208 4122,616 1135,414 2001,953 2609,1631 603,671 973,1298 1099,1875 131,578 194,1481 194,2704l0 1418z"/>
    <path class="fil2" d="M66420 113759l-7755 0 0 -5170c0,-1505 -81,-2440 -245,-2816 -163,-370 -527,-559 -1085,-559 -627,0 -1029,227 -1199,678 -168,457 -256,1436 -256,2942l0 13815c0,1449 88,2390 256,2835 170,439 553,659 1143,659 570,0 947,-220 1123,-665 176,-439 263,-1480 263,-3118l0 -3745 7755 0 0 1160c0,3087 -220,5276 -653,6562 -433,1293 -1399,2422 -2886,3394 -1493,973 -3325,1456 -5509,1456 -2264,0 -4134,-408 -5608,-1230 -1467,-822 -2446,-1957 -2923,-3412 -477,-1456 -715,-3640 -715,-6556l0 -8695c0,-2146 75,-3752 219,-4825 151,-1072 584,-2108 1317,-3099 728,-991 1738,-1775 3031,-2347 1292,-570 2779,-853 4460,-853 2277,0 4160,439 5646,1324 1481,878 2453,1976 2924,3294 464,1317 697,3362 697,6141l0 2830zm9962 -12986l0 6706c640,-590 1330,-1035 2070,-1330 740,-294 1537,-445 2384,-445 1299,0 2403,332 3319,991 910,665 1468,1424 1675,2290 201,866 301,2446 301,4737l0 16825 -7415 0 0 -17170c0,-1418 -70,-2335 -213,-2736 -145,-408 -458,-608 -954,-608 -458,0 -765,206 -929,627 -156,414 -238,1242 -238,2478l0 17409 -7415 0 0 -29774 7415 0zm19949 0l0 3877 -7640 0 0 -3877 7640 0zm0 5382l0 24392 -7640 0 0 -24392 7640 0zm10465 -3237l0 3840 2070 0 0 3877 -2070 0 0 13043c0,1599 88,2497 257,2678 169,182 872,276 2114,276l0 3915 -3004 0c-1694,0 -2905,-69 -3633,-213 -722,-138 -1361,-464 -1914,-973 -552,-508 -897,-1085 -1035,-1744 -131,-652 -200,-2190 -200,-4611l0 -12371 -1581 0 0 -3877 1581 0 0 -3840 7415 0zm18845 11029l-6549 0 0 -1324c0,-1129 -63,-1837 -195,-2138 -125,-302 -451,-452 -966,-452 -414,0 -727,137 -935,414 -206,276 -313,690 -313,1242 0,746 50,1298 156,1644 101,351 414,734 935,1148 515,420 1581,1028 3193,1825 2152,1054 3558,2045 4229,2980 672,928 1010,2284 1010,4059 0,1989 -258,3488 -771,4499 -515,1009 -1375,1793 -2579,2339 -1211,546 -2660,816 -4367,816 -1882,0 -3500,-295 -4837,-879 -1342,-590 -2264,-1386 -2766,-2390 -502,-1004 -753,-2522 -753,-4554l0 -1173 6588 0 0 1537c0,1305 81,2152 244,2547 170,389 496,583 979,583 526,0 891,-132 1097,-396 208,-263 314,-821 314,-1662 0,-1167 -131,-1894 -402,-2189 -282,-295 -1719,-1168 -4309,-2616 -2177,-1224 -3507,-2334 -3984,-3338 -476,-998 -715,-2183 -715,-3557 0,-1951 257,-3388 771,-4310 515,-929 1387,-1644 2617,-2146 1229,-502 2659,-752 4285,-752 1618,0 2992,207 4122,615 1135,414 2001,953 2609,1631 602,671 972,1298 1098,1875 131,578 194,1481 194,2705l0 1417z"/>
   </g>
  </g>
 </g>
</svg>
