<?xml version="1.0" encoding="UTF-8"?>
<!DOCTYPE svg PUBLIC "-//W3C//DTD SVG 1.1//EN" "http://www.w3.org/Graphics/SVG/1.1/DTD/svg11.dtd">
<!-- Creator: CorelDRAW X8 -->
<svg xmlns="http://www.w3.org/2000/svg" xml:space="preserve" width="260px" height="260px" version="1.1" style="shape-rendering:geometricPrecision; text-rendering:geometricPrecision; image-rendering:optimizeQuality; fill-rule:evenodd; clip-rule:evenodd"
viewBox="0 0 189286 189286"
 xmlns:xlink="http://www.w3.org/1999/xlink">
 <defs>
  <style type="text/css">
   <![CDATA[
    .str1 {stroke:#999999;stroke-width:2910.4}
    .str0 {stroke:#999999;stroke-width:654.968}
    .str3 {stroke:#DADADA;stroke-width:654.968}
    .str2 {stroke:#EBEBEB;stroke-width:654.968}
    .fil7 {fill:#4D4D4D}
    .fil2 {fill:#333333;fill-rule:nonzero}
    .fil3 {fill:#CCCCCC;fill-rule:nonzero}
    .fil4 {fill:#E6E6E6;fill-rule:nonzero}
    .fil5 {fill:#454545;fill-rule:nonzero}
    .fil6 {fill:#E6E6E6;fill-rule:nonzero}
    .fil0 {fill:url(#id0)}
    .fil1 {fill:url(#id1)}
    .fil8 {fill:url(#id2)}
    .fil12 {fill:url(#id3)}
    .fil9 {fill:url(#id4)}
    .fil11 {fill:url(#id5)}
    .fil10 {fill:url(#id6)}
   ]]>
  </style>
  <linearGradient id="id0" gradientUnits="userSpaceOnUse" x1="94642.9" y1="188958" x2="94642.9" y2="327.484">
   <stop offset="0" style="stop-opacity:1; stop-color:#B3B3B3"/>
   <stop offset="1" style="stop-opacity:1; stop-color:white"/>
  </linearGradient>
  <linearGradient id="id1" gradientUnits="userSpaceOnUse" x1="94752.1" y1="176987" x2="94752.1" y2="11934.7">
   <stop offset="0" style="stop-opacity:1; stop-color:#CCCCCC"/>
   <stop offset="1" style="stop-opacity:1; stop-color:white"/>
  </linearGradient>
  <linearGradient id="id2" gradientUnits="userSpaceOnUse" xlink:href="#id0" x1="79007.9" y1="115035" x2="106021" y2="68500">
  </linearGradient>
  <linearGradient id="id3" gradientUnits="userSpaceOnUse" xlink:href="#id0" x1="102091" y1="75819.9" x2="109140" y2="59522.2">
  </linearGradient>
  <linearGradient id="id4" gradientUnits="userSpaceOnUse" xlink:href="#id0" x1="55810.7" y1="117270" x2="76286.6" y2="71333.9">
  </linearGradient>
  <linearGradient id="id5" gradientUnits="userSpaceOnUse" xlink:href="#id0" x1="75430.5" y1="75733.9" x2="82480.4" y2="59437.1">
  </linearGradient>
  <linearGradient id="id6" gradientUnits="userSpaceOnUse" xlink:href="#id0" x1="107969" y1="118323" x2="128445" y2="72385.2">
  </linearGradient>
 </defs>
 <g id="kudo">
  <metadata id="CorelCorpID_0Corel-Layer"/>
  <path class="fil0 str0" d="M94643 327c52089,0 94315,42227 94315,94316 0,52089 -42226,94315 -94315,94315 -52089,0 -94316,-42226 -94316,-94315 0,-52089 42227,-94316 94316,-94316z"/>
  <path class="fil1 str1" d="M94752 11935c45578,0 82526,36948 82526,82526 0,45578 -36948,82526 -82526,82526 -45578,0 -82526,-36948 -82526,-82526 0,-45578 36948,-82526 82526,-82526z"/>
  <path class="fil2" d="M83641 145339l-6173 0 0 -4114c0,-1198 -65,-1942 -195,-2242 -129,-295 -419,-444 -863,-444 -500,0 -820,179 -955,539 -135,364 -204,1143 -204,2342l0 10995c0,1154 69,1903 204,2257 135,350 441,525 910,525 455,0 754,-175 893,-530 141,-349 210,-1178 210,-2481l0 -2981 6173 0 0 924c0,2456 -176,4199 -520,5222 -345,1029 -1113,1928 -2297,2702 -1189,774 -2646,1158 -4384,1158 -1803,0 -3292,-324 -4465,-978 -1168,-655 -1947,-1558 -2327,-2717 -380,-1158 -569,-2896 -569,-5218l0 -6921c0,-1708 60,-2986 175,-3840 120,-854 465,-1678 1048,-2466 580,-789 1383,-1414 2412,-1868 1029,-455 2213,-680 3550,-680 1813,0 3311,350 4495,1054 1178,699 1953,1573 2327,2621 370,1050 555,2677 555,4889l0 2252zm7929 -10336l0 5338c510,-469 1059,-823 1648,-1058 589,-236 1224,-355 1898,-355 1034,0 1912,265 2641,789 725,529 1169,1133 1334,1822 159,690 240,1948 240,3770l0 13394 -5903 0 0 -13668c0,-1129 -55,-1857 -170,-2177 -115,-324 -364,-484 -759,-484 -364,0 -609,164 -739,498 -125,331 -190,990 -190,1973l0 13858 -5902 0 0 -23700 5902 0zm15879 0l0 3086 -6081 0 0 -3086 6081 0zm0 4284l0 19416 -6081 0 0 -19416 6081 0zm8330 -2577l0 3057 1648 0 0 3086 -1648 0 0 10381c0,1274 70,1987 205,2133 134,144 693,219 1682,219l0 3117 -2392 0c-1348,0 -2311,-55 -2891,-171 -573,-110 -1083,-369 -1523,-774 -439,-404 -714,-863 -824,-1387 -104,-520 -160,-1744 -160,-3671l0 -9847 -1258 0 0 -3086 1258 0 0 -3057 5903 0z"/>
  <path class="fil3 str0" d="M82013 142138l-6172 0 0 -4115c0,-1198 -65,-1942 -195,-2242 -130,-295 -419,-444 -864,-444 -499,0 -819,180 -954,539 -135,365 -204,1144 -204,2342l0 10995c0,1154 69,1903 204,2257 135,350 440,525 910,525 454,0 754,-175 893,-529 140,-350 210,-1178 210,-2482l0 -2981 6172 0 0 924c0,2456 -175,4199 -519,5223 -345,1028 -1113,1927 -2297,2701 -1189,774 -2647,1159 -4385,1159 -1802,0 -3291,-324 -4464,-979 -1169,-654 -1948,-1558 -2327,-2717 -380,-1157 -569,-2895 -569,-5218l0 -6921c0,-1708 60,-2986 175,-3839 120,-855 464,-1679 1048,-2467 579,-789 1383,-1413 2412,-1868 1029,-455 2212,-679 3550,-679 1813,0 3311,350 4495,1053 1178,700 1953,1574 2327,2622 369,1049 554,2676 554,4889l0 2252zm7930 -10336l0 5337c510,-469 1059,-823 1648,-1058 589,-235 1224,-355 1898,-355 1033,0 1912,265 2641,789 724,530 1169,1133 1333,1823 160,689 241,1947 241,3770l0 13393 -5904 0 0 -13668c0,-1128 -54,-1857 -169,-2177 -115,-324 -364,-484 -759,-484 -364,0 -609,164 -739,499 -125,330 -190,989 -190,1972l0 13858 -5902 0 0 -23699 5902 0zm15879 0l0 3085 -6081 0 0 -3085 6081 0zm0 4284l0 19415 -6081 0 0 -19415 6081 0zm8330 -2577l0 3056 1648 0 0 3086 -1648 0 0 10381c0,1274 69,1988 204,2133 135,144 694,220 1683,220l0 3116 -2392 0c-1348,0 -2312,-55 -2891,-170 -574,-110 -1083,-370 -1523,-774 -440,-405 -714,-864 -824,-1388 -105,-519 -160,-1743 -160,-3670l0 -9848 -1258 0 0 -3086 1258 0 0 -3056 5903 0z"/>
  <path class="fil4 str2" d="M83253 30459l-3261 9914 3566 12043 -5884 0 -2317 -9411 0 9411 -5718 0 0 -21957 5718 0 0 8531 2567 -8531 5329 0zm13634 3969l0 17988 -5565 0 97 -1500c-379,612 -847,1069 -1402,1375 -555,305 -1194,458 -1915,458 -819,0 -1504,-144 -2045,-435 -542,-287 -940,-671 -1198,-1153 -255,-480 -417,-975 -482,-1498 -60,-518 -92,-1550 -92,-3100l0 -12135 5468 0 0 12241c0,1402 42,2230 130,2494 83,264 319,394 699,394 402,0 647,-134 721,-408 79,-268 116,-1142 116,-2614l0 -12107 5468 0zm14448 -3969l0 21957 -5468 0 0 -1310c-527,551 -1078,958 -1656,1231 -583,273 -1189,412 -1823,412 -851,0 -1592,-223 -2216,-671 -625,-449 -1027,-967 -1203,-1554 -175,-588 -263,-1546 -263,-2878l0 -8424c0,-1384 88,-2365 263,-2943 176,-578 583,-1087 1217,-1527 634,-439 1393,-657 2272,-657 680,0 1299,125 1868,371 565,245 1078,610 1541,1105l0 -5112 5468 0zm-5468 8494c0,-657 -55,-1102 -171,-1328 -115,-226 -342,-337 -680,-337 -333,0 -555,101 -671,305 -116,203 -172,656 -172,1360l0 8813c0,731 56,1212 167,1443 111,232 320,348 635,348 355,0 596,-130 711,-389 121,-254 181,-883 181,-1887l0 -8328zm19805 1790l0 4409c0,1620 -82,2803 -245,3562 -161,754 -509,1458 -1041,2115 -532,656 -1216,1138 -2054,1452 -837,311 -1795,468 -2877,468 -1213,0 -2239,-135 -3077,-398 -841,-269 -1494,-671 -1956,-1208 -468,-541 -801,-1194 -1000,-1957 -198,-763 -296,-1911 -296,-3437l0 -4612c0,-1676 180,-2980 541,-3923 361,-940 1013,-1694 1953,-2263 939,-569 2142,-856 3603,-856 1227,0 2281,185 3165,550 879,367 1559,843 2040,1431 477,587 805,1193 981,1818 176,624 263,1573 263,2849zm-5468 -1356c0,-920 -51,-1503 -148,-1738 -101,-241 -315,-361 -643,-361 -328,0 -546,120 -657,361 -106,235 -162,818 -162,1738l0 8120c0,851 56,1407 162,1661 111,259 324,389 643,389 329,0 542,-116 648,-352 106,-236 157,-741 157,-1518l0 -8300z"/>
  <path class="fil5 str2" d="M82525 29003l-3261 9914 3566 12042 -5884 0 -2317 -9410 0 9410 -5718 0 0 -21956 5718 0 0 8530 2567 -8530 5329 0zm13634 3969l0 17987 -5565 0 97 -1499c-379,612 -847,1069 -1402,1375 -555,305 -1194,458 -1915,458 -819,0 -1504,-144 -2045,-435 -542,-287 -940,-671 -1198,-1153 -255,-480 -417,-975 -482,-1498 -60,-518 -92,-1550 -92,-3100l0 -12135 5468 0 0 12241c0,1402 42,2230 130,2494 83,264 319,394 699,394 402,0 647,-134 721,-408 79,-268 116,-1142 116,-2614l0 -12107 5468 0zm14448 -3969l0 21956 -5468 0 0 -1309c-527,550 -1078,958 -1656,1231 -583,273 -1189,412 -1823,412 -851,0 -1592,-223 -2216,-671 -625,-449 -1027,-967 -1203,-1554 -175,-588 -263,-1546 -263,-2878l0 -8424c0,-1384 88,-2365 263,-2944 176,-577 583,-1086 1217,-1526 634,-439 1392,-657 2272,-657 680,0 1299,125 1868,371 565,245 1078,610 1541,1105l0 -5112 5468 0zm-5468 8493c0,-656 -55,-1101 -171,-1327 -116,-227 -342,-337 -680,-337 -333,0 -555,101 -671,305 -116,203 -172,656 -172,1359l0 8814c0,731 56,1212 167,1443 111,232 320,348 635,348 355,0 596,-130 711,-389 121,-254 181,-883 181,-1887l0 -8329zm19805 1791l0 4409c0,1620 -82,2803 -245,3562 -161,754 -509,1458 -1041,2115 -532,656 -1216,1138 -2054,1452 -837,311 -1795,468 -2877,468 -1213,0 -2239,-135 -3077,-398 -841,-269 -1494,-671 -1956,-1208 -468,-541 -801,-1194 -1000,-1957 -198,-763 -296,-1911 -296,-3437l0 -4612c0,-1676 180,-2980 541,-3923 361,-940 1013,-1694 1953,-2263 939,-569 2142,-856 3603,-856 1227,0 2281,185 3165,550 879,367 1559,843 2040,1431 477,587 805,1193 981,1818 176,624 263,1572 263,2849zm-5468 -1356c0,-920 -51,-1503 -148,-1738 -101,-241 -315,-361 -643,-361 -328,0 -546,120 -657,361 -106,235 -162,818 -162,1738l0 8120c0,851 56,1407 162,1661 111,259 324,389 643,389 329,0 542,-116 648,-352 106,-236 157,-741 157,-1518l0 -8300z"/>
  <path class="fil6 str3" d="M80341 26818l-3261 9915 3566 12042 -5884 0 -2317 -9410 0 9410 -5718 0 0 -21957 5718 0 0 8531 2567 -8531 5329 0zm13634 3970l0 17987 -5565 0 97 -1499c-379,611 -847,1069 -1402,1375 -556,305 -1194,458 -1915,458 -819,0 -1504,-144 -2045,-435 -542,-287 -940,-671 -1198,-1153 -255,-480 -417,-975 -482,-1498 -60,-518 -93,-1550 -93,-3100l0 -12135 5469 0 0 12241c0,1402 42,2230 130,2494 83,264 319,394 698,394 403,0 648,-135 722,-408 79,-268 116,-1142 116,-2614l0 -12107 5468 0zm14448 -3970l0 21957 -5468 0 0 -1309c-527,550 -1078,958 -1656,1231 -583,273 -1189,412 -1823,412 -851,0 -1592,-223 -2216,-671 -625,-449 -1027,-967 -1203,-1554 -176,-588 -263,-1546 -263,-2878l0 -8425c0,-1383 87,-2364 263,-2943 176,-577 583,-1086 1217,-1526 633,-439 1392,-657 2272,-657 680,0 1299,125 1868,371 565,245 1078,610 1541,1105l0 -5113 5468 0zm-5468 8494c0,-656 -55,-1101 -171,-1327 -116,-227 -343,-338 -680,-338 -333,0 -556,102 -671,306 -116,203 -172,656 -172,1359l0 8814c0,731 56,1212 167,1443 111,231 320,348 634,348 356,0 597,-130 712,-389 120,-254 181,-884 181,-1888l0 -8328zm19805 1791l0 4409c0,1620 -82,2803 -245,3562 -161,754 -509,1458 -1041,2115 -532,656 -1216,1138 -2054,1452 -837,311 -1795,468 -2877,468 -1213,0 -2239,-135 -3077,-398 -842,-269 -1494,-671 -1956,-1208 -468,-541 -801,-1194 -1000,-1957 -199,-763 -296,-1911 -296,-3437l0 -4613c0,-1675 180,-2979 541,-3922 361,-940 1013,-1694 1953,-2263 938,-569 2142,-856 3603,-856 1227,0 2281,185 3165,550 879,366 1559,843 2040,1431 477,587 805,1193 981,1817 175,624 263,1573 263,2850zm-5468 -1356c0,-920 -51,-1503 -148,-1739 -102,-240 -315,-361 -643,-361 -328,0 -546,121 -657,361 -106,236 -162,819 -162,1739l0 8120c0,851 56,1407 162,1661 111,259 324,389 643,389 329,0 542,-117 647,-352 107,-236 158,-741 158,-1518l0 -8300z"/>
  <path class="fil7" d="M92561 64621c2098,5248 3614,10830 5711,16078 1168,149 1607,-1920 1515,-5433 2734,2661 4151,7413 5477,12308 7408,13972 5139,25098 -4545,34043 -3963,2207 -7924,2082 -11887,443 -8832,-6362 -12913,-18097 -4428,-34596 726,-3133 1562,-6257 3380,-9315 561,2482 1221,4698 2563,5101 544,-6099 1670,-12531 2214,-18629z"/>
  <path class="fil7" d="M76307 69096c1969,4128 3164,7197 5873,8644 -3547,6735 -6627,13469 -10174,20204 2714,5628 4962,11257 7676,16886 -2374,3015 -4749,6031 -7123,9046 -6352,-7739 -11920,-17796 -18272,-25535 7246,-10521 14774,-18725 22020,-29245z"/>
  <path class="fil7" d="M112317 70148c-1969,4128 -3164,7198 -5873,8644 3547,6735 6983,13469 10529,20204 -2714,5628 -5317,11257 -8031,16886 2374,3015 4749,6031 7123,9046 6352,-7739 11921,-17796 18273,-25535 -7246,-10521 -14775,-18724 -22021,-29245z"/>
  <path class="fil7" d="M82559 79379c1326,-1373 2296,-2747 3623,-4120 0,-4926 0,-9851 0,-14776 -9701,-2607 -15067,11204 -3623,18896z"/>
  <path class="fil7" d="M106379 79464c-1325,-1373 -2297,-2748 -3622,-4121 0,-4925 0,-9850 0,-14776 9700,-2606 15066,11205 3622,18897z"/>
  <path class="fil8" d="M90377 62437c2098,5248 3614,10830 5711,16078 1168,149 1607,-1920 1515,-5433 2734,2661 4151,7413 5477,12308 7408,13972 5138,25098 -4545,34043 -3963,2207 -7924,2082 -11887,443 -8832,-6362 -12913,-18097 -4428,-34596 725,-3133 1562,-6257 3380,-9315 561,2482 1221,4698 2563,5101 544,-6099 1670,-12531 2214,-18629z"/>
  <path class="fil9" d="M74123 66912c1968,4128 3164,7197 5873,8644 -3547,6734 -6628,13469 -10174,20203 2714,5629 4962,11258 7676,16887 -2374,3015 -4749,6030 -7123,9046 -6352,-7740 -11920,-17796 -18272,-25535 7246,-10521 14774,-18725 22020,-29245z"/>
  <path class="fil10" d="M110133 67964c-1970,4128 -3164,7197 -5873,8644 3547,6735 6983,13469 10529,20204 -2714,5628 -5317,11257 -8031,16886 2374,3015 4749,6031 7123,9046 6352,-7740 11921,-17796 18273,-25535 -7246,-10521 -14775,-18725 -22021,-29245z"/>
  <path class="fil11" d="M80375 77195c1326,-1373 2296,-2747 3623,-4120 0,-4926 0,-9851 0,-14776 -9701,-2607 -15067,11204 -3623,18896z"/>
  <path class="fil12" d="M104195 77280c-1325,-1373 -2297,-2748 -3622,-4121 0,-4925 0,-9851 0,-14776 9700,-2606 15066,11205 3622,18897z"/>
 </g>
</svg>
