<?xml version="1.0" encoding="UTF-8"?>
<!DOCTYPE svg PUBLIC "-//W3C//DTD SVG 1.1//EN" "http://www.w3.org/Graphics/SVG/1.1/DTD/svg11.dtd">
<!-- Creator: CorelDRAW X8 -->
<svg xmlns="http://www.w3.org/2000/svg" xml:space="preserve" width="260px" height="260px" version="1.1" style="shape-rendering:geometricPrecision; text-rendering:geometricPrecision; image-rendering:optimizeQuality; fill-rule:evenodd; clip-rule:evenodd"
viewBox="0 0 70405 70405"
 xmlns:xlink="http://www.w3.org/1999/xlink">
 <defs>
  <style type="text/css">
   <![CDATA[
    .str1 {stroke:#999999;stroke-width:1082.53}
    .str0 {stroke:#999999;stroke-width:243.618}
    .fil2 {fill:#4D4D4D}
    .fil3 {fill:#333333;fill-rule:nonzero}
    .fil4 {fill:#CCCCCC;fill-rule:nonzero}
    .fil0 {fill:url(#id4)}
    .fil1 {fill:url(#id5)}
    .fil6 {fill:url(#id6)}
    .fil9 {fill:url(#id7)}
    .fil7 {fill:url(#id8)}
    .fil5 {fill:url(#id9)}
    .fil8 {fill:url(#id10)}
   ]]>
  </style>
    <clipPath id="id0">
     <path d="M27849 9891l15831 0 0 27111 -15831 0 0 -27111z"/>
    </clipPath>
    <clipPath id="id1">
     <path d="M38844 12224l14764 0 0 25313 -14764 0 0 -25313z"/>
    </clipPath>
    <clipPath id="id2">
     <path d="M27036 9078l15832 0 0 27112 -15832 0 0 -27112z"/>
    </clipPath>
    <clipPath id="id3">
     <path d="M38031 11412l14765 0 0 25313 -14765 0 0 -25313z"/>
    </clipPath>
  <linearGradient id="id4" gradientUnits="userSpaceOnUse" x1="35202.7" y1="70283.7" x2="35202.7" y2="121.809">
   <stop offset="0" style="stop-opacity:1; stop-color:#B3B3B3"/>
   <stop offset="1" style="stop-opacity:1; stop-color:white"/>
  </linearGradient>
  <linearGradient id="id5" gradientUnits="userSpaceOnUse" x1="35243.3" y1="65830.8" x2="35243.3" y2="4439.15">
   <stop offset="0" style="stop-opacity:1; stop-color:#CCCCCC"/>
   <stop offset="1" style="stop-opacity:1; stop-color:white"/>
  </linearGradient>
  <linearGradient id="id6" gradientUnits="userSpaceOnUse" xlink:href="#id4" x1="20006.7" y1="32832.1" x2="28344.4" y2="14462.3">
  </linearGradient>
  <linearGradient id="id7" gradientUnits="userSpaceOnUse" xlink:href="#id4" x1="38850.9" y1="16256.5" x2="41721.6" y2="9739.59">
  </linearGradient>
  <linearGradient id="id8" gradientUnits="userSpaceOnUse" xlink:href="#id4" x1="41244.6" y1="33252.8" x2="49582.2" y2="14883">
  </linearGradient>
  <linearGradient id="id9" gradientUnits="userSpaceOnUse" xlink:href="#id4" x1="29452.1" y1="31938.5" x2="40451.7" y2="13329.9">
  </linearGradient>
  <linearGradient id="id10" gradientUnits="userSpaceOnUse" xlink:href="#id4" x1="27995.6" y1="16222.6" x2="30865.9" y2="9705.7">
  </linearGradient>
 </defs>
 <g id="kudo">
  <metadata id="CorelCorpID_0Corel-Layer"/>
  <path class="fil0 str0" d="M35203 122c19374,0 35081,15706 35081,35081 0,19374 -15707,35081 -35081,35081 -19375,0 -35081,-15707 -35081,-35081 0,-19375 15706,-35081 35081,-35081z"/>
  <path class="fil1 str1" d="M35243 4439c16953,0 30696,13743 30696,30696 0,16953 -13743,30696 -30696,30696 -16953,0 -30695,-13743 -30695,-30696 0,-16953 13742,-30696 30695,-30696z"/>
  <g id="_1939259056160">
   <g style="clip-path:url(#id0)">
    <image x="27849" y="9891" width="15831" height="27112" xlink:href="silver_standard_Images\silver_standard_ImgID1.png"/>
   </g>
  </g>
  <path class="fil2" d="M34894 11717c854,2099 1471,4331 2325,6430 476,59 655,-768 617,-2173 1113,1065 1690,2965 2230,4922 3017,5587 2092,10036 -1850,13613 -1614,883 -3227,833 -4840,178 -3597,-2545 -5259,-7238 -1804,-13835 296,-1253 636,-2502 1376,-3725 229,992 498,1879 1044,2040 222,-2439 680,-5011 902,-7450z"/>
  <path class="fil2" d="M28276 13507c801,1651 1288,2878 2391,3457 -1444,2693 -2699,5386 -4143,8079 1105,2250 2021,4502 3126,6752 -967,1206 -1934,2412 -2901,3618 -2586,-3095 -4853,-7117 -7440,-10212 2951,-4207 6016,-7487 8967,-11694z"/>
  <g id="_1939259057280">
   <g style="clip-path:url(#id1)">
    <image x="38844" y="12224" width="14764" height="25313" xlink:href="silver_standard_Images\silver_standard_ImgID2.png"/>
   </g>
  </g>
  <path class="fil2" d="M42938 13928c-802,1650 -1288,2878 -2391,3456 1444,2693 2843,5386 4287,8079 -1105,2251 -2165,4502 -3270,6753 966,1206 1934,2412 2900,3618 2587,-3096 4854,-7117 7441,-10212 -2951,-4207 -6017,-7487 -8967,-11694z"/>
  <path class="fil2" d="M30821 17619c540,-549 935,-1099 1475,-1648 0,-1969 0,-3939 0,-5909 -3949,-1042 -6135,4481 -1475,7557z"/>
  <path class="fil2" d="M40520 17653c-540,-549 -935,-1099 -1475,-1648 0,-1969 0,-3939 0,-5909 3950,-1042 6135,4481 1475,7557z"/>
  <path class="fil3" d="M29433 47963l-3717 0 0 -2479c0,-721 -39,-1170 -117,-1350 -79,-178 -253,-268 -520,-268 -301,0 -494,109 -575,325 -81,220 -123,689 -123,1411l0 6622c0,695 42,1146 123,1360 81,210 265,316 547,316 274,0 454,-106 539,-319 84,-211 126,-710 126,-1495l0 -1796 3717 0 0 557c0,1480 -105,2529 -312,3146 -208,620 -671,1161 -1384,1627 -716,466 -1594,698 -2641,698 -1085,0 -1981,-196 -2688,-590 -704,-394 -1173,-938 -1402,-1636 -228,-698 -343,-1744 -343,-3143l0 -4168c0,-1029 36,-1799 106,-2313 72,-515 279,-1011 631,-1486 349,-475 833,-851 1453,-1125 619,-274 1332,-409 2138,-409 1092,0 1994,211 2707,635 710,421 1176,947 1402,1579 222,631 333,1612 333,2944l0 1357zm4776 -6226l0 3215c307,-283 638,-496 993,-638 355,-141 737,-213 1143,-213 623,0 1152,159 1591,475 436,319 704,683 803,1098 96,415 144,1173 144,2271l0 8066 -3555 0 0 -8232c0,-680 -33,-1119 -102,-1311 -69,-196 -220,-292 -457,-292 -220,0 -367,99 -445,301 -76,198 -115,595 -115,1188l0 8346 -3554 0 0 -14274 3554 0zm9565 0l0 1859 -3663 0 0 -1859 3663 0zm0 2580l0 11694 -3663 0 0 -11694 3663 0zm5016 -1552l0 1841 993 0 0 1859 -993 0 0 6253c0,767 43,1197 124,1284 81,87 418,132 1013,132l0 1877 -1440 0c-812,0 -1393,-33 -1742,-102 -345,-67 -652,-223 -917,-467 -265,-243 -430,-520 -496,-836 -64,-313 -97,-1049 -97,-2210l0 -5931 -758 0 0 -1859 758 0 0 -1841 3555 0z"/>
  <path class="fil4" d="M28350 47150l-3717 0 0 -2478c0,-722 -39,-1170 -117,-1351 -79,-177 -253,-267 -521,-267 -300,0 -493,108 -574,325 -81,219 -124,688 -124,1410l0 6623c0,695 43,1146 124,1359 81,211 265,316 547,316 274,0 454,-105 539,-319 84,-210 126,-709 126,-1495l0 -1795 3717 0 0 557c0,1479 -105,2529 -313,3146 -207,619 -670,1160 -1383,1627 -716,466 -1594,697 -2641,697 -1085,0 -1982,-195 -2688,-589 -704,-394 -1173,-938 -1402,-1636 -229,-698 -343,-1745 -343,-3143l0 -4169c0,-1028 36,-1798 105,-2313 73,-514 280,-1010 632,-1486 349,-475 833,-851 1453,-1124 619,-274 1332,-409 2138,-409 1092,0 1994,210 2707,634 709,422 1176,948 1401,1579 223,632 334,1612 334,2945l0 1356zm4776 -6225l0 3215c307,-283 638,-497 993,-638 354,-141 737,-214 1143,-214 622,0 1151,160 1591,476 436,318 703,682 803,1097 96,415 144,1173 144,2271l0 8067 -3555 0 0 -8232c0,-680 -33,-1119 -102,-1311 -69,-196 -220,-292 -457,-292 -220,0 -367,99 -446,301 -75,198 -114,595 -114,1188l0 8346 -3555 0 0 -14274 3555 0zm9565 0l0 1858 -3664 0 0 -1858 3664 0zm0 2580l0 11694 -3664 0 0 -11694 3664 0zm5016 -1552l0 1841 993 0 0 1858 -993 0 0 6253c0,767 42,1197 124,1285 81,87 418,132 1013,132l0 1877 -1441 0c-812,0 -1392,-33 -1741,-103 -346,-66 -653,-222 -917,-466 -265,-244 -430,-520 -496,-836 -64,-313 -97,-1050 -97,-2211l0 -5931 -758 0 0 -1858 758 0 0 -1841 3555 0z"/>
  <g id="_1939259059680">
   <g style="clip-path:url(#id2)">
    <image x="27036" y="9078" width="15831" height="27112" xlink:href="silver_standard_Images\silver_standard_ImgID3.png"/>
   </g>
  </g>
  <path class="fil5" d="M34082 10905c854,2099 1471,4331 2325,6430 475,59 654,-768 617,-2173 1113,1064 1690,2964 2230,4922 3016,5587 2092,10036 -1851,13613 -1613,883 -3226,832 -4840,177 -3596,-2544 -5258,-7237 -1803,-13834 295,-1253 636,-2502 1376,-3725 229,992 498,1879 1044,2039 221,-2438 680,-5010 902,-7449z"/>
  <path class="fil6" d="M27463 12695c802,1650 1289,2878 2391,3456 -1443,2693 -2698,5386 -4142,8079 1105,2251 2020,4502 3125,6753 -966,1206 -1933,2411 -2900,3617 -2586,-3095 -4854,-7116 -7440,-10211 2951,-4207 6016,-7487 8966,-11694z"/>
  <g id="_1939259060288">
   <g style="clip-path:url(#id3)">
    <image x="38031" y="11412" width="14764" height="25313" xlink:href="silver_standard_Images\silver_standard_ImgID4.png"/>
   </g>
  </g>
  <path class="fil7" d="M42125 13115c-801,1651 -1288,2878 -2390,3457 1443,2693 2843,5386 4287,8079 -1105,2251 -2166,4502 -3270,6753 966,1206 1933,2411 2900,3617 2586,-3095 4854,-7116 7440,-10211 -2950,-4207 -6016,-7488 -8967,-11695z"/>
  <path class="fil8" d="M30009 16807c540,-550 935,-1099 1475,-1648 0,-1970 0,-3939 0,-5909 -3950,-1042 -6135,4481 -1475,7557z"/>
  <path class="fil9" d="M39708 16841c-540,-550 -935,-1099 -1475,-1648 0,-1970 0,-3939 0,-5909 3950,-1042 6135,4481 1475,7557z"/>
 </g>
</svg>
