<?xml version="1.0" encoding="UTF-8"?>
<!DOCTYPE svg PUBLIC "-//W3C//DTD SVG 1.1//EN" "http://www.w3.org/Graphics/SVG/1.1/DTD/svg11.dtd">
<!-- Creator: CorelDRAW X8 -->
<svg xmlns="http://www.w3.org/2000/svg" xml:space="preserve" width="704px" height="229px" version="1.1" style="shape-rendering:geometricPrecision; text-rendering:geometricPrecision; image-rendering:optimizeQuality; fill-rule:evenodd; clip-rule:evenodd"
viewBox="0 0 3033803 985256"
 xmlns:xlink="http://www.w3.org/1999/xlink">
 <defs>
  <style type="text/css">
   <![CDATA[
    .str1 {stroke:#999999;stroke-width:17228.1}
    .str0 {stroke:#999999;stroke-width:3877.08}
    .str3 {stroke:#DADADA;stroke-width:3877.08}
    .str2 {stroke:#EBEBEB;stroke-width:3877.08}
    .fil7 {fill:#4D4D4D}
    .fil2 {fill:#333333;fill-rule:nonzero}
    .fil3 {fill:#CCCCCC;fill-rule:nonzero}
    .fil4 {fill:#E6E6E6;fill-rule:nonzero}
    .fil5 {fill:#454545;fill-rule:nonzero}
    .fil6 {fill:#E6E6E6;fill-rule:nonzero}
    .fil25 {fill:url(#id0)}
    .fil13 {fill:url(#id1)}
    .fil10 {fill:url(#id2)}
    .fil0 {fill:url(#id3)}
    .fil23 {fill:url(#id4)}
    .fil1 {fill:url(#id5)}
    .fil14 {fill:url(#id6)}
    .fil24 {fill:url(#id7)}
    .fil17 {fill:url(#id8)}
    .fil21 {fill:url(#id9)}
    .fil20 {fill:url(#id10)}
    .fil19 {fill:url(#id11)}
    .fil16 {fill:url(#id12)}
    .fil12 {fill:url(#id13)}
    .fil9 {fill:url(#id14)}
    .fil15 {fill:url(#id15)}
    .fil26 {fill:url(#id16)}
    .fil18 {fill:url(#id17)}
    .fil8 {fill:url(#id18)}
    .fil22 {fill:url(#id19)}
    .fil11 {fill:url(#id20)}
   ]]>
  </style>
  <linearGradient id="id0" gradientUnits="userSpaceOnUse" x1="2.55405e+06" y1="506788" x2="2.58373e+06" y2="438196">
   <stop offset="0" style="stop-opacity:1; stop-color:#B3B3B3"/>
   <stop offset="1" style="stop-opacity:1; stop-color:white"/>
  </linearGradient>
  <linearGradient id="id1" gradientUnits="userSpaceOnUse" xlink:href="#id0" x1="1.49043e+06" y1="795834" x2="1.49043e+06" y2="1938.54">
  </linearGradient>
  <linearGradient id="id2" gradientUnits="userSpaceOnUse" xlink:href="#id0" x1="454977" y1="653847" x2="541153" y2="460507">
  </linearGradient>
  <linearGradient id="id3" gradientUnits="userSpaceOnUse" xlink:href="#id0" x1="398891" y1="951131" x2="398891" y2="157235">
  </linearGradient>
  <linearGradient id="id4" gradientUnits="userSpaceOnUse" xlink:href="#id0" x1="2.47148e+06" y1="681602" x2="2.55766e+06" y2="488268">
  </linearGradient>
  <linearGradient id="id5" gradientUnits="userSpaceOnUse" x1="399349" y1="872129" x2="399349" y2="177470">
   <stop offset="0" style="stop-opacity:1; stop-color:#CCCCCC"/>
   <stop offset="1" style="stop-opacity:1; stop-color:white"/>
  </linearGradient>
  <linearGradient id="id6" gradientUnits="userSpaceOnUse" xlink:href="#id5" x1="1.49089e+06" y1="716832" x2="1.49089e+06" y2="22173.6">
  </linearGradient>
  <linearGradient id="id7" gradientUnits="userSpaceOnUse" xlink:href="#id0" x1="2.691e+06" y1="686034" x2="2.77718e+06" y2="492694">
  </linearGradient>
  <linearGradient id="id8" gradientUnits="userSpaceOnUse" xlink:href="#id0" x1="1.54652e+06" y1="498550" x2="1.63269e+06" y2="305210">
  </linearGradient>
  <linearGradient id="id9" gradientUnits="userSpaceOnUse" xlink:href="#id5" x1="2.63537e+06" y1="904316" x2="2.63537e+06" y2="209657">
  </linearGradient>
  <linearGradient id="id10" gradientUnits="userSpaceOnUse" xlink:href="#id0" x1="2.63492e+06" y1="983318" x2="2.63492e+06" y2="189422">
  </linearGradient>
  <linearGradient id="id11" gradientUnits="userSpaceOnUse" xlink:href="#id0" x1="1.52178e+06" y1="319660" x2="1.55144e+06" y2="251069">
  </linearGradient>
  <linearGradient id="id12" gradientUnits="userSpaceOnUse" xlink:href="#id0" x1="1.327e+06" y1="494119" x2="1.41317e+06" y2="300784">
  </linearGradient>
  <linearGradient id="id13" gradientUnits="userSpaceOnUse" xlink:href="#id0" x1="430239" y1="474957" x2="459902" y2="406366">
  </linearGradient>
  <linearGradient id="id14" gradientUnits="userSpaceOnUse" xlink:href="#id0" x1="235459" y1="649416" x2="321635" y2="456081">
  </linearGradient>
  <linearGradient id="id15" gradientUnits="userSpaceOnUse" xlink:href="#id0" x1="1.42463e+06" y1="484706" x2="1.53832e+06" y2="288863">
  </linearGradient>
  <linearGradient id="id16" gradientUnits="userSpaceOnUse" xlink:href="#id0" x1="2.66626e+06" y1="507144" x2="2.69593e+06" y2="438552">
  </linearGradient>
  <linearGradient id="id17" gradientUnits="userSpaceOnUse" xlink:href="#id0" x1="1.40957e+06" y1="319304" x2="1.43924e+06" y2="250713">
  </linearGradient>
  <linearGradient id="id18" gradientUnits="userSpaceOnUse" xlink:href="#id0" x1="333088" y1="640003" x2="446780" y2="444159">
  </linearGradient>
  <linearGradient id="id19" gradientUnits="userSpaceOnUse" xlink:href="#id0" x1="2.56911e+06" y1="672190" x2="2.68281e+06" y2="476346">
  </linearGradient>
  <linearGradient id="id20" gradientUnits="userSpaceOnUse" xlink:href="#id0" x1="318027" y1="474601" x2="347701" y2="406009">
  </linearGradient>
 </defs>
 <g id="Layer_x0020_1">
  <metadata id="CorelCorpID_0Corel-Layer"/>
  <path class="fil0 str0" d="M398891 157235c219228,0 396948,177720 396948,396948 0,219228 -177720,396948 -396948,396948 -219233,0 -396952,-177720 -396952,-396948 0,-219228 177719,-396948 396952,-396948z"/>
  <path class="fil1 str1" d="M399349 177465c191824,0 347329,155506 347329,347330 0,191828 -155505,347329 -347329,347329 -191824,0 -347329,-155501 -347329,-347329 0,-191824 155505,-347330 347329,-347330z"/>
  <path class="fil2" d="M352580 767549l-25974 0 0 -17314c0,-5047 -275,-8177 -820,-9438 -549,-1237 -1765,-1868 -3637,-1868 -2102,0 -3445,758 -4015,2270 -565,1531 -860,4813 -860,9855l0 46276c0,4854 295,8008 860,9499 570,1476 1852,2208 3826,2208 1913,0 3175,-732 3760,-2228 591,-1471 886,-4956 886,-10441l0 -12547 25974 0 0 3887c0,10339 -733,17671 -2183,21981 -1450,4329 -4686,8115 -9667,11371 -5002,3257 -11143,4875 -18454,4875 -7587,0 -13850,-1364 -18790,-4117 -4915,-2757 -8197,-6558 -9795,-11437 -1592,-4875 -2391,-12186 -2391,-21960l0 -29129c0,-7190 249,-12568 732,-16160 504,-3592 1954,-7062 4412,-10385 2437,-3317 5826,-5948 10156,-7861 4329,-1908 9306,-2859 14938,-2859 7632,0 13936,1475 18917,4437 4961,2941 8217,6619 9795,11036 1557,4411 2330,11264 2330,20576l0 9473zm33378 -43502l0 22469c2142,-1975 4457,-3470 6934,-4458 2478,-987 5150,-1490 7989,-1490 4350,0 8049,1114 11117,3317 3048,2229 4920,4773 5612,7673 672,2900 1008,8197 1008,15869l0 56366 -24845 0 0 -57521c0,-4752 -229,-7820 -713,-9163 -483,-1369 -1531,-2040 -3195,-2040 -1531,0 -2564,692 -3109,2101 -524,1384 -798,4162 -798,8298l0 58325 -24840 0 0 -99746 24840 0zm66831 0l0 12990 -25598 0 0 -12990 25598 0zm0 18032l0 81714 -25598 0 0 -81714 25598 0zm35056 -10843l0 12863 6935 0 0 12989 -6935 0 0 43691c0,5358 295,8365 860,8976 570,605 2921,921 7083,921l0 13117 -10064 0c-5679,0 -9734,-229 -12171,-718 -2417,-463 -4559,-1552 -6411,-3256 -1847,-1705 -3002,-3633 -3465,-5841 -443,-2188 -671,-7337 -671,-15448l0 -41442 -5302 0 0 -12989 5302 0 0 -12863 24839 0z"/>
  <path class="fil3 str0" d="M345732 754076l-25975 0 0 -17314c0,-5048 -275,-8177 -819,-9438 -550,-1242 -1766,-1873 -3638,-1873 -2101,0 -3445,758 -4014,2269 -565,1537 -860,4814 -860,9861l0 46276c0,4854 295,8008 860,9499 569,1470 1852,2208 3826,2208 1913,0 3175,-738 3760,-2228 590,-1471 885,-4961 885,-10446l0 -12547 25975 0 0 3887c0,10339 -733,17676 -2183,21985 -1450,4330 -4686,8111 -9667,11367 -5007,3262 -11143,4880 -18455,4880 -7586,0 -13849,-1369 -18790,-4122 -4915,-2752 -8197,-6553 -9794,-11433 -1598,-4874 -2392,-12191 -2392,-21960l0 -29128c0,-7190 250,-12568 733,-16165 504,-3592 1954,-7062 4411,-10380 2437,-3322 5826,-5948 10156,-7861 4330,-1913 9306,-2859 14938,-2859 7633,0 13937,1470 18918,4437 4961,2940 8217,6619 9794,11030 1557,4417 2331,11265 2331,20576l0 9479zm33377 -43502l0 22463c2142,-1974 4457,-3465 6935,-4452 2478,-992 5149,-1490 7988,-1490 4350,0 8049,1109 11118,3317 3047,2229 4915,4773 5612,7673 671,2900 1007,8191 1007,15864l0 56365 -24845 0 0 -57520c0,-4747 -229,-7820 -712,-9163 -483,-1364 -1532,-2036 -3195,-2036 -1532,0 -2565,692 -3109,2097 -524,1389 -799,4162 -799,8303l0 58319 -24840 0 0 -99740 24840 0zm66831 0l0 12984 -25598 0 0 -12984 25598 0zm0 18032l0 81708 -25598 0 0 -81708 25598 0zm35057 -10843l0 12858 6935 0 0 12989 -6935 0 0 43691c0,5363 295,8365 860,8975 570,611 2920,927 7082,927l0 13111 -10064 0c-5678,0 -9733,-229 -12170,-712 -2417,-463 -4559,-1557 -6411,-3256 -1847,-1705 -3002,-3638 -3465,-5841 -443,-2188 -677,-7337 -677,-15448l0 -41447 -5297 0 0 -12989 5297 0 0 -12858 24845 0z"/>
  <path class="fil4 str2" d="M350952 284049l-13723 41727 15010 50682 -24768 0 -9749 -39605 0 39605 -24066 0 0 -92409 24066 0 0 35907 10802 -35907 22428 0zm57383 16704l0 75705 -23426 0 412 -6309c-1597,2575 -3566,4498 -5902,5785 -2335,1287 -5027,1928 -8059,1928 -3450,0 -6330,-600 -8609,-1831 -2279,-1206 -3953,-2824 -5042,-4849 -1069,-2020 -1756,-4106 -2025,-6304 -255,-2183 -392,-6528 -392,-13051l0 -51074 23018 0 0 51522c0,5902 178,9387 545,10496 351,1110 1343,1659 2940,1659 1695,0 2723,-565 3038,-1715 331,-1129 488,-4808 488,-11005l0 -50957 23014 0zm60807 -16704l0 92409 -23013 0 0 -5505c-2219,2315 -4539,4030 -6971,5180 -2452,1144 -5007,1729 -7673,1729 -3582,0 -6696,-936 -9326,-2823 -2631,-1888 -4320,-4071 -5063,-6544 -738,-2472 -1109,-6502 -1109,-12109l0 -35454c0,-5825 371,-9952 1109,-12389 743,-2432 2453,-4574 5124,-6426 2666,-1847 5861,-2763 9560,-2763 2860,0 5470,524 7866,1562 2376,1028 4534,2565 6483,4651l0 -21518 23013 0zm-23013 35749c0,-2763 -235,-4635 -723,-5587 -483,-951 -1440,-1419 -2859,-1419 -1400,0 -2336,427 -2824,1282 -489,860 -723,2763 -723,5724l0 37097c0,3073 234,5098 702,6070 468,977 1349,1465 2672,1465 1495,0 2508,-549 2991,-1638 509,-1069 764,-3720 764,-7943l0 -35051zm83357 7535l0 18556c0,6818 -351,11799 -1033,14995 -682,3170 -2142,6136 -4381,8899 -2239,2762 -5119,4787 -8645,6110 -3526,1308 -7555,1969 -12109,1969 -5103,0 -9423,-564 -12949,-1674 -3546,-1129 -6289,-2823 -8238,-5082 -1964,-2280 -3368,-5022 -4207,-8238 -835,-3211 -1242,-8039 -1242,-14465l0 -19411c0,-7052 753,-12542 2274,-16511 1522,-3953 4264,-7128 8218,-9525 3953,-2391 9016,-3602 15167,-3602 5164,0 9601,779 13321,2315 3699,1542 6563,3547 8588,6019 2005,2473 3384,5022 4127,7653 737,2625 1109,6619 1109,11992zm-23019 -5703c0,-3878 -213,-6330 -620,-7317 -428,-1018 -1323,-1521 -2707,-1521 -1384,0 -2295,503 -2763,1521 -448,987 -687,3439 -687,7317l0 34171c0,3582 239,5922 687,6991 468,1089 1364,1638 2707,1638 1379,0 2279,-488 2722,-1481 448,-997 661,-3119 661,-6390l0 -34929z"/>
  <path class="fil5 str2" d="M347889 277923l-13728 41727 15010 50682 -24763 0 -9749 -39605 0 39605 -24072 0 0 -92409 24072 0 0 35902 10802 -35902 22428 0zm57383 16704l0 75705 -23426 0 407 -6309c-1592,2575 -3561,4498 -5897,5785 -2340,1282 -5027,1928 -8059,1928 -3450,0 -6330,-605 -8609,-1831 -2279,-1206 -3953,-2824 -5042,-4849 -1069,-2025 -1756,-4106 -2025,-6309 -255,-2178 -392,-6523 -392,-13046l0 -51074 23013 0 0 51522c0,5902 178,9382 550,10496 351,1110 1343,1654 2941,1654 1694,0 2722,-565 3032,-1715 336,-1129 488,-4808 488,-11000l0 -50957 23019 0zm60807 -16704l0 92409 -23013 0 0 -5510c-2219,2315 -4539,4030 -6971,5179 -2458,1150 -5007,1735 -7673,1735 -3582,0 -6701,-936 -9326,-2823 -2631,-1893 -4320,-4071 -5063,-6544 -738,-2472 -1109,-6502 -1109,-12109l0 -35459c0,-5825 371,-9952 1109,-12384 743,-2432 2453,-4574 5124,-6426 2666,-1847 5856,-2763 9560,-2763 2860,0 5470,524 7861,1557 2381,1033 4539,2570 6488,4656l0 -21518 23013 0zm-23013 35749c0,-2768 -235,-4635 -723,-5587 -483,-956 -1440,-1424 -2859,-1424 -1405,0 -2341,427 -2824,1287 -489,855 -723,2763 -723,5724l0 37092c0,3078 234,5103 702,6075 468,972 1344,1460 2672,1460 1495,0 2508,-544 2991,-1633 509,-1074 764,-3720 764,-7948l0 -35046zm83352 7535l0 18556c0,6818 -346,11799 -1028,14990 -682,3175 -2142,6136 -4381,8899 -2239,2767 -5119,4793 -8650,6115 -3521,1308 -7550,1969 -12104,1969 -5108,0 -9423,-569 -12954,-1673 -3541,-1135 -6284,-2829 -8233,-5083 -1969,-2280 -3373,-5027 -4207,-8238 -835,-3216 -1242,-8044 -1242,-14470l0 -19411c0,-7047 753,-12537 2274,-16511 1517,-3953 4264,-7123 8218,-9519 3953,-2397 9016,-3603 15167,-3603 5159,0 9601,779 13321,2315 3699,1542 6558,3547 8588,6019 2000,2473 3384,5022 4127,7653 737,2625 1104,6619 1104,11992zm-23014 -5709c0,-3872 -213,-6324 -620,-7316 -428,-1013 -1328,-1521 -2707,-1521 -1384,0 -2300,508 -2763,1521 -453,992 -687,3444 -687,7316l0 34172c0,3587 234,5922 687,6996 463,1089 1364,1633 2702,1633 1384,0 2279,-488 2727,-1481 448,-992 661,-3114 661,-6385l0 -34935z"/>
  <path class="fil6 str3" d="M338695 268729l-13723 41727 15010 50682 -24768 0 -9749 -39605 0 39605 -24066 0 0 -92409 24066 0 0 35907 10802 -35907 22428 0zm57383 16704l0 75705 -23426 0 412 -6309c-1597,2574 -3566,4498 -5902,5785 -2335,1287 -5022,1928 -8059,1928 -3450,0 -6330,-605 -8604,-1831 -2279,-1206 -3958,-2824 -5047,-4849 -1069,-2020 -1751,-4106 -2025,-6304 -255,-2183 -392,-6528 -392,-13051l0 -51074 23018 0 0 51522c0,5902 178,9387 545,10496 351,1109 1343,1659 2940,1659 1695,0 2728,-565 3038,-1715 331,-1129 488,-4808 488,-11005l0 -50957 23014 0zm60807 -16704l0 92409 -23014 0 0 -5510c-2218,2320 -4538,4035 -6965,5184 -2458,1145 -5012,1730 -7678,1730 -3577,0 -6696,-936 -9321,-2823 -2631,-1888 -4325,-4071 -5068,-6544 -738,-2472 -1104,-6502 -1104,-12109l0 -35454c0,-5825 366,-9952 1104,-12389 743,-2432 2453,-4574 5124,-6426 2666,-1847 5861,-2763 9560,-2763 2860,0 5470,524 7866,1562 2376,1028 4534,2565 6482,4651l0 -21518 23014 0zm-23014 35749c0,-2763 -234,-4635 -722,-5587 -483,-951 -1440,-1419 -2860,-1419 -1399,0 -2335,427 -2823,1282 -489,860 -723,2763 -723,5724l0 37097c0,3073 234,5098 702,6070 468,977 1349,1465 2672,1465 1495,0 2508,-550 2996,-1638 504,-1069 758,-3720 758,-7943l0 -35051zm83358 7535l0 18556c0,6818 -351,11799 -1033,14995 -682,3169 -2142,6136 -4381,8899 -2239,2762 -5119,4787 -8645,6110 -3526,1308 -7555,1969 -12109,1969 -5103,0 -9423,-564 -12949,-1674 -3541,-1134 -6289,-2823 -8238,-5083 -1964,-2279 -3368,-5026 -4202,-8237 -840,-3211 -1247,-8039 -1247,-14465l0 -19411c0,-7052 758,-12542 2274,-16511 1522,-3953 4264,-7128 8223,-9525 3948,-2391 9011,-3602 15162,-3602 5164,0 9601,779 13320,2315 3699,1542 6564,3547 8589,6019 2005,2473 3384,5022 4126,7653 738,2625 1110,6619 1110,11992zm-23019 -5703c0,-3878 -213,-6330 -620,-7322 -428,-1013 -1323,-1516 -2707,-1516 -1379,0 -2295,503 -2763,1516 -448,992 -682,3444 -682,7322l0 34171c0,3582 234,5922 682,6991 468,1088 1364,1638 2707,1638 1379,0 2279,-488 2722,-1481 448,-997 661,-3119 661,-6390l0 -34929z"/>
  <path class="fil7" d="M390130 427827c8827,22092 15203,45584 24036,67671 4909,626 6762,-8080 6375,-22866 11504,11199 17467,31195 23049,51801 31179,58803 21624,105628 -19126,143279 -16679,9286 -33352,8757 -50031,1862 -37173,-26773 -54350,-76167 -18637,-145604 3052,-13188 6573,-26335 14226,-39203 2361,10441 5139,19772 10786,21466 2290,-25669 7032,-52737 9322,-78406z"/>
  <path class="fil7" d="M321721 446663c8283,17375 13316,30294 24713,36379 -14923,28346 -27893,56686 -42816,85031 11417,23690 20881,47380 32304,71070 -9993,12695 -19986,25384 -29979,38074 -26737,-32574 -50168,-74896 -76905,-107470 30497,-44281 62185,-78803 92683,-123084z"/>
  <path class="fil7" d="M473273 451089c-8288,17376 -13315,30294 -24717,36385 14928,28340 29393,56686 44316,85031 -11422,23685 -22382,47380 -33805,71070 9993,12689 19991,25379 29984,38073 26733,-32578 50168,-74901 76906,-107474 -30498,-44276 -62186,-78804 -92684,-123085z"/>
  <path class="fil7" d="M348031 489942c5582,-5780 9668,-11560 15244,-17340 0,-20729 0,-41463 0,-62191 -40826,-10970 -63407,47161 -15244,79531z"/>
  <path class="fil7" d="M448286 490303c-5582,-5785 -9667,-11565 -15249,-17345 0,-20729 0,-41458 0,-62186 40826,-10975 63412,47156 15249,79531z"/>
  <path class="fil8" d="M380936 418638c8827,22087 15208,45578 24035,67671 4916,626 6762,-8080 6376,-22871 11509,11204 17472,31200 23054,51806 31174,58803 21624,105623 -19131,143274 -16679,9291 -33347,8762 -50031,1867 -37173,-26778 -54345,-76172 -18637,-145609 3058,-13183 6573,-26330 14226,-39203 2361,10446 5144,19777 10786,21466 2290,-25664 7032,-52732 9322,-78401z"/>
  <path class="fil9" d="M312527 437469c8283,17375 13315,30294 24713,36384 -14924,28346 -27893,56686 -42816,85031 11422,23685 20886,47380 32304,71070 -9993,12689 -19986,25379 -29979,38074 -26732,-32579 -50168,-74901 -76900,-107475 30497,-44276 62180,-78803 92678,-123084z"/>
  <path class="fil10" d="M464079 441900c-8283,17371 -13315,30289 -24712,36380 14923,28345 29388,56686 44311,85031 -11422,23690 -22377,47380 -33800,71070 9993,12689 19986,25379 29979,38073 26738,-32573 50173,-74896 76906,-107474 -30498,-44276 -62186,-78804 -92684,-123080z"/>
  <path class="fil11" d="M338837 480753c5582,-5780 9668,-11566 15249,-17346 0,-20728 0,-41457 0,-62185 -40826,-10970 -63412,47155 -15249,79531z"/>
  <path class="fil12" d="M439092 481109c-5582,-5780 -9667,-11565 -15244,-17345 0,-20729 0,-41458 0,-62186 40821,-10970 63407,47156 15244,79531z"/>
  <g id="_1832500581936">
   <path class="fil13 str0" d="M1490431 1939c219228,0 396948,177719 396948,396947 0,219228 -177720,396948 -396948,396948 -219233,0 -396953,-177720 -396953,-396948 0,-219228 177720,-396947 396953,-396947z"/>
   <path class="fil14 str1" d="M1490889 22169c191824,0 347329,155505 347329,347329 0,191829 -155505,347329 -347329,347329 -191824,0 -347329,-155500 -347329,-347329 0,-191824 155505,-347329 347329,-347329z"/>
   <path class="fil2" d="M1444120 612253l-25974 0 0 -17315c0,-5047 -275,-8176 -820,-9438 -549,-1237 -1765,-1867 -3638,-1867 -2101,0 -3444,758 -4014,2269 -565,1531 -860,4813 -860,9855l0 46276c0,4854 295,8008 860,9499 570,1476 1852,2208 3826,2208 1913,0 3175,-732 3760,-2228 590,-1471 886,-4956 886,-10441l0 -12547 25974 0 0 3887c0,10339 -733,17671 -2183,21981 -1450,4330 -4686,8115 -9667,11371 -5002,3257 -11143,4875 -18454,4875 -7587,0 -13850,-1364 -18790,-4116 -4916,-2758 -8197,-6559 -9795,-11438 -1592,-4875 -2391,-12186 -2391,-21960l0 -29129c0,-7190 249,-12568 732,-16160 504,-3592 1954,-7062 4412,-10384 2437,-3318 5825,-5948 10155,-7861 4330,-1908 9306,-2860 14939,-2860 7632,0 13936,1476 18917,4437 4961,2941 8217,6619 9795,11036 1557,4411 2330,11265 2330,20576l0 9474zm33377 -43503l0 22469c2142,-1974 4457,-3470 6935,-4457 2478,-987 5149,-1491 7989,-1491 4350,0 8049,1114 11117,3317 3048,2229 4920,4773 5612,7673 672,2900 1007,8197 1007,15870l0 56365 -24844 0 0 -57520c0,-4753 -229,-7821 -713,-9164 -483,-1369 -1531,-2040 -3195,-2040 -1532,0 -2564,692 -3109,2101 -524,1384 -799,4162 -799,8299l0 58324 -24839 0 0 -99746 24839 0zm66832 0l0 12990 -25598 0 0 -12990 25598 0zm0 18032l0 81714 -25598 0 0 -81714 25598 0zm35056 -10843l0 12863 6935 0 0 12990 -6935 0 0 43691c0,5357 295,8364 860,8975 570,605 2921,921 7083,921l0 13117 -10065 0c-5678,0 -9733,-229 -12170,-718 -2417,-463 -4559,-1552 -6411,-3256 -1847,-1705 -3002,-3633 -3465,-5841 -443,-2188 -672,-7337 -672,-15447l0 -41442 -5301 0 0 -12990 5301 0 0 -12863 24840 0z"/>
   <path class="fil3 str0" d="M1437271 598780l-25974 0 0 -17315c0,-5047 -275,-8176 -819,-9438 -550,-1242 -1766,-1873 -3638,-1873 -2101,0 -3445,758 -4015,2270 -564,1536 -859,4813 -859,9860l0 46276c0,4854 295,8008 859,9499 570,1471 1853,2208 3827,2208 1913,0 3175,-737 3760,-2228 590,-1471 885,-4961 885,-10446l0 -12547 25974 0 0 3887c0,10339 -732,17676 -2182,21986 -1450,4330 -4686,8110 -9668,11366 -5006,3262 -11142,4880 -18454,4880 -7586,0 -13849,-1369 -18790,-4122 -4915,-2752 -8197,-6553 -9794,-11432 -1598,-4875 -2392,-12191 -2392,-21960l0 -29129c0,-7190 250,-12568 733,-16165 504,-3592 1954,-7062 4411,-10380 2437,-3322 5826,-5947 10156,-7861 4330,-1913 9306,-2859 14938,-2859 7632,0 13936,1470 18918,4437 4960,2941 8217,6619 9794,11031 1557,4416 2330,11264 2330,20576l0 9479zm33378 -43503l0 22464c2142,-1975 4457,-3465 6935,-4452 2478,-993 5149,-1491 7988,-1491 4350,0 8049,1109 11117,3317 3048,2229 4915,4773 5613,7673 671,2900 1007,8192 1007,15864l0 56366 -24845 0 0 -57521c0,-4747 -229,-7820 -712,-9163 -484,-1364 -1532,-2035 -3195,-2035 -1532,0 -2565,692 -3109,2096 -524,1389 -799,4162 -799,8304l0 58319 -24840 0 0 -99741 24840 0zm66831 0l0 12985 -25598 0 0 -12985 25598 0zm0 18032l0 81709 -25598 0 0 -81709 25598 0zm35057 -10843l0 12858 6935 0 0 12989 -6935 0 0 43691c0,5363 295,8365 860,8976 569,610 2920,926 7082,926l0 13112 -10064 0c-5678,0 -9733,-229 -12171,-713 -2416,-463 -4558,-1557 -6411,-3256 -1846,-1705 -3001,-3638 -3464,-5841 -443,-2188 -677,-7337 -677,-15447l0 -41448 -5297 0 0 -12989 5297 0 0 -12858 24845 0z"/>
   <path class="fil4 str2" d="M1442492 128753l-13723 41726 15010 50682 -24769 0 -9748 -39605 0 39605 -24067 0 0 -92408 24067 0 0 35906 10802 -35906 22428 0zm57383 16704l0 75704 -23426 0 412 -6309c-1597,2575 -3566,4498 -5902,5785 -2335,1288 -5027,1929 -8059,1929 -3450,0 -6330,-601 -8609,-1832 -2280,-1206 -3954,-2824 -5042,-4849 -1069,-2020 -1756,-4106 -2025,-6304 -255,-2183 -392,-6528 -392,-13051l0 -51073 23018 0 0 51521c0,5902 178,9387 544,10497 352,1109 1344,1658 2941,1658 1695,0 2722,-565 3038,-1714 331,-1130 488,-4809 488,-11006l0 -50956 23014 0zm60807 -16704l0 92408 -23014 0 0 -5505c-2218,2315 -4538,4030 -6970,5180 -2453,1145 -5007,1730 -7673,1730 -3582,0 -6696,-937 -9326,-2824 -2631,-1888 -4320,-4071 -5063,-6543 -738,-2473 -1109,-6503 -1109,-12110l0 -35453c0,-5826 371,-9952 1109,-12390 743,-2432 2453,-4574 5124,-6426 2666,-1847 5861,-2763 9560,-2763 2860,0 5470,524 7866,1562 2376,1028 4534,2565 6482,4651l0 -21517 23014 0zm-23014 35748c0,-2763 -234,-4635 -722,-5587 -483,-951 -1440,-1419 -2860,-1419 -1399,0 -2335,427 -2823,1282 -489,860 -723,2763 -723,5724l0 37097c0,3073 234,5098 702,6070 468,977 1349,1465 2671,1465 1496,0 2509,-549 2992,-1638 509,-1069 763,-3719 763,-7943l0 -35051zm83358 7535l0 18556c0,6818 -351,11800 -1033,14995 -682,3170 -2142,6136 -4381,8899 -2239,2763 -5119,4788 -8645,6111 -3526,1307 -7555,1969 -12109,1969 -5103,0 -9423,-565 -12949,-1674 -3547,-1130 -6289,-2824 -8238,-5083 -1964,-2280 -3368,-5022 -4207,-8238 -835,-3210 -1242,-8039 -1242,-14465l0 -19411c0,-7052 753,-12542 2274,-16511 1522,-3953 4264,-7128 8218,-9524 3953,-2392 9016,-3603 15167,-3603 5164,0 9601,779 13320,2315 3699,1542 6564,3547 8589,6020 2005,2472 3384,5021 4126,7652 738,2625 1110,6619 1110,11992zm-23019 -5703c0,-3877 -213,-6330 -620,-7317 -428,-1017 -1323,-1521 -2707,-1521 -1384,0 -2295,504 -2763,1521 -448,987 -687,3440 -687,7317l0 34171c0,3582 239,5922 687,6991 468,1089 1364,1638 2707,1638 1379,0 2279,-488 2722,-1480 448,-998 661,-3119 661,-6391l0 -34929z"/>
   <path class="fil5 str2" d="M1439429 122627l-13728 41727 15010 50681 -24763 0 -9749 -39605 0 39605 -24072 0 0 -92408 24072 0 0 35901 10802 -35901 22428 0zm57383 16704l0 75704 -23426 0 407 -6309c-1592,2575 -3561,4498 -5897,5785 -2340,1282 -5027,1929 -8059,1929 -3450,0 -6330,-606 -8609,-1832 -2280,-1206 -3954,-2824 -5042,-4849 -1069,-2025 -1756,-4106 -2025,-6309 -255,-2178 -392,-6523 -392,-13046l0 -51073 23013 0 0 51521c0,5902 178,9382 550,10497 351,1109 1343,1653 2940,1653 1695,0 2722,-565 3033,-1714 336,-1130 488,-4809 488,-11001l0 -50956 23019 0zm60807 -16704l0 92408 -23014 0 0 -5510c-2218,2315 -4538,4030 -6970,5180 -2458,1150 -5007,1735 -7673,1735 -3582,0 -6701,-937 -9326,-2824 -2631,-1893 -4320,-4071 -5063,-6543 -738,-2473 -1109,-6503 -1109,-12110l0 -35458c0,-5826 371,-9953 1109,-12385 743,-2432 2453,-4574 5124,-6426 2666,-1847 5856,-2763 9560,-2763 2860,0 5470,524 7861,1557 2381,1033 4539,2570 6487,4656l0 -21517 23014 0zm-23014 35748c0,-2768 -234,-4635 -722,-5587 -483,-956 -1440,-1424 -2860,-1424 -1404,0 -2340,427 -2823,1287 -489,855 -723,2763 -723,5724l0 37092c0,3078 234,5103 702,6075 468,972 1343,1460 2671,1460 1496,0 2509,-544 2992,-1633 509,-1074 763,-3719 763,-7948l0 -35046zm83353 7535l0 18556c0,6818 -346,11800 -1028,14990 -682,3175 -2142,6136 -4381,8899 -2239,2768 -5119,4793 -8650,6116 -3521,1307 -7550,1969 -12104,1969 -5109,0 -9423,-570 -12954,-1674 -3542,-1135 -6284,-2829 -8233,-5083 -1969,-2280 -3373,-5027 -4207,-8238 -835,-3215 -1242,-8044 -1242,-14470l0 -19411c0,-7047 753,-12537 2274,-16511 1517,-3953 4264,-7123 8218,-9519 3953,-2397 9016,-3603 15167,-3603 5159,0 9601,779 13320,2315 3699,1542 6559,3547 8589,6020 2000,2472 3384,5021 4126,7652 738,2625 1105,6619 1105,11992zm-23014 -5708c0,-3872 -213,-6325 -620,-7317 -428,-1012 -1328,-1521 -2707,-1521 -1384,0 -2300,509 -2763,1521 -453,992 -687,3445 -687,7317l0 34171c0,3587 234,5922 687,6996 463,1089 1364,1633 2702,1633 1384,0 2279,-488 2727,-1480 448,-993 661,-3114 661,-6386l0 -34934z"/>
   <path class="fil6 str3" d="M1430235 113433l-13723 41726 15010 50682 -24769 0 -9748 -39605 0 39605 -24067 0 0 -92408 24067 0 0 35906 10802 -35906 22428 0zm57382 16704l0 75704 -23425 0 412 -6309c-1597,2575 -3566,4498 -5902,5785 -2335,1287 -5022,1929 -8059,1929 -3450,0 -6330,-606 -8604,-1832 -2280,-1206 -3959,-2824 -5047,-4849 -1069,-2020 -1751,-4106 -2025,-6304 -255,-2183 -392,-6528 -392,-13051l0 -51073 23018 0 0 51521c0,5902 178,9387 544,10496 352,1110 1344,1659 2941,1659 1695,0 2727,-565 3038,-1714 331,-1130 488,-4809 488,-11006l0 -50956 23013 0zm60808 -16704l0 92408 -23014 0 0 -5510c-2218,2320 -4538,4035 -6965,5185 -2458,1144 -5012,1730 -7678,1730 -3577,0 -6696,-937 -9321,-2824 -2631,-1888 -4325,-4071 -5068,-6543 -738,-2473 -1104,-6503 -1104,-12110l0 -35453c0,-5826 366,-9953 1104,-12390 743,-2432 2452,-4574 5124,-6426 2666,-1847 5861,-2763 9560,-2763 2860,0 5470,524 7866,1562 2376,1028 4534,2565 6482,4651l0 -21517 23014 0zm-23014 35748c0,-2763 -234,-4635 -722,-5587 -484,-951 -1440,-1419 -2860,-1419 -1399,0 -2335,427 -2823,1282 -489,860 -723,2763 -723,5724l0 37097c0,3073 234,5098 702,6070 468,977 1348,1465 2671,1465 1496,0 2509,-549 2997,-1638 504,-1069 758,-3720 758,-7943l0 -35051zm83358 7535l0 18556c0,6818 -352,11800 -1033,14995 -682,3170 -2142,6136 -4381,8899 -2239,2763 -5119,4788 -8645,6111 -3526,1307 -7555,1969 -12109,1969 -5104,0 -9423,-565 -12949,-1674 -3542,-1135 -6289,-2824 -8238,-5083 -1964,-2280 -3368,-5027 -4202,-8238 -840,-3210 -1247,-8039 -1247,-14465l0 -19411c0,-7052 758,-12542 2274,-16511 1522,-3953 4264,-7128 8223,-9524 3948,-2392 9010,-3603 15162,-3603 5164,0 9601,779 13320,2315 3699,1542 6564,3547 8589,6019 2005,2473 3383,5022 4126,7653 738,2625 1110,6619 1110,11992zm-23019 -5703c0,-3877 -213,-6330 -620,-7322 -428,-1012 -1323,-1516 -2707,-1516 -1379,0 -2295,504 -2763,1516 -448,992 -682,3445 -682,7322l0 34171c0,3582 234,5922 682,6991 468,1089 1364,1638 2707,1638 1379,0 2279,-488 2722,-1480 448,-998 661,-3119 661,-6391l0 -34929z"/>
   <path class="fil7" d="M1481670 272530c8827,22092 15203,45584 24035,67671 4910,626 6762,-8080 6376,-22866 11504,11199 17467,31195 23048,51801 31180,58803 21625,105628 -19125,143279 -16679,9286 -33352,8757 -50031,1863 -37173,-26774 -54350,-76168 -18637,-145605 3052,-13188 6573,-26335 14226,-39203 2361,10441 5139,19772 10786,21467 2290,-25670 7032,-52738 9322,-78407z"/>
   <path class="fil7" d="M1413261 291366c8283,17376 13315,30294 24713,36379 -14924,28346 -27893,56686 -42816,85032 11417,23689 20881,47379 32304,71069 -9993,12695 -19986,25384 -29979,38074 -26738,-32574 -50168,-74896 -76906,-107470 30498,-44281 62186,-78803 92684,-123084z"/>
   <path class="fil7" d="M1564813 295793c-8288,17375 -13315,30294 -24718,36384 14929,28340 29394,56686 44317,85031 -11422,23685 -22382,47380 -33805,71070 9993,12689 19991,25379 29984,38073 26733,-32578 50168,-74900 76906,-107474 -30498,-44276 -62186,-78803 -92684,-123084z"/>
   <path class="fil7" d="M1439571 334645c5582,-5780 9667,-11560 15244,-17340 0,-20729 0,-41463 0,-62191 -40826,-10970 -63407,47161 -15244,79531z"/>
   <path class="fil7" d="M1539826 335006c-5582,-5785 -9668,-11565 -15249,-17345 0,-20729 0,-41457 0,-62186 40826,-10975 63412,47156 15249,79531z"/>
   <path class="fil15" d="M1472475 263341c8828,22087 15209,45579 24036,67671 4915,626 6762,-8080 6376,-22871 11509,11204 17472,31200 23054,51807 31174,58802 21624,105622 -19131,143273 -16679,9291 -33347,8762 -50031,1868 -37173,-26779 -54345,-76173 -18638,-145610 3058,-13183 6574,-26330 14227,-39203 2360,10446 5144,19777 10786,21467 2290,-25664 7032,-52733 9321,-78402z"/>
   <path class="fil16" d="M1404067 282172c8283,17376 13315,30294 24713,36384 -14924,28346 -27893,56686 -42816,85032 11422,23684 20886,47379 32304,71069 -9993,12690 -19986,25379 -29979,38074 -26733,-32579 -50168,-74901 -76900,-107475 30497,-44276 62180,-78803 92678,-123084z"/>
   <path class="fil17" d="M1555619 286604c-8283,17370 -13315,30289 -24713,36379 14924,28345 29389,56686 44312,85031 -11423,23690 -22377,47380 -33800,71070 9993,12689 19986,25379 29979,38073 26738,-32573 50173,-74895 76906,-107474 -30498,-44276 -62186,-78803 -92684,-123079z"/>
   <path class="fil18" d="M1430377 325456c5582,-5780 9667,-11565 15249,-17345 0,-20729 0,-41458 0,-62186 -40826,-10970 -63412,47156 -15249,79531z"/>
   <path class="fil19" d="M1530632 325812c-5582,-5780 -9668,-11565 -15244,-17345 0,-20729 0,-41457 0,-62186 40821,-10970 63407,47156 15244,79531z"/>
  </g>
  <path class="fil20 str0" d="M2634917 189422c219228,0 396948,177720 396948,396948 0,219228 -177720,396948 -396948,396948 -219233,0 -396953,-177720 -396953,-396948 0,-219228 177720,-396948 396953,-396948z"/>
  <path class="fil21 str1" d="M2635375 209652c191824,0 347329,155506 347329,347329 0,191829 -155505,347330 -347329,347330 -191824,0 -347329,-155501 -347329,-347330 0,-191823 155505,-347329 347329,-347329z"/>
  <path class="fil2" d="M2588606 799736l-25975 0 0 -17314c0,-5048 -274,-8177 -819,-9439 -549,-1236 -1765,-1867 -3638,-1867 -2101,0 -3444,758 -4014,2269 -565,1532 -860,4814 -860,9856l0 46276c0,4854 295,8008 860,9499 570,1475 1852,2208 3826,2208 1913,0 3175,-733 3760,-2228 590,-1471 885,-4956 885,-10441l0 -12547 25975 0 0 3887c0,10339 -733,17671 -2183,21980 -1450,4330 -4686,8116 -9667,11372 -5002,3256 -11143,4874 -18454,4874 -7587,0 -13850,-1363 -18791,-4116 -4915,-2757 -8196,-6558 -9794,-11438 -1593,-4874 -2391,-12185 -2391,-21960l0 -29129c0,-7189 249,-12567 732,-16159 504,-3592 1954,-7062 4412,-10385 2437,-3317 5825,-5948 10155,-7861 4330,-1908 9306,-2859 14939,-2859 7632,0 13936,1475 18917,4437 4961,2940 8217,6619 9795,11035 1556,4412 2330,11265 2330,20576l0 9474zm33377 -43502l0 22468c2142,-1974 4457,-3470 6935,-4457 2478,-987 5149,-1490 7988,-1490 4351,0 8050,1114 11118,3317 3048,2228 4920,4772 5612,7673 672,2900 1007,8196 1007,15869l0 56365 -24844 0 0 -57520c0,-4752 -229,-7820 -713,-9163 -483,-1369 -1531,-2041 -3195,-2041 -1532,0 -2564,692 -3109,2102 -524,1384 -799,4162 -799,8298l0 58324 -24839 0 0 -99745 24839 0zm66832 0l0 12989 -25598 0 0 -12989 25598 0zm0 18032l0 81713 -25598 0 0 -81713 25598 0zm35056 -10843l0 12863 6935 0 0 12989 -6935 0 0 43691c0,5358 295,8365 860,8976 570,605 2920,920 7082,920l0 13117 -10064 0c-5678,0 -9733,-229 -12170,-717 -2417,-463 -4559,-1552 -6411,-3256 -1847,-1705 -3002,-3633 -3465,-5841 -443,-2188 -672,-7337 -672,-15448l0 -41442 -5301 0 0 -12989 5301 0 0 -12863 24840 0z"/>
  <path class="fil3 str0" d="M2581757 786263l-25974 0 0 -17314c0,-5048 -275,-8177 -819,-9439 -550,-1241 -1766,-1872 -3638,-1872 -2102,0 -3445,758 -4015,2269 -564,1537 -859,4814 -859,9861l0 46275c0,4854 295,8009 859,9500 570,1470 1852,2208 3827,2208 1913,0 3175,-738 3760,-2229 590,-1470 885,-4960 885,-10445l0 -12547 25974 0 0 3887c0,10339 -732,17676 -2182,21985 -1451,4330 -4687,8111 -9668,11367 -5006,3261 -11142,4879 -18454,4879 -7586,0 -13850,-1368 -18790,-4121 -4915,-2753 -8197,-6553 -9795,-11433 -1597,-4874 -2391,-12191 -2391,-21960l0 -29129c0,-7189 249,-12567 733,-16164 504,-3592 1954,-7062 4411,-10380 2437,-3322 5826,-5948 10156,-7861 4330,-1913 9306,-2859 14938,-2859 7632,0 13936,1470 18918,4436 4960,2941 8217,6620 9794,11031 1557,4417 2330,11265 2330,20576l0 9479zm33378 -43502l0 22463c2142,-1974 4457,-3465 6935,-4452 2478,-992 5149,-1491 7988,-1491 4350,0 8049,1110 11117,3318 3048,2228 4915,4772 5612,7673 672,2900 1008,8191 1008,15864l0 56365 -24845 0 0 -57520c0,-4747 -229,-7820 -712,-9163 -484,-1364 -1532,-2036 -3196,-2036 -1531,0 -2564,692 -3108,2097 -524,1389 -799,4162 -799,8303l0 58319 -24840 0 0 -99740 24840 0zm66831 0l0 12984 -25598 0 0 -12984 25598 0zm0 18032l0 81708 -25598 0 0 -81708 25598 0zm35057 -10843l0 12857 6935 0 0 12990 -6935 0 0 43691c0,5363 295,8365 859,8975 570,611 2921,926 7083,926l0 13112 -10064 0c-5678,0 -9734,-229 -12171,-712 -2417,-463 -4559,-1557 -6411,-3256 -1847,-1705 -3002,-3638 -3465,-5841 -442,-2188 -676,-7337 -676,-15448l0 -41447 -5297 0 0 -12990 5297 0 0 -12857 24845 0z"/>
  <path class="fil4 str2" d="M2586978 316236l-13723 41727 15010 50682 -24769 0 -9748 -39605 0 39605 -24067 0 0 -92409 24067 0 0 35906 10802 -35906 22428 0zm57382 16704l0 75705 -23425 0 412 -6309c-1597,2574 -3566,4498 -5902,5785 -2335,1287 -5027,1928 -8059,1928 -3450,0 -6330,-600 -8609,-1831 -2280,-1206 -3954,-2824 -5042,-4849 -1069,-2020 -1756,-4106 -2025,-6304 -255,-2183 -392,-6528 -392,-13051l0 -51074 23018 0 0 51522c0,5902 178,9387 544,10496 351,1109 1344,1659 2941,1659 1695,0 2722,-565 3038,-1715 331,-1129 488,-4808 488,-11005l0 -50957 23013 0zm60807 -16704l0 92409 -23013 0 0 -5505c-2218,2315 -4538,4029 -6970,5179 -2453,1145 -5007,1730 -7673,1730 -3582,0 -6696,-936 -9326,-2824 -2631,-1887 -4320,-4070 -5063,-6543 -738,-2473 -1109,-6502 -1109,-12109l0 -35454c0,-5825 371,-9952 1109,-12389 743,-2432 2452,-4574 5124,-6426 2666,-1847 5861,-2763 9560,-2763 2860,0 5470,524 7866,1562 2376,1028 4534,2564 6482,4651l0 -21518 23013 0zm-23013 35749c0,-2763 -234,-4635 -722,-5587 -484,-951 -1440,-1419 -2860,-1419 -1399,0 -2335,427 -2824,1282 -488,860 -722,2763 -722,5724l0 37097c0,3073 234,5098 702,6070 468,976 1348,1465 2671,1465 1496,0 2509,-550 2992,-1638 509,-1069 763,-3720 763,-7943l0 -35051zm83357 7535l0 18556c0,6818 -351,11799 -1032,14995 -682,3169 -2142,6136 -4381,8899 -2239,2762 -5119,4787 -8645,6110 -3526,1308 -7555,1969 -12109,1969 -5104,0 -9423,-564 -12949,-1674 -3547,-1129 -6289,-2823 -8238,-5083 -1964,-2279 -3368,-5021 -4208,-8237 -834,-3211 -1241,-8039 -1241,-14465l0 -19411c0,-7052 753,-12542 2274,-16511 1522,-3953 4264,-7128 8217,-9525 3954,-2391 9016,-3602 15168,-3602 5164,0 9601,779 13320,2315 3699,1542 6564,3546 8589,6019 2005,2473 3383,5022 4126,7653 738,2625 1109,6619 1109,11992zm-23018 -5704c0,-3877 -213,-6329 -620,-7316 -428,-1018 -1323,-1521 -2707,-1521 -1384,0 -2295,503 -2763,1521 -448,987 -687,3439 -687,7316l0 34172c0,3582 239,5922 687,6991 468,1088 1363,1638 2707,1638 1379,0 2279,-489 2722,-1481 448,-997 661,-3119 661,-6390l0 -34930z"/>
  <path class="fil5 str2" d="M2583915 310110l-13728 41727 15010 50682 -24764 0 -9748 -39605 0 39605 -24072 0 0 -92409 24072 0 0 35901 10802 -35901 22428 0zm57382 16704l0 75705 -23425 0 407 -6309c-1592,2574 -3561,4498 -5897,5785 -2340,1282 -5027,1928 -8059,1928 -3450,0 -6330,-605 -8609,-1831 -2280,-1206 -3954,-2824 -5042,-4849 -1069,-2025 -1756,-4106 -2025,-6309 -255,-2178 -392,-6523 -392,-13046l0 -51074 23013 0 0 51522c0,5902 178,9382 549,10496 351,1109 1344,1654 2941,1654 1695,0 2722,-565 3033,-1715 336,-1129 488,-4808 488,-11000l0 -50957 23018 0zm60807 -16704l0 92409 -23013 0 0 -5510c-2218,2315 -4538,4029 -6970,5179 -2458,1150 -5007,1735 -7673,1735 -3582,0 -6701,-936 -9326,-2824 -2631,-1892 -4320,-4070 -5063,-6543 -738,-2473 -1109,-6502 -1109,-12109l0 -35459c0,-5826 371,-9952 1109,-12384 743,-2432 2452,-4574 5124,-6426 2666,-1847 5856,-2763 9560,-2763 2860,0 5470,524 7861,1557 2381,1033 4539,2569 6487,4656l0 -21518 23013 0zm-23013 35749c0,-2768 -234,-4635 -722,-5587 -484,-956 -1440,-1425 -2860,-1425 -1404,0 -2340,428 -2824,1288 -488,855 -722,2763 -722,5724l0 37091c0,3079 234,5104 702,6076 468,971 1343,1460 2671,1460 1496,0 2509,-545 2992,-1633 509,-1074 763,-3720 763,-7948l0 -35046zm83352 7535l0 18556c0,6818 -346,11799 -1027,14989 -682,3175 -2142,6137 -4381,8899 -2239,2768 -5119,4793 -8650,6116 -3521,1308 -7550,1969 -12104,1969 -5109,0 -9423,-570 -12954,-1674 -3542,-1134 -6284,-2829 -8233,-5083 -1969,-2279 -3373,-5027 -4208,-8237 -834,-3216 -1241,-8044 -1241,-14470l0 -19411c0,-7047 753,-12537 2274,-16511 1517,-3953 4264,-7123 8217,-9520 3954,-2396 9016,-3602 15168,-3602 5159,0 9601,779 13320,2315 3699,1542 6559,3546 8589,6019 2000,2473 3383,5022 4126,7653 738,2625 1104,6619 1104,11992zm-23013 -5709c0,-3872 -213,-6324 -620,-7316 -428,-1013 -1328,-1522 -2707,-1522 -1384,0 -2300,509 -2763,1522 -453,992 -687,3444 -687,7316l0 34172c0,3587 234,5922 687,6996 463,1088 1363,1633 2702,1633 1384,0 2279,-489 2727,-1481 448,-992 661,-3114 661,-6385l0 -34935z"/>
  <path class="fil6 str3" d="M2574721 300916l-13723 41727 15010 50682 -24769 0 -9748 -39605 0 39605 -24067 0 0 -92409 24067 0 0 35906 10802 -35906 22428 0zm57382 16704l0 75705 -23425 0 412 -6309c-1597,2574 -3566,4498 -5902,5785 -2335,1287 -5022,1928 -8059,1928 -3450,0 -6330,-605 -8604,-1831 -2280,-1206 -3959,-2824 -5048,-4849 -1068,-2020 -1750,-4106 -2025,-6304 -254,-2183 -391,-6528 -391,-13051l0 -51074 23018 0 0 51522c0,5902 178,9387 544,10496 351,1109 1344,1659 2941,1659 1695,0 2727,-565 3038,-1715 330,-1129 488,-4808 488,-11005l0 -50957 23013 0zm60807 -16704l0 92409 -23013 0 0 -5510c-2218,2320 -4538,4034 -6965,5184 -2458,1145 -5012,1730 -7678,1730 -3577,0 -6696,-936 -9321,-2824 -2631,-1887 -4325,-4070 -5068,-6543 -738,-2473 -1104,-6502 -1104,-12109l0 -35454c0,-5825 366,-9952 1104,-12389 743,-2432 2452,-4574 5124,-6426 2666,-1847 5861,-2763 9560,-2763 2859,0 5470,524 7866,1562 2376,1028 4534,2564 6482,4650l0 -21517 23013 0zm-23013 35749c0,-2763 -234,-4636 -722,-5587 -484,-951 -1440,-1420 -2860,-1420 -1399,0 -2335,428 -2824,1283 -488,860 -722,2762 -722,5724l0 37096c0,3074 234,5099 702,6071 468,976 1348,1465 2671,1465 1496,0 2509,-550 2997,-1638 504,-1069 758,-3720 758,-7943l0 -35051zm83357 7535l0 18556c0,6818 -351,11799 -1032,14995 -682,3169 -2142,6136 -4381,8898 -2239,2763 -5119,4788 -8645,6111 -3526,1308 -7556,1969 -12109,1969 -5104,0 -9423,-565 -12949,-1674 -3542,-1134 -6289,-2824 -8238,-5083 -1964,-2279 -3368,-5027 -4203,-8237 -839,-3211 -1246,-8039 -1246,-14465l0 -19411c0,-7052 758,-12542 2274,-16511 1522,-3953 4264,-7128 8222,-9525 3949,-2391 9011,-3602 15163,-3602 5164,0 9601,778 13320,2315 3699,1542 6564,3546 8589,6019 2005,2473 3383,5022 4126,7653 738,2625 1109,6619 1109,11992zm-23018 -5704c0,-3877 -214,-6329 -621,-7321 -427,-1013 -1322,-1517 -2706,-1517 -1379,0 -2295,504 -2763,1517 -448,992 -682,3444 -682,7321l0 34172c0,3582 234,5922 682,6991 468,1088 1363,1638 2707,1638 1379,0 2279,-489 2722,-1481 447,-997 661,-3119 661,-6390l0 -34930z"/>
  <path class="fil7" d="M2626155 460014c8828,22092 15204,45583 24036,67671 4910,625 6762,-8080 6376,-22866 11504,11199 17467,31195 23048,51801 31180,58803 21625,105628 -19126,143279 -16678,9286 -33352,8757 -50030,1862 -37173,-26773 -54350,-76168 -18638,-145604 3053,-13188 6574,-26335 14227,-39203 2360,10441 5138,19772 10786,21466 2290,-25669 7032,-52737 9321,-78406z"/>
  <path class="fil7" d="M2557747 478850c8283,17375 13315,30294 24712,36379 -14923,28345 -27892,56686 -42815,85031 11417,23690 20881,47380 32304,71070 -9993,12694 -19986,25384 -29979,38073 -26738,-32573 -50168,-74895 -76906,-107469 30498,-44281 62186,-78803 92684,-123084z"/>
  <path class="fil7" d="M2709299 483276c-8288,17376 -13315,30294 -24718,36385 14929,28340 29394,56685 44317,85031 -11423,23685 -22382,47380 -33805,71069 9993,12690 19991,25380 29984,38074 26732,-32578 50168,-74901 76905,-107474 -30497,-44276 -62185,-78804 -92683,-123085z"/>
  <path class="fil7" d="M2584057 522128c5582,-5780 9667,-11560 15244,-17340 0,-20728 0,-41462 0,-62191 -40826,-10969 -63407,47161 -15244,79531z"/>
  <path class="fil7" d="M2684312 522490c-5582,-5785 -9668,-11565 -15249,-17345 0,-20729 0,-41458 0,-62186 40826,-10975 63412,47156 15249,79531z"/>
  <path class="fil22" d="M2616961 450825c8828,22087 15209,45578 24036,67671 4915,625 6762,-8080 6376,-22871 11509,11204 17472,31200 23053,51806 31175,58803 21625,105623 -19131,143274 -16678,9291 -33347,8762 -50030,1867 -37173,-26778 -54345,-76173 -18638,-145609 3058,-13183 6574,-26330 14227,-39203 2360,10446 5144,19777 10786,21466 2290,-25664 7032,-52732 9321,-78401z"/>
  <path class="fil23" d="M2548553 469656c8283,17375 13315,30294 24712,36384 -14923,28345 -27892,56686 -42815,85031 11422,23685 20886,47380 32304,71070 -9993,12689 -19986,25379 -29979,38074 -26733,-32579 -50168,-74901 -76901,-107475 30498,-44276 62181,-78803 92679,-123084z"/>
  <path class="fil24" d="M2700105 474087c-8283,17371 -13315,30289 -24713,36380 14924,28345 29389,56685 44312,85031 -11423,23690 -22377,47380 -33800,71069 9993,12690 19986,25379 29979,38074 26737,-32573 50173,-74896 76905,-107474 -30497,-44276 -62185,-78804 -92683,-123080z"/>
  <path class="fil25" d="M2574863 512939c5582,-5780 9667,-11565 15249,-17345 0,-20728 0,-41457 0,-62186 -40826,-10969 -63412,47156 -15249,79531z"/>
  <path class="fil26" d="M2675118 513296c-5582,-5780 -9668,-11565 -15244,-17345 0,-20729 0,-41458 0,-62186 40821,-10970 63407,47155 15244,79531z"/>
 </g>
</svg>
